<?xml version="1.0" encoding="UTF-8"?><svg id="Layer_1" xmlns="http://www.w3.org/2000/svg" xmlns:xlink="http://www.w3.org/1999/xlink" viewBox="0 0 139 143"><defs><clipPath id="clippath"><rect width="139" height="143" fill="none"/></clipPath></defs><g clip-path="url(#clippath)"><path d="M138.8,128.3c-.2-1.4-1-3.5-3.1-5.8-2-2.2-4.7-4-8.1-5.4-8.2-3.5-19.8-4.3-34.4-2.6,1.9-5.6,1.6-11.6,1.5-16.2,0-.6,0-1.1,0-1.6-.2-6.5-3.3-17.2-5.8-25.9-1.6-5.6-3.2-11-3.2-12.8s0-1.4-.2-2.7c5.1,2.4,7.9,4.2,8.3,3.2.5-1.1-3.5-3.4-7-4.8-.5-.2-1-.4-1.5-.6-.2-1.6-.4-3.4-.7-5.5.5,0,.9,0,1.3,0,2.8,0,6.8,1.8,6.8,0s-4.6-2-8.5-2.1c-.7-5.2-1.7-11.4-2.9-17.6-1.5-7.7-3.1-13.9-4.7-18.5-2.2-6.1-4.3-9-6.8-9.2-6.9-.4-12,10.5-14.8,16.4-.5,1.1-1.1,2.3-1.4,2.7-.8.2-3.5.6-6.9.5-4.5,0-6.8-.7-7.5-1.4-.6-.6-2-2.4-3.4-4.4C31.2,7.5,24.5-1.6,19.4.3c-5.6,2.1-5.9,12.1-6.3,21.9,0,2-.1,3.8-.2,5.5-.4,7.3-1.7,10.8-2.8,13.7-.1.4-.3.7-.4,1.1-2.8,0-8.4,0-8.5,1.6-.1,1.4,5.7.9,7.8.7-.4,1.6-.5,3-.6,5.1-2.4.9-5.2,2.2-6.7,3.1-2.3,1.4-2.3,3.7.7,2.1,2.1-1.1,4.5-2.2,5.9-2.7-.1,2.6-.3,6.1-.6,11.3-.5,7.1-.8,15-1.2,23.4-.3,6.8-.6,13.7-1,20.9-.5,9,3.1,13.7,6.2,16.1,2.9,2.2,5.8,2.8,6.7,3,0,1,.5,2.1,1.3,3.2,1.8,2.2,4.8,2.7,6.9,2.7h.4c3.5,0,7.2-1.1,8.6-2.7,1.2-1.4,1.7-2.6,1.8-4.1,1,.2,2.5.4,4.1.4s.8,0,1.2,0c-.2,1-.2,1.9.2,2.8.6,1.3,2,2.2,4.4,2.9,2,.6,3.8.8,5.4.8s4-.5,5.4-1.5c.7-.5,1.4-1.3,1.9-2.5,2.3.2,4.6.3,6.7.3,4,0,7.5-.4,10.6-1.1,1.4-.3,2.6-.7,3.9-1.2.7,0,9.5-.9,18.8-1.3,17.1-.6,20.8,1,21.6,1.8,0,0,.1.1.1.2-.4.5-3,1-4.5,1.3-4.4.8-10.5,2-10.7,7.2h0c0,1.3.6,3,2.8,4.4,2.6,1.6,6.8,2.3,10.7,2.3s6.6-.5,8.5-1.3c3.3-1.4,5.8-3,7.6-4.8,2.4-2.5,3.4-5.4,2.8-8.6ZM60.6,126.7c0-.2,0-.3,0-.5,0-2.3.5-6.4,1.1-10.8.8-6.4,1.7-13,1.3-16.8,0-.7-.4-1.4-1-1.4s-1,.9-1,1.5c-.3,4.2-1,10.3-1.8,16.3-.6,4.5-1.1,8.7-1.1,11.1s-.5,2.8-1.5,3.5c-.6.4-1.3.7-2.2.9,0-1.1.3-2.9-.3-3.2-.6-.3-1.2.5-1.4,1.4-.1.6-.3,1.4-.4,1.9-.9,0-1.9-.2-3-.4-.1-.3-.2-.6-.2-.9,0-.8,1.7-2.8.2-2.6-1.1.1-1.8,1.9-2.1,2.9-1.1-.4-1.8-.9-2-1.3-.4-.8.2-2.1.8-3.6.3-.8.7-1.6,1-2.4,1.4-4.3,1.6-18.8,1.6-19.5,0-.7-.2-1.4-.9-1.4-.7,0-1.1.6-1.1,1.2-.2,5.4-.9,15.7-1.9,18.9-.2.8-.6,1.5-.9,2.2,0,0,0,0,0,.2-2.2.4-5,0-6.3-.3,0-.6-.1-1.2-.2-1.8v-.5c-.5-4.1-.7-16.7-.8-19,0-.7,0-1.7-.8-1.8-.7,0-1.3.9-1.4,1.5-.3,2.5,0,15.6.5,19.6v.5c.5,3.8.6,5-.9,6.6-.4.5-1.6,1-3.1,1.4-.2-.5-.3-1.1-.2-1.7.2-.8.3-1.4-.2-1.5-.5-.2-1.4.8-1.5,1.8,0,.7-.3,1.4-.4,1.8-.6,0-1.2,0-1.7,0-.5,0-1,0-1.5-.1-.1-.4-.2-1-.2-1.4,0-.6,1.5-2.8.3-2.8s-2.1,2.5-2.5,3.4c-.5-.3-.9-.6-1.2-1-1.6-1.9-.5-3.9,1.1-6.2.6-.9,1.1-1.7,1.2-2.4.2-1.6-.8-17.4-1.1-20.6,0-.7-.6-1.6-1.2-1.5-1.3.2-.5,6.5-.2,12.2.3,4.8,0,9.1,0,9.7,0,.2-.5.8-.8,1.3-.6.9-1.4,2.2-1.9,3.6-.8-.1-3.3-.7-5.7-2.6-3.8-3-5.5-7.7-5.2-13.9.4-7.2.7-14.2,1-21,.3-8.4.7-16.3,1.2-23.4.4-5.4.5-8.9.6-11.5,0-.3,0-.6,0-.9,2.8-.9,4.4-1.5,4.2-2-.2-.6-1.4-.8-3.5-.5-.2,0-.4,0-.6.1,0-1.6.2-2.7.6-4,0-.1,0-.2,0-.4,2.7.1,3.2-.2,3.2-.7s-1-1-2.5-1.3c0-.2.1-.3.2-.5,1-2.9,2.5-6.8,2.9-14.4.1-1.8.2-3.7.2-5.6.3-8.1.6-18.2,4.7-19.7,1.3-.5,3.5.8,6.2,3.6,2.7,2.7,5.4,6.4,7.5,9.4,1.7,2.3,2.9,4,3.8,4.8,1.8,1.6,6.1,2,9.4,2,2.6,0,6.9-.2,8.1-.9.6-.4,1-1.1,2.2-3.8,2.3-5,7.2-15.3,12.4-15,.3,0,2.1.5,4.6,7.5,1.6,4.4,3.1,10.5,4.6,18.1,1.2,5.9,2.2,12,2.9,17.1-.3,0-.6,0-.9,0-3.5.3-2.8,1.2-2.8,1.2,0,.9,1.9,1,4,.9.2,1.7.4,3.2.6,4.6-2.4-.7-4.5-.9-4.6,0-.1.8,2.8,1.8,4.9,2.3.2,1.7.3,2.9.3,3.4,0,2.1,1.4,7.1,3.2,13.4,2.4,8.5,5.5,19.1,5.7,25.3,0,.5,0,1.1,0,1.7.2,6.6.6,16.5-6,22.7-5.1,4.8-13.8,6.7-25.8,5.7ZM127.5,139.4c-3.5,1.5-12.9,1.7-17-.8-1-.6-1.6-1.4-1.6-2.2.2-2.9,3.9-3.9,8.7-4.8,3.4-.7,6.4-1.2,6.5-3.6,0-.6-.1-1.4-.9-2.1-1.4-1.3-4.3-2-9.2-2.4-3.7-.3-8.4-.3-14.1,0-5,.2-9.8.5-13.4.8.6-.4,1.1-.9,1.6-1.3,1.8-1.7,3.2-3.7,4.2-5.8,14.6-1.8,26.5-1.1,34.5,2.3,8,3.4,9.4,8,9.7,9.4.7,4.2-2.3,7.8-8.9,10.6ZM29.1,26.8c-3.3,0-6.5,1.4-8.9,4-2.4,2.5-3.6,5.9-3.6,9.3s1.3,6.5,3.7,8.6c2.3,2,5.4,3.2,8.8,3.2s6.5-1.2,8.9-3.5c2.4-2.3,3.7-5.5,3.7-8.9,0-7.1-5.5-12.7-12.5-12.7ZM29.1,50.3c-6.4,0-10.8-4.1-10.8-10.1s5-11.6,10.8-11.6,10.8,4.8,10.8,11-4.7,10.7-10.8,10.7ZM60.2,27.6c-6.7,0-12.5,6.1-12.5,13s1.3,6.4,3.7,8.8c2.4,2.3,5.5,3.6,8.8,3.6,6.8,0,12.5-5.8,12.5-12.7s-5.7-12.7-12.5-12.7ZM60.2,51.3c-5.9,0-10.8-4.9-10.8-10.7s5.1-11.3,10.8-11.3,10.8,5,10.8,11-5,11-10.8,11ZM34,39.6c0,1.9-1.1,3.3-2.4,3.3s-2.3-1.5-2.3-3.4,1-3.4,2.3-3.4,2.4,1.6,2.4,3.5ZM61.7,40.3c0,2-1,3.5-2.3,3.5s-2.3-1.6-2.3-3.5,1-3.5,2.3-3.5,2.3,1.6,2.3,3.5ZM47.6,51.3c0,.8-.5,1.4-1.7,1.7-1.2.3-1.7,1.4-1.5,3.4.2,2,.3,4.3-.9,4.3s-.8-2.2-.8-2.9.2-4-.3-4.3c-.5-.3-2.2-.8-2.2-2,0,0,0-2,3.4-2s4,1.1,4,1.8Z"/></g></svg>