<?xml version="1.0" encoding="UTF-8"?><svg id="Layer_1" xmlns="http://www.w3.org/2000/svg" xmlns:xlink="http://www.w3.org/1999/xlink" viewBox="0 0 377.6 340.2"><defs><clipPath id="clippath"><rect y="216.6" width="16.6" height="34.7" fill="none"/></clipPath><clipPath id="clippath-1"><rect x="236.6" y="288.6" width="25.3" height="51.6" fill="none"/></clipPath></defs><path d="M84.4,22.1c-8.6,19.7-26.3,35.7-47.8,39.4-1.7,0-6.4,1.3-3.4,3.3,21-1.3,40.7-16.3,49.7-35,.4-1.2,4.2-9.5,1.5-7.7Z" fill="#040404"/><path d="M128.6,62.8c-.6-1.8-3-.8-4.4-.8-20,4.1-34.2-14-42.9-29.5-.4-.6-1.2,0-.9.5,6.3,14.9,16.8,30.7,34,33.4,4.3.5,12.7,1.4,14.2-3.7Z" fill="#040404"/><path d="M124.2,66.6c-3.7-4.1-3.3,4.7-3.7,6.9-.9,6.6-3.4,13-7.1,18.5-15.2,24.5-54.2,24.3-69.8.3-5.8-8.4-8.8-18.6-8.5-28.8,0-.6-.9-.7-1.1-.1-1.8,9.5.2,19.4,4.7,27.8,22.8,42.1,88.8,22.8,85.4-24.6Z" fill="#040404"/><path d="M143.1,223.8c-7.4-41.5-2.3-89.4-32.4-123-.8-.9-2.2-.8-3,0-.9.9-.8,2.2,0,3,28.3,32.7,24.7,78.7,31.2,118.8-16.9,1.8-80.1,9.1-91.2-1.1-9.5-26.3-5.1-61.4.4-88.6,1.7-8.4,4.7-16.4,6.4-24.8-2.3-3.2-7.9,16.8-8.8,19.1-8,27.2-10,56.3-5.7,84.4.6,9.7,7.1,18.2,17.5,18,26.2,1.7,52.6.8,78.6-2.6,2.3-.7,7.4.4,7-3.2Z" fill="#040404"/><path d="M75.1,11.4c-19.8-13.7-46.4,2.2-52.3,23.5-7.1,17.8,1.7,36.5-.5,54.5-1,6.2-7.7,10.1-6.8,16.8,1.1,6.5,6.5,11.3,11.6,14.9,5.2,3.4,11.2,5.5,17.4,5.8,2.2.4,8.5-1.1,4.6-3.6-8.3-.8-16.8-2.9-23.1-8.6-16.2-13.9,6.6-14.9.9-39.4-6.6-25.2-1.2-61.6,29.6-65.8,6.1-.8,12.8-.5,18,2.9.6.4,1.1-.5.5-.9Z" fill="#040404"/><path d="M146.6,89.2c-9.8-1.9-10-14.1-8.9-22.1,1-10.8,1.3-21.7-1.2-32.3-4.4-26.9-39.3-49.1-59.3-23.6-.9,2.6,6.9-.5,2.3-.4,20.6-20,50,1,53.3,25.4,6.4,17.1-9.8,48.5,10.7,56.6-5.2,9.8-13.8,16.8-22.6,23-2.8,13.8,36.4-25.1,25.8-26.6Z" fill="#040404"/><path d="M71,63.4c-5.8-5.6-5.7,12.3-.9,10.7,2.2,1,3-1.7,2.2-3.3.7-2.5.2-5.3-1.3-7.4Z" fill="#040404"/><path d="M87.1,65.6c-5.2-4.4-5.9,4.6-4.2,7.9,3.9,5.4,6.8-5.1,4.2-7.9Z" fill="#040404"/><path d="M98.4,78.9c-3.1-3.3-5.3,3.4-7,5.2-6,8-17.3,10.1-26.4,6.7-.5-.6-2.9-.8-2.6.6,9.8,11.4,36.4,3,36.1-12.4Z" fill="#040404"/><path d="M191.5,179.3c-14.6-27.5-41.4-48.6-69.8-60.7,2-1.5-6.3-1.8-4.2,0,10.9,6,21.8,11.9,31.5,19.7,9.8,7.7,18.9,16.5,26.7,26.1,2.9,1.9,14.1,24,15.7,15Z" fill="#040404"/><path d="M46.7,123.5c-19.5,24.3-32,54.6-37,85.3-.3,2.3-2.3,16.4,2.3,11.9,5.5-26.3,10.6-53.1,24.3-76.7.4-2.6,15.1-22.2,10.5-20.5Z" fill="#040404"/><path d="M82.2,309.4c-5.1-97.9-12.3-109.5-4.7-2.2-.6-2.3-3.5-1.7-3.8.5-8.4,1.9-17.2,8.7-18.5,17.6,4.3,12.5,20-7,21.5-13.5,2-.3,5.3.5,5.4-2.4ZM69.4,316.8c-2.4,3.3-5.5,6.8-9.4,8.2.1,0,0,0-.2,0,2.1-5.5,6.3-9.5,11.7-11.7-.6,1.2-1.3,2.4-2,3.6Z" fill="#040404"/><path d="M146.5,301.9c-6.4-5.6-16.1-7.1-23.9-3.6-2.3-23.5-1.5-47.3-3.1-70.8-1.7-2.4-1.8,6.4-2.2,7.4-1.4,16.9-1,33.9-.2,50.8,1.1,3.6-1.4,21.1,4.7,18.5,1.7-1.2,3-1.8,4.8-2.3,7.8-2.5,20.5,1.8,20.6,11.2-2,8.8-20.4-7.4-26.1-7.9-7.7,1.6,4.1,6.9,6.6,8.1,5.6,2.2,10.7,6.8,16.9,7.1,9.8-1,8.4-13.8,1.9-18.4Z" fill="#040404"/><g clip-path="url(#clippath)"><path d="M15.6,226c-.2-2.8-.7-5.6-1.9-8.2-.8-1.6-3.8-.8-3.4,1.1-24.6,26.4,3.7,51,5.4,7.1ZM11.2,231c-.5,5-1.7,10.8-5.2,14.6,0,0,0,0-.2.1.2,0-.4,0-.1,0-.1,0-.2,0-.2,0,0,0-.1,0-.1,0,0,0,0,0,0,0,.2.2-.2-.3-.2-.2-2.3-8.2.9-18.1,5.2-25.2.7,3.5,1.2,7.2.9,10.8Z" fill="#040404"/></g><path d="M219.6,187.4c-3.3-11-18.7-9.9-27.9-8.8-.6-1.9-3.3-1.1-3.1.8-.9.2-1.2,1.1-.3,1.5,0,0,0,0,0,0,.1,0,.2,0,.3,0,.1,15.2,30.5,26.5,31,6.4ZM214.4,189.3c-.2,1-.8,1.8-1.6,2.5-7.9,4.4-17.5-3.2-20.1-10.7,5.6.2,11.2.9,16.4,2.7,0,0,.5.2.5.2,1.8.8,3.6,1.9,4.5,3.7,0,.2.3,1.1.3,1.6Z" fill="#040404"/><path d="M259.4,15.8c-7.8,12.4-18.5,30.2-34.4,31.6-.7.2-1.1,1.1-.7,1.7,12.6,9.4,33.5-22.2,36.1-32.9.2-.5-.7-.9-1-.4Z" fill="#040404"/><path d="M306,46.8c-18.9,3.4-36.7-11.3-48.9-24.2.2-.3.6-.4,1-.2,1.9-.4-.6-1.9-1.7-.7-1.9,2.3,2.3,5.6,3.4,7.6,8.5,10.1,19.9,18,32.6,21.9,4.7,1.4,11.4,2.4,15-1.8.9-1.1,0-3-1.5-2.6Z" fill="#040404"/><path d="M311.2,53.9c0-1.9-2.3-6.9-3.7-3,0,2.2,0,4.5-.3,6.7-.2,6.8-1.7,13.3-4.8,19.1-12.7,26.3-52.8,27.7-68,3.3-5.7-8.4-8.2-18.7-7.6-28.8,0-.6-.9-.7-1.1-.1-2.8,9.4-.9,19.6,3.5,28.2,21.8,42.3,87.6,21.7,82.1-25.3Z" fill="#040404"/><path d="M262,59.7c-.1-1.3-.6-2.8-1.9-3.4,0-.3.2-.6-.1-.8-4-9-8.7,10.8-2.4,9.8,3.4,2.1,4.8-3,4.5-5.5Z" fill="#040404"/><path d="M274.3,56.3h0c0-.9-1-1.6-1.8-1.3,0,0,0,0,0,0-2.5,1.5-1.4,6.2-1.8,8.8,3.1,7.3,8.3-4.9,3.7-7.5Z" fill="#040404"/><path d="M282.8,73.2c-1.3-2.8-3.3.7-4.5,1.7-.3.2-.5.4-.8.6-2.5,2.1-7.9,3.8-11.4,3-2.5.4-19.3-7.1-13.4,0,.3.6.7,2.1,1.5,1.1,8.4,7,28.1,7.8,28.5-6.5Z" fill="#040404"/><path d="M250.3,99.3c-4-5.9-10.1,31.1-11.3,34.5-9.4,47.5-10.8,96.8-3.1,144.7.3,1.5.6,2.9,1,4.3.5,1.7,3.2,1.4,3.1-.4-8.6-61.1-3.9-123.2,10.2-183.1Z" fill="#040404"/><path d="M325,249c-3.1-41.4-10.1-82.6-20.9-122.6-3-11.1-6.5-22.1-10.7-32.8-.2-.6-1.2-.4-1,.3,7.7,35.3,16.1,70.4,21,106.2.7,17.2,13.4,62.4-.2,72.9-20,16.3-49.1,13.6-72.2,6.2-2.5-.4-4,2.7-1.8,4.2,3.6,2.7,8.1,3.4,12.3,4.6,28.3,7.2,78.9,0,73.4-38.8Z" fill="#040404"/><g clip-path="url(#clippath-1)"><path d="M260.4,324c-.1-11.2.8-22.4-.3-33.5,0,0,0,0,0,0-6.3-10.2-4,30.8-4.8,33.8-6.5.7-19.8,5.8-17.7,13.9,1,1.8,3.1,2.1,5,1.7,3.5-.8,24.1-12.3,17.9-15.9ZM243.9,334.3c-.5.3-1,.5-1.5.8,2.4-2.6,5.5-4.4,8.9-5.4-2.4,1.7-4.9,3.2-7.5,4.6Z" fill="#040404"/></g><path d="M326.9,317.1c-4.8-6.1-14.2-6.9-21-4.2-1.7-10.7-2.1-21.8-4.8-32.3-3-.8-.4,15.6-.9,18.4,1.1,5.3-1.5,17.5,2.5,20.6-1.1.5-1.3,1.9-.5,2.7,5.5,9.5,32.3,9.8,24.8-5.2ZM323.6,322.2c0,0-.2.3-.2.4-5.6,4.2-13.9.3-19.2-2.9,5.5-3.9,13.9-5.1,18.9.2.5.7.9,1.5.5,2.3Z" fill="#040404"/><path d="M246.6,100.9c-11.8,18.8-21.4,38.9-32.4,58.2-5.3,6.6-15.1,3.1-22.2,6.1-10,3-10.5,17,1.1,17.5,8.6.6,23.3-8.9,22.5-17.9,7.8-8.4,11.1-20.3,16.7-30.2,5.4-10.9,10.4-21.9,15.2-33,.3-.7-.6-1.2-.9-.6ZM204.2,173.8c-4,2.9-9.5,5.5-14,2.9-.2-.2-.4-.4-.6-.6,0,0-.5-1.1-.5-1.3,1.7-9.2,14.4-5.2,21-7.5-1.5,2.6-3.7,4.9-5.9,6.6Z" fill="#040404"/><path d="M376.1,175.7c-2.5-4.6-8.2-7.8-13.4-6.5-26-21.9-49-47.1-69.8-73.9-3.8-1.3,10,16.2,10.8,18.1,16.3,22.4,35.6,42.6,56.9,60.4-7.6,4.3-6.9,16,1.5,18.9,10.1,4.4,19.2-8.1,14.1-17ZM372.4,185.2c-1.1,2.1-2.8,3.5-5.1,3.9,0,0-.5,0-.5,0-6.1.7-10.2-6.9-5-10.8.3-.3.9-.6,1.3-.8,2.3-.7,5.6,0,4.8-3.8,4.5,1.6,6.9,7.1,4.5,11.3Z" fill="#040404"/><path d="M265.2,2.5c-58.8-12.6-51.8,85.6-52.7,122.2-.2,11.9,2.1,28,15.8,31.3,3.2,1.1,7.7-1.9,3.1-4.1-20.9-3.7-12.3-49.4-13.4-65.8,1.8-34.8,2.8-86,47.3-83.5Z" fill="#040404"/><path d="M326.8,116.6c-2.5-33.9-6.4-127-58.1-114.6-.9.2-5.4,2.1-2.8,2.4,58.7-19.2,56.6,116.4,55,151.3-3.4,2.2-14.4,1.8-13.8,6.7.4,1,1.4,1.3,2.4,1.2,4.8-.9,9.4-3.2,14.2-4.2,1-.3,1.5-1.1,1.6-2.1,1.6-13.5,1.9-27.1,1.7-40.6Z" fill="#040404"/></svg>