<?xml version="1.0" encoding="UTF-8"?><svg id="Layer_1" xmlns="http://www.w3.org/2000/svg" viewBox="0 0 145 146.5"><path d="M141.6,54.2c.4,2,.3,4,.6,5.6s.5.5.6,1.1c.3,1.7,0,3.1-1,4.3-.2,1.1,0,3.3.6,4.3,0,4.3-.5,8.8.8,12.9.7.2.3-.7.4-1.1l.6.8c.8-1.8,0-3.7.4-5.5l.2,6.5-.8-.2c-.1,2.4-.5,4.5-1.3,7-.6,4.1.2,7.7-1.3,11.9-2.7,5.7-3.9,11.9-8.3,16.6-.3-1.5.5-1.8,1.2-2.8,2.4-3.1,4.6-8.4,4.8-11.9.9.3-1.1,5-.1,3.8,1-4.2,3.6-8.6,3.3-13.1-.9.2-.7,3-1.2,4,0,0-.9,2.6-.9,2.6v-3.2h-1.3l-1.7,7,.4.2-1.1,3-.4-.3c-.4.7-1.5,1.8-.8,2.6-.6,2.1-3.4,5.3-4.9,6.9-.7,3-2.2,5.2-4.4,6.9l.6.6,1.4-.5-3,3.9-.3-.4c-1.1,1.3-4.9,4.6-5.1,5.3-.5.4-1.5.4-1.9,1.1.9-2.3,4.2-3.4,5.7-5.5.7-1.1,2.9-3.3,2.5-4.2-2.2,2.4-6.6,6.1-9.1,8.2-1.1,1.6-1.8,5.3-3.7,4.9.4-.4.9-.6.8-1.2l-1.9.8,1.5-1.8-.3-.4c-.9-.3-2.4,1.6-3.3,1.9-.3.4.6.4.4.6-7.2,5.3-16.2,5.8-24.7,7.5-1.2.4-.1.4-.4.4-1,.1-2.4-.4-3.6-.2s-.7.4-1.1.4-1.2-.3-1.9-.2-.2.4-.6.4-2.9-.1-3,0v.6h2.8c-.9.8-2.9-.1-4.2,0,.2-.4.8.1.9-.7.2-.7-4.8.6-5,.1v-.6c-4.6.2-9.1-1.3-13.5-.8v.4c-1.5-.4-3.1-.6-4.7-.6l1.3.6h-3.5v-.6c-4-1.1-8.7-2.1-12.5-3.6-2.7-1.1-4.8-3.8-7.8-4-.1-.3.7-.2.4-.6s-.7-.2-.9-.4,0-.7-.4-.9l2.4,1.1.3-.3-11.6-8.4.6-.6c0-.8-1.1-1.5-1.6-2l-.2.4c-2.7-3.6-5.9-6.2-8.1-10.2-.3-2.2-1.5-3.9-3.5-6.5h.6c-3.3-12.3,5.8,9.6,8.2,9.7v-.3c-10.7-14.4-12.4-35.1-12.2-51.4-.4.4,0,2.9-.6,2.4,0-3,0-6.4.4-9.3.2-1.4,1.9-4.8,1-5.7.2-1.9,2.7-6.8,2.4-8.1s-.5.2-.3-.9c3.3-7.7,7.2-15.3,12.9-21.6,2.8-3.2.6-.6.7-.6.1.6.2.9-.2,1.3h.4c2.6-3.6,5.8-6.4,9.3-8.9-.2-.3-1.1.5-1.1-.1,7.4-4.6,15.9-7,23.8-10.4,3.7-1.1,9.9.5,13.1-.8l-.8-.6c5.8-1,12,.2,17.8.6h-4.2c8.5,2.4,20.1,1.1,28.6,5.7l-.4.3c.2.3,2.6,1.5,3,1.6,1.1.2,1.1-.3,2.4.7,4.8,2.9,10.1,6.6,14.2,10.6,2.2,3.5,2.5,3.6,4.9,6.3,2.5,4.1,5.8,9.3,7.8,13.1.7.2.1-.7.6-.8.4,1.6,1.2,3,2.3,4.1l-.8-.2,1.2,3.4h.5l.2,2.2c-.6-.7-1.8-3.8-2.2-4.7l-.2,1.1c-.5-.6-.3-1.7-1.2-1.9.2,3.5,2.1,6.3,3.6,9.5.2-1.1-1-2.1-1-3.3l1.5,2.2.4-.3c-.2,1.6.4,2.9.6,4.4l-1.5-3.1h0ZM56.9,5.9c-.7,0-2-.2-2.2.6-.8.2-2.1-.2-2.7.8,1.6-.2,3.7-.3,4.9-1.3h0ZM77,36.9c-.3-.4-2.3-.2-2.9-.3-.9-.1-1.8-.6-2.8-.4s-.3.6-.7.4c0,1.3,8.5,0,7.4,1.9,1.7,0,3.2.7,4.9.6-1.5-1.3-3.8-1.6-5.8-1.7-.2,0,0-.4-.2-.5h0ZM64.9,36.8c-2.4.4-5,1.4-7.2,2.6s-.8.4-.9.7c1.3.1,1.9-.5,3-1.2,1.6-.2,3.8-1,5.1-2ZM70,38.9c-2.8-.5-5.5,0-7.5,1.7l.5.3c-.8,1.2-1.5.8-2.7,1.3s-1.8,1.6-2.7,2-2.7.5-2.4,1.9h-1.3l.6-1.1c-1-.3-1,.8-1.2.9-1.1-.3-1,.8-1.7,1.7-.6.8-.4,1.3-.4,2.2l-.9-.6c-1,.2-.3.9-.4,1.1-.3,1.3-1.5,2.6-1.2,4.3l.4.2-.9,1.2-.2-.4c-1,.8-.6,2.1-.7,3.2-.4-.7-1.2.2-1.5.7-.4.9,0,1.7-.5,2.4.4-1.5-.6-2.3,0-4.1l-.2-1.6c-1.5,7-2.7,14.9-1.5,22.3l.3-1.1c.5,1,1.1,3.4,1,4.5s-.6,1.5-.1,2.4l.6-.2c.2,1.4-.4,2.7.2,4.1h.8c-.5,2.2.9,3.6,1.4,5.5.5,2.4.9,4.3,2.6,5.4l-.3.5h-.7c.4.8,1.3,1.1,1.8,1.7.6,1.3,1.4,1.4,2.2,2.5l.2-.9c4.3,6.2,6.4,4.2,12.2,6.3,1.8,1.1.2.4.3.5.5.4,1.4.2,2,0l-.4-.3c.2-.5,2.4-.6,3-.5,1,.8,2.1.6,3.3.6-.2,1.5,1.4.3,2.1.1,1.2-.4,3.4-.7,4.4-1.2,1.3-.6,3.1-3.5,4.3-3.1l.4.4c.5-.5,1.4-.9.9-1.7,1.2,0,.9-.6,1.2-1.1,1.7-1.2,2.4-2.6,2.9-4.6,1.6-1,1.5-2.9,1.8-4.3,1.7-1.4.8-3.2.6-5l-.6.4v-3.6h-.4c0-.1.6-1,.6-1l.2,2.3.8-.2c0,1.6.7.7.8-.3,0-1.1-.3-1.6-.6-2.6l-.3.2-.7-1.2.3-1,.6.4c-.1-.5.3-1,.3-1.3s-.5-1.1-.1-1.7l.6.2v-.8c2,.5,1.4-3.2,1-2.2-.7-1.8,1-4.5-1.2-6v.6c-.1,0-.9-.2-.9-.2v1.3c-.5-.3-.4-1.4-.4-1.9h.8c-.4-1.8.9-3.1-.4-4.9,1-.5,0-2.2.2-3.1.9.7.6,1.1,2,.9s0-.5,0-.9c-.6-1.6-.9-2.5-1-3.9l.4.2v-1.5c-1.5.5-.7-2.8-.9-3.5-.1-.5-1.3-.9-1.4-1.1s-.2-1.6-.3-1.7l-.9.3c-.4-.8-1.7-3.5-2.5-3.8s-2.6.6-2.8,0l.4-.2-.2-.8h1.3c0,.1.2-.7.2-.7-.6-.5-1.3-.2-1.8-.4s-1.6-1.1-2.3-1.2l.2-.4c-1.2.4-1.1-.6-2.1-.8l.6-.6c-1.6-.5-3.6-1.9-5.2-1.7-.5-.1-.2-.6-.6-.7s-1.3,0-1.8-.4c-.2.9-1.4-.4-1.5,1l-.7-.2.6-.5-.3-.5-1.9.4s-.1-.6-.1-.6ZM86.9,41.5c-.8-1.1-2.4-1.6-3.6-2.4-.4,2.1.8,1.3,1.9,1.9,2,1.3,3.5,3,4,4.5,2.2,1.7,4,4.1,4.8,6.7,1.4-4.3-4.2-8.2-7.1-10.7h0ZM97.1,58.9l-.7-3.2c-1.2.6-.1,2.6.7,3.2ZM97.3,68.5c-.5-.5-.4,1-.4,1.2,1,.9,0,3.2.2,4.5.7-.8.9-2.1,1.3-3.2l-1.2-2.6h0ZM139.7,83.2l.6-9.7-1.5,6.2.8,6c.5-.2.7-2.5.6-2.7l-.4.2h0ZM96.5,91.8c.1-1.5.8-2.9.6-4.4-.5.3-1.7,4.6-.6,4.4ZM133.8,104.9c.3-1.1,1-2.1.9-3.2l-1.1,2.6v.6c.1,0,.1,0,.1,0ZM133.8,105.3h-.6c.1,1.3-2,4.1-1.9,5.1h.7l1.7-5.1ZM127.4,118.7c-4.6,2.5-7.5,8.2-12.1,10.9-4.8,3.7-9.9,6.4-15.5,8.2l.2.4-1.7.4v.6c4.8-.5,8.6-3.4,12.9-5.4.9-.6,1.9-1.7,3-1.4,4-3.1,10.3-9.5,13.2-13.7h0ZM58.3,141.4c-6.7-.3-12.9-3.2-19.3-4.4,5.7,3.1,12.2,4.5,18.7,4.6,5-.2.7.2.7-.2ZM97.5,138.7c-8.4,2.9-17.2,3.4-25.9,3.6v.5l-1.1.3c5.1,1.2,11-1,15.8-1.1,3.3.1.9.5,1.5.5,3-.5,7.3-1.6,9.8-3.8h0Z"/><path d="M75.5.9c-.3-.6-2.3-.8-2.8-.9,11.9,0,23.7,2.5,34.9,6.7l-.4.4c3.7,1.4,8.2,4,11,6.2,1.3,1.2.6.3.2.5-.5-.2-1.2-.8-1.8-.7-.6-.3-3.7-2.4-4-2.2l.3.6-1.6-.9,1.1.2c-.2-1.2-1.9-.9-2.3-1.1s.2-.3,0-.5c-.4-.4-3-2-3.4-1.6l.5.8c-2.2-.6-5-2.1-7.1-2.3l.6-.4c-6.7-1.8-13.8-3.1-20.6-3.8l.4-.3c-1.7-1.3-6.3,1.4-8.2-.5h3.3Z"/><path d="M133.6,30.3c.4.3.4-.6.6-.4.6,1,1.1,2.2,1.3,3.3h-.4c0-.1-.2.3-.2.3-.7-2.3-2.4-3.5-3.9-5.1-1-1.3-1.7-3.2-2.8-4.5s-1.8-1-1.4-1.9l.6.4-.6-.9c2.5,1.1,3.8,3.4,4.7,5.7,1.1,2.1,1.7,1.9,2.1,3.1h0Z"/><path d="M70.2.4l-2.3.4.2.4c-4.7.3-9.4.9-14.1,1.5,1-.9,4-.6,5.6-1.3l-1.3-.4c2.9-.7,5.9,0,8.5,0l-.4-.6h3.8Z"/><path d="M1.5,88.7l-.4-1.9c1.8-.2.7,5.2,1.7,6.4l-.4.2.2.8c-1.1-1.3-.4-3.4-1.5-5l-.2,1.5-.5.2-.2-5s1.3,2.7,1.3,2.7Z"/><path d="M52,2.5l-1.5.7-.3-.4c-2.6,1.1-5.6,2.5-8.4,2.3,2.8-1.4,7.2-2.6,10.2-2.7h0Z"/><path d="M144.4,67.3l.6,2.2c0,2.3-.6,4.4-.8,6.6-.7-1.4-.5-5.5-.4-7.1l.2,1.5c.7,0,.3-2.9.4-3.3h0Z"/><path d="M.3,78.4l.6-.4c.1,1.2-.7,1.7-.2,3s.4.3.4.4c.3.9.6,2.9.1,3.7-.7-1.5-1.6-3.8-.9-5.2,0-.6-.4-1.7-.2-2.6l.2,1.1h0Z"/><path d="M96.9,143.7l-1.6.9h-.5l.2-.6-1.9.4.4.6-8.1.9c0-.3.7-.3.9-.4,3.9.6,6.9-2.2,10.7-1.9h0Z"/><path d="M2.6,96.5c0,1.5.4,3.1.8,4.6-.9-.9-2.3-5.6-2.3-6.5.6.1.8,2.7,1.5,1.9h0Z"/><path d="M129.3,121.7c-.2-.9,1.3-4.7,2.2-3.8.1,0-.1-.4.2-.4.4,1-.7,1.4-1.2,2.1s-.5,1.6-1.2,2.1Z"/><path d="M112.1,138.1c-1.7,1.4-4,2.1-6.1,2.7.5-.7,2.8-1.7,3.4-2,1.1.3,1.7-.4,2.7-.6h0Z"/><path d="M18.1,125.9l-.4.2c.6.6.4,1.3-.4,1s-2.2-2.4-2.1-3c.9.9,1.5,1.5,2.8,1.7Z"/><path d="M67,146.5c-.6-.5,2.3-1.1,2.6-.6l1.4.6h-4Z"/><path d="M125.5,21.3c-.9-.7-1.9-.8-2.7-1.8h.6c.1-.6-.7-.9-.9-1.4,1,.6,2.4,2.3,3,3.3h0Z"/><path d="M64.6,144.8c0,0,.5.2.5.4-1.5,0-4.4-.1-5.9-.4,1.7.2,3.8-.2,5.4,0h0Z"/><path d="M85.3,145.2c-.7.3-2.2.6-3,.6-.2.8.9,0,.9.6h-1.7v-.7s3.8-.4,3.8-.4Z"/><path d="M23.8,131.5v.4c-.6,0-2.1-1.4-2.5-1.9l2.5,1.5h0Z"/><path d="M127.4,118.7c-2.7,3.9-9.8,11.2-13.2,13.7-1.3-.2-1.9.6-3,1.4-4.4,2-8.2,4.9-12.9,5.4v-.6l1.7-.4-.2-.4c5.9-1.9,10.7-4.4,15.5-8.1,4.7-2.8,7.5-8.4,12.1-11h0Z" fill="#fff"/><path d="M97.5,138.7c-2.7,2-8.2,4.5-11.2,3.3-4.8.1-10.7,2.3-15.8,1.1l1.2-.3v-.5c8.8-.2,17.5-.7,25.9-3.6h0Z" fill="#fff"/><path d="M86.9,41.5c2.5,2.1,9.2,7.6,7.1,10.7-.7-2.6-2.6-5-4.8-6.7-1-.9-.2-.9-.4-1.2s-3.3-3.2-3.5-3.3c-1.1-.6-2.3.1-1.9-1.9.9.6,3.3,1.7,3.6,2.4h0Z" fill="#fff"/><path d="M58.3,141.4c-6.2.6-13.6-1.4-19.3-4.4,6.4,1.2,12.6,4.1,19.3,4.4Z" fill="#fff"/><path d="M77,36.9c.1.1,0,.5.2.5,2,.1,4.2.4,5.8,1.7-1.7.2-3.2-.5-4.9-.6,1.1-1.9-7.6-.6-7.4-1.9.5.2.6-.4.7-.4,1-.2,1.9.3,2.8.4s2.6-.1,2.9.3h0Z" fill="#fff"/><path d="M139.7,83.2l.4-.2c.1.2,0,2.5-.6,2.7l-.8-6,1.5-6.2-.6,9.7h0Z" fill="#fff"/><path d="M64.9,36.8c-1.4,1.1-3.5,1.8-5.1,2-1.3.7-1.7,1.4-3,1.2,2.2-1.7,5.4-2.7,8.1-3.2Z" fill="#fff"/><path d="M97.3,68.5l1.2,2.6c-.4,1-.7,2.3-1.3,3.2,0-.7.7-5.2-.2-4.5,0-.2-.1-1.7.4-1.2h0Z" fill="#fff"/><path d="M133.8,105.3l-1.7,5.1h-.7c0-1.3,2-3.8,1.9-5.1h.6Z" fill="#fff"/><path d="M56.9,5.9c-1.2,1.1-3.4,1.1-4.9,1.3.6-1,1.9-.6,2.7-.8s.1-.4.5-.5c.6-.2,1.2,0,1.7,0Z" fill="#fff"/><path d="M96.5,91.8c-1.2-.4,0-2.8.2-3.7.2-.6,0-.6.4-.7.2,1.5-.5,2.9-.6,4.4h0Z" fill="#fff"/><path d="M97.1,58.9c-.8-.6-1.9-2.6-.7-3.2l.7,3.2Z" fill="#fff"/><path d="M133.8,104.9v-.6c-.1,0,1-2.6,1-2.6.1,1.2-.7,2.1-.9,3.2h0Z" fill="#fff"/><path d="M74.7,107.2l.2-.4c-.7-.5-2.6,1.6-3.2.4l1.1-.6-1.1-.4c4-.2,8.7-1,11.8-3.6l.7.7c-.7.8-1.1,1.5-2.2,1.3-2.3,1.2-4.6,2.5-7.2,2.6Z"/><path d="M90.8,92.1l-.4,1.3.6-.4c.4,1.7-1.2,2.6-1.3,4h-.4v-.4c0,0-.6.2-.6.2,0-1.4-.3-1.8,1.1-2.2l.2-1.5c0-.2-1.3.1,0-1.2h.8c0,.1,0,.1,0,.1Z"/><path d="M68.2,106.8c.3.2.7.3,1.1.3l-.2-.6h1.9c-.1.3-.8.2-1.2.4-1.3,1.3-3.9,0-5.6.2l2.1-.4-.6-.6c.7,0,2.3,0,2.5.7h0Z"/><path d="M46,65.2v-.7c.8,0-.2,1.8.5,2.4.5.7.3-.4.7-.4l-.4,2.3-.6-1.5c-.7-.2-.2.8-.4,1h-.6c0-1.5.5-2.9.2-4.4.5.2-.1,1.2.6,1.3h0Z"/><path d="M91.2,55.5c-.3,1.1.2,2.2.4,3.2l.4-.4.2,1.7-.9-.4c0-1.5-1-2.8-.8-4.4l.8.2Z"/><path d="M87.9,48.1c.6,1,1.7,2.6,2.6,3.2-.6,1.2.7,1.9.5,3.3-1-.2-.6-1.6-.8-2.3s-1.9-3.1-2.2-3.3c-.7-.4-.9-.3-.8-1,.1,0,.6.1.7.3h0Z"/><path d="M93.4,74c.9.5-.1,1.7,0,2.5-.5,0,.2-1.1-.6-.9l-.2,1.3c-.7-1.6.4-2.5.4-4,.3.2.3.7.5,1.1h0Z"/><path d="M63.6,105.5l-.8.2.2.6c-1.1-.3-3-.5-3-1.9,0,0,3.6,1.1,3.6,1.2Z"/><path d="M80.2,42.4l.2.9h-.8c0,0,.3-.6-.1-.8s-.4.5-.7.4l-3-1.3c1.2-.4,1.8.6,2.6.7.8.1,1.2-.4,1.7,0Z"/><path d="M92.5,64.9c-1.6-1.3-.5-3.3-1.1-4.9,1.2,1.3.4,3.4,1.1,5h0Z"/><path d="M92.9,55.7c-.7.3-.7-1.8-1.3-1.1-.2-.3.1-1.4-.8-1.9,2.4.1,1.1,1.7,2.1,3.1h0Z"/><path d="M47.5,64.9l-.2-1.1c-1.2,2.8,0-2.1-.2-2.9.5.8.4,3.1.4,4h0Z"/><path d="M71,40.4c-.3.7-1.3.3-1.9.4v-.6c.7-.5,1.3,0,1.9.2Z"/><path d="M85.3,101.7c.5-.3.4-1.1.4-1.1.1-.1.9-.3,1.1-.6.2.3-1.1,2.1-1.5,1.7h0Z"/></svg>