<?xml version="1.0" encoding="UTF-8"?><svg id="Layer_1" xmlns="http://www.w3.org/2000/svg" viewBox="0 0 725.4 189.9"><path id="pieceCircle" d="M334,145.5c35.1-13.2,35.1-68.5,11.2-91.7-22.8-15.3-35.1-12.6-60.2-12.4-5.4-8.6,12.4-11.1,18-11.3,87.3-3.5,97.3,124.8.8,131.9-56.2,4.1-97.4-31.4-71.7-88.9,27.3-61.4,45.2-51.3,83.7-49,.8.3,0,1.8.5,2.1,1.9,1.7,7-1.2,8.1,2.4-51.3-8.8-91.9,35.4-89.9,83.6,2.6-1.3,1.4,4.7,2,7.1,8.8,34.2,70.5,42,96.8,26.2.4,1.5.7,0,.7,0h0Z" style="fill:#595b5c;"/><g id="pieceIcon"><path d="M271.1,116.7c.8-3.6,5.7-4,7.9-5.6,4.5-3.3,8.6-17.6,7.1-22.7s-3.7-2-4.3-4.1.3-5.1-.1-6.5-3.5-.9-4.9-4.2-2.6-11.9-1.8-13.4,8.2-1.2,9.6-.5c2.3,1.2.9,7.1,4.1,7.2s2.1-5.7,3.9-6.8c19.1-3.8,9.7,5.3,15.6,6.9,4.7,0-1.1-8.9,10.5-7.6,13.8.7-1,21.8-2.5,18.1-.6,5.9.9,6.9-4.7,11-1.4,4.8,2.2,18.8,6.1,22.2s8.9,2.6,8.9,6.8v13.1h-55.4c.6-4-.8-10.2,0-13.9h0ZM283,62.4c-.2-.2-5-.2-5.2,0-.5.5.5,11.3,4.8,12s32,.4,33.6-.2,3.6-9,3.5-10.8-5.8-1.4-6-1.1c-.4.4,1,7.7-5.6,7.6s-5.1-7-5.7-7.5-7.9-.3-8.2,0c-.5.5.7,7.7-5.6,7.5-6.3-.2-5.1-7-5.7-7.5h.1ZM313,77.3h-28.5c.1,2.1-.7,6.7,1.7,7.7s25,1,26.1-.8,1-6.6.7-7h0ZM283,111.8h31.5c-5.1-6.8-6.2-14.9-6.4-23.2h-19c1.1,9.2-2.9,17.5-6,23.3h-.1ZM274.1,117.4c-.7,2.5.5,8,0,10.9h49.5c-.6-4.8,2.3-12.1-4.3-13.3-4.3-.5-46.1-3.1-45.2,2.4h0Z" style="fill:#0d0e0f;"/><path d="M274.1,117.4c5.2-6,37.9-2.6,45.2-2.4,6.1,1.1,3.7,8.5,4.3,13.3h-49.5c.5-2.9-.7-8.4,0-10.9h0Z" style="fill:#cce2ec;"/><path d="M283,111.8c3.5-7.5,6.9-13.1,6-23.3h19c.3,8.3,1.4,16.4,6.4,23.2h-31.5.1Z" style="fill:#cce2ec;"/><path d="M283,62.4c.6.5-.6,7.4,5.7,7.5,6.3.2,5.1-7.1,5.6-7.5s7.9-.2,8.2,0c.6.5-.6,7.4,5.7,7.5s5.2-7.2,5.6-7.6,5.9-.7,6,1.1c.1,1.8-1.8,10.1-3.5,10.8s-30.9.6-33.6.2c-4.3-.7-5.3-11.5-4.8-12s5,0,5.2,0h-.1Z" style="fill:#cce2ec;"/><path d="M313,77.3c.3.3,0,6-.7,7-1.1,1.8-23.7,1.8-26.1.8s-1.6-5.6-1.7-7.7h28.5Z" style="fill:#cce2ec;"/></g><path id="pieceBackground" d="M266.6,2.4c-.1-.2-4.4-.6,0-1.5.1.4-.1,1.4,0,1.5,4.3,3.4,4,1,6.6.9,20.2-1.1,41-3.4,62.1-2.4,1.4,0,1,1.6,1.5,1.6,4.7-3.4,6.3.6,12,.8,24.6-7,52.7-.5,77.9-2.3,7.2-.5,11.6,4.1,16.4,1.5,4.7,3.8,9.2,1.9,14.4.3,12.9-1.5,27.9-3.7,41.1-.2,2.3,0,.8-1.5,2.2-1.6,1.4,0,45-1.3,31.6,1.6,1.8,0,3.9-2.2,8.3-1.6s.8,1.5,2.2,1.6c2.3.3,1.5-1.5,3-1.6,3.1-.2,8.3-.2,11.3,0,5.2.6,7,4,10.6.2,1.1-.2,10.5-.2,11,0,.9.2,1,2,1.5,2.2,3.2,1.2,1-2.1,1.1-2.3,2.1-.2,17.4-1.1,19.8,1.5.5,0,0-1.5,1.4-1.6,20.1,7.4,44.6-2.1,64.1,11,2.7,1,6.1-1.2,5.3,2.6,2.5.7,1.1-2,1.5-2.2.8-.7,9.3,4.2,9.6,4.6.5.6-.2,2.2.2,2.8s1.6-.2,2.2.5c.9,1.2,1.8,4.5,4.4,6s4.4-1.5,3.8,2.1-1.5.6-1.9,1.2c-.5.9-.4,2.5-.8,3-.7.7-4.9,2.2-4.8,3.4s2.6,1.2,2.9,2.3c.8,2.9-2.6,3.3,5.4,1.8l-3.7,4.5,4.5-1.5c-1,2.9,0,4.1.7,6.7-2,.7-1.2-1.3-2-1.5s-5.6,1.3-5.6,2.6c.2,4.2,8.8.8,9,3s-6.3,5.4-8.3,4.9c.3,2.6,3.5,1.1,5.3,4.1,3.5,5.9-6.4-1.9-3,5.6l-3.4-.7,1.1,4.5h-5.2l.7,3c-3.5-1.4-6.7,1.3-10.1,1.5s-17.8-2.2-15.3,1.5,5.1.6,6.2.9c1.7.5,2.7,2.1,4.7,2.2s.9-1.4,2.2-1.6c2.5-.5,6.5-1.3,8.9-.5s3.2,2.8,5.5,3.9,0,2,1.7,1.1,0-1.4.4-1.5c13,2.6,6.1,9.6,17.7,10.6l-3,3c1.8,1.5,5.1-2.4,6-1.5s-2.7,3.6-1.4,5.9,12.7,4,13.4,4.6c1.2,1.2-5.4,3.5-5.3,5.6s3.5,2.7,4.5,1.9c-4.2,3.3,1,.8.7,3.7-7.6,3.3,5.5,4.5,3.8,6.7s-4.4.7-6,3.8c-2.1-.5-3.1,1.1-4.1,1.3s-1.3-1.5-1.8-1.2.2,1.5-.4,1.5c-1.4,0-1.9-1.8-2.6-1.5s0,1.1-.2,1.2c-1.2.4-3.9.3-3.5,2.1,2.3,5,4.7,1.8,7.3-.1,1.8-.8,5.2-.8,5.4-1,.3-.3-.2-1.8,0-2.2,6.1,4.7-2.2,2.7-2.3,5.9,4.4,2.5,2.5.4,3.4,0,4.4-1.8-.4,3.9-4.1,3.4,1.3,2.3,4.6,1.3,5.9,2s2.6,5.4,2.4,6.2-2.7.4-3,1.5c4.4,2.9-.5,2.5-.7,2.7-.5.7.3,4,0,4.4-5.2-1.7-6.7,3.4-13.2,2.1-5.7-.8,0-2-1.5-1.4s-1,4.1-5.9,3,0-2.2-2-1.5c-.8,4.2,1.4,2.5,2.1,3.1s0,2,.2,2.1c.3.3,3.3-1.2,3.7-.7,2.2,2.3-2.7,2.2-2.9,2.3-.3.3.2,1.8,0,2.1-.8.7-3.4-1-2.9,1.2l7.4,3.8c-1.1,4.5-5.7,1-8.9,1.8-.4,2.2,2.1,1.9,2.9,2.7,3.7,3.5-2.2,2.2-4.4,1.8-.2,2,5,5.7,5.2,6,1,1.7-1.8,1.1-1.5,2.6s3.2,2.9,2.3,5.6c-144.9-4-318.4,1.3-446.6-5.2l.4,1.5c-7-2.4-15.2-.7-22.5-.7-5.2.4-17.4-2.5-13.5.7-13.7-4.1-29.7-1-44.2-2.3-1.4,1.5-1.7,1.6-1.7,1.3-.7-4.7-35.2-.3-41.7-.6-11.5.6-9-1.1-9.4-.7s.2,2,0,2.3-5-2.1-5.8-2.1c-1.4,0-1.9,1.5-2.5,1.3s.2-1.3-.5-1.5c-2.3-.5-4.2.7-5.9.7s-1.8-1.4-2.9-1.5-.3,1.5-.8,1.5c-3.9,0-13.1.2-5.6-3.7-4.8-3.7-3.3,2.5-5,3s-12.8.4-14.7-.2c-5.2-1.5-2.8-9.4-4.6-11.1s-5.6.3-7.9-1.5c2.9-5.1-.8-3.6-4-4.5s-1.4-2.7-2.8-1.5,1.2,3.2.7,3.7-11.4.2-11.9,0c-2-1.1.9-2.2.7-3.7-5.7.5-3.7-2.2-4.8-3.8s-4.7-1-2.5-3.7,3.2,1,1.9-2.1-2.3-.1-1.2-1.7,1.7.4,1.5-.4c-.4-1.6-3.2,0-3.7-1.6s.9-4,.7-5-2.3-.8-2.7-5c-1.1-10.9,5.4-1,9.4-2.6s-1.6-1-2.2-2.4c-2.7-6.5,7-5.1,8.8-6.4s0-2.3,1.3-2.8,3.4,1.2,5,1.2c3.3,0,6.8-3.7,11-1.3l-2.2-2.3c8.4-11.2-22.8-2.7-24.5-8.7-1.1-4.4.8-2.3.6-2.5-.4-.4-4,1.3-5,1.3s-1.6-1-2.2-1.1c-1,0-2.9.8-3.3.5s.3-1.8,0-2.1c-.8-.7-8.2-1.7-9.7,0l3.7-3.7c-3.3,1.4-4.6-1.5-4.9-1.5-1.1,0-2.3,1.3-3.9.6s-4-4.1-3.2-5.1h4.9c.4-3.9-4.3-5.2-6.4-2.3,0-2.5-1-4.3,2.2-3.7l-3-1.5,2.2-5.2c-10.4,2.9-3.5-2.4-7.9-1.5-2.9.9-.6,2.9-1.9,1.5s-1.5-4.1-1.7-4.8C3.2,79.3-.7,63.5.1,57.7c1.1-8,2.8-4.3,5.9-5.4,13-4.3,25.4-2.6,38-4.9,12.6-2.3,7.3.6,12.2,0-1.5-5.3-17.7-38.1-3.1-32.4.9-.5.5-2.6,1.6-3.3s2.1.5,3,0,1.6-2.2,2.8-2.5c.2-.6,16.2-1,12.5-3.2,4.2-1.2-.2,2.6.4,3,1.2.9,4.1-2.8,6.4-3s9.9,2.7,12.6,2.3.6-1.9,1.7-2.1c3.4-.8,14.4-1.4,17.9-1s6.4,3.9,7.1,3.1-1.5-4.2,4.9-4.5c6.4-.3-.5,2.9.3,3.7,1.9,1.9,2.4-2.2,2.6-2.3,2.9-.6,11.1,2.6,11.6,2.3.5-6.7,8.8-1.9,12.4-2.2,4.1-.3,4.1-2.5,7.5-2.4,6.4.2,3.9,3,4.2,4.1.5,2,2.9.3,4,.5,6.7,2.6,2.7.7,8.2-.8,2.4,0,5.2,2.3,6.8,2.3s2.1-1.7,3.6-1.4,1.7,2.3,3,2.1c4.1-.6.9-5.6,1.2-5.9.6-.6,2.5,1.2,3.3,1.2,1.4,0,2.9-.9,4.5-1s3.2,1,4.5.6-.5-3,5.3-2.9,4.7,1.8,6.6,2.2c1.9.4,0-1.9.4-2.3,1.3-.9,6.6,3.3,8.6,3.8s8.7,1.5,7.1-.8-4.3-.4.7-2.3c-.6,1.5,5.9,5,6.5,5.1,2,.4,5.9-1.8,8.1-1.4s1.6,2.2,2.3,2.3c2.6.4,7.1-3.2,9.7-3.8,2,1.5-2.9,1.7-1.1,3,3.7,2.7,4.3-1.8,5.8-2.2s9.6,4.3,4.7-3.1l.2.2h0ZM671.2,14.4h-2.2v.7h1.9l.4-.7h-.1ZM681.7,18.9c-.8-1-3.3,1.9-2.2,3,1.5,1.5,3.3-1.6,2.2-3ZM333.3,145.5c-26.4,15.7-88.1,8-96.8-26.2s.5-8.3-2-7.1c-1.9-39.3,26.9-80,68.6-84.3,29.4-2.9,14.7,0,21.3.7-92.9-35.9-158.2,141.4-20.6,133.4,96.6-7.1,86.6-135.4-.8-131.9-5.6.2-23.4,2.7-18,11.3,23.5-.5,42.4-2,60.2,12.4,24,23.3,23.9,78.5-11.2,91.7l-.4-.7-.4.7h.1ZM685.4,34.6h-2.2v1.5h2.2v-1.5ZM271.1,116.7c-.8,3.6.6,9.9,0,13.9h55.4v-13.1c0-4.2-6.8-5-8.9-6.8-3.9-3.4-7.5-17.4-6.1-22.2,2.8-7.2,4.5,2.3,4.7-11,5.7-.4,10.2-17.2,2.5-18.1-11.6-1.3-5.9,7.7-10.5,7.6s-2.1-5-3.3-6.5-10.6-1.5-12.3-.4-.5,6.9-3.9,6.8-1.8-6-4.1-7.2-9-.6-9.6.5.9,11.5,1.8,13.4c1.4,3.3,4.8,3.8,4.9,4.2.5,1.4-.5,4.4.1,6.5s4.1,3.3,4.3,4.1c1.5,5.1-2.6,19.4-7.1,22.7s-7.1,2-7.9,5.6h0ZM680.2,72.1l-2.2.4,2.2,1.1v-1.5ZM41,111.8c0-3-4.5-3-6-1.1l6,1.1ZM73.2,121.6h-1.5v1.5l1.5-1.5ZM713.9,152.3h-2.2v2.2l2.2-2.2ZM49.3,162.8h-1.5v1.5l1.5-1.5Z" style="fill:#cce2ec;"/><g id="pieceText" style="isolation:isolate;"><text transform="translate(389.9 114.2)" style="fill:#595b5c; font-family:ArialMT, Arial; font-size:60px; isolation:isolate; letter-spacing:0em;"><tspan class="pieceText" x="0" y="0">P</tspan></text><text transform="translate(420.9 114.2)" style="fill:#595b5c; font-family:ArialMT, Arial; font-size:60px; isolation:isolate;"><tspan class="pieceText" x="0" y="0">ie</tspan></text><text transform="translate(465 114.2)" style="fill:#595b5c; font-family:ArialMT, Arial; font-size:60px; isolation:isolate;"><tspan class="pieceText" x="0" y="0">c</tspan></text><text transform="translate(491.5 114.2)" style="fill:#595b5c; font-family:ArialMT, Arial; font-size:60px; isolation:isolate;"><tspan class="pieceText" x="0" y="0">e</tspan></text></g></svg>