<?xml version="1.0" encoding="UTF-8"?><svg id="Layer_1" xmlns="http://www.w3.org/2000/svg" xmlns:xlink="http://www.w3.org/1999/xlink" viewBox="0 0 146.4 146"><defs><clipPath id="clippath"><rect x="15.6" width="130.8" height="100.8" fill="none"/></clipPath><clipPath id="clippath-1"><rect x="41" y="138.2" width="57.3" height="7.8" fill="none"/></clipPath></defs><g clip-path="url(#clippath)"><path d="M135,37.9c.7-.8,1.6-.3,1.1.6,1,1,1.3,2.5,2.3,3.5.8.9,2.2,1.3,1.3,2.7-.6.5-1.3,1.1-.7,1.6,1,.7.4,1.7.4,2.5.3,3.9,1.1,8.3,2,11.8,2.1.3,1.1,1.5,1.1,2.3-.8,2.7-.9,5.4-.6,8.2.6,2-1.8,6.1,1.1,6.1.8,0,.6.6.1.5-2.5-1.1-1.8,7.9-2.6,9.7.2,2.7-3.6,8.6-.5,10,.4,0,.8-1.1,1,.2-.2,1.8-5-1.1-2.1,1.8,0,0,.7.8.7.8,2.3.5,4.4-5.7,1.8-6.1-.9-.4.3-.5.5-.7,5.2-3.5-1.7-8.1,3-9.5-.1-3.9,1.9-8.2.5-12,3.5-11.7-3.8-12.3,0-13.6-.7-6.1-5.8-29.2-11.8-30.1-1.4,1.1-1.6.7-1.1-.5.3-2.5-4.1-3-4.2-6.1-.2-.9-1.3-1.1-1.9-1.7-1.3-.8-.9,2-2,2s0-1,0-1.5c0-1.7.6-4.1-1.8-1.6-.6.5,0-.5-.3-.6,0-5.2-6.8-6-10.6-8.5-3.6-2.1-7.4-6.3-11.9-4.7-1.2-2.1-2.3-2.8-4.5-.7-1.2.3.8-2.1-3-2.4-1.4-.2-2.8-.4-4.2-.2-1.3,0-2.8-1.1-3.9,1.2-1.1-2.1-2.6,0-4-.7-.4-1.8-1-1.8-2-1.4-11.2,1-22.3,1.8-33,5.3-2.4,1-5.3,1.8-7.2,3.7-1.6,1.3-4.4.4-4.3,3.6-.6.6-1.3-1.8-2.4.1-1.5,2.3-4.9,2.2-6,5-3.5,2-4.9,6.2-8.4,8.2-1.2.5,1.8,3.7,2.6,2,1.9-2.8,6.2-4.6,6.2-8.3,1.5.6,1.8,0,2.3-.9,1.3-1.9,4.9-1.8,4.6-4.9,2.4-.2,4.5-.8,6.3-2.5.8-.6,1.6-2,2.6-1.6,1.8.7,2.5-.5,3.6-1.3C69.7,3,99.7.9,119.5,19.4c3.4,2,4.6,6.8,8.4,7.8.2,0,.3.2,0,.5-2.2,2.7,3-.6,1.4,4.1,0,1.1-1,.4-1.4.7-1,.6-.2.6,0,.7,3.8,1-2.2,2.9,2,5.2.8.3.9,1.5,2,1.1,0-1-2.8-3.6-1.9-4.7,2.4.2,2.4,6.6,5.8,3.5-.4-.2-1.3,0-1.1-.6l.3.2ZM141.7,47.2c-.1.5-.2,1.3-1,1.3s.3-.7.2-1.1c.2-.7-.9-1.7,0-2,.9-.2.4.6.7,1v.9h.1ZM105,7.4c-.5.8-1,0-1.5-.2-.3,0-.9-.3-.5-.9.6-.9.7.5,1.2.4.2.4,1.2,0,.8.8h0ZM143.8,74.9c-.3-.9,1.4-1.2,1.5-.2.8,1-1.7,1.1-1.5.2ZM141.8,53.8c-.3-.5.7-.8,1-.3.6.6-1,.9-1,.3ZM143.1,69c0-.9,1.1-.3,1,.4,0,.9-1.4.5-1-.4ZM98.4,5.4c-.2,1-.8-.2-1.2-.5.6-.4,1.3-.6,1.2.5Z"/></g><path d="M1.2,84.3c.2,1.2,1.8,2.5.6,3.7,0,0,.2.3.3.4l.8-.3c.4-.2,0-1.1,1.2-.6-.6.4.4.9-.7,1.5-.8.4-.8,1.5-1,2.3,0,.2,1.5-.6,1.6,0,0,.5-1.1.7-1.7,1.1-1,1.7.6,3.7,1,5.4.5.9,2.1-1.9,3.1-.5,1.1,1.9-4.3,2.2-1.7,4.3-.2,7.5,2.7,5.5,5.1,11.7,1.6,3.8,4.1,7.3,6.5,10.7,1.9,1.6,2.6,6.6,5.8,4.3,1.3-1,1.1.1,0,.4-1,.8-1.8,1.5-.3,1.8,2.4.2,2.7,3.4,5.3,3.1,1.3,0-.6,2.3,1.1,3,5.1,2.5,4.1,2.1,6.7-2.7.4-1.5-2.1.8-1.7-.2.2-.8,1-.7,1.6-.9.6,0,1.8-1.5.5-1.6-7.3,2.6-12.5-13.6-17.9-17.8-.3,0-.8.8-.3.8,1.3,0,.6,1.3.8,2,0,.3.7.6.2,1-2.8.8-1.8-3.9-3.5-4.9-1.9-1.4-2.7-3.6-3.8-5.6,0-.9-2.5-2.3-.7-2.6,2.9-.2-2.3-5.4-2.5-7.1-1.1-3-2.2-6-2.2-9.2.2-2.7.2-4.2-3.3-4.9-1.5.2-1.1.9-1,1.5h.1ZM20.6,120.3c-.6-.3-2.5-.5-1.4-1.4.7-.6.9-.2,1.1,0,0,.5.2,1,.3,1.4ZM3.6,84.9c-2.4-.4-.7-1.3.7-.5-.3.2-.6.5-.7.5ZM26.7,128.9c.7-.8.4.5.7.8-.7.2-1.2-.3-.7-.8h0Z"/><g clip-path="url(#clippath-1)"><path d="M97.8,139.7c-.2-1.1-.9-.3-1.3-.7-1.8-1.5-2.5,2.1-4.3.7-.5-.8.3,3.6-.7,1.7-.9-2.3-2.6.4-3.8,0-1.7-1-3.6.2-5.3.6-2.4-.1-4.6.6-7,.9-8.9,0-17.9-1.2-26.6-3.1-2.4-1.6-4.7-1.8-6.7.9-.3.3-1.1-.2-1.3.8.2,1.7,3.3.1,4.5.8,10.9,3.9,24.9,4.8,36,1.3,3.1,1.8,14,1.3,14.4-3,0-.7.6-.6,1,.4.3-.4,1.1-.4.9-1.3h.2ZM89.8,142.8c0,1.7-2,.8-.7-.4.4-.1.7,0,.7.4ZM62.1,144.2c.4-2.1,2.9,1.1.7.4-.3-.1-.8.1-.7-.4ZM87.6,144.3c-1,0-.3-1.8.4-.5-.2.2-.3.5-.4.5h0Z"/></g><path d="M4.6,68.3c1.2-12.5,5.2-24.7,12.3-35.1,1.1-1.3,1.6-1.9-.9-3.2-3.6-1.4-4.3,6.4-6.5,8.5-3.2,6.1-6.3,12.3-7.3,19.1-1.6,2.7,2.6.5,1.5,2.2-3.7-.6-1.2,3.2-2.7,5.2-.3,1.6-2.7,5.2,1.1,4.1.5,0,.9,0,1.3.3,1,0,1.1-.6,1.1-1.1h0ZM14.2,32.3c1.2-.3,1.8.6.3.7-.2-.3-.4-.7-.3-.7Z"/><path d="M122.5,125.1c0,.5-1.7.4.2,1.8,1,.7,2,1.3,2.4,0,1.6-3.6,6.5-4.9,7.8-9,.3-.5-1.5-1.4-.2-1.2,2.6.5,0-2.2-.8-2.6-2.5-.4-3.3,3.4-4.6,4.9-1,2.5-4.4,3.3-4.7,6.2h0ZM129.5,117.3c.4-1,1.4,1,0,.7-.4-.4-.2-.6,0-.7Z"/><path d="M138.9,99.4c2.6,3.3-.2,7.8-1.9,11.1-.2.4.2,1.2-1.1,0-.8-.7-.5.5-.5.8.5,1.7-3.1,1.3-1.1,2.9,1.1,1.1-.9,1-1.2.2-1.1-1.1-.9-4.4.7-4.9.3,0,.8,0,.8-.2-.4-2,.2-3.5,1.1-4.9.8-1.4,1.8-2.8,2-4.5,0-.6.3-.7,1.2-.4h0Z"/><path d="M3.2,81.5c.6-2.3-4.6-2.2-1.9-4.5.8-.6.5-.9-.7-.4-.3,0-.6-.2-.4-.3,1.7-1.2-.6-2.6.7-3.9.4-.3.2-.8-.2-1.1-1.2-1-.5-1.3,1-1.1,1.5.2,1-.8,1.8-1,1.5,1.2.9,3.2.8,4.9-.4,2.3,1,5.5-.7,7.3h-.4Z"/><path d="M115.2,132.6c0-4.2,5.4-1.6,3.9-.6-.8.4-3.2,3.4-2.6.7,0-1-1.1-1-1.3,0h0Z"/><path d="M99.5,140.3c-.6,1.1-2.3,3.8-2.6.7,2.1,1.7,1.2-3.1,4.6-3.6,1.8-1.5,1.5,2.2-.2,1.3l-.3.3c-.8,0-1.5,0-1.5,1.4h0Z"/><path d="M109.9,136.6c0-3.4,2.3-4.8,2.8-.6,0,.8-.7.4-.6-.1,0-.6,0-1.2-.6-1.4-1.2-.2.4,4-1.6,2.2h0Z"/><path d="M105,137.2c-.6.8-1,4.5-2,2.1,0-.3,0-.5.3-.7.6-.5.3-2.7,1.8-1.4h-.1Z"/><path d="M108.6,137.6c-.7.2-2-2.1-1.2-2.4.8-.5,2,2,1.2,2.4Z"/><path d="M101,139l.3-.3c1.6,1.3-.5,3.7-1.8,1.6.6-.2,1.3-.3,1.5-1.4h0Z"/><path d="M3.2,81.5c.6,0,2.1-.2,1.5.7-.6,1.1-1.8.4-2.7.5-1.6-1,.4-1,1.2-1.2Z"/><path d="M122.5,128.8c-1,.4-2.7-1.4-2.1-2.1.5-.4,2.2,1.4,2.1,2.1Z"/><path d="M136.9,45c-.6-1.2-2.2-2.2-.5-3.1,1.6-.3.4,2.2.5,3.1Z"/><path d="M16,30c-1.2-1.9.4-2.8,1.4-1,.6,1.2-1.2.4-1.4,1Z"/><path d="M119,129.7c-1-1.1,0-1.9.7-.6,1,1.2.3,1.9-.7.6Z"/><path d="M105,137.3c.3.2.7.4,1,.7.5.4.9-.3,1.4.5-1,1.4-1.7,0-2.3-1.2h0Z"/><path d="M115.1,132.6c.2.8.9,2.9-.5,2.3-.9-.8.2-1.7.5-2.3Z"/><path d="M139.7,44.7c-1.2.3-1.6-.6-.7-1,.7.2.4.7.7,1Z"/><path d="M138.1,48.7c-1.1.3-1.1-.5-.5-.9,1-.4,1.1.4.5.9Z"/><path d="M144.2,86.1c-1-.2-.3-1.2.4-.9.3.2.4,1-.4.9Z"/><path d="M12.2,106.7c-.8-.9.6-1.7.7-.5,0,.4.7.6,0,1.1l-.7-.7h0Z"/><path d="M2.4,79.7c0,.5-1,1.5-1.5.7.1-.6.9-.6,1.5-.7Z"/><path d="M111.9,81.1c1.4,1.3.3,1.3-.5,1.8.7,1.8-.5,3.5-1.9,4.5-.6.4,0,1.6-.7,2-.3.2,0,.8-1.1.2-1.2-.6,1,1.3.4,1.5-1.3.8-2.1,2.1-3,3.3-1.9,2.5-5.1,3.3-6.6,6.4-.2.3-.4.4-1,0-.5-.3-.8,0-.7.6,0,1.3-1.2.7-1.4,1.7-1.1,2.3-4.5.6-6.8,3.6-1.2.5-4.7,3.7-5.3,1.7-.2-.5-.4-.8-.5-.5-1,2.9-3.5,2.4-5.7,2.4s-1.6,1-2.5.8c-2.9-.7-6,.8-8.8-.4-6.8-.9-13.1-2.8-19-6.6-.4,0-.5-.6-.5-1-.2-1.7-2.8-.3-3.2-1.8-.3-1.2-1.9-1.3-2.1-2.6-.2-1-1.8-.9-2.4-1.6-1.2-1.3-1.7-3.1-3-4.3-1-.9-.9-2.5-2.1-3.2-1.9-1.2-2-3.9-4-5.1-.7-.4.3-2,.3-2.8,2-2.2.9.8,2.4-1.4.4-.6,3.5-3.6,4-2,.2.9.9,1.5-.6,3.5-.2.2.2.3.4.4,1.8.8.7,3.6,2,4.7,1.3,1.2,1.5,3.1,2.8,4.3,4.4,4.8,8.7,10.5,15.2,12.3.9.2,1.5.9,1.8,1.7,1.1-1.5,1.3,0,2.4,0,.8-.2,1.9-.8,2.4,0,.6,1.1,1.9.5,2.8.7,1.3.4,2.6.2,3.9,1.1,13.5-.1,28.1-7.5,35.6-18.6,0-1.8,2.4-1.8,2.4-3.6.4-2.4,2.7-2.9,4.4-3.9l.2.2ZM48.2,103.2c.7-.8,0-.5-.3-.2-.5.6,0,.5.3.2ZM97.9,98.9c-.3-.4-.4-.3-.5,0,0,1,1.4,1.3.5,0Z"/><path d="M110.1,76.7c-.7.2-.9.2.4.7.9.3.6.3-.2.4-3.1.6-1,2.6,1.7,3.3,1.5-.3,1.6-2,2.2-3.1-.4-1.1-2.8-1.6-4-1.2h0Z"/><path d="M109.3,90.9c1-.4,1.3-.3.8.2-.7.8,1.8-.4,1.2,1.8,0,.4,1,0,.9.5,0,.2.6,0-.5.7-.4.3-.4.4,0,.2,1.8-1,1.2-.2,1.3,0,.3,1.3,1.9,1.7,1.7,3.2-.2,1.2.9,1.9,1.6,2.7.6.4-1.9.9-.2,1.1,1.1,0,0,.7.8,1.1,1,.5.4,1.3-.2,1.8-.9,1.6.7,3.6-.2,5.5.2.6-1.9-.5-1.7,0,.4.4.7.8.8,1.3.3,1.6-2,1.7-2,3.1s0,.6-.4.7c-1.1.3-1.5,1.4-2.3,2.1-.7.6-1.6.5-2.4.9-.8.3-1.7-.8-2.4,0-.5.2-1,.5-1.5.3-2.3-.5-4.9.2-6.9-1.5-.6-.4-1.6.2-1.4-1,0-1.4-2,.4-2.1-.7,0-.9-1.2-.7-1.1-1.6,0-.7-1.3-.3-1.5-.8-.5-1.3-1.1-2-1.5-3.1,0-.3,0-.6-.5-.6-1.1,0-.6-1.9-1.8-1.7-.3-.3,1.3-3,1.9-3s2-2.6,3.3-3.4c1.8-1.7,1.4,1.4,0,2.4-.2.2.1.1.2.1,1.3,0,0,2.2.6,2.7,1.4,3.2,3.7,5.9,6.9,7.5.9.2,1.8-.5,2.1.9.4-1.6.5-.5,1.1-.6.3-.2.7-1.2,1.1-.5.5,1,.8.2,1.3.2.8,0,1.6,0,2.4.3,2.7-3.2,4.5-7.2,3.8-11.5-.3-2.1-2-3.2-2.3-5.2,0-.4-.3-.6-.8-.7-.7,0-.7-.6-.6-1.2.2-.8-1.2-.4-1-1.2s-.3-1.1,1.3-2.6c0,0,0-.2,0-.2h0ZM97.5,114.7c.9-1.3-.6.2-.4.4,0,0,.3-.2.4-.4ZM114.3,100.3c-.5,0-.4.2-.4.3.8,0,1.8-.7.4-.3h0Z"/><path d="M106,90.8c0,0-.3.2-.3.3-.2.2,0,0,.9-.3.8-.4.6-.3,0,.3-3.3,2.7,3.5.5,3.4-1.3,0-1.7-3,.5-3.9,1.1h0Z"/><path d="M91.3,59.2c2.4,0,1.1.5.5.9,4.1.9-2.5,4.5-3.1,5.7-1.5,0-2.4-1.3-3.4-2.3-.3-.3-1.1-.5-.9-1,0-.2-.8-.3,1-.7.7-.2.7-.3.2-.2-3.5.4-.6-.4-1.8-2.2-.7-2,1.8-1.6-.5-4.1-.6-.6,2.8,0,.7-.9-1.4-.5.3-.8-.8-2,.2-3.4,5.4-5.3,8.1-3.5,2.1,1.9,3.8,4.8,4.8,7.4.5.2-2.8.3-2.1.5,2.7.5,2.3,1,1.5,2.4,0,.3,1.2.7.8,1-1,.8.8,1.8.2,2.7-.3.4.4.9-.4,1.2-1.6.6.3,1.7-.6,2.6-1.3,1.5-.7,4-2.5,5.4-2.7,2.7-7.7,1.9-9.5-1.5-1-1.4,0-3.3-1.5-4.4-.2,0,.2-.4.7-.6,1.6-.7-2-.9-1-1.5s.4-.5.3-.7c-.5-.6,1.1-.8,0-1.3-1.7-.6.4-1.9,0-2.8-.3-.6,1.2-1,.5-1.6-1-.9,1.1-1.9,0-2.8,0-.5,4.3-.7,4.7-.3.8.6,4.4,0,6.4.7,1.7.3,1.5.4,1.2.5-.6.3-.3.6-3.5.6s0,0,0,.2c1.3.8-2.2,1.1-1.8,1.8.4.7-1,1.3-.8,2,.4,2.3-.6,5,.3,7.1,0,0,0,0,0,.2,0-.2-.2-.3-.4-.5h0c0-.2,0-.4,1.4-.3-2.1-.9-.7-.5-.6-1.1-2.2-1.8.6-.5.4-1.5,0-.2-.3-.4-.2-.6.4-.5,0-1,1.1-1.5.6-.2,0-.6-.3-1-1.4-2.3,0-5.2-1.6-7.3.2,0,.2-.5.3-.2-2,.6.7,5.3-.6,6.1-.7,1.2,2.3.2.3,2h0l-.3.2c-1.6-1.1,1.2-2,2.7-2.7.2,0,.1-.2,0-.2h.3ZM84.4,66.1c2.1-.2-.6-.3-.7,0h.7ZM85.7,55.8c.7,0,.6,0,.6,0-.9-.4-2.7,0-.6,0Z"/><path d="M87.9,57.9c-.8-.4-1-.5.5.6,2,1.4-1.7-.9-1.8-.6l1.7,1.4c-.4.4-1.1.7-1.6.9,1.2-.4,8.9-.8,4.1-4.6l1.2,6c1.7-.6-3-3.1-4-3.7h0Z"/><path d="M60.6,59.2c2.4,0,1.1.5.5.9,4.1.9-2.5,4.5-3.1,5.7-1.5,0-2.4-1.3-3.4-2.3-.3-.3-1.1-.5-.9-1,0-.2-.8-.3,1-.7.7-.2.7-.3.2-.2-1.8,0-2.3.2-1.6-.5.4-1.2-1.2-2.2,0-3.3,1.5-1-2.2-3,0-2.9,1.6,0-.6-.5-.7-.9,0-.5.6-.6,0-1.2,0,0-.2-.3-.2-.4,0-2.4,3.1-4,5.3-4.2,4.3-.1,6.1,4.8,7.7,8.1.5.2-2.8.3-2.1.5,2.7.5,2.3,1,1.5,2.4,0,.3,1.2.7.8,1-1,.8.8,1.8.2,2.7-.3.4.4.9-.4,1.2-1.6.6.3,1.7-.6,2.6-1.3,1.5-.7,4-2.5,5.4-2.7,2.7-7.7,1.8-9.4-1.5-1-1.3,0-3.3-1.5-4.4-.2,0,.2-.4.7-.6,1.6-.7-2.1-.9-1-1.5.5-.3.4-.5.2-.7-.5-.6,1.1-.8,0-1.3-1.7-.6.4-1.9,0-2.8-.3-.6,1.2-1,.5-1.6-1-.9,1.1-1.9,0-2.8,0-.5,4.3-.7,4.7-.3.8.6,4.4,0,6.4.7,1.7.3,1.5.4,1.2.5-.6.3-.3.6-3.5.6s0,0,0,.2c1.3.8-2.2,1.1-1.8,1.8s-1,1.3-.8,2c.4,2.3-.6,5,.3,7.1,0,0,0,0,0,.2-.4-.7-.9-.7,1-.8-2.1-.9-.7-.5-.6-1.1-.4-.4-1.5-.9-.4-1,1.4,0,.6-.5.6-1.1.4-.5,0-1,1.1-1.5.6-.2,0-.6-.3-1-1.4-2.3,0-5.2-1.6-7.3,0,0,.2-.2.2-.3s0,0,0,.2c-2,.6.7,5.2-.6,6.1-.7,1.2,2.3.2.3,2h0l-.3.2c-2-1.3,2-2,2.7-3h.3ZM53.7,66.1c2.1-.2-.6-.3-.7,0h.7ZM55,55.8c.7,0,.6,0,.6,0-.9-.4-2.6,0-.6,0Z"/><path d="M57.1,57.9c-.8-.4-1-.5.5.6,2,1.4-1.7-.9-1.8-.6l1.7,1.4c-.4.4-1.1.7-1.6.9,1.2-.4,8.9-.8,4.1-4.6l1.2,6c1.7-.6-3.1-3.1-4-3.7h-.1Z"/></svg>