<?xml version="1.0" encoding="UTF-8"?>
<svg xmlns="http://www.w3.org/2000/svg" xmlns:xlink="http://www.w3.org/1999/xlink" viewBox="0 0 1125.36 1354.25">
  <defs>
    <style>
      .cls-1 {
        clip-path: url(#clippath-4);
      }

      .cls-2, .cls-3, .cls-4 {
        fill: #fff;
      }

      .cls-5, .cls-6 {
        fill: none;
      }

      .cls-7 {
        clip-path: url(#clippath-1);
      }

      .cls-3, .cls-8 {
        stroke-width: 3.13px;
      }

      .cls-3, .cls-8, .cls-4 {
        stroke: #000;
        stroke-miterlimit: 10;
      }

      .cls-9 {
        clip-path: url(#clippath-5);
      }

      .cls-6 {
        clip-path: url(#clippath);
      }

      .cls-10 {
        clip-path: url(#clippath-3);
      }

      .cls-4 {
        stroke-width: 1.56px;
      }

      .cls-11 {
        clip-path: url(#clippath-2);
      }
    </style>
    <clipPath id="clippath">
      <rect class="cls-5" x="127.54" y="764.11" width="172.56" height="181.7"/>
    </clipPath>
    <clipPath id="clippath-1">
      <rect class="cls-6" x="125.39" y="765.01" width="171.74" height="179.84"/>
    </clipPath>
    <clipPath id="clippath-2">
      <rect class="cls-5" x="477.03" y="401.39" width="172.56" height="181.7"/>
    </clipPath>
    <clipPath id="clippath-3">
      <rect class="cls-5" x="474.89" y="402.29" width="171.74" height="179.84"/>
    </clipPath>
    <clipPath id="clippath-4">
      <rect class="cls-5" x="837.96" y="63.99" width="172.56" height="181.7"/>
    </clipPath>
    <clipPath id="clippath-5">
      <rect class="cls-5" x="835.82" y="64.9" width="171.74" height="179.84"/>
    </clipPath>
  </defs>
  <g id="Board">
    <g id="Letter_O">
      <path d="M218.67,161.54c-3.61-.86,4.92-6.75,5.31-7.99-1.38,1.83-5.09,4.7-3.88,1.22l-.04-.04c.46-.48.84-.97,1.53-1.71-.81-.23-1.33-.5-.39-1.77l-.04-.06c1.34-1.52,3.29-3.87,8.43-9.32-3.76,3.84-5,4.98-6.26,6.28l-.04-.04c-5.08-1.16,15.27-17.62,18.08-22.38-17.33,17.61-17.43,17.61-18.04,17.63-2.93-1.65,10.77-13.38,13.92-17.63-3.24,1.65-12.44,16.28-14.23,11.66,1.5-1.78,7.05-7.76,10.06-10.95-1.93,1.17-9.88,12.23-9.7,7.28l-.12-.12c.57-.53,1.95-2.03,2.84-3.06-2.21,2.32-3.61,1.91-2.55-.22l-.04-.06c.29-.22.48-.59.8-.94-3.25-2.35,7.72-9.52,10.39-14.01-1.99.94-11.13,13.93-11.35,8.83l-.08-.08c.26-.24.58-.6.78-.9-.91.15-1.8-.4-.78-1.65l-.06-.08c1.25-1.24,2.16-2.48,4.74-5.24-4.66,4.72-5.49,5.22-5,2.2l-.04-.06c1.44-1.66,3.57-4.29,9.43-10.7-5.89,5.34-10.13,12.06-10.04,7.44-.65-.42-1.21-.51-.39-1.71l-.06-.08c1.28-1.35,2.26-2.75,5.22-5.99-2.85,2.83-6.75,7.47-5.88,3.3l-.08-.08c1.2-1.27,2.03-2.46,4.45-5.12-5.05,5.06-5.36,5.66-5.27,2.57l-.06-.1c1.34-1.34,2.27-2.71,5.12-5.79-3.56,3.67-5.13,5.04-6.45,6.4l-.08-.04c-1.3,1.14-2.22.27-1.33-1.08-2.05,1.88-1.91,1.93-3.02.77-1.23,1.31-2.75.58-1.62-1.04l-.06-.08c1.66-1.91,3.99-4.84,10.92-12.58-16.19,15.27-14.82,17.44-15.9,13.01.27-.17.6-.61.88-.94-7.81,7.98-5.12,1.08-.34-3.12-11.36,10.95-10.72,12.15-11.16,8.21.45.16,63.58-65.55,37.27-33.88,5.33-4.91,9.69-11.3,9.32-6.6l.06.08c-.2.14-.65.65-.9.94,2.05-2.26,3.48-1.82,2.49.24l.04.06c-1.49,1.87-4.06,5.01-11.43,13.27,10.08-9.16,13.53-16.91,15.06-10.23,1.19-1.18,2.68-.43,1.49,1.16l.04.08c-.88.88-1.51,1.91-3.2,3.77,9.22-9.17,4.11.31-.72,4.26,12.65-13.08,6.93-2.38.25,3.41,2.8-2.86,6.94-6.9,8.16-8.18l.04.04c.76-.81,1.57-.27,1.69.55.88.08,1.58.45.67,1.73l.04.06c-1.41,1.69-3.41,4.16-9,10.32,7.01-6.39,10.97-13.19,11.18-8.64l.06.08c-1.18,1.27-2.07,2.49-4.63,5.24,3.03-3.06,4.07-4,5.18-5.1l.04.04c1.01-.94,2.38.15,1.23,1.4.14-.12.2-.2.22-.22l.04.04c4.62,1.11-7.96,10.15-10.77,14.66,4.69-3.3,12.64-15.92,14.14-11.74,0,0,.08-.06.08-.08,3.18-1.2,1,2.29-.61,3.53,5.06-4.37,6.19-2.63-.27,3.77,10.77-10.51,5.34-1.38-2.45,6.36,12.94-13.89,15.47-11.64-.33,4.57,24.11-24.54,7.16-2.17-1.96,6.02,10.48-9.79,16.45-18.57,16.06-13.6,1.6-.36,2.38.49.02,2.83,10.14-4.01-49.6,50.85-56.49,59.47l-.04-.04c-.45.38-.59.38-.69.38l.12-.1ZM261.39,85.89c.07-.06.13-.12.2-.18-.04.03-.1.14-.2.18ZM248.81,75.72l-.02.02c.1-.08.18-.15.26-.24-.05.04-.18.11-.24.22Z"/>
      <path d="M214.54,226.92c1.32-8.19,18.21-19.31,25.35-28.93-23.54,22.19-25.41,28.53-30.43,28.22-1.04,1.07-2.03.64-2.02-.45-1.41,1.62-2.92.93-2.27-.55-.83,1.42-3.62,2.04-2.25-.32l-.06-.08c1.55-1.64,2.83-3.18,6.69-7.18-10.76,11.86-14,10.9-4.61.82-7.61,7.42-8.02,7.42-8.41,7.42-1.6-.66-1.62-.57,1.72-4.56-4.76,5.36-6.97,5.2-4.53,1.14-4.58,4.08-6.33,2.97-.24-3.38-6.78,7.83-9.43,6.45-2.59-.87-23.18,20,21.38-26.44,31.8-37.08-11.3,8.99-42.88,48.35-41.88,39.63,7.75-8.53,20.3-21.14,31.57-32.86-30.9,30.15-34.13,36.48-35,31.84-1.23,1.22-2.34,1.1-2.2-.27-8.29-3.5,31.4-34.6,38.53-45.18-43.8,43.59-44.61,47.43-43.8,41.08-1.69,1.47-2.06,1.59-2.84.34-.89.06-1.62-.43-.73-1.69l-.04-.04c1.01-1.21,2.28-2.89,5.55-6.5-7.55,7.38-7.71,8.44-7.76,4.87-.94,1.2-2.67.6-1.57-.98l-.08-.1c1.53-1.65,2.78-3.43,6.84-7.87-5.17,4.88-9.37,10.89-8.82,6.18l-.04-.06c2.17-2.48,6.37-7.16,9.49-10.64-6.08,5.49-11.97,14.25-11.59,9.03l-.04-.06c.31-.27.58-.71.96-1.14-2.17,2.33-3.46,1.91-2.51-.18l-.04-.06c1.24-1.47,2.73-3.45,6.84-8.07-9.19,8.68-8.23,10.06-9.04,6.28,1.22-1.55,3.09-3.97,8.12-9.66-6.48,5.99-10.58,12.46-10.43,7.83l-.08-.1c1.53-1.58,2.67-3.1,6.16-6.87-1.51,1.51-9.85,10.45-8.08,5.46l-.06-.08c.48-.45.85-1.05,1.49-1.79-.74.75-1.3,1.18-1.78,1.74l-.06-.04c-1.03.94-1.62.24-1.75-.53-.56.21-1.15-.32-1-.92-2.55.05-.27-2.44.84-3.69-9.19,6.69,3.13-7.3,5.51-9.26-10.67,10.29-9.03,10.29-11.06,9.64.62-4.21,4.27-5.77,13.86-17.25-10,9.41-17.08,19.21-16.22,13.74l-.06-.08c.53-.44.91-1.08,1.55-1.83-10.65,7.6,8.42-12.83,11.43-15.84-5.61,5.61-10.95,11.13-15.45,15.51l-.04-.04c-1.02,1.02-2.14-.04-1.47-1.02-.84.45-1.93-.32-1.08-1.41-3.69.19.75-3.6,3.06-6.4-13.07,12.42-.68-4.1,3.82-7.59-26.71,25.91,1.56-6.81,8.92-13.25-14.38,13.95-24.2,26.19-21.08,18.2-.87,1.42-3.23.73-1.96-.85-.8.24-1.74-.32-.98-1.43-2.91-1.1-2-.69,15.12-19.06-16.11,16.07-18.71,19.46-16.43,12.95-8.17,2.94,12.17-14.97,16.29-19.94-54.74,52.96,24.57-30.6,36.39-41.93-11.9,10.63-61.07,65.28-56.54,54.27-.99.99-2.29.19-1.43-1.12-.72-.34-1.19-.6-.29-1.71l-.04-.06c6.73-7.05,16.47-16.9,25.08-25.75-7.83,7.89-19.31,19.55-24.35,24.59l-.04-.04c-.89,1.03-2.39.09-1.33-1.16l-.08-.1c2.19-2.28,3.73-4.04,8.86-9.3-9.41,8.76-9.08,10.18-9.21,6.11-1.37-.6-1.55-.62.94-3.42-3.92-9.99,33.23-35.76,44.21-51.41-12.54,10.87-49.93,53.82-46.72,44.24l-.06-.08c.19-.14.56-.61.78-.9-.99.58-1.83-.42-.88-1.43l-.04-.06c7.21-13.09,27.94-29.83,40.12-44.26-9.87,7.99-37.94,42.61-40.25,37.98,1.2-1.36,2.23-2.76,5.31-5.99-2.23,2.38-6.31,6.39-5.12,2.35l-.04-.06c4.06-4.62,16-17.05,22.8-24.24-17.82,18.89-30.34,29.6-16.45,13.13-3.66,4.88-8.77,6.3-4.21,1.14-2.81.92-.85-2.25.47-3.43-3.02.75-.7-2.47.88-3.83-1.01.97-2.28.13-1.3-1.26l-.06-.08c1.45-1.67,3.07-3.76,7.94-8.99-7.87,8.84-8.24,5.1-4,.71-4.72-1.44,9.78-11.97,10.92-14.92-5.18,5.25-6.92,6.85-8.29,8.28l-.04-.04c-.98,1-2.32.13-1.31-1.16l-.1-.1c.95-.9,1.78-2,3.2-3.53-2.79-1.95,3.97-5.83,6.65-10.68l-.69.69-.67-.73c4.5-3.62,13.78-16.18,12.2-9.54l.04.06c-.32.27-.53.68-.9,1.12,9.8-9.3,8.99-10.76,9.8-7.1,1.94-1.99,2.97-2.79,3.82-3.73l.06.04c1.29-1.13,2.24-.21,1.33,1.12l.06.08c-1.44,1.59-2.76,3.4-6.84,7.83,11.98-12.07,12.2-12.07,12.69-12.07,2.5.74-.62,2.84-1.96,4.59,15.19-14.35-.39,5.01-6.69,10.5,18.42-17.77,18.24-20.01,18.66-15.74,3.56-3.68,5.41-2.77,2.67.43,3.95-4.09,4.48-4.32,4.23-1.51l.06.08c-.15.11-.56.54-.73.8,1.57-1.99,5.32-4.68,3.94-1.19l.04.04c-1.21,1.26-2.6,2.89-6.22,6.62,26.05-24.26-5.6,10.7-12.98,17.61,8.88-6.82,24.55-29.11,27.33-24.73-.86.8-1.66,1.9-2.92,3.26,5.98-5.35,4.72-5.32,6.49-4.68-.27,3.71-8.16,9.49-21.04,23.89,25.06-24.47,22.76-25.06,25.57-23.36.8-1.06,2.3-.53,1.79.67,6.5-1.6-4.35,7.69-17.65,22.24,24.07-23.2,22.15-24.64,24.25-21.79,1.35-1.51,2.71-.76,1.69.86l.06.08s-.26.21-.38.36c2.3-2.21,3.06-2.38,3.18-.59.92-1.35,2.84-.81,1.69.88l.04.06c-.86.97-1.61,1.97-3.53,4.01,6.05-6.55,8.07-6.18,5.49-2.16,3.17-2.67,2.41-2.9,3.86-1.63.9-.59,2.06.11,1.18,1.39,10.02-5.37-20.44,24.29-26.51,31.07,34.53-36.28,40.83-38.78,21.27-17.23,14-12.98,12.54-14.96,13.59-10.74-.12.09-.43.45-.59.67,7.37-.1-32.97,35.58-41.74,46.44,47.39-46.77,45.6-48.37,47.94-45.4.94-.7,2.18,0,1.24,1.35.89-1.24,2.87-.61,1.57,1l.06.08c-13.44,14.16-34,34.68-50.16,51.25,1.57,2.85-2.57,4.3-7.31,10.4,1.47-1.5,2.12-2.06,2.92-2.92l.04.04c.93-.97,2.41.12,1.29,1.31l.04.04c-1.77,1.91-10.02,10.81-12.1,13.01,22.79-22.94,2.2,2.9-5.53,9.64,5.37-5.44,9.71-9.88,13.82-13.97l.08.06c1.16-1.08,2.24.03,1.31,1.18l.06.06c-.16.14-.86.89-1.16,1.23,1.38.38,1.79.67-.24,2.77,3.45.99-11.25,14.29-14.45,18.47,3.3-1.8,13.45-17.18,14.94-12.39-1.09,1.1-1.98,2.17-3.77,4.02,11.15-7.41-9.52,13.73-13.17,17.92,17.04-16.08,15.47-18.21,16.67-13.82-1.31,1.48-3.06,3.66-7.69,8.7,2.77-2.51,9.34-10.59,8-5.44l.06.08c-.8.81-1.3,1.65-2.63,3.08.61-.61,1.09-1.03,1.49-1.47l.04.04c.89-.93,2.38-.03,1.28,1.24l.1.12-.18.18c.68.31,1.15.6.39,1.63l.04.04s-.04.04-.08.06c.61.36.99.48.23,1.61l.08.1c-.7.64-1.27,1.46-2.24,2.53,2.42-2.5,3.52-2.12,2.64-.02l.06.1c-.96.98-1.6,1.99-3.35,3.92,9.88-7.88-2.29,6.74-6.57,10.86,11.84-11.17,10.71-12.75,11.63-8.74-1.12,1.27-4.04,4.75-8.8,10.05,7.51-6.74,11.43-13.86,11.92-9.15-.03,0-.61.59-.78.8,7.2-6.34,2.95,1.23-1.72,5.56,9.29-8.73,8.61-10.23,9.2-6.28-1.41,1.55-3.1,3.72-7.78,8.82,8.34-7.09,10.11-13.04,12.69-10.11,2.89-3.06,4.07-2.89,3.19-.51l.06.1c-1.2,1.3-7.15,8.07-13.57,14.96,14.03-10.83,90.39-97.68,88.05-83.4,8.23-3.79-13.44,16.7-17.04,20.9,18.77-18.13,20.15-21.92,20.57-17.41.79-.11,1.7.48.88,1.53.83.15,1.41.49.57,1.71l.04.06s-.32.28-.37.41c3.99,1-2.61,5.19-8.06,11.89,30.92-27.37-22.86,27.99-30.23,35.27,42.88-43.81,46.29-46.55,37.1-33.76,16.58-13.51-11.72,16.15-16.49,20.51,14.74-14.94,18.72-18.85,21-21.1l.04.04c1.02-1.02,2.4.02,1.28,1.28l.04.06c-1.13,1.12-1.96,2.16-4.2,4.44,7.02-6.11,7.91-3.88-2.39,6.32,3.8-3.51,7.94-9.45,7.51-4.95l.06.08c-10.9,11.7-27.12,28.22-40.27,41.93,14.71-12.04,29.16-34.58,40.59-38.22l.08.1c-1.46,1.49-2.42,2.75-5.29,5.71,4.88-5.27,6.63-5.34,4.8-1.61,1.3.29,1.82.63,0,2.53,1.26-.07,1.5.86.47,2.12,1.74,2.9-2.44,4.18-7.49,10.58,7.28-6.71,5.94-6.69,7.82-6.07-10.99,15.47-28.41,30.19-36.47,39.99,12.31-10.02,31.4-36.65,36.15-33.86-.11.08-.7.73-.9,1.02.04,6.64-14.29,15.69-20.66,24.52,14.76-13.45,19.12-22.22,20.69-17.92h.02c-.5.62-.99,1.26-2,2.37l.06.04c3.37-1.62.93,2.31-.77,3.65,1.03-1.15,2.47-.08,1.45,1.18h.02c-4.97,5.91-12.95,14.26-19.92,21.87,22.95-24.74,21.29-17.37,6.88-3.1,2.29-1.71,10.01-12.04,9.43-6.93l.08.12c-1.34,1.32-2.17,2.52-4.55,5.07,1.57-1.77,3.02-1.06,1.96.73l.04.04c-1.01,1.23-2.36,3.02-5.76,6.89h.1c.14.61-.16,1.33-.69,1.67l.69-.69.55.81c-.22-1.15-17.69,20.67-17.16,14.54l-.06-.08c1.19-1.31,2.09-2.64,4.8-5.69-3.85,2.83-13.03,15.8-13.39,10.89l-.08-.1c.63-.58,1.21-1.45,2.08-2.44-11.71,12.66-8.74,4.61-1.59-2.16-10.53,10.62-10.75,10.62-11.28,10.62-1.92-3.77,4.27-6.1,14.1-18.22-6.59,6.75-18.97,18.88-19.37,19.18l-.06-.04c-1.41,1.1-2.22.3-1.28-1.12l-.06-.08c.33-.24.74-.81,1.12-1.26-1.55,1.59-2.46,2.24-3.37,3.28l-.1-.08c-1.27,1.05-2.25.01-1.25-1.23l-.04-.04c1-1.02,1.89-2.15,4.21-4.51-3.77,3.82-5.16,5.04-6.33,6.32l-.04-.04c-.98,1.07-2.32.18-1.35-1.12l-.08-.1c1.31-1.5,8.8-9.71,15.39-16.69-19.94,19.19-17.84,20.17-20.51,17.92-7.88,2.75,16.16-19.74,20.55-25.18-20.5,20.52-23.47,24.34-26.72,26.38l.12-.22ZM286.75,166.59c-.1.12-.2.22-.32.33.12-.09.24-.3.32-.33Z"/>
      <path d="M222.14,105.01c-40.98-16.61-53.31,42.96-37.98,71.72,1.53.19,3.06.36,4.65.39.24.8.52,1.59.8,2.37,42.54,10.44,45.08-49.47,32.51-74.49h.02ZM220.63,107.01c.57,1.16,1.06,2.35,1.51,3.57-.41-.06-.82-.1-1.21-.15-.2-1.14-.45-2.3-.73-3.43h.45l-.02.02ZM185.26,170.79c-5.49-16.21-4.55-36.94,3.53-51.96-7.22,13.39-6.84,37.36-1.84,52.12-.58-.04-1.13-.11-1.69-.16ZM219.04,110.21c-.8-.06-1.61-.1-2.41-.1-.31-1.04-.67-2.06-1.08-3.08.73-.04,1.47-.06,2.24-.08.45,1.06.89,2.14,1.26,3.26ZM225.65,126.57v-.57.57ZM225.28,134.26c-1.36,11.82-2.76,24.23-11.12,32,9.51-15.61,8.13-35,7.23-52.57.61.08,1.22.17,1.84.29,1.84,6.63,2.22,13.43,2.06,20.27h-.02ZM213.48,108.74c.26.45.49.9.73,1.36-6.9-.49-13.24,1.67-18.14,5.65,4.21-5.08,10.67-7.66,17.43-7.03l-.02.02ZM199.24,172.48c1.1-.16,2.15-.39,3.19-.69-.97.5-2.13.49-3.19.69ZM218.81,130.63c.96,18.59-6.25,40.52-28.25,40.36-4.66-21.16-1.98-54.59,25.22-57.24,2.04,5.36,3.03,11.17,3.02,16.9l.02-.02ZM189.97,170.98h-.31c-.43-1.26-.82-2.55-1.14-3.85.43,1.3.94,2.58,1.45,3.85ZM193.65,172.69c.7.04,1.39.06,2.1.06-.96.02-1.9,0-2.86-.04h.77v-.02ZM197.79,172.63c-.15,0-.33.02-.49.04.15,0,.33-.02.49-.04ZM220.42,140.23c-.29-8.98-.37-17.86-2.55-26.68.68-.04,1.39-.06,2.1-.04,2.17,8.8,1.91,17.77.43,26.72h.02ZM225.53,123.11c.06.9.08,1.83.1,2.75-.02-.92-.06-1.83-.1-2.75ZM189.4,174.91c.16,0,.33.04.49.06.04.16.08.34.14.49-.16,0-.32.02-.47.04-.06-.19-.12-.39-.16-.59ZM185.05,175.54c-2.57-5.28-3.71-11.15-4.16-17.02.67,4.59,1.76,9.11,3.45,13.48,2.69.02,3.74.89,4.02,3.59-1.1.04-2.22.04-3.31-.04v-.02ZM218.91,167.19c-6.26,8.73-17.81,12.63-28.33,11.19-.15-.39-.29-.8-.45-1.22,25.26,3.35,37.75-19.36,37.53-41.75-.3,10.91-2.54,22.82-8.72,31.8l-.02-.02Z"/>
      <path id="Outside_Line" data-name="Outside Line" d="M211.67,232.42s0-.3.04-.49c98.18,9.84,112.17-132.64,32.29-167.34,0,0-.02.04-.06.08C94.27-7.31,57.73,223.1,211.67,232.42ZM118.7,107c2.72-12.06,9.13-22.12,18.39-29.66-20.74,21.36-22.75,57.01-16.47,85.35-6.3-17.67-6.16-37.59-1.94-55.69h.02ZM259.63,80.59c-1.55-1.26-3.12-2.51-4.71-3.77,1.26.91,3.39,2.43,4.71,3.77ZM243.95,69.39s.06-.06.08-.08c10.72,8.55,24.32,16.56,31.76,28.48-17.22-15.99-36.92-33.11-60.53-38.92,10.06,1.82,20.69,3.9,28.66,10.56l.02-.04ZM288.47,121.54c4.69,24.32,2.74,52.37-11.9,72.86,15.46-26.48,16.7-64.46,2.39-92.37,4.49,5.83,7.9,12.32,9.53,19.51h-.02ZM170.22,216.66c-1.37-.92-2.71-1.9-4-2.94,4.43,2.49,9,4.85,13.72,6.73-3.35-.98-6.61-2.24-9.72-3.77v-.02ZM167.81,62.14c12.27-3.08,25.61-3.8,38.82-2.47-30.38-3.22-62.14,8.61-76.11,35.23,8.04-15.6,21.09-26.9,37.3-32.76ZM238.35,71.19s.06-.08.06-.1c92.44,46.31,36.7,183.84-63.08,143.32-104.66-45.49-40.05-192.93,63-143.2l.02-.02ZM286.55,138.48c-1.2-31.46-22.28-52.97-47.96-68.43,4.43,2.14,8.63,4.77,12.41,7.93,0,0,.04-.04.08-.1,22.3,13.85,37.05,33.47,35.47,60.59ZM139.71,77.61c-3.45,3.61-6.53,7.62-9.2,12.01,2.63-4.42,5.71-8.42,9.2-12.01ZM129.48,91.39c.27-.49.55-.98.84-1.47-.29.47-.57.98-.84,1.47ZM203.77,227.43c31.01.82,65.08-9.65,79.31-37.18-15.1,30.73-47.53,40.89-79.31,37.16v.02ZM283.81,107.88c.22.49.41,1.02.63,1.53-3.64-6.07-8.1-11.7-12.37-17.41,5.26,4.24,9.11,9.66,11.76,15.88h-.02ZM188.16,55.08c-10.34.61-20.01,2.96-29.59,6.11,11.14-4.5,23.63-6.52,36.41-6.42-2.29.04-4.57.14-6.82.29v.02ZM114.64,139.69c-.51-6.85-.35-13.6.49-20.14-3.62,29.21,5.37,60.06,28.33,79.5-.82-.55-1.33-.88-1.28-.84-18.97-12.64-26.68-36.47-27.55-58.52Z"/>
      <path id="White_Part" data-name="White Part" class="cls-2" d="M250.75,76.78c55.61,69.64-14.82,164.82-98.74,124.93C58.7,136.51,162.34,2.9,250.75,76.78ZM215.07,165.98c23.97-28.05-.62-103.41-43.48-64.68-25.01,29.49,1.03,102.41,43.46,64.64"/>
    </g>
    <path id="Board-2" data-name="Board" d="M1035.86,669.99l.22.44c-89.16-6.22-185.02-3.04-273.56-1.11-.22-17.69,0-37.15-.66-55.06v1.1c-.06-99.82-2.85-211.26.22-302.53.36.82,15.69-.45,16.58-.44-1.1,1.33,12.61,1.11,5.31,1.99,50.74-3.86,101.18-2.19,153.03-5.75l-.88-.44c35.63-1.96,76.34-7.51,110.35-10.84-3.54-1.32,13.27-1.77,6.63-2.87-9.07-1.99-9.51-.22-17.25-1.99l.22.44c-89.98-6.75-186.71-2.07-275.99-1.55-.22-1.55-.22-2.65-.22-3.1l.22,1.55c5.24-39.21,2.59-82.58,3.32-120.53-1.32-.22.22,6.19-1.55,6.41.09-21.14,3-44.3,3.32-64.8l1.33-.44c-.71-7.5,1.64-10.42.44-17.92,1.33,0,0-5.97,1.11-5.53-.24-5.1-3.38-30.86-5.53-31.84v-3.76.44c.12-.65-.56-6.39,1.33-4.2-.44-2.21-.67-4.42-.44-6.63-.88,5.97-1.99,13.27-3.32,19.46-.26-11.34,2.19-22.72,1.99-34.94.44,2.43.22,4.86.22,7.52,2.01-4.41.58-10.55.88-17.03.87,1.27,1.07-1.91.67-2.88,0,.22.22.67.22.88.21-1.13,1.01-5.84-.22-4.86-.22-.22-.44.22-.67.66-1.63-5.51-1.56-11.28-2.65-8.84-.57-1.26-1.45-.23-.89.88-.22,9.07-6.85-7.96-7.3,2.43,2.83-7.03.92,18.3-.22,19.24-.81,4.52,3.63,23.2-2.87,21.67.22-5.53,1.77,2.21,1.55-3.76-1.77,2.44-.44-5.08-1.77-6.19-.66,1.77-.66,5.53-.66,8.84l.22-.66c.22,2.88.67,8.4-.22,11.28-.67-.67-1.11.66-1.11-1.33-.05.16-.45,6.07.22,3.54-1.04,5.37,2.73,23.11,1.55,27.64-3.58-46.43-.59,8.34,1.11,17.25-.22,3.54-1.11-1.11-1.77,1.33-.57,5.96-.68,15.2.44,21.89-.28-1.31-3.17-4.79-1.99-7.74-.22-.44-.44-3.54-1.1-3.32-.8,3.82.62,8.05-.22,11.94h.22c-3.38,1.35.33,12.89-.67,20.12,2.41,3.93-4.23,23.76.88,19.68l-.22,5.08c-2.21-4.64-1.99,9.51-4.2,4.42-1.89,3.07,4.08,19.5-1.55,18.8.12,6.6-3.16,18.09.22,22.78,0,5.08-.88,5.08-1.99,4.42l-.22,3.98c0-13.27.44-26.98.88-40.69-4.2,29.64-7.74,64.8,1.11,87.8-2.65,1.32-4.42,10.39-5.31,18.58-16.59,0-34.28,0-50.86.66h1.1c-99.72.06-211.15,2.85-302.31-.22-.22-1.77-.22-2.88-.22-3.54l.22,1.55c5.24-39.21,2.59-82.57,3.32-120.53-1.32-.22.22,6.2-1.55,6.41.09-21.13,3-44.3,3.32-64.79l1.33-.44c-.71-7.5,1.64-10.42.44-17.91,1.32,0,0-5.97,1.1-5.53-.23-5.1-3.38-30.86-5.53-31.84v-3.76.44c.12-.64-.56-6.4,1.33-4.2-.44-2.21-.66-4.42-.44-6.64-.88,5.97-1.99,13.27-3.32,19.46-.26-11.34,2.2-22.72,1.99-34.94.44,2.44.22,4.87.22,7.52,2.01-4.41.57-10.55.88-17.03.86,1.27,1.07-1.91.66-2.88,0,.22.22.66.22.88.21-1.13,1-5.84-.22-4.87-.22-.22-.44.22-.66.66-1.64-5.5-1.56-11.28-2.65-8.84-.57-1.25-1.45-.23-.89.88-.22,9.07-6.86-7.96-7.3,2.43,2.82-7.03.92,18.3-.22,19.24-.81,4.53,3.64,23.2-2.87,21.68.22-5.53,1.77,2.21,1.55-3.76-1.77,2.43-.44-5.09-1.77-6.19-.66,1.77-.66,5.53-.66,8.84l.22-.66c.22,2.87.66,8.4-.22,11.28-.66-.66-1.11.66-1.11-1.32-.05.16-.45,6.07.22,3.54-1.04,5.37,2.73,23.11,1.55,27.64-3.58-46.42-.58,8.34,1.11,17.25-.22,3.54-1.11-1.11-1.77,1.32-.56,5.96-.68,15.2.44,21.89-.28-1.3-3.17-4.79-1.99-7.74-.22-.44-.44-3.54-1.11-3.32-.8,3.83.63,8.05-.22,11.94h.22c-3.38,1.35.33,12.89-.66,20.13,2.41,3.93-4.23,23.77.88,19.68l-.22,5.09c-2.21-4.64-1.99,9.51-4.2,4.42-1.89,3.06,4.08,19.52-1.55,18.8.13,6.6-3.16,18.1.22,22.78,0,5.09-.88,5.09-1.99,4.42l-.22,3.98c0-13.27.44-26.98.88-40.69-4.2,29.63-7.74,64.8,1.11,87.79-2.88,1.55-4.64,12.16-5.53,20.79-38.03-5.5-81.21-2.44-118.09-3.32-.22,1.33,6.19-.22,6.41,1.55-21.13-.09-44.3-3-64.8-3.32l-.44-1.32c-7.5.7-10.42-1.63-17.91-.44,0-1.32-5.97,0-5.53-1.11-5.1.24-30.86,3.39-31.84,5.53h-3.76.44c-.64-.12-6.4.56-4.2-1.32-2.21.44-4.42.66-6.63.44,5.97.88,13.27,1.99,19.46,3.32-11.34.26-22.72-2.2-34.94-1.99,2.43-.44,4.86-.22,7.52-.22-4.41-2.01-10.55-.58-17.03-.88,1.27-.86-1.91-1.07-2.88-.66.22,0,.66-.22.88-.22-1.14-.21-5.84-1.01-4.87.22-.22.22.22.44.67.66-5.51,1.64-11.28,1.56-8.85,2.65-1.25.57-.23,1.45.88.89,9.07.22-7.96,6.86,2.43,7.3-7.02-2.82,18.3-.92,19.24.22,4.52.81,23.2-3.64,21.67,2.87-5.53-.22,2.21-1.77-3.76-1.55,2.43,1.77-5.08.44-6.19,1.77,1.77.67,5.53.67,8.84.67l-.66-.22c2.88-.22,8.4-.66,11.28.22-.66.66.67,1.11-1.32,1.11.16.04,6.07.45,3.54-.22,5.38,1.04,23.11-2.73,27.64-1.55-46.43,3.58,8.33.59,17.25-1.1,3.54.22-1.11,1.1,1.32,1.77,5.96.56,15.2.68,21.89-.44-1.3.28-4.79,3.18-7.74,1.99-.44.22-3.54.44-3.32,1.11,3.83.8,8.05-.62,11.94.22v-.22c1.35,3.37,12.89-.33,20.13.66,3.93-2.41,23.76,4.23,19.68-.88l5.08.22c-4.64,2.21,9.51,1.99,4.42,4.2,3.06,1.89,19.51-4.09,18.8,1.55,6.6-.12,18.09,3.15,22.78-.22,5.08,0,5.08.88,4.42,1.99l3.98.22c-13.27,0-26.98-.44-40.69-.88,29.64,4.2,64.8,7.74,87.8-1.1,1.32,2.21,8.84,3.98,16.14,5.08,6.28,77.93-1.67,173.27-3.1,254.32q.44-5.97.88-11.94c1.33,15.04,2.44,28.75,3.32,42.02.66-2.43,1.32-2.65,2.21-8.18-.58,9.51,1.98,23.93,2.21,33.84-1.11-1.33-1.33,3.76-1.33,8.4l.67-1.77c-.22,11.28,0,23.88.22,35.6-2.65.22-4.86.44-5.53.44l1.55-.22c-39.21-5.24-82.58-2.59-120.53-3.32-.22,1.32,6.19-.22,6.41,1.55-21.14-.09-44.3-3-64.8-3.32l-.44-1.33c-7.5.71-10.42-1.64-17.92-.44,0-1.33-5.97,0-5.53-1.11-5.1.24-30.86,3.38-31.84,5.53h-3.76.44c-.64-.12-6.39.56-4.2-1.33-2.21.44-4.43.67-6.64.44,5.97.88,13.27,1.99,19.46,3.32-11.34.26-22.72-2.19-34.94-1.99,2.43-.44,4.86-.22,7.52-.22-4.42-2.01-10.55-.58-17.03-.88,1.27-.87-1.91-1.07-2.88-.67.22,0,.67-.22.88-.22-1.13-.21-5.84-1.01-4.86.22-.22.22.22.44.66.67-5.51,1.63-11.28,1.56-8.84,2.65-1.26.57-.23,1.45.88.89,9.07.22-7.96,6.85,2.43,7.3-7.03-2.83,18.3-.92,19.24.22,4.52.81,23.2-3.63,21.67,2.87-5.53-.22,2.21-1.77-3.76-1.55,2.44,1.77-5.08.44-6.19,1.77,1.77.66,5.53.66,8.84.66l-.66-.22c2.88-.22,8.4-.67,11.28.22-.67.67.66,1.11-1.33,1.11.16.05,6.07.45,3.54-.22,5.37,1.04,23.11-2.73,27.64-1.55-46.43,3.58,8.34.58,17.25-1.11,3.54.22-1.11,1.11,1.33,1.77,5.96.57,15.2.68,21.89-.44-1.31.28-4.79,3.17-7.74,1.99-.44.22-3.54.44-3.32,1.1,3.82.8,8.05-.62,11.94.22v-.22c1.35,3.38,12.89-.33,20.13.67,3.93-2.41,23.76,4.23,19.68-.88l5.08.22c-4.64,2.21,9.51,1.99,4.43,4.2,3.06,1.89,19.5-4.09,18.8,1.55,6.6-.12,18.09,3.16,22.78-.22,5.08,0,5.08.88,4.42,1.99l3.98.22c-13.27,0-26.98-.44-40.69-.88,29.64,4.2,64.8,7.74,87.8-1.11,1.55,2.88,12.16,4.64,20.79,5.53l.66,12.38c-1.32-1.1-1.1,12.61-1.99,5.31,3.85,50.74,2.19,101.18,5.75,153.03l.44-.88c1.96,35.63,7.51,76.33,10.84,110.35,1.32-3.54,1.77,13.27,2.88,6.63,1.99-9.07.22-9.51,1.99-17.25l-.44.22c5.84-88.15,3.69-183.12.88-270.68,79.58-7.18,175.82,1.3,258.52,2.65q-5.97-.44-11.94-.88c15.04-1.33,28.75-2.43,42.01-3.32-2.43-.67-2.65-1.33-8.18-2.21,9.51.58,23.93-1.98,33.84-2.21-1.32,1.1,3.76,1.32,8.4,1.32l-1.77-.66c11.5.22,24.33,0,36.27-.22-.98,2.8,0,15.76.22,18.8-1.33-1.1-1.11,12.61-1.99,5.31,3.86,50.74,2.19,101.18,5.75,153.03l.44-.88c1.96,35.63,7.51,76.33,10.84,110.35,1.33-3.54,1.77,13.27,2.88,6.63,1.99-9.07.22-9.51,1.99-17.25l-.44.22c6.75-89.98,2.07-186.71,1.55-275.99.22.85,15.62-.5,16.36-.44-1.11,1.33,12.6,1.11,5.31,1.99,50.74-3.85,101.19-2.19,153.03-5.75l-.88-.44c35.63-1.96,76.33-7.51,110.35-10.84-3.54-1.33,13.27-1.77,6.64-2.88-8.63-1.55-9.07,0-16.81-1.55ZM76.08,295.37c-1.1,0-.88-.44.22-.88.22.22.22.66-.22.88ZM83.38,292.05c.22,0,.67-.22.88-.22-1.1-.44-4.64-.22-6.63-.22,0,.44.66.44.66.66-2.14.35-4.88.91-7.08.44.44-.22,1.55,0,2.21,0-2.49-.3,11.23-3.4,11.72-1.11.46-.31,1.48-.11,1.99,0-1.11.22-2.43.44-3.76.44ZM76.08,672.64c-1.1,0-.88-.44.22-.88.22.22.22.66-.22.88ZM83.38,669.32c.22,0,.67-.22.88-.22-1.1-.44-4.64-.22-6.63-.22,0,.44.66.44.66.66-2.14.35-4.88.91-7.08.44.44-.22,1.55,0,2.21,0-2.49-.3,11.23-3.4,11.72-1.11.46-.31,1.48-.11,1.99,0-1.11.22-2.43.44-3.76.44ZM760.97,1.24c.22.44,0,1.55,0,2.21.3-2.49,3.39,11.23,1.11,11.72.3.46.11,1.48,0,1.99-.22-.66-.44-2.21-.44-3.54,0,.22.22.66.22.88.44-1.11.22-4.64.22-6.64-.44,0-.44.66-.67.66-.34-2.15-.94-5.12-.44-7.3ZM759.2,6.55c-.22.22-.66.22-.88-.22.22-1.11.44-.88.88.22ZM383.7,1.24c.22.44,0,1.55,0,2.21.3-2.49,3.39,11.23,1.11,11.72.3.46.11,1.48,0,1.99-.22-.66-.44-2.21-.44-3.54,0,.22.22.66.22.88.44-1.11.22-4.64.22-6.64-.44,0-.44.66-.67.66-.34-2.15-.94-5.12-.44-7.3ZM381.93,6.55c-.22.22-.66.22-.88-.22.22-1.11.44-.88.88.22ZM684.01,669.1h1.11c-98.64.39-209.83,2.14-299.88.22-.22-17.69,0-37.37-.66-55.29v1.11c-.34-97.35-2.2-208.61-.22-297.22,79.58-7.18,175.82,1.29,258.52,2.65q-5.97-.44-11.94-.88c15.04-1.33,28.75-2.43,42.01-3.32-2.43-.67-2.65-1.33-8.18-2.21,9.51.58,23.93-1.98,33.84-2.21-1.32,1.11,3.76,1.33,8.4,1.33l-2.21-.44c9.73.22,20.35,0,30.52,0,7.66,80.18-1.14,176.76-2.43,260.07q.44-5.97.88-11.94c1.32,15.04,2.43,28.75,3.32,42.02.66-2.43,1.33-2.65,2.21-8.18-.58,9.51,1.98,23.93,2.21,33.84-1.11-1.33-1.32,3.76-1.32,8.4l.66-1.77c-.22,10.61,0,22.33.22,33.39-18.36,0-38.7,0-57.06.44Z"/>
    <g id="Letter_X3">
      <path id="Black_Part2" data-name="Black Part2" d="M251.15,927.29c-2.41-1.03.48-3.3,1.64-6.53-2.76,3.74-3.07,7.91-5.32,5.78-.57.6-1.81.19-1.42-.91-.73,1.18-2.46.6-1.66-.95h-.02c.13-.24.26-.54.41-.85-.54,1.65-2.98,2.96-2.31.33-.62,1.42-2.63,1.19-1.82-.65h-.04c.5-1.1,1.1-2.43,2.55-5.13-1.8,3.12-2.65,4.58-3.12,5.29-5.2.75,5.66-13.43,7.25-18.54-9.23,18.26-17.26,25.79-5.22,3.41-9.05,14.52-6.9,14.89-9.78,13.33-.44.42-1.41.16-1.52-.43-.84.34-1.87.06-1.16-1.4l-.08-.08c1.1-2.01,5.21-10.03,7.69-14.61-2.63,3.41-8.37,17.95-9.29,12.35l-.04-.04c.45-1.08,4.66-9.36,6.96-13.67-.87.82-8.79,17.7-8.58,11.11l-.06-.04c.72-1.33,1.75-3.47,3.18-6.15-3.1,5.26-3.26,5.33-3.58,5.4-.85.05-1.44-.1-.93-1.52l-.08-.08c1.31-2.6,2.99-6.36,8.56-16.94-5.47,9.59-6.95,11.93-8.77,15.19l-.08-.04c-.63,1.17-2.27.58-1.54-.85l-.1-.06s.24-.37.54-.91c-.69,1.23-2.25.73-1.6-.83l-.08-.04c.04-.05.29-.52.36-.71-.71.95-2.3.32-1.5-1.12h-.04c.17-.3.31-.68.54-1.08-3.67,1.38-2.65.89,3.69-12.09-5.61,9.82-5.79,9.86-6.26,10-.89.05-1.53-.16-.91-1.6l-.04-.04c2.58-5.26,8.52-16.16,12.47-23.65-4.11,5.49-13.26,27-14.29,21.16l-.14-.08s.16-.26.37-.63c-4.07,2.79,45.69-87.62,52.08-89.96-.97,2.46-3.51,7.24-11.39,21.26.5.31.77.31.36,1.46l.1.08c-1.56,3.01-7.66,14.68-10.95,20.77.84-1.53,2.63-1.24,1.8.67l.06.06c-.57,1.29-8.42,16.45-11.84,22.92,2.92-2.43,10.38-23.97,13.89-20.43-.1.14-.38.74-.51,1.03.76-1.26,2.4-.84,1.64.87l.06.06c-.16.19-.37.68-.5.99.6-1.45,2.33-1.05,1.7.61l.08.06s-.25.41-.32.59c4.68.53-6.37,14.34-8,19.72,3.13-5.51,7.52-12.97,9.72-16.9l.14.08c.88-1.35,2.1-.26,1.54.87h.04c-.75,1.4-2.74,5.24-4.05,7.71,2.12-3.87,5.77-10.21,5.49-5.49h.02c-.86,1.99-4.22,8.29-6.01,11.73,7.19-11.56,6.16-12.7,7.71-9.15-.3.9-1.01,2.29-2.25,4.77,2.76-4.87,3.5-5.28,3.97-2.74.78.04,1.34.15.85,1.48,3.13,1.99-4.84,11.4-6.5,16.45,8.98-14.4,7.58-15.84,9.41-12.05-.84,1.77-2.11,4.71-5.69,11.64,6.01-10.43,6.18-10.47,6.64-10.61,1.92.3,1.7.15-.83,5.29,2.34-4.06,3.63-4.22,3.22-1.58l.04.04c-.03.06-.18.24-.2.36,1.78-1.44,1.84,1.13.85,2.37,1.03-1.72,2.35-1.03,1.78.63l.06.04s-.04.06-.08.12c.8-.26,1.64-.04,1.14,1.3,2.99.64-.43,3.58-1.76,7.22,3.16-7.11,6.3-5.57,2.21.79.86-1.97,3.65-6,3.46-2.35l.14.08s-.56.88-.71,1.3c.54-1.4,2.64-1.48,1.86.51l.08.06c-.87,1.55-1.42,3.09-3.26,6.69.72-1.15,4.58-9.31,4.8-4.67l.12.06c-.89,1.7-1.24,2.9-2.88,6.23,1.22-2.38,4.46-8.24,4.43-3.8l.06.04c-.61,1.17-1.7,3.81-3.12,6.73,1.35-2.42,4.74-8.85,4.76-4.58.81.03,1.37.18.91,1.48l.08.06c-.51.92-.76,1.82-1.54,3.43.71-1.8,3.03-4.63,3.04-1.62.81.14,1.3.23.79,1.6h.02c-.07.1-.15.27-.2.41.83-.57,1.96-.27,1.38,1.3h.04c-.31.88-.64,1.95-1.38,3.92,2-4.08,3.41-3.9,3.08-1.26,1.81-.6,1.44,1.41.85,2.74,1.85-1.84,2.27-1.09,1.5,3.24,1.74-3.18,2.62-.52,2.59,1.74.87-1.19,1.76.17,1.98,1.16,2.14.53-.66,3.98-1.49,1.71-1.16,1.82-2.29,1.77-2.43-1.93-2.43,5.51-4.34,4.14-3.08-.61-2.09,4.26-5.23,6.98-3.84,2.29-1.95,3.62-2.72,3.97-3.24,1.85-3.25,4.37-2.15-1.93-.63-4.32-4.13,7.07-3.96,7.88-5.08,4.93-1.38,2.17-1.22,2.18-2.51,1.46-.76,1.2-2.3.79-1.62-.91l-.06-.04c.37-.6.5-1.28,1.01-2.31-3.15,4.81-2.11,5-4.11,3.91-.61,1.37-2.46,1-1.74-.73h-.02c.48-1.13,1.12-2.67,2.63-5.84-2.45,4.41-6.1,11.18-5.87,6.45l-.08-.06c.81-1.43,1.21-2.77,2.75-5.8-5.39,8.74-4.57,9.57-6.01,6.27.68-1.13.98-2.28,2.11-4.52-4.05,7.55-5.16,8.26-5.1,4.75-.46.79-.76,1.17-.99,1.64-.73,1.16-2.29.81-1.6-.83l-.12-.08c.76-1.22,1.11-2.37,2.23-4.5-2.73,3.99-2.45,5.74-4.55,6.49Z"/>
      <path id="Black_Part1" data-name="Black Part1" d="M152.55,942.87c-2.08-.42.21-2.91.89-4.6-2.46,3.46-2.07,4.15-3.64,3.81-.63-.38-1.05-.61,3.34-9.03-4.74,8.17-6.65,10.77-6.03,5.72-.54,1.63-3.08,3.29-2.41.41l-.06-.04c.3-.42.46-.96.79-1.59-.67,1.72-3.19,4.36-2.71,1.1l-.12-.08c1.15-2.83,13.59-25.07,26.56-48.24-15.78,25.76-30.07,56.18-29.43,47.39l-.1-.06c.3-.42.61-1.2.93-1.85-4.83,5.46-5.23,3.34,3.77-12.31-9.19,14.86-7.88,16.35-9.61,12.59h-.02c-.16-.27,8.95-16.44,13.46-24.4-24.39,41.25-5.82,2.19,10.53-25.33-3.02-.5-2.03-.22,15.69-33.17-.66-.2-.99-.25-.59-1.52l-.06-.04c1.07-2.35,2.86-6.19,8.44-16.89-5.35,9.01-10.51,19.76-10.4,14.04l-.04-.04c.53-1.13,2.76-5.54,4.82-9.47-3.12,5.47-6.52,12.02-6.38,7.08l-.04-.04c.74-1.45,4.3-8.48,5.81-11.34-4.14,6.64-6.91,13.68-7.47,8.8h-.02c.44-.96,2.46-4.87,3.84-7.45-3.84,6.65-4.03,6.7-4.47,6.82-.94.04-1.63-.19-.95-1.76-3.78.41,3.89-10.4,5.12-13.69-2.59,3.58-7.29,15.54-7.95,10.08-.86-.03-1.45-.12-.89-1.56l-.08-.06c.82-1.39,1.32-2.83,3.04-5.99-1.77,3.33-4.49,8.13-4.44,3.96l-.1-.08c1.32-2.39,2.3-4.73,5.77-11.23-6.98,10.99-5.67,12.07-7.49,9.03-.76-.02-1.31-.18-.89-1.4-.9.01-1.5-.15-.89-1.62l-.04-.04c.58-1.2,4.42-8.78,6.5-12.72-3.08,5.48-5.51,9.3-6.62,11.34l-.12-.06c-.92,1.3-2.06.64-1.49-.83l-.12-.08c1.27-2.32,2.46-5.07,5.69-11.28-3.14,5.57-4.33,7.33-5.65,9.76l-.14-.06c-.94,1.37-2.06.65-1.53-.77l-.1-.06c.24-.36.63-1.21.93-1.81-1.05,2.16-2.62,1.95-2.09-.02l-.1-.08c.87-1.54,1.31-2.93,2.94-6.13-1.72,3.19-4.39,8.07-4.43,3.9l-.08-.06c1.1-2.18,2.14-4.68,5.55-11.42-6.81,11.03-5.81,12.23-7.39,8.62.41-.77.71-1.68,1.48-3.22-1.91,3.6-3.17,3.71-2.93,1.22l-.08-.06c.18-.22.36-.68.51-1.04-.51,1.45-2.61.8-1.86-.69v-.02c-.87.03-1.49-.12-.97-1.56l-.04-.04c.68-1.41,1.5-3.51,3.71-8.05-1.04,1.6-5.33,10.96-5.43,5.76l-.08-.04c.68-1.35,1.87-4.3,3.4-7.56-1.75,3.14-5.11,9.47-5.1,5.07-.84,0-1.45-.17-.97-1.52l-.04-.04c.19-.3.29-.7.49-1.15-.76,1.42-2.39,1.03-1.8-.75h-.02c.41-1.21,1.04-3.07,2.53-6.94-.84,1.99-4.99,8.89-4.47,3.79-2.83.68-.61-3.3-.1-6.1-1.23,2.88-4.18,5.37-3.06.81-1.37,1.17-1.95.61-1.62-2.45-1.41,1.54-1.78-.29-2.81-2.23-2.73-1.38,1.36-4.37,2.03-.29,1.06-3.2,3.95-3.86,3,.08,2.55-4.6,3.55-4.64,3.28-1.32,2.88-4.43,4.03-3.62,1.78,3.39,4.42-7.32,3.85-8.13,5.24-5.26,4.01-5.2,2.03,2.12.06,6.29,4.84-8.5,4.88-8.52,5.38-8.66,1.17-.09,1.63.68.85,2.01,1.74-2.84,1.74-3.11,2.96-1.85.73-1.5,2.35-1.22,1.82.49l.12.06c-.76,1.48-1.13,2.83-2.57,5.91,4.48-7.79,4.66-7.85,5.06-7.95,2.88.84-.53,3.95-1.96,8.21,5.74-9.2,4.49-10,6.54-7.93.93-1.85,2.61-1.55,1.98.36l.08.06c-.08.09-.37.59-.43.83,1.98-3.71,3.02-3.77,2.94-1.34l.08.06c-.61,1.07-.91,2.06-1.91,4.03,3.38-5.9,3.46-5.94,3.83-6.03.84-.04,1.44.11.99,1.5l.06.04c-.8,1.82-1.83,4.26-4.86,10.38,5.12-8.05,7.38-15.49,8.54-10.97l.08.06c-.87,1.48-1.38,2.9-3.12,6.17,3.97-6.82,4.17-6.88,4.56-7,.87-.04,1.48.12.87,1.58l.08.08c-.36.42-.55,1.07-.91,1.73.54-.93,1.05-1.54,1.34-2.23l.08.04c.92-1.23,2.1-.59,1.46.93l.12.1c-1.38,2.45-2.35,4.86-5.89,11.61,5.02-7.62,7.01-15.16,8.48-10.99l.1.06c-.92,1.89-1.63,3.74-4.11,8.56,6.06-9.67,4.6-10.33,6.84-8.46.4-.61,1.36-.33,1.5.27.67-.57,1.77-.06,1.26,1.24l.12.08c-.92,1.7-1.38,3.17-3.22,6.69,6.01-12.08,7.06-7.32,3.54-.96,1.54-2.71,2.17-3.65,2.98-5.13l.06.04c.5-1,1.76-.65,1.76.24.79-.62,2.01-.14,1.32,1.32h.02c-.63,1.48-1.74,3.73-4.48,8.94,2.58-4.59,3.58-6.12,4.31-7.46.74-1.15,2.48-.64,1.68.93h.02s-.13.27-.18.36c3.67-.85-3,9.08-4.13,11.91,2.18-3.88,4.19-7.19,5.18-9.03l.12.04c.87-1.3,2.08-.64,1.52.79l.1.08c-1.11,2.04-4.23,8.36-6.54,12.72,11.72-22.11,8.05-7.65,2.27,1.48,1.48-1.75,6.78-14.45,7.33-9.01l.1.06c-1.43,2.9-3.04,6.43-8.66,17.18,14.42-27.01,11.28-14.09,3.4-.77,23.13-36.77-11.06,26-15.77,33.45,39.18-68.03,47.57-85.98,44.89-72.56,12.61-17.99-3.04,11.42-8.36,20.08,13.97-24.3,15.2-25.96,15.83-26.12,1.35.08,1.63.1.37,3.06.99-2.22,4-5.65,3.38-1.93l.08.08c-1.61,3.03-9.19,16.67-12.93,23.27,13.85-23.12,16.55-29.7,16.47-23.17,2.11-3.82,3.26-3.65,3.02-1.26.26-.39.73-1.22.83-1.42l.06.04c.68-1.19,2.43-.46,1.56.99h.04c-18.06,32.05-39.34,69.15-64.83,114.61,27.86-48.46,67.73-120,67.61-116.74,1.61.14,1.68.13-.14,4.02,2.59-4.36,2.77-4.42,3.04-4.5.86-.02,1.46.1.93,1.58l.04.04c-.78,1.74-2.05,4.44-5.59,10.81,13.96-23.96,9.68-9.51-1.24,7.85,19.06-33.65,18.33-25.72,2.01,3.12,12.45-20.44,15.95-29.51,16.46-23.19,12.59-7.13-27.55,53.52-32.97,65.64,11.52-19.74,26.09-45.81,37.36-65.38.59-1.1,1.67-.9,1.88.04.82-.64,2.01-.22,1.28,1.34l.04.04c-.14.83-7.78,14.54-15.36,28.01,16.9-27.44,16.67-32.7,17.98-26.41,1.22-2.39,3.21-2.35,2.31.02-15.6,29.15-40.04,71.14-58.08,103.66,10.33-14.73,64.76-120.93,61.8-100.47.74-1.92,3.68-4.76,3.03-1.28-14.56,28.46-49.3,88-68.54,122.7.24.18.33.45,0,1.4h.02c-.86,2.22-3.25,7.01-10.1,20.1l.73.5c-3.86,5.28-11.3,23.15-11.35,15.92l-.06-.06c.59-.98.93-1.94,1.9-3.75-1.9,3.42-4.32,8.41-4.63,4.34l-.1-.06c6.14-11.83,20.5-36.73,30.16-54.02-12.65,19.68-33.98,63.76-33.82,54.77-1.25,1.74-1.58,2.37-2.7,1.26-3.83,1.64-2.96.97,4.4-13-5.51,9.43-7.63,12.78-8.56,13.91-1.38,1.18-2.79.47-.91-2.37-2.67,4.33-3.77,4.34-3.32,1.62.62-1.58,2.39-4.93,6.56-12.43-7.8,12.06-7.95,15.66-10.59,14.3-.97,1.37-2.59.98-1.86-.95-1.38,2-1.9,2.96-2.9,1.54-1.56,1.83-3.21,1.19-.99-2.46-11.6,10.38,43.82-81.44,52.31-98.32-15.57,23.14-52.03,98.75-60.26,101.28,1.33-3.63,20.55-37.35,27.53-49.9-30.94,52.35-29.56,54.87-31.51,50.47h-.02c.42-1.06,1.04-2.55,2.51-5.35-3.27,4.92-3.21,6.31-5.28,7.56Z"/>
      <g class="cls-7">
        <path d="M246.07,850.92c10.87-25.48,23.3-53.49,34.94-78.8l1.82,4.14-19.33-5.68,1.46.1c-13.06,2.31-31.21,5.13-44.07,7.26l2.73-2.13c-4.62,11.12-12.08,28.34-16.88,39.31-2.17-3.75-12.76-22.03-15.14-26.12l1.48,1.15-19.11-6.41.97.08c-13.09,1.86-31.82,4.1-44.71,6.2l.85-1.97c14.86,21.68,30.14,43.06,45.69,64.24-11.81,25.35-28.33,60.56-40.36,85.4l-2.17-5.07,19.31,5.78-1.72-.12,45.14-7.53-3.16,2.39c6.33-13.83,14-30.69,20.44-44.26,2.77,4.32,16.13,25.03,19.15,29.72l-2.15-1.62,19.17,6.17-1.68-.12c11.32-1.67,34.23-4.85,45.57-6.43l-1.98,4.63c-13.28-19.85-33.61-50.47-46.27-70.31ZM246.86,850.86c15.55,20.25,37.82,50.07,53.19,70.69-22.06,2.99-49.85,13.51-71.17,2.96-1.8.86-16.36-23.79-17.59-24.81l7.29-.55c-6.6,11.05-11.29,31.97-20.33,39.84-24.85,3.21-45.41,11.07-70.27-.79,12.83-25.59,31.35-60.83,44.85-86.58l.14,1.93c-14.66-22.15-29.7-44.1-45.12-65.76,21.51-2.91,46.72-12.47,67.69-2.42.51.8,12.98,20.09,13.54,20.95l-5.73.43c3.34-8.43,10.19-25.3,13.7-33.65,19.49-7.76,50.33-11.4,70.89-1.42-12.9,25.64-27.52,53.85-41.09,79.21l.02-.02Z"/>
        <path d="M246.47,850.88l36.03-78.06.83,1.89-19.31-5.72.71.06-44.06,7.36,1.53-1.2c-.83,2.04-15.22,37.33-15.42,37.81-1.48-2.39-13.28-21.26-15.04-24.1l1.4,1.08-19.27-5.88,1.16.08-44.55,7.18,1.8-4.2c.98,1.38,44.79,63.72,45.69,64.99-12.18,24.89-29.85,59.9-42.35,85.07l-1.64-3.81,19.23,5.99-1.2-.08,45.22-7-1.92,1.44c6.3-13.69,12.81-27.32,19.19-40.99.91,1.38,15.85,24.7,17.23,26.84l-1.07-.81c19.57,9.91,41.22,1.9,63.92-.67l-.89,2.09s-47.21-69.37-47.24-69.36ZM246.47,850.88c1.24,1.71,49.53,67.95,50.66,69.52-37.65,5.36-63.85,20.48-84.21-21.8l3.89-.29c-6.69,12.33-10.59,28.66-18.81,38.99-22.44,3.24-46.28,11.38-68.72.4,12.86-25.86,29.89-61.08,42.65-86.54l.22,2.96c-2.35-3.39-44.56-64.25-46.74-67.39,17.3-2.4,53.02-11.64,69.21-1.5,1.01-.99,13.01,21.08,13.68,21.56l-4.09.31c1.42-1.18,13.25-35.15,15.83-34.59,18.74-2.7,47.42-10.28,65.6.1-.75,1.55-38.4,76.71-39.17,78.28h.02Z"/>
        <path d="M230.24,920.6c-9.51-15.13-18.89-30.32-28.5-45.39-18.98,41.88-18.99,56.04-68.62,60.61l.06.39c48.96,1.58,52.51-13.51,68.92-56.11,9.19,13.61,18.54,27.14,27.79,40.71.02,0,.34-.24.36-.21Z"/>
        <path d="M228.78,844.78c9.19-19.66,27.01-57.99,35.89-77.23l-.35-.18c-9.76,19.48-28.99,58.16-38.62,77.67,13.49,19.48,32.7,48.1,46.68,67.18-10.36,1.83-20.71,3.75-31.03,5.86-33.45,6.66,30.43-2.27,37.36-3.2-13.73-20.74-35.18-49.63-49.88-70.13l-.04.04Z"/>
        <path d="M220.54,774.51l-.35-.16c-8.38,14.46-14.61,29.82-20.5,45.36-6.94-10.77-18.7-28.85-24.88-38.16l-.34.2c6.7,11.83,18.92,33,25.76,44.73,7.67-16.98,15.43-33.91,20.31-51.97Z"/>
      </g>
      <path id="White_Part-2" data-name="White Part" class="cls-2" d="M227.22,844.94l48.32,68.58-45.46,7.18-28.18-43.04c-20.29,44.04-14.8,55.21-68.72,58.36l41.41-83.59-44.53-63.73,44.57-7.04,25.4,41.44c18.29-44.2,12.14-51.94,64.45-55.64l-37.25,77.47Z"/>
    </g>
    <g id="Letter_X1">
      <path id="Black_Part2-2" data-name="Black Part2" d="M600.64,564.57c-2.43-.62.51-3.55,1.64-6.53-2.34,3.45-3.79,8.36-5.32,5.78-.57.6-1.81.19-1.42-.91h-.02c-.71,1.21-2.45.57-1.64-.95h-.02c.13-.24.26-.54.41-.85-.54.86-1.32,2.44-2.11,1.67-.33-.2-.58-.33-.2-1.34-.62,1.42-2.63,1.19-1.82-.65h-.04c.5-1.11,1.1-2.43,2.55-5.13-1.8,3.12-2.65,4.58-3.12,5.29-6,4.14,6.19-15.54,7.25-18.54-3.56,6.21-10.93,19.19-10.81,18.3-3.58.28,2.86-8.56,5.59-14.89-8.63,14.33-7.57,15.12-9.78,13.33-.44.42-1.41.16-1.52-.43-.84.34-1.86.06-1.16-1.4l-.08-.08c1.1-2.01,5.21-10.03,7.69-14.61-2.08,2.95-9.27,18.66-9.29,12.35l-.04-.04c.45-1.08,4.66-9.37,6.96-13.67-1.36,2.4-5.77,9.95-6.92,11.99h-.04c-.76,1.3-2.28.48-1.62-.89l-.06-.04c.72-1.33,1.75-3.47,3.18-6.15-3.1,5.26-3.26,5.33-3.58,5.4-.85.05-1.44-.1-.93-1.52l-.08-.08c1.31-2.6,2.99-6.36,8.56-16.94-5.48,9.59-6.95,11.93-8.77,15.19l-.08-.04c-.63,1.17-2.28.58-1.54-.85l-.1-.06s.24-.37.54-.91c-.7,1.23-2.25.73-1.6-.83l-.08-.04s.29-.52.36-.71c-.71.95-2.3.32-1.5-1.12h-.04c.17-.3.31-.68.54-1.08-2.72,2.15-3.02.33,3.69-12.09-5.61,9.82-5.79,9.86-6.26,10-.89.05-1.53-.16-.91-1.6l-.04-.04c2.58-5.26,8.53-16.16,12.47-23.65-3.22,4.59-14.67,28.4-14.29,21.16l-.14-.08s.16-.26.37-.63c-6.16,2.67,24.04-42.39,35.75-65.44,10.08-16.99,16.25-30.51,16.29-24.51h.04c-.97,2.46-3.51,7.24-11.39,21.26.5.31.77.31.36,1.46l.1.08c-1.56,3.01-7.67,14.68-10.95,20.77.84-1.53,2.63-1.24,1.8.67l.06.06c-.57,1.29-8.42,16.45-11.84,22.92.56.2,14.12-28.12,13.84-20.47l.06.04c-.1.14-.38.74-.51,1.03.76-1.26,2.4-.84,1.64.87l.06.06c-.16.18-.37.68-.5.99.61-1.44,2.33-1.05,1.7.61l.08.06s-.24.4-.32.59c5.62-3.24-6.96,16.67-8,19.72,3.13-5.51,7.52-12.98,9.72-16.9l.14.08c.88-1.35,2.1-.26,1.54.87h.04c-.75,1.4-2.75,5.25-4.05,7.71,2.22-3.85,3.16-5.32,3.81-6.39h.02c.74-1.26,2.42-.66,1.66.91h.02c-.86,1.99-4.23,8.3-6.01,11.73,6.15-10.61,6.34-10.65,6.74-10.77,2.83.18-.17,3.51-1.28,6.39,2.35-3.94,2.55-4,2.88-4.08.76-.07,1.6.2,1.09,1.34.78.04,1.34.15.85,1.48,3.49.5-5.08,12.36-6.5,16.45,7.77-13.51,7.99-13.57,8.48-13.71.9-.02,1.44.07.89,1.62l.04.04c-.84,1.77-2.11,4.71-5.69,11.64,6.01-10.43,6.18-10.47,6.64-10.61,1.92.3,1.7.15-.83,5.29,1.82-3.04,2-3.08,2.31-3.17.88-.04,1.49.11.91,1.6l.04.04c-.03.06-.18.24-.2.36.53-.61.77-.47,1.15-.26.94.24.12,1.78-.3,2.62.97-1.72,2.4-.97,1.78.63l.06.04s-.04.06-.08.12c.8-.26,1.64-.04,1.14,1.3,3.01.11-.46,3.89-1.76,7.22,1.42-2.45,2.15-3.67,2.59-4.32v-.04c.61-.86.74-.8,1.42-.57,1.34,1.14-.79,3.12-1.8,5.72.95-1.64,1.37-2.28,1.86-3.16h.04c.66-1.14,2.24-.72,1.56.81l.14.08c.05-.06-.57.89-.71,1.3.54-1.4,2.64-1.48,1.86.51l.08.06c-.87,1.55-1.42,3.09-3.26,6.69.58-1,4.87-9.55,4.8-4.67l.12.06c-.89,1.7-1.24,2.9-2.88,6.23,1.15-2.07,2.27-3.86,2.78-4.73h.04c.8-1.31,2.27-.52,1.6.93l.06.04c-.61,1.17-1.7,3.81-3.12,6.73,1.53-2.78,2.37-3.85,3.04-5.23h.08c.86-1.33,2.13-.69,1.64.65.81.03,1.37.18.91,1.48l.08.06c-.51.92-.76,1.82-1.54,3.43.72-1.18,1.74-3.65,2.67-2.76.37.22.59.36.37,1.14.81.14,1.3.23.79,1.6h.02c-.07.1-.15.27-.2.41.83-.57,1.96-.27,1.38,1.3h.04c-.31.88-.64,1.95-1.38,3.92,1.68-2.88,1.8-2.92,2.11-3,.99-.13,1.54.41.97,1.74,1.82-.61,1.44,1.42.85,2.74,1.37-1.9,2.53-.9,1.5,3.24,1.74-3.18,2.63-.52,2.59,1.74.87-1.19,1.76.17,1.98,1.16,2.14.53-.66,3.98-1.49,1.71-1.16,1.82-2.29,1.77-2.43-1.93-2.59,5.61-4.28,4.29-3.08-.61-2.09,4.27-5.23,6.98-3.84,2.29-1.66,2.88-1.76,2.9-2.09,3-.67.08-1.41-.16-1.15-1.14-.54.88-.95,1.91-1.92,1.38-1.36-1.01.87-3.71,1.28-5.7-3.54,6.21-3.6,6.23-4.05,6.35-.81.05-1.44-.13-1.03-1.42-1.38,2.17-1.22,2.18-2.51,1.46-.76,1.19-2.3.79-1.62-.91l-.06-.04c.37-.6.5-1.28,1.01-2.31-2.95,4.7-2.42,5.07-4.11,3.91-.62,1.37-2.46,1-1.74-.73h-.02c.48-1.13,1.12-2.67,2.63-5.84-2.54,4.48-3.63,6.19-4.23,7.26h-.02c-.69,1.24-2.29.78-1.62-.81l-.08-.06c.81-1.43,1.21-2.77,2.75-5.8-4.47,7.73-4.62,7.77-5,7.87-.85.03-1.44-.09-.93-1.52l-.08-.08c.68-1.13.98-2.28,2.11-4.52-3.71,6.47-3.83,6.49-4.23,6.61-1.09.15-1.55-.58-.87-1.85-.46.79-.76,1.16-.99,1.64h-.02c-.71,1.19-2.28.78-1.58-.83l-.12-.08c.76-1.22,1.11-2.37,2.23-4.5-2.69,3.93-2.51,5.82-4.55,6.49Z"/>
      <path d="M557.32,442.83c-.72-.15-1.2-.29-.77-1.46l-.06-.04c1.34-2.79,4.92-10.11,7.02-14.28-.5-.28-.73-.33-.4-1.44l-.06-.04c.77-1.75,1.72-4.05,4.44-9.8-.33-1.44,1.84-3.62,2.06-4.44.75-1.21,1.22-.69,1.82-.16.59-1.25,2.48-1.03,1.7.75l.08.06c-.37.5-.62,1.25-1.03,2.03,2.31-3.92,2.47-3.96,2.77-4.04l.26.95-.5.85.5-.85.75.63c-1.33,1.89-13.74,23.81-17.69,30.57v.04c-.45.68-.47.59-.93.67h.04Z"/>
      <path id="Black_Part1-2" data-name="Black Part1" d="M502.04,580.15c-.79-.17-1.19-.25-.59-1.66l-.04-.06c.49-.72.76-1.55,1.52-2.88-2.46,3.47-2.07,4.15-3.64,3.81-.63-.38-1.05-.61,3.34-9.03-4.01,6.67-5.12,8.13-5.51,8.23-1.56.3-1.26-1.26-.51-2.51-.3.5-.54.85-.71,1.12,0,.04-.02.06-.04.1h-.02c-.76,1.36-2.32.82-1.64-.81l-.06-.04c.3-.42.46-.96.79-1.59-.49.88-.85,1.3-1.09,1.83h-.02c-.72,1.32-2.22.88-1.6-.73l-.12-.08s.2-.33.45-.77c1.52-3.47,6.84-13.02,22.36-40.77,1.22-2.19,2.47-4.42,3.75-6.71-15.64,25.82-30.48,56.4-29.43,47.39l-.1-.06c.3-.42.61-1.2.93-1.85-1.94,2.7-1.44,2.91-2.86,2.6-.87-.51-1.19-.69,6.64-14.91-8.04,14.01-8.2,14.05-8.64,14.16-.87.04-1.53-.16-.97-1.58h-.02c-.13-.35,8.95-16.45,13.46-24.4-10.4,18.1-10.65,18.18-11.15,18.32-4.97,1.64,10.88-22.91,21.68-43.65-3.02-.5-2.03-.22,15.69-33.17-.66-.2-.99-.25-.59-1.52l-.06-.04c1.07-2.35,2.86-6.19,8.44-16.89-5.79,10.07-7.69,13.22-8.74,14.93h-.04c-.73,1.27-2.35.67-1.62-.89l-.04-.04c.53-1.13,2.76-5.54,4.82-9.47-2.96,5.19-4.17,7.22-4.76,8.04,0,.02,0,.04-.02.04-.75,1.13-2.41.6-1.6-1l-.04-.04c.74-1.45,4.3-8.48,5.81-11.34-3.57,6.41-8.09,14.11-7.47,8.8h-.02c.44-.96,2.46-4.87,3.84-7.45-3.84,6.65-4.03,6.7-4.47,6.82-.95.04-1.63-.19-.95-1.76-3.78.41,3.9-10.41,5.12-13.69-2.24,3.38-7.9,15.83-7.95,10.08-.86-.03-1.45-.12-.89-1.56l-.08-.06c.82-1.39,1.32-2.83,3.04-5.99-1.62,2.82-2.41,4.16-2.86,4.81,0,0,0,.04-.02.04-.73,1.16-2.31.77-1.56-.89l-.1-.08c1.32-2.39,2.3-4.72,5.77-11.23-5.91,10.2-6.13,10.24-6.48,10.34-.75.06-1.41-.1-1.01-1.3-.76-.02-1.31-.18-.89-1.4-.9.01-1.5-.15-.89-1.62l-.04-.04c.58-1.19,4.43-8.78,6.5-12.72-3.08,5.48-5.51,9.3-6.62,11.34l-.12-.06c-.87,1.31-2.1.59-1.49-.83l-.12-.08c1.27-2.32,2.46-5.07,5.69-11.28-3.14,5.57-4.33,7.33-5.65,9.76l-.14-.06c-.88,1.37-2.09.6-1.53-.77l-.1-.06c.24-.36.63-1.22.93-1.81-.94,2.14-2.77,1.84-2.09-.02l-.1-.08c.87-1.54,1.31-2.93,2.94-6.13-1.59,3.11-4.79,8.18-4.43,3.9l-.08-.06c1.1-2.18,2.14-4.68,5.55-11.42-5.79,10.1-5.95,10.14-6.42,10.25-.88.03-1.48-.11-.93-1.59l-.04-.04c.41-.77.71-1.68,1.48-3.22-1.56,2.62-1.7,2.66-1.99,2.74-.85.05-1.47-.12-.93-1.52l-.08-.06c.18-.22.36-.68.51-1.04l-.16.29h-.06c-.69,1.24-2.33.17-1.64-.99v-.02c-.87.03-1.48-.12-.97-1.56l-.04-.04c.68-1.41,1.5-3.51,3.71-8.05-1.39,2.48-2.68,4.7-3.75,6.57h-.02c-.71,1.38-2.24.58-1.66-.81l-.08-.04c.68-1.35,1.87-4.3,3.4-7.56-1.94,3.42-2.72,4.55-3.44,5.86h-.04c-.68,1.15-2.26.67-1.62-.79-.84,0-1.45-.17-.97-1.52l-.04-.04c.2-.3.29-.7.49-1.15-.76,1.42-2.39,1.02-1.8-.75h-.02c.41-1.21,1.04-3.07,2.53-6.94-.9,1.62-2.23,3.87-2.87,4.97h-.04c-.95,1.56-2.49.18-1.56-1.18-2.83.68-.61-3.3-.1-6.1-1.18,1.78-1.76,3.82-2.94,3.16-.53-.29-.67-.37-.12-2.35-1.08,1.29-2.07.43-1.62-2.45-1.42,1.54-1.78-.29-2.81-2.23-2.43-.43.47-5.18,2.03-.29,1.28-3.25,3.82-4.21,3,.08,1.92-3.32,1.94-3.33,2.33-3.41,1.11.05,1.47.14.95,2.09,1.84-2.83,1.15-2.68,2.61-2.44.62.37.67.39-.83,5.83,3.7-6.47,3.76-6.49,4.21-6.61.78-.05,1.4.11,1.03,1.34,1.32-1.99.93-1.86,2.11-1.62,1.12,1.55-.9,3.91-2.06,7.91,4.84-8.5,4.88-8.52,5.38-8.66,1.17-.09,1.63.68.85,2.01,1.66-2.77,1.87-3.14,2.96-1.85.73-1.5,2.35-1.22,1.82.49l.12.06c-.76,1.48-1.13,2.83-2.57,5.91,4.48-7.79,4.66-7.85,5.06-7.95,2.89,0-.56,4.46-1.96,8.21,5.24-9.01,5.33-10.13,6.54-7.93.89-1.84,2.66-1.52,1.98.36l.08.06c-.08.08-.38.59-.43.83,1.6-2.72,1.7-2.74,1.98-2.82.84-.04,1.46.11.97,1.48l.08.06c-.61,1.07-.91,2.06-1.91,4.03,3.38-5.9,3.46-5.94,3.83-6.03.84-.04,1.44.11.99,1.5l.06.04c-.8,1.82-1.83,4.26-4.86,10.38,4.37-7.59,8.78-16.3,8.54-10.97l.08.06c-.87,1.48-1.38,2.9-3.12,6.17,3.97-6.82,4.17-6.88,4.56-7,.87-.04,1.48.13.87,1.58l.08.08c-.36.42-.55,1.07-.91,1.73.54-.93,1.05-1.54,1.34-2.23l.08.04c.86-1.24,2.13-.54,1.46.93l.12.1c-1.38,2.45-2.35,4.86-5.89,11.61,4.27-7.11,8.35-16.06,8.48-10.99l.1.06c-.92,1.89-1.63,3.74-4.11,8.56,5.56-9.46,5.43-10.5,6.84-8.46.4-.61,1.36-.33,1.5.27.67-.57,1.77-.06,1.26,1.24l.12.08c-.92,1.7-1.38,3.17-3.22,6.69,4.15-7.16,4.37-7.22,4.78-7.32,2.79.12-.17,3.57-1.24,6.35,1.54-2.71,2.17-3.65,2.98-5.13l.06.04c.5-1,1.76-.65,1.76.24.8-.62,2.01-.14,1.32,1.32h.02c-.63,1.48-1.74,3.73-4.48,8.94,2.58-4.59,3.57-6.12,4.31-7.46h.04c.7-1.21,2.45-.57,1.64.93h.02s-.06.12-.12.22c0,.04-.04.1-.06.14,3.68-.85-3,9.09-4.13,11.91,2.18-3.88,4.19-7.18,5.18-9.03l.12.04c.81-1.31,2.12-.59,1.52.79l.1.08c-1.11,2.04-4.23,8.36-6.54,12.72,6.48-11.32,6.64-11.36,7.12-11.5,3.65-.32-3.55,9.49-4.84,12.98,1.16-1.46,7.32-14.88,7.33-9.01l.1.06c-1.43,2.9-3.04,6.43-8.66,17.18,8.85-15.42,8.97-15.46,9.46-15.6,3.43-1.14-4.02,10.63-6.07,14.83,7.71-12.67,6.21-12.24,8.4-12.17,1.36,1.24-1.52,4.09-3.14,7.71-6.84,12.31-13.69,24.7-21.03,37.91,38.92-67.57,43.24-77.53,46.09-77.39.59.35.95.55-1.2,4.83,3.12-4.49,2.97-5.76,4.66-5.38,1.96-1.38-8.89,18.45-13.02,25.46,14.81-24.89,14.22-26.13,16.6-26.02.42.24.75.44-.4,2.96,1.31-1.88,1.46-2.77,2.51-3.51.88-.04,1.51.13.87,1.58l.08.08c-1.61,3.03-9.19,16.68-12.93,23.27,13.02-22.84,17.91-29.87,16.47-23.17,1.91-3.2,2.09-3.08,2.77-2.7.35.2.61.35.25,1.44.26-.39.73-1.22.83-1.42l.06.04c.68-1.19,2.43-.46,1.56.99h.04c-18.06,32.05-39.34,69.15-64.83,114.61,27.88-48.5,67.72-119.98,67.61-116.74,1.61.14,1.68.13-.14,4.02,2.59-4.36,2.77-4.42,3.04-4.5.86-.02,1.46.1.93,1.58l.04.04c-.78,1.75-2.05,4.44-5.59,10.81,7.47-12.8,7.71-12.86,8.1-12.96,3.62.06-3.13,8.75-9.35,20.81,10.49-17.95,12.76-21.28,13.38-21.46,2.79-.09-2.79,8.35-11.37,24.58,11.75-20.18,17.24-29.97,16.46-23.19,1.05-1.95,2.22-2.1,2.51-.75.38-.44.74-.43,1.19-.22-5.49,14.97-25.49,45.81-36.66,66.61,11.52-19.74,26.09-45.81,37.36-65.38h.02c.57-1.14,1.67-.87,1.86.04.83-.64,2.01-.22,1.28,1.34l.04.04c.84-1.19-8.43,15.89-15.36,28.01,15.43-26.8,16.7-28.58,17.31-28.74,1.15.02,1.57.1.67,2.33,1.16-2.39,3.31-2.27,2.31.02-15.6,29.15-40.04,71.14-58.08,103.66,13.28-22.89,54.86-96.41,60.28-104.45.52-.09,1.16.07,1.15.77,1.57-.8,2.36-.13.37,3.21.59-.96,1.03-1.63,1.36-2.09v-.04c1.02-1.61,2.35-.66,1.66.85-14.56,28.47-49.29,87.99-68.54,122.7.24.18.33.45,0,1.4h.02c-.86,2.22-3.25,7.01-10.1,20.1l.73.5c-3.54,5.63-11.73,22.55-11.35,15.92l-.06-.06c.59-.98.93-1.94,1.9-3.75-2.19,3.55-2.22,4.56-3.64,5.76-.79.05-1.49-.12-.99-1.42l-.1-.06c6.14-11.84,20.5-36.73,30.16-54.02-13.24,21.31-33.24,61.61-33.82,54.77-1.25,1.74-1.58,2.37-2.7,1.26-.74.94-.81,1.02-1.6.73-.85-.5-1.15-.67,6.01-13.73-6.14,10.18-7.09,12.53-9.17,14.42-1.42-.11-1.78-.2-.3-2.88-2.51,3.64-1.66,3.42-3.2,3.22-1.14-2.14,2.47-6.03,6.44-14.02-7.5,11.89-8.43,15.91-10.59,14.3-.97,1.37-2.59.98-1.86-.95-1.38,2-1.9,2.96-2.9,1.54-1.48,1.86-3.21,1.14-.99-2.46-17.28,22.42,47.53-89.2,52.31-98.32-14.19,24.57-51.72,90.87-58.52,102.05-.77,1.45-2.32.85-1.7-.77h-.04c1.33-3.63,20.55-37.35,27.53-49.9-30.42,52.14-30.46,55.28-31.51,50.47h-.02c.42-1.06,1.04-2.55,2.51-5.35-2.53,4.22-3.72,6.07-4.35,6.88v.04c-.49.58-.49.6-.93.63Z"/>
      <g class="cls-11">
        <path d="M595.57,488.2c10.87-25.48,23.3-53.49,34.94-78.8l1.82,4.14-19.33-5.68,1.46.1c-13.06,2.31-31.21,5.13-44.07,7.26l2.73-2.13c-4.62,11.12-12.08,28.34-16.88,39.31-2.17-3.75-12.76-22.03-15.14-26.12l1.48,1.15-19.11-6.41.97.08c-13.09,1.86-31.82,4.1-44.71,6.2l.85-1.97c14.86,21.68,30.14,43.06,45.69,64.24-11.81,25.35-28.33,60.56-40.36,85.4l-2.17-5.07,19.31,5.78-1.72-.12,45.14-7.53-3.16,2.39c6.33-13.83,14-30.69,20.44-44.26,2.77,4.32,16.13,25.03,19.15,29.72l-2.15-1.62,19.17,6.17-1.68-.12c11.32-1.67,34.23-4.85,45.57-6.43l-1.98,4.63c-13.32-19.82-33.48-50.45-46.29-70.25l.02-.06ZM596.36,488.14c15.55,20.25,37.82,50.07,53.19,70.69-13.91,2.51-36.99,6.51-50.95,8.91-1.26-.35-20.47-6.03-21.56-6.35l-.81-1.22-15.44-23.19,7.29-.55c-5.26,11.82-12.73,27.62-18.12,39.51-1.43-.04-47.47,7.64-49.19,6.96-2.91-.93-20.79-6.63-23.28-7.42,12.83-25.59,31.35-60.83,44.85-86.58l.14,1.93c-14.66-22.15-29.7-44.1-45.12-65.76,14.04-2.11,33.29-6.18,47.42-8.15,0,0,19.39,5.46,19.39,5.46l.89.26.57.89,12.97,20.06-5.73.43c3.69-9.34,10.57-26.21,14.45-35.46,13.93-2.37,32.79-4.91,46.92-7.12,2.9.91,20.65,6.7,23.22,7.51-12.9,25.64-27.52,53.85-41.09,79.21l.02-.02Z"/>
      </g>
      <g class="cls-10">
        <path d="M595.96,488.16l36.03-78.06.83,1.89-19.31-5.72.71.06-44.06,7.36,1.53-1.2c-.83,2.04-15.22,37.33-15.42,37.81-1.48-2.39-13.28-21.26-15.04-24.1l1.4,1.08-19.27-5.88,1.16.08-44.55,7.18,1.8-4.2,44.7,63.59.99,1.4c-12.18,24.89-29.85,59.9-42.35,85.07l-1.64-3.81,19.23,5.99-1.2-.08,45.22-7-1.92,1.44c6.3-13.69,12.81-27.32,19.19-40.99.91,1.38,15.85,24.7,17.23,26.84l-1.07-.81,19.19,6.11c10.73-2.13,30.87-4.63,44.73-6.78l-.89,2.09s-47.21-69.37-47.24-69.36ZM595.96,488.16l49.41,67.81,1.24,1.72c-16.08,2.63-32.28,5.79-48.34,7.97,0,0-19.31-5.78-19.31-5.78l-.67-.2-.41-.61-15.47-23.17,3.89-.29c-5.83,12.92-11.56,25.89-17.47,38.78l-1.34.21c-1.74-.02-44.63,7.75-46.38,7.2-1.96-.59-20.95-6.39-22.34-6.8,12.86-25.86,29.89-61.08,42.65-86.54l.22,2.96-44.29-63.86-2.45-3.53c1.52-.01,47.26-7.75,49.98-7.49,0,0,19.23,6,19.23,6l.91.29.48.81,12.29,20.46-4.09.31,14.31-33.41.44-1.03,1.08-.16c.88.02,44.06-6.86,44.88-6.55.96.34,20.16,6.43,20.71,6.65-.75,1.55-38.4,76.71-39.17,78.28h.02Z"/>
      </g>
      <path id="White_Part-3" data-name="White Part" class="cls-2" d="M576.71,482.22l48.32,68.58-45.46,7.18-28.18-43.04-23.52,51.2-45.2,7.16,41.41-83.59-44.53-63.73,44.57-7.04,25.4,41.44,20.34-48.68,44.11-6.96-37.25,77.47Z"/>
      <path d="M579.74,557.88c-9.51-15.13-18.89-30.32-28.5-45.39-7.19,15.23-17.72,36.65-24.78,51.83-14.7,2.45-29.33,5.27-43.84,8.78l.06.39c15.59-1.2,31.1-3.11,46.55-5.5,6.97-15.04,14.95-34,22.37-50.61,9.19,13.61,18.54,27.14,27.79,40.71l.33-.21h.02Z"/>
      <path d="M578.27,482.06c9.19-19.66,27.01-57.99,35.89-77.23l-.35-.18c-9.76,19.48-28.99,58.16-38.62,77.67,13.49,19.48,32.7,48.1,46.68,67.18-10.36,1.83-20.71,3.75-31.03,5.86-35.12,6.83,30.98-2.33,37.36-3.2-13.73-20.74-35.18-49.63-49.88-70.13l-.04.04Z"/>
      <path d="M570.03,411.79l-.35-.16c-8.38,14.46-14.61,29.82-20.5,45.36-6.94-10.77-18.7-28.85-24.88-38.16l-.34.2c6.7,11.83,18.92,33,25.76,44.73,7.67-16.98,15.43-33.91,20.31-51.97Z"/>
    </g>
    <g id="Letter_X2">
      <path id="Black_Part2-3" data-name="Black Part2" d="M961.57,227.17c-2.43-.62.51-3.55,1.64-6.53-2.34,3.45-3.79,8.36-5.32,5.78-.57.6-1.81.19-1.42-.91h-.02c-.71,1.21-2.45.57-1.64-.95h-.02c.13-.24.26-.54.41-.85-.54.86-1.32,2.44-2.11,1.67-.33-.2-.58-.33-.2-1.34-.62,1.42-2.63,1.19-1.82-.65h-.04c.5-1.11,1.1-2.43,2.55-5.13-1.8,3.12-2.65,4.58-3.12,5.29-6,4.14,6.19-15.54,7.25-18.54-3.56,6.21-10.93,19.19-10.81,18.3-3.58.28,2.86-8.56,5.59-14.89-8.63,14.33-7.57,15.12-9.78,13.33-.44.42-1.41.16-1.52-.43-.84.34-1.86.06-1.16-1.4l-.08-.08c1.1-2.01,5.21-10.03,7.69-14.61-2.08,2.95-9.27,18.66-9.29,12.35l-.04-.04c.45-1.08,4.66-9.37,6.96-13.67-1.36,2.4-5.77,9.95-6.92,11.99h-.04c-.76,1.3-2.28.48-1.62-.89l-.06-.04c.72-1.33,1.75-3.47,3.18-6.15-3.1,5.26-3.26,5.33-3.58,5.4-.85.05-1.44-.1-.93-1.52l-.08-.08c1.31-2.6,2.99-6.36,8.56-16.94-5.48,9.59-6.95,11.93-8.77,15.19l-.08-.04c-.63,1.17-2.28.58-1.54-.85l-.1-.06s.24-.37.54-.91c-.7,1.23-2.25.73-1.6-.83l-.08-.04s.29-.52.36-.71c-.71.95-2.3.32-1.5-1.12h-.04c.17-.3.31-.68.54-1.08-2.72,2.15-3.02.33,3.69-12.09-5.61,9.82-5.79,9.86-6.26,10-.89.05-1.53-.16-.91-1.6l-.04-.04c2.58-5.26,8.53-16.16,12.47-23.65-3.22,4.59-14.67,28.4-14.29,21.16l-.14-.08s.16-.26.37-.63c-6.16,2.67,24.04-42.39,35.75-65.44,10.08-16.99,16.25-30.51,16.29-24.51h.04c-.97,2.46-3.51,7.24-11.39,21.26.5.31.77.31.36,1.46l.1.08c-1.56,3.01-7.67,14.68-10.95,20.77.84-1.53,2.63-1.24,1.8.67l.06.06c-.57,1.29-8.42,16.45-11.84,22.92.56.2,14.12-28.12,13.84-20.47l.06.04c-.1.14-.38.74-.51,1.03.76-1.26,2.4-.84,1.64.87l.06.06c-.16.18-.37.68-.5.99.61-1.44,2.33-1.05,1.7.61l.08.06s-.24.4-.32.59c5.62-3.24-6.96,16.67-8,19.72,3.13-5.51,7.52-12.98,9.72-16.9l.14.08c.88-1.35,2.1-.26,1.54.87h.04c-.75,1.4-2.75,5.25-4.05,7.71,2.22-3.85,3.16-5.32,3.81-6.39h.02c.74-1.26,2.42-.66,1.66.91h.02c-.86,1.99-4.23,8.3-6.01,11.73,6.15-10.61,6.34-10.65,6.74-10.77,2.83.18-.17,3.51-1.28,6.39,2.35-3.94,2.55-4,2.88-4.08.76-.07,1.6.2,1.09,1.34.78.04,1.34.15.85,1.48,3.49.5-5.08,12.36-6.5,16.45,7.77-13.51,7.99-13.57,8.48-13.71.9-.02,1.44.07.89,1.62l.04.04c-.84,1.77-2.11,4.71-5.69,11.64,6.01-10.43,6.18-10.47,6.64-10.61,1.92.3,1.7.15-.83,5.29,1.82-3.04,2-3.08,2.31-3.17.88-.04,1.49.11.91,1.6l.04.04c-.03.06-.18.24-.2.36.53-.61.77-.47,1.15-.26.94.24.12,1.78-.3,2.62.97-1.72,2.4-.97,1.78.63l.06.04s-.04.06-.08.12c.8-.26,1.64-.04,1.14,1.3,3.01.11-.46,3.89-1.76,7.22,1.42-2.45,2.15-3.67,2.59-4.32v-.04c.61-.86.74-.8,1.42-.57,1.34,1.14-.79,3.12-1.8,5.72.95-1.64,1.37-2.28,1.86-3.16h.04c.66-1.14,2.24-.72,1.56.81l.14.08c.05-.06-.57.89-.71,1.3.54-1.4,2.64-1.48,1.86.51l.08.06c-.87,1.55-1.42,3.09-3.26,6.69.58-1,4.87-9.55,4.8-4.67l.12.06c-.89,1.7-1.24,2.9-2.88,6.23,1.15-2.07,2.27-3.86,2.78-4.73h.04c.8-1.31,2.27-.52,1.6.93l.06.04c-.61,1.17-1.7,3.81-3.12,6.73,1.53-2.78,2.37-3.85,3.04-5.23h.08c.86-1.33,2.13-.69,1.64.65.81.03,1.37.18.91,1.48l.08.06c-.51.92-.76,1.82-1.54,3.43.72-1.18,1.74-3.65,2.67-2.76.37.22.59.36.37,1.14.81.14,1.3.23.79,1.6h.02c-.07.1-.15.27-.2.41.83-.57,1.96-.27,1.38,1.3h.04c-.31.88-.64,1.95-1.38,3.92,1.68-2.88,1.8-2.92,2.11-3,.99-.13,1.54.41.97,1.74,1.82-.61,1.44,1.42.85,2.74,1.37-1.9,2.53-.9,1.5,3.24,1.74-3.18,2.63-.52,2.59,1.74.87-1.19,1.76.17,1.98,1.16,2.14.53-.66,3.98-1.49,1.71-1.16,1.82-2.29,1.77-2.43-1.93-2.59,5.61-4.28,4.29-3.08-.61-2.09,4.27-5.23,6.98-3.84,2.29-1.66,2.88-1.76,2.9-2.09,3-.67.08-1.41-.16-1.15-1.14-.54.88-.95,1.91-1.92,1.38-1.36-1.01.87-3.71,1.28-5.7-3.54,6.21-3.6,6.23-4.05,6.35-.81.05-1.44-.13-1.03-1.42-1.38,2.17-1.22,2.18-2.51,1.46-.76,1.19-2.3.79-1.62-.91l-.06-.04c.37-.6.5-1.28,1.01-2.31-2.95,4.7-2.42,5.07-4.11,3.91-.62,1.37-2.46,1-1.74-.73h-.02c.48-1.13,1.12-2.67,2.63-5.84-2.54,4.48-3.63,6.19-4.23,7.26h-.02c-.69,1.24-2.29.78-1.62-.81l-.08-.06c.81-1.43,1.21-2.77,2.75-5.8-4.47,7.73-4.62,7.77-5,7.87-.85.03-1.44-.09-.93-1.52l-.08-.08c.68-1.13.98-2.28,2.11-4.52-3.71,6.47-3.83,6.49-4.23,6.61-1.09.15-1.55-.58-.87-1.85-.46.79-.76,1.16-.99,1.64h-.02c-.71,1.19-2.28.78-1.58-.83l-.12-.08c.76-1.22,1.11-2.37,2.23-4.5-2.69,3.93-2.51,5.82-4.55,6.49Z"/>
      <path d="M918.25,105.44c-.72-.15-1.2-.29-.77-1.46l-.06-.04c1.34-2.79,4.92-10.11,7.02-14.28-.5-.28-.73-.33-.4-1.44l-.06-.04c.77-1.75,1.72-4.05,4.44-9.8-.33-1.44,1.84-3.62,2.06-4.44.75-1.21,1.22-.69,1.82-.16.59-1.25,2.48-1.03,1.7.75l.08.06c-.37.5-.62,1.25-1.03,2.03,2.31-3.92,2.47-3.96,2.77-4.04l.26.95-.5.85.5-.85.75.63c-1.33,1.89-13.74,23.81-17.69,30.57v.04c-.45.68-.47.59-.93.67h.04Z"/>
      <path id="Black_Part1-3" data-name="Black Part1" d="M862.97,242.75c-.79-.17-1.19-.25-.59-1.66l-.04-.06c.49-.72.76-1.55,1.52-2.88-2.46,3.47-2.07,4.15-3.64,3.81-.63-.38-1.05-.61,3.34-9.03-4.01,6.67-5.12,8.13-5.51,8.23-1.56.3-1.26-1.26-.51-2.51-.3.5-.54.85-.71,1.12,0,.04-.02.06-.04.1h-.02c-.76,1.36-2.32.82-1.64-.81l-.06-.04c.3-.42.46-.96.79-1.59-.49.88-.85,1.3-1.09,1.83h-.02c-.72,1.32-2.22.88-1.6-.73l-.12-.08s.2-.33.45-.77c1.52-3.47,6.84-13.02,22.36-40.77,1.22-2.19,2.47-4.42,3.75-6.71-15.64,25.82-30.48,56.4-29.43,47.39l-.1-.06c.3-.42.61-1.2.93-1.85-1.94,2.7-1.44,2.91-2.86,2.6-.87-.51-1.19-.69,6.64-14.91-8.04,14.01-8.2,14.05-8.64,14.16-.87.04-1.53-.16-.97-1.58h-.02c-.13-.35,8.95-16.45,13.46-24.4-10.4,18.1-10.65,18.18-11.15,18.32-4.97,1.64,10.88-22.91,21.68-43.65-3.02-.5-2.03-.22,15.69-33.17-.66-.2-.99-.25-.59-1.52l-.06-.04c1.07-2.35,2.86-6.19,8.44-16.89-5.79,10.07-7.69,13.22-8.74,14.93h-.04c-.73,1.27-2.35.67-1.62-.89l-.04-.04c.53-1.13,2.76-5.54,4.82-9.47-2.96,5.19-4.17,7.22-4.76,8.04,0,.02,0,.04-.02.04-.75,1.13-2.41.6-1.6-1l-.04-.04c.74-1.45,4.3-8.48,5.81-11.34-3.57,6.41-8.09,14.11-7.47,8.8h-.02c.44-.96,2.46-4.87,3.84-7.45-3.84,6.65-4.03,6.7-4.47,6.82-.95.04-1.63-.19-.95-1.76-3.78.41,3.9-10.41,5.12-13.69-2.24,3.38-7.9,15.83-7.95,10.08-.86-.03-1.45-.12-.89-1.56l-.08-.06c.82-1.39,1.32-2.83,3.04-5.99-1.62,2.82-2.41,4.16-2.86,4.81,0,0,0,.04-.02.04-.73,1.16-2.31.77-1.56-.89l-.1-.08c1.32-2.39,2.3-4.72,5.77-11.23-5.91,10.2-6.13,10.24-6.48,10.34-.75.06-1.41-.1-1.01-1.3-.76-.02-1.31-.18-.89-1.4-.9.01-1.5-.15-.89-1.62l-.04-.04c.58-1.19,4.43-8.78,6.5-12.72-3.08,5.48-5.51,9.3-6.62,11.34l-.12-.06c-.87,1.31-2.1.59-1.49-.83l-.12-.08c1.27-2.32,2.46-5.07,5.69-11.28-3.14,5.57-4.33,7.33-5.65,9.76l-.14-.06c-.88,1.37-2.09.6-1.53-.77l-.1-.06c.24-.36.63-1.22.93-1.81-.94,2.14-2.77,1.84-2.09-.02l-.1-.08c.87-1.54,1.31-2.93,2.94-6.13-1.59,3.11-4.79,8.18-4.43,3.9l-.08-.06c1.1-2.18,2.14-4.68,5.55-11.42-5.79,10.1-5.95,10.14-6.42,10.25-.88.03-1.48-.11-.93-1.59l-.04-.04c.41-.77.71-1.68,1.48-3.22-1.56,2.62-1.7,2.66-1.99,2.74-.85.05-1.47-.12-.93-1.52l-.08-.06c.18-.22.36-.68.51-1.04l-.16.29h-.06c-.69,1.24-2.33.17-1.64-.99v-.02c-.87.03-1.48-.12-.97-1.56l-.04-.04c.68-1.41,1.5-3.51,3.71-8.05-1.39,2.48-2.68,4.7-3.75,6.57h-.02c-.71,1.38-2.24.58-1.66-.81l-.08-.04c.68-1.35,1.87-4.3,3.4-7.56-1.94,3.42-2.72,4.55-3.44,5.86h-.04c-.68,1.15-2.26.67-1.62-.79-.84,0-1.45-.17-.97-1.52l-.04-.04c.2-.3.29-.7.49-1.15-.76,1.42-2.39,1.02-1.8-.75h-.02c.41-1.21,1.04-3.07,2.53-6.94-.9,1.62-2.23,3.87-2.87,4.97h-.04c-.95,1.56-2.49.18-1.56-1.18-2.83.68-.61-3.3-.1-6.1-1.18,1.78-1.76,3.82-2.94,3.16-.53-.29-.67-.37-.12-2.35-1.08,1.29-2.07.43-1.62-2.45-1.42,1.54-1.78-.29-2.81-2.23-2.43-.43.47-5.18,2.03-.29,1.28-3.25,3.82-4.21,3,.08,1.92-3.32,1.94-3.33,2.33-3.41,1.11.05,1.47.14.95,2.09,1.84-2.83,1.15-2.68,2.61-2.44.62.37.67.39-.83,5.83,3.7-6.47,3.76-6.49,4.21-6.61.78-.05,1.4.11,1.03,1.34,1.32-1.99.93-1.86,2.11-1.62,1.12,1.55-.9,3.91-2.06,7.91,4.84-8.5,4.88-8.52,5.38-8.66,1.17-.09,1.63.68.85,2.01,1.66-2.77,1.87-3.14,2.96-1.85.73-1.5,2.35-1.22,1.82.49l.12.06c-.76,1.48-1.13,2.83-2.57,5.91,4.48-7.79,4.66-7.85,5.06-7.95,2.89,0-.56,4.46-1.96,8.21,5.24-9.01,5.33-10.13,6.54-7.93.89-1.84,2.66-1.52,1.98.36l.08.06c-.08.08-.38.59-.43.83,1.6-2.72,1.7-2.74,1.98-2.82.84-.04,1.46.11.97,1.48l.08.06c-.61,1.07-.91,2.06-1.91,4.03,3.38-5.9,3.46-5.94,3.83-6.03.84-.04,1.44.11.99,1.5l.06.04c-.8,1.82-1.83,4.26-4.86,10.38,4.37-7.59,8.78-16.3,8.54-10.97l.08.06c-.87,1.48-1.38,2.9-3.12,6.17,3.97-6.82,4.17-6.88,4.56-7,.87-.04,1.48.13.87,1.58l.08.08c-.36.42-.55,1.07-.91,1.73.54-.93,1.05-1.54,1.34-2.23l.08.04c.86-1.24,2.13-.54,1.46.93l.12.1c-1.38,2.45-2.35,4.86-5.89,11.61,4.27-7.11,8.35-16.06,8.48-10.99l.1.06c-.92,1.89-1.63,3.74-4.11,8.56,5.56-9.46,5.43-10.5,6.84-8.46.4-.61,1.36-.33,1.5.27.67-.57,1.77-.06,1.26,1.24l.12.08c-.92,1.7-1.38,3.17-3.22,6.69,4.15-7.16,4.37-7.22,4.78-7.32,2.79.12-.17,3.57-1.24,6.35,1.54-2.71,2.17-3.65,2.98-5.13l.06.04c.5-1,1.76-.65,1.76.24.8-.62,2.01-.14,1.32,1.32h.02c-.63,1.48-1.74,3.73-4.48,8.94,2.58-4.59,3.57-6.12,4.31-7.46h.04c.7-1.21,2.45-.57,1.64.93h.02s-.06.12-.12.22c0,.04-.04.1-.06.14,3.68-.85-3,9.09-4.13,11.91,2.18-3.88,4.19-7.18,5.18-9.03l.12.04c.81-1.31,2.12-.59,1.52.79l.1.08c-1.11,2.04-4.23,8.36-6.54,12.72,6.48-11.32,6.64-11.36,7.12-11.5,3.65-.32-3.55,9.49-4.84,12.98,1.16-1.46,7.32-14.88,7.33-9.01l.1.06c-1.43,2.9-3.04,6.43-8.66,17.18,8.85-15.42,8.97-15.46,9.46-15.6,3.43-1.14-4.02,10.63-6.07,14.83,7.71-12.67,6.21-12.24,8.4-12.17,1.36,1.24-1.52,4.09-3.14,7.71-6.84,12.31-13.69,24.7-21.03,37.91,38.92-67.57,43.24-77.53,46.09-77.39.59.35.95.55-1.2,4.83,3.12-4.49,2.97-5.76,4.66-5.38,1.96-1.38-8.89,18.45-13.02,25.46,14.81-24.89,14.22-26.13,16.6-26.02.42.24.75.44-.4,2.96,1.31-1.88,1.46-2.77,2.51-3.51.88-.04,1.51.13.87,1.58l.08.08c-1.61,3.03-9.19,16.68-12.93,23.27,13.02-22.84,17.91-29.87,16.47-23.17,1.91-3.2,2.09-3.08,2.77-2.7.35.2.61.35.25,1.44.26-.39.73-1.22.83-1.42l.06.04c.68-1.19,2.43-.46,1.56.99h.04c-18.06,32.05-39.34,69.15-64.83,114.61,27.88-48.5,67.72-119.98,67.61-116.74,1.61.14,1.68.13-.14,4.02,2.59-4.36,2.77-4.42,3.04-4.5.86-.02,1.46.1.93,1.58l.04.04c-.78,1.75-2.05,4.44-5.59,10.81,7.47-12.8,7.71-12.86,8.1-12.96,3.62.06-3.13,8.75-9.35,20.81,10.49-17.95,12.76-21.28,13.38-21.46,2.79-.09-2.79,8.35-11.37,24.58,11.75-20.18,17.24-29.97,16.46-23.19,1.05-1.95,2.22-2.1,2.51-.75.38-.44.74-.43,1.19-.22-5.49,14.97-25.49,45.81-36.66,66.61,11.52-19.74,26.09-45.81,37.36-65.38h.02c.57-1.14,1.67-.87,1.86.04.83-.64,2.01-.22,1.28,1.34l.04.04c.84-1.19-8.43,15.89-15.36,28.01,15.43-26.8,16.7-28.58,17.31-28.74,1.15.02,1.57.1.67,2.33,1.16-2.39,3.31-2.27,2.31.02-15.6,29.15-40.04,71.14-58.08,103.66,13.28-22.89,54.86-96.41,60.28-104.45.52-.09,1.16.07,1.15.77,1.57-.8,2.36-.13.37,3.21.59-.96,1.03-1.63,1.36-2.09v-.04c1.02-1.61,2.35-.66,1.66.85-14.56,28.47-49.29,87.99-68.54,122.7.24.18.33.45,0,1.4h.02c-.86,2.22-3.25,7.01-10.1,20.1l.73.5c-3.54,5.63-11.73,22.55-11.35,15.92l-.06-.06c.59-.98.93-1.94,1.9-3.75-2.19,3.55-2.22,4.56-3.64,5.76-.79.05-1.49-.12-.99-1.42l-.1-.06c6.14-11.84,20.5-36.73,30.16-54.02-13.24,21.31-33.24,61.61-33.82,54.77-1.25,1.74-1.58,2.37-2.7,1.26-.74.94-.81,1.02-1.6.73-.85-.5-1.15-.67,6.01-13.73-6.14,10.18-7.09,12.53-9.17,14.42-1.42-.11-1.78-.2-.3-2.88-2.51,3.64-1.66,3.42-3.2,3.22-1.14-2.14,2.47-6.03,6.44-14.02-7.5,11.89-8.43,15.91-10.59,14.3-.97,1.37-2.59.98-1.86-.95-1.38,2-1.9,2.96-2.9,1.54-1.48,1.86-3.21,1.14-.99-2.46-17.28,22.42,47.53-89.2,52.31-98.32-14.19,24.57-51.72,90.87-58.52,102.05-.77,1.45-2.32.85-1.7-.77h-.04c1.33-3.63,20.55-37.35,27.53-49.9-30.42,52.14-30.46,55.28-31.51,50.47h-.02c.42-1.06,1.04-2.55,2.51-5.35-2.53,4.22-3.72,6.07-4.35,6.88v.04c-.49.58-.49.6-.93.63Z"/>
      <g class="cls-1">
        <path d="M956.5,150.8c10.87-25.48,23.3-53.49,34.94-78.8l1.82,4.14-19.33-5.68,1.46.1c-13.06,2.31-31.21,5.13-44.07,7.26l2.73-2.13c-4.62,11.12-12.08,28.34-16.88,39.31-2.17-3.75-12.76-22.03-15.14-26.12l1.48,1.15-19.11-6.41.97.08c-13.09,1.86-31.82,4.1-44.71,6.2l.85-1.97c14.86,21.68,30.14,43.06,45.69,64.24-11.81,25.35-28.33,60.56-40.36,85.4l-2.17-5.07,19.31,5.78-1.72-.12,45.14-7.53-3.16,2.39c6.33-13.83,14-30.69,20.44-44.26,2.77,4.32,16.13,25.03,19.15,29.72l-2.15-1.62,19.17,6.17-1.68-.12c11.32-1.67,34.23-4.85,45.57-6.43l-1.98,4.63c-13.32-19.82-33.48-50.45-46.29-70.25l.02-.06ZM957.29,150.74c15.55,20.25,37.82,50.07,53.19,70.69-13.91,2.51-36.99,6.51-50.95,8.91-1.26-.35-20.47-6.03-21.56-6.35l-.81-1.22-15.44-23.19,7.29-.55c-5.26,11.82-12.73,27.62-18.12,39.51-1.43-.04-47.47,7.64-49.19,6.96-2.91-.93-20.79-6.63-23.28-7.42,12.83-25.59,31.35-60.83,44.85-86.58l.14,1.93c-14.66-22.15-29.7-44.1-45.12-65.76,14.04-2.11,33.29-6.18,47.42-8.15,0,0,19.39,5.46,19.39,5.46l.89.26.57.89,12.97,20.06-5.73.43c3.69-9.34,10.57-26.21,14.45-35.46,13.93-2.37,32.79-4.91,46.92-7.12,2.9.91,20.65,6.7,23.22,7.51-12.9,25.64-27.52,53.85-41.09,79.21l.02-.02Z"/>
      </g>
      <g class="cls-9">
        <path d="M956.89,150.76l36.03-78.06.83,1.89-19.31-5.72.71.06-44.06,7.36,1.53-1.2c-.83,2.04-15.22,37.33-15.42,37.81-1.48-2.39-13.28-21.26-15.04-24.1l1.4,1.08-19.27-5.88,1.16.08-44.55,7.18,1.8-4.2,44.7,63.59.99,1.4c-12.18,24.89-29.85,59.9-42.35,85.07l-1.64-3.81,19.23,5.99-1.2-.08,45.22-7-1.92,1.44c6.3-13.69,12.81-27.32,19.19-40.99.91,1.38,15.85,24.7,17.23,26.84l-1.07-.81,19.19,6.11c10.73-2.13,30.87-4.63,44.73-6.78l-.89,2.09s-47.21-69.37-47.24-69.36ZM956.89,150.76l49.41,67.81,1.24,1.72c-16.08,2.63-32.28,5.79-48.34,7.97,0,0-19.31-5.78-19.31-5.78l-.67-.2-.41-.61-15.47-23.17,3.89-.29c-5.83,12.92-11.56,25.89-17.47,38.78,0,0-1.34.21-1.34.21-1.74-.02-44.63,7.75-46.38,7.2-1.96-.59-20.95-6.39-22.34-6.8,12.86-25.86,29.89-61.08,42.65-86.54l.22,2.96-44.29-63.86-2.45-3.53c1.52-.01,47.26-7.75,49.98-7.49,0,0,19.23,6,19.23,6,0,0,.91.29.91.29l.48.81,12.29,20.46-4.09.31,14.31-33.41.44-1.03,1.08-.16c.88.02,44.06-6.86,44.88-6.55.96.34,20.16,6.43,20.71,6.65-.75,1.55-38.4,76.71-39.17,78.28h.02Z"/>
      </g>
      <path id="White_Part-4" data-name="White Part" class="cls-2" d="M937.64,144.83l48.32,68.58-45.46,7.18-28.18-43.04-23.52,51.2-45.2,7.16,41.41-83.59-44.53-63.73,44.57-7.04,25.4,41.44,20.34-48.68,44.11-6.96-37.25,77.47Z"/>
      <path d="M940.67,220.48c-9.51-15.13-18.89-30.32-28.5-45.39-7.19,15.23-17.72,36.65-24.78,51.83-14.7,2.45-29.33,5.27-43.84,8.78l.06.39c15.59-1.2,31.1-3.11,46.55-5.5,6.97-15.04,14.95-34,22.37-50.61,9.19,13.61,18.54,27.14,27.79,40.71l.33-.21h.02Z"/>
      <path d="M939.2,144.67c9.19-19.66,27.01-57.99,35.89-77.23l-.35-.18c-9.76,19.48-28.99,58.16-38.62,77.67,13.49,19.48,32.7,48.1,46.68,67.18-10.36,1.83-20.71,3.75-31.03,5.86-35.12,6.83,30.98-2.33,37.36-3.2-13.73-20.74-35.18-49.63-49.88-70.13l-.04.04Z"/>
      <path d="M930.96,74.4l-.35-.16c-8.38,14.46-14.61,29.82-20.5,45.36-6.94-10.77-18.7-28.85-24.88-38.16l-.34.2c6.7,11.83,18.92,33,25.76,44.73,7.67-16.98,15.43-33.91,20.31-51.97Z"/>
    </g>
  </g>
  <g id="Cat">
    <path d="M355.48,606.05c-13.69,4.47-46.21,14.4-49.19-7.16-3.49-3.81-4.18-7.41-3.82-12.38-1.79-3.36-2.66-7.07-1.41-10.84-22.88-31.17-129.49,17.65-52.55-69.5-3.92-25.88.04-51.75,5.8-76.99-26.78-42.58-38.7-67.85,26.24-56.56,8.15,2.3,17.12,3.2,25.5,1.29,5.59-1,13.26-9.73,17.61-9.71,2.77,0,3.21,3.22,4.64,3.49,2.77.52,6.72-5.26,9.8-2.41,4.58,8.11,3.63,2.99,10.91,3.44,1.72.45,4.96,6.27,6.47,7.07,4.68-218.07,4.41,277.85,3.95,266.25.16,2.36-3.06,3.1-3.95.91,0,0,0-36.91,0-36.91h0ZM323.27,368.66c-12.39,6.08-15.43,9.81-30.63,9.93-61.85-11.62-70.54.23-32.48,50.32-11.62,23.17-9.96,54.62-8.12,79.37-71.17,77.55,18.73,34.04,51.03,63.25l3.81-4.01c-3.39-1.15-.37-7.19-.12-9.61.56-1.68,1.82-1.82,3.15-.82.92,1.3-1.26,6.89-1.06,8.69,3.13-2.9,7.78-4.35,9.51-8.07,1.19-.68,1.63.25,2.33.04,7.94-4.52,16.65-8.93,25.14-12.6,3.47-1.56,9.35-2.68,9.42-7.01,0,0-.06-155.24-.06-155.24-2.32-3.53-4.94-6.89-7.81-10-5.28,2.43-9.76,1.89-11.58-4.28-3.95,3.27-9.42,5.88-12.53.03h0ZM355.25,545.42c-12.62,6.23-53.9,19.95-50.63,37.09,4.53,7.54-2.47,5.17,5.45,15.84,1.33,17.88,34.77,7.96,45.18,3.65v-56.58h0Z"/>
    <path id="Cat_Left_Ear" d="M256.61,518.17c6,1.87,14.07,22.87,14.43,28.76.04,3.71-3.47,3.92-6.41,4.25-7.67.33-30.97,1.27-24.39-12.12,1.87-5.54,10.24-19.89,16.38-20.89Z"/>
    <path id="Cat_Right_Ear" d="M260.32,383.73c5.5.18,19.54-.46,21.79,5.4-1.1,8.42-10.37,21.4-16.53,27.39-8.08,1.48-16.58-22.01-15.52-28.25.67-3.89,7.04-4.35,10.26-4.55Z"/>
    <path id="Cat_Nose" d="M319.54,458.23c6.25,1.34,4.51,11.21-.39,13.72,3.43,2.54,4.07,7.33,2.28,11.08-.59,1.23-3.14,4.52-4.61,3.05-2.3-2.12,6.92-6.08.33-11.91-9.71,10.18-7.97-16.03.29-4.9,8.01-4.95-1.64-9.88,2.1-11.04h0Z"/>
    <g id="Cat_Mostash">
      <path d="M332.51,375.6c.96-.17,1.95.74,2.11,1.69l-.94,9.45c-4.98,5.88-3.86-10.8-1.17-11.14h0Z"/>
      <path d="M320,376.54c4.04-1.15,2.3,7.2,2.83,9.54-.29,1.87-3.13,1.77-3.44-.23-.28-1.8-.21-4.36-.25-6.23-.02-.9-.65-2.63.86-3.08h0Z"/>
      <path d="M344.08,379.77c4.75-.14-.4,6.92-1.13,8.84-6.09,3.86-1.28-8.03,1.13-8.84h0Z"/>
    </g>
    <g id="Cat_Paw">
      <path d="M333.95,569.33c11.21.47,12.85,32.62.44,22.33-1.19-5.13-8.61-2.33-6.84-9.13.38-1.29,2.19-2.84,2.4-3.75-.37-3.12-.3-8.91,4-9.45h0Z"/>
      <path d="M317.72,578.57c2.83-.09,4.04,2.64,3.17,5.05-5.47,6.03-15.42-2.51-3.17-5.05Z"/>
      <path d="M321.4,589.22c8.25.52,3.35,9.72-3.66,6.79-3.32-1.61,1.15-6.38,3.66-6.79Z"/>
      <path d="M332.04,595.69c1.51-.28,2.69.14,3.65,1.33,4.45,5.49-7.92,7.26-8.45,4.04-.31-1.87,3.05-5.05,4.8-5.37h0Z"/>
      <path d="M322.39,567.45c2.67-.39,4.58.07,4.31,3.14-2.17,7.33-14.99.17-4.32-3.14h0Z"/>
    </g>
    <path id="Cat_Right_Eye" d="M332.74,430.07c-.09,19-28.97,18.99-29.05,0,.09-19,28.97-18.99,29.05,0Z"/>
    <path id="Cat_Left_Eye" d="M326.57,520.2c-.09,19-28.97,18.99-29.05,0,.09-19,28.97-18.99,29.05,0Z"/>
  </g>
  <g id="Speech_Bubble_mouse" data-name="Speech_Bubble mouse">
    <path d="M809.04,532.16c7.71,43.81,51.8-13.53,6.04-11.88,22.32-75.83,133.06-90.9,191.06-83.42-72.09-22.66-173.67,13.28-196.1,83.98-79.28,9.32-105.36,154.66-.93,130.95-14.24,47.33,81.34,37.36,86.21,16.16-35.34,16.01-85.26,24.96-84.18-21.42-98.46,26.77-75.94-110.48-1.94-120.66.1,2.04-.31,4.28-.15,6.29ZM814.13,525.42c17.69-6.96,23.02,22.85,5.13,17.87-5.33-3.91-5.66-12.22-5.13-17.87Z"/>
    <path d="M1040.9,467.7c94.07,4.67,103.12,65.42,38.03,126.53,48.34,77.09-139.65,77.26-100.84,82.9,43.66.93,142.84-28.88,105.45-83.88,68.45-40.84,47.11-145.15-42.64-125.54h0Z"/>
  </g>
  <g id="Speech_Bubble_copy" data-name="Speech_Bubble copy">
    <path d="M90.12,399.47c28.73,10.69-15.69,30.77-8.81,2.21C27.08,405.61,2.92,473.23.69,510.7c-6.28-48.35,30.87-107.43,81.63-112.11,16.3-48.6,118.11-45.63,88.89,16.87,33.88-2.65,15.08,56.12.1,56.36,15.3-20.09,27.66-50.28-3.92-55.79,30.55-58.34-65.33-62.47-81.55-17.3,1.37.34,2.94.38,4.28.75ZM84.9,401.78c-6.95,10.19,12.59,17.52,11.47,5.61-1.98-3.88-7.57-5.19-11.47-5.61Z"/>
    <path d="M17.21,536.67c-8.68,59.77,31.36,73.56,80.99,40.78,46.17,40.67,69.96-77.51,68.9-52.35-4.87,27.58-37.57,85.96-70.14,55.12-36.31,37.6-104.34,10.27-79.74-43.55h0Z"/>
    <path d="M190.96,500.22c9.78,8.66,34.77-18.11,34.03-9.44-8.78,7.63-25.64,18.38-37.11,11.37-4.33,2.68-25.97,7.83-23.73-.03,6.85.89,15.19,1.27,21.55-2.42-12.49-22.86,27.64-17.04,5.26.52h0ZM191.6,487.03c-5.59-.46-6.31,7.67-3.05,10.9,3.15-1.55,10.1-10.32,3.05-10.9Z"/>
  </g>
  <g id="Mouse">
    <path class="cls-2" d="M741.57,686.89c46.67-31.81,95.38-3.48,96.48,51.14,28.68-18.14,82.83-18.43,112.64.69,2.85-.7,2.54-11.77,3.12-15.05,6.91-51.12,70.36-66.62,103.03-28.64,38.02,56.63,7.34,109.71-60.42,103.8l7.25,70.73c-7.39-1.73-5.8,6.51-5.66,11.59.44,15.82,2.24,31.74,3.15,47.52,2.28,39.48,3.48,79.03,10.2,118.04,11.02,58.58,29.69,116.01-12.07,167.51,2.9,1.11,5.95.33,8.92.78,6.5,1,19.45,9.61,17.98,17.37-17.48-2.55-48.06,1.56-63.54-1.82-.63-.34-1.19.33-.89-1.3,2.15-.39,11.06-5.81,7.8-8.14-45,20.96-101.65,17.75-147.6,1.23l-.96.97c.04,1.96,9.2,6.84,4.61,8.34-2.4.78-16.25.17-19.95.12-13.61-1.76-27.58.28-41.23,1.23-.08-12.35,16.3-19.22,27.18-18.78-41.75-47.96-24.71-113.29-12.06-168.76,10.02-57.54,8.68-116.68,11.98-174.88l-.94-.94-3.98-.08,7.53-69.71c-.49-3.91-9.14-.99-12.19-.95-68.57,1.02-84.63-68.01-40.37-112h0ZM793.4,766.25c5.71-12.95,13.46-6.76-.24-21.16-6.47-5.36-18.81-7.78-23.36,1-5.43,10.49,14.85,21.35,23.6,20.16ZM1007.9,740.22c-6.15.72-15.27,7.68-17.09,13.58-1.32,4.29,4.36,8.14,6.39,11.81,5.27,1.83,20.85-6.54,22.45-11.75,2.59-8.43-3.32-14.63-11.75-13.64h0ZM893.58,784.48c-21-69.26-115.71-26.25-81.58,35.6,20.9,34.09,74.16,22.72,83.14-14.96,9.55,35.58,54.05,46.94,78.82,18.77,44.28-64.85-54.5-110.64-80.38-39.42ZM892.82,839.08c-49.25,8.27-5.75,46.69,21.07,25.45,17.37-13.82-7.33-26.45-21.07-25.45ZM823.52,894.58c-.26,1.61.6,4.96,2.8,4.37,2.54-.68-.65-5.24-2.8-4.37ZM974.58,894.59c-1.55,1.3-3.37,3.86-1.24,5.61,1.99.41,3.28-4.38,1.24-5.61ZM813.2,896.46c-1.65.39.12,5.35,1.86,4.99,1.69-.34.73-5.61-1.86-4.99ZM963.63,896.45c-2.66-.87-4.28,4.1-2.18,4.99,2.31.99,2.13-3.79,2.18-4.99ZM950.64,1010.78c15.04,2.98,36.5-8.97,44.77-22.19.98-1.59,4.57-6.81.73-6.16-9.48,14.02-25.38,22.87-42.14,24.78-2.06-6.78-8.96-8.6-14.46-4.42-2.16.02-2.24-4.46-8.07-3.71-4.08.52-4.92,4.35-6.3,4.36-23.58-18.84-34.78,50.66,61.74,25.42,2.12-.56,10.53-2.73,10.53-5.12l-1.01-1.52c-20.55,3.65-82.73,20.64-80.99-14.78,1.16-8.68,8.29,2.38,10.44,4.62,4.07.75,1.87-8.73,6.8-8.72,4.18,0,4.23,11.09,7.78,8.16.43-.36,1.24-6.83,5.35-6.8,4.75.03,3.48,4.67,4.84,6.07h0ZM858.67,1003.55c7.16-1.75,4.54,4.01,7.09,6.74,2.41.67,2.82-2.95,3.75-4.34,5.39-8.05,9.03,6.1,6.39,12.02-13.56,19.64-62.8,6.05-83.93,4.87l-.99,1.52c10.91,8.32,27.88,5.87,40.99,7.18,16.39.92,45.88,5.35,50.04-17.46,1.55-8.9-5.82-19.16-14.93-13.3-7.49-5.64-8.7-2.74-12.61.59-7.57-4.9-12.61.37-16.86,6.84-13.43-1.37-28.54-5.61-37.9-15.72-1.62-1.75-6.82-9.73-8.43-9.73-3.09.12.64,6.1,1.67,7.73,7.98,12.57,32.46,25.07,47.08,21.65,2.96-.69,1.53-2.15,1.97-3.15.66-1.5,3.68-4.79,5.23-5.3,7-2.46,4.99,13.1,11.42-.14h0ZM973.96,1066.6c-1.33,1.81-4.31,4.76-1.89,6.87,2.36-1.17,3.92-3.05,3.37-5.83l-1.48-1.03h0ZM813.83,1068.48c-1.76.39-.61,5.72,1.86,4.99,2.23-.66-.28-5.34-1.86-4.99ZM984.82,1074.64c3.39-8.59-2.83-8.16-2.41.09l2.41-.09ZM805.37,1069.72l-1.84.03-.57,5.5,2.04.69c2.18-1.5.14-4.14.37-6.22h0ZM984.61,1134.79c-1.59.55-3.42,4.55-1.26,4.99,1.77.36,4.64-4.66,1.26-4.99ZM806,1137.29c-.47,2.66,1.68,4.38,4.05,5,2.53-2.59-1.2-5.92-4.05-5ZM989.06,1143.61l-3.24,2.42.65,1.89c1.82.47,3.23-2.2,4.04-3.44l-1.45-.86ZM802.87,1147.92c-1.27,6.92,7.62,6.79,5,3.44-1.16-1.81-2.51-4-5-3.44ZM907.66,1194.83c-2.64.51,1.83,6.83,4.06,4.7,1.93-1.28-2.97-4.91-4.06-4.7ZM901.7,1205.46c1.75-2.66-6.56-10.41-5.95-5,.5,1.14,4.95,6.1,5.95,5h0Z"/>
    <path class="cls-8" d="M741.57,686.89c15.99-15.89,48.63-18.77,68.21-7.22,21.02,11.74,25.91,35.99,29.69,57.24,32.07-19.58,78.63-18.51,110.63.55,2.57-.47,1.43-6.3,1.66-8.35,2.11-53.84,72.6-77.19,105.08-34.1-32.68-37.97-96.12-22.48-103.03,28.65-.58,3.28-.27,14.35-3.12,15.05-29.8-19.12-83.99-18.83-112.64-.69-1.06-54.62-49.88-82.95-96.48-51.14h0Z"/>
    <path class="cls-8" d="M741.57,686.89c-44.25,43.98-28.2,113.02,40.37,112,3.04-.05,11.7-2.96,12.19.95l-7.53,69.71,3.98.08.94.94c-3.3,58.2-1.96,117.35-11.98,174.88-12.65,55.42-29.69,120.86,12.06,168.76-10.86-.45-27.27,6.44-27.18,18.78,13.65-.96,27.63-2.99,41.23-1.23,3.69.05,17.55.66,19.95-.12,4.59-1.5-4.57-6.38-4.61-8.34l.96-.97c45.95,16.52,102.61,19.73,147.6-1.23,3.25,2.34-5.64,7.75-7.8,8.14-.3,1.63.26.96.89,1.3,15.54,3.39,46.01-.73,63.54,1.82,1.47-7.75-11.48-16.36-17.98-17.37-2.97-.46-6.02.33-8.92-.78,41.76-51.53,23.08-108.91,12.06-167.51-6.72-39.01-7.92-78.56-10.2-118.04-.91-15.78-2.71-31.7-3.15-47.52-.14-5.08-1.73-13.33,5.66-11.59l-7.25-70.73c67.77,5.92,98.44-47.2,60.42-103.8,33.9,36.4,17.84,101-36.05,104.38-3.07.27-22.39-.35-23.1.66,1.4,23.48,6.67,47.07,7.24,70.73l-4.59-.03c-.38,55.1,3.42,118.29,11.65,173.43,6.56,34.97,17.55,71.14,14.21,106.84,180.44-62.91-97.36-255.23,93.82-341.54,1.06,1.06-2.81,5.62-3.75,6.56-45.89,32.95-65.98,93.45-34.52,143.38,65.31,82.24,56.23,207.19-62.93,225.51-3.57,9.54-9.66,17.77-15.82,25.79-2.14,3.95,3.11,2.52,5.71,3.14,6.57,1.55,18.53,9.35,19.09,16.6,1.27,6.15-19.43,1.59-23.81,2.51-8.13-4.36-42.68,6.63-42.73-4.25.56-.96,6.75-2.4,5.8-5.14-38.57,18.55-101.39,16.42-140.74,1.25-4.61,1.03,8.31,5.65-3.79,9.37-8.77-.27-18.17-1.97-26.89-1.88-10.44-.24-22.92,3.64-32.72,1.19-1.07-7.68,5.83-10.84,9.48-15.99,4.43-2.03,11.51-4.56,16.71-3.94-48.41-59.89-13.08-137.67-5-204.87,2.81-44.94,4.78-92.24,5.98-137.34l-4.73-.58c2.18-23.43,4.2-46.97,7.46-70.3-70.37,9.74-104.64-67.99-51.24-113.62h0ZM1117.52,811.38c-44.05,18.37-71.72,64.65-68.8,112.28,1.8,29.38,20.28,56.23,30.49,83.36,24.51,52.37,14.9,134.7-52.93,144.74l-6.96,31.81c86.95-13.92,122.53-92.66,91.34-171.74-47.16-82.35-76.11-125.7,6.86-200.46h0Z"/>
    <path class="cls-3" d="M1117.52,811.38c-83.09,75.02-53.95,118.05-6.85,200.46,31.23,78.91-4.52,157.99-91.35,171.74l6.96-31.81c67.85-10.09,77.43-92.34,52.92-144.74-10.2-27.13-28.69-53.98-30.48-83.36-2.92-47.63,24.75-93.91,68.8-112.28h0ZM1059.97,912.09c-.93-.19-4.15-.15-3.75,1.55.42,1.76,4.72,1.22,3.75-1.55ZM1061.22,922.73c-1.29-.45-4.75.44-4.37,2.18.44,2.03,5.39.29,4.37-2.18ZM1099.37,1011.55l-2.85.58-.27,3.79c2.84.28,3.43-1.98,3.12-4.37ZM1106.26,1020.31c-2.69-.92-5.29,4.46-2.8,5,1.59.35,3.32-3.61,2.8-5ZM1093.74,1120.39c.34-2.15-.38-2.87-2.19-3.73-2.19,1.71-.05,4.08,2.19,3.73ZM1086.24,1130.4c.58-1.88-2.25-5.54-3.75-3.75-.59.71,1.98,4.69,3.75,3.75ZM1050.59,1157.3c-.26,1.57.31,3.54,2.18,3.75,2.21-1.71.07-4.09-2.18-3.75ZM1047.45,1164.18c.42-2.77-2.18-5.4-5-5,.37,2.54,2.06,5.32,5,5Z"/>
    <path d="M893.58,784.48c25.91-71.26,124.66-25.39,80.38,39.42-24.77,28.16-69.27,16.81-78.82-18.77-8.99,37.67-62.24,49.05-83.15,14.95-34.12-61.86,60.6-104.85,81.58-35.6h0ZM891.63,794.71c-.94-54.88-82.57-54.87-83.5,0,.94,54.88,82.57,54.87,83.5,0ZM981.23,794.08c-.94-55.09-82.89-55.09-83.83,0,.94,55.09,82.89,55.08,83.83,0Z"/>
    <path d="M858.67,1003.55c-6.43,13.24-4.41-2.33-11.42.14-1.55.5-4.57,3.8-5.23,5.3-.44,1,.99,2.46-1.97,3.15-14.62,3.42-39.1-9.08-47.08-21.65-1.04-1.63-4.76-7.61-1.67-7.73,14.47,17.13,22.74,22.76,46.33,25.46,4.25-6.46,9.29-11.75,16.86-6.84,3.91-3.29,5.05-6.27,12.61-.59,9.08-5.86,16.51,4.4,14.93,13.3-4.16,22.8-33.65,18.38-50.04,17.46-13.1-1.3-30.1,1.13-40.99-7.18l.99-1.52c21.06,1.18,70.38,14.77,83.93-4.87,2.64-5.92-1-20.08-6.39-12.02-.94,1.4-1.34,5.02-3.75,4.34-2.55-2.71.07-8.49-7.1-6.74h0Z"/>
    <path d="M950.64,1010.78c-1.36-1.4-.09-6.03-4.84-6.07-4.11-.03-4.92,6.44-5.35,6.8-3.54,2.93-3.59-8.15-7.78-8.16-4.92-.01-2.73,9.47-6.8,8.72-2.16-2.23-9.29-13.3-10.44-4.62-1.69,35.43,60.34,18.44,80.99,14.79l1.01,1.52c0,2.4-8.41,4.57-10.53,5.13-96.32,25.25-85.44-44.21-61.74-25.43,1.39-.01,2.23-3.84,6.3-4.36,5.83-.75,5.91,3.72,8.07,3.71,5.5-4.18,12.4-2.36,14.46,4.42,16.76-1.91,32.66-10.76,42.14-24.78,3.85-.66.25,4.56-.73,6.16-8.24,13.2-29.77,25.18-44.78,22.19Z"/>
    <path d="M892.82,839.08c13.74-1,38.44,11.63,21.07,25.45-26.86,21.24-70.3-17.19-21.07-25.45ZM889.03,843.43c-28.08,7.13-9.22,25.95,10.48,22.99,7.44-.75,20.65-7.24,14.35-16.21-4.36-6.21-17.86-7.86-24.83-6.78Z"/>
    <path d="M901.7,1205.46c-1,1.1-5.45-3.86-5.95-5-.61-5.41,7.7,2.34,5.95,5h0Z"/>
    <path d="M802.87,1147.92c2.49-.56,3.84,1.63,5,3.44,2.62,3.36-6.27,3.47-5-3.44Z"/>
    <path d="M973.96,1066.6l1.48,1.03c.55,2.78-1.01,4.66-3.37,5.83-2.43-2.11.56-5.05,1.89-6.87h0Z"/>
    <path d="M806,1137.29c2.84-.91,6.58,2.41,4.05,5-2.37-.62-4.52-2.34-4.05-5Z"/>
    <path d="M984.82,1074.64l-2.41.09c-.42-8.24,5.8-8.67,2.41-.09Z"/>
    <path d="M907.66,1194.83c1.09-.21,6,3.42,4.06,4.7-2.23,2.13-6.7-4.19-4.06-4.7Z"/>
    <path d="M805.37,1069.72c-.22,2.08,1.81,4.72-.37,6.22l-2.04-.69.57-5.5,1.84-.03h0Z"/>
    <path d="M813.83,1068.48c1.58-.35,4.09,4.34,1.86,4.99-2.47.73-3.62-4.61-1.86-4.99Z"/>
    <path d="M984.61,1134.79c3.38.33.52,5.36-1.26,4.99-2.16-.44-.33-4.45,1.26-4.99Z"/>
    <path d="M974.58,894.59c2.04,1.24.75,6.02-1.24,5.61-2.13-1.75-.31-4.32,1.24-5.61Z"/>
    <path d="M813.2,896.46c2.59-.61,3.55,4.65,1.86,4.99-1.74.35-3.51-4.61-1.86-4.99Z"/>
    <path d="M963.63,896.45c-.05,1.21.13,5.98-2.18,4.99-2.1-.9-.48-5.86,2.18-4.99Z"/>
    <path d="M989.06,1143.61l1.45.86c-.81,1.24-2.22,3.91-4.04,3.44l-.65-1.89,3.24-2.42Z"/>
    <path d="M823.52,894.58c2.16-.87,5.35,3.69,2.8,4.37-2.21.59-3.07-2.76-2.8-4.37Z"/>
    <path d="M1047.45,1164.18c-2.94.32-4.63-2.46-5-5,2.82-.41,5.41,2.23,5,5Z"/>
    <path d="M1106.26,1020.31c.51,1.39-1.22,5.34-2.8,5-2.48-.54.12-5.92,2.8-5Z"/>
    <path d="M1099.37,1011.55c.31,2.39-.28,4.66-3.12,4.37l.27-3.79,2.85-.58Z"/>
    <path d="M1061.22,922.73c1.02,2.46-3.93,4.21-4.37,2.18-.38-1.74,3.09-2.62,4.37-2.18Z"/>
    <path d="M1086.24,1130.4c-1.77.95-4.34-3.04-3.75-3.75,1.5-1.79,4.33,1.87,3.75,3.75Z"/>
    <path d="M1050.59,1157.3c2.25-.35,4.39,2.03,2.18,3.75-1.87-.21-2.44-2.18-2.18-3.75Z"/>
    <path d="M1093.74,1120.39c-2.24.35-4.38-2.02-2.19-3.73,1.81.86,2.53,1.58,2.19,3.73Z"/>
    <path d="M1059.97,912.09c.97,2.77-3.33,3.31-3.75,1.55-.41-1.7,2.82-1.74,3.75-1.55Z"/>
    <path class="cls-4" d="M981.23,794.08c-.94,55.09-82.89,55.09-83.83,0,.94-55.09,82.89-55.08,83.83,0ZM937.82,787.12c-7.33,1.5-7.85,14.24.02,15.36,11.76,1.68,12.1-17.84-.02-15.36Z"/>
    <path class="cls-4" d="M891.63,794.71c-.94,54.88-82.57,54.87-83.5,0,.94-54.88,82.57-54.87,83.5,0ZM850.28,786.5c-7.89.16-11.3,11.01-3.85,15.4,12.23,6.15,16.96-14.03,3.85-15.4Z"/>
    <path class="cls-4" d="M889.03,843.43c6.97-1.08,20.47.57,24.83,6.78,6.3,8.97-6.9,15.46-14.35,16.21-19.7,2.95-38.55-15.86-10.48-22.99Z"/>
    <g id="Left_Ear" data-name="Left Ear">
      <path d="M793.4,766.25c-8.75,1.19-29.04-9.67-23.6-20.16,4.55-8.79,16.89-6.36,23.36-1,13.7,14.42,5.94,8.21.24,21.16h0ZM778.3,743.34c-15.56,6.87,4.93,20,13.32,19.6,0,0,5.34-7.25,5.34-7.25-1.75-6.78-11.1-14.02-18.66-12.35h0Z"/>
      <path id="ear" class="cls-4" d="M778.3,743.34c7.55-1.67,16.91,5.57,18.66,12.35,0,0-5.34,7.25-5.34,7.25-8.38.48-28.82-12.84-13.32-19.6h0Z"/>
    </g>
    <g id="Right_Ear" data-name="Right Ear">
      <path id="ear-2" data-name="ear" d="M1007.9,740.22c8.43-.99,14.35,5.21,11.75,13.64-1.6,5.2-17.18,13.58-22.45,11.75-2.03-3.67-7.71-7.52-6.39-11.81,1.82-5.9,10.94-12.85,17.09-13.58ZM1007.26,743.34c-5.59.95-10.06,6.4-12.88,10.95l4.88,8.63c5.21-.64,15.66-4.98,17.26-10.32,2.04-6.81-2.9-10.34-9.26-9.26h0Z"/>
      <path class="cls-4" d="M1007.26,743.34c6.37-1.08,11.3,2.45,9.26,9.26-1.6,5.33-12.05,9.67-17.26,10.32l-4.88-8.63c2.82-4.55,7.29-10,12.88-10.95h0Z"/>
    </g>
    <path d="M937.82,787.12c12.12-2.48,11.78,17.04.02,15.36-7.87-1.12-7.35-13.86-.02-15.36Z"/>
    <path d="M850.28,786.5c13.12,1.37,8.39,21.55-3.85,15.4-7.45-4.39-4.05-15.24,3.85-15.4Z"/>
  </g>
  <g id="Cheese">
    <path d="M873.94,895.28c.84-1.09,2.82-1.87,4.02-2.52.47-.47.64-1.18,1.65-1.24.48-.54,1.56-1.41,2.3-1.69,31.68,12.11,65.24,21.75,97.23,32.88-3.01,27.87-5.42,56.3-7.66,84.19-1.72,3.42-15.55.42-19.45.2-44.94-2.82-89.94-6.02-134.79-4.39.3-28.05,1.14-56.17,2.34-84.19,20.02-2.17,36.6-14.6,54.37-23.26h0ZM960.61,921.3c-25.77-8.61-51.85-16.27-77.22-26.01-14.9,7.79-29.41,16.34-44.9,22.85l.2.27c7.79.37,29.35.8,37.54.68,9.66-11.63,19.53-10.15,25.73,3.58,19.36.73,39.56-.06,58.65-1.37ZM896.93,922.13c-2.86-7.85-12.66-8.6-17.33-1.99l17.33,1.99h0ZM874.34,923.82c-16.03-2.2-33.7-1.48-50.14-1.95-1.71,24.57-3.34,49.58-2.92,74.19,48.99.78,98.08,4.38,146.96,5.98,1.19-25.45,4.58-50.85,5.82-76.18-23.93-.44-48.16.73-72.02.21-1.48,16.32-28.05,14.58-27.71-2.25h0ZM896.34,930.2c.56-.69,1.48-2.88,1.42-3.74-38.22-10.93-13.05,17.74-1.42,3.74Z"/>
    <path class="cls-2" d="M874.34,923.82c-.33,16.83,26.21,18.57,27.71,2.25,23.86.52,48.09-.65,72.02-.21-1.24,25.33-4.62,50.73-5.82,76.18-48.88-1.61-97.97-5.2-146.96-5.98-.43-24.63,1.2-49.61,2.92-74.18,16.45.47,34.1-.25,50.14,1.95h0ZM846.3,939.63c-16.71,3.54-7.76,26.97,7.55,20.07,10.1-5.33,3.42-22.18-7.55-20.07h0ZM951.45,964.26c9.99-12.78-6.94-29.82-18.61-17.17-10.39,12.96,7.33,28.66,18.62,17.17h0ZM906.94,961.63c-1.76.71-.02,3.16.59,4.17,3.39,2.35,2.73-4.72-.59-4.17h0ZM896.89,963.41c-1.42,1.26,1.97,6.26,3.73,4.02-.24-1.54-1.77-4.67-3.73-4.02h0Z"/>
    <path class="cls-2" d="M960.61,921.3c-19.1,1.31-39.29,2.11-58.65,1.37-6.22-13.76-16.07-15.2-25.73-3.58-8.26.12-29.58-.3-37.54-.68l-.2-.27c15.49-6.51,30-15.05,44.9-22.85,25.37,9.74,51.45,17.4,77.22,26.01h0Z"/>
    <path class="cls-2" d="M896.34,930.2c-11.59,13.98-36.8-14.66,1.42-3.74.06.86-.87,3.05-1.42,3.74h0Z"/>
    <path class="cls-2" d="M896.93,922.13l-17.33-1.99c4.67-6.61,14.47-5.85,17.33,1.99h0Z"/>
    <path d="M951.45,964.26c-11.29,11.49-29-4.22-18.61-17.17,11.67-12.66,28.61,4.39,18.61,17.17h0ZM941.47,946.1c-13.53,2.2-9.08,23.64,5.11,17.07,8.3-4.62,4.78-18.05-5.11-17.07h0Z"/>
    <path d="M846.3,939.63c10.97-2.11,17.65,14.74,7.55,20.07-15.32,6.91-24.26-16.54-7.55-20.07h0ZM854.26,946.24c-9.69-12.45-22.13,9.39-6.48,11.64,6.38.59,9.81-6.65,6.48-11.65h0Z"/>
    <path d="M906.94,961.63c3.32-.55,3.98,6.51.59,4.17-.61-1-2.34-3.46-.59-4.17h0Z"/>
    <path d="M896.89,963.41c1.95-.66,3.48,2.48,3.73,4.02-1.75,2.24-5.15-2.76-3.73-4.02h0Z"/>
    <path class="cls-2" d="M941.47,946.1c9.88-.97,13.41,12.46,5.11,17.07-14.19,6.57-18.63-14.87-5.11-17.07h0Z"/>
    <path class="cls-2" d="M854.26,946.24c3.33,5-.1,12.24-6.49,11.64-15.65-2.26-3.2-24.09,6.49-11.64h0Z"/>
  </g>
  <g id="Play_BTN">
    <path id="bg" d="M906.43,1154.42c-.31,7.77-5.65,13.43-11.98,17.19,11.36,10.2-13.44,13.89-10.86,24.38.9,3.7,8.57,9.11,11.86,11.39,4.55,3.15,10.97,3.95,2.92,10.52-6,4.9-13.32,3.95-17.65,13.52-4.79,10.57,3.31,15.16,1.72,23.3-.8,4.05-7.84,4.62-4.95,12.18,3.91,10.24,20.79,6.78,23.8,16.17,3.2,9.98-13.31,17.16-12.5,26.04.42,4.68,9.08,6.74,7.91,14.96-5.72,8.99,1.56,21.74,8.95,27.78-54.48-.07-769.9-.87-800.17,2.4,9.93-3.52,13.74-12.9,8.82-22.04-1.24-9.13,7.76-9.14,7.88-15.11.19-9.69-25.95-21.64-8.44-31.72,6.27-3.61,14.37-2.41,18.45-9.53,3.72-6.5-4.36-9.33-5.11-13.13-1.5-7.62,5.97-12.01,1.98-21.96-4.12-10.94-19.6-12.68-20.31-21.18-.02-3.31,2.58-2.96,3.83-4.09,4.24-3.84,8.41-7.76,12.93-11.25,5.28-14.67-20.39-13.69-12.14-28.52-5.89-5.15-12.74-10.04-11.89-18.89,41.28-2.98,740.59-2.61,804.99-2.4h0ZM407.61,1286.32v-25.18c1.95-2.15,5.44-.91,8.3-1.29,12.52-1.69,28.15-8.67,30-22.76,4.74-36.08-39.21-37.55-63.53-29.15l-1.15,78.38h26.38,0ZM479.56,1204.79h-29.58l-1.14,79.15c25.43-.82,49.24-3.4,74.96.02l3.39-12.07,12.22.15,3.83,11.92,27.45-3.24-21.69-75.03-31.11,1.86-21.55,72.38c-1-.67,1.6-22.63,1.6-23.97h-22.38s4-51.17,4-51.17ZM579.48,1257.95c-.18,8.92.13,17.87,0,26.78h27.58c4.36-9.3-1.71-21.86.6-32.18,0,0,24.94-40.61,24.94-40.61l.44-2.35-26.41-1.23-8.77,22.01c-1.81.33-1.27-.09-1.78-1.02-11.11-29.97-1.77-20.21-35.78-18.17.98,10.09,22.84,39.15,19.19,46.76h0Z"/>
    <path class="cls-2" d="M479.56,1204.79l-4,51.16h22.38c0,1.44-2.6,23.21-1.6,23.97l21.55-72.38,31.11-1.86,21.69,75.03-27.45,3.24-3.83-11.92-12.22-.15-3.39,12.07c-25.73-3.42-49.52-.84-74.96-.02l1.14-79.15h29.58ZM537.12,1254.35l-3.99-17.58-3.21,17.58h7.2Z"/>
    <path class="cls-2" d="M407.61,1286.32h-26.38l1.15-78.38c24.32-8.4,68.27-6.93,63.53,29.15-1.85,14.09-17.48,21.06-30,22.76-2.86.38-6.34-.86-8.3,1.29v25.18h0ZM408.42,1243.16c15.61,1.07,18.22-19.02.84-16.74l-.84,16.74Z"/>
    <path class="cls-2" d="M579.48,1257.95c3.64-7.66-18.21-36.67-19.19-46.76,33.99-2.03,24.68-11.83,35.78,18.17.51.93-.03,1.35,1.78,1.02l8.77-22.01,26.41,1.23-.44,2.35-24.94,40.61c-2.31,10.32,3.76,22.88-.6,32.18h-27.58c.13-8.91-.18-17.86,0-26.78h0Z"/>
    <polygon points="537.12 1254.35 529.92 1254.35 533.13 1236.77 537.12 1254.35"/>
    <path d="M408.42,1243.16l.84-16.74c17.39-2.28,14.76,17.82-.84,16.74Z"/>
  </g>
</svg>