<?xml version="1.0" encoding="UTF-8"?><svg id="Layer_1" xmlns="http://www.w3.org/2000/svg" xmlns:xlink="http://www.w3.org/1999/xlink" viewBox="0 0 255 438"><defs><clipPath id="clippath"><rect x="110.9" width="33.3" height="31.9" fill="none"/></clipPath><clipPath id="clippath-1"><rect x="128.2" y="395.9" width="77.3" height="42.1" fill="none"/></clipPath><clipPath id="clippath-2"><rect x="49.5" y="395.9" width="77.3" height="42.1" fill="none"/></clipPath><clipPath id="clippath-3"><rect x="193.5" y="321.2" width="61.5" height="33.3" fill="none"/></clipPath><clipPath id="clippath-4"><rect y="321.2" width="61.5" height="33.3" fill="none"/></clipPath></defs><path d="M133.1,21.9v81.6h-11.1V21.9h11.1" fill="#fff"/><path d="M133.1,21.9v81.6h-11.1V21.9h11.1Z" fill="none" stroke="#191a1b" stroke-linecap="round" stroke-linejoin="round" stroke-width="5.7"/><path d="M140.5,15.9c0,17-25.9,17-26,0,0-17,25.9-17,26,0" fill="#fff"/><g clip-path="url(#clippath)"><path d="M140.5,15.9c0,17-25.9,17-26,0,0-17,25.9-17,26,0Z" fill="none" stroke="#191a1b" stroke-linecap="round" stroke-linejoin="round" stroke-width="5.7"/></g><path d="M191.3,276.6v142.8h-48.3v-142.8h48.3" fill="#fff"/><path d="M191.3,276.6v142.8h-48.2v-142.8h48.2Z" fill="none" stroke="#191a1b" stroke-linecap="round" stroke-linejoin="round" stroke-width="5.7"/><path d="M112.1,276.6v142.8h-48.3v-142.8h48.3" fill="#fff"/><path d="M112.1,276.6v142.8h-48.2v-142.8h48.2Z" fill="none" stroke="#191a1b" stroke-linecap="round" stroke-linejoin="round" stroke-width="5.7"/><path d="M160,187.9h-65v-41.7h65v41.7" fill="#fff"/><path d="M160,187.9h-65v-41.7h65v41.7Z" fill="none" stroke="#191a1b" stroke-linecap="round" stroke-linejoin="round" stroke-width="5.7"/><path d="M186,89v-17.6h-116.9v98.3h116.9v-80.7" fill="#fff"/><path d="M69.1,169.6h116.9v-98.3h-116.9v98.3Z" fill="none" stroke="#191a1b" stroke-linecap="round" stroke-linejoin="round" stroke-width="5.7"/><path d="M210.1,286.2H45v-98.3h165.2v98.3" fill="#fff"/><path d="M210.1,286.2H45v-98.3h165.2v98.3Z" fill="none" stroke="#191a1b" stroke-linecap="round" stroke-linejoin="round" stroke-width="5.7"/><path d="M131.9,435.1c.2-46.1,70.3-46.1,70.5,0h-70.5" fill="#fff"/><g clip-path="url(#clippath-1)"><path d="M131.9,435.1c.2-46.1,70.3-46.1,70.5,0h-70.5Z" fill="none" stroke="#191a1b" stroke-linecap="round" stroke-linejoin="round" stroke-width="5.7"/></g><path d="M52.7,435.1c.2-46.1,70.3-46,70.5,0H52.7" fill="#fff"/><g clip-path="url(#clippath-2)"><path d="M52.7,435.1c.2-46.1,70.3-46.1,70.5,0H52.7Z" fill="none" stroke="#191a1b" stroke-linecap="round" stroke-linejoin="round" stroke-width="5.7"/></g><path d="M239.6,187.9v149.9h-29.4v-149.9h29.4" fill="#fff"/><path d="M239.6,187.9v149.9h-29.4v-149.9h29.4Z" fill="none" stroke="#191a1b" stroke-linecap="round" stroke-linejoin="round" stroke-width="5.7"/><path d="M44.9,187.9v149.9H15.4v-149.9h29.4" fill="#fff"/><path d="M44.9,187.9v149.9H15.4v-149.9h29.4Z" fill="none" stroke="#191a1b" stroke-linecap="round" stroke-linejoin="round" stroke-width="5.7"/><path d="M112,118.4h-19v-19h19v19" fill="#191a1b"/><path d="M158.5,147h-62.6v-8.6h62.6v8.6" fill="#191a1b"/><path d="M102,219.7h-32.9v-4.8h32.9v4.8" fill="#191a1b"/><path d="M102,229.5h-32.9v-4.8h32.9v4.8" fill="#191a1b"/><path d="M102,239.4h-32.9v-4.8h32.9v4.8" fill="#191a1b"/><path d="M102,249.2h-32.9v-4.8h32.9v4.8" fill="#191a1b"/><path d="M102,259.1h-32.9v-4.8h32.9v4.8" fill="#191a1b"/><path d="M194.1,259.1h-77.3v-44.2h77.3v44.2" fill="#191a1b"/><path d="M197.6,351.4c.6-35.8,53.8-35.7,54.4,0h-54.4" fill="#fff"/><g clip-path="url(#clippath-3)"><path d="M197.6,351.4c.6-35.8,53.8-35.7,54.4,0h-54.4Z" fill="none" stroke="#191a1b" stroke-linecap="round" stroke-linejoin="round" stroke-width="5.7"/></g><path d="M2.9,351.4c.6-35.8,53.8-35.7,54.4,0H2.9" fill="#fff"/><g clip-path="url(#clippath-4)"><path d="M2.9,351.4c.6-35.8,53.8-35.7,54.4,0H2.9Z" fill="none" stroke="#191a1b" stroke-linecap="round" stroke-linejoin="round" stroke-width="5.7"/></g><path d="M162,118.4h-19v-19h19v19" fill="#191a1b"/></svg>