<?xml version="1.0" encoding="UTF-8"?><svg id="Layer_1" xmlns="http://www.w3.org/2000/svg" xmlns:xlink="http://www.w3.org/1999/xlink" viewBox="0 0 163 122"><defs><clipPath id="clippath"><rect width="163" height="66.3" fill="none"/></clipPath><clipPath id="clippath-1"><rect y="17" width="163" height="105" fill="none"/></clipPath></defs><g clip-path="url(#clippath)"><path d="M3.6,65c-3.4.1-5-4.8-2-6.7,0,0,87.4-57.7,87.4-57.7.9-.6,1.9-.8,2.9-.5,0,0,68.4,18.2,68.4,18.2,3.5.8,3.5,6.2,0,7-.9.1-155.8,39.7-156.6,39.6ZM91.6,7.6L23.5,52.6l121.5-30.8-53.3-14.2Z"/></g><g clip-path="url(#clippath-1)"><path d="M5.2,122c-1.9,0-3.6-1.6-3.6-3.5,0,0-1.5-57-1.5-57,0-2,1.5-3.7,3.5-3.7,1.9,0,3.7,1.5,3.7,3.5l1.4,53.2,146-10.9s1.1-81.7,1.1-81.7c0-4.7,7.4-4.6,7.3,0,0,0-1.1,85.1-1.1,85.1,0,1.9-1.5,3.4-3.4,3.6-.3,0-153.1,11.4-153.4,11.4Z"/></g><path d="M78.8,80.6c-18.1,0-18.1-27.7,0-27.8,18.1,0,18.1,27.7,0,27.8ZM78.8,60.1c-8.6-.1-8.6,13.4,0,13.3,8.6.1,8.6-13.4,0-13.3Z"/><path d="M121.4,101.5c-18.2,0-18.1-27.7,0-27.8,18.1,0,18.1,27.7,0,27.8ZM121.4,81c-8.6-.1-8.6,13.4,0,13.3,8.6.1,8.6-13.4,0-13.3Z"/><path d="M132.2,65c-12.8.2-12.8-20,0-19.8,12.8-.2,12.8,20,0,19.8ZM132.2,52.5c-3.4,0-3.4,5.3,0,5.3,3.4,0,3.4-5.3,0-5.3Z"/><path d="M32.3,92.3c-12.8.2-12.8-20,0-19.8,12.8-.2,12.8,20,0,19.8ZM32.3,79.8c-3.4,0-3.4,5.3,0,5.3,3.4,0,3.4-5.3,0-5.3Z"/><path d="M60.4,110.2c-12.8.2-12.8-20,0-19.8,12.8-.2,12.8,20,0,19.8ZM60.4,97.7c-3.4,0-3.4,5.3,0,5.3,3.4,0,3.4-5.3,0-5.3Z"/></svg>