<?xml version="1.0" encoding="UTF-8"?><svg id="Layer_1" xmlns="http://www.w3.org/2000/svg" viewBox="0 0 317.6 94.1">

<g id="classicThemeChristmasBallIcon"><path d="M45.6,29.2c38.6,18.1,16.8,75.6-27,56.5C-12.4,74.6-1.8,29.4,28.9,26.8c.7-7.2,1.3-7,8.2-6.6-3.2-4.7-10.7-8.7-12.5-14.2-2.2-6.3,3.7-8.4,7.5-3,3.4,4.8,4.9,11.7,6.6,17.3,7.5,1.5,8.3.7,6.9,8.7h0ZM37.4,19.1c-1.6-4.6-4.9-20.7-11.3-18-5.3,5.4,8.4,14.4,11.3,18h0ZM44.6,23.5c-4-1.9-8.8-1.8-13.1-2-.3,0-1.9,5.6-.6,5.1,4.4,0,9.2.3,13.4,1.9.1-1.7.5-3.4.3-5.1h0ZM16.7,32.6c10.7,1.5,22.6,4,33.1.3-9.1-6.1-24.3-6.6-33.1-.3h0ZM54.7,36.8c.1-.7-2.7-2.5-3.1-2.6-7.6,1.9-15.1,2.6-23,1.7s-9-1.6-13.5-2.1c-1,0-4.4,2.6-4.5,3.3,14.1,4.4,30,3.4,44.1-.3h0ZM62.5,48.5c-1.2-4.1-3.6-7.7-6.6-10.8-14.7,4.3-32,5.1-46.6.4-.9.1-6.3,8.8-6.2,10.1s3.3,5,3.9,5,4-3.1,4.6-3.8,1.9-3.1,2.8-2.8c9.9,11.3,3.6,12.6,12.9,2.4,1.5-1.3,8.6,8.6,10.3,8.4,9.4-13.7,3.1-11.8,16-3.3,1-.1,4.6-9.8,5.7-9.1.7.1,2.4,3,3.2,3.5h0ZM63.1,64.5c1.5-5.4,1.3-16.2-4-18-6.8,12-3,10.4-14.5,1.9-8.1,11.3-4.2,13.9-15.2,2.7-1.7-1.5-1.3-1.5-2.2-.7-7.7,10.7-5,7.7-12.8-2.7-.7,0-1.2,1.6-1.8,2.1-.8.8-4.5,4.4-5.4,4.6-1.1.6-4-4.5-4.7-4.9-1.4,4.8-4.5,18,4.4,13-4-3.5.1-9.4,2.8-4.1,1.2,3.7.1,2.6-.6,4.2,2.5,1.8,6.2,3.2,9.1,1.6-5-5.3,2.2-9.7,3-1.9-.3,2.4-.7,1.6-.5,2,3,2.1,6.9,3,9.8.3-4.5-5.9.9-7.5,2.1-2.4.2,1.3-.5,1.8.4,2.4,2.2,1.1,8.4,3.1,9.9.1-1.5-.6-3.8-3.7-2.1-5s4.8,2.6,3.8,4.6c3.3,1.5,9.2,4.7,10.7-.6-8.2-5.4,1.7-9.3,1.7-.5,2,.7,3.9,1.8,6,1.5h0c0,0,0,0,0,0ZM7.1,57.7c-.9.3.1,3.2.9,3.6.9-.8.5-4.1-.9-3.6ZM19.6,63c.6-1.3.5-3.7-1.3-3.8-.8,1.4,0,3,1.3,3.8ZM55.5,61.8c0-1.1-.6-2.7-1.9-2.7,0,1.2,1,2.1,1.9,2.7ZM43.3,63c0-1-.4-2.5-1.5-2.5-.2,1,.7,2.1,1.5,2.5ZM56.5,64.3c-1.7,5.9-8.3,3.2-12.1,1.2-2.6,3.3-9.3,1.8-12.5-.2-3.3,3.6-9.8,2.2-12.2-.2-3.6,2-8.3.9-11.4-1.7-2,1.3-4,1.5-6.3,1.1.6,1.9,2.2,7.8,3.7,8.7,2.7,1.6,7.9,1,8.6-2.6.7-3.6-.1-2.2.8-1.6s.8,2.7,1.1,3.3c1.5,3.9,8,4.8,9.9.7.8-2.3-.1-1.2.5-1.2s1,1.6,1.4,2.2c2.7,3.5,11.5,2.4,10.7-2.6.5-1.4,1.5,1.7,2,2.4,2.7,3.6,8.9,3.2,10.4-1.2.2-.5.4-3,1.1-2.1,1.3,2.5,4.5,5.9,7.3,5.2,1.1-2,3.1-7.5,3.3-9.7-2.2-.1-4.3-1-6.3-1.7h0ZM27.8,75.3c-.2-.2-1-1.4-1.1-1.4-3,4.6-10.6,3.3-11.7-2.1-1.4,2.8-6.1,4-8.4,2.8,7,13.9,42.9,19.7,52.2,2.3-3-.6-5.1-2.1-6.7-4.7-1.2,6.3-10.2,6.6-12.7,1.1-1.2,4.4-8.5,4.6-11.5,2h0Z"/><path d="M19.6,63c-1.3-.7-2.1-2.4-1.3-3.8,1.8.1,2,2.5,1.3,3.8Z" fill="#fff"/><path d="M8.9,62c1.4-.5,1.9,2.8.9,3.6-.8-.4-1.9-3.3-.9-3.6Z" fill="#fff"/><path d="M20.6,45.4c1.5-.3,2.7,2.2.6,2.6s-2.2-2.3-.6-2.6Z"/><path d="M9.1,47.8c1.4-.3,2.1,1.8.9,2.2-2.1.7-2.6-1.9-.9-2.2Z"/><path d="M32.1,79.3c1.5-.3,2.4,2.2.5,2.4s-2-2.1-.5-2.4Z"/><path d="M21.2,80.2c-.7.7-2.6.2-2-1.3s3.1.1,2,1.3Z"/><path d="M51.7,42.5c2.8-.6,3.2,3.7,0,3-1.6-.4-1.4-2.7,0-3Z"/><path d="M35.3,45.2c1.8-.2,2.9,2.4,1,2.9-2.9.9-3.1-2.6-1-2.9Z"/><path d="M45.8,78.8c1.9-.5,3.1,3,.2,2.6s-1.3-2.3-.2-2.6Z"/></g>

<g id="classicThemeGingerbreadIcon2"><path d="M228.8,80.6c0,0,2.1-1,2.4-1,2.7-.8,3.9,2.7,1.5,4-1,.6-2.1.9-3,1.6-2.2,1.7,2.7,4.3,2.6,6.5.1,1.7-1.1,2.7-2.8,2.4-1.7,0-3.7-5.5-5.2-4-1.6,1.4-3.4,4.9-6,3.9-1.2-.4-1.8-1.9-1.4-3.1.1-1.2,5.3-4.1,3.8-5.2-1.5-1.4-5.4-3-4.3-5.7,1.3-2.5,3.8-.2,5.4.7-3.1-8,11.3-8.4,7,0h0ZM229.5,80.9c-.8,0-2.9,1.5-1.2-.6,4-7.8-9.4-6.8-5.9.2,1.6,2.1-1.9-.2-2-.2l-1.8,3c3.2,2.6,4.4,2.2.6,5.8l2.8,2.6c2.6-2.4,2.5-4.2,5.4-.5l2.8-2.2c-2-2.8-2.7-3.7.7-5.3l-1.4-2.9h0ZM219,79.4c-1.8-.7-2.9,1.1-1.9,2.6l1.9-2.6ZM220,80l-.6-.3-1.9,2.6c0,.2.5.5.6.7.2-.4,1.9-2.9,1.8-3h0ZM232.5,83.1c2-.9.8-3.9-1.3-2.9l1.3,2.9ZM230.7,80.4l-.7.3h0c0,0,1.4,2.9,1.4,2.9l.6-.2h0c0,0-1.3-3-1.3-3h0ZM218.8,89.5l-.5.5,2.9,2.7.5-.5s-2.9-2.7-2.9-2.7ZM230.5,89.5l-2.8,2.3.4.5,2.8-2.3-.4-.5h0ZM220.8,93l-2.8-2.7c-1.9,1.9.8,4.5,2.8,2.7ZM231.2,90.4l-2.7,2.3c1.8,2.3,4.7,0,2.7-2.3h0Z"/><path d="M227.7,77.6c0,1.1-1.7,1.1-1.7,0,0-1.1,1.7-1.1,1.7,0ZM227.2,77.6c0-.5-.7-.5-.7,0,0,.5.7.5.7,0Z"/><path d="M224.6,77.6c0,1.1-1.7,1.1-1.7,0,0-1.1,1.7-1.1,1.7,0ZM224.1,77.6c0-.5-.7-.5-.7,0,0,.5.7.5.7,0Z"/><path d="M224.4,79.5c.4,0,.3.6.7.7.7.2.6-.9,1.1-.5s-.2.8-.4.9c-.6.7-2.2-.7-1.4-1Z"/><path d="M225.1,82.2c.8,0,.8,1.2,0,1.2-.8,0-.8-1.2,0-1.2Z"/><path d="M225.1,84.2c.8,0,.8,1.2,0,1.2-.8,0-.8-1.2,0-1.2Z"/><path d="M225.1,86.3c.8,0,.8,1.2,0,1.2-.8,0-.8-1.2,0-1.2Z"/></g>


<g id="classicThemeGingerbreadIcon1"><path d="M305.7,57.8c.2.2,4.8-2.2,5.5-2.4,6.3-1.8,8.9,6.1,3.4,9.1-2.3,1.3-4.7,2-6.9,3.7-5.3,3.2,6.2,10.2,6,14.8.3,3.8-2.6,6.2-6.3,5.4-2.9-.6-6.2-6.2-8.4-8.4s-1.9-2.1-3.4-.8c-3.7,3.1-7.7,11.1-13.6,8.9-2.7-1-4.2-4.4-3.2-7.1.3-2.7,12.1-9.4,8.6-11.8-3.5-3.2-12.3-6.8-9.8-13,3-5.8,8.6-.6,12.2,1.5-7.1-18.2,25.8-19.2,15.9.1h0ZM307.5,58.5c-1.7.2-6.5,3.4-2.7-1.3,9.2-17.7-22.4-16.3-12.7,2.5-1.1.3-5-2.6-5.3-2.5l-4.2,6.8c7.3,6,10,5,1.3,13.3l6.4,6c5.9-5.5,5.7-9.5,12.4-1.1l6.3-5.1c-4.6-6.4-6.2-8.4,1.6-12.1l-3.1-6.6h0ZM283.6,55.1c-4.1-1.6-6.6,2.6-4.4,6l4.4-6ZM285.7,56.4l-1.3-.7-4.3,6c-.1.4,1.1,1.2,1.4,1.5.4-.8,4.4-6.5,4.2-6.9h0ZM314.1,63.4c4.6-2.1,1.9-8.9-2.9-6.7l2.9,6.7ZM310.2,57.2l-1.6.6v.2c-.1,0,3,6.5,3,6.5l1.3-.5v-.2c.1,0-2.8-6.6-2.8-6.6h0ZM282.9,78l-1,1.1,6.5,6.3,1-1.1s-6.5-6.3-6.5-6.3ZM309.7,78l-6.5,5.2,1,1.2,6.5-5.2-1-1.2h0ZM287.5,86l-6.4-6.2c-4.3,4.4,1.8,10.2,6.4,6.2ZM311.2,80.1l-6.3,5.2c4.2,5.2,10.7,0,6.3-5.2h0Z"/><path d="M303.3,51c0,2.5-3.8,2.5-3.9,0,0-2.5,3.8-2.5,3.9,0ZM302.1,51c0-1-1.6-1-1.6,0,0,1,1.6,1,1.6,0Z"/><path d="M296.3,51c0,2.5-3.8,2.5-3.9,0,0-2.5,3.8-2.5,3.9,0ZM295.2,51c0-1-1.6-1-1.6,0,0,1,1.6,1,1.6,0Z"/><path d="M295.8,55.3c.8-.2.6,1.3,1.6,1.6,1.6.4,1.5-2,2.5-1.2s-.4,1.7-.9,2c-1.2.7-2.7.4-3.3-.9-.6-1.2-.6-1.3.2-1.5Z"/><path d="M297.5,61.3c1.8,0,1.8,2.8,0,2.7-1.8,0-1.8-2.8,0-2.7Z"/><path d="M297.5,66c1.8,0,1.8,2.8,0,2.7-1.8,0-1.8-2.8,0-2.7Z"/><path d="M297.5,70.7c1.8,0,1.8,2.8,0,2.7-1.8,0-1.8-2.8,0-2.7Z"/></g>


<text id="classicThemeChristmasText" transform="translate(69.3 70.7) scale(1 1)" font-family="Luckiest Guy, ArialMT, Arial" font-size="43.2"><tspan x="0" y="0">Christmas</tspan></text></svg>