<?xml version="1.0" encoding="UTF-8"?><svg id="Layer_1" xmlns="http://www.w3.org/2000/svg" viewBox="0 0 257.1 351"><path d="M179.9,115c72.2,25,94.9,112.4,63.3,177.5-29.1,68.3-109.1,67.1-169.7,45.1C-48.7,294.2-6.9,115.8,113.9,105.8c2.7-28.3,5.2-27.6,32.2-25.9-12.8-18.5-42-34.4-49.3-55.9-8.5-24.8,14.4-33.2,29.7-11.7,13.5,19,19.5,46.3,26,68.4,29.5,6,32.6,2.8,27.4,34.4h0ZM147.6,75.4c-6.2-18.1-19.3-81.5-44.5-71-20.7,21.1,33.1,56.7,44.6,71h-.1ZM175.9,92.7c-15.7-7.6-34.7-7.2-51.8-7.7-1.2-.3-7.3,21.9-2.3,20.2,17.4-.3,36.4,1,52.8,7.5.4-6.7,2-13.4,1.3-20.1h0ZM65.9,128.5c42.2,5.8,89.1,15.9,130.5,1.1-35.9-24-96-26.2-130.5-1.2h0ZM215.8,145c.4-2.7-10.6-9.8-12.4-10.4-30.1,7.4-59.7,10.3-90.6,6.6s-35.5-6.2-53.4-8.2c-4,.1-12.9,7.9-16.1,10.9s-1.6,1.2-1.5,2.2c55.6,17.5,118.2,13.6,174-1.1ZM246.6,191.4c-4.7-16.1-14.2-30.5-25.9-42.4-50.3,15.7-105.2,17.1-157.2,9.1-11.9-2.4-17.8-4.9-26.6-7.6-3.5.4-24.7,34.8-24.4,39.7s13.2,19.9,15.4,19.9,15.7-12.4,18-15,7.6-12.1,11.1-11.1c38.9,44.6,14.1,49.7,51,9.4,5-2.2,4.7.5,6.9,2.4,5.4,4.5,29.1,30.6,33.7,30.7,37.2-54.2,12.2-46.6,62.9-12.9,3.8-.5,18-38.6,22.5-35.9,2.8.4,9.5,11.8,12.6,13.7ZM248.7,254.2c4-15.4,4.6-44-1.6-56.3-3.1-3.9-13.2-18.7-14.3-14.5-26.7,47.3-11.7,40.9-57.2,7.3-32.1,44.6-16.5,54.7-59.9,10.5-6.8-6-5.2-5.9-8.6-2.6-5.1,4.2-17.3,27.7-23.5,27.3-2.2-.7-24.2-33.3-26.8-38.1-2.6-.3-4.8,6.3-7.1,8.3-3,3.3-17.6,17.5-21.1,18s-2.8-.2-3.9-1c0,0-14.5-18.5-14.5-18.5-5,13-8.4,41.8-4.4,52.6,1.4,4,18.8,2.4,21.6-1.4-15.6-13.9.4-37.2,10.9-16.1,4.9,14.6.4,10.4-2.3,16.5,9.9,7,24.3,12.7,35.7,6.3-19.7-20.8,8.5-38.2,12-7.5-1.1,9.5-2.8,6.5-1.9,7.9,11.7,8.2,27.3,11.9,38.7,1.1-17.7-23.1,3.5-29.6,8.2-9.6.7,5.2-2,7.2,1.6,9.6,8.7,4.3,33.3,12.3,38.9.5-5.8-2.5-14.8-14.4-8.3-19.9s18.8,10.4,15.1,18.3c13,6,36.4,18.5,42-2.5-32.3-21.3,6.6-36.7,6.8-2,7.7,2.6,15.3,7,23.8,6v-.2ZM28.1,227.4c-3.7,1.2.4,12.7,3.7,14.2,3.7-3.1,2.1-16-3.7-14.2ZM77.1,248.3c2.5-5,1.8-14.5-5.2-14.9-3,5.7,0,12,5.2,14.9ZM218.8,243.8c0-4.2-2.5-10.7-7.5-10.5-.3,4.8,3.9,8.1,7.5,10.5ZM170.8,248.3c.2-3.8-1.4-9.8-6-9.7-.6,4,2.6,8.1,6,9.7ZM222.6,253.5c-6.7,23.1-32.8,12.6-47.8,4.6-10.2,12.9-36.8,6.9-49.4-.9-13.2,14.1-38.5,8.5-48.2-.6-14.2,7.7-32.8,3.7-44.9-6.8-7.8,5.3-15.8,6-25,4.4,2.3,7.3,8.5,30.6,14.7,34.3,10.5,6.4,31.1,4,34-10.1,2.9-14.1-.5-8.7,3.1-6.3s3.1,10.7,4.4,13.2c5.9,15.2,31.5,18.9,39,2.7,3.3-9.2-.5-4.7,2.1-4.7s4,6.5,5.6,8.6c7.3,9.2,26.2,10.4,35.5,4s4.6-8.8,6.5-14.4,6.1,6.8,7.9,9.3c10.5,14,35,12.8,41-4.7.6-1.8,1.4-11.7,4.4-8.3s4,7.3,6.7,10.4c4.2,4.7,9.6,8.2,15.7,9.8s5.1,1.6,6.4.4c4.5-7.9,12.2-29.6,13.1-38.1-8.8-.5-16.8-3.9-24.8-6.8ZM109.6,296.7c-.9-.8-4-5.7-4.4-5.7-11.7,18.2-41.6,13.1-46.1-8.2-5.6,11-24.1,15.9-33.2,11.1,27.7,55,169.1,77.5,205.8,8.9-11.8-2.3-20.3-8.3-26.6-18.4-4.7,24.7-40.1,26-50.2,4.5-4.9,17.2-33.7,18.3-45.3,7.8Z"/><path d="M77.1,248.3c-5.2-2.9-8.2-9.3-5.2-14.9,7,.4,7.7,9.9,5.2,14.9Z" style="fill:#fff;"/><path d="M28.1,227.4c5.7-1.9,7.4,11.1,3.7,14.2-3.3-1.5-7.3-13-3.7-14.2Z" style="fill:#fff;"/><path d="M218.8,243.8c-3.6-2.4-7.8-5.7-7.5-10.5,4.9-.2,7.4,6.2,7.5,10.5Z" style="fill:#fff;"/><path d="M170.8,248.3c-3.4-1.6-6.6-5.7-6-9.7,4.6,0,6.2,5.9,6,9.7Z" style="fill:#fff;"/><path d="M203.7,167.6c10.9-2.2,12.6,14.6,0,11.7-6.3-1.4-5.4-10.6,0-11.7Z"/><path d="M139.1,178.1c7-.9,11.3,9.3,4,11.5-11.6,3.6-12.4-10.4-4-11.5Z"/><path d="M81.4,178.8c5.8-1,10.6,8.7,2.5,10.1s-8.7-9-2.5-10.1Z"/><path d="M28.9,171.3c5.7-1.1,8.3,7.2,3.4,8.7-8.4,2.6-10.3-7.5-3.4-8.7Z"/><path d="M180.4,310.5c7.3-1.9,12.4,12,.6,10.3s-5-9.2-.6-10.3Z"/><path d="M126.4,312.8c6-1.1,9.6,8.6,1.9,9.5s-7.9-8.4-1.9-9.5Z"/><path d="M83.7,316.2c-2.7,2.7-10.2.6-7.7-5s12.3.4,7.7,5Z"/></svg>