<?xml version="1.0" encoding="UTF-8"?><svg id="Layer_1" xmlns="http://www.w3.org/2000/svg" viewBox="0 0 281.2 285.7"><path d="M89.8,5.8c1.3,2.9-.6,12-.6,15.6l1.5-.8c.9,22.5-1.8,45.2-.8,67.8l101.3-.4c1.4-1.8-1.7-28.1,1.6-20.6,0-1.1-1.6-2.4-1.5-3.7,5.6-18,2.1-39.4,5.2-58,4.6,5.6-.3,15.5,3.7,22.9l-2.2,60.2h83.2c-27,5.8-55.1,4.9-82.6,5.7v102.1l81.9,1.1-82.5,4.9v83.1c-5.4-27.2-5.4-55.4-5.2-83.1l-103.5,1.5-.4,81.6-4.9-81.6L0,198.8c3-4.6,11.1-1.4,15.8-1.5l-.8-1.5c22.9,0,46.1-.4,69,1.5l-1.7-101.6L.7,89.2c2.7-3.5,9.1,0,13.1-.4,22.9-1.1,45.6-1.5,68.6-.1,2.9-24,1.8-49.5,5.3-73.7,2.5-21.8-.6-15.1,2.1-9.2h0ZM191.2,93.9l-101.2,1.6v100.9h102.7l-1.5-102.6h0Z"/><path d="M56,226.5c2.7,5.3-11.6,19.6-11.1,20.8l15.4,10.5c.9,18.4-20.1-3.3-21.7-3-3.1.6-6.5,16.3-15.6,14.8s-5.6-4.1-5.9-4.6c-2.1-3.7,7.7-5.7,3.8-6.8,4.2-1.5-.5-3.4,3.5-3.6l5.5-6.2c-.6-4-17.2-8.4-15.5-16.1s3.2-2.1,3.4-2.3c.5-.5-.9-4.2,3.3-4.3s3.7,4.3,4.4,4.9,3.6.4,4.3.9-.8,1.2-.6,1.3c1.1.9,7.2,6.2,7.7,6.2,4.6-1,11.3-22.7,19.1-12.5Z"/><path d="M52.9,17.9c10.7,3.7-8,20.3-8,21.8,0,3.2,23.1,10.7,13.1,18.4-4.6,3.5-17.8-10-19.4-9.6-3.4.7-7.8,17.5-16.2,14.5s-1.4-3.2-1.5-3.3c-.3-.2-1.7.9-2.7,0-7.5-5.8,10.2-6.7,3.4-9.4.4-.9,8.3-7.5,8.2-9-.2-2.3-15.7-8.4-15.6-14.2s4.2-7.4,5.7-7.7c5.4-1.1,4.4,4.6,4.7,5.1s1.8-1,2.8-.2c1.9,1.5,8.1,8.9,10.2,8.5l11.3-15c1.2-.7,2.7,0,3.9.3v-.2Z"/><path d="M263.9,121.6l-5.2,3c3.8-.8,9.1-.2,11.2,3l-3.7.7,2.2,1.5c-7.8-1.7-29.6,2.6-30.8,11.6-1.7,12.7,8.2,21.8,20.3,20.6-1.8-2.7,1-.8,2.4-1.7,5.2-3,8.7-8.9,8.5-15.1-.2-5.1-7-13.1.7-10.9s5.7,7.5,6.1,10.4c2.9,24.1-31.9,34.1-42.8,12-12.2-24.7,10-35,31.1-35.2h0Z"/><path d="M152.1,121.6l-5.2,3,9.8.8c-1.9,2.8,1,.4,1.5,2.2l-4.5.4,3,1.9c-4.7-1.7-9.3,1.3-13.5-.7l.4,1.5c-27.5,1.9-20.8,32.9,2.6,31.4-2.2-1.9,3-1.9,4.1-2.9,5.4-4.9,6.9-8.6,6.3-16.1-.1-1.5-3.6-8.2-2.9-8.6s8.8,7,1.1-1.5c11.9,4,10.7,21.4,3,29.2-37.7,29.6-64.6-44.1-5.7-40.4v-.2Z"/></svg>