<?xml version="1.0" encoding="UTF-8"?><svg id="classicThemeClassic" xmlns="http://www.w3.org/2000/svg" viewBox="0 0 354 95.2">

<g id="classicthemeStarIcon"><path d="M337.5,25.3c-1.3.9-3,3.1-4.4,5.8-1.1,2.1-1.3,3.1-.8,3.1s6.4-6.5,7.4-8.3c.3-.6.3-.8,0-1-.6-.4-1-.3-2.1.4Z" style="fill-rule:evenodd;"/><path d="M316.1,3.5c-.7.5-.7,3.5.1,6.3,1,3.5,1.6,2.7,1.7-2,0-4-.5-5.3-1.8-4.3Z" style="fill-rule:evenodd;"/><path d="M295.3,31.6c-.8.3-.3,1.3,1.6,3.1,3.7,3.5,6,5,6,4.1s-4-5.6-5.5-6.7c-1.2-.8-1.4-.9-2.1-.6Z" style="fill-rule:evenodd;"/><path d="M331.7,64.2c0,.7,3.9,3.8,5,4.1,1.3.3,1.6-.4.6-1.5-.8-.8-3.6-2.4-4.9-2.9-.5-.2-.7,0-.7.3Z" style="fill-rule:evenodd;"/><path d="M302.3,68.3c-2,2.3-3.1,4.3-2.6,5,.2.3.5.6.6.6.6.2,2-1.3,3-3.4,1.9-4,1.4-5-1-2.2Z" style="fill-rule:evenodd;"/><path d="M279,53.7c-1.2.3-1.3.7-.3,1.2,1.2.7,9.1-.1,9.1-.9s-7.1-.8-8.8-.3Z" style="fill-rule:evenodd;"/><path d="M316.7,19.2c-.1.2-.3,2.3-.4,4.6-.4,7.7-2.7,15.7-5.7,20.2-1.9,2.8-4.2,4.6-8.8,7-2.9,1.5-3.7,2.1-3.8,2.6,0,.7,0,.7,1.8.6,1.1,0,2.2,0,2.6.3.4.2,1.7.6,2.9.8,2.6.6,4.3,1.4,6.2,3.4,2.7,2.7,4,6.3,5.9,15.4.6,3.1,1.2,5.8,1.4,6.1.6,1.1,2.5,1,2.9-.2,0-.3.9-4.1,1.7-8.4,2.1-10.4,3-13.2,5-15.3,1.7-1.8,4-2.7,8.1-3,2.3-.2,3.1-.6,3.1-1.6s-.5-1.1-3.1-1.7c-3.3-.8-6.9-2.1-8.6-3.2-4.7-3-6.6-7.6-8.1-20-.5-3.5-.9-6.7-1.1-7.1-.3-.7-1.6-1-2.1-.3h0ZM320.3,41.3c1.8,4.2,4.2,6.8,8.3,8.7,1.2.5,2.1,1,2.1,1.1s-.6.4-1.4.7c-4.2,1.8-6.4,5.9-8.3,16.3-.5,2.3-.9,4.2-1,4.1,0,0-.6-2-1.2-4.3-1.3-5.3-2.9-8.6-5.2-11-2.2-2.2-4.2-3.5-6.8-4.1l-2-.5,2-1.3c4.5-2.8,7.8-7.6,9.8-14.2.6-1.8,1-3.5,1.1-3.7s.5.9.9,2.7,1.1,4.1,1.7,5.4Z" style="fill-rule:evenodd;"/><path d="M348.3,49.3c-.9.2-1.9.4-2.3.6-.6.3-.6.4-.1.8,1.3,1,6.6,1.4,7.7.6.6-.5.5-1.6-.3-1.9-.9-.3-3.4-.4-5-.2Z" style="fill-rule:evenodd;"/><path d="M321.1,86.6c-.7,1.8-1.5,5.7-1.4,7.1,0,1.1.2,1.4.7,1.4,1.2.2,1.5-.7,1.6-4.8,0-4.3-.2-5.6-1-3.8Z" style="fill-rule:evenodd;"/></g>

<text id="classicThemeClassicText" transform="translate(100.1 60)" style="font-family:Luckiest Guy, ArialMT, Arial; font-size:43.2px;"><tspan class="classicThemeClassicText" x="0" y="0">CLASSIC</tspan></text>



<g id="classicThemeHeartIcon"><path d="M77.9,4c-1.3.5-2.6,1.2-3.7,2.1-2,1.5-3.7,3.4-5.2,5.3-.5.5-.9,1.1-1.4,1.6-2.4,2.7-5.1,4.5-8.4,5.5.9-4.7.3-9.4-1.8-13.7-1-2.1-2.2-3.4-3.6-4.2-.9-.5-2-.7-3-.6-1.1.1-2.1.6-2.7,1.4-.7.8-.9,1.9-1,2.8-.3,2.3-.3,4.7.2,7-.2,0-.5-.2-.8-.2-.7-.2-1.5-.5-2.2-.7-2-.5-3.7-.4-5.1.2-1.6.7-3.1,2.5-2.7,4.6.3,1.6,1.7,3,3.9,3.9,3,1.2,6.2,1.7,8.7,1.9,2.9.3,5.4.2,7.7-.1-.2.7-.5,1.4-.8,2-2.3,5.4-6.7,9.5-12.1,11.1-1.4.4-2.8.8-4.3,1.3-6.5,1.9-13.8,4.1-20.5,7.4-7.8,3.9-13,8.5-16.1,14.2C1.2,60.2.2,64,0,68.1c-.2,4.4.6,9.3,2.2,14.6.1.5.6.7,1.1.6,0,0,0,0,.1,0,.4-.2.6-.6.5-1.1-3.1-9.7-2.9-17.9.6-24.5,6.4-12.2,22.5-16.9,35.5-20.7,1.5-.5,3-.9,4.4-1.3,5.8-1.8,10.6-6.2,13.2-12.1.4-1,.8-2.1,1.1-3.1.4,0,.8-.2,1.1-.3,3.5-1.1,6.5-3,9.1-5.9.5-.6,1-1.1,1.4-1.7,1.6-1.9,3.1-3.6,5-5,1-.8,2.1-1.4,3.3-1.9.4-.2.7-.7.5-1.1-.2-.4-.7-.7-1.1-.5ZM57.2,18.9c-2.4.5-5.1.5-8.1.3-3.4-.3-6-.9-8.2-1.8-1.2-.5-2.7-1.3-2.9-2.6-.2-1.1.7-2.2,1.6-2.7h0c1-.5,2.4-.5,4-.1.7.2,1.4.4,2.1.6.8.2,1.5.5,2.3.7.3,0,.6,0,.8-.3.2-.2.3-.6.2-.9-.7-2.5-.9-5.2-.5-7.7.1-.7.3-1.4.7-2,.8-1,2.4-1,3.5-.4,1.1.6,2,1.7,2.8,3.4,2,4.1,2.5,8.8,1.5,13.4ZM87.4,3.9c0,.3-.2.6-.5.7-.2,0-.3,0-.5,0-.5,0-1.1-.1-1.6-.1-.5,0-.9-.4-.9-.9,0-.5.4-.9.9-.9.6,0,1.2,0,1.8.2.5,0,.8.5.8,1Z" style="fill:#1c1c1c;"/></g></svg>