<?xml version="1.0" encoding="UTF-8"?><svg id="Layer_1" xmlns="http://www.w3.org/2000/svg" xmlns:xlink="http://www.w3.org/1999/xlink" viewBox="0 0 379.6 113.9"><defs><clipPath id="clippath"><rect x="341.1" y="21.7" width="2.7" height="9.4" style="fill:none;"/></clipPath><clipPath id="clippath-1"><rect x="370.4" y="67.1" width="9.2" height="4" style="fill:none;"/></clipPath><clipPath id="clippath-2"><rect x="303.6" y="71.1" width="10.8" height="2.7" style="fill:none;"/></clipPath><clipPath id="clippath-3"><rect x="345.1" y="103.1" width="4" height="10.6" style="fill:none;"/></clipPath><clipPath id="clippath-4"><rect x="19.8" y="13.8" width="89.3" height="84" style="fill:none;"/></clipPath><clipPath id="clippath-5"><rect x="6.4" y="21.2" width="111" height="55" transform="translate(-14.9 31.4) rotate(-25.5)" style="fill:none;"/></clipPath><clipPath id="clippath-6"><rect x="6.4" y="21.2" width="111" height="55" transform="translate(-14.9 31.4) rotate(-25.5)" style="fill:none;"/></clipPath><clipPath id="clippath-7"><rect x="6.4" y="21.2" width="111" height="55" transform="translate(-14.9 31.4) rotate(-25.5)" style="fill:none;"/></clipPath></defs><g style="clip-path:url(#clippath);"><path d="M341.8,22c-.7.5-.7,3.5.1,6.3,2,8.4,2.8-9.7-.1-6.3Z" style="fill-rule:evenodd;"/></g><path d="M342.4,37.6c-.4,7.5-2.3,19.9-6.2,24.8-2.6,6-20.8,10.4-8.1,10.6,18.9,1.5,12.5,32.2,19.2,25.4.5-3.7,5.1-24.9,6.8-23.8,1.7-1.8,4-2.7,8.1-3,4.1-.3,4.5-2.6,0-3.4-3.3-.8-6.9-2.1-8.6-3.2-9.6-3.8-6.7-31.2-11.3-27.4h0ZM345.9,59.8c1.7,4.9,6.2,7.8,10.5,9.8-5.5,2.3-7.5,5.5-9.7,17-.5,2.3-.9,4.2-1,4.1-1.9-8.7-5.8-18.9-15.2-19.8,16.2-8.5,10.1-30,15.4-11.2Z" style="fill-rule:evenodd;"/><path d="M363.1,43.8c-1,.4-6.4,7.4-5.2,8.8,0,.7,12.4-12.2,5.2-8.8Z" style="fill-rule:evenodd;"/><path d="M320.9,50.1c-.8.3-.3,1.3,1.6,3.1,3.7,3.5,6,5,6,4.1-.4-1-5.1-8.1-7.6-7.2Z" style="fill-rule:evenodd;"/><g style="clip-path:url(#clippath-1);"><path d="M374,67.8c-7.6,1.4,3.9,3.3,5.3,2,1.7-2.7-3.3-2.3-5.3-2Z" style="fill-rule:evenodd;"/></g><g style="clip-path:url(#clippath-2);"><path d="M304.6,72.1c-4.2,2.5,9.5,1.2,8.8.3,0-.6-7.1-.8-8.8-.3Z" style="fill-rule:evenodd;"/></g><path d="M357.3,82.7c-.4.9,8.2,7,5.6,2.6-.7-.5-4.8-3.7-5.6-2.6Z" style="fill-rule:evenodd;"/><path d="M327.9,86.8c-2.2,2.8-3.7,4.5-2,5.6,1.7.8,7.2-11.6,2-5.6Z" style="fill-rule:evenodd;"/><g style="clip-path:url(#clippath-3);"><path d="M346.8,105.1c-.7,1.8-1.5,5.7-1.4,7.1,0,1.1.2,1.4.7,1.4,2,2.2,2.2-12.8.6-8.6Z" style="fill-rule:evenodd;"/></g><g style="clip-path:url(#clippath-4);"><g style="clip-path:url(#clippath-5);"><g style="clip-path:url(#clippath-6);"><g style="clip-path:url(#clippath-7);"><path d="M98.9,17.8c-7.7,2.9-10.6,12.6-18.8,14.5,4-15.2-14.5-29.4-11.9-7.3-16.4-5.4-15,12.9,9.5,9.6-5.2,16.6-24.6,14.1-37.6,21.8-17.2,7.9-22.7,23-16.8,40,.3,1.1,2,.6,1.7-.5-10.2-26.9,13.9-40.1,36.1-45.2,8.7-1.7,16.3-7.4,18.6-16.5,7.4-1.2,11.3-8.5,16.6-12.9.9-.8,6.4-2.9,2.7-3.5ZM78.2,32.7c-5.6.6-15.9,1.1-19.1-4.1.6-6,7.7-1.2,10.9-1.7-3.1-22.6,12.1-7,8.2,5.8ZM108.4,17.7c-.2,1.2-3.5,1-3.5-.3,0-1.4,3.6-1.1,3.5.3Z" style="fill:#1c1c1c;"/></g></g></g></g><text transform="translate(109.1 73.8)" style="font-family:MyriadPro-Regular, &apos;Myriad Pro&apos;; font-size:48px;"><tspan x="0" y="0">CLASSIC</tspan></text></svg>