<?xml version="1.0" encoding="UTF-8"?><svg id="Layer_1" xmlns="http://www.w3.org/2000/svg" xmlns:xlink="http://www.w3.org/1999/xlink" viewBox="0 0 129.8 159.5"><defs><clipPath id="clippath"><rect width="129.8" height="159.5" fill="none"/></clipPath></defs><g clip-path="url(#clippath)"><path d="M124.2,83.7c-1.4-.8-1.3-1.4-.7-2.6,5.1-11.5-1.3-24.8-12.9-29.6-5-1.9,3-10.2-5.8-18-6.4-7.7-18.6-4.9-17.4-8.2,2.4-14.4-32.9-34.1-28.3-21.5,2.3,3.8,4.1,11.8-2.3,12.1-9.8,2.1-23.9,6.8-26,17.7-.8,9.9-19.5,8.6-17.9,28.4.2,1.8,2,3.7,1,5.1-15.5,8.9-13.4,15.7-8.3,30.1,4.3,16,9.3,31.7,13.7,47.7,5.2,15.6,33.1,13.1,46.7,14.5,12.9-1.1,41.2.9,46.9-12.8,5.3-17.5,10.7-35,15.6-52.6,1.3-4.6,0-7.8-4.3-10.3ZM32.3,151.1c-3.9-.9-6.9-2.2-8.3-6.7-4.8-16.2-10.3-32.2-14.5-48.5,3,1.9,12,1.4,12.7,3.7,3.1,17.2,7.7,34.4,10.1,51.5h0ZM45,153.8c-2.4-1.5-6.4.8-7.8-2.7-4.4-16.7-7.8-33.7-11-50.6-.3-1.5-.1-1.9,1.4-1.7,4.2.6,8.4.4,12.6.6,3.5,0,3.6,22.4,4.8,26.6.9,8.5,2.3,17,3.1,25.6,0,2.7-.2,2.8-3.1,2.3ZM61.9,154.9c-2.7-.7-8.6,1.2-9.8-1.7-1.7-16.7-3.7-33.3-6.1-49.9,0-1.8-.8-3.9,2-3.6,3,1,15.7-2,15,2.1,0,17,.5,33.9,1,51,0,1.6-.3,2.3-2.2,2.1ZM51,95.4c-12.7-.7-25.9.3-38.2-3.4-10.1-3.6-7.7-15.2.3-19.5,5.6-4.6,17.4,5.9,31.2,1.2,1.3-.4,2.8-1,2.4-2.3-.3-1.3-1.9-.6-2.9-.6-5.3-.2-10.6.3-15.9-.8-19.7-4.9-8.3-23.1,3.5-27.8.8-.5,1.4-.4,2.2.3,5.4,4.4,11.7,5.2,18.4,4.1,1.1-.2,1.7-.8,1.7-1.8-1.5-2.9-7.2-.7-10-2.1-19.1-4.8-1.5-19.7,9.6-21.3,9.9-1.5,14.8-5.2,11.5-15.9,22.6,10.5,24.8,28.4-1.2,35.1-3.3.2-2.3,4,.6,3,8-1.7,15.6-4.2,20.6-10.9,1.2-1.5,2.4-1.9,4.3-1.5,10.5.7,21.5,11.8,12.2,21.2-9.2,9.4-23,11.8-35.4,14.4-1.1.2-2.4.4-2.2,1.8,4.8,5,29-5.2,34.7-8.5,3.6-1.1,5.7-6.7,9.5-5.4,15.2,6.1,18.1,28.1,1.5,34.4-18.4,7.1-39,6.2-58.5,6.3ZM80.5,148.1c0,10.3-3,5.6-11.3,6.8-1.7,0-1.2-1-1.2-1.8,0-8.5,0-17.1,0-25.6h-.6c1.1-32.5-8-26.9,16-27.7,1.4,0,1.3.6,1.2,1.5-1.6,15.6-3,31.2-4.1,46.8ZM95.4,151c-.7,3.5-6.5,1.9-9.2,3.1-2.9.7-2-1.2-2.1-3h-.1c1.5-16.5,3.1-33,4.4-49.5.2-3.9,11.7-.8,15.1-2.4,1.8-.2,2.5,0,2,2.1-3.6,16.5-6.6,33.1-10.1,49.6h0ZM116.4,119.4c-2.6,8.7-5.5,17.4-8,26.1-1.1,4.5-5.3,5.1-9.2,6.2,3.3-17.1,7-33.8,10.1-50.7-.3-3.4,10.4-2.1,13.8-4.1-2.3,7.8-4.5,15.2-6.7,22.6ZM123.7,91.3c-3.2,3.9-14.9,3.1-20.1,3.9,6.6-1.4,12.3-4.1,16.8-9.1,1.8,1.5,3.9,3,3.3,5.1Z"/></g></svg>