<?xml version="1.0" encoding="UTF-8"?><svg id="Layer_1" xmlns="http://www.w3.org/2000/svg" viewBox="0 0 219.4 301.3"><path d="M151.2,111.5c-3.2,13.2,9.5,21.4,12.4,32.3s.1,8.4,1.2,12.1c13.6,28.5,42.8,60.3,41.1,96,.7,17.7-1.3,3.9-.7,6.9,1.1,5.2,10.2,5.1,13,9.2s.7,13-4.4,16.7c-7.2,5.1-14.4,3.2-22.2,4.3-18,3-42.9,17.1-58.3-2.5-6.6-4.7-6.9,5-11.1,9.2-7.8,7.7-29.2,6.7-38.7,2.5-7-3.1-4.8-7.7-8.6-10.9s-11.8-1.4-13.8-9.2,9.2-17.5,17.3-18.6l-12.8-15-2,1.5c-3.8,17.4-3.4,42.9-24.9,47.6-13.7,3.1-44.3.6-33-20.6s12.1-9.3,14.1-16c4.3-22,8-54.8,7.3-74.9-12.5-1.3-9.6-18.2-7.6-27.1,3-13.7,15-28.8,8.9-42.4-13.2,9.1-14.9-5.1-19.7-13.8-4.8-8.7-12.1-12.3-6.7-27.7,2.6-7.3,13.4-34.3,17.3-39.4,6.1-8.2,10.6-6.4,18.3-10C65-1.8,103.8-7.6,135.3,11.2c7.4,5.3,13.2,12.1,22,11.7,16,4.5,19.7,22.2,25.4,35.6,5.6,13,12.5,19.7,5.4,35.2-3.8,8.4-8.7,5.7-11.9,9.3s-2.8,15.5-15,14.1c-4.5-.5-6.4-3.9-10.3-5.2l.2-.4ZM33.4,68.1c-.4-2.5-3.4-18.3-4-19.4-10.8-8.8,8.8-11.9,15-11.6,7.8-.5,22.5-.2,30,.9,5.8.9,6.9,6.1,9.1,6.9h13.4c0-12.5,50.1-8.7,54.3-4,3.9,5.4-3.1,6.9-4,11.1s-.6,10.2-4.1,16.2c-9.1,15.5-36.1,16.3-44.1-.7-4.6-9.7,1.1-17.6-15-14.2-5.8,23-24.4,33.4-46.8,18.6-10.4-8-1.9-2.6-3.5-3.9,1.7,15.8-4.1,36.6,2.6,49.3,2.1,19-17.8,37.7-11.3,57.8,12.6-4.1,7.4,2.8,7.9,11.1s4.1,18.7,11.1,22.6l3.2-10.6,3.3.9c-.5,12.3,1.7,26.5,10.8,35.2-1.2-2.4,1.7-9.3,4.5-7.6,4.8,13.2,10.2,25.5,23.4,32.3,7.1-4-.3-56.9,8.9-50.5,1.6,19.6,2.1,54.4-8.9,71.7-6.6,7.4-10.5,6.6-2.7,12.3,2.7-3.2,2-8.3,7.1-8.9s-.8,7.2-.4,9.2c1.5,1.8,6.7,3.1,8.4,1.4s2.6-12.6,7.4-7.4l-.8,8.3c23.5,2.5,27.7-73.6,34.5-92,14.1-5.5-13,69.1-10.6,75.2,5,.9,5.1-4.4,8-7.4,3.2-3.3,8-4.3,11.3-7.3-22.5-31.3,11.6-67.9,18.7-53.9-.6,3-8.9,4.6-11.1,6.6-12.5,11.3-12.4,34.6,0,46s12.6,6.1,10.2,9.7-8-2.5-11-2.7c-9-.6-23.4,8.5-16,17.7,1.4,0,3.7-10.6,7.1-10.6,6.5,0-4.6,12.1,1.8,13.4,8,1.5,5.1-9.8,9.8-9.6s-.5,7.8,1.2,9.6c74.1-5.8,23.8-92.9.8-127.7-2.8-3.4-5.8.4-7.4.1-6.5-5,1.5-5.7,3.2-9.8,3.7-9.1-7.9-17.8-11-25.8-3.1-7.9-.7-12.8.1-22.2.2-13.6-2.3-33.5.9-45.5h4.4c.7,12.9-5.6,42.7,7.1,50.8s9.1-2.2,10.6-7,0-15.4,8.5-8.6l2.4-.6c3.9-5.8,3.9-13.6,2.7-20.2-7-9.8-12.8-35.6-21.5-42.1s-7.1-2.2-11.7-3.3C124.6,6.2,88.1-3.9,56.1,14.7c-22.7,13.5-10.5,9.1-14.8,11-19.3,2.5-21.2,15.4-26.7,31.7-3.3,8.4-10.6,16.3-7.8,27.3s6.4,4.4,8.6,7.3c2.2,3,.4,13.5,5.4,16.7l3.1-.2c5.7-12.9,5.8-26.8,4.5-40.7l2-1.5c1.2.2,2.1,1.1,3.1,1.8h-.1ZM37.3,211.2c-1.9-1.8-3.3-5.3-5.6-6.7l-5.9,53c-1.4,10.5-14.4,11.7-16,21.2-1.5,9.5-.9,7.7,2.8,6.4s4.7-12.5,8.5-10.2c4.1,2.6-3,8.9-2.6,11.5,6.5,7,5.9-2.2,7.9-5.9s6.9-6,7-1.1-9.9,12.3,5.6,8.2c10.5-2.8,13.1-12.2,15.5-21.6,4.1-16.2,6.7-25.5-3.4-34.9-3.7-9.6-5.2-14.3-13.8-19.7ZM77.6,280.4c2.2,1.8,14.2-10.8,9.7-14.5s-22.6,2.6-20.2,10.4c3.8,12.3,5.1-5.5,13.1-3l-2.6,7.1h0ZM198.9,282.2c18.3,1.8,19.7-17,4.7-14.3l-4.8,14.3h.1Z"/><path d="M50,91.3c1.1,1.2-.2,11.5,1.8,16.3,5.4,13.1,26.4,7.9,26.7-4.7.4-12.6-14.4-7.8-11.9-18.9s45-7.7,30.6,8.4-19.6,3.5-9.9,17c9.7,13.5,22.7,10.6,28.7,0,1.8-3.2,2.8-11.3,4.6-13.1s4.1,1.5,4.1,4c-.2,21.9-30.8,30-43,12.1-16,16.7-39.8,5.9-36.2-17.8,2.4-10.2,2.4-5.8,4.7-3.3h-.2Z"/></svg>