<?xml version="1.0" encoding="UTF-8"?><svg id="Layer_1" xmlns="http://www.w3.org/2000/svg" xmlns:xlink="http://www.w3.org/1999/xlink" viewBox="0 0 951.8 1186.2"><defs><style>.cls-1{clip-path:url(#clippath-6);}.cls-2{clip-path:url(#clippath-4);}.cls-3,.cls-4,.cls-5,.cls-6,.cls-7,.cls-8,.cls-9{stroke-miterlimit:10;}.cls-3,.cls-5,.cls-6,.cls-7,.cls-8,.cls-9{stroke:#000;}.cls-3,.cls-6{stroke-width:2.7px;}.cls-10,.cls-6,.cls-7,.cls-9{fill:#fff;}.cls-4{stroke:blue;}.cls-4,.cls-11{fill:none;}.cls-5{stroke-width:1.8px;}.cls-12{clip-path:url(#clippath-1);}.cls-13{clip-path:url(#clippath-5);}.cls-14{clip-path:url(#clippath-3);}.cls-7{stroke-width:1.4px;}.cls-8{stroke-width:4.8px;}.cls-9{stroke-width:4px;}.cls-15{clip-path:url(#clippath-2);}.cls-16{clip-path:url(#clippath);}</style><clipPath id="clippath"><rect class="cls-11" x="112" y="669.9" width="143" height="157.5"/></clipPath><clipPath id="clippath-1"><rect class="cls-11" x="406.7" y="351.4" width="145.5" height="159.2"/></clipPath><clipPath id="clippath-2"><rect class="cls-11" x="404.9" y="352.2" width="144.7" height="157.5"/></clipPath><clipPath id="clippath-3"><rect class="cls-11" x="710.9" y="55.8" width="145.5" height="159.2"/></clipPath><clipPath id="clippath-4"><rect class="cls-11" x="709.2" y="56.6" width="144.8" height="157.5"/></clipPath><clipPath id="clippath-5"><circle class="cls-11" cx="724.6" cy="692.4" r="32.8"/></clipPath><clipPath id="clippath-6"><circle class="cls-11" cx="794.8" cy="692.9" r="32.8"/></clipPath></defs><g id="Main"><g id="Mouse_Speech_Bubble"><path d="M876.9,501.3c0,6.9-3.5,17.3-12.2,15.7-3.9-.7-6.6-3-8.5-6.3-6.6-11.7,3.7-19.6,14.8-19.8-10.9-32-41.2-51-71.7-61.4-26.7-9-55.3-12.8-82.7-3.9-2.7.9-7.7,3.5-9.9,3.9-2.5.5-3.5-2.3-1.5-3.8,1.9-1.4,9.5-3.8,12.1-4.6,28.4-8.6,58.1-4.4,85.5,5.3,31.5,11.1,62,31.3,72.4,64.7,17.5,2.5,33.7,12.9,45,26.2,19,22.4,30.5,60,7.6,83.7-11.6,12.1-28.4,9.9-43.7,8.6,2.9,11.9,1,22.5-10.6,28.3-15.7,7.8-36.4,4-52.2-1.4-2.4-.8-8.3-2.7-10-4s-.9-3.7,1.4-3.6c1.7,0,6.9,2.7,9,3.4,16.2,5.5,58.7,13.8,59.5-13.2.1-4.4-1.5-7.8-1.8-11.7-.2-2.3.7-2.5,2.7-2.5,9.7.1,17.1,2.6,27.6,1,23.4-3.8,29.5-30.7,25.1-50.7-6.2-28.2-29.3-54.7-58.5-59.6,0,1.9.5,3.9.5,5.7h0ZM872.2,495.4c0-.7-4-.2-4.7,0-2.6.5-6,1.9-7.6,4.2-4.8,6.8,3.8,16.7,9.1,12.4,2.3-1.9,4-7.4,3.8-10.2l-.6-6.2h0Z"/><path d="M678,455.5c1.2,1,.7,3.6-1.1,3.8-.9,0-5-1.1-6.5-1.3-15.8-1.9-29.8,5.5-41.5,15.4-15.7,13.4-17.7,30-12,49.4,5.8,19.9,17.8,30.9,33.2,43.5,2.5,2,3.9,1.6,3.8,5.7,0,3-4.4,9.7-5.3,13.8-2.9,13.6,8.7,26.6,19.1,33.8,23.6,16.2,54.6,18.7,82.5,17.7,1.4.3,1.6,3.1.3,3.7-1.1.4-5.4.6-6.8.7-31.2,1.4-90.4-9-99.1-45.5-2.2-9.3,1.9-16.4,5.3-24.7-13.4-10.5-27-22.5-33.8-38.5-8.6-20.3-10-43.6,7-59.8,10.9-10.4,26.1-19.2,41.5-19.6,2.1,0,12.2.9,13.5,2h0Z"/></g><g id="Layer_1-2"><g id="Board"><g id="Letter_O"><path d="M188.8,141.2c-3-.8,4.1-6,4.5-7-1.2,1.6-4.3,4.1-3.3,1.1h0c.4-.4.7-.9,1.3-1.5-.7-.2-1.1-.4-.3-1.6h0c1.1-1.4,2.8-3.4,7.1-8.2l-5.3,5.5h0c-4.3-1.1,12.9-15.5,15.3-19.6-14.6,15.4-14.7,15.4-15.2,15.4-2.4-1.4,9.1-11.7,11.7-15.4-2.7,1.5-10.5,14.3-12,10.2,1.3-1.6,5.9-6.8,8.5-9.6-1.6,1.1-8.4,10.7-8.2,6.4h0c.5-.5,1.6-1.8,2.4-2.8-1.9,2-3,1.7-2.1-.2h0c.2-.3.4-.5.7-.9-2.7-2,6.5-8.3,8.8-12.3-1.7.8-9.4,12.2-9.6,7.7h0c.2-.3.5-.6.7-.9-.8,0-1.5-.4-.7-1.4h0c1-1.1,1.9-2.3,4-4.6-4,4.1-4.6,4.6-4.2,1.9h0c1.2-1.5,3-3.9,7.9-9.5-5,4.6-8.5,10.6-8.4,6.5-.5-.4-1-.4-.3-1.5h0c1.1-1.2,1.9-2.4,4.4-5.3-2.4,2.4-5.6,6.6-5,2.9h0c1-1.2,1.7-2.2,3.8-4.6-4.2,4.5-4.5,5-4.5,2.3h0c1.1-1.2,1.9-2.4,4.3-5.2-3,3.2-4.3,4.4-5.5,5.6h0c-1.1,1-1.9.2-1.1-1-1.7,1.7-1.6,1.7-2.5.7-1,1.1-2.3.5-1.4-.9h0c1.4-1.8,3.4-4.3,9.2-11.1-13.7,13.4-12.5,15.2-13.4,11.4.2-.2.5-.5.8-.8-6.6,7-4.3,1-.2-2.7-9.6,9.6-9,10.6-9.4,7.2.4.2,53.6-57.4,31.5-29.7,4.5-4.3,8.2-9.9,7.8-5.8h0c-.2.2-.5.6-.8.9,1.7-2,3-1.6,2.1.2h0c-1.3,1.7-3.5,4.5-9.6,11.6,8.5-8.1,11.4-14.8,12.7-8.9,1-1.1,2.3-.3,1.3,1.1h0c-.8.9-1.3,1.8-2.7,3.3,7.8-8.1,3.5.3-.6,3.8,10.6-11.5,5.8-2.1.2,3,2.4-2.5,5.8-6,6.9-7.2h0c.7-.7,1.4-.2,1.4.5.8,0,1.4.4.6,1.5h0c-1.2,1.6-2.9,3.7-7.6,9.1,5.9-5.6,9.3-11.6,9.4-7.5h0c-1,1.1-1.8,2.3-3.9,4.6,2.5-2.7,3.5-3.5,4.4-4.5h0c.8-.8,2,.2,1,1.2l.2-.2h0c3.9,1-6.7,8.9-9.1,12.9,4-2.9,10.6-13.9,11.9-10.2h0c2.7-1.1.8,2-.5,3.1,4.3-3.9,5.2-2.3-.2,3.3,9.1-9.2,4.5-1.2-2.1,5.6,10.9-12.2,13.1-10.2-.2,4,20.3-21.5,6.1-1.9-1.7,5.3,8.9-8.6,13.9-16.3,13.6-11.9,1.4-.4,2,.4,0,2.4,8.5-3.5-41.8,44.6-47.6,52.1h0c-.4.3-.5.3-.6.3h0l-.2-.2h0ZM224.9,75l.2-.2-.2.2ZM214.3,66.1h0s.2,0,.2-.2c0,0-.2,0-.2.2h0Z"/><path d="M185.4,198.5c1.1-7.2,15.3-16.9,21.4-25.3-19.8,19.4-21.4,25-25.6,24.7-.8,1-1.7.5-1.7-.4-1.2,1.4-2.4.8-1.9-.4-.7,1.2-3,1.8-1.9-.3h0c1.4-1.5,2.4-2.9,5.6-6.4-9.1,10.4-11.8,9.5-3.9.7-6.4,6.5-6.7,6.5-7.1,6.5-1.4-.6-1.4-.5,1.4-4-4.1,4.7-5.9,4.6-3.8,1-3.9,3.6-5.3,2.6-.2-3-5.7,6.8-7.9,5.7-2.2-.8-19.6,17.5,18-23.1,26.8-32.5-9.5,7.9-36.2,42.4-35.3,34.7,6.5-7.4,17.1-18.5,26.6-28.8-26.1,26.4-28.8,32-29.5,27.9-1,1.1-1.9,1-1.9-.3-7-3.1,26.5-30.3,32.5-39.6-36.9,38.2-37.6,41.5-36.9,36-1.4,1.3-1.8,1.4-2.4.3-.8,0-1.4-.4-.6-1.5h0c.8-1.1,1.9-2.5,4.6-5.7-6.4,6.5-6.5,7.4-6.6,4.3-.8,1.1-2.3.5-1.4-.9h0c1.3-1.6,2.4-3.1,5.7-7-4.4,4.3-7.9,9.6-7.4,5.4h0c1.9-2.2,5.4-6.3,8-9.4-5.1,4.8-10.1,12.4-9.8,7.9h0c.2-.3.5-.7.8-1.1-1.9,2-2.9,1.7-2.1-.2h0c1-1.3,2.3-3.1,5.7-7.1-7.8,7.6-6.9,8.9-7.6,5.5,1-1.4,2.6-3.5,6.8-8.5-5.5,5.3-8.9,10.9-8.8,6.8h0c1.3-1.5,2.3-2.8,5.2-6.1-1.3,1.3-8.3,9.2-6.8,4.8h0c.4-.4.7-1,1.3-1.7-.6.6-1.1,1.1-1.5,1.5h0c-.8.8-1.4.2-1.4-.5-.5.2-1-.3-.8-.8-2.2,0-.2-2.1.7-3.2-7.8,5.9,2.6-6.4,4.6-8.1-9,9-7.6,9-9.4,8.4.5-3.7,3.6-5.1,11.7-15.2-8.4,8.2-14.4,16.8-13.7,12h0c.4-.4.8-1.1,1.4-1.7-8.9,6.7,7.1-11.2,9.6-13.8-4.7,4.9-9.2,9.7-13.1,13.6h0c-.8.9-1.8,0-1.3-1-.7.4-1.6-.3-.9-1.2-3.1.2.6-3.1,2.6-5.6-11,10.9-.6-3.6,3.2-6.7-22.5,22.7,1.4-6,7.5-11.6-12.1,12.3-20.4,22.9-17.8,15.9-.8,1.2-2.7.6-1.7-.7-.7.2-1.4-.3-.8-1.2-2.4-1-1.7-.6,12.7-16.7-13.6,14.1-15.8,17.1-13.8,11.4-6.9,2.5,10.3-13.1,13.7-17.4-46.1,46.4,20.7-26.8,30.7-36.7-10,9.3-51.5,57.2-47.6,47.6-.8.9-1.9.2-1.2-1-.6-.3-1-.5-.2-1.5h0c5.6-6.2,13.9-14.9,21.2-22.6-6.6,6.9-16.3,17.2-20.6,21.6h0c-.8.9-2,0-1.1-1.1h0c1.9-2.1,3.1-3.6,7.5-8.2-7.9,7.7-7.7,8.9-7.8,5.3-1.2-.5-1.3-.5.8-3-3.3-8.8,28-31.4,37.3-45-10.5,9.6-42.1,47.1-39.4,38.7h0c.2-.2.5-.6.7-.9-.8.5-1.5-.4-.8-1.2h0c6.1-11.5,23.5-26.2,33.8-38.8-8.4,7-31.9,37.3-34,33.3,1-1.2,1.9-2.4,4.5-5.3-1.9,2.1-5.3,5.6-4.3,2.1h0c3.5-4.1,13.5-15,19.2-21.3-15,16.6-25.5,25.9-13.8,11.5-3.1,4.3-7.4,5.5-3.5,1-2.4.8-.8-2,.4-3-2.5.7-.6-2.2.8-3.3-.8.9-1.9,0-1.1-1.1h0c1.3-1.5,2.6-3.3,6.7-8-6.7,7.7-6.9,4.5-3.4.6-4-1.2,8.3-10.5,9.2-13.1-4.4,4.6-5.8,6-7,7.3h0c-.8.9-1.9,0-1.1-1.1h0c.8-.9,1.5-1.8,2.7-3.1-2.4-1.8,3.4-5.1,5.6-9.4l-.6.6-.6-.6c3.8-3.1,11.6-14.2,10.3-8.3h0c-.2.3-.4.6-.8,1.1,8.3-8.2,7.6-9.5,8.3-6.2,1.6-1.8,2.5-2.4,3.2-3.2h0c1.1-1,1.9-.2,1.1,1.1h0c-1.2,1.5-2.4,3.1-5.7,6.9,10.1-10.6,10.3-10.6,10.7-10.6,2.1.6-.5,2.4-1.7,4,12.8-12.5-.3,4.4-5.6,9.2,15.5-15.6,15.3-17.5,15.8-13.8,3-3.2,4.6-2.4,2.3.3,3.3-3.6,3.8-3.8,3.5-1.3h0c-.2.2-.5.5-.6.8,1.4-1.8,4.5-4.1,3.3-1.1h0c-1,1.1-2.2,2.5-5.2,5.9,21.9-21.3-4.7,9.4-11,15.4,7.5-6,20.7-25.5,23-21.6-.8.7-1.4,1.7-2.4,2.9,5.1-4.6,4-4.6,5.5-4.1-.2,3.2-6.9,8.3-17.7,20.9,21.2-21.5,19.2-22,21.6-20.5.7-1,1.9-.4,1.5.6,5.5-1.4-3.6,6.8-14.8,19.4,20.3-20.3,18.6-21.6,20.5-19.1,1.2-1.3,2.3-.7,1.4.8h0s-.2.3-.3.3c1.9-1.9,2.6-2.1,2.7-.5.8-1.1,2.4-.7,1.4.8h0c-.8.9-1.4,1.8-3,3.6,5.1-5.7,6.8-5.4,4.6-1.9,2.7-2.4,2-2.5,3.3-1.4.8-.5,1.8,0,1,1.2,8.4-4.7-17.2,21.3-22.3,27.2,29.1-31.8,34.4-34,18-15.1,11.8-11.4,10.5-13.1,11.5-9.4,0,0-.3.3-.5.6,6.2,0-27.8,31.2-35.2,40.7,40-41,38.4-42.4,40.4-39.8.8-.6,1.9,0,1,1.2.8-1.1,2.4-.5,1.4.9h0c-11.3,12.4-28.7,30.5-42.3,44.9,1.4,2.4-2.2,3.8-6.1,9.1,1.3-1.3,1.8-1.8,2.4-2.5h0c.8-.8,2,.2,1.1,1.2h0c-1.5,1.7-8.4,9.5-10.2,11.5,19.2-20.1,1.9,2.5-4.6,8.4,4.6-4.7,8.2-8.7,11.6-12.3h0c1-.9,1.9,0,1.1,1.1h0c-.2.2-.8.8-1,1.1,1.2.4,1.5.6-.2,2.4,2.9.9-9.4,12.5-12.2,16.2,2.8-1.6,11.3-15.1,12.6-10.9-.9,1-1.7,1.9-3.2,3.5,9.4-6.5-8,12-11.1,15.7,14.3-14.1,13.1-15.9,14.1-12.1-1.1,1.3-2.6,3.2-6.5,7.6,2.4-2.2,7.8-9.3,6.7-4.7h0c-.7.8-1.1,1.5-2.2,2.8.5-.5.9-.9,1.3-1.3h0c.8-.8,2,0,1.1,1.1h0c0,0,0,.2-.2.3.6.3,1,.5.3,1.4h0c.5.4.8.4.2,1.4h0c-.6.6-1.1,1.4-1.9,2.3,2-2.2,2.9-1.8,2.2,0h0c-.8,1-1.4,1.8-2.9,3.5,8.4-6.9-1.9,5.9-5.6,9.6,9.9-9.8,9-11.1,9.8-7.6-.9,1.1-3.4,4.1-7.4,8.8,6.3-5.9,9.6-12.2,10-8l-.7.7c6.1-5.5,2.5,1.1-1.4,4.9,7.8-7.6,7.2-8.9,7.8-5.5-1.2,1.3-2.6,3.2-6.6,7.7,7-6.2,8.5-11.4,10.7-8.9,2.4-2.7,3.5-2.5,2.7-.4h0c-1,1.2-6,7.2-11.5,13.2,11.8-9.5,76.2-85.6,74.3-73.1,6.9-3.3-11.3,14.6-14.3,18.3,15.9-15.9,17-19.2,17.4-15.2.7,0,1.4.4.8,1.3.7,0,1.2.4.5,1.5h0s-.2.3-.3.4c3.4.9-2.2,4.6-6.8,10.4,26-24-19.3,24.5-25.5,30.9,36.2-38.4,39-40.7,31.3-29.6,14-11.8-9.9,14.1-13.9,18,12.4-13.1,15.8-16.5,17.7-18.5h0c.8-.9,2,0,1.1,1.1h0c-.9,1.1-1.7,1.9-3.5,3.9,5.9-5.3,6.7-3.4-2,5.5,3.2-3.1,6.7-8.3,6.3-4.3h0c-9.2,10.3-22.9,24.8-34,36.8,12.4-10.5,24.6-30.3,34.2-33.5h0c-1.3,1.4-2,2.5-4.5,5.1,4.1-4.6,5.6-4.6,4-1.4,1.1.3,1.5.5,0,2.2,1.1,0,1.3.8.4,1.8,1.4,2.5-2,3.7-6.3,9.3,6.1-5.9,5-5.9,6.6-5.3-9.3,13.6-23.9,26.5-30.8,35,10.4-8.8,26.5-32.1,30.5-29.7,0,0-.6.6-.8.9,0,5.8-12.1,13.8-17.5,21.5,12.5-11.8,16.1-19.4,17.5-15.7h0c-.4.5-.8,1.1-1.7,2.1h0c2.9-1.4.8,2.1-.7,3.2.8-1.1,2.1,0,1.3,1.1h0c-4.2,5.2-11,12.5-16.8,19.2,19.3-21.6,18-15.2,5.8-2.7,1.9-1.5,8.4-10.5,7.9-6h0c-1.1,1.2-1.9,2.3-3.8,4.6,1.4-1.6,2.5-1,1.7.6h0c-.8,1.1-2,2.7-4.9,6h0c0,.5-.2,1.1-.6,1.5l.6-.6.4.7c-.2-1.1-14.9,18.1-14.5,12.7h0c1-1.2,1.8-2.4,4-5.1-3.3,2.4-11,13.8-11.3,9.6h0c.5-.6,1-1.3,1.8-2.2-9.9,11.1-7.3,4-1.4-1.9-8.9,9.3-9,9.3-9.5,9.3-1.6-3.3,3.6-5.3,11.9-15.9-5.6,5.9-16,16.6-16.4,16.8h0c-1.2,1-1.9.3-1.1-1h0c.2-.3.6-.8.9-1.1-1.4,1.4-2.1,1.9-2.9,2.9h0c-1.1.9-1.9,0-1.1-1.1h0c.8-1,1.6-1.9,3.5-4-3.2,3.3-4.4,4.4-5.3,5.5h0c-.8.9-1.9,0-1.2-1h0c1.1-1.4,7.4-8.6,13-14.7-16.8,16.8-15,17.7-17.3,15.7-6.7,2.4,13.7-17.3,17.3-22.1-17.3,18-19.8,21.3-22.5,23.1v-.2h.4c0,0,0,.1,0,.1ZM246.2,145.7c0,0-.2.2-.2.3,0,0,.2-.3.2-.3Z"/><path d="M191.8,91.7c-34.6-14.5-44.9,37.7-32,62.8,1.3.2,2.6.4,3.9.4.2.7.4,1.4.7,2.1,35.8,9.1,38-43.4,27.4-65.3h0ZM190.5,93.5c.5,1.1.9,2.1,1.3,3.1-.3,0-.7,0-1-.2-.2-1-.4-2-.6-3h.4,0ZM160.7,149.4c-4.6-14.2-3.9-32.3,2.9-45.6-6.1,11.7-5.7,32.8-1.5,45.6-.5,0-.9,0-1.4-.2h0ZM189.2,96.3h-2c-.2-.9-.6-1.8-.9-2.7h1.9c.4,1,.8,1.8,1.1,2.9v-.2h0ZM194.7,110.6v-.5.5ZM194.4,117.4c-1.2,10.3-2.4,21.2-9.4,28,8-13.7,6.8-30.7,6.1-46.1.5,0,1,.2,1.5.3,1.5,5.8,1.9,11.7,1.8,17.8h0ZM184.4,95c.2.4.4.8.6,1.2-5.8-.4-11.1,1.5-15.3,5,3.5-4.5,9-6.8,14.7-6.1h0ZM172.5,150.9c.9-.2,1.9-.4,2.7-.6-.8.4-1.8.4-2.7.6ZM189,114.2c.8,16.3-5.2,35.5-23.9,35.4-4-18.6-1.7-47.8,21.2-50.1,1.7,4.7,2.5,9.8,2.5,14.8h0c0,0,0,0,0,0ZM164.6,149.5h-.2c-.3-1.1-.7-2.3-.9-3.3.3,1.1.8,2.3,1.3,3.3h0ZM167.7,151h1.8-2.4.7ZM171.3,150.9h-.4.4ZM190.3,122.6c-.2-7.9-.3-15.7-2.1-23.4h1.8c1.9,7.7,1.6,15.6.3,23.4h0ZM194.6,107.6c0,.8,0,1.6,0,2.4,0-.8,0-1.6,0-2.4ZM164.2,153h.4c0,.2,0,.3,0,.4h-.4c0-.2,0-.4-.2-.5h0c0,0,0,0,0,0ZM160.5,153.5c-2.2-4.6-3.1-9.8-3.5-14.9.6,4,1.5,8,2.9,11.8,2.3,0,3.1.8,3.4,3.1h-2.8,0ZM189.1,146.2c-5.3,7.6-15,11-23.9,9.8-.2-.4-.2-.7-.3-1.1,21.3,3,31.8-17,31.6-36.5-.2,9.6-2.1,20-7.3,27.9h0q0,0,0,0Z"/><path id="Outside_Line" d="M182.9,203.3v-.4c82.8,8.6,94.6-116.2,27.2-146.6h0C84-6.7,53.2,195.2,182.9,203.3ZM104.6,93.5c2.3-10.6,7.7-19.4,15.5-26-17.4,18.8-19.1,49.9-13.9,74.7-5.3-15.5-5.2-32.9-1.6-48.8h0q0,0,0,0ZM223.4,70.3c-1.4-1.1-2.6-2.2-4-3.3,1.1.8,2.9,2.1,4,3.3ZM210.2,60.5h0c9,7.4,20.5,14.5,26.8,25-14.5-14-31.1-29-51-34.1,8.5,1.6,17.5,3.4,24.2,9.3h0v-.2h0ZM247.7,106.2c4,21.3,2.3,45.9-10,63.9,13.1-23.2,14.1-56.5,2-80.9,3.8,5.1,6.7,10.8,8,17.1h0ZM148,189.6c-1.2-.8-2.3-1.7-3.4-2.5,3.7,2.2,7.6,4.2,11.6,5.9-2.9-.9-5.6-1.9-8.2-3.3h0ZM146,54.1c10.4-2.7,21.6-3.3,32.7-2.2-25.6-2.8-52.4,7.5-64.2,30.8,6.7-13.7,17.8-23.6,31.4-28.7h0c0,0,0,0,0,0ZM205.4,62.1h0c77.9,40.5,30.9,160.9-53.2,125.4-88.3-39.9-33.8-169,53.1-125.4h0ZM246.1,121.1c-1-27.6-18.8-46.4-40.5-59.9,3.7,1.8,7.2,4.2,10.5,6.9h0c18.8,12.1,31.2,29.4,29.9,53.1h0c0,0,0,0,0,0ZM122.3,67.7c-2.9,3.1-5.5,6.7-7.8,10.5,2.2-3.9,4.8-7.4,7.8-10.5ZM113.7,79.8c.2-.4.4-.9.7-1.3-.2.4-.5.9-.7,1.3ZM176.3,199c26.1.7,54.9-8.4,66.8-32.6-12.7,26.9-40,35.8-66.9,32.6h0ZM243.8,94.3c.2.4.3.9.5,1.3-3-5.3-6.8-10.2-10.5-15.2,4.5,3.7,7.7,8.5,10,13.9h0ZM163.1,48c-8.7.5-16.9,2.6-24.9,5.3,9.4-3.9,19.9-5.7,30.7-5.6-1.9,0-3.9,0-5.7.3h0ZM101.1,122.1c-.4-6-.3-11.9.4-17.6-3,25.6,4.6,52.7,23.9,69.6-.7-.4-1.1-.8-1.1-.7-16-11-22.5-32-23.2-51.2h0c0,0,0,0,0,0Z"/><path id="White_Part" class="cls-10" d="M215.9,67c46.9,61-12.5,144.4-83.2,109.4C54,119.3,141.4,2.3,215.9,67ZM185.8,145.2c20.2-24.6-.5-90.6-36.7-56.7-21.1,25.8.8,89.7,36.7,56.6"/></g><path id="Board-2" d="M877.8,586.7l.2.3c-75.2-5.4-156-2.6-230.7-1-.2-15.5,0-32.6-.6-48.3v1c0-87.4-2.4-185.1.2-265,.3.7,13.2-.4,14-.4-.9,1.1,10.6,1,4.5,1.8,42.7-3.4,85.3-1.9,129-5.1l-.8-.4c30-1.8,64.3-6.6,93.1-9.5-3-1.1,11.2-1.6,5.6-2.5-7.7-1.8-8-.2-14.5-1.8l.2.4c-75.9-5.9-157.4-1.8-232.7-1.3-.2-1.3-.2-2.4-.2-2.7l.2,1.4c4.4-34.3,2.2-72.4,2.8-105.6-1.1-.2.2,5.4-1.3,5.6,0-18.5,2.5-38.8,2.8-56.8l1.1-.4c-.6-6.6,1.3-9.1.3-15.7,1.1,0,0-5.3.9-4.8-.2-4.5-2.9-27.1-4.6-27.9v-3.3.3c0-.5-.5-5.6,1.1-3.7-.3-1.9-.6-3.8-.3-5.8-.8,5.3-1.7,11.7-2.8,17.1-.2-9.9,1.8-19.9,1.7-30.6.3,2.1.2,4.3.2,6.6,1.7-3.8.5-9.2.8-14.9.8,1.1.9-1.7.6-2.5,0,.2.2.6.2.8.2-1,.8-5.1-.2-4.3-.2-.2-.3.2-.6.6-1.3-4.8-1.3-9.9-2.3-7.7-.5-1.1-1.2-.2-.8.8-.2,8-5.8-7-6.2,2.1,2.4-6.1.8,16-.2,16.8-.7,3.9,3,20.3-2.4,19,.2-4.8,1.5,1.9,1.3-3.3-1.5,2.1-.3-4.5-1.5-5.4-.6,1.6-.6,4.8-.6,7.7l.2-.6c.2,2.5.6,7.4-.2,9.9-.6-.6-.9.6-.9-1.1,0,.2-.3,5.3.2,3.1-.8,4.7,2.3,20.2,1.3,24.2-3-40.7-.5,7.3.9,15.1-.2,3.1-.9-1-1.5,1.1-.5,5.3-.6,13.3.3,19.2-.2-1.1-2.7-4.2-1.7-6.8-.2-.4-.3-3.1-.9-2.9-.7,3.3.5,7-.2,10.4h.2c-2.9,1.1.2,11.3-.6,17.6,2,3.4-3.5,20.9.8,17.3l-.2,4.5c-1.8-4-1.7,8.3-3.5,3.9-1.6,2.7,3.5,17.1-1.3,16.5,0,5.8-2.7,15.9.2,20,0,4.5-.8,4.5-1.7,3.9l-.2,3.5c0-11.6.3-23.6.8-35.6-3.5,25.9-6.5,56.8.9,76.9-2.3,1.1-3.7,9.1-4.5,16.3-14,0-28.9,0-42.9.6h.9c-84,0-178,2.5-254.9-.2-.2-1.6-.2-2.5-.2-3.1l.2,1.3c4.4-34.3,2.2-72.4,2.8-105.6-1.1-.2.2,5.4-1.3,5.6,0-18.5,2.5-38.8,2.8-56.8l1.1-.4c-.6-6.6,1.4-9.1.3-15.7,1.1,0,0-5.3.9-4.8-.2-4.5-2.9-27.1-4.6-27.9v-3.3.3c0-.5-.5-5.6,1.1-3.7-.3-1.9-.6-3.8-.3-5.8-.8,5.3-1.7,11.7-2.8,17.1-.2-9.9,1.9-19.9,1.7-30.6.3,2.1.2,4.3.2,6.6,1.7-3.8.5-9.3.8-14.9.8,1.1.9-1.7.6-2.5,0,.2.2.6.2.8.2-1,.8-5.1-.2-4.3-.2-.2-.3.2-.6.6-1.4-4.8-1.4-9.9-2.3-7.7-.5-1.1-1.3-.2-.8.8-.2,8-5.8-7-6.1,2.1,2.4-6.1.8,16-.2,16.8-.7,3.9,3,20.3-2.4,19,.2-4.8,1.5,1.9,1.3-3.3-1.5,2.1-.3-4.5-1.5-5.4-.6,1.6-.6,4.8-.6,7.7l.2-.6c.2,2.5.6,7.4-.2,9.9-.6-.6-.9.6-.9-1.1,0,.2-.3,5.3.2,3.1-.8,4.7,2.3,20.2,1.3,24.2-3-40.7-.5,7.3.9,15.2-.2,3.1-.9-1-1.5,1.1-.5,5.3-.6,13.3.3,19.2-.2-1.1-2.7-4.2-1.7-6.8-.2-.4-.3-3.1-.9-2.9-.7,3.3.5,7.1-.2,10.4h.2c-2.9,1.2.2,11.3-.6,17.6,2,3.4-3.5,20.9.8,17.3l-.2,4.5c-1.9-4-1.7,8.3-3.5,3.9-1.6,2.7,3.5,17.1-1.3,16.5,0,5.8-2.7,15.9.2,20,0,4.5-.8,4.5-1.7,3.9l-.2,3.5c0-11.6.3-23.6.8-35.6-3.5,25.9-6.5,56.8.9,76.9-2.4,1.4-3.9,10.7-4.6,18.2-32-4.8-68.5-2.1-99.6-2.9-.2,1.1,5.2-.2,5.4,1.4-17.8,0-37.4-2.6-54.6-2.9l-.3-1.1c-6.3.6-8.8-1.4-15.1-.4,0-1.1-5.1,0-4.6-1-4.3.2-26.1,3-26.8,4.8h-3.2.3c-.5,0-5.4.5-3.5-1.1-1.9.4-3.7.6-5.6.4,5.1.8,11.2,1.8,16.4,2.9-9.5.3-19.1-1.9-29.4-1.8,2-.4,4.1-.2,6.3-.2-3.7-1.8-8.9-.5-14.3-.8,1.1-.8-1.6-1-2.4-.6.2,0,.6-.2.8-.2-.9-.2-4.9-.9-4.1.2-.2.2.2.4.6.6-4.6,1.4-9.5,1.4-7.4,2.4-1.1.5-.2,1.3.8.8,7.7.2-6.7,6,2,6.4-5.9-2.5,15.4-.8,16.2.2,3.8.7,19.6-3.1,18.3,2.5-4.6-.2,1.9-1.6-3.2-1.3,2,1.6-4.3.4-5.2,1.6,1.5.6,4.6.6,7.4.6l-.6-.2c2.4-.2,7.1-.6,9.5.2-.6.6.6,1-1.1,1,.2,0,5.1.4,2.9-.2,4.6.9,19.5-2.4,23.3-1.4-39.1,3.1,7,.5,14.5-1,2.9.2-.9,1,1.1,1.6,5.1.5,12.8.6,18.5-.4-1.1.3-4.1,2.8-6.5,1.8-.3.2-2.9.4-2.8,1,3.2.7,6.7-.5,10,.2v-.2c1.2,3,10.9-.3,16.9.6,3.3-2.1,20.1,3.7,16.6-.8l4.3.2c-3.9,1.9,8,1.8,3.7,3.7,2.6,1.7,16.4-3.6,15.9,1.4,5.6,0,15.3,2.7,19.2-.2,4.3,0,4.3.8,3.7,1.8l3.4.2c-11.2,0-22.8-.4-34.3-.8,25,3.7,54.6,6.8,74-1,1.1,1.9,7.4,3.5,13.6,4.5,5.3,68.2-1.4,151.8-2.6,222.8.2-3.5.5-7,.8-10.4,1.1,13.1,2,25.1,2.8,36.8.6-2.1,1.1-2.4,1.9-7.2-.5,8.3,1.7,20.9,1.9,29.6-.9-1.1-1.1,3.3-1.1,7.4l.6-1.6c-.2,9.9,0,20.9.2,31.2-2.3.2-4.1.3-4.6.3l1.4-.2c-33-4.6-69.6-2.3-101.6-2.9-.2,1.1,5.2-.2,5.4,1.3-17.8,0-37.4-2.6-54.6-2.9l-.3-1.1c-6.3.6-8.8-1.4-15.1-.3,0-1.1-5.1,0-4.6-1-4.3.2-26.1,3-26.8,4.8h-3.2.3c-.5,0-5.4.5-3.5-1.1-1.9.3-3.7.6-5.6.3,5.1.8,11.2,1.8,16.4,2.9-9.5.3-19.1-1.9-29.4-1.8,2-.3,4.1-.2,6.3-.2-3.7-1.8-8.9-.5-14.3-.8,1.1-.8-1.6-1-2.4-.6.2,0,.6-.2.8-.2-.9-.2-4.9-.9-4.1.2-.2.2.2.3.6.6-4.6,1.4-9.5,1.4-7.4,2.4-1.1.5-.2,1.2.8.8,7.7.2-6.7,6,2,6.4-5.9-2.5,15.4-.8,16.2.2,3.8.7,19.6-3.2,18.3,2.5-4.6-.2,1.9-1.6-3.2-1.3,2,1.6-4.3.3-5.2,1.6,1.5.6,4.6.6,7.4.6l-.6-.2c2.4-.2,7.1-.6,9.5.2-.6.6.6,1-1.1,1,.2,0,5.1.3,2.9-.2,4.6.9,19.5-2.4,23.3-1.3-39.1,3.2,7,.5,14.5-1,2.9.2-.9,1,1.1,1.6,5.1.5,12.8.6,18.5-.3-1.1.3-4.1,2.8-6.5,1.8-.3.2-2.9.3-2.8,1,3.2.7,6.7-.5,10,.2v-.2c1.1,3,10.9-.3,16.9.6,3.3-2.1,20.1,3.7,16.6-.8l4.3.2c-3.9,1.9,8,1.8,3.7,3.7,2.6,1.7,16.4-3.6,15.9,1.3,5.6,0,15.3,2.8,19.2-.2,4.3,0,4.3.8,3.7,1.8l3.4.2c-11.2,0-22.8-.3-34.3-.8,25,3.7,54.6,6.8,74-1,1.3,2.5,10.3,4,17.5,4.8l.6,10.9c-1.1-1-.9,11-1.7,4.6,3.3,44.4,1.9,88.7,4.8,134l.3-.8c1.7,31.2,6.3,66.8,9.1,96.7,1.1-3.1,1.5,11.7,2.4,5.8,1.7-8,.2-8.3,1.7-15.1l-.3.2c4.9-77.3,3.1-160.4.8-237.1,67.1-6.3,148.2,1.1,217.9,2.4-3.4-.3-6.7-.5-10-.8,12.7-1.1,24.2-2.1,35.4-2.9-2-.6-2.3-1.1-6.9-1.9,8,.5,20.2-1.8,28.5-1.9-1.1,1,3.2,1.1,7.1,1.1l-1.5-.6c9.7.2,20.5,0,30.6-.2-.8,2.5,0,13.8.2,16.5-1.1-1-.9,11-1.7,4.6,3.3,44.4,1.8,88.7,4.9,134l.3-.8c1.7,31.2,6.3,66.8,9.1,96.7,1.1-3.1,1.5,11.7,2.4,5.8,1.7-8,.2-8.3,1.7-15.1l-.3.2c5.7-78.8,1.8-163.6,1.3-241.8.2.8,13.2-.4,13.8-.3-.9,1.1,10.6,1,4.5,1.8,42.7-3.4,85.3-1.9,129-5.1l-.8-.3c30-1.8,64.3-6.6,93.1-9.5-3-1.1,11.2-1.6,5.6-2.5-7.2-1.3-7.7,0-14.2-1.3l.7-.7h0ZM68.6,258.5c-.9,0-.8-.4.2-.8.2.2.2.6-.2.8ZM74.8,255.5c.2,0,.6-.2.8-.2-.9-.4-3.9-.2-5.6-.2,0,.4.6.4.6.6-1.8.3-4.1.8-6,.4.3-.2,1.3,0,1.9,0-2.1-.3,9.4-3,9.9-1,.4-.3,1.3,0,1.7,0-.9.2-2,.4-3.2.4h0ZM68.6,589c-.9,0-.8-.3.2-.8.2.2.2.6-.2.8ZM74.8,586.1c.2,0,.6-.2.8-.2-.9-.3-3.9-.2-5.6-.2,0,.3.6.3.6.6-1.8.3-4.1.8-6,.3.3-.2,1.3,0,1.9,0-2.1-.3,9.4-3,9.9-1,.4-.3,1.3,0,1.7,0-.9.2-2,.3-3.2.3h0ZM646,.8c.2.3,0,1.4,0,1.9.2-2.2,2.9,9.8.9,10.2.2.4,0,1.3,0,1.8-.2-.6-.3-1.9-.3-3.1,0,.2.2.6.2.8.3-1,.2-4,.2-5.8-.3,0-.3.6-.6.6-.2-1.8-.8-4.5-.3-6.4h0c0,0,0,0,0,0ZM644.6,5.4c-.2.2-.6.2-.8-.2.2-1,.3-.8.8.2ZM328,.8c.2.3,0,1.4,0,1.9.2-2.2,2.9,9.8.9,10.2.2.4,0,1.3,0,1.8-.2-.6-.3-1.9-.3-3.1,0,.2.2.6.2.8.3-1,.2-4,.2-5.8-.3,0-.3.6-.6.6-.2-1.8-.8-4.5-.3-6.4h0c0,0,0,0,0,0ZM326.5,5.4c-.2.2-.6.2-.8-.2.2-1,.3-.8.8.2ZM581.2,585.9h.9c-83.1.3-176.9,1.8-252.8.2-.2-15.5,0-32.8-.6-48.4v1c-.2-85.3-1.9-182.7-.2-260.4,67.1-6.3,148.2,1.1,217.9,2.4-3.4-.3-6.7-.5-10-.8,12.7-1.1,24.2-2.1,35.4-2.9-2-.6-2.3-1.1-6.9-1.9,8,.5,20.2-1.8,28.5-1.9-1.1,1,3.2,1.1,7.1,1.1l-1.8-.4c8.2.2,17.1,0,25.7,0,6.5,70.3-.9,154.9-2,227.9.2-3.5.5-7,.8-10.4,1.1,13.1,2,25.2,2.8,36.8.6-2.1,1.1-2.4,1.8-7.2-.5,8.3,1.7,20.9,1.8,29.6-.9-1.1-1.1,3.3-1.1,7.4l.6-1.6c-.2,9.3,0,19.5.2,29.3-15.5,0-32.6,0-48.1.3h0Z"/><g id="Letter_X3"><path id="Black_Part2" d="M216.2,812.1c-2-.9.4-2.9,1.4-5.7-2.4,3.2-2.6,6.9-4.5,5.1-.5.5-1.5.2-1.2-.8-.6,1-2.1.5-1.4-.8h0c0-.2.2-.4.3-.7-.4,1.4-2.5,2.6-1.9.3-.5,1.2-2.2,1-1.5-.6h0c.4-1,.9-2.1,2.2-4.5-1.5,2.7-2.2,4-2.6,4.6-4.4.7,4.8-11.7,6.1-16.2-7.8,16-14.6,22.6-4.4,3-7.7,12.7-5.8,13-8.3,11.7-.3.3-1.2.2-1.3-.3-.7.3-1.6,0-1-1.2h0c.9-1.8,4.4-8.8,6.5-12.9-2.2,3-7.1,15.8-7.8,10.8h0c.4-1,4-8.2,5.9-12-.8.7-7.4,15.5-7.2,9.7h0c.6-1.2,1.5-3.1,2.7-5.4-2.6,4.6-2.8,4.6-3,4.7-.7,0-1.2,0-.8-1.3h0c1.1-2.4,2.5-5.6,7.2-14.9-4.6,8.4-5.9,10.4-7.4,13.3h0c-.5,1-1.9.4-1.3-.8h0s.2-.3.4-.9c-.6,1-1.9.6-1.4-.7h0s.2-.5.3-.6c-.6.8-1.9.3-1.3-1h0c.2-.3.2-.6.4-1-3.1,1.2-2.2.8,3.1-10.6-4.7,8.6-4.9,8.7-5.3,8.8-.8,0-1.3-.2-.8-1.4h0c2.2-4.6,7.2-14.2,10.5-20.8-3.5,4.8-11.2,23.7-12.1,18.6h0s.2-.3.3-.6c-3.5,2.5,38.5-76.7,43.9-78.8-.8,2.2-3,6.3-9.6,18.7.4.3.7.3.3,1.3h0c-1.4,2.7-6.5,13-9.2,18.2.7-1.3,2.2-1,1.5.6h0c-.5,1.1-7.1,14.5-10,20.2,2.4-2.1,8.8-21,11.7-17.9,0,0-.3.6-.4.9.7-1.1,2-.7,1.4.8h0c-.2.2-.3.6-.4.9.5-1.2,1.9-.9,1.4.5h0s-.2.4-.2.6c4,.4-5.4,12.5-6.7,17.3,2.6-4.8,6.3-11.4,8.2-14.8h0c.8-1.1,1.8-.2,1.3.8h0c-.7,1.2-2.3,4.6-3.5,6.8,1.8-3.4,4.9-8.9,4.6-4.8h0c-.8,1.8-3.5,7.3-5.1,10.2,6.1-10.2,5.2-11.1,6.5-8.1-.2.8-.8,2-1.9,4.2,2.4-4.3,3-4.6,3.4-2.4.7,0,1.1,0,.7,1.3,2.6,1.8-4,10-5.5,14.4,7.6-12.6,6.4-13.8,7.9-10.6-.7,1.6-1.8,4.1-4.8,10.2,5.1-9.1,5.2-9.2,5.6-9.3,1.6.3,1.4.2-.7,4.6,1.9-3.6,3-3.7,2.7-1.4h0s-.2.3-.2.3c1.5-1.2,1.5,1,.7,2.1.8-1.5,1.9-.9,1.5.5h0v.2c.7-.3,1.4,0,.9,1.1,2.5.5-.3,3.2-1.5,6.3,2.7-6.2,5.3-4.9,1.9.7.8-1.8,3-5.3,3-2h0s-.5.9-.6,1.2c.4-1.2,2.2-1.3,1.6.4h0c-.8,1.4-1.2,2.8-2.8,5.9.6-1,3.9-8.2,4-4.1h0c-.8,1.6-1,2.6-2.4,5.5,1-2.1,3.8-7.2,3.7-3.3h0c-.5,1-1.4,3.3-2.6,6,1.1-2.1,4-7.8,4-4,.7,0,1.2.2.8,1.3h0c-.4.9-.7,1.7-1.3,3.1.6-1.6,2.5-4,2.5-1.4.7,0,1.1.2.7,1.4h0s-.2.3-.2.3c.7-.5,1.7-.3,1.2,1.1h0c-.2.8-.5,1.8-1.2,3.4,1.7-3.6,2.9-3.4,2.6-1.1,1.5-.5,1.2,1.2.8,2.4,1.5-1.6,1.9-1,1.3,2.8,1.4-2.8,2.2-.4,2.2,1.5.8-1,1.5.2,1.7,1,1.8.4-.6,3.5-1.3,1.5-1,1.6-1.9,1.6-2-1.7-2,4.8-3.6,3.6-2.6-.5-1.8,3.8-4.4,6.1-3.2,2-1.7,3.2-2.3,3.5-2.7,1.7-2.7,3.8-1.8-1.7-.5-3.8-3.5,6.2-3.4,6.9-4.3,4.3-1.2,1.9-1,1.9-2.1,1.3-.7,1-1.9.7-1.4-.8h0c.3-.5.4-1.1.8-2-2.6,4.2-1.8,4.4-3.5,3.4-.5,1.2-2.1.9-1.4-.6h0c.4-1,.9-2.4,2.2-5.1-2,3.8-5.1,9.8-5,5.6h0c.7-1.3,1-2.5,2.3-5.2-4.5,7.6-3.9,8.4-5.1,5.5.6-1,.8-2,1.8-3.9-3.5,6.6-4.4,7.3-4.3,4.2-.4.7-.7,1-.8,1.4-.6,1-1.9.7-1.4-.7h0c.7-1.1.9-2.2,1.9-4-2.3,3.5-2,5-3.8,5.7l-.2-.2h0Z"/><path id="Black_Part1" d="M133.1,825.8c-1.8-.3.2-2.5.8-4-2.1,3.1-1.8,3.7-3,3.3-.5-.3-.8-.5,2.8-7.9-4,7.2-5.6,9.5-5.1,5-.4,1.4-2.6,2.9-2,.3h0c.2-.4.4-.9.7-1.4-.6,1.5-2.7,3.8-2.3,1h0c.9-2.5,11.5-22,22.4-42.3-13.3,22.6-25.4,49.2-24.8,41.5h0c.2-.4.5-1.1.8-1.7-4.1,4.8-4.4,2.9,3.2-10.8-7.8,13-6.7,14.4-8.1,11h0c-.2-.3,7.5-14.4,11.4-21.4-20.6,36.2-4.9,1.9,8.9-22.2-2.5-.4-1.7-.2,13.2-29.1-.6-.2-.8-.3-.5-1.3h0c.9-2.1,2.4-5.4,7.1-14.8-4.6,7.9-8.9,17.3-8.8,12.3h0c.4-1,2.4-4.9,4.1-8.3-2.6,4.8-5.5,10.5-5.4,6.2h0c.6-1.3,3.6-7.5,4.9-10-3.5,5.8-5.8,12-6.3,7.7h0c.3-.9,2.1-4.3,3.2-6.6-3.2,5.8-3.4,5.9-3.8,6-.8,0-1.4-.2-.8-1.6-3.2.3,3.3-9.1,4.3-12-2.2,3.2-6.1,13.6-6.7,8.8-.8,0-1.2,0-.8-1.4h0c.7-1.3,1.1-2.5,2.5-5.3-1.5,2.9-3.8,7.1-3.7,3.5h0c1.1-2.2,1.9-4.2,4.9-9.9-5.9,9.6-4.8,10.6-6.3,7.9-.7,0-1.1-.2-.8-1.2-.8,0-1.3,0-.8-1.4h0c.5-1,3.7-7.7,5.5-11.2-2.6,4.8-4.6,8.2-5.6,9.9h0c-.8,1-1.8.5-1.3-.8h0c1.1-2.1,2.1-4.6,4.8-10-2.6,4.9-3.6,6.4-4.7,8.6h0c-.8,1.1-1.8.5-1.3-.7h0c.2-.3.5-1.1.8-1.7-.9,1.9-2.2,1.7-1.8,0h0c.8-1.4,1.1-2.6,2.4-5.4-1.4,2.8-3.7,7.1-3.7,3.4h0c.9-1.9,1.8-4.1,4.7-10.1-5.7,9.6-4.9,10.7-6.2,7.5.3-.7.6-1.5,1.3-2.8-1.6,3.2-2.7,3.2-2.4,1h0c.2-.3.3-.6.4-1-.4,1.2-2.2.7-1.6-.6h0c-.8,0-1.3,0-.8-1.4h0c.6-1.2,1.3-3.1,3.1-7.1-.8,1.4-4.5,9.6-4.6,5.1h0c.6-1.2,1.6-3.8,2.9-6.7-1.5,2.7-4.3,8.3-4.3,4.5-.7,0-1.3-.2-.8-1.3h0c.2-.3.2-.6.4-1-.7,1.2-2,.9-1.5-.6h0c.3-1,.8-2.7,2.1-6-.7,1.8-4.2,7.8-3.8,3.3-2.4.6-.5-2.9,0-5.3-1,2.5-3.5,4.7-2.6.7-1.2,1-1.6.5-1.4-2.1-1.2,1.3-1.5-.3-2.4-1.9-2.3-1.2,1.2-3.8,1.7-.3.9-2.8,3.4-3.4,2.5,0,2.2-4,2.9-4,2.8-1.1,2.4-3.8,3.4-3.2,1.5,3,3.7-6.4,3.2-7.1,4.4-4.6,3.4-4.6,1.7,1.8,0,5.5,4.1-7.5,4.1-7.5,4.6-7.6,1,0,1.4.6.8,1.8,1.4-2.5,1.4-2.7,2.5-1.7.6-1.3,2-1,1.5.4h0c-.7,1.3-.9,2.5-2.2,5.3,3.8-6.8,4-6.9,4.3-6.9,2.4.7-.4,3.5-1.7,7.2,4.8-8.1,3.8-8.8,5.5-6.9.8-1.7,2.2-1.4,1.7.3h0s-.3.5-.3.8c1.7-3.2,2.5-3.3,2.4-1.1h0c-.5,1-.8,1.8-1.6,3.6,2.9-5.2,2.9-5.2,3.2-5.3.7,0,1.2,0,.8,1.3h0c-.7,1.7-1.5,3.8-4.1,9.1,4.3-7.1,6.2-13.6,7.2-9.6h0c-.8,1.3-1.2,2.6-2.6,5.4,3.4-6,3.5-6,3.9-6.1.8,0,1.3,0,.8,1.4h0c-.3.4-.4,1-.8,1.6.4-.8.8-1.3,1.1-1.9h0c.8-1,1.8-.5,1.3.9h0c-1.2,2.2-1.9,4.4-5,10.2,4.2-6.7,5.9-13.3,7.2-9.6h0c-.8,1.7-1.4,3.3-3.5,7.5,5.1-8.5,3.9-9,5.7-7.5.3-.5,1.2-.3,1.3.3.6-.5,1.5,0,1.1,1h0c-.8,1.6-1.2,2.8-2.7,6,5.1-10.6,6-6.4,2.9-.9,1.3-2.4,1.9-3.2,2.5-4.5h0c.4-.9,1.5-.5,1.5.3.7-.5,1.7,0,1.1,1.1h0c-.5,1.3-1.4,3.2-3.8,7.8,2.2-4,3-5.3,3.6-6.6.6-1,2.1-.5,1.4.8h0s0,.3-.2.3c3.1-.7-2.5,8-3.5,10.4,1.9-3.4,3.5-6.3,4.4-7.9h0c.8-1.1,1.8-.5,1.3.7h0c-.9,1.8-3.5,7.4-5.5,11.2,9.9-19.4,6.7-6.8,1.9,1.3,1.3-1.6,5.7-12.7,6.1-7.9h0c-1.2,2.6-2.5,5.7-7.3,15.1,12.1-23.7,9.5-12.3,2.9-.7,19.5-32.2-9.4,22.8-13.3,29.3,33-59.6,40.1-75.3,37.9-63.6,10.6-15.8-2.5,10-7.1,17.6,11.8-21.3,12.8-22.8,13.3-22.9,1.1,0,1.4,0,.3,2.7.8-1.9,3.4-5,2.9-1.7h0c-1.4,2.7-7.8,14.7-10.9,20.5,11.6-20.2,14-26,13.9-20.3,1.8-3.3,2.8-3.2,2.5-1.1.2-.3.6-1,.7-1.2h0c.6-1,2-.3,1.4.9h0c-15.3,28-33.1,60.6-54.6,100.4,23.5-42.5,57.1-105.1,57-102.2,1.4,0,1.4,0,0,3.5,2.2-3.8,2.4-3.8,2.5-3.9.8,0,1.3,0,.8,1.4h0c-.7,1.6-1.7,3.9-4.7,9.5,11.8-21,8.2-8.3-1,6.9,16.1-29.4,15.4-22.5,1.7,2.7,10.5-17.9,13.4-25.8,13.9-20.3,10.6-6.2-23.3,46.9-27.8,57.5,9.7-17.3,22-40.1,31.5-57.3.5-1,1.4-.8,1.6,0,.7-.5,1.7-.2,1.1,1.1h0c0,.8-6.6,12.8-13,24.5,14.2-24,14.1-28.7,15.2-23.1,1-2.1,2.7-2,1.9,0-13.1,25.5-33.7,62.3-49,90.8,8.7-12.9,54.6-105.9,52.1-88,.6-1.7,3.1-4.2,2.5-1.1-12.3,25-41.6,77.1-57.8,107.5.2.2.2.4,0,1.2h0c-.8,1.9-2.8,6.1-8.5,17.6l.6.4c-3.3,4.6-9.5,20.2-9.5,13.9h0c.5-.9.8-1.8,1.6-3.3-1.6,3-3.6,7.4-3.9,3.8h0c5.1-10.4,17.3-32.2,25.5-47.4-10.6,17.3-28.7,55.9-28.5,48-1.1,1.5-1.4,2.1-2.3,1.1-3.2,1.4-2.5.9,3.7-11.4-4.6,8.2-6.4,11.2-7.2,12.2-1.2,1-2.4.4-.8-2.1-2.3,3.8-3.2,3.8-2.8,1.4.5-1.4,2-4.3,5.6-10.9-6.6,10.6-6.7,13.8-8.9,12.5-.8,1.2-2.2.9-1.6-.8-1.2,1.8-1.6,2.6-2.4,1.3-1.4,1.6-2.7,1-.8-2.2-9.8,9.1,36.9-71.3,44.1-86.1-13.1,20.2-43.8,86.5-50.8,88.7,1.1-3.2,17.3-32.8,23.2-43.7-26.1,45.9-24.9,48.1-26.6,44.2h0c.3-1,.8-2.3,2.1-4.6-2.8,4.3-2.7,5.5-4.5,6.7h-.2c0,0,0,0,0,0Z"/><g class="cls-16"><path d="M211.9,745.2c9.2-22.3,19.6-46.9,29.4-69l1.5,3.6-16.3-5h1.3c-11,2.1-26.3,4.6-37.2,6.5l2.3-1.8c-3.9,9.7-10.2,24.8-14.2,34.4-1.9-3.2-10.8-19.3-12.7-22.9l1.3,1-16.1-5.6h.8c-11,1.7-26.8,3.7-37.7,5.5l.8-1.8c12.6,19,25.4,37.8,38.5,56.2-9.9,22.2-23.9,53.1-34.1,74.8l-1.9-4.5,16.3,5.1h-1.4l38-6.8-2.7,2.1c5.3-12.1,11.8-26.9,17.2-38.8,2.4,3.8,13.6,21.9,16.1,26l-1.9-1.4,16.2,5.4h-1.4c9.5-1.6,28.8-4.4,38.4-5.7l-1.7,4c-11.2-17.4-28.3-44.2-39-61.6h.2c0,0,0,0,0,0ZM212.6,745.2c13.1,17.7,31.9,43.9,44.9,61.9-18.6,2.6-42.1,11.8-60,2.6-1.5.8-13.8-20.8-14.8-21.7l6.1-.5c-5.6,9.7-9.5,28-17.1,34.9-20.9,2.8-38.3,9.7-59.3-.7,10.8-22.4,26.4-53.3,37.8-75.9v1.7c-12.2-19.4-24.9-38.6-37.9-57.6,18.1-2.5,39.4-11,57.1-2.1.4.7,11,17.6,11.4,18.3l-4.8.3c2.8-7.4,8.6-22.2,11.5-29.5,16.4-6.8,42.4-10,59.8-1.2-10.9,22.4-23.2,47.1-34.6,69.4h0v.2h.1Z"/><path d="M212.3,745.2l30.4-68.4.7,1.7-16.3-5h.6l-37.2,6.5,1.3-1c-.7,1.8-12.8,32.7-13,33.1-1.3-2.1-11.2-18.7-12.6-21.1l1.2,1-16.3-5.2h1l-37.5,6.4,1.5-3.7c.8,1.2,37.8,55.8,38.5,56.9-10.3,21.8-25.1,52.5-35.8,74.5l-1.4-3.3,16.2,5.3h-1l38.1-6.2-1.6,1.2c5.3-12,10.8-23.9,16.2-35.9.8,1.2,13.4,21.6,14.5,23.5l-.9-.7c16.5,8.7,34.7,1.7,53.9-.6l-.8,1.8-39.8-60.8h0c0,0,0,0,0,0ZM212.3,745.2c1,1.5,41.7,59.6,42.7,60.9-31.8,4.7-53.8,18-71-19.1l3.3-.3c-5.6,10.8-8.9,25.1-15.9,34.2-18.9,2.8-39,10-57.9.3,10.9-22.7,25.2-53.5,36-75.8l.2,2.6c-2-3-37.6-56.2-39.4-59,14.6-2.1,44.7-10.2,58.3-1.3.8-.9,11,18.5,11.5,18.9l-3.5.3c1.2-1,11.2-30.8,13.3-30.3,15.8-2.4,40-9,55.3,0-.6,1.3-32.4,67.2-33,68.6h0Z"/><path d="M198.6,806.2c-8-13.2-15.9-26.5-24-39.8-16,36.7-16,49.1-57.8,53.1v.3c41.3,1.4,44.3-11.8,58.2-49.2,7.8,11.9,15.6,23.7,23.4,35.7,0,0,.2-.2.3-.2h0Z"/><path d="M197.4,739.8c7.8-17.3,22.8-50.8,30.3-67.6l-.3-.2c-8.3,17.1-24.5,51-32.5,68.1,11.4,17.1,27.6,42.1,39.4,58.9-8.8,1.6-17.5,3.2-26.1,5.2-28.2,5.9,25.6-2,31.5-2.8-11.5-18.1-29.7-43.5-42.1-61.4h0c0,0,0,0,0,0Z"/><path d="M190.4,678.2l-.3-.2c-7.1,12.7-12.3,26.1-17.3,39.8-5.8-9.5-15.8-25.3-21-33.5l-.2.2c5.6,10.3,15.9,28.9,21.8,39.2,6.5-14.9,13-29.7,17.1-45.5h0c0,0,0,0,0,0Z"/></g><path id="White_Part-2" class="cls-10" d="M196.1,739.9l40.7,60.1-38.4,6.3-23.8-37.7c-17.1,38.5-12.5,48.4-57.9,51.2l34.9-73.2-37.5-55.8,37.6-6.1,21.4,36.3c15.4-38.7,10.2-45.5,54.4-48.7l-31.5,67.9v-.2h0Z"/></g><g id="Letter_X1"><path id="Black_Part2-2" d="M510.9,494.4c-2-.5.4-3.2,1.3-5.7-1.9,3.1-3.2,7.4-4.5,5.1-.5.5-1.5.2-1.2-.8h0c-.6,1-2,.5-1.3-.8h0c0-.2.2-.4.3-.7-.4.8-1.1,2.1-1.8,1.5-.2-.2-.5-.3-.2-1.1-.5,1.2-2.2,1-1.5-.6h0c.4-1,.9-2.1,2.2-4.5-1.5,2.7-2.2,4-2.6,4.6-5.1,3.6,5.2-13.6,6.2-16.2-3,5.4-9.2,16.8-9.1,16-3,.3,2.4-7.5,4.7-13-7.2,12.5-6.4,13.2-8.3,11.7-.3.3-1.2.2-1.3-.3-.7.3-1.6,0-1-1.2h0c.9-1.8,4.4-8.8,6.5-12.9-1.8,2.5-7.8,16.4-7.8,10.8h0c.4-1,4-8.2,5.9-12-1.2,2.1-4.9,8.8-5.8,10.5h0c-.7,1.1-1.9.4-1.3-.8h0c.6-1.2,1.5-3.1,2.7-5.4-2.6,4.6-2.8,4.6-3,4.7-.7,0-1.2,0-.8-1.3h0c1.1-2.4,2.5-5.6,7.2-14.9-4.6,8.4-5.9,10.4-7.4,13.3h0c-.5,1-1.9.4-1.3-.8h0l.4-.9c-.6,1-1.8.6-1.3-.7h0s.2-.5.3-.6c-.6.8-1.9.3-1.3-1h0c.2-.3.2-.6.4-1-2.3,1.8-2.5.3,3.1-10.6-4.7,8.6-4.9,8.7-5.3,8.8-.8,0-1.3-.2-.8-1.4h0c2.2-4.6,7.2-14.2,10.5-20.8-2.7,4-12.4,24.9-12.1,18.6h0s.2-.3.3-.6c-5.2,2.4,20.2-37.1,30.2-57.3,8.5-14.9,13.7-26.7,13.7-21.5h0c-.8,2.2-3,6.3-9.6,18.7.4.3.7.3.3,1.3h0c-1.3,2.7-6.5,13-9.2,18.2.7-1.3,2.2-1,1.5.6h0c-.5,1.2-7.1,14.5-10,20.1.5.2,11.9-24.6,11.6-18h0c0,.2-.3.7-.4,1,.7-1.1,2-.7,1.3.8h0c-.2.2-.3.6-.4.9.5-1.2,1.9-.9,1.4.5h0s-.2.4-.2.6c4.7-2.8-5.9,14.6-6.7,17.3,2.6-4.8,6.3-11.4,8.2-14.8h0c.8-1.1,1.8-.2,1.3.8h0c-.7,1.2-2.3,4.6-3.5,6.8,1.8-3.3,2.7-4.6,3.2-5.6h0c.6-1.1,2-.6,1.4.8h0c-.8,1.8-3.5,7.3-5.1,10.2,5.1-9.3,5.3-9.4,5.7-9.5,2.4.2-.2,3.1-1.1,5.6,2-3.4,2.1-3.5,2.4-3.6.7,0,1.3.2.9,1.1.7,0,1.1.2.7,1.3,3,.4-4.3,10.9-5.5,14.4,6.6-11.8,6.7-11.9,7.2-12,.8,0,1.2,0,.8,1.4h0c-.7,1.6-1.8,4.2-4.8,10.3,5.1-9.1,5.2-9.2,5.6-9.3,1.6.3,1.4.2-.7,4.6,1.5-2.6,1.7-2.7,1.9-2.8.8,0,1.3,0,.8,1.4h0s-.2.3-.2.3c.4-.5.7-.4.9-.3.8.2,0,1.6-.2,2.3.8-1.5,2-.9,1.5.5h0v.2c.7-.3,1.3,0,.9,1.1,2.5,0-.4,3.4-1.5,6.3,1.2-2.1,1.8-3.2,2.2-3.8h0c.5-.8.6-.7,1.2-.5,1.1,1-.7,2.7-1.5,5,.8-1.4,1.2-2,1.6-2.8h0c.6-1,1.8-.6,1.3.7h0s-.5.9-.6,1.2c.4-1.2,2.2-1.3,1.6.4h0c-.8,1.4-1.2,2.8-2.8,5.9.5-.9,4.1-8.3,4-4.1h0c-.8,1.6-1,2.6-2.4,5.5,1-1.8,1.9-3.4,2.4-4.1h0c.7-1.1,1.9-.4,1.3.8h0c-.5,1-1.4,3.3-2.6,6,1.3-2.5,2-3.4,2.5-4.6h0c.8-1.1,1.8-.6,1.3.6.7,0,1.2.2.8,1.3h0c-.4.9-.7,1.7-1.3,3.1.6-1,1.4-3.2,2.3-2.5.3.2.5.3.3,1,.7,0,1.1.2.7,1.4h0s-.2.3-.2.3c.7-.5,1.7-.3,1.2,1.1h0c-.2.8-.5,1.8-1.2,3.4,1.4-2.5,1.5-2.5,1.8-2.6.8,0,1.3.3.8,1.5,1.5-.5,1.2,1.2.8,2.4,1.2-1.7,2.1-.8,1.3,2.8,1.4-2.8,2.2-.4,2.2,1.5.8-1,1.5.2,1.7,1,1.8.4-.6,3.5-1.3,1.5-1,1.6-1.9,1.6-2-1.7-2.2,4.9-3.6,3.8-2.6-.5-1.8,3.8-4.4,6.1-3.2,2-1.4,2.5-1.5,2.5-1.8,2.6-.6,0-1.2-.2-.9-1-.4.8-.8,1.7-1.6,1.2-1.2-.9.8-3.2,1.1-5-3,5.4-3,5.4-3.5,5.6-.7,0-1.2,0-.8-1.2-1.2,1.9-1,1.9-2.1,1.3-.7,1-1.9.7-1.3-.8h0c.3-.5.4-1.1.8-2-2.5,4.1-2,4.5-3.5,3.4-.5,1.2-2.1.9-1.4-.6h0c.4-1,.9-2.4,2.2-5.1-2.1,3.9-3,5.4-3.5,6.4h0c-.6,1-1.9.7-1.3-.7h0c.7-1.3,1-2.5,2.3-5.2-3.8,6.8-3.9,6.8-4.2,6.9-.8,0-1.2,0-.8-1.3h0c.6-1,.8-2.1,1.8-4-3.1,5.7-3.2,5.7-3.5,5.8-.9.2-1.3-.5-.8-1.7-.4.7-.7,1-.8,1.4h0c-.6,1-1.9.7-1.3-.7h0c.7-1.1.9-2.1,1.8-4-2.3,3.4-2.1,5.1-3.8,5.7l-.4-.3h0,0Z"/><path d="M474.4,387.6c-.6,0-1-.3-.7-1.3h0c1.1-2.5,4.1-8.9,5.9-12.5-.4-.3-.6-.3-.3-1.2h0c.7-1.6,1.4-3.6,3.7-8.6-.2-1.2,1.5-3.1,1.8-3.9.6-1,1-.6,1.5-.2.5-1.1,2.1-.9,1.4.6h0c-.3.5-.5,1.1-.8,1.8,1.9-3.4,2.1-3.5,2.4-3.5l.2.8-.4.7.4-.7.6.5c-1.1,1.7-11.5,20.9-14.9,26.8h0c-.4.6-.4.5-.8.6h0Z"/><path id="Black_Part1-2" d="M427.7,507.9c-.7-.2-1-.3-.5-1.5h0c.4-.7.7-1.4,1.3-2.5-2.1,3.1-1.8,3.6-3,3.3-.5-.3-.8-.5,2.8-7.9-3.4,5.9-4.3,7.1-4.6,7.2-1.4.3-1.1-1.1-.4-2.2-.2.4-.4.7-.6,1h0c-.7,1.2-1.9.7-1.4-.7h0c.2-.4.4-.9.7-1.4-.4.8-.7,1.1-.9,1.6h0c-.6,1.1-1.9.8-1.4-.6h0s.2-.3.4-.7c1.3-3.1,5.7-11.4,18.9-35.7,1-1.9,2.1-3.8,3.2-5.9-13.1,22.6-25.7,49.4-24.8,41.5h0c.2-.4.5-1.1.8-1.7-1.6,2.4-1.2,2.5-2.4,2.3-.8-.4-1-.6,5.6-13-6.7,12.3-6.9,12.3-7.2,12.4-.8,0-1.3-.2-.8-1.4h0c0-.3,7.5-14.5,11.4-21.4-8.8,15.9-9,15.9-9.4,16-4.2,1.4,9.2-20.1,18.3-38.2-2.5-.4-1.7-.2,13.2-29.1-.6-.2-.8-.3-.5-1.3h0c.9-2.1,2.4-5.4,7.1-14.8-4.9,8.9-6.5,11.6-7.3,13h0c-.6,1.1-1.9.6-1.3-.8h0c.4-1,2.4-4.9,4-8.3-2.5,4.6-3.5,6.3-4,7h0c-.6,1-2,.5-1.3-.9h0c.6-1.3,3.6-7.5,4.9-10-3,5.6-6.8,12.4-6.3,7.7h0c.3-.9,2.1-4.3,3.2-6.6-3.2,5.8-3.4,5.9-3.8,6-.8,0-1.3-.2-.8-1.6-3.2.4,3.3-9.1,4.3-12-1.8,3-6.7,13.8-6.7,8.9-.8,0-1.2,0-.8-1.4h0c.7-1.3,1.1-2.5,2.5-5.3-1.3,2.5-2,3.7-2.4,4.2h0c-.6,1-1.9.7-1.3-.8h0c1.1-2.2,1.9-4.2,4.9-9.9-5,8.9-5.1,8.9-5.5,9-.7,0-1.2,0-.8-1.1-.7,0-1.1-.2-.8-1.2-.8,0-1.3-.2-.8-1.4h0c.5-1,3.7-7.7,5.5-11.2-2.6,4.8-4.6,8.1-5.6,9.9h0c-.8,1.1-1.8.4-1.3-.8h0c1.1-2.1,2.1-4.6,4.8-10-2.6,4.9-3.6,6.4-4.7,8.6h0c-.8,1.1-1.8.4-1.3-.7h0c.2-.4.5-1.1.8-1.7-.8,1.8-2.4,1.6-1.8,0h0c.8-1.4,1.1-2.6,2.4-5.4-1.4,2.7-4,7.2-3.7,3.4h0c.9-1.9,1.8-4.1,4.7-10.1-4.9,8.9-5.1,8.9-5.4,9-.8,0-1.3,0-.8-1.4h0c.3-.7.6-1.5,1.3-2.9-1.4,2.3-1.4,2.4-1.7,2.4-.8,0-1.3,0-.8-1.3h0c.2-.3.3-.6.4-1l-.2.3h0c-.6,1-1.9.2-1.4-.9h0c-.8,0-1.3,0-.8-1.4h0c.6-1.2,1.3-3.1,3.1-7.1-1.2,2.2-2.3,4.1-3.2,5.8h0c-.6,1.2-1.9.5-1.4-.7h0c.6-1.2,1.6-3.8,2.9-6.7-1.6,3-2.3,3.9-2.9,5.2h0c-.6,1-1.9.6-1.4-.7-.7,0-1.3-.2-.8-1.3h0c.2-.3.2-.6.4-1-.7,1.2-2,.9-1.5-.6h0c.3-1,.8-2.7,2.1-6-.8,1.4-1.9,3.4-2.4,4.4h0c-.8,1.4-2.1.2-1.4-1-2.4.6-.5-2.9,0-5.3-1,1.6-1.5,3.3-2.4,2.8-.4-.3-.6-.4,0-2-.9,1.1-1.8.4-1.4-2.1-1.2,1.3-1.5-.3-2.4-1.9-2-.4.4-4.6,1.7-.3,1.1-2.9,3.2-3.7,2.5,0,1.1-1.9,1.7-2.9,1.9-3,.9,0,1.3,0,.8,1.8,1.5-2.5,1-2.4,2.2-2.1.5.4.6.4-.7,5.1,3.1-5.7,3.2-5.7,3.5-5.8.7,0,1.2,0,.8,1.1,1.1-1.8.8-1.7,1.8-1.4.9,1.3-.8,3.4-1.8,6.9,4-7.5,4.1-7.5,4.5-7.6,1,0,1.4.6.8,1.8,1.4-2.5,1.6-2.7,2.5-1.7.6-1.3,2-1,1.5.4h0c-.7,1.3-.9,2.5-2.2,5.3,3.8-6.8,4-6.9,4.3-6.9,2.4,0-.5,3.9-1.7,7.2,4.4-7.9,4.5-8.9,5.5-6.9.8-1.6,2.3-1.3,1.7.4h0c0,0-.3.6-.3.8,1.3-2.4,1.4-2.4,1.7-2.5.7,0,1.3,0,.8,1.3h0c-.5,1-.8,1.8-1.6,3.6,2.9-5.2,3-5.2,3.2-5.3.7,0,1.2,0,.8,1.3h0c-.7,1.7-1.5,3.8-4.1,9.1,3.7-6.7,7.4-14.3,7.2-9.6h0c-.8,1.3-1.2,2.6-2.6,5.4,3.4-6,3.5-6,3.9-6.1.8,0,1.3,0,.8,1.4h0c-.3.4-.4,1-.8,1.6.4-.8.8-1.3,1.1-1.9h0c.8-1,1.8-.4,1.3.9h0c-1.2,2.2-1.9,4.4-5,10.2,3.6-6.2,7.1-14.1,7.2-9.6h0c-.8,1.7-1.3,3.3-3.5,7.5,4.7-8.3,4.5-9.2,5.7-7.5.3-.5,1.2-.3,1.3.3.6-.5,1.5,0,1.1,1h0c-.8,1.6-1.2,2.8-2.7,6,3.5-6.3,3.7-6.3,4-6.4,2.4,0-.2,3.1-1,5.6,1.3-2.4,1.8-3.1,2.5-4.5h0c.4-.9,1.5-.5,1.5.3.7-.5,1.7,0,1.1,1.1h0c-.5,1.3-1.4,3.2-3.8,7.8,2.2-4,3-5.3,3.6-6.6h0c.6-1,2-.5,1.3.8h0v.2h0c3.1-.7-2.5,8.1-3.5,10.5,1.8-3.4,3.5-6.3,4.4-7.9h0c.7-1.1,1.8-.5,1.3.7h0c-.9,1.8-3.5,7.4-5.5,11.2,5.5-9.9,5.6-10,6-10.1,3.1-.3-3,8.3-4,11.4,1-1.3,6.2-13,6.2-7.9h0c-1.2,2.6-2.5,5.7-7.3,15.1,7.5-13.5,7.6-13.6,8-13.7,2.9-1-3.4,9.3-5.1,13,6.5-11.1,5.2-10.7,7.1-10.7,1.2,1-1.3,3.6-2.6,6.8-5.7,10.8-11.5,21.6-17.7,33.2,32.8-59.2,36.4-67.9,38.9-67.8.5.4.8.5-1,4.2,2.6-3.9,2.5-5.1,4-4.7,1.7-1.2-7.5,16.1-11,22.3,12.5-21.8,12-22.9,14-22.8.3.2.7.4-.3,2.6,1.1-1.7,1.3-2.5,2.1-3.1.8,0,1.3,0,.8,1.4h0c-1.3,2.7-7.8,14.7-10.9,20.5,11-20,15.1-26.2,13.9-20.3,1.6-2.8,1.8-2.7,2.4-2.4.3.2.5.4.2,1.2.2-.4.6-1,.7-1.2h0c.6-1,2-.4,1.3.9h0c-15.3,28-33.1,60.6-54.6,100.4,23.5-42.5,57.1-105.1,57-102.2,1.3,0,1.4,0,0,3.5,2.2-3.9,2.4-3.9,2.5-3.9.8,0,1.3,0,.8,1.4h0c-.7,1.6-1.7,3.9-4.7,9.5,6.3-11.2,6.5-11.3,6.8-11.4,3,0-2.6,7.7-7.8,18.2,8.8-15.7,10.8-18.7,11.3-18.8,2.4,0-2.4,7.3-9.6,21.5,9.9-17.7,14.5-26.3,13.9-20.3.8-1.7,1.8-1.8,2.1-.6.3-.4.6-.4,1-.2-4.6,13.1-21.5,40.1-30.9,58.3,9.7-17.3,22-40.1,31.5-57.3h0c.5-1,1.4-.8,1.6,0,.7-.5,1.7-.2,1.1,1.1h0c.7-1-7.1,13.9-13,24.5,13-23.5,14.1-25,14.6-25.1.9,0,1.3,0,.6,2,1-2.1,2.8-2,1.9,0-13.2,25.5-33.7,62.3-49,90.9,11.2-20.1,46.3-84.4,50.8-91.6.4,0,1,0,.9.7,1.3-.7,2,0,.3,2.8.5-.9.8-1.4,1.2-1.8h0c.8-1.4,2-.6,1.4.7-12.3,25-41.6,77.1-57.8,107.5.2.2.2.4,0,1.2h0c-.8,1.9-2.8,6.1-8.5,17.6l.6.4c-3,4.9-9.9,19.7-9.5,13.9h0c.5-.9.8-1.8,1.6-3.3-1.8,3.1-1.8,4-3,5.1-.7,0-1.3,0-.8-1.2h0c5.1-10.4,17.3-32.2,25.5-47.4-11.1,18.7-28,54-28.5,48-1.1,1.5-1.3,2.1-2.3,1.1-.6.8-.7.9-1.3.6-.8-.4-.9-.6,5.1-12-5.1,8.9-6,11-7.8,12.6-1.2,0-1.5-.2-.2-2.5-2.1,3.2-1.4,3-2.7,2.8-.9-1.8,2.1-5.3,5.4-12.3-6.3,10.4-7.1,13.9-8.9,12.5-.8,1.2-2.2.9-1.6-.8-1.2,1.8-1.6,2.6-2.4,1.3-1.3,1.7-2.7,1-.8-2.2-14.6,19.6,40-78.1,44.1-86.1-12,21.5-43.6,79.6-49.3,89.4-.7,1.2-1.9.8-1.4-.7h0c1.1-3.2,17.4-32.8,23.2-43.7-25.6,45.6-25.7,48.4-26.6,44.2h0c.3-1,.8-2.3,2.1-4.6-2.1,3.7-3.1,5.3-3.6,6h0c-.3.3-.5.5-.8.6l-1.1.3h.2,0Z"/><g class="cls-12"><path d="M506.6,427.4c9.2-22.3,19.6-46.9,29.4-69l1.5,3.6-16.3-5h1.3c-11,2.1-26.3,4.6-37.2,6.5l2.3-1.8c-3.9,9.7-10.2,24.8-14.2,34.4-1.8-3.2-10.8-19.3-12.7-22.9l1.3,1-16.1-5.6h.8c-11,1.7-26.8,3.7-37.7,5.5l.8-1.8c12.6,19,25.4,37.8,38.5,56.2-10,22.2-23.9,53.1-34.1,74.8l-1.9-4.5,16.3,5.1h-1.4l38-6.8-2.7,2.1c5.3-12.1,11.8-26.9,17.2-38.8,2.4,3.8,13.6,21.9,16.1,26l-1.8-1.4,16.2,5.4h-1.4c9.5-1.6,28.8-4.4,38.4-5.7l-1.7,4c-11.2-17.3-28.2-44.2-39-61.6h.2c0,0,0,0,0,0ZM507.2,427.3c13.2,17.7,31.9,43.9,44.8,61.9-11.7,2.2-31.2,5.7-43,7.8-1.1-.3-17.3-5.3-18.2-5.6l-.7-1-13-20.3,6.2-.5c-4.5,10.3-10.7,24.2-15.3,34.6-1.2,0-40,6.7-41.5,6.1-2.4-.8-17.5-5.8-19.6-6.5,10.8-22.4,26.4-53.3,37.8-75.9v1.7c-12.2-19.4-25-38.6-37.9-57.6,11.8-1.8,28.1-5.4,40-7.1l16.4,4.8.8.3.5.8,11,17.6-4.8.4c3.1-8.1,8.9-23,12.2-31.1,11.7-2.1,27.7-4.3,39.5-6.2,2.4.8,17.5,5.9,19.6,6.6-10.9,22.4-23.2,47.1-34.7,69.4h0Z"/></g><g class="cls-15"><path d="M506.9,427.4l30.3-68.4.7,1.7-16.3-5h.6l-37.2,6.5,1.3-1c-.7,1.8-12.8,32.7-13,33.1-1.3-2.1-11.2-18.7-12.7-21.1l1.2,1-16.3-5.2h1l-37.5,6.4,1.5-3.7,37.7,55.7.8,1.2c-10.3,21.8-25.1,52.5-35.8,74.6l-1.4-3.3,16.2,5.3h-1l38.1-6.2-1.6,1.2c5.3-12,10.8-23.9,16.2-35.9.8,1.2,13.4,21.6,14.5,23.5l-.9-.7,16.2,5.3c9-1.8,26-4,37.7-6l-.8,1.8-39.8-60.8h0c0,0,0,0,0,0ZM506.9,427.4l41.7,59.4,1,1.5c-13.6,2.3-27.2,5.1-40.7,7l-16.3-5.1-.6-.2-.3-.5-13.1-20.3,3.3-.3c-4.9,11.3-9.8,22.7-14.8,34l-1.1.2c-1.4,0-37.6,6.8-39.1,6.3-1.7-.5-17.7-5.6-18.8-6,10.9-22.7,25.2-53.5,36-75.8l.2,2.6-37.4-56-2-3.1c1.3,0,39.9-6.8,42.2-6.6l16.2,5.3.8.3.4.7,10.4,18-3.5.3,12.1-29.3.3-.9.9-.2c.8,0,37.2-6,37.8-5.7.8.3,17,5.6,17.5,5.8-.6,1.3-32.4,67.2-33,68.6h0c0,0,0,0,0,0Z"/></g><path id="White_Part-3" class="cls-10" d="M490.7,422.2l40.7,60.1-38.4,6.3-23.8-37.7-19.8,44.8-38.1,6.3,34.9-73.2-37.5-55.8,37.6-6.1,21.4,36.3,17.1-42.7,37.2-6.1-31.5,67.9h0c0,0,0-.1,0-.1Z"/><path d="M493.2,488.5c-8-13.2-15.9-26.5-24-39.8-6.1,13.3-14.9,32.1-20.9,45.4-12.4,2.1-24.7,4.6-36.9,7.7v.3c13.1-1,26.3-2.7,39.3-4.8,5.9-13.1,12.6-29.8,18.9-44.3,7.8,11.9,15.6,23.7,23.4,35.7l.2-.2h0Z"/><path d="M492,422.1c7.8-17.3,22.8-50.8,30.3-67.6l-.3-.2c-8.3,17.1-24.5,51-32.5,68.1,11.4,17.1,27.6,42.1,39.4,58.9-8.8,1.6-17.5,3.2-26.1,5.2-29.6,6,26.1-2,31.5-2.8-11.5-18.1-29.7-43.5-42.1-61.4h0c0,0,0,0,0,0Z"/><path d="M485.1,360.5l-.3-.2c-7.1,12.7-12.3,26.1-17.3,39.8-5.8-9.5-15.8-25.3-21-33.5l-.2.2c5.7,10.3,15.9,28.9,21.8,39.2,6.5-14.9,13-29.7,17.1-45.5h0c0,0,0,0,0,0Z"/></g><g id="Letter_X2"><path id="Black_Part2-3" d="M815.1,198.8c-2-.5.4-3.1,1.3-5.7-1.9,3.1-3.2,7.4-4.5,5.1-.5.5-1.5.2-1.2-.8h0c-.6,1-2,.5-1.3-.8h0c0-.2.2-.4.3-.7-.4.8-1.1,2.1-1.8,1.5-.2-.2-.5-.3-.2-1.1-.5,1.2-2.2,1-1.5-.6h0c.4-1,.9-2.1,2.2-4.5-1.5,2.7-2.2,4-2.6,4.6-5.1,3.6,5.2-13.6,6.2-16.2-3,5.4-9.2,16.8-9.1,16-3,.3,2.4-7.5,4.7-13.1-7.2,12.5-6.4,13.2-8.3,11.7-.3.4-1.2.2-1.3-.4-.7.3-1.6,0-1-1.2h0c.9-1.8,4.4-8.9,6.5-12.9-1.8,2.5-7.8,16.4-7.8,10.8h0c.4-1,4-8.2,5.9-12-1.2,2.1-4.9,8.8-5.8,10.5h0c-.7,1.1-1.9.4-1.3-.8h0c.6-1.2,1.5-3.1,2.7-5.4-2.6,4.6-2.8,4.6-3,4.7-.7,0-1.2,0-.8-1.3h0c1.1-2.4,2.5-5.6,7.2-14.9-4.6,8.4-5.9,10.4-7.4,13.3h0c-.5,1-1.9.4-1.3-.8h0s.2-.4.4-.9c-.6,1.1-1.8.6-1.3-.7h0s.2-.5.3-.6c-.6.8-1.9.3-1.3-1h0c.2-.3.2-.6.4-1-2.3,1.8-2.5.3,3.1-10.6-4.7,8.6-4.9,8.7-5.3,8.8-.8,0-1.3-.2-.8-1.4h0c2.2-4.6,7.2-14.2,10.5-20.8-2.7,4-12.4,24.9-12.1,18.6h0s.2-.3.3-.6c-5.2,2.4,20.2-37.1,30.2-57.3,8.5-14.9,13.7-26.7,13.7-21.5h0c-.8,2.2-3,6.3-9.6,18.7.4.3.7.3.3,1.3h0c-1.3,2.7-6.5,13-9.2,18.2.7-1.3,2.2-1.1,1.5.6h0c-.5,1.2-7.1,14.4-10,20.1.5.2,11.9-24.6,11.6-18h0c0,.2-.3.7-.4,1,.7-1.1,2-.7,1.3.8h0c-.2.2-.3.6-.4.9.5-1.2,1.9-.9,1.4.5h0s-.2.4-.2.6c4.7-2.8-5.9,14.6-6.7,17.3,2.6-4.8,6.3-11.4,8.2-14.8h0c.8-1.1,1.8-.2,1.3.8h0c-.7,1.2-2.3,4.6-3.5,6.8,1.8-3.3,2.7-4.6,3.2-5.6h0c.6-1.1,2-.6,1.4.8h0c-.8,1.8-3.5,7.3-5.1,10.2,5.1-9.3,5.3-9.4,5.7-9.5,2.4.2-.2,3.1-1.1,5.6,2-3.4,2.1-3.5,2.4-3.6.7,0,1.3.2.9,1.1.7,0,1.1.2.7,1.3,3,.4-4.3,10.9-5.5,14.4,6.6-11.8,6.7-11.9,7.2-12,.8,0,1.2,0,.8,1.4h0c-.7,1.6-1.8,4.2-4.8,10.2,5.1-9.1,5.2-9.2,5.6-9.3,1.6.3,1.4.2-.7,4.6,1.5-2.6,1.7-2.7,1.9-2.8.8,0,1.3,0,.8,1.4h0s-.2.3-.2.4c.4-.5.7-.4.9-.3.8.2,0,1.6-.2,2.3.8-1.5,2-.9,1.5.5h0v.2c.7-.3,1.3,0,.9,1.1,2.5,0-.4,3.4-1.5,6.3,1.2-2.1,1.8-3.2,2.2-3.8h0c.5-.8.6-.7,1.2-.5,1.1,1-.7,2.7-1.5,5,.8-1.4,1.2-2,1.6-2.8h0c.6-1,1.8-.6,1.3.7h0s-.5.9-.6,1.2c.4-1.2,2.2-1.3,1.6.4h0c-.8,1.4-1.2,2.8-2.8,5.9.5-.9,4.1-8.3,4-4.1h0c-.8,1.6-1,2.6-2.4,5.5,1-1.8,1.9-3.4,2.4-4.1h0c.7-1.1,1.9-.4,1.3.8h0c-.5,1.1-1.4,3.3-2.6,6,1.3-2.4,2-3.4,2.5-4.6h0c.8-1.1,1.8-.6,1.3.6.7,0,1.2.2.8,1.3h0c-.4.9-.7,1.7-1.3,3.1.6-1.1,1.4-3.1,2.3-2.4.3.2.5.4.3,1,.7,0,1.1.2.7,1.4h0c0,0-.2.3-.2.4.7-.5,1.7-.3,1.2,1.1h0c-.2.8-.5,1.8-1.2,3.4,1.4-2.5,1.5-2.5,1.8-2.6.8,0,1.3.4.8,1.5,1.5-.5,1.2,1.2.8,2.4,1.2-1.7,2.1-.8,1.3,2.8,1.4-2.8,2.2-.4,2.2,1.5.8-1.1,1.5.2,1.7,1.1,1.8.4-.6,3.5-1.3,1.5-1,1.6-1.9,1.6-2-1.7-2.2,4.9-3.6,3.8-2.6-.5-1.8,3.8-4.4,6.1-3.2,2-1.4,2.5-1.5,2.5-1.8,2.6-.6,0-1.2-.2-.9-1-.4.8-.8,1.7-1.6,1.2-1.2-.9.8-3.2,1.1-5-3,5.4-3,5.4-3.5,5.6-.7,0-1.2,0-.8-1.2-1.2,1.9-1,1.9-2.1,1.3-.7,1-1.9.7-1.3-.8h0c.3-.5.4-1.1.8-2-2.5,4.1-2,4.5-3.5,3.4-.5,1.2-2.1.9-1.4-.6h0c.4-1,.9-2.4,2.2-5.1-2.1,3.9-3,5.4-3.5,6.4h0c-.6,1-1.9.7-1.3-.7h0c.7-1.3,1-2.5,2.3-5.2-3.8,6.7-3.9,6.8-4.2,6.9-.8,0-1.2,0-.8-1.3h0c.6-1,.8-2.1,1.8-4-3.1,5.7-3.2,5.7-3.5,5.8-.9.2-1.3-.5-.8-1.7-.4.7-.7,1-.8,1.4h0c-.6,1-1.9.7-1.3-.7h0c.7-1.1.9-2.1,1.8-4-2.3,3.4-2.1,5.1-3.8,5.7l-.4-.3h0,0Z"/><path d="M778.6,92.1c-.6,0-1-.3-.7-1.3h0c1.1-2.4,4.1-8.9,5.9-12.5-.4-.3-.6-.3-.3-1.2h0c.7-1.6,1.4-3.6,3.7-8.6-.2-1.2,1.5-3.2,1.8-3.8.6-1.1,1-.6,1.5-.2.5-1.1,2.1-.9,1.4.6h0c-.3.5-.5,1.1-.8,1.8,1.9-3.4,2.1-3.5,2.4-3.5l.2.8-.4.7.4-.7.6.5c-1.1,1.7-11.5,20.8-14.9,26.8h0c-.4.6-.4.5-.8.6h0Z"/><path id="Black_Part1-3" d="M732,212.4c-.7-.2-1-.3-.5-1.5h0c.4-.7.7-1.4,1.3-2.5-2.1,3.1-1.8,3.6-3,3.3-.5-.4-.8-.5,2.8-7.9-3.4,5.9-4.3,7.1-4.6,7.2-1.3.3-1.1-1.1-.4-2.2-.2.4-.4.7-.6,1h0c-.7,1.2-1.9.7-1.3-.7h0c.2-.4.4-.9.7-1.4-.4.8-.7,1.1-.9,1.6h0c-.6,1.1-1.8.8-1.3-.6h0s.2-.4.4-.7c1.3-3.1,5.7-11.4,18.9-35.7,1-1.9,2.1-3.9,3.2-5.9-13.2,22.6-25.7,49.4-24.8,41.5h0c.2-.4.5-1.1.8-1.7-1.6,2.4-1.2,2.5-2.4,2.3-.8-.4-1-.6,5.6-13-6.7,12.3-6.9,12.3-7.2,12.4-.8,0-1.3-.2-.8-1.4h0c0-.4,7.5-14.4,11.4-21.4-8.8,15.9-9,15.9-9.4,16-4.2,1.4,9.2-20.1,18.3-38.2-2.5-.4-1.7-.2,13.2-29.1-.6-.2-.8-.3-.5-1.3h0c.9-2.1,2.4-5.4,7.1-14.8-4.9,8.9-6.5,11.6-7.3,13.1h0c-.6,1.1-1.9.6-1.3-.8h0c.4-1.1,2.4-4.9,4-8.3-2.5,4.6-3.5,6.3-4,7h0c-.6,1-2,.5-1.3-.9h0c.6-1.3,3.6-7.4,4.9-10-3,5.6-6.8,12.4-6.3,7.7h0c.3-.9,2.1-4.3,3.2-6.6-3.2,5.8-3.4,5.9-3.8,6-.8,0-1.3-.2-.8-1.6-3.2.4,3.3-9.1,4.3-12-1.8,3-6.7,13.8-6.7,8.9-.8,0-1.2,0-.8-1.4h0c.7-1.3,1.1-2.5,2.5-5.3-1.3,2.4-2,3.7-2.4,4.2h0c-.6,1.1-1.9.7-1.3-.8h0c1.1-2.2,1.9-4.2,4.9-9.9-5,8.9-5.1,8.9-5.5,9-.7,0-1.2,0-.8-1.1-.7,0-1.1-.2-.8-1.2-.8,0-1.3-.2-.8-1.4h0c.5-1.1,3.7-7.7,5.5-11.2-2.6,4.8-4.6,8.1-5.6,9.9h0c-.8,1.1-1.8.4-1.3-.8h0c1.1-2.1,2.1-4.6,4.8-10-2.6,4.9-3.6,6.4-4.7,8.6h0c-.8,1.1-1.8.4-1.3-.7h0c.2-.4.5-1.1.8-1.7-.8,1.8-2.4,1.6-1.8,0h0c.8-1.4,1.1-2.6,2.4-5.4-1.3,2.7-4,7.2-3.7,3.4h0c.9-1.9,1.8-4.1,4.7-10.1-4.9,8.9-5.1,8.9-5.4,9-.8,0-1.3,0-.8-1.4h0c.3-.7.6-1.5,1.3-2.9-1.3,2.3-1.4,2.4-1.7,2.4-.8,0-1.3,0-.8-1.3h0c.2-.3.3-.6.4-1l-.2.3h0c-.6,1.1-1.9.2-1.3-.9h0c-.8,0-1.3,0-.8-1.4h0c.6-1.2,1.3-3.1,3.1-7.1-1.2,2.2-2.3,4.1-3.2,5.8h0c-.6,1.2-1.8.5-1.4-.7h0c.6-1.2,1.6-3.8,2.9-6.7-1.6,3-2.3,3.9-2.9,5.2h0c-.6,1.1-1.9.6-1.3-.7-.7,0-1.3-.2-.8-1.3h0c.2-.3.2-.6.4-1.1-.7,1.2-2,.9-1.5-.6h0c.3-1.1.8-2.7,2.1-6-.8,1.4-1.8,3.4-2.4,4.4h0c-.8,1.4-2.1.2-1.3-1.1-2.4.6-.5-2.9,0-5.3-1,1.6-1.5,3.3-2.4,2.8-.4-.3-.6-.4,0-2-.9,1.1-1.8.4-1.3-2.1-1.2,1.3-1.5-.3-2.4-1.9-2-.4.4-4.6,1.7-.3,1.1-2.9,3.2-3.7,2.5,0,1.1-1.9,1.7-2.9,1.9-3,.9,0,1.3,0,.8,1.8,1.5-2.4,1-2.4,2.2-2.1.5.4.6.4-.7,5.1,3.1-5.7,3.2-5.7,3.5-5.8.7,0,1.2,0,.8,1.1,1.1-1.8.8-1.7,1.8-1.4.9,1.3-.8,3.4-1.8,6.9,4-7.4,4.1-7.4,4.5-7.6,1,0,1.3.6.8,1.8,1.4-2.4,1.6-2.7,2.5-1.7.6-1.3,2-1.1,1.5.4h0c-.7,1.3-.9,2.5-2.2,5.3,3.8-6.8,4-6.9,4.3-6.9,2.4,0-.5,3.9-1.7,7.2,4.4-7.9,4.5-8.9,5.5-6.9.8-1.6,2.3-1.3,1.7.4h0s-.3.6-.3.8c1.3-2.4,1.4-2.4,1.7-2.4.7,0,1.3,0,.8,1.3h0c-.5,1-.8,1.8-1.6,3.6,2.9-5.2,3-5.2,3.2-5.3.7,0,1.2,0,.8,1.3h0c-.7,1.7-1.5,3.8-4.1,9.1,3.7-6.7,7.4-14.3,7.2-9.6h0c-.8,1.3-1.2,2.6-2.6,5.4,3.4-6,3.5-6,3.9-6.1.8,0,1.3,0,.8,1.4h0c-.3.4-.4,1-.8,1.6.4-.8.8-1.3,1.1-1.9h0c.8-1.1,1.8-.4,1.3.9h0c-1.2,2.2-1.9,4.4-5,10.2,3.6-6.2,7.1-14.1,7.2-9.6h0c-.8,1.7-1.3,3.3-3.5,7.5,4.7-8.3,4.5-9.2,5.7-7.4.3-.5,1.2-.3,1.3.3.6-.5,1.5,0,1.1,1.1h0c-.8,1.6-1.2,2.8-2.7,6,3.5-6.3,3.7-6.3,4-6.4,2.4,0-.2,3.1-1,5.6,1.3-2.4,1.8-3.1,2.5-4.5h0c.4-.9,1.5-.5,1.5.3.7-.5,1.7,0,1.1,1.1h0c-.5,1.3-1.4,3.2-3.8,7.8,2.2-4,3-5.3,3.6-6.6h0c.6-1.1,2-.5,1.3.8h0v.2h0c3.1-.7-2.5,8.1-3.5,10.5,1.8-3.4,3.5-6.3,4.4-7.9h0c.7-1.1,1.8-.5,1.3.7h0c-.9,1.8-3.5,7.4-5.5,11.2,5.5-9.9,5.6-10,6-10.1,3.1-.3-3,8.3-4,11.4,1-1.3,6.2-13.1,6.2-7.9h0c-1.2,2.6-2.5,5.7-7.3,15.1,7.5-13.5,7.6-13.6,8-13.7,2.9-1-3.4,9.3-5.1,13,6.5-11.1,5.2-10.7,7.1-10.7,1.2,1.1-1.3,3.6-2.6,6.8-5.7,10.8-11.5,21.6-17.7,33.2,32.8-59.2,36.4-67.9,38.9-67.8.5.3.8.5-1,4.2,2.6-3.9,2.5-5.1,4-4.7,1.7-1.2-7.5,16.1-11,22.3,12.5-21.8,12-22.9,14-22.8.3.2.7.3-.3,2.6,1.1-1.7,1.3-2.4,2.1-3.1.8,0,1.3,0,.8,1.4h0c-1.3,2.7-7.8,14.7-10.9,20.5,11-20,15.1-26.2,13.9-20.3,1.6-2.8,1.8-2.7,2.4-2.4.3.2.5.3.2,1.2.2-.3.6-1.1.7-1.2h0c.6-1,2-.3,1.3.9h0c-15.3,28-33.1,60.6-54.6,100.4,23.5-42.5,57.1-105.1,57-102.2,1.3,0,1.4,0,0,3.5,2.2-3.8,2.4-3.8,2.5-3.9.8,0,1.3,0,.8,1.4h0c-.7,1.6-1.7,3.9-4.7,9.5,6.3-11.2,6.5-11.3,6.8-11.4,3,0-2.6,7.7-7.8,18.2,8.8-15.7,10.8-18.7,11.3-18.8,2.4,0-2.4,7.3-9.6,21.6,9.9-17.7,14.5-26.3,13.9-20.3.8-1.7,1.8-1.8,2.1-.6.3-.3.6-.3,1-.2-4.6,13.1-21.5,40.1-30.9,58.3,9.7-17.3,22-40.1,31.5-57.3h0c.5-1,1.4-.8,1.6,0,.7-.5,1.7-.2,1.1,1.1h0c.7-1.1-7.1,13.9-13,24.5,13-23.5,14.1-25.1,14.6-25.1.9,0,1.3,0,.6,2,1-2.1,2.8-2,1.9,0-13.2,25.5-33.7,62.3-49,90.8,11.2-20.1,46.3-84.4,50.8-91.6.4,0,1,0,.9.7,1.3-.7,2,0,.3,2.8.5-.9.8-1.4,1.2-1.8h0c.8-1.4,2-.6,1.4.7-12.3,25-41.6,77.1-57.8,107.5.2.2.2.4,0,1.2h0c-.8,1.9-2.8,6.1-8.5,17.6l.6.4c-3,4.9-9.9,19.7-9.5,13.9h0c.5-.9.8-1.8,1.6-3.3-1.8,3.1-1.8,4-3,5.1-.7,0-1.3,0-.8-1.2h0c5.1-10.4,17.3-32.2,25.5-47.4-11.1,18.7-28,54-28.5,48-1.1,1.5-1.3,2.1-2.3,1.1-.6.8-.7.9-1.3.6-.8-.4-.9-.6,5.1-12-5.1,8.9-6,11-7.8,12.6-1.2,0-1.5-.2-.2-2.5-2.1,3.1-1.4,3-2.7,2.8-.9-1.8,2.1-5.3,5.4-12.3-6.3,10.4-7.1,13.9-8.9,12.5-.8,1.2-2.2.9-1.6-.8-1.2,1.8-1.6,2.6-2.4,1.3-1.3,1.7-2.7,1-.8-2.2-14.6,19.6,40-78.1,44.1-86.1-12,21.6-43.6,79.6-49.3,89.4-.7,1.2-1.9.8-1.4-.7h0c1.1-3.1,17.4-32.8,23.2-43.7-25.6,45.6-25.7,48.4-26.6,44.2h0c.3-1,.8-2.3,2.1-4.6-2.1,3.7-3.1,5.3-3.6,6h0c-.3.4-.5.5-.8.6l-1.1.3h-.3Z"/><g class="cls-14"><path d="M810.9,131.8c9.2-22.3,19.6-46.9,29.4-69l1.5,3.6-16.3-5h1.3c-11,2.1-26.3,4.6-37.2,6.5l2.3-1.8c-3.9,9.7-10.2,24.8-14.2,34.4-1.8-3.2-10.8-19.3-12.7-22.9l1.3,1-16.1-5.6h.8c-11,1.7-26.8,3.7-37.7,5.5l.8-1.8c12.6,19,25.4,37.8,38.5,56.2-10,22.2-23.9,53.1-34.1,74.8l-1.8-4.5,16.3,5.1h-1.4c0,0,38-6.8,38-6.8l-2.7,2.1c5.3-12.1,11.8-26.9,17.2-38.8,2.4,3.8,13.6,21.9,16.1,26l-1.8-1.4,16.2,5.4h-1.4c9.5-1.6,28.8-4.4,38.4-5.7l-1.7,4c-11.2-17.4-28.2-44.2-39-61.6h.2c0,0,0,0,0,0ZM811.6,131.8c13.2,17.7,31.9,43.9,44.8,61.9-11.7,2.2-31.2,5.7-43,7.8-1.1-.4-17.3-5.3-18.2-5.6l-.7-1-13-20.3,6.2-.5c-4.5,10.3-10.7,24.2-15.3,34.6-1.2,0-40,6.7-41.5,6.1-2.4-.8-17.5-5.8-19.6-6.5,10.8-22.4,26.4-53.3,37.8-75.9v1.7c-12.2-19.4-25-38.6-37.9-57.6,11.8-1.8,28.1-5.4,40-7.1l16.4,4.8.8.3.5.8,11,17.6-4.8.4c3.1-8.1,8.9-22.9,12.2-31.1,11.7-2.1,27.7-4.3,39.5-6.2,2.4.8,17.5,5.9,19.6,6.6-10.9,22.4-23.2,47.1-34.7,69.4h0Z"/></g><g class="cls-2"><path d="M811.2,131.8l30.3-68.4.7,1.7-16.3-5h.6l-37.2,6.5,1.3-1.1c-.7,1.8-12.8,32.7-13,33.1-1.3-2.1-11.2-18.7-12.7-21.1l1.2,1-16.3-5.2h1l-37.5,6.4,1.5-3.7,37.7,55.7.8,1.2c-10.3,21.8-25.1,52.5-35.8,74.6l-1.3-3.3,16.2,5.3h-1l38.1-6.2-1.6,1.2c5.3-12,10.8-23.9,16.2-35.9.8,1.2,13.4,21.6,14.5,23.5l-.9-.7,16.2,5.3c9-1.8,26-4,37.7-6l-.8,1.8-39.8-60.8h0c0,0,0,0,0,0ZM811.2,131.8l41.7,59.4,1,1.5c-13.6,2.3-27.2,5.1-40.7,7l-16.3-5.1-.6-.2-.3-.5-13.1-20.3,3.3-.3c-4.9,11.3-9.8,22.7-14.8,34l-1.1.2c-1.4,0-37.6,6.8-39.1,6.3-1.7-.5-17.7-5.6-18.8-6,10.9-22.7,25.2-53.5,36-75.8l.2,2.6-37.3-56-2-3.1c1.3,0,39.9-6.8,42.2-6.6l16.2,5.3.8.3.4.7,10.4,18-3.5.3,12.1-29.3.3-.9.9-.2c.8,0,37.2-6,37.8-5.7.8.3,17,5.6,17.5,5.8-.6,1.3-32.4,67.2-33,68.6h0c0,0,0,0,0,0Z"/></g><path id="White_Part-4" class="cls-10" d="M795,126.6l40.7,60.1-38.4,6.3-23.8-37.7-19.8,44.8-38.1,6.3,34.9-73.2-37.5-55.8,37.6-6.1,21.4,36.3,17.1-42.7,37.2-6.1-31.5,67.9h0c0,0,0-.1,0-.1Z"/><path d="M797.5,192.9c-8-13.2-15.9-26.5-24-39.8-6.1,13.3-14.9,32.1-20.9,45.4-12.4,2.1-24.7,4.6-36.9,7.7v.4c13.2-1,26.3-2.7,39.3-4.8,5.9-13.1,12.6-29.8,18.9-44.3,7.8,11.9,15.6,23.7,23.4,35.7l.2-.2h0Z"/><path d="M796.3,126.5c7.8-17.3,22.8-50.8,30.3-67.6l-.3-.2c-8.3,17.1-24.5,51-32.5,68.1,11.4,17.1,27.6,42.1,39.4,58.9-8.8,1.6-17.5,3.2-26.1,5.2-29.6,6,26.1-2,31.5-2.8-11.5-18.1-29.7-43.4-42.1-61.4h0c0,0,0,0,0,0Z"/><path d="M789.3,64.9l-.3-.2c-7.1,12.7-12.3,26.1-17.3,39.8-5.8-9.5-15.8-25.3-21-33.5l-.2.2c5.7,10.3,15.9,28.9,21.8,39.2,6.5-14.9,13-29.7,17.1-45.6h0c0,0,0,0,0,0Z"/></g></g><g id="Cat"><path d="M304.2,530.7c-11.5,3.9-39,12.6-41.5-6.3-3-3.3-3.5-6.5-3.2-10.9-1.5-3-2.3-6.2-1.2-9.5-19.3-27.3-109.2,15.5-44.3-60.9-3.3-22.7,0-45.3,4.9-67.5-22.6-37.3-32.6-59.4,22.1-49.6,6.9,2,14.4,2.8,21.5,1.1,4.7-.9,11.2-8.5,14.8-8.5s2.7,2.8,3.9,3.1c2.4.4,5.6-4.6,8.3-2.1,3.9,7.1,3,2.6,9.2,3,1.4.4,4.2,5.5,5.5,6.2,4-191.1,3.7,243.4,3.3,233.3.2,2.1-2.6,2.7-3.3.8v-32.3h0,0ZM277,322.7c-10.5,5.3-13,8.6-25.8,8.7-52.1-10.2-59.4.2-27.4,44.1-9.8,20.3-8.4,47.8-6.8,69.6-60,67.9,15.8,29.8,43,55.4l3.2-3.5c-2.9-1-.3-6.3,0-8.4.5-1.5,1.5-1.6,2.6-.7.8,1.1-1.1,6-.9,7.6,2.6-2.5,6.6-3.8,8-7.1,1-.6,1.4.2,1.9,0,6.7-3.9,14.1-7.8,21.2-11,3-1.4,7.8-2.4,7.9-6.1v-136c-1.9-3.1-4.1-6-6.6-8.8-4.5,2.1-8.3,1.7-9.8-3.8-3.4,2.9-7.9,5.2-10.5,0h0c0,0,0,0,0,0ZM304,477.5c-10.6,5.4-45.4,17.4-42.7,32.5,3.8,6.6-2.1,4.6,4.5,13.8,1.1,15.7,29.3,7,38.1,3.2v-49.6h0q0,0,0,0Z"/><path id="Cat_Left_Ear" d="M220.9,453.7c5.1,1.7,11.9,20.1,12.1,25.2,0,3.2-3,3.4-5.4,3.8-6.5.3-26.1,1.1-20.6-10.6,1.6-4.8,8.6-17.4,13.8-18.3h0Z"/><path id="Cat_Right_Ear" d="M224,335.9c4.6.2,16.4-.4,18.4,4.7-.9,7.4-8.8,18.8-13.9,24-6.8,1.3-14-19.3-13.1-24.7.6-3.4,5.9-3.9,8.7-3.9h0Z"/><path id="Cat_Nose" d="M273.9,401.1c5.3,1.1,3.8,9.8-.3,12,2.9,2.2,3.5,6.4,1.9,9.7-.5,1-2.6,3.9-3.9,2.6-1.9-1.8,5.8-5.3.2-10.4-8.2,8.9-6.7-14,.2-4.3,6.7-4.4-1.4-8.7,1.8-9.6h0Z"/><g id="Cat_Mostash"><path d="M284.8,328.8c.8-.2,1.7.6,1.8,1.5l-.8,8.3c-4.2,5.2-3.3-9.5-1-9.7h0q0,0,0,0Z"/><path d="M274.3,329.6c3.4-1,1.9,6.3,2.4,8.3-.2,1.7-2.6,1.6-2.9-.2-.2-1.6-.2-3.9-.2-5.4s-.6-2.3.8-2.7h0Z"/><path d="M294.5,332.5c4,0-.3,6-.9,7.7-5.1,3.4-1.1-7,.9-7.7h0Z"/></g><g id="Cat_Paw"><path d="M286,498.5c9.4.4,10.9,28.6.3,19.5-1-4.5-7.2-2-5.7-8,.3-1.1,1.9-2.5,2-3.2-.3-2.7-.2-7.8,3.4-8.2h0c0,0,0-.1,0-.1Z"/><path d="M272.4,506.6c2.4,0,3.4,2.3,2.7,4.4-4.6,5.3-13-2.2-2.7-4.4Z"/><path d="M275.5,515.9c6.9.4,2.8,8.5-3.1,6-2.8-1.4.9-5.6,3.1-6Z"/><path d="M284.4,521.6c1.3-.3,2.3,0,3.1,1.1,3.7,4.8-6.7,6.4-7.2,3.5-.2-1.7,2.5-4.4,4-4.7h0q0,0,0,0Z"/><path d="M276.3,496.8c2.3-.3,3.9,0,3.6,2.7-1.9,6.4-12.6.2-3.6-2.7h0Z"/></g><path id="Cat_Right_Eye" d="M285,376.5c0,16.6-24.5,16.6-24.5,0,0-16.6,24.5-16.6,24.5,0Z"/><path id="Cat_Left_Eye" d="M279.8,455.5c0,16.6-24.5,16.6-24.5,0,0-16.6,24.5-16.6,24.5,0Z"/></g><g id="Cat_Speech_Bubble"><polygon class="cls-8" points="2.5 546.6 16.4 272.3 200.9 282.4 187.1 556.6 2.5 546.6"/></g><g id="Mouse"><path id="Mouse_Skin" class="cls-10" d="M629.7,601.5c39.4-27.9,80.4-3.1,81.3,44.8,24.2-15.9,69.8-16.1,94.9.6,2.4-.6,2.1-10.3,2.6-13.2,5.8-44.8,59.3-58.3,86.8-25,32,49.6,6.2,96.1-50.9,90.9l6.1,61.9c-6.2-1.5-4.9,5.7-4.8,10.2.3,13.8,1.8,27.8,2.6,41.6,1.9,34.6,3,69.2,8.6,103.4,9.3,51.3,25,101.6-10.2,146.7,2.4,1,5.1.3,7.5.7,5.5.9,16.4,8.4,15.2,15.2-14.8-2.2-40.5,1.4-53.5-1.6-.5-.3-1,.3-.8-1.1,1.8-.3,9.4-5.1,6.6-7.1-37.9,18.4-85.7,15.5-124.4,1.1l-.8.9c0,1.8,7.8,6,3.9,7.3-2,.7-13.7.2-16.8,0-11.5-1.6-23.3.3-34.7,1.1,0-10.8,13.7-16.8,22.9-16.5-35.2-42.1-20.8-99.2-10.2-147.9,8.4-50.4,7.3-102.2,10.1-153.2l-.8-.8h-3.4l6.3-61.2c-.4-3.4-7.7-.9-10.3-.8-57.8.9-71.3-59.6-34.1-98.1h.2v.2h0ZM673.4,671c4.8-11.3,11.4-6-.2-18.6-5.5-4.7-15.8-6.8-19.7.9-4.5,9.2,12.6,18.8,19.9,17.7h0ZM854.2,648.2c-5.1.6-12.9,6.8-14.4,11.9-1.1,3.8,3.7,7.1,5.4,10.3,4.5,1.6,17.5-5.7,19-10.2,2.2-7.4-2.8-12.8-10-11.9h0ZM757.9,687c-17.7-60.7-97.5-23-68.8,31.2,17.6,29.9,62.5,19.9,70.1-13.1,8.1,31.2,45.6,41.1,66.4,16.5,37.3-56.8-46-96.9-67.8-34.5h0ZM757.2,734.8c-41.6,7.3-4.8,40.9,17.8,22.2,14.7-12.1-6.2-23.2-17.8-22.2ZM698.8,783.4c-.2,1.4.5,4.4,2.4,3.8,2.1-.6-.5-4.6-2.4-3.8ZM826.2,783.4c-1.3,1.1-2.9,3.4-1,4.9,1.7.3,2.8-3.8,1-4.9ZM690.1,785.1c-1.4.3,0,4.6,1.6,4.4,1.4-.3.6-4.9-1.6-4.4ZM816.9,785.1c-2.3-.8-3.6,3.6-1.8,4.4,1.9.9,1.8-3.3,1.8-4.4ZM805.9,885.2c12.7,2.6,30.8-7.9,37.8-19.5.8-1.4,3.9-6,.6-5.4-8,12.3-21.4,20.1-35.5,21.7-1.8-6-7.6-7.5-12.2-3.8-1.8,0-1.8-3.9-6.8-3.2-3.5.4-4.1,3.8-5.3,3.8-19.9-16.5-29.3,44.4,52,22.2,1.8-.5,8.8-2.4,8.8-4.5l-.8-1.3c-17.3,3.2-69.7,18-68.3-13,1-7.6,7,2.1,8.8,4,3.5.7,1.6-7.6,5.7-7.6s3.5,9.7,6.6,7.2c.3-.3,1-6,4.5-6s3,4.1,4,5.3h.2c0,0,0,0,0,0ZM728.4,878.9c6.1-1.6,3.8,3.5,6,5.9,2,.6,2.4-2.5,3.2-3.8,4.5-7.1,7.6,5.3,5.4,10.5-11.5,17.2-52.9,5.3-70.7,4.3l-.8,1.3c9.2,7.3,23.5,5.2,34.6,6.3,13.8.8,38.7,4.6,42.2-15.3,1.3-7.8-4.9-16.8-12.6-11.7-6.3-4.9-7.3-2.4-10.6.5-6.4-4.3-10.6.3-14.2,6-11.3-1.2-24-4.9-32-13.8-1.3-1.5-5.7-8.5-7.1-8.5-2.6,0,.5,5.3,1.4,6.8,6.7,11,27.4,22,39.7,19,2.5-.6,1.3-1.9,1.7-2.7.6-1.3,3.1-4.2,4.4-4.6,5.9-2.2,4.2,11.5,9.6,0h0v-.2h-.1ZM825.6,934.1c-1.1,1.6-3.6,4.2-1.6,6,2-1,3.3-2.7,2.9-5.1l-1.3-.9h0c0,0,0,0,0,0ZM690.6,935.8c-1.5.3-.5,5,1.6,4.4,1.8-.6-.2-4.6-1.6-4.4ZM834.8,941.1c2.9-7.5-2.4-7.2-2,0h2ZM683.4,936.8h-1.5l-.5,4.8,1.7.6c1.8-1.3,0-3.6.3-5.4h0ZM834.6,993.9c-1.3.4-2.9,4-1.1,4.4,1.5.3,3.9-4.1,1.1-4.4ZM684,996.1c-.4,2.4,1.4,3.8,3.5,4.4,2.1-2.3-1-5.2-3.5-4.4ZM838.3,1001.6l-2.7,2.1.6,1.7c1.5.4,2.7-1.9,3.4-3l-1.3-.8h0ZM681.3,1005.3c-1.1,6,6.4,6,4.2,3-1-1.6-2.1-3.5-4.2-3ZM769.7,1046.4c-2.2.4,1.5,6,3.5,4.1,1.6-1.1-2.5-4.3-3.5-4.1ZM764.7,1055.8c1.4-2.4-5.6-9.1-5.1-4.4.4,1,4.2,5.3,5.1,4.4h0Z"/><g id="Mouse_Body_Line"><path class="cls-3" d="M629.7,601.5c13.5-13.9,41-16.5,57.5-6.3,17.7,10.2,21.8,31.5,25,50.1,27.1-17.2,66.3-16.2,93.2.5,2.2-.4,1.2-5.5,1.4-7.3,1.8-47.1,61.2-67.6,88.6-29.9-27.6-33.3-81-19.7-86.8,25-.5,2.9-.2,12.6-2.6,13.2-25.1-16.7-70.8-16.5-94.9-.6-.9-47.8-42.1-72.7-81.3-44.8h0c0,0,0,0,0,0Z"/><path class="cls-3" d="M629.7,601.5c-37.3,38.5-23.8,99,34.1,98.1,2.5,0,9.9-2.6,10.3.8l-6.3,61.1h3.4l.8.9c-2.8,51-1.7,102.8-10.1,153.2-10.7,48.5-25,105.9,10.2,147.9-9.2-.4-23,5.6-22.9,16.5,11.5-.9,23.3-2.6,34.7-1.1,3.1,0,14.8.6,16.8,0,3.9-1.3-3.9-5.6-3.9-7.3l.8-.9c38.7,14.4,86.5,17.3,124.4-1.1,2.8,2-4.7,6.8-6.6,7.1-.2,1.4.2.9.8,1.1,13.1,3,38.8-.6,53.5,1.6,1.3-6.8-9.7-14.4-15.2-15.2-2.5-.4-5.1.3-7.5-.7,35.2-45.1,19.5-95.4,10.2-146.7-5.7-34.2-6.7-68.9-8.6-103.4-.8-13.8-2.3-27.8-2.6-41.6,0-4.5-1.4-11.7,4.8-10.2l-6.1-61.9c57.2,5.2,83-41.3,50.9-90.9,28.6,31.9,15,88.5-30.4,91.5-2.6.3-18.9-.3-19.5.6,1.2,20.6,5.7,41.3,6.1,61.9h-3.9c-.3,48.3,2.9,103.6,9.9,151.9,5.6,30.7,14.8,62.3,12,93.6,152.1-55.1-82.1-223.6,79.1-299.2.9,1-2.4,4.9-3.2,5.8-38.7,28.8-55.6,81.8-29.1,125.6,55,72,47.4,181.5-53,197.6-3,8.3-8.2,15.6-13.3,22.6-1.8,3.4,2.6,2.2,4.8,2.7,5.6,1.3,15.6,8.2,16.1,14.5,1.1,5.4-16.4,1.4-20.1,2.2-6.8-3.8-36,5.8-36-3.7.5-.9,5.7-2.1,4.9-4.5-32.5,16.2-85.5,14.4-118.6,1.1-3.9.9,7,5-3.2,8.2-7.4-.3-15.3-1.8-22.7-1.7-8.8-.2-19.3,3.2-27.6,1.1-.9-6.8,4.9-9.5,8-14,3.7-1.8,9.7-4,14.1-3.4-40.8-52.5-11-120.6-4.2-179.5,2.4-39.3,4-80.8,5.1-120.3l-4-.5c1.8-20.5,3.5-41.2,6.3-61.6-59.3,8.5-88.2-59.6-43.2-99.5h0l-.2-.2h0c0,0,0,0,0,0ZM946.6,710.6c-37.2,16.1-60.5,56.6-58,98.4,1.5,25.8,17.1,49.2,25.7,73.1,20.7,45.9,12.6,118-44.6,126.8l-5.9,27.9c73.3-12.2,103.3-81.2,77-150.4-39.8-72.1-64.2-110.1,5.8-175.6h0Z"/></g><path id="Mouse_Tail_Dots" class="cls-6" d="M946.6,710.6c-70.1,65.7-45.4,103.5-5.7,175.7,26.3,69.1-3.8,138.4-77,150.4l5.9-27.9c57.2-8.8,65.2-80.9,44.6-126.8-8.6-23.7-24.2-47.3-25.7-73.1-2.4-41.7,20.8-82.3,58-98.4h0ZM898.1,798.8c-.8-.2-3.5-.2-3.1,1.4.3,1.6,4,1,3.1-1.4ZM899.2,808.1c-1.1-.3-4,.3-3.7,1.9.3,1.8,4.5.3,3.7-1.9ZM931.3,885.9l-2.4.5-.2,3.3c2.4.3,2.9-1.8,2.6-3.8h0ZM937.1,893.6c-2.3-.8-4.5,3.9-2.4,4.4,1.3.3,2.8-3.2,2.4-4.4h0ZM926.6,981.3c.2-1.9-.3-2.5-1.8-3.2-1.8,1.5,0,3.6,1.8,3.2ZM920.3,990c.5-1.7-1.9-4.8-3.1-3.2-.5.6,1.7,4.1,3.1,3.2ZM890.2,1013.6c-.2,1.4.2,3.1,1.8,3.2,1.8-1.5,0-3.6-1.8-3.2ZM887.5,1019.6c.3-2.4-1.8-4.7-4.2-4.4.3,2.2,1.8,4.6,4.2,4.4Z"/><g id="Mouse_Hands"><path id="Mouse_Left_Hand" d="M728.4,878.9c-5.4,11.6-3.7-2-9.6,0-1.3.4-3.9,3.3-4.4,4.6s.8,2.2-1.7,2.7c-12.3,3-33-8-39.7-19-.8-1.4-4-6.7-1.4-6.8,12.2,15,19.1,20,39,22.3,3.5-5.7,7.8-10.2,14.2-6,3.3-2.9,4.3-5.5,10.6-.5,7.7-5.2,13.9,3.8,12.6,11.7-3.5,20-28.4,16.1-42.2,15.3-11-1.1-25.4,1-34.6-6.3l.8-1.3c17.8,1,59.3,13,70.7-4.3,2.2-5.2-.8-17.6-5.4-10.5-.8,1.2-1.1,4.4-3.2,3.8-2.2-2.4,0-7.5-6-5.9h0c0,0,0,0,0,0Z"/><path id="Mouse_Right_Hand" d="M805.9,885.2c-1.2-1.2,0-5.3-4-5.3-3.5,0-4.1,5.6-4.5,6-3,2.5-3-7.2-6.6-7.2s-2.3,8.3-5.7,7.6c-1.8-1.9-7.8-11.7-8.8-4-1.4,31,50.8,16.1,68.3,13l.8,1.3c0,2.1-7.1,4-8.8,4.5-81.2,22.2-72-38.7-52-22.2,1.2,0,1.8-3.3,5.3-3.8,4.9-.6,5,3.2,6.8,3.2,4.6-3.7,10.5-2.1,12.2,3.8,14.2-1.7,27.6-9.5,35.5-21.7,3.2-.6.2,4-.6,5.4-6.9,11.6-25.1,22.1-37.8,19.5h-.2c0,0,0,0,0,0Z"/></g><g id="Mouse_Body_Dots"><path d="M764.7,1055.8c-.8,1-4.6-3.4-5.1-4.4-.5-4.7,6.5,2,5.1,4.4h0Z"/><path d="M681.3,1005.3c2.1-.5,3.2,1.4,4.2,3,2.2,3-5.3,3.1-4.2-3Z"/><path d="M825.6,934.1l1.3.9c.5,2.5-.8,4.1-2.9,5.1-2-1.8.5-4.5,1.6-6h0c0,0,0,0,0,0Z"/><path d="M684,996.1c2.4-.8,5.6,2.1,3.5,4.4-2-.5-3.8-2-3.5-4.4Z"/><path d="M834.8,941.1h-2c-.3-7.2,4.9-7.5,2,0Z"/><path d="M769.7,1046.4c.9-.2,5.1,3,3.5,4.1-1.8,1.8-5.7-3.7-3.5-4.1Z"/><path d="M683.4,936.8c-.2,1.8,1.5,4.1-.3,5.4l-1.7-.6.5-4.8h1.5Z"/><path d="M690.6,935.8c1.3-.3,3.5,3.8,1.6,4.4-2.1.6-3-4-1.6-4.4Z"/><path d="M834.6,993.9c2.9.3.4,4.7-1.1,4.4-1.8-.3-.2-3.8,1.1-4.4Z"/><path d="M826.2,783.4c1.7,1,.6,5.3-1,4.9-1.8-1.6-.2-3.8,1-4.9Z"/><path d="M690.1,785.1c2.2-.5,3,4.1,1.6,4.4-1.4.3-3-4-1.6-4.4Z"/><path d="M816.9,785.1c0,1,0,5.3-1.8,4.4-1.8-.8-.4-5.2,1.8-4.4Z"/><path d="M838.3,1001.6l1.3.8c-.7,1.1-1.8,3.4-3.4,3l-.6-1.7,2.7-2.1h0Z"/><path d="M698.8,783.4c1.8-.8,4.5,3.2,2.4,3.8-1.8.5-2.6-2.5-2.4-3.8Z"/></g><g id="Mouse_Nose"><path id="Mouse_Nose-2" class="cls-7" d="M754,738.6c5.9-1,17.3.5,20.9,6,5.3,7.9-5.8,13.6-12.1,14.2-16.6,2.6-32.5-13.9-8.8-20.2Z"/><path d="M757.2,734.8c11.5-.9,32.4,10.2,17.8,22.2-22.7,18.6-59.3-15.1-17.8-22.2ZM754,738.6c-23.7,6.2-7.8,22.7,8.8,20.2,6.2-.7,17.4-6.3,12.1-14.2-3.7-5.4-15.1-6.9-20.9-6Z"/></g><g id="Mouse_Ears"><g id="Mouse_Left_Ear"><path d="M673.4,671c-7.3,1-24.5-8.5-19.9-17.7,3.9-7.7,14.2-5.6,19.7-.9,11.5,12.6,5,7.2.2,18.6h0ZM660.7,650.9c-13.2,6,4.1,17.5,11.2,17.2l4.5-6.3c-1.5-6-9.4-12.3-15.8-10.8h0c0,0,0,0,0,0Z"/><path id="ear" class="cls-7" d="M660.7,650.9c6.4-1.5,14.2,4.9,15.8,10.8l-4.5,6.4c-7.1.4-24.3-11.2-11.2-17.2h0Z"/></g><g id="Mouse_Right_Ear"><path id="ear-2" d="M854.2,648.2c7.1-.9,12.1,4.6,10,11.9-1.3,4.6-14.5,11.9-19,10.2-1.7-3.2-6.5-6.6-5.4-10.3,1.5-5.2,9.2-11.3,14.4-11.9h0ZM853.7,650.9c-4.7.8-8.5,5.6-10.9,9.6l4.1,7.5c4.4-.5,13.2-4.4,14.6-9,1.7-6-2.4-9-7.8-8.2h0Z"/><path class="cls-7" d="M853.7,650.9c5.4-1,9.5,2.2,7.8,8.2-1.3,4.6-10.2,8.5-14.6,9l-4.1-7.5c2.4-3.9,6.2-8.8,10.9-9.6h0Z"/></g></g></g><g id="Cheese"><path d="M741.3,784.1c.7-1,2.4-1.7,3.4-2.2.4-.4.5-1,1.3-1,.4-.4,1.3-1.2,1.9-1.5,26.7,10.6,55,19.1,81.9,28.8-2.5,24.4-4.5,49.3-6.5,73.8-1.4,3-13.1.3-16.4.2-37.8-2.5-75.8-5.3-113.6-3.8.2-24.6.9-49.2,1.9-73.8,16.9-1.9,30.9-12.8,45.9-20.4h.2ZM814.4,806.8c-21.8-7.5-43.8-14.3-65.1-22.8-12.6,6.8-24.8,14.3-37.8,20l.2.3c6.6.3,24.8.7,31.6.6,8.2-10.2,16.4-8.9,21.7,3.2,16.4.6,33.4,0,49.5-1.2h0ZM760.7,807.5c-2.4-6.9-10.7-7.5-14.6-1.8l14.6,1.8h0ZM741.6,809c-13.5-1.9-28.4-1.3-42.2-1.7-1.4,21.5-2.8,43.5-2.4,65,41.3.7,82.7,3.8,123.9,5.3,1-22.3,3.9-44.5,4.9-66.8-20.2-.3-40.6.6-60.7.2-1.3,14.3-23.7,12.8-23.3-2h0ZM760.2,814.6c.5-.6,1.3-2.5,1.2-3.2-32.2-9.5-11,15.5-1.2,3.2Z"/><path class="cls-10" d="M741.6,809c-.2,14.7,22.1,16.3,23.3,2,20.2.4,40.5-.6,60.7-.2-1,22.2-3.9,44.4-4.9,66.8-41.2-1.4-82.6-4.6-123.9-5.3-.3-21.5,1-43.5,2.4-65,13.8.4,28.8-.3,42.2,1.7h0ZM718,822.9c-14.1,3.1-6.6,23.7,6.4,17.6,8.5-4.6,2.9-19.5-6.4-17.6h0ZM806.6,844.5c8.4-11.2-5.8-26.1-15.7-15.1-8.8,11.4,6.2,25.1,15.7,15.1h0ZM769.1,842.1c-1.5.6,0,2.8.5,3.7,2.9,2,2.3-4.1-.5-3.7h0ZM760.7,843.7c-1.2,1.1,1.7,5.5,3.1,3.5-.2-1.3-1.5-4.1-3.1-3.5h0Z"/><path class="cls-10" d="M814.4,806.8c-16.1,1.1-33.1,1.8-49.5,1.2-5.2-12.1-13.6-13.3-21.7-3.2-7,0-25-.3-31.6-.6l-.2-.3c13.1-5.7,25.3-13.2,37.8-20,21.4,8.5,43.3,15.2,65.1,22.8h0Z"/><path class="cls-10" d="M760.2,814.6c-9.8,12.3-31-12.9,1.2-3.2,0,.8-.8,2.7-1.2,3.2h0Z"/><path class="cls-10" d="M760.7,807.5l-14.6-1.8c4-5.8,12.2-5.2,14.6,1.8h0Z"/><g id="Cheese_Holes"><path id="Cheese_Hole_One" d="M806.6,844.5c-9.5,10.1-24.5-3.7-15.7-15.1,9.9-11.1,24.1,3.8,15.7,15.1h0ZM798.2,828.6c-11.4,1.9-7.7,20.7,4.3,15,7-4,4-15.8-4.3-15h0Z"/><path id="Cheese_Hole_Three" d="M718,822.9c9.3-1.8,14.8,12.9,6.4,17.6-12.9,6-20.5-14.5-6.4-17.6h0ZM724.7,828.6c-8.2-11-18.6,8.2-5.5,10.2,5.4.5,8.3-5.8,5.5-10.2h0Z"/><path id="Cheese_Hole_Two" d="M751.3,798.3c12.1-2.3,19.5,15.8,8.3,21.5-17,7.4-26.8-17.7-8.3-21.5h0ZM760.2,805.3c-10.7-13.3-24.5,10.1-7.2,12.4,7.1.6,10.9-7.1,7.2-12.4h0Z"/></g><g id="Cheese_Dots"><path d="M769.1,842.1c2.8-.5,3.4,5.7.5,3.7-.5-.9-1.9-3.1-.5-3.7h0Z"/><path d="M760.7,843.7c1.7-.6,3,2.2,3.1,3.5-1.5,1.9-4.3-2.5-3.1-3.5h0Z"/></g><path class="cls-10" d="M798.2,828.6c8.3-.9,11.3,11,4.3,15-12,5.8-15.7-13-4.3-15h0Z"/><path class="cls-10" d="M724.7,828.6c2.8,4.4,0,10.7-5.5,10.2-13.2-2-2.7-21.1,5.5-10.2h0Z"/></g><g id="Play_BTN"><path id="bg" d="M768.7,1011c-.2,6.8-4.8,11.7-10.1,15.1,9.6,8.9-11.3,12.2-9.2,21.4.8,3.2,7.2,8,10,10,3.9,2.7,9.3,3.4,2.4,9.2-5.1,4.3-11.2,3.5-14.9,11.8-4,9.3,2.8,13.3,1.4,20.4-.7,3.6-6.6,4-4.1,10.7,3.3,8.9,17.5,6,20.1,14.2,2.7,8.8-11.2,15.1-10.5,22.8.3,4.1,7.7,5.9,6.7,13.1-4.8,7.9,1.3,19,7.5,24.3-46,0-649.1-.8-674.6,2.1,8.4-3.1,11.6-11.3,7.4-19.3-1-8,6.6-8,6.7-13.2.2-8.5-21.9-18.9-7.1-27.8,5.3-3.2,12.1-2.1,15.6-8.3,3.1-5.7-3.7-8.2-4.3-11.5-1.3-6.7,5.1-10.5,1.7-19.3-3.5-9.6-16.5-11.1-17.1-18.6,0-2.9,2.2-2.6,3.2-3.6,3.5-3.3,7.1-6.8,10.9-9.8,4.5-12.9-17.2-12-10.2-25-5-4.5-10.7-8.8-10-16.6,34.8-2.6,624.4-2.3,678.7-2.1h0v-.2h0ZM348.2,1126.6v-22.1c1.7-1.9,4.5-.8,7-1.1,10.5-1.5,23.8-7.6,25.3-20,4-31.6-33-32.9-53.5-25.6l-.9,68.7h22.3,0c0,0,0,0,0,0ZM408.8,1055.2h-25l-.9,69.3c21.4-.7,41.5-3,63.2,0l2.9-10.6,10.3.2,3.2,10.4,23.2-2.8-18.3-65.7-26.2,1.7-18.2,63.4c-.8-.6,1.4-19.8,1.4-21h-18.9l3.4-44.8h0ZM493.1,1101.7c-.2,7.8,0,15.7,0,23.5h23.3c3.7-8.2-1.4-19.2.5-28.2l21-35.6.3-2.1-22.3-1.1-7.4,19.3c-1.5.3-1.1,0-1.5-.9-9.4-26.3-1.5-17.7-30.2-15.9.8,8.8,19.2,34.3,16.2,41h0,0Z"/><path class="cls-10" d="M408.8,1055.2l-3.4,44.8h18.9c0,1.2-2.2,20.3-1.4,21l18.2-63.4,26.2-1.7,18.3,65.7-23.2,2.8-3.2-10.4-10.3-.2-2.9,10.6c-21.7-3-41.7-.7-63.2,0l.9-69.3h25ZM457.3,1098.6l-3.4-15.4-2.7,15.4h6.1Z"/><path class="cls-10" d="M348.2,1126.6h-22.3l.9-68.7c20.5-7.4,57.6-6,53.5,25.6-1.6,12.3-14.8,18.5-25.3,20-2.4.3-5.3-.8-7,1.1v22.1h0c0,0,0,0,0,0ZM348.8,1088.8c13.1,1,15.3-16.6.7-14.6l-.7,14.6Z"/><path class="cls-10" d="M493.1,1101.7c3-6.8-15.3-32.2-16.2-41,28.7-1.8,20.8-10.3,30.2,15.9.4.8,0,1.1,1.5.9l7.4-19.3,22.3,1.1-.3,2.1-21,35.6c-1.9,9,3.2,20.1-.5,28.2h-23.3c0-7.8-.2-15.7,0-23.5h0,0Z"/><polygon points="457.3 1098.6 451.3 1098.6 454 1083.2 457.3 1098.6"/><path d="M348.8,1088.8l.7-14.6c14.7-2,12.5,15.6-.7,14.6Z"/></g></g><path class="cls-10" d="M861.6,542.3c-1.4,9.2-12.2-.7-14-5,4.5-4,15.1-2.3,14,5Z"/></g><g id="Mouse_Left_Eye_ClippingMask"><g class="cls-13"><circle id="Mouse_Left_EyeOutline" class="cls-9" cx="724.8" cy="692.6" r="31.8"/><circle id="Mouse_Left_Pupil" class="cls-5" cx="725.4" cy="691.5" r="7.1"/><path id="Mouse_Left_Eyelid" d="M756.4,692.2c0,4.4-.9,8.5-2.5,12.3h-58.8c-1.6-3.8-2.5-8-2.5-12.3,0-17.6,14.3-31.8,31.8-31.8s31.8,14.3,31.8,31.8h0Z"/></g><circle id="Clipping_Boundary1" class="cls-4" cx="724.6" cy="692.4" r="32.8"/></g><g id="Mouse_Right_Eye_ClippingMask"><g class="cls-1"><circle id="Mouse_Right_EyeOutline" class="cls-9" cx="794.8" cy="692.6" r="31.8"/><circle id="Mouse_Right_Pupil" class="cls-5" cx="795.3" cy="691.5" r="7.1"/><path id="Mouse_Right_Eyelid" d="M826.4,692.2c0,4.4-.9,8.5-2.5,12.3h-58.8c-1.6-3.8-2.5-8-2.5-12.3,0-17.6,14.3-31.8,31.8-31.8s31.8,14.3,31.8,31.8h0Z"/></g><circle id="Clipping_Boundary3" class="cls-4" cx="794.8" cy="692.9" r="32.8"/></g></svg>