<?xml version="1.0" encoding="UTF-8"?><svg id="Layer_1" xmlns="http://www.w3.org/2000/svg" viewBox="0 0 263.8 292.7"><path d="M186.2,92.1c1.4,1.3,31.2-14.2,35.8-15.5,40.8-11.9,58.3,39.6,22.2,59.5-15.1,8.3-30.6,13-45,23.9-14.2,10.8-12.3,14.1-4,28.2,8.3,14.1,41.8,48.4,43.4,68.2,2,25-17.1,40.5-41.3,35.3-18.6-4-40.6-40.7-54.6-54.8s-12.2-14-22.5-5.2c-24,20.4-50,72.3-88.9,58-17.8-6.5-27.1-28.6-20.7-46.2,1.9-17.3,78.7-61.2,56-77.3C44,145.4-13.6,121.7,2.9,81.6c19.4-37.7,56.1-3.7,79.8,9.7-46.2-118.5,168.1-125.3,103.6.8h-.1ZM197.4,96.7c-2.1-1.3-19,7.8-23,8-11,.6,3.6-14,5.2-16.5,59.8-115.4-139.3-101.1-87.3,3.7,1.9,2.9,11.1,10.9,4.1,12.8s-32.9-17.1-34.6-16.2l-27.1,44.5c47.6,39.2,65.5,32.7,8.4,86.7l41.6,39.4c38.2-36,36.9-62.1,80.9-7.5l41.3-33c-30-41.8-40.7-54.6,10.7-79l-20.2-43h0ZM41.4,74.2C14.4,63.6-1.7,91,12.9,113.1c0,0,28.5-38.9,28.5-38.9ZM55.6,83.2l-8.2-4.3-28.1,39.4c-.7,2.6,7.2,7.7,9,9.7,2.9-5.3,28.5-42.5,27.3-44.8h0ZM241,128.8c29.9-14,12.5-58.3-18.7-43.7l18.7,43.7ZM215.4,88.4l-10.5,4.1-.8,1.4,20.6,42.3,8.7-3.4.8-1.4-18.8-43.1h0ZM37.2,223.7l-6.7,7,42.6,40.8,6.7-7s-42.6-40.8-42.6-40.8ZM212.1,224.1l-42.2,33.9,6.2,7.7,42.2-33.9-6.2-7.7ZM66.9,276.3l-41.6-40.4c-27.8,28.6,11.8,66.4,41.6,40.4ZM221.8,237.4l-40.9,34c27.3,34.1,69.5-.6,40.9-34Z"/><path d="M170.1,47.4c-.1,16.5-25.1,16.5-25.2,0,.1-16.5,25.1-16.5,25.2,0ZM162.7,47.4c.1-6.8-10.5-6.8-10.4,0-.1,6.8,10.5,6.8,10.4,0Z"/><path d="M124.5,47.4c-.1,16.5-25.1,16.5-25.2,0,.1-16.5,25.1-16.5,25.2,0ZM117.1,47.4c.1-6.8-10.5-6.8-10.4,0-.1,6.8,10.5,6.8,10.4,0Z"/><path d="M121.5,75.8c5.4-1.4,4.1,8.8,10.5,10.2,10.3,2.3,9.5-13.3,16-7.8s-2.7,11.2-5.8,13c-7.7,4.7-17.7,2.3-21.7-5.8s-3.6-8.5,1-9.6h0Z"/><path d="M132.1,115.1c11.5-.2,11.5,18,0,17.8-11.5.2-11.5-18,0-17.8Z"/><path d="M132.1,145.7c11.5-.2,11.5,18,0,17.8-11.5.2-11.5-18,0-17.8Z"/><path d="M132.1,176.4c11.5-.2,11.5,18,0,17.8-11.5.2-11.5-18,0-17.8Z"/></svg>