<?xml version="1.0" encoding="UTF-8"?><svg id="Layer_1" xmlns="http://www.w3.org/2000/svg" viewBox="0 0 313.4 308.3"><path d="M234,150.9h-73.5l.3-70.4,73.2-1.9v72.3ZM233.2,79.8l-71.3,1.5v68.1h70.5l.7-69.6h.1Z"/><path d="M81,240.3c0-.8,1.1-3.8,1.9-4l72.3-.8c-.7,24-.4,48-.3,71.9-20.6,1.7-41.5-.5-62.3,0-1.7,0-11.6,2.1-11.6-.3s0-66.6,0-66.8ZM153.7,237l-70.5,1.5v68.1h70.5v-69.6Z"/><path d="M237.7,229.5v-71l73.9-.9-1.1,71.6-72.8.3h0ZM310.4,158.4l-71.3,1.5v68.1h70.5l.7-69.6h.1Z"/><path d="M0,161c.1-.6,1.2-3,1.8-3.2l72.4-1c-.8,24-.6,48-.3,71.9-20.6,1.8-41.5-.5-62.3,0-1.7,0-11.6,2.1-11.6-.3v-67.4ZM1.4,161.7v65.1l71.3,1.1c-1.5-23.2-1-46.3,0-69.6l-69.4,1.4c-1-.2-1.8,1.3-1.9,2Z"/><path d="M153,229.5h-73.5c-1.4-18.4-.5-36.7,0-55s-1.8-13.8,1.1-16.2l72.5-1.1v72.3h-.1ZM152.2,158.4l-71.3,1.5v68.1h70.5l.7-69.6h.1Z"/><path d="M158.2,160.2c.1-.5,1.2-2.2,1.8-2.4,72.7,6.2,78.6-24.8,70.8,39,0,5.1,2.9,29.5,1.2,31.9-14.5,4.3-44.6-.8-62.4,0-1.7,0-11.6,2.1-11.6-.3v-68.1h.2ZM231,158.4l-70.6,1.8-.7,67.8h70.5l.7-69.6h.1Z"/><path d="M239.2,239.6c.1-.7,1.2-3.1,1.9-3.3l72.3-.9c-.8,24-.5,48-.3,71.9-20.6,1.7-41.5-.5-62.3,0-1.7,0-11.6,2.1-11.6-.3v-67.4h0ZM240.7,240.3v65.1l71.3,1.1c-1.1-23.3-1-46.4,0-69.6l-69.4,1.4c-1-.2-1.8,1.3-1.9,2h0Z"/><path d="M153,72.3h-73.5l.3-70.4L153,0v72.3ZM152.2,1.2l-71.3,1.5v68.1h70.5l.7-69.6s.1,0,.1,0Z"/><path d="M0,72.3V3.8c0-.3.9-2.5,1.2-2.7L73.5,0c.8,23.6-.3,47.8.4,71.6-24.4,2.2-49.3-1.6-73.9.7ZM1.4,4.5v66.2c8.5-3.2,68.7,2.5,71.3,0s-1.5-26.4-1.6-30.3c0-13,2-26.3,1.6-39.3L3.3,2.5c-1-.2-1.8,1.3-1.9,2Z"/><path d="M75.7,150.9H2.2l.3-70.4,73.2-1.9v72.3ZM75,79.8l-71.3,1.5v68.1h70.5l.7-69.6s0,0,.1,0Z"/><path d="M239.2,82.4c-3.2-5.9,72.8-2.4,73.5-3.8.8,23.6-.2,47.8.4,71.6-20.6,1.8-41.5-.5-62.3,0-1.7,0-11.6,2.1-11.6-.3,0,0,0-67.5,0-67.5ZM240.7,83.9v65.5c8.5-3.5,68.7,2.5,71.3,0s-1.4-27.7-1.4-31.7c0-12.6,2-25.3,1.4-37.9l-70,1.5c-.4,0-1.2,2.2-1.2,2.7h-.1Z"/><path d="M75.7,308.1H2.2l1.1-71.2,72.5-1.1v72.3h-.1ZM75,237l-71.3,1.5v68.1h70.5l.7-69.6h.1Z"/><path d="M158.2,72.3V3.1c0-.4.9-2.2,1.9-1.9l71.7-1.2c2.2,1.6-.9,34.6-.9,39.7s2.9,29.5,1.2,31.9-32.6,0-37.5,0c-12.2,0-24.3.2-36.4.8v-.2h0ZM231,1.2l-70.6,1.8-.7,67.8h70.5l.7-69.6h.1Z"/><path d="M220.7,115.8c0,31-47.5,31-47.6,0,0-31,47.5-31,47.6,0h0ZM213.2,115.5c-.1-21.1-32.3-21.2-32.4,0,.1,21.2,32.3,21.2,32.4,0h0Z"/><path d="M119.2,278.1c-2.6-1.6-14.2,18.8-19.4,10.8s11.9-14.8,11.9-17.1-13.5-10.4-12.6-15.5c2.1-12.5,17.6,9.2,19,9.2,2.2,0,13.6-18.8,18.4-10.9,4.8,7.9-12,14.9-12,17.3s21.7,16.9,9.2,19-10.4-7.5-13.4-10.3-1-2.2-1.1-2.3v-.2Z"/><path d="M54.2,191.8c0,26.9-41.1,26.9-41.2,0,0-26.9,41.1-26.9,41.2,0ZM47.8,191.7c0-18.3-28.1-18.3-28.2,0,0,18.3,28.1,18.3,28.2,0Z"/><path d="M54.5,54.1c-5.7,4.9-14.2-11.2-17.5-11.7s-12.9,17.4-18,11.2,11.3-15.5,10.9-18.3-16.8-11.7-11-17.5,14.6,10.6,17.6,11,12.5-15.9,18.2-10.8c5.9,5.3-10.7,14-11.2,17.3s17.6,13.1,11,18.8Z"/><path d="M260.8,95.6c5-.9,14,12.6,15.6,12.6,2.5,0,12.3-17.7,18-11.2s-11.6,15.1-11.6,17.6,18.9,13.6,10.9,18.4-14.9-12-17.3-12-13.5,19-18.4,10.9c-3.8-6.2,12-14.9,12-17.3s-21.3-16.8-9.2-19Z"/><path d="M215.6,37.1c-.5,26.9-40.7,26.9-41.2,0,.5-26.9,40.7-26.9,41.2,0ZM209.1,36.9c0-18.3-28.1-18.3-28.2,0,0,18.3,28.1,18.3,28.2,0Z"/><path d="M213.2,115.5c-.1,21.1-32.3,21.2-32.4,0,.1-21.2,32.3-21.2,32.4,0h0ZM194.4,114.6c.1-6.2-9.7-6.3-9.6,0-.1,6.2,9.7,6.2,9.6,0ZM209.5,114.6c.1-6.1-9.7-6.1-9.6,0-.1,6.1,9.7,6.1,9.6,0Z" style="fill:#fff;"/><path d="M33.7,177.7c18.4,0,18.4,27.9,0,28-18.4,0-18.4-27.9,0-28Z" style="fill:#fff;"/><path d="M195.1,22.9c18.4,0,18.4,27.9,0,28-18.4,0-18.4-27.9,0-28Z" style="fill:#fff;"/><path d="M189.6,109.8c6.2,0,6.2,9.7,0,9.6-6.2,0-6.2-9.7,0-9.6Z"/><path d="M204.8,109.9c6.2,0,6.2,9.5,0,9.4-6.2,0-6.2-9.5,0-9.4Z"/></svg>