<?xml version="1.0" encoding="UTF-8"?><svg id="Layer_1" xmlns="http://www.w3.org/2000/svg" xmlns:xlink="http://www.w3.org/1999/xlink" viewBox="0 0 283.3 223.6"><defs><clipPath id="clippath"><rect x="45.2" y="31.5" width="204.3" height="192.1" fill="none"/></clipPath><clipPath id="clippath-1"><rect x="14.7" y="48.5" width="253.9" height="125.8" transform="translate(-34.1 71.8) rotate(-25.5)" fill="none"/></clipPath><clipPath id="clippath-2"><rect x="14.7" y="48.5" width="253.9" height="125.8" transform="translate(-34.1 71.8) rotate(-25.5)" fill="none"/></clipPath><clipPath id="clippath-3"><rect x="14.7" y="48.5" width="253.9" height="125.8" transform="translate(-34.1 71.8) rotate(-25.5)" fill="none"/></clipPath></defs><g clip-path="url(#clippath)"><g clip-path="url(#clippath-1)"><g clip-path="url(#clippath-2)"><g clip-path="url(#clippath-3)"><path d="M226.2,40.8c-17.6,6.6-24.2,28.8-43,33.1,8-41.2-34.4-62.8-27.3-16.6-32.5-13-40.6,28.1,21.8,21.9-12,38-56.3,32.3-86,49.9-39.3,18-51.8,52.7-38.4,91.6.8,2.4,4.6,1.3,3.8-1.2-22.9-62.5,31.2-91,82.5-103.4,19.8-3.9,37.3-17,42.6-37.7,16.9-2.8,25.8-19.4,38-29.6,2-2.7,9.4-3.1,8.7-6.9-.4-1-1.6-1.5-2.6-1.1ZM178.9,74.9c-11.1,1.7-38.5,1.8-43.7-9.4-.1-6.6,7-8.1,12.9-6.4,3.8.4,8.3,4.2,12,2.5.5-.5.7-1.3.5-2-1.8-7-2.9-15.5.4-22.2,16.1-9.5,21.6,26.9,17.9,37.5ZM248,40.5c0,2.8-8.4,2.1-8-.7,0-3.2,8.5-2.5,8,.7Z" fill="#1c1c1c"/></g></g></g></g></svg>