<?xml version="1.0" encoding="UTF-8"?><svg id="Layer_1" xmlns="http://www.w3.org/2000/svg" xmlns:xlink="http://www.w3.org/1999/xlink" viewBox="0 0 143 161"><defs><clipPath id="clippath"><rect width="143" height="161" fill="none"/></clipPath></defs><g clip-path="url(#clippath)"><path d="M100.8,42.1c-.2-.2-.3-.3-.4-.5-.5.5-1,1.1-1.6,1.6.2.1.3.3.5.4.5-.5,1-1,1.5-1.5ZM99.6,36c.2.2.3.4.5.7.5-.5.9-1,1.4-1.5-.1-.1-.2-.2-.4-.4-.5.4-1,.8-1.5,1.3ZM110.8,28.4c.1.1.3.3.4.4.5-.5,1-.9,1.5-1.3-.1-.1-.2-.2-.3-.4-.5.4-1,.8-1.5,1.3ZM84.9,69.6c.2.1.4.2.6.3.9-1,1.8-2.1,3.4-3.9-2.7.7-2.5,1.8-4,3.5ZM93.1,48.2c.3.3.5.5.8.8,1.2-1.2,2.4-2.5,3.6-3.7-.2-.2-.4-.4-.6-.6-1.2,1.2-2.5,2.3-3.7,3.5ZM19.3,39.3c.8,1.2,1.5,2.5,2.4,3.8q1.8-2.1-2.4-3.8ZM59.7,114.6c.3.3.5.6.8.8,2.2-2.6,4.4-5.2,6.6-7.9l-.7-.6c-2.2,2.5-4.5,5.1-6.7,7.6ZM42,66.3c3.9,3.7,7.5,7.5,12.3,10.1-3-4.7-7.7-7.3-12.3-10.1ZM110.9,106.8c-4.9-6.3-18.9-16.4-23.2-17,8,5.9,15.6,11.5,23.2,17ZM23.2,28.7c4.6,7.3,11,12.7,17.3,18.3-5-6.6-10-14-17.3-18.3ZM105.2,48.8c.8-.6,1.7-1.1,2.5-1.7-.3-.2-.5-.5-.8-.7-3.4,5.7-10.2,8.6-13.5,14.5-1.5.2-2.2,1.2-2.2,2.8,3.8-5.7,10.5-8.7,13.9-14.8ZM122.3,11.4c2.8-1.5,4.2-4.2,5.7-6.8-2.8,1.5-5.6,3.2-5.6,6.9-3.1,2.1-5.8,4.5-7.9,7.6,3.6-1.5,5.9-4.4,7.8-7.7ZM97.1,72.7c.6-.7,1.3-1.4,1.9-2-.3-.2-.5-.3-.8-.5l-1,2.6c-2.4,0-3.2,1.9-4.4,3.4.2.2.4.4.6.6,1.2-1.4,2.5-2.7,3.7-4.1ZM13.3,142.1c-2.3,1.9-4.6,3.9-6.9,5.8-2.3,1.9-2.7,5.6-6.4,6.5.7-7.3,6.6-11.4,9.1-17.5-2.3,2.4-4.6,4.7-6.9,7.1-.3-.2-.5-.5-.8-.7,14.7-20.7,30.7-40.9,47.3-60.5C32.6,67.7,12.4,54.3,3.6,33.5c3.1.5,4.1,3,6.4,3.7.8-1.1,1.7-2.2,2.8-3.8.5,1.4.9,2.4,1.4,3.8,1.4-3.3,3.6-.9,5.7-.9-.6-2.4-2.8-4.9.9-6.1q-3.3-6.1,1.6-8.3c1.7,1.5,3.4,3.1,5.2,4.7,2.1-7.3-7.3-9.9-7.9-16.5.3-.2.5-.3.8-.5,15.2,17.9,31.6,33.9,49.3,49.6,9.6-10,19-19.1,28.7-28.9,8.2-8.2,16.5-16.4,24.8-24.5,3.2-2.7,5.1-4.7,9.5-5.8-3.1,7.4-9.3,11.4-12.8,16.9,1,1,1.9,1.9,2.9,3,6.1-1.7,7.5-8.7,11.9-4.5-4.5,3.8-9.1,6.8-12.3,11.9,4.6-3.4,9.5-6.4,14.6-8.8.2.3.5.5.7.8-1,1.4-1.9,2.7-2.8,4,2.3,0,4.6,0,7.1-.1.6,3.7-4.8,3.7-3.9,7.2-1.8,2.1-3.5,4.3-5.3,6.5.6.4,1.1.7,1.9,1.2-13.3,13.5-26.4,26.9-39.9,40.6,14.8,10.8,28.1,22.4,41.7,34.4-7.1,5.3-7.6-4.2-14.5-1.6,1.7,2.4,6.1,3.5,5.6,6.7,2,4,7.1,5.5,10.1,9.2-3.3.4-4.7-2.1-7.2-2.7-3.1,3.6-5.9.1-9.7-1.4,2.6,3.5,6.1,5.1,7.6,8.8-8.3,5.3-14.2-4.2-20.9-7.9-.2.2-.4.4-.5.7,6.1,4.9,12.1,9.8,18.7,15.2-2.6.6-3.7-.5-4.9-1.3-16.7-10.9-31.9-23.3-47.7-35.4-7.8,8.4-15.1,16.9-22.6,25.6-9.4,9-20.1,31.1-33.5,32,1.2-2.3,2.1-3.8,3-5.6-.8-.6-1.7-1.2-2.5-1.8.7-2.1,1.4-4.2,2.3-6.9-4.2,1.6-6.6,1.2-6.8-4.7,2.8-1.2,3.1-1.4,4.1-4.4-1.9,1.4-3.3,2.7-4,4.5"/></g></svg>