<?xml version="1.0" encoding="UTF-8"?><svg id="Layer_1" xmlns="http://www.w3.org/2000/svg" xmlns:xlink="http://www.w3.org/1999/xlink" viewBox="0 0 157 117.3"><defs><clipPath id="clippath"><rect width="157" height="117.3" fill="none"/></clipPath></defs><g clip-path="url(#clippath)"><path d="M122,8C96.7-2.8,68.4,0,44.1,12c-14.1,8-13.2-1.7-23.7.2-10.4,3.2-13.9,10.3-11.3,21.9.5,2.1,1,5.1,0,6.4C-.3,53.2-.9,68.7.8,83.5c2.2,10.5,11.7,17,20.7,21.6,24.4,10.3,80.9,18.7,111.9.6,38.2-24.7,24.3-78.5-11.5-97.8ZM144.1,86.5c-20.7,34.6-85.5,28.1-118.5,12.9C-1.9,91.5,2.2,59.2,16.3,40.6c2.9-6.3-6.1-14.3,1.2-20,3.5-2.9,7.2-3.7,10.5-.3,4,3.8,7.5,2.8,12,.8,11.9-6.1,24.5-11.3,37.9-12.7,13.6-1.6,27.6.2,40.5,5,24.5,14.6,42.4,46.7,25.7,73.1Z"/></g><path d="M75.7,24.6c-7.6-7-25.8,1.9-13.7,5.7,4.2-2,9.1-3,11.5,2.2,2.1,3.9-3,6.8-3.4,10.1,11.7,6.8,14.1-12.8,5.6-18.1Z"/><path d="M28.3,61.8c3.3-9.2-4.7-17.9-10.3-6.8-2.8,6.1,6.9,14.4,10.3,6.8Z"/><path d="M43.3,53.5c-10.1,6.8,4,20.6,11.1,11.2,7.4-7.2-4.1-18.7-11.3-11.3h.2Z"/><path d="M39.3,76.8c-4.9.3-9.7-.5-14.3-2.4-9.9,3.3,22.8,8.6,14.3,2.4Z"/></svg>