<?xml version="1.0" encoding="UTF-8"?><svg id="Layer_1" xmlns="http://www.w3.org/2000/svg" viewBox="0 0 206.4 235.5"><defs><style>.cls-1{fill:#fff;}</style></defs><path d="M192.1,3.2c2.5,5.3-28.1,24.6-13.1,28.2,3,.3,15.4-13.5,16.1-6.9s-18.7,14.6-16.5,16.8,17.6-11.8,20.6-12c-10.3,19.4,25.1-11.3-5.6,26.5,9.3,3.5-57.5,55.4-55.5,60.5.6,4.2,55.1,40.8,60,49.5-8.6,7.5-12.3-7.2-21-2.3l21.7,22.8c-2.9.5-5.8-3.5-8.1-3.6-7,4.2-10.7-.8-15.2-2.4-1.5,1.5,21.9,17,2.1,15.3-5.9-.5-15.3-11.1-21.3-13.8l24.8,22.4c-100.5-56.1-49.6-81.9-136.5,18.8-8.2,8.3-7.6,8-10.6,9.6-15.6,8.2-4.4-3.8-4.7-5.4s-3.2-1.3-3.5-3,3.6-8.5,2.7-9.4-12.4,3.1-9.8-6.3,7.3-3.4,6-7.2L0,225.2c.8-9.4,8.7-15.7,12.7-23.6l-10.1,8.6c-3.5-3.3,67.8-85.6,67.7-88-13.5-13.7-30.3-25.5-43.3-39.6-4.4-3.3-36.3-47.1-13.7-26.7,4.6-2.3,4.2-8.4,6.3.1,3.4-3.7,5.5-1.1,9-1.5.7-.7-1.9-4.2-1.4-6.2s2.8-1.8,2.9-2.5c.3-1.7-7.6-9.9.7-11.2,4-.6,7.9,7.8,9.7,5.7,4.6-5.4-12.5-18.4-12-23.9l72.4,71.1c9.8-6.5,103.1-106.5,91.2-84.3ZM177.9,18.9c.8,1,9.6-9.1,8.2-10.5s-10.9,7-8.2,10.5ZM177.1,19.7c-1.2-1.2-12,9.8-11.2,10.5,1.5,1.4,12.7-9,11.2-10.5ZM58.6,70.6c-1-3.2-23.1-29.2-25.5-26.9s22.2,26.1,25.5,26.9ZM31.6,65.3c4.4-1.4-2.5-7.8-4.5-6s3.6,6.3,4.5,6ZM140.3,66.5l-5.6,5.6,1.5,1.5,5.6-5.6s-1.5-1.5-1.5-1.5ZM135.9,90c.9,1,18-15,16.5-16.5s-17.5,15.5-16.5,16.5ZM78.8,113.2c1.6-1.5-15.5-14.9-18-15,.6,2.7,16.7,16.2,18,15ZM141.1,108c-2.1-1-6.8,3.2-6.7,4.8.1,3.2,6.5-4.1,6.7-4.8ZM155.8,151c-7.1-7.1-18.7-15.2-28.2-18.2,2.1,2.1,48.7,37.7,28.2,18.2ZM95.8,156.9l-10.1,11.7,1.9,1.6,10.1-11.7-1.9-1.6Z"/><path class="cls-1" d="M58.6,70.6c-3.3-.8-27.4-25.1-25.5-26.9s24.5,23.8,25.5,26.9Z"/><path class="cls-1" d="M155.8,151c.8.8,5.5,5.7,5.5,6.1.1,2.1-31.9-22.7-33.7-24.3,9.6,3,21.2,11.2,28.2,18.2Z"/><path class="cls-1" d="M78.8,113.2c-1.3,1.3-17.4-12.2-18-15,2.5,0,19.6,13.5,18,15Z"/><path class="cls-1" d="M135.9,90c-1-1,15.7-17.3,16.5-16.5,1.5,1.5-15.6,17.4-16.5,16.5Z"/><polygon class="cls-1" points="95.8 156.9 97.8 158.6 87.7 170.3 85.8 168.6 95.8 156.9"/><path class="cls-1" d="M177.9,18.9c-2.7-3.4,7.4-11.3,8.2-10.5,1.3,1.4-7.4,11.5-8.2,10.5Z"/><path class="cls-1" d="M177.1,19.7c1.4,1.4-9.7,11.9-11.2,10.5s10.1-11.7,11.2-10.5Z"/><path class="cls-1" d="M31.6,65.3c-.9.3-4.8-5.7-4.5-6,2-1.8,8.8,4.6,4.5,6Z"/><polygon class="cls-1" points="140.3 66.5 141.9 68 136.2 73.6 134.7 72.1 140.3 66.5"/><path class="cls-1" d="M141.1,108c-.2.7-6.6,8-6.7,4.8s4.7-5.9,6.7-4.8Z"/></svg>