<?xml version="1.0" encoding="UTF-8"?><svg id="Layer_1" xmlns="http://www.w3.org/2000/svg" xmlns:xlink="http://www.w3.org/1999/xlink" viewBox="0 0 153 141"><defs><clipPath id="clippath"><rect x="14" y="54.5" width="124" height="86.5" fill="none"/></clipPath><clipPath id="clippath-1"><rect x="34" width="41.3" height="53.2" fill="none"/></clipPath><clipPath id="clippath-2"><rect x="79.3" width="41.3" height="53.2" fill="none"/></clipPath><clipPath id="clippath-3"><rect y="29.2" width="38" height="49.3" fill="none"/></clipPath><clipPath id="clippath-4"><rect x="115.3" y="31.8" width="37.7" height="49.3" fill="none"/></clipPath></defs><g clip-path="url(#clippath)"><path d="M105.4,140.9c-4.2.3-9.1-.8-13.7-2.6-18.9-9-37.5,4-56.8,1.1-29.1-6.6-24.6-45.5-.7-55.9,3.2-1.4,5.4-4,7.3-6.8,5.6-8.3,12.3-15.4,22-18.6,16.1-5.9,35.6-1.1,44.5,14.4,2.4,4.4,5.8,7.7,10,10.3,30.5,14.8,23.1,59.5-12.7,58.1ZM128.9,111.5c1.3-10.6-7.2-17.9-15.7-22.8-16.9-11.4-14.7-29.5-42.6-24.6-16.2,2.3-20.7,19.5-33.8,26.5-27.9,17.3-13,51.5,19.4,39.6,12.7-3.7,25.4-3.9,37.9.9,14.7,5.8,35.6,1,34.8-19.6Z"/></g><g clip-path="url(#clippath-1)"><path d="M74.2,27.1c1.5,18.5-15.4,34.8-31.7,20.5-9.2-9.8-10.6-29-2.9-40,14.5-17.2,36.4-3,34.6,19.6ZM66.7,26.8c.1-27.6-27.4-23.6-23.9,2.2,2.9,22.4,24.6,20.4,23.9-2.2Z"/></g><g clip-path="url(#clippath-2)"><path d="M120.5,25.5c0,7.8-1.6,15.2-7.2,21-23.4,21.6-41.1-17.2-28.8-36.5,12-21.5,38.2-6.1,36,15.5ZM112.9,24.9c1.1-12.8-14.5-25-21.8-10-3.7,9.3-3.6,21.8,4.5,28.7,10.9,6,17.8-9,17.3-18.7Z"/></g><g clip-path="url(#clippath-3)"><path d="M0,53c-.1-9.3,2.8-15.4,8.9-19.9,18.2-12.3,32.7,15.8,27.5,31.5C28,91.4-.8,74.9,0,53ZM8.1,51c-1.6,13.5,16,30.4,21.4,10.6,1.5-8.3-2.5-23.8-12.6-23.7-6.3.7-9.1,7.4-8.8,13.1Z"/></g><g clip-path="url(#clippath-4)"><path d="M132.8,80c-22.6-.8-18.3-28.2-8.8-40.5,8.5-12.8,24.7-5.3,27.9,6.9,3.8,12.8-4.6,32.7-19.1,33.6ZM124.1,61.5c3,27.6,28.8-.4,19.1-16.9-9.6-13.7-19.7,7.5-19.1,16.9Z"/></g></svg>