<?xml version="1.0" encoding="UTF-8"?><svg xmlns="http://www.w3.org/2000/svg" viewBox="0 0 1518 1518"><defs><style>.cls-1{fill:#fff;}</style></defs><g id="Layer_1"><path class="cls-1" d="M1518,0v1518H0V0h1518ZM751.1,301.3c-3.6-5.7-6.1-.7-6.5-.7-3.1.1-4.3-1.9-5.1.7-6.8-5.4-3.3,2.7-10.2.4,6.4,9.6,4.9,2.4,7.5,1.1s1,1.9,2.2,1.5c1.4-4.5,8.4-2.5,12.1-3ZM726.4,307.4l.4-4.5h-4.9l4.5,4.5ZM710.9,306.3l-1-1.2c-.1,3.9,5.7,4.5-1.6,5.6-4,3,8.9.8,9-3l-6.5-1.4h0ZM802.1,306.6c-3.8,2.7-7.9-.6-7.5,5.2l10.5-.7-.8-3.7-2.2,3v-3.8ZM810.4,311.8c3.3,3.1,5.9-4.9,3.4-5.2s-4.7,4-3.4,5.2ZM339.6,1000c-3.3,17.5-6.4-9-11.2,0,1.8-2.9,2.9-6.6,1.6-10.5-4.6,1.7-8.3-11.1-7.1-13.5-1-3.5-2.7,4.9-5-2.5s1.8,0,1.6-1.2c-7.9-2.9,4.3-3.2-5.2-8.6l3.7-3.8-2.2-1.9.7,2.2c-5.3,4,0-9.8-2.3-11.2s-3.4,3-4.9-.8,2.5-2.2,2.6-5.2c-8,1.1-1.3-4.8-1.5-5.2l-3.7-.8c5.8-5.1-5.8-3.2-.8-10.5-12.1-1.3,6.2-2.6-.5-5.1s-2.9.9-3.3.6c-2.6-2.6,5.7-6.4,6-6,1,1.3-2.3,3.2,3.8,3l-1.5-2.2,3-1.1c-7.6-7.4-5.4-.2-6,.4-3,3-3.9-2.6-4.1-3-4.3-5.9.4,0,.4-4.8l-3.7-2,3-1.5-3-1.5,2.2-1.9-3.7-1.1c1.2-3.1,4.5-.8,0-4.9,4.1-9.7-2.2-47.5-1.6-52.8l6,2.2-.7-7.5c6.6,9.9-.4-2.5,3.8-7.5-.7-1.7-2.1.2-2.3,0,1.7-3-2.9.6-1.4-5.2-1.6.6-6.4-.7-4.1-5.2l1.5,3.8h1.9l.4-3c7.3,5.4.5-1.7.4-2.1-2-8.1,4.3-5.2,0-9.9.5-.4,3.9,2,4.5-.7-5.2.6-7.7-9-.8-4.5,1.6-5.4.5-3.5-3-6.4,11,0-7.3-8,3-7.9-.9-2.3-3.2-9.7,0-10.1.5-2-2.9-.5-1.5-1.9s2.2.4,2.9-1.2c1.2-2.9-1.4-4.9-1.4-5.2,4.7-1.3-.6-6.3,3.1-8.1,0-2.9-3-2.1-2.3-4.1,4.1-1.4,1-8.8,6-8.3-.2-1-1.8-9.3,2.3-8.6-3-7,1.2-12.5,2.2-19.1l1.5.8c2.8-4.5-1.1-13,5.3-11.3-3.8-2.6.5-2.2.8-3.4-2.1-3.8.3-6.2,2.1-9.9-1.8-7,3.6,0,1.7-5.4,4.7,2.4-.3-3.8,4.5-3,.3-1.5-2,0-2.3-1.2-2-8.5,2.1-5.2,2.3-5.6,1-3.8,1.5-16.6,6.7-17.3.6-5.1,5.2-16.7,8.3-19.4-4.7-1.3-1.3-4.4,2.3-2.3,0-17.3,12.6-29.2,20.7-44.9-1.5-1.4,2.9-8.5,4.8-4.6-1.3-2.6,1.2-7.4,3.8-6.7.7-1.7-1.5-3.2-1.5-3.4,3.3-2.6-.4-6.1,6.6-7.3,2.7-4.4-.7-8,6.8-9.2l-1.5-4.9c6.5,12.4-.2-12.6,6-2.3,2.7,1.2-.3-4.7,0-5.2,3.8.8,5-.5,6.1-4.8,4.3-1.7,3.3-4.5,3-7.4,4.8-.6,4.7-10.9,9.7-9.5,4.2-12.2,14.3-20.3,22.5-28.6l-2.2-2.2c5.4,1.3,3.9-2.9,4.9-3.8,1.5-1.3,13.3-7.9,7.1-9,3.3-.4,5.6-6,9.4-5.2-.2-8,4.3-1.6,4.1-9.1.2,0,3,1.9,5.6,0s-3.2-.6-3.4-.8l.8-3.7,3,2.2c-2.1-4.8,1.2-2.4,2.8-4,1.8-3.8,2.9-4.8,6.2-5.8-5.7-3.9,2.5-2,3.4-3.7-1.1-5.9,5.7-7.3,9.1-9.3,1.3-1.1,6.6-10.5,6.9-5,1-7.1,11.5-12.2,16.5-15-4.9-6,3.4-3.4,8.1-6.8,3.5-4.2-2.8-1.3,4.5-4.6,2.3-3-.4-4.3,3.2-2.7.7-.6-1.9-2.8,3-1.8,4.4-8.9,22.4-14.1,16.5-20.7,11.2,4.9,2.5-3,11.3-1.1,1.4-.9,0-6.5,2.2-1.2-1.2-5.3,2.9-3.1,7-5.9s-1.4-4.2,4.2-3.1c-8-8.7,6-1.4,3.8-9.7,6.1,7,2.4,2.5,9,1.5l-1.5-2.2c6.5,2,0-4.7,2.6-5.2s.5,3.8,6.6,2.2c9.1-5.1,4.7-8.3,14-8.3,0-10.1,1-.9,5.3-2.9,2.3-2.3-1-2-.8-2.2,5.4,1.4,12.3-7.7,18.1-7.1,2.6-7,14.4-3.6,15.4-11.7,5.4,5.5,7.7-.5,13.6-3.7,1.4-.7,8.5,1.3,7-4.5h2.2c-1.9,5.9,5.7-2.9,10.5-1.5-4.3-1-5.6-13.7-.7-10.1.8-.7.6-2.6.7-2.7.3-.2.8,2.7,6.3,0s.3-2,.6-2.2c8.2,0,3.9-8.7,1.3-2.4l-2.2-1.5c-1.3,8-2.3,1.6-2.6,1.5-1.1,4-3.1-.8-3.6-2-4.1-3.4-2,2.2-2.2,2.4-1.3,1.2-4,1.1-2.9,3.3-1.8-2.3-7.3-.7-8.6.8-1.5-3.5-7.7.6-8.3,2.3-3.7-.4-7.3-8.8-9.3-2.2-1.5-4-6,1.7-6.7,2.6,6.4,1.4-2.4,7.9-3.8.4.5,6.6-11.5,4.5-16.8,9.5-4.9-.2-3.6-4.3-4.3,1-6.5.4-50.9,15.9-37.9,14.4-4.1,2-15,2.7-13.1,7.4l-7.5-1.5,1.5,1.5c-4.9-1.7-5,2.7-5.4,2.9-5.8,2.7-15,.7-14.9,9.1-3.5-5.2-8.4.3-6,3.7-1.9,1.4-8.7-2.3-6,2.2-5.5-1.7-1.4,5.5-7.5,4.5,6.8,4.3-6.7,3.4-10.1,5.9-4.5,12.6-17,9.4-12.5,14.4-2,2-8.1.8-9.4,8.2l-1.1-3c-5.7,3.9-4.5.9-7.8,8.3-4.7-1-5.4,7.4-9.4,6.6,2.3,4.5-2.6.9-5.8,4.6-2,2.4,2.8,2.8-4.7,3.6,6.5,2.6-2.5,3.7-4.6,5.6-1.8,7.3-4.3,1.1-3.7,8-3-3.2-8.9,3.9-3.7,2.3-.9,3.7-2.7-.7-3.7,0s-9,9.4-5.3,10.5c-6.7-1.9-2.4,1.9-3.8,3.7-21.2,11.9.6,6.6-2.2,12.8-3.2,3.7-7-5.3-7.5-5.2-2.6,2.7-4,7.2-8.1,6.8-.9,2.2-12.7,11.4-9.9,14.7-3,2.4-8.9,4.8-8.9,9.4-.9.2-7.9,6.2-5.2,7.9-.2.2-2.9-1.4-3.7-.7-2.5,2.1,2.3,2.1,2.5,2.2-.5,4.3-6.6.6-12.9,12.8l1.5,1.5c-3.3-.2-7.7,7-6.7,9.8l-2.2-2.2c.4,4.9-3.6,3.5-3.8,3.7,2.9,4.3-2.6,5-5.2,8.3-1.1,2,2.5,1.5,1.5,2.2-7.2-.5-4.1,12.5-12.7,12.8.2,2.8,7.3,1.3-.1,5,.4,1.1.4,6.2-2,3.4-7.3,7.2-2.8,3.3-2.7,7.5s-2.7,1.9-2.8,2c2.1,5-1.2.3-2.9.7.4,2.2-2,7.5-4.5,7.5,2.6,3,1.5,4.6-2.2,3,1.1,4.3-2.4,7.7-5.2,10.1l3.8,2.2-4.5.4.7,3.7-1.5-1.5c1.3,4.7-7.5,5.7-1.5,8.2-6.3,0-3.4,4.4-4.8,6.8s-6.7,2.5-3.4,9l-3.7-.7c3.7,3.7-17.6,31.9-9.1,30.7-.9,1.6-1.7-.3-2.3.5-4.4,6-5.4,3.5-6,4-1.6,1.5,2.2,2.8,2.2,3,0,1.3-1.7,0-1.6,1.8,4.3,5.8-6.1,6.2-2.9,13.9l-3-3c-.2,4.9-1.1,6.1,2.2,9.7-6.5-2-3.5,2-4.9,5.3-3.1,4.9-5.1,13-5.6,20.9-5.8-5,.4,2.8-4.5,2.6,2.9,9.4-6.1,15.3-3.9,24.7-.9,3.9-2.8,1.1-2.9,1.3,3.3,8.6-5.6,4.4.1,11.5-4.7,4.2-.2,13.1-6,17.2,6.2,4.6-5.7,5.6.8,10.1h-3c7.3,7.2-5,.8.6,12.2-.3,4-6.5,13.7.2,13.6.7,1.9-4.7.4-3.7,4.9l2.2-1.5c2.4,6.8-12,4.9.8,14.3-9.7-1.5-.9,6.8-7.5,7.1,5.7,3.4-1.6,28,3,24.8-4.3,1.7,3.8,12-5.3,12.7,8.4.5,1.8,2.7,2.2,5.6s2.1-.4,2.3.4c.4,2.4-2.4,9.4-2,11.4,1.8,3.7,4.4,3.7.7,5.9-.4,4.2,4.9,5.4.7,5.6,3.1,3.4-2.6,6.6,1.5,7.1-2.2,9.9,3.5,2.4-1.5,14.9,6.6,7.2.9,22.1,8.3,22.2-5.7,4.7-1.8,7.1,1.1,12-1.9,4.3,5.6,13.4-.6,12.7-2.9,1.8,8.5,7.2,3.3,8.7,1.8,4,9,4.4-1.6,9.7,9.8-3.8,4.7,4.4,4.5,9.4.4.5,5.2-4.1,7.5,5.6s-3.2,1.3-1.4,4,4.3,0,4.4,0c.5.6-1.1,5.4,2.2,3.8l-3,1.9,2.3,6.4,1.1-1.5c4,2.2-1.3,2.6.3,5.5,6,2.6,1.1,6.5,6.7,7.2,1.4,1.8-1.8,2.3-1.5,3s1.9-.5,2.3.4c-2.4,3.7,8.9,9.2.8,11.3,9.7-.1,1.8,8.2,9.8,7.1-2.7,4.5,3.4,4.3,1.4,8.2,6.1-.3,5.2,10.3,9.8,12.1,1,2-2.3,1.3-1.5,2.2s1.8-.3,2.3.5c2.4,6.5.6,2,4.4,2.5-1.9,2.2,2.6,10.8,3.7,6-.6,1.5-2.2,6.7,1.8,3.8,5.3,4.1-1.7,1.8-1.7,5.2l5.2-1.5,1.1,4.5,2.6-1.5c-4,8.5,7.1,5.9,3.8,11.2.3.5,4.7-.6,2.3,5.3,13.9.5.2,13.7,8.9,9.7,6.6-2.9,0-3.6,2.3-3l.8,7.5c4.6-4.7,9.1,11,13.5,6.8-.8,6,2.1,4.9,2.3,5.2-2.4,7.1,4.2,6.4,3.7,3,2.4.7,2.5,5.9,6.8,3-3.8,7.7,1.2,3.6,3.3,4.6,2.6,3.2,2,4,5.8,2.9-1.4,4.1,4,5.8,6,4.5-2.1,4,4,4.9,6.6,6.1,1.2.8,1.5,5.9,8.4,4.4l-1.5,1.5c6.3-2.3,2.7,1.9,3.7,3,9.2.5,1.4,8.4,14.2,6l-1.5,2.2c5.4-2.7,4.9,1.9,5.3,2.1,2-.8,8.6,2.8,7.4,5.3,8.8-3.7,1.4,3.5,14.1,3.4,3.2,8.2,10.2-2.2,15.4,8.6,1.2,0,3.6-7.8,8.6-5.2-19.6,4.3,14.1,18,7.9,9,2.6,6.1,3.3,2.2,4.1,2.6,2.1,6.3-.3-.9,3.8.4l-1.5,3,5.2-.7-1.5,2.2c10.6,1.8,18.7,7,30.6,8.1,1.7.7,3.6,4.6,3.9,4.7,6-4.7,11.7,3.4,17.9,0-1.1,5.8,4.8,1.8,8.2,3.8l-1.2,2.1c-13-2.6,4.8,9.1,1.9-1.7l1.9-.4,2.6,4.5.5-3.7c12.7-1.4-.2,5.1,11.5,3.1,1.4.5,2.1,7,3.1-1.6l.7,3.7c5-2,13.5-1.2,9,4.5,8.2,2.1,5.7-4.3,6.8-5.2,7.6,8.9,2.4.2,9.8.8l1.1,4.5,2.2-2.2c5.5,4.2,33.9-1.5,27.4,8.2.5.4,4.3.1,4.5,0-5.1-5.8,12.3-6.1,9-.7l6.7-3c.3,3.5-1.6,3.6-3.7,5.2,5.4,1.7,4.8-2.7,5.3-3,13.3-1.5,12.3,7.8,15.3.7,6.8,7.2,6.1-6.6,13.7,1.9,6.2.3.9-3.7,5.9.2,7.4,0,9.3-2.2,13.5,2.9,6.6-.2.8-4.3,3.6-4.2s1.7,3.5,1.9,3.7c4.1-1.3,7.2-4,9.7,0,2.6.4.7-1.7,2.2-1.5,1.7,2.8,7.2,3.1,9.8,0-.2,6.1,8.5.9,9.5,3.8l10-4.5c-2.6,1.5-2.9,5.4.4,4.5s0-5.8,5.6-3.8l-3,3c6.1-2.4,8.5.9,14.2,0l-1.1-3.7c13.7,9.9,6.5-1.1,12.4-1.5,3.4,2-3.6,4.3-.3,5.3s6.5-2,4.9-3.8l3,2.2c-1.4-2.8,0-4.5,3-3.4-5.2,5.2.5,2,3.7,1.9l-1.5-2.2,3.4-.7,1.6,4.5h2.5l-1.9-2.3c3.2-5.5,9.2,9.2,7.9-2.3,5.8.8,10.9-1.9,13.5,3-.6-6.5,16.9-1.6,15.5-6.6,1.8-.3,3.9,2.2,5.1,2.1,2.3-.3,3-1.4,8.3-1.4s2.8-2.2,3.4-1.5c1.6,1.8-5,6.1,2.6,4.4,5.3-1.2,1.4-3.2,1.9-4.4s2.6,1.9,3.7,1.5c1.7-5.2,8.1-.5,10.2-5.9l1.1,3c1.9-4.4,0,.2,5.4-.7s1.1-2.2,1.7-2.2c1.6,3.6,3.4,2.4,5.5-.3,4.5-1.1,15.1-.4,15.9-4.9,3.9,6.2,11.4-8.5,12,3,2.6-5.7,5.6,4.9,3-4.5,3.9,1.5,7.8-3.4,8.8-3.8,7.1,3.7,4.2-.2,10.7-2.3-4.5,13.1,12.8-8.8,17.6-3.2,3.2-4.6,2.5-.3,3.7-.5,3.2-.4,7.7-5.5,8.6.7-1.7-5.2,2.9-9.1,7.5-6.4l-2.2,3.3c15.2-.8-.3-2.9,9.4-9,3.4,6.9,4.7,2,7.9-2.3,6.7,3,19.8-9.2,23.3-3.8v-3.7c1.7-.7,2.6,4.1,3.4,3.7,4.1-1.8-.3-4.7.4-5.2,2.8-1.3,8.3.3,8.3-4.1,4.9-.7,9.4-5,14.3-5.6l-1.5,3c5.7,1.1,3-2,3.8-2.9,5.4-2.6,9.5-10.4,15.5-8.4,5.1-11.6,16.3-3.8,20.7-15,2,5.8,4-.6,5.3-1.5s9.1-3.1,4.8-6l7.5.7c-3.2-1.1-.4-5.7.7-5.2s-.9,3,1.5,2.3l.8-4.5,2.2,2.2c-1-5.7,7.4-1.5,5.3-9,3.6,5.6,7.5,2.2,1.5-2.2,4.1,1.1,2.8-2.1,3-2.3,2.9.9,2.9.9,5.6-1.5,2-.8,0,2.1,1.1,1.5s-.2-2.2,0-2.3c6.9,3.8-.5-8.6,9-1.5l-.4-3-4.8-1.5c4,2.1,5.3-.8,5.6-.8,4.1,3.2,4.5-.2,1.9-2.2,3-3.3,12.4-8,12.7-10.5,3.3-1-1.1,3.8,2.2,3,.7-3.7.3-5,4.5-5.3-5.2-4.8-.4-2.9,2-8.9,3.3-.1,3.1.5,2.1,1.4s-4.2,2.8-2.6,3.7c4.1,3.1,8.1-8.9,3-6.3,5.3-.3,7.8-4.7,9-9.4.8-1,7.1,4.4,4.5-5.2,8-.2,7.5-9.6,14.6-12.7,1.6-1.8,0-3.5.4-3.8,6.9-.3,8.4-13,14.9-16.5l-2.2-.7c-.3-1.4,2.2-.5,2.2-.7,0-1.4-2.2,0-1.5-2.2h3.6c3.5-4.1,11.9-27.9,13.6-21.8.4-3.5-4.1.4,1.1-4.5,1.8-5.6,4.6-13.6,8.7-14.6-5.4,1.1-2.6-2-.4-4.9l.4,3c8.1-2.2-2.7-2.6,0-8.5s4.9-1.1,2.3-6.5c2.3,4,6.9-5,3-4.9,3.6-1.4,1.6-7.7,3.7-10.8l1.5,3c.9-2.1-.8-9.7,3-7.5.5-1.1-2.7-3.6,1.5-3-5.5-2.7,0-1.9,0-2.2-2.2-3.7.4-4.6,3-4.5-1.4-1.5.9-9.8,3-9,.2-.4-4.6-8.8,2.3-3,1.9-5.1-1.6-2.2-2.2-3-1.2-1.5,3.8-9.1,4.5-10.9l4.5,1.2c-6.8-3.6-4.2-4.1-2.5-10.2.6-2.4-2.5-4.8,3.3-6.2l1.5,4.5c-5.7-11.6,5.9-20.3,1.6-27,3.5,1,6.1-9.6,3-9.4,6.6-4.6.9-2.4.7-6,3.2-3,5.7-8.6.7-11.6,6.6,2.1,1.6-4.7,2.2-5.2s10,2.5,5.7-5.2c-4.5,0-1.2,3-1.9,3.7-4.7,1.6-2.2-6.3.9-6.3,1.2-2.5-1.3-12.2,2.9-12.8,0-2.4-3.7-.6-3-3.7,4.9-4.2,4.5-6.4,5.3-13.2-1.8,0-7.2,5.1-6.8,1.1.3-3.5,8.1-2.2,7.5-5.2-.9-5.3-5.9,2-6.4,1.9-4.3-1,.4-4.6.4-4.9-1.4-4.2-2.2-2.3,1.4-5.2-2.8-1.9.1-11.7-3.7-8.6,2.8-3.1-.6-8,0-12.2.6-2.1,4.3-2.2,3-3.5-2.1-2.2-4.8,7.4-6.4,7.5-5.1-7.6.2-5,1.1-6s-5.9-6.6-4.5-8.2,6,6.3,6.7,1.2-3-2.3-5.2-1.9c0-2.3,3.7-1.1,2.9-4.8s-2-.9-2.1-1.7c3.1-7.7-2.3.6-1.1-9.6.8-7.3,3.2-5.3,3.3-5.6.8-2.4-7.8-3.8-.8-7.5-7.5,4-1.2-8.2-2.3-9.8s-2,4.1-2.1-4.2,1.8-2.4,1.4-3.3l-6-1.5,3.7-.7c-.9-2,1.8-12.1,1.5-12.7-2.9,0-7.6-6.5-3.7-9.3-1.6-3.2-.8-10.3-4.5-17.5-.9-3.2,1.8-2.1,1.5-3.2-4.4-1.1-2-10.8-7.4-10.6v-2.2c4.7,4.9,2.6-12.6-1.5-9.7-.2-.5,2.2-6.8,0-9.7l-1.5,1.5c.6-3.4,1.1-17.4-4.5-15-.3-.4-.8-9.2-1.5-10.7-3.7-2.5-8.3-11.1-.6-12.4,7.2,1.5-1.6,6.2,10.7,8.8-5.5-5.6-1-14.3-10.1-12-8.8,1.9,1,1.8-.5,2.2-2.3.5-4.9-.5-7,1.6-2.2-8.4,9.8,1.6,1.9-12.8-1.1,4-7.5,7.4-4.9.5s2.2-.4,2.3-.5c-.8-1.9-1.4-5,0-6.7-8.5-2.3,5.5-.6,3.7-6.4-1.3-6.4-6,4.1-10.2.4s11.6.2,5-5-4,.8-4.5.4c-1.9-1.1,3.4-8.2.8-11.6s-4,2.1-2.4-4.2c-4.8,4.2-4.4-3.3-6-8.3h-2.2l1.5,2.2c-7.5,3.1-6.5-8.2-1.5-6.4-.1-1.3-3.7.9-3-1.9h5.2c-1.7-8.8-1.4,0-4.1-.7s-3.1-6.3-4.2-7.1c-2-1.5-7.9,2.1-3-2.7l-3.7.7.8-3c10.6,3.9-8.4-7.3-6.1-9.8-.6-.3-2.9,1.2-3.7.7,1.7-5.7,5.1-2.4-2.8-9.2.6-5.3-8.6-10.1-10.5-12.8-2.1-2.7-3.7-9.5-8.4-11.5l2.9-4.1c-6.1,3-8.6-1.7-11.2-6.7l5.2-1.1c-13.1-1.1-6-2.6-6-3.8,0-3.4-6.8-3.1-7.1-3.4-.7-4.1-1.2-3.8-4.1-5.6,6.5-1.4-1.9-5.9-4.2-7.9l-.7,1.5c-1.7-6.4-2.8-2.2-4.1-3,.6-3.2-2.2-4.2-4.5-3.8-.5-2.2,1.2-4.9-2.2-3-.7-1.2,1.2-9.4-4.5-4.5l1.5-3c-8.7,2.1-6.1-4.6-6.7-4.9-7.5,2.2-1.8-5.3-9.8-4.1l2.2-3c-3.1,1.4-13-4.4-9-8.2-3.7,4.8-16.9-6.3-12-6.7-5.6,1.7-9.9-5.3-14.1-8.3-5.1-2-13.1-6.3-7.7-6.7-9.8,2.8-4.4-2.3-6-4.5-2.8-.3-9.5-.9-12.7-3,.2-5.2-7.4-2.9-11.3-8.6-4.2-1.9-14.5-.5-14.5-5.7-10.5-1-21.2-8.8-33.5-10.7-8.8-3.2-7.4-7.3-9.7-1.4-4.6,2.8-2-3.3-2.1-3.6-.5-.9-18.6-4.4-19.9-6.8l-1.9,5.2c.9-6.9-3.4-4.8-7.7-6.7l-.5-2.3c.5,6.3-12.4-3.7-18.4-3-4-.9,0,1.8-1.4,1.5-4.7-1-14.8-6.6-17.7-2.2-3.4-10.1-40-3.8-42.8-10.5-10.2,6.9-23.1-8.2-24.4-1.6-10.2-7-7.3,1-8.2,1.6-2.9,1.8-1.5-3.9-1.9-4.5-1.5-2.1-10.3,1.5-10.8,1.4-1.6-4.8-8.5,1.7-9.8-3.8-4.1-.5,2,5.5-5.2,2.3-7.1-2.2,2.5-5.3-3.8,1.4l-.7-3.8c-1.6,6.6-15.4-1.6-18.7,4.5-2.4-5.6-8.4-.6-7.2,0-3-3.7-11.1-.7-16-.8-4.1.3-.2,1.5-.9,1.5s-6-2.5-10.3-1.5c-3.6,3.7-8.9,3-12.5,3,1.3,6-3.5,8.7-5.4,2.4-.3-.2-7.1.4-7.4.6s.8,5.9-4.5,5.2c4.3-3.9.9-6.2-1.4-3.6-1.9,5.6-4.2,7.2-8.8,7.3-4.8,0,2.7-3.1,1.2-4.5-2.6-2.3-3.9,5.2-7.5,3,8.3,3.3-2.6,3.4-4.4,3.8s-.3,4.8-3.5,0l-2.3,3.7c-1.3-9.9-5.5,1.5-6.5,2.2-7.3-.9-12.1,9.8-18.7,9.8,12.3-1.4-8.5,10.4,3,9.7-2.6,5.3,1.2,10.1-3,14.2,3.8-.9,1.8,3.3,2.3,6,2.7.7,1-2.6,1.5-3,1.3-1,7,4.4.7,4.5l1.9,3,2.6-2.2c0,3.7.4,4.7,4.1,5.1l4.5-5.1c4.7,9.1,2.5,3.1,3,3,7.4.6,8.1,4.8,11.4-2.9,3.8-1.3,13.4,3.4,12.9-2,9.5-1.8,69.8-13,66-5.2,2.1,3.2-.6-8,8.2-1.2-2.8-7.7,3.7-1.5,4.9-1.4,6.5-.2,21.7-3.7,24.7,1.3.6-9.9,1.6-.4,1.9,0,2.8.8,7.4-5.3,9.3,0,3.1-2.8,9.8-2.7,13.9-2.3-.1,4.8,5.9,2.1,9.4,3.8.8-12.7,5.1,8.7,10.8.8-.3,1.7,8.7,1.4,9,3.7,6.2-3.5,15.9,3.9,24.5,2.6,4,.7,1,1.9,1.1,2,4.3-4.7,10.8,4.8,15,.4l-2.2-4.1,7.1-.8.4,3c1-4.5,4.5.9,11.3-1.5-3.6,5.2,11.1,6.4,12,4.5-1.7,6.6,9.1-1.7,9,5.2,5.4-7.5,5,9.7,16.4.7l-2.2,5.2,3-2.2c-1.5,4.5,5,3.5,7.5,4.9,4.4,1.3,13.5,9,17.5,10,6-1.6-2.6-1.9-2.9-2.1-.7-.5-4.9-6.4-8.7-5.3,2.8-11.5,5.1.3,6,.7,2.6-5.2,4.9,5.4,9,1.5.5.3-1.3,1.9,0,2.6,3.3,1.5,6.1,2.9,7.5.4.5,2.6,5,1.4,6.8,2.6,1.1.8.7,6.8,5.6,4.9s-9.5-7.9-9.4-10.5c-4.9-1-4.6,2.9-3-5.2,3,3.5-1.6,3.1,5.2,2.3-.7,1.6-2.1.6-2.2,3,3.3.6,6.1-.3,6.4,3.1,1.1.3,10.6,1.2,7.8,4.4.3.3,4-5.1,4.5,2.3-4.1-1.4-7.5-1.3-6,3.7l1.9-2.3c5.1.3,2.1,5.1,8.6,3-.9-1-3.7-4.2-4.5-4.5l3-1.5c-2.6,3.9,3.6,1.2,4.5,4.2-2.2,6.7,0,5,3.4,2.5,8,15,6.3-5.1,10.8,4.5,2,0,6.8,6.2,6,6.7-4.4,2.8-5.5-4.8-6-6.7-2.3-.1-10.4,6.4-2.3,4.5,1.8,2.1-4.1,4.6,7.5,3-3.8,6.2,1.2,1.4,1.5,1.5,1.7.5,10.3,9.5,11.6,9.8,3.2.7-.9-5,1.2-6.6,3.3-2.6,2.6,2.9,3.6,4,2.1,2.3,4.9-1.3,4.5,4.8,2.4-6.7,2,5.6,3,6.8l6.6-2.2.8,1.8c-7.4,3.9-1.1,2.6.8,6.4-1.7-9.8,9.4.8,3.8,1.5,6,2.3,1.2,3.9,7.3,5.4.9,5,2.8,3.8,7.6,2.9-3.3,6,4.6,7.3,6.8,9.5,8.4,12,17,19.5,28,31.7,4.2,12.1,17.1,23.8,17.7,34.4,4.9-5.2,6.1,20.8,12,18.7-1.5-2.5-.7-8.1-4.5-7.5,2.2-9.8,7.3,14.6,11.2,15.4,0,.5-3.4,4.4-2.2,7.1,7.4-6.9,2.1.7,2.2,1.1,6.7,2.5-2.6,8.6,6,11.2-9.7,3.3,8.3,10.2,3.8,15.4.5.9,7.5-1.2,3.1,10l3.6.9c.4,10.6,5.8,27.5,9.6,38.3.6,2.9-.4,13.3.2,15.9s2.5,0,2.9,1.2.8,5.2-.6,5.6c6.6-.2-1.9,14.1,6.7,12-6.3,6.8,4.1,6.5-3,13.5,6.5,1.9.6,7.3-.7,6.4,7,.2,3.4,4.9,3.7,10.1l-3,.7c9.4-2.1-1,17.7,7.4,18.3l-3.7-.4-1.5,70.1,5.1.5c1.3,6.8-4-1.1-4.4,2.5,1.2,11.5,3.1,3.6,4.5,7.8-9.3-1-3.4,5.8-3.7,7.8-6.8,5.4-2.4,8.1-5.3,13.2,5.1-1,1.5,3,4.5,6-8.5-1.9-2.7,1.5-3,3.4-5.9,2.5,2.9,7.6-2.3,7.1,5.2,8.8-3.2,5.4-3.7,6,0,2.9-4.7,14.5,2.2,12.4,4.7,4.1-4.2,2.3-4.5,2.6.7,3.5-.9,6.4-3.2,10.1-3.5,12.7,3.7,2.7,3.1,11-3.6-8.4-6.3.5-4.5,6l-3-3c.4,4-2.6,4.6,2.2,4.9l-.7,2.6-2.2-1.5-.8,4.5,1.5-2.2c4.5,1,.5,1.8.2,2.5-2.7,7.6-5.2,7-6.3,9.2-1.3.3-2.7,25.2-6,19,0,.2-.8,4.7-.7,4.9,6.5,4.6-.3,3.9-3.8,3.4-1.3.8-.9,7.6-1.5,9.3-1.5,4.1-6.6,6-4.4,8.5,8.2,2.3-2.5,2.4-4.9,5.4-.2,12.3-5.7,7.7-10.1,18.4-2.7,6,1.5,2,1.4,2.2-3,1.5-13.8,11.5-9.1,16.5-9.3-1.7-4.9,8.4-11.2,6.4-1.2,1.8,3.9,2.1,1.9,3.8s-4.2-2-1.1,3c-2.3-.1-11.4,6.1-8.3,9-2.9.8-5.9-.5-5.3,3.7-.5.7-4.2.8-2.1,6.1-5-5.7-2,2.1-9,.7-.8.4,3.1,1.8,1.3,4.3-4,4.2-6.8.1-5.1,5.4-6,0-6.9,9.2-14.2,10.5l3,2.2c-6.6-.8-3.2,2.8-3.8,3.8-1,1.5-2.3-1.6-3.3-1.4-2.7,1.6-11,5.1-8.8,8.9-5.2,1.5-11.2,7.6-17.2,9.8-1.1,1.5,2.9,8.3-4.5,2.2,0,5.3-3.9,2.7-4.5,3,1.3,5.9-6.6-2.3-5.3,6l-1.5-3c-.6,5.9-8,.8-7.5,7.5-1.6,1.7-2.8-5.5-4.5,4.5-1.8-4.7-5.4-2-4.5,2.3-4.4-4.3-6.2,1.2-10.5,4.1-4.2.4-5.3,1.1-6.1,4.9-1.8,1.1-3-3.1-4.4-2.2-.2,4.9-6.7,1.5-6.8,5.9-1.6-2.9-6-.6-7.1,1.6-3.8,2.1-13,2-12.9,6.5-2.1,1.1-12.8-.2-11.6,4.6-1.7,1.4-1.2-1.9-2.2-1.5s-2.8,5.1-3,5.2c-3.3-1.6-3.2-5.3-7.3,0-4.2-.5-4.3-.6-7.3,2.5-3.3,1.3-10.9-2.4-8.7,2.2-2.2-1.5-5.8.7-6.6,2.2-5.2,3.6-13.4-.2-16.3,4.4-5.3-2-.7,3-4.9,1.7-2.9-1.7.5-2-.4-2.3-8.8-1-1.3,7.2-9,2.3,0,.9-6.6,4.4-6.4.8-.1,3.2-6.3,1-9,2.2,5.2,5.7-4.1,0-6.7.7-1.8,5.4-6.1,3.4-11.5,3.9-3.5,2.7-2.3,5.2-3.9.6-7.6-1.3-6,2.1-6.3,2.3-3.8-2.7-5.7-.2-7.1,3.1-.7.3-9.6-2.4-10.4-2.3-5.7,7.1-23.9-1.8-29.6,5.3-5.3-4.8-19.9,4.3-23.2-1.5-.3,2.9-3.9.8-6.2,1.7-3.3.9-5.6,5.2-5.1.5-21-1.1-41.1,3-52.1-.6-4.4,1.7-12,2-14.2-1.8-2.4-.1,1,6.3-4.1,4.5,2.5-8.6-.7-2.3-1.1-2.3-6.7-4.1-1.7-2.5-7.2,0-1.4-6.8-1,4.2-6.4-3-3.6,6.6-3.6-4-8.6,2.2-.2-6.1-15.6-.7-20.3-3l-.7,3.7c-2.4-10.6-38.3,0-37.9-8.3-4,3.1-8-.8-12.1-2.2-5.4.9-13,.1-15.7-3.8-4.6,6.4-7.7-5.3-15.3-.8l2.2-2.2c-4,.3-4.2.5-5.6-3-3,9.1-3.2,2.4-4.9,1.5-5.7,3.9-4.3-1.3-4.5-4.5-5.7-1.9-7.7,7.9-13.1,0,.4,1.1-10.7,2-6.3-1.5-2.3,4.4-4.5-2.9-7.4,1.6,2.3-8-.8-2.9-1.1-3-3.7-.8-1.4-2.6-6.4-.8l.7-3.7h-9.7c3.5-4.2-5.7-7.6-6.7-.8,1.1-9.7-4.1-4.9-5.2-5.4s-3-5-4.2-5.9-1.6,4.6-1.9-.8l-2.7.7-.3,4.5c.1-4.1-1.9-3.8-5-5.2l.5-3c-2.7-.7-1,2.7-1.5,3-5.6,3.6-.2-4.4-8.5-6-3.7,1.6-3.2,3.5-1.2,6-5.7,4.1-5.6-12.1-12.4-11.3-4.3.5,2.6,8.6-4.1,4.9-4.6-2.5.6-2.4.6-2.6-2.3-5.9,9.3-10.2,7.6-2.2,4.4-.4,21.2,3.9,7.6-.8.2-4.4-7-3.2-9.2-4-.5-4.5-6.9-7.1-10.7-7.9-2.3,0-.2,6.6-3.5,6,.8-7.5-22.1-8.2-4.5-1.6-4.2,0-8.1.9-11.2-2.6l3-.4-.8-1.9-6-.4c4.3-4.3.4-6.3-.8-.7-6.4-11-4.1-.5-9.3-1.6-4-1.7,3.2-2.9,2.6-4.4l-5.3.4v-4.9c5.8,6.6,9.6-1.1,0-2.2-3.4-.3-.1,2.4-1.9,2.2s-2.1-3-3.4-2.2c-.6,4.8-5.1,2.4-3-2.2l6,1.5-.8-4.5c-3-.6.3,2.1-1.5,2.6-2.5.7-.6-2.7-.7-3.4,7.2-4.2,2.5-7.7-2.9-9.9-1.9-1.3,2.9-2.7-6.1-3.6.2-3.2-5-9.3-9-7.5l3.7,6-4.9-2.3-1.9,2.3-3-4.5c.6,6.7-4.3,7.7,4.5,9.4-12.5,5.2-4.6-11-6.4-11.6-2.8,4.6-7.4,3.6-4.1-.7-4.4,2.6-.2-2.1-4.8-2.3-3.1.3-.4,4.3-3.4,3.8.2-4.3,2.2-5.4,0-9.7l5.2,3v-6.7c.3,3.1,9.9,3.4,4.5,6.7,0-1.9.6-3.9-1.5-2.7-7.8,18.2,17.3-9.8-6-5.5l-1.5,4.5c2.4-10.9-5.3-2.4-6-7.9s7.2-.9,9,1.9l-4.5-9.7c-6.8,2.5-.3,4.5-2.6,5-8.6.6,5-7.8-3.3-7.3.1-4.3-.8-4-3.9-1.7,4.9,8.2-5.9,1.4-6.6-2.7,13.5,5.2,0-12-2.2-9.7,3.9,10.7-3.8,0-3-.8,5.4.7,2.4-3.1.7-5.2-2.4-1.2-.2,5.6-3,3.7-4.5-3.1,2.5-6.6,1.5-9-6.3,3.8-2.4-1-3-1.5-1.3-.3-5.6.8-3.7-2.3-1.4-.9-3.2,4.6-6,3-.4-7.9,3.1-3.1,3.7-3.7s-4.2-6.7-.8-6c-.5-6.8-7.7-5.3-4.5-10.5-5.3,1.5-2.7-5.8-6.7-5.2,1.2-7-2.6-5.8-3.4-7.4-.5-8.8-8.7-11.3-4.5-1.5.7,1.7,2.6.6,2.6.8-2,5.1,2.6,4.3,1.5,11.1,1.9-1.9.1-2.8,3.7-3l.4.9ZM725,312.5c0-1.6,1.7-3.4-.8-4.4,1.5,2.9-8.4,4.8-5.3,7.5s4.4-4.8,7.5-2.3c.4-1.2-1.4-.6-1.4-.8ZM856.8,308.1c-10.5.2-9.7,4.6,0,2.2v-2.2ZM697.1,308.8l-1.5.4.8,6.4h3c0,0-2.4-6.7-2.3-6.8ZM706.9,311.1c-8.4.7-5.8,5.6-6.7,6.7s-6.1-4,0,4.5c1.4-4.3.8-5.5,6-3.7l-4.5-3,5.2-4.5ZM682.8,316.4h-2.2v5.9h-2.2v-4.5c-8.2,4.9-2.5,3.5-.3,6s-3.7,4.8,5.9,1.5v-1.5h-2.6c2.2-7,3.8,2.3,6.6-1.6,3.6-6.6-6.3.2-5.2-5.9h0ZM800.6,400.3l15-1.1c0-.8-14.9-2.4-15,1.1ZM751.1,403.3c6.7,1.3,7.6-5.6.5-2.3l-.5,2.3ZM927.3,411.6c-3.1-.4-7.7-1.2-7.5,3l7.5-.7v-2.3ZM1007.5,443.8c2.9-4.2-8.4-1.6-7.5-5.2-4.7,5.3,2.3,2.7,4,3.1,1.7.4,2.5,4,3.5,2.1ZM464.8,488c-7-1.7-10.2,6.8-3,4.4s-1.1-3.3,3-2.2v-2.2h0ZM984.3,545h-41.6l-155.9,181.4-125.2-181.4h-142.8l187.4,274-187.4,219.3h41.6l164.9-191.1,131.9,191.1h142.8l-194.7-284.5,179-208.8h0ZM1222.5,591.6c-5.4-2.5-9.7,1.2-3.6,5.1l.7-2.2c4.7,5.2,4.4-1.2,2.8-2.8h.1ZM1237,637.1c-.6-1.1.7-3.7-.8-3.7v3.7l-1.5-1.5c-.3,2.6.6,3.2,3,2.2-4,7.5,4.3,8.8,1.6-.3s-2-.2-2.2-.5h0ZM1249.6,675.4c-2.9.3-3.2,9.1.8,7.5l-.8-7.5ZM1261.4,744.2c0-1.2.8-2.2-.4-3.2l-3.8.8c2.6.7,1.2,3.5,1.5,5.6.9.5,2.7-3,2.7-3.2h0ZM1261.6,749.7l-4.5,1.1,1.9,7.8,2.6-1.1c-3.5-.2,3.2-5.1,0-7.8ZM1260.9,790.1c-8.4,0-2.8,13.7.4,7.1.6-1.3-2.6-4.8-.4-7.1ZM1260.9,802.8l-1.9-2.2-3.4,6,4.5.8v-2.2l-2.2-1.1,3-1.1v-.2ZM302.1,847.8c.7-5-9.4,4,2.2,2.3v-4.5l-2.2,2.2ZM304.3,851.6c-10.4-2.3-2.2,14.9-1.6,6.3s-2.5-.2-1.4-1.8c7-2-.9-1.6,3-4.5ZM304.3,877.8c3.2,1.4,1.3-7.2,1.5-9.4l2.2.4c-.6-4.6-5.7,0-8.2-.7,7.9,3.5-2.2,10.2,4.4,9.8-5.5-1.4.5,8.3,0,9-.9,1-3.2-3.1-3-.4,3.6,7.4,7,14.9,8,1.8-5-3.7-1.6-3.8-4.9-10.5h0ZM307.5,899.4c-1.5-6-7.1-.3-1,1.4.3.9-5.5,9.5,2.3,4.8,1.9,3.2-1.9,2.2-1.5,4.1,7.8,5.7,5.3-.8,5.2-5.6-8.1,1.1-.3-2-4.5-3.4l1.5-.7c-.6-1.3-1.8-.3-2.1-.5h.1ZM318,943c-.6-1.3.1-3.6-.1-5.2l-3.7,1.9c5.1-.5,4.3,15.4,8.2,12.4,3.8-3.9-2.4-9.5-4.3-9.1h0ZM328.1,967.9l-3.2-3.9-.4,3.7c-4.3-7.7,2,17.8,6.7,13.5s-3.2-6.8-1.9-9l-3.4.8,2-5.1h.2ZM399.5,1072c-4.1-2-1.3,3.5-1.5,3.7-.5.5-3-2.5-2.2,1.5,5-4.3,4.2,6,6.7,3,3.5-6.5-4.6-1.4-3-8.2ZM437.5,1103c-6.1-1.6-8.1,5.4-2.1,3.4s-.3-3.4,1.5-2.1c1.6,5.6,6,5.8,11.1,8.5,1.7,1.9,1.1,5.2,3.9,4.3-3.1,5.9,6.4,2.2,9.8,3.8-7.6-2.7-18.1-13.2-24.2-17.7v-.2ZM1042.6,1166.3c3.7-6.8-5.8-4.1-3.6,3.2,0-2.3,3.3-2.7,3.6-3.2Z"/><path class="cls-1" d="M413,1087.7c-.2,4.5-1,0-3,3,11-.4,3.9,1.4,7.8,5.3s3-1.6,4.2,5.2c-2.1.9-7.3,0-9.7,0l-.7,2.3-1.5-7.5-3,4.5c.3-3-1.2-5.7,1.5-7.5l-5.8-3.1v-2.1l2.8-.8.4,3,.4-3,5.2,1.5c-.2-4.6,1.1-.8,1.5-.8h0Z"/><path d="M413,1087.7c9,.9,4.3,2.2,6.1,3.6,6.2,2.5,10.2,6.7,2.9,9.9-1.2-6.8-.6-1.5-4.2-5.2s3.2-5.7-7.8-5.3c2-2.9,2.8,1.5,3-3Z"/><path d="M997,427.3c-.2,2.6,13.1,9.1,9.4,10.5s-5.2-4.6-5.6-4.9c-.8-1-8.1-.1-6.8-2.6-.8,2.8-6.9.2-7.5-.4-.9-4,.5-1.8-3.7-2.2-3.8-2.9-3.1-4.9-5.3-1.9-1.1-.6-3.3-12.2-6-.7,3.8-1.1,7.9,4.8,8.7,5.3s8.8.5,2.9,2.1-5.9-3.9-6.5-4.2c-5.1-4.8-18.1-5-18.5-10.7l-3,2.2,2.2-5.2c-12.5,9.1-11.2-8.2-16.4-.7,0-7-10.8,1.4-9-5.2-1.4,1.7-15.6.5-12-4.5-7.5,2.3-10.2-2.9-11.3,1.5l-.4-3-7.1.8,2.2,4.1c-3.4,3.8-9-1.5-10.1-1.7-3.7-.7-3.2,1.6-4.9,1.3-2.2-4.2-9.1-1.9-13.7-3.2-5.6-.9-9.4-5-11.9-1.4-2.6-3.3-9.6-1.9-9-3.7-5.7,8.2-10.9-13.6-10.8-.8-2.6-1.5-11.8.8-9.4-3.8-4.2-.3-10.9-.8-13.9,2.3-5.7-5.1-5.9.4-9.3,0-1.3-1.7-1.3-9.9-1.9,0-2.1-5.2-7.5-1.4-12-1.4-7-2.3-5.6-1-12.7.1-3.7-.2-7.7-6.3-4.9,1.4-2.1-.9-4.2-3.4-6.7-1.4s-.8,6.6-1.5,2.6c5.8-9.2-27.6,1.8-32.1,1-11.4,1.3-23.4-.8-33.9,4.2-2,6.6-13.7-3.3-15.6,6.8-1.2,1-5.5-2.9-8.7-1.9s1.7,6.1-3-3l-4.5,5.1c-3.7-.5-4.2-1.4-4.1-5.1l-2.6,2.2-1.9-3c6.3-.1.6-5.5-.7-4.5s1.2,3.7-1.5,3c-.4-2.6,1.6-6.9-2.3-6,4.2-4.1.4-8.9,3-14.2-11.5.7,9.3-11.1-3-9.7,6.4.3,13.1-12.6,18.7-9.8.9-.6,5.1-12.1,6.5-2.2l2.3-3.7c3.1,4.9,2.7.2,3.5,0,1.8-.4,12.7-.5,4.4-3.8,3.6,2.2,4.9-5.3,7.5-3s-5.9,4.5-1.2,4.5c8,0,7.3-3.4,8.8-7.3,2.3-2.6,5.7-.2,1.4,3.6,5.3.6,4.2-5,4.5-5.2,9.6-3.6,7.4,5.5,12.3,2.3,2.8-8.9,0-4.4,9.7-5.5,3.4-4.9,11.9-2,13.6-1.3,2.2-3.4,10.4-1.8,14.1-2.5,3.8.1,2,2.2,2.8,1.8s-1.6-3.4,6.4-2.2-.6,1.8.8,2.2c3.4-6.1,17.1,2.1,18.7-4.5l.7,3.8c1.5-1.5,3-6.4,3.8-1.4,7.2,3.2,1-2.8,5.2-2.3s1.3,2.4,2.7,2.7c1.7.1,7.5-2.9,7.1,1.1.5,0,9.3-3.5,10.8-1.4s-1,6.3,1.9,4.5-2-8.6,8.2-1.6c1.1-6.5,15.3,8.7,24.4,1.6-.2,4.7,50.9,4.2,42.8,10.5,2.9-4.3,12.9,1.2,17.7,2.2,3.1-1.2,8.7-.4,15.1,2,3.7,1.3,2.9,6.1,4.7-.5l.5,2.3c4.3,1.9,8.6-.2,7.7,6.7l1.9-5.2c1.3,2.4,19.4,5.8,19.9,6.8s-2.5,6.4,2.1,3.6c4.4-5.9,4.7-.8,9.7,1.4,11.5,1.9,25.7,10,33.5,10.7,4.8,7.1,14.8,2.2,18.9,9.6,4,2.2,8.4,0,6.9,4.7,2.1.7,10.3,4.6,12.7,3,1.6,2.2-3.8,7.3,6,4.5-3.9,3.6,3,3.6,7.7,6.7,7,4.4,7.9,10.3,14.1,8.3-1.1,4.5,7.8,10,12,6.7-4,3.8,5.9,9.7,9,8.2l-2.2,3c7.6-1.7,2.9,7.3,9.8,4.1,1.2.5-2,7,6.7,4.9l-1.5,3c5.7-4.9,3.8,3.3,4.5,4.5,3.8-.4,1.6-.5,2.2,3,1.7,0,6.4,1.3,4.5,3.8,1.3.8,2.4-3.4,4.1,3l.7-1.5c1.8,2.2,7.5,3.6,6.4,7.5s-2.1-.5-2.2.4c2.9,1.8,3.4,1.9,4.1,5.6,1.2,1.1,7.1,0,7.1,3.4s-7.1,2.6,6,3.8l-5.2,1.1c2.6,5,5.2,9.7,11.2,6.7l-2.9,4.1c4.7,2,6.3,8.8,8.4,11.5,2.2,3.4,12.3,8.4,10.5,12.8,8.6,7.8,3.5,4.1,2.8,9.2,2.7,1.6,3.2-1,3.7-.7-.7,3.2,15.8,13.5,6.1,9.8l-.8,3,3.7-.7c-5.2,5,4.7-1.4,7.2,9.8,2.7.8,2.4-8.1,4.1.7h-5.2c-.7,2.8,2.8.8,3,1.9-5.4.2-5.6,8.9,1.5,6.4l-1.5-2.2h2.2c0,10.3,9.1,12.1,6,8.3-1.6,6.2,1.1,2.5,2.4,4.2,2.9,6.1-6.2,14.1,3.7,11.2,6.6,5.2-8.9,1.5-5,5s9.6-3.1,10.2-.4c1.3,6.3-7.8,2.1-6,6.4s2.2,0,2.3,0c0,.4-1.2,2.5-1.2,3.7,1.3,2.7,1.9,3.2-1.1,3.5-2.6,6.9,3.8,3.5,4.9-.5,8.8,13.7-4.3,5.1-1.9,12.8,1.6-2.8,10.1.3,7.5-3.8,9.4-2.8,5.1,10.2,10.1,12-11.4-.4-3.9-8.1-10.7-8.8-10.1-.2-2.1,10.2.6,12.4.7,1.5,1.2,10.3,1.5,10.7,6-1.3,4.9,11.2,4.5,15l1.5-1.5c2.2,3-.2,9.3,0,9.7,4.4-1.3,6,14,1.5,9.7v2.2c5.3-1.3,3.7,12.2,7.5,10.6-5.4,1.9,7.7,21.5,1.4,18.4,2.5,4.7-2,10.5,5.3,11.6.3.6-2.4,10.8-1.5,12.7l-3.7.7,6,1.5c.4.9-1.4,2.1-1.4,3.3,0,8.3,1.4,3.1,2.1,4.2s-5.2,13.8,2.3,9.8c-7,3.7,1.6,5.1.8,7.5s-2.6-.7-3.3,5.6.6,4.5,2.6,6.4-2.1.4-1.5,3.2c4.7,4.6.6,3.1-.8,6.5,9.3-2.8,5.5,6.9-1.5.7-1.4,1.6,5.4,7.4,4.5,8.2s-6.2-1.6-1.1,6c1.5,0,4.2-9.7,6.4-7.5-2.7,7-4.8,1.1-1.4,13.8.3,2.1-1.9-.4-1.6,1.9s2.1-.2,2.2,0c-1.8,4.2,3.9,9.8-1.5,10.5,4.6,2.7-3.6,6.7,1.2,8.2,4.3,1,5.4-7.2,6.4-1.9s-7.2,1.7-7.5,5.2c-.4,4,4.9-1.1,6.8-1.1.1,16.4-10.1,9.1-2.3,16.9-3.9,2.4-1.8,9-2.9,12.8-4,2.1-4.8,7.5-.9,6.3,1.2-1.2-2.5-3.6,1.9-3.7,4.3,7.7-5,4.7-5.7,5.2s4.4,7.3-2.2,5.2c5,1,1.8,13.5-.7,11.6-1.3,3.1,3.5.7,2.3,3.7s-2.7,1.3-3,2.3c2.6,1,.7,10.1-3,9.4,3.1,9.9-6.7,14.9-1.6,27l-1.5-4.5c-5.8,1.5-2.6,3.9-3.3,6.2-1.7,6.1-4.3,6.6,2.5,10.2l-4.5-1.2c-.7,1.9-5.7,9.4-4.5,10.9s4.1-2.1,2.2,3c-6.9-5.8-2,2.6-2.3,3-2-.6-5,8.4-3,9-2.6-.2-5.7,1.4-3,4.5-.4,1.5-5.5-.4,0,2.2-4.2-.6-1,1.9-1.5,3-4.2,0-2,4.3-3,7.5l-1.5-3c-2.4,4.3-.1,9.4-3.7,10.8,4.1.2-1.3,10.3-3,4.9,2.7,5.4-1.9,5.7-2.3,6.5-2.7,5.8,8.1,6.3,0,8.5l-.4-3c-2.2,2.8-5,6,.4,4.9-7.4,4.6-5.4,7.3-8.7,14.6-2.4,6.6-2.5,2.1-2.6,2.3,1.8,2.9-9.6,16.5-12.1,23.9h-3.6c-.7,2.5,1.6.9,1.5,2.4s-2.5-.7-2.2.7l2.2.7c-5.7,2.3-10.6,20-14.9,16.5-.2.3.4,2.8-.4,3.8-7,3.3-6.7,12.4-14.6,12.7,2.6,9.6-4.1,4.8-4.5,5.2-.7,4-4.9,10-9,9.4,5.2.7.2,7.4-3,6.3-2-1.1,8.1-5.5.5-5.1-2.4,6-7.2,4.1-2,8.9-4.2.3-3.8,1.6-4.5,5.3-3.4.8,1.1-3.9-2.2-3-5.1,3.8-6.9,6.3-12.7,10.5,3.1,2,1.5,6-1.9,2.2-1.1.1-1.6,2.9-5.6.8l4.8,1.5.4,3c-9.4-7.4-2.3,6-9,1.5-.9,5.6.3-2.5-3.4,3-6.9-2.3,0,2.2-6.3,1.6,6,4.4,2.1,7.9-1.5,2.2,2.1,7.5-6.2,3.2-5.3,9l-2.2-2.2-.8,4.5c-2.4.8-1.2-2.2-1.5-2.3-1.2-.4-3.9,4.1-.7,5.2l-7.5-.7c4.3,3-3.7,5.2-4.8,6s-3.2,7.3-5.3,1.5c-5.4,11.7-15.1,3-20.7,15-6.7-2-10.2,5.9-15.5,8.4-1.4,1.3,1.8,3.9-3.8,2.9l1.5-3c-6.8,1-8.3,4.7-14.3,5.6-1.9,4.7-4.4,2.7-8.3,4.1-1.4,1.1,3.7,3.5-.4,5.2s-1.7-4.4-3.4-3.7v3.7c-3.3-5.3-16.7,6.9-23.3,3.8-3.3,4.2-4.4,9.1-7.9,2.3-10.3,5.4,6.4,8.3-9.4,9l2.2-3.3c-4.6-2.8-9.2,1.1-7.5,6.4-.9-6.2-5.4-1.2-8.6-.7s-.5-4.1-3.7.5c-6.7-4.4-21.6,16-17.6,3.2-1.9-.5-6,4.4-6.4,4.5-4.2-6.1-7.3,3.1-13.1,1.6,2.6,9.4-.4-1.3-3,4.5-.6-11.5-8.1,3.2-12-3,0,6-18.8,2-18.5,7.5-2.3.7-2.3-2.3-2.9-2.3-2.4,5.8-6.5-1.7-7.1,2.9l-1.1-3c-.5,5-12,1.4-10.2,5.9-1.1.5-3.1-3-3.7-1.5s3.4,3.2-1.9,4.4c-10.9,1.5,9-8.8-14.3-1.5-1.5-3.1-28.4,3.2-20.6,4.5-3.6-4.4-7.5-2.3-13.5-3,1.3,11.5-4.7-3.3-7.9,2.3l1.9,2.2h-2.5l-1.6-4.5-3.4.7,1.5,2.2c-3.2,0-9,3.4-3.7-1.9-3-1.1-4.5.5-3,3.4l-3-2.2c-1,4.9-8.8,5.5-4.6-1.5-6.6.9,1.5,10.9-12.4,1.5l1.1,3.7c-5.7.9-8.1-2.4-14.2,0l3-3c-5.6-2-4.5,3.4-5.6,3.8-3.3.9-2.9-3-.4-4.5l-10,4.5c-.9-2.9-9.7,2.3-9.5-3.8-1.2,3.6-13.7,1.7-9.8,0-3,4.5-7.2-5-11.9,1.5-1.3-1.5.9-3.6-1.9-3.7s2.9,4-3.6,4.2c-4.1-7.4-12.3.5-15.9-5-4.9,6.9-2.9-4.3-11.6.4-7.5,3.2,0,5.1-5.6-.4-2.9,7.2-2.4-2.5-15.3-.7-.4.3.1,4.7-5.3,3,2.2-1.6,4.1-1.7,3.7-5.2l-6.7,3c2.3-5.7-13.8-4.9-9,.7-.2.1-4.3.2-4.5,0,5.8-10-21.7-3.9-27.4-8.2l-2.2,2.2-1.1-4.5c-4.1-1.4-4,3.6-6.4,3s-1.4-5.5-3.4-3.8,1.5,7.3-6.8,5.2c4.5-5.7-4-6.4-9-4.5l-.7-3.7c-.9,8.6-2.7,1.7-3.1,1.6-11.9,1.3,1.3-4.3-11.5-3.1l-.5,3.7-2.6-4.5-1.9.4c2.9,10.8-15-.8-1.9,1.7l1.2-2.1c-3.4-2-9.3,2-8.2-3.8-4.4,3.9-16.8-6.2-17.9,0-3.9-8.1-16.3-5.9-23.5-8.2-4.7-1.5-.5-2.4-1.2-2.7-2.7-1-6.9-1.9-9.8-1.9l1.5-2.2-5.2.7,1.5-3c-2.6-1.6-2.3,3.1-3,2.2s0-2.3-.8-2.6-1.5,3.5-4.1-2.6c.9,7.5-25.6-5.1-7.9-9-5-2.6-8.1,5.3-8.6,5.2-2-6-10.9-6.2-13-4.5-.7-5.5-11.8-4.2-13.2-9.7-.3.1-1.5,3.6-3.3,2.2-1.1-3.7-3.9-5.4-7.4-5.3-1.2-.6,0-4.8-5.3-2.1l1.5-2.2c-12.2,3.3-6.6-8.3-14.2-6-1.1-1.1,2.6-5.3-3.7-3l1.5-1.5c-6.9,1.5-7.9-4.1-8.4-4.4-2.6-1.2-8.7-2.1-6.6-6.1-1.8,1.5-8.4-1.2-6-4.5-3.2,1.2-4.1.1-5.8-2.9-2.1-.9-7.1,3.1-3.3-4.6-4.2,2.9-6.3-2.9-6.8-3-2.4-.7-1.2,2.1-1.5,2.2-4.5,1.5-2-4.5-2.2-5.2s-3,.8-2.3-5.2c-4.4,4.3-8.9-11.5-13.5-6.8l-.8-7.5c-5.8,6-7,3.6-3.7-1.8,0-.4-5.6-7.4-7.5-4.9,2.4-5.8-2.1-4.9-2.3-5.3,3.3-5.4-7.9-2.9-3.8-11.2l-2.6,1.5-1.1-4.5-5.2,1.5c0-3.4,7-1.1,1.7-5.2s-2.3.9-2.5.7c-.8-.9.9-4.3.7-4.5-5,.9-4.4-5.2-3.7-6-1-1.7-2.7,1.9-3,1.5-.3-.9-1.4-6-3.7-4.5,3.8-2.8-4-7-4.5-13-3.7-3.2-4.7.2-3.1-4.2-1.6.2-4.4-4.3-2.1-5.3-8.2.4,0-6.8-9.8-7.1,8.8-1.1-5.1-10.1-.8-11.3-.4-.9-2.1-.2-2.3-.4-.3-.7,2.9-1.2,1.5-3-5-1-1.4-6.2-6.7-7.2-1.6-2.9,3.6-3.3-.3-5.5l-1.1,1.5-2.3-6.4,3-1.9c-5.4.4,1.7-5.2-6.6-3.8,2.2-8.7-2.2-11.7-6.1-9.6.7-4.1,5.2-14.3-4.5-9.4,10.5-5.3,3.3-5.8,1.6-9.7s1.7-1.1.9-2.4c-1.4-2.6-6.1-4.2-4.2-6.3s3.7,1.3,2.4-5.1-1.8-.2-2.1-2c2.6-6.9-9.3-14.4-.8-17.6-7.9-.5-1.5-18.1-8.3-22.2,0-5.6,5.5-7.7.8-9.8-.2-2.8,2.1-5.8-.8-6,0-1.7,1.6-4.1,1.5-4.4,0-.7-1.3.7-1.5-1.8s1.6.7,1.5-1.1c-6.5-8.3,3.7-3.6-2.9-10.4-1-1.8,5.3-14.7-.3-11.8-.4-2.9,6.1-5.1-2.2-5.6,7-.8,4.2-8.2,3.7-11.9.1-3.1,1.5,0,1.6-.8-4.4-4.6,2.6-19.6-3-24.8,6.6-.4-2.3-8.6,7.5-7.1-4.2-3.7-7.5-5-2.8-10.3s4.3,1.7,2-4l-2.2,1.5c-.7-4.9,8.3-4.4.7-6.4-.8-2.6,2.5-9.6,2.8-12.1s-4-3.8.3-8.3,4.8,2.3-.9-3.9h3c-5-4.5.5-3.1,1.2-7.9s-2-2-2-2.2c4.1-5.1,3.6-8.9,3.9-15.6.7-3.5,1.9-1.2,2.1-1.6,1.2-3.1-3.4-.6-2.3-3.7,6.8-7.1-1-5.4,5.1-9.1-2.7-6.9,9.1-23.7,3.9-24.7,4.5-.6-1.1-7.3,4.5-2.6-1.9-5.1,6.8-17.9,2.9-19,5.9-1.4-.4-9.8,7.6-7.2-3.4-3.6-2.4-4.8-2.2-9.7l3,3c-.9-3.9.9-9.6,4.4-9.8.5-1.9-3.3-4.5,0-5.9-5-5.1-2.2.2,3.8-7,4.5-6,2.2-.4,2.3-.5.8-1.6-2.1-2.2-2.1-2.3,2.5-9.5,7.5-14.4,10.5-24.2,2.6-6.7,3.8.3.7-4.2l3.7.7c-3.3-6.5,2.5-7.5,3.4-9,1.4-2.4-1.5-6.9,4.8-6.8-6-2.6,2.8-3.6,1.5-8.2l1.5,1.5-.7-3.7,4.5-.4-3.8-2.2c2.8-3.3,6.8-6.1,5.2-10.1,4.3,1,4.5.2,2.2-3,2,.3,5.8-6,4.5-7.5,1.4-.2,5.6,3.7,2.9-.7.3-.3,2.9.6,2.8-2-.2-4.2-4.7-.3,2.7-7.5s1.7.6,2,.2c0-3.9.3-3.9,3.1-6,.5-2.5-3.7.4-3-2.6,8.3.6,6.2-15.3,12.7-12.8,1-.7-2.5-.4-1.5-2.2,2.8-3.6,8.2-4.2,5.2-8.3.2-.3,4.2,1.1,3.8-3.7l2.2,2.2c-1-2.8,3.4-9.9,6.7-9.8l-1.5-1.5c2.9-.4,4-6.5,4.9-7.5,2.6-2.8,10.3-2.9,8-5.3-7.3-2.5.6-3.7,1.2-1.5.2-.2-.4-2.6.4-3.7,5.6-5,7-10.4,13.7-13.6.5-6.3,9-15.5,14.3-15.9,2.9-8.7,6.8-3.1,11.2-.4,3.2-3.7-5.6-4.2-6-4.5-3.9-3.3,7.8-7.8,8.2-8.3,1.4-1.9-2.9-5.6,3.8-3.7-3.8-1.1,4.7-10.1,5.3-10.5,1.1-.7,2.8,3.7,3.7,0s-2.4.4-1.5-1.5c1.8-3.6,4.8-.1,5.2-.8-1.3-6.1,5.5-3.4,3.7-8,2.1-1.9,11.1-3,4.6-5.6,7.4-.7,3.9-2.7,4.7-3.6,2.8-3.5,8.8-.4,5.8-4.6,3.7,1.2,5.1-8.5,9.4-6.6,4.1-8.1,1.8-4.1,7.8-8.3l1.1,3c1.3-7.4,7.3-6.3,9.4-8.2-3.3-6.5,10.8-2.3,12.5-14.4,3.4-2.5,16.9-1.6,10.1-5.9,5.9,1.3,2.4-7.1,7.5-4.5-3-4.3,4.6-1.2,6-2.2-2.3-3.5,2.5-8.6,6-3.7,0-8.5,9.1-6.5,14.9-9.1s.5-4.5,5.4-2.9l-1.5-1.5,7.5,1.5c10-12.2,31.2-13.6,48.9-22.3,12.1-6,1.6.8,2.1.5.2-4.7.5-2.1,4.3-1,6.4-4.9,17.2-3.2,16.8-9.5,4.4,11.6,8.5-6,3.8-.4,1.8-2,5.2-6.3,6.7-2.6,1.2-.2.5-3.4,4-2.2,5.2,5.8,5.2,4.2,10.7.6,5.7,2.5,6.7-3.3,11.5.7-.6-2.6,1.4-1.8,2.9-3.3.7-1.2-1.9-5.8,2.2-2.4s.5,2.5,2.1,3.5.9-1.7,1.5-1.5,1.3,6.5,2.6-1.5l2.2,1.5c.9-4.8,4.4-1.1,3.8.7-2.2,2.8-5.6,0-5.7,3.9-5.4,2.6-6-.2-6.3,0-1.8,4.9-8.5,4.7,0,12.8-4.8-1.4-12.4,7.4-10.5,1.5h-2.2c1.5,5.8-6.5,4.3-7,4.5-7.1,3.3-8,9-13.6,3.7-6.6,11.4-11.9,3-15.4,11.7-5.9-.4-13,8.7-18.1,7.1-.4.3,1.1,1.9.8,2.2-2.3,2.3-3.8-3.3-5.3-1.5s.5,3.6,0,4.4c-7.4-1.8-14.7,14.6-20.6,6.1-2.7.5,3.8,7.3-2.6,5.2l1.5,2.2c-6.6,1-2.9,5.5-9-1.5,2.3,8.3-11.7,1.1-3.8,9.7-5.6-1.1-2.8,2.1-4.2,3.1-4.2,2.8-8.2.7-7,5.9-2.3-5.3-1.4.7-2.2,1.2-9-1.6.3,5.8-11.3,1.1,5.9,6.5-12.2,12-16.5,20.7-4.9-1-2.3,1.3-3,1.8-3.3-1.3-1.8,0-3.2,2.7-1.5,1.4-4.1,1.6-4.3,1.7,1.9,5-9.4,5.4-9.8,6,3.8,8-13.3,7-15,18.7-.4-5.5-5.4,3.8-6.9,5-3.4,1.9-10.9,3.9-9.1,9.3-2.3,2.1-8,.4-3.4,3.7-3.6,1.1-4.6,2.2-6.2,5.8-1.2,1.2-4.9-.8-2.8,4l-3-2.2-.8,3.7c8.6-1.4-.4,3.8-2.2.8.1,1.3-.8,6.8-3.8,4.5.8,4.3-1.1,5.4-5.7,6.3-1.7,1.4-1,4.2-4,3.5,6.2,1-5.6,7.6-7.1,9s.5,5.1-4.9,3.8l2.2,2.2c-8.6,8.9-18.2,16.8-22.5,28.6-5.1-1.5-5,9.2-9.7,9.5.3,2.9,1,6.6-3,7.4-1.3,4.1-2.5,6.2-6.1,4.8-.3.5,2.7,6.4,0,5.2s.9-3.5-2.2-2.2,1.7,14.3-3.8,4.5l1.5,4.9c-7.5,1.2-4.1,4.8-6.8,9.2-7.6,1.7-3,5-6.6,7.3-.2.7,2.2,1.7,1.5,3.4-3.2,1.1-5.4,3.4-3.8,6.7-2.1-3.6-6.3,2.9-4.8,4.6-8.7,16.5-20.7,27.9-20.7,44.9-4.7-3.7-6.5,4.8-2.3,2.3-3.6,4.3-7.6,13.5-8.3,19.4-5.6,3.4-5.9,12.8-6.7,17.3-.6,1.1-4.3-2.9-2.3,5.6s2.6-.4,2.3,1.2c-4.8-.8.2,5.5-4.5,3,2.6,5.7-5-1.9-1.7,5.4-1.6,3.5-4.5,6.7-2.1,9.9-.3,1.4-4.6.8-.8,3.4-6.4-1.8-2.5,6.7-5.3,11.3l-1.5-.8c-.5,5.1-6.3,15.6-2.2,19.1-.5,2-2-.5-2.7,1.8-1,4.5,2.5,7.2-2.3,7.6-.6.9-.5,8.5-3.3,7.5-.4.9,5.2,5.9.7,5.7,2.3,10.5-2.1.9,0,11.7-1.2,2.9-2.7,1-2.9,1.2-1.4,1.4,1.6,1.5,1.5,1.9-3.3,3.3-.9,7.1,0,10.1-10.3-.2,8,7.8-3,7.9,3.5,2.9,4.5,1,3,6.4-6.9-4.5-4.5,5.1.8,4.5-2.6,4-6.2-2.8-3,4-7.4,2.7,7.9,18.2-1.9,8.7l-.4,3h-1.9l-1.5-3.8c-2.2,4.6,2.3,5.7,4.1,5.2.3,1.6-1,5.1,2.2,3.7-1.4,2.2-.2,1.2,1.5,1.5-4.3,4.8,2.9,18-3.8,7.5l.7,7.5-6-2.2c-1.2,7.7,7.5,61.4,1.6,52.8,4.5,4.1,1.2,1.8,0,4.9l3.7,1.1-2.2,1.9,3,1.5-3,1.5,3.7,2c0,4.7-4.7-1-.4,4.8s1.2,5.9,4.1,3-1.7-7.8,6-.4l-3,1.1,1.5,2.2c-6.1.2-2.7-1.7-3.8-3-3.6-2.3-11.2,10.1-2.7,5.4,6.7,2.4-11.6,3.7.5,5.1-5,7.3,6.5,5.4.8,10.5l3.7.8c.2.4-6.5,6.4,1.5,5.2-4.8,3.4-2.6,10,2.3,6,2.3,1.4-3,15.2,2.3,11.2l-.7-2.2,2.2,1.9-3.7,3.8c7.3,3.7,2.1,6.2,2.2,6.7,1.2,2.3,5.1,1.5,1.4,3.1,2.2,7.5,4-.9,5,2.5,0,5.1,2.1,14.5,7.1,13.5,2.4,2.9-3.8,15.9,1,9,3.1.6,6.2,15.8,8.6,1.5-3.6.2-1.8,1.1-3.7,3,1.2-5.1-1.1-5.2-1.8-6.9-.4-3.6,1.5-4.4-2.3-5-3.3-10.1,3.2-6.7,4.5,1.5,1.3,2.5,4.6.4,3.4,7.4,3.5-1.4,2.6,9,6.7,5.2-3.3,5.1,4.1,3.9,4.5,10.5-3.4-.6,1.6,5.2.8,6s-4.1-4.1-3.7,3.7c2.9,1.6,7.6-7,6-.8,1,.5,3.3-.2,3.7,0,.6.5-3.3,5.3,3,1.5,1,2.4-6,5.9-1.5,9s.6-4.9,3-3.7,3.2,4.3,2.3,5.2c-8.6-2.5,5,12.2,0,.8,2.3-2.2,15.8,15,2.2,9.7.1,2.5,7.1,8.3,8.2,6-.7-3.3-3.3-5,2.2-5.2-.5,2.9,0,3.8,3,4.8.8,1.2-6.1,7.5.4,6.1s-4.2-2.5,2.6-5l4.5,9.7c-1.8-2.8-9.4-5.7-9-1.9.7,5.5,8.4-3,6,7.9l1.5-4.5c23.4-4.3-1.7,23.7,6,5.5,2.2-1.3,1.5.8,1.5,2.7,5.4-3.3-4.2-3.7-4.5-6.7v6.7l-5.2-3c2.2,4.4.2,5.4,0,9.7,2.9.5.2-3.4,3.4-3.8,4.9,0,.4,5.1,4.8,2.3-.9,7.9,2.3,2.1,4.1.7,1.7.6-6.2,16.8,6.4,11.6-8.8-1.7-3.9-2.7-4.5-9.4l3,4.5,1.9-2.3,4.9,2.3-3.7-6c4-1.8,9.2,4.3,9,7.5-.4,0-1.7-3.9-1.5.8l-5.2-1.5-.4,3-.4-3-2.9.8v2.1l5.9,3.1c-2.7,1.8-1.2,4.5-1.5,7.5l3-4.5,1.5,7.5.7-2.3c2.5,0,7.6.9,9.7,0,.1.6-1.8,4.1.7,3.4s-1.5-3.2,1.5-2.6l.8,4.5-6-1.5c-4.2,7.2,8.9,4.6,3,2.2,2.5,0,4.5,4.6,5.3,0,11.3,1.4,3.2,9.7,0,2.2v4.9l5.2-.4c.7,1.6-6.8,2.7-2.6,4.4s1.7-4.6,6.5-2.9.3,4.9,2.8,4.5c1.2-5.5,5.1-3.6.8.7l6,.4.8,1.9-3,.4c3.1,3.5,7.1,2.6,11.2,2.6-17.5-6.2,5.1-6.1,4.5,1.6,3.3.6.8-5.9,3.5-6,3.6.5,11.5,4,10.7,7.9,2.5,1.2,9.7-.5,9.2,4,.6.4,7.1.7,5.1,3.1s-11.1-4-12.7-2.3c1.9-8.7-11.1-2.5-7.6,2.2-.5,1.2-5.2,0-.6,2.6,6.7,3.6-.2-4.4,4.1-4.9,6.8-.8,6.7,15.4,12.4,11.3s-2.3-3-2.2-3.4,3.2-2.6,3.4-2.6c8.2,1.6,3,9.6,8.5,6,4.8-3.4-1.2-3.7,1.5-3l-.5,3c3.1,1.4,5.1,1.1,5,5.2l.3-4.5,2.7-.7c.6,6.2,1.1-3.7,6.1,6.7,1,.5,6.3-4.3,5.2,5.4,1.1-6.8,10.3-3.4,6.7.7h9.7l-.7,3.7c5-1.8,2.7,0,6.4.8s3.4-5,1.1,3c2.3-4.7,6.6,3.5,7.4-1.6-.4,4.5,5.9,1.9,6.3,1.5,5.7,7.4,7.1-1.9,13.1,0,.3,2.9.6,9.6,4.5,4.5,1.7.9,1.9,7.6,4.9-1.5,1.5,3.5,1.7,3.3,5.6,3l-2.2,2.2c8.7-4.5,11,7.1,15.3.8,5.2,6.2,18.7,2.3,24.1,7.5,6.2-1.6,16,3.4,24.8,3.1,5.8.7,0-1.7,1.4-1.6,4.3.5,15.2,0,15.4,5.3l.7-3.7c3.8,1.9,24.8-2.3,20.3,3,5.9-6.4,5.6,4.7,8.6-2.2,1.7-.2,1.3,1.9,2.4,2.3,3,.9,2.2-2.6,4-1.5s-.2,2.1,0,2.2c5.3-2.5.8-4.4,7.2,0,1.9-.3,3.6-6.4,1.1,2.3,5.2,1.8,1.8-4.6,4.1-4.5,3.9,3.4,8.6,3.9,14.2,1.8,6.7,3.5,1.6.1,11.3-.3,11.5,6.9,31.4-5.4,41.2,3.2,1.4-3.3,11.7-1.8,10.9-4.5.7,0,1,2.2,4.2,1.9,5,.3,18.4-4.4,19-.4,2.5-5.9,36.1.3,29.6-5.3.7,0,9.7,2.6,10.4,2.3,2.9-3.7,2.9-5.7,7.1-3.1,1.8-1.2-1.3-3.6,6.3-2.3s-.2,3.5,1.9,2.3.2-2.2,2-2.9c2.5-.3,12.6,1.6,11.5-3.9,2.6-.8,12,5,6.7-.7,1.9-1.1,11,.8,9-2.2,5.1,3.8,5.2-2.6,10.5.7-.9-6.5,12.1-3.3,5.3-1.5,2.9,1.6,2-2.2,2.2-2.2,3.4.6,7.5-3.5,11.6-1.6,4.8.1,10.1-6.5,14-4.5-.7-4.6,4.5-.8,8.7-2.2,3.9-3.1,2.4-3.1,7.3-2.5,4.5-4.8,4-1.5,7.3.1,3.4-3.8.8-6.3,5.2-3.7.4-5,8.2-3.2,11.6-4.6,2.3-5,8.2-4.3,12.9-6.5,4.2-3.2,5-4.3,7.1-1.6-.4-3.3,10.2-3,6.8-5.9,1.4-.9,2.6,3.3,4.4,2.2s1.5-4.2,1.7-4.3c6.3,1.7,9.8-10.3,14.9-4.7-.9-4.2,2.7-7,4.5-2.3,1.6-10,2.9-2.8,4.5-4.5.4-7.3,6.6-1.1,7.5-7.5l1.5,3c-2.2-8.2,8-.2,5.3-6,.6-.3,4.6,2.3,4.5-3,7.3,6.1,4.2-1.8,4.5-2.2,6.1-2.4,12.3-8.6,17.2-9.8-2-4,6.8-7.5,8.8-8.9.9,0,2.3,2.9,3.3,1.4s-2.9-4.6,3.8-3.8l-3-2.2c7.1-1.1,8.5-10.7,14.2-10.5-1.9-4.6,2-2.7,5.1-5.4,1.8-2.5-1.7-4.2-1.3-4.3,7.3,1.2,3.7-6.5,9-.7-2-5.3,1.9-5.7,2.1-6.1-.6-4.2,2.5-2.7,5.3-3.7-2.2-3.7,5.8-8.9,8.3-9-3.1-5-.4-1.7,1.1-3s-3.1-2-1.9-3.8c3.9.9,4.3-4.5,7.2-6.7,1.4-.4,2.6,2.6,4,.3-4.8-5,6.2-15,9.1-16.5-3-5.5,3.4-10.5,8.7-12.4-6.7-10.2,12.8-12.9,4.9-13.6-2.2-2.5,2.9-4.3,4.4-8.5,1.3-11.6.3-7.8,8.2-9.7-.6-3.5-4.9-1.6-2.2-7.9,5.3-.1,3.7-17,6-19,1.3-2.6,3.6-1.6,6.3-9.2.2-.7,4.2-1.5-.2-2.5l-1.5,2.2.8-4.5,2.2,1.5.7-2.6c-4.9-.3-1.8-.9-2.2-4.9l3,3c-1.9-5.5.9-14.4,4.5-6,.5-8.3-6.6,1.8-3.1-11s2.3-2.9,3-4.6c-1.9-10.5,9.2-1.7,4.7-8.1-4.7-4.1-3.5,0-3.7-.4s1.1-11.5,1.5-12,8.9,2.8,3.7-6c5.7,1.1-4.3-6.4,2.3-7.1.3-1.8-5.5-5.3,3-3.4-3-3,.6-7-4.5-6,2.3-2.9-.3-12.1,5.3-13.2.3-2-5.6-8.8,3.7-7.8-.8-4.3-3.5,3.7-4.5-7.8.4-3.6,5.7,4.3,4.4-2.5l-5.1-.5,1.5-70.1,3.7.4c-8.7-1.5,2.2-20.2-7.4-18.3l3-.7c-.3-5.2,3.2-9.9-3.7-10.1,0-.4,5.7.9,2.8-6.3s-2,0-2.1,0c7-6.6-3.3-6.7,3-13.5-8.6,2.1,0-12.3-6.7-12,2.1-1.2.9-8-2.3-6.8-.7-2.5.5-12-.2-15.9-4.3-13.7-8.9-27.5-9.6-38.3l-3.6-.9c4.4-11.2-2.8-9.4-3.1-10,4.5-5.4-13.6-12.3-3.8-15.4-9-3.9.7-8.9-6-11.2,0-.4,5.2-8.1-2.2-1.1-1.2-2.8,2.3-6.7,2.2-7.1-3.9-.9-9.1-25-11.2-15.4,3.8-.6,3,5,4.5,7.5-7-.3-6.5-23.1-12-18.7-5.2-18.5-20.9-39-36.6-54.1-6.4-7-.7-3.5-2.4-5.4s-2.6.7-3,.4c.3-7.2-13.2-8.2-10.5-16.5-4.7,1-6.9,2-7.6-2.9-3.3-2.8-1,2.9-5.3-5.2-.2-.4-2,0-2-.2,3.6-4.8-5.3-8.8-3.8-1.5-1.8-3.7-8.2-2.5-.8-6.4l-.8-1.8-6.6,2.2c-1-1.2-.6-13.5-3-6.8.4-6.1-2.4-2.6-4.5-4.8s-.3-6.7-3.6-4,2,7.4-1.2,6.6-9.9-9.2-11.6-9.8-5.3,4.7-1.5-1.5c-11.6,1.5-5.7-.9-7.5-3-7.6-.4-.3-3.6,2.3-4.5.5,2,1.6,9.5,6,6.7s-4-6.7-6-6.7c-4.6-9.7-2.8,10.5-10.8-4.5-5.3,3.6-6.2,1.2-3.4-2.5-.9-3-7.1-.3-4.5-4.2l-3,1.5c.8.3,3.6,3.5,4.5,4.5-6.5,2.1-3.5-2.7-8.6-3l-1.9,2.3c-1.5-5,1.9-5.1,6-3.7-.4-7.4-4.2-2-4.5-2.3.2-4.3-5.9-3.7-7.8-4.4-1.3-3.3-2.3-2.6-6.4-3.1,0-2.3,1.5-1.3,2.2-3-6.2.7-2.9,1.7-5.2-2.3-1.6,8.2-1.9,4.3,3,5.2l-.3-.8ZM539,362.8c-3.3.3-6.1,5.5-5.2,8.2l5.2-8.2ZM859.6,393.7c-2.1,0-3.3.3-2.8,2.8,2.2-4,1.4,1.9,3.4,2.2,4.4-1.8,2.6-2.8,6,.8,2.7-4.3,11,3.2,13.9.7,2.2-3.1-4-2.9-4.4-3.1s0-2.1,0-2.1c-1.8-1.1-1.1,1.6-2.6,1.6-2.7-.4-4.5-3.5-4.1,0-1.3-5.3-8.5.4-9.2-2.8h-.2ZM883.8,395.1c-4,.8-3,5.2-1.5,7.5,5.6-5.6,3.6.4,8.8,1.5s11.3,1.1,9.1-2.9-18.4.6-16.4-6.1h0ZM494.8,401.1c-1.8-1.9-6.8,0-6,2.6s7-1.5,6-2.6ZM482,408.6c-1.1-.6-5,1.6-6.6,1.5v4.4c2.6.7.9-2.7,1.4-3s11.1.2,5.2-3h0ZM962.4,410.2c-1.3-.8-3-.9-4.3-1.7l1.5,4.5,2.2-2.2c-1,1.1,2.7,6.7,3.7,6,5.8-12.2-3.5,1.9-3.2-6.6h0ZM975.5,416.5c-7.1-2.6,7.3,9.2,8,8.6-.2-7.4,2.9,1.1,6.7-.7-1.5-5.9-11.2-3.3-14.7-7.9h0ZM446,446.8c-8.6-.4-5.3,2.2-6,3s-3.3-.2-3,1.9c2.8,2.8,7.6.2,5.9-3.4.2-.4,3.7,1.2,3-1.5h.1ZM413.6,480.4c0-.3-.5-6.1-1.3-6.6,1.5,7.7-1.9,4.3-4.5,9,1.4,1.1,5.7-1.8,5.8-2.4ZM406.6,483.9l-1-1.2c-.8,9.4-5.7,3.9-4.5,7.5,3.5,4.5,4-4.8,7.5-3.7l-1.9-2.6h-.1ZM391.5,502.1c.5.3,3.9,1,4.3.6,1.3-9.4-.6-2.9-1.5-1.9-1.8-1.1-6.5-3.3-2.8,1.3ZM390.6,509c-1.9-3.3-2.1,2.8-2.3,2.9-2.7,1.6-9.5-.8-5.2,5.3-9.9-3-2.1,5.6.7,1.4s-.4-4.2.2-5.1,8.6-1.3,6.7-4.6h-.1ZM368.8,535.2l-4.9,1.5-.3,8.2c4.6-4.2,1.1-2.5,1.5-3.7,5.9,0-2.2-3.9,3.8-6h-.1ZM1208.4,569.7l-5.2,2.2v2.2l5.3-.3v-4.1h-.1ZM339.6,584.7c-.2-.2-5.1.6-5.2.8-3.2,3.5,9.4,2.8,5.2-.8ZM327,601.8c-.1,0-.2-1-.1-1.4-1.5,2.4-4.4,6.4-2.2,9,.6-4.6,2.9-2.1,3.8-3.5,3.3-5-.4-3.9-1.5-4.1ZM309.6,643.2l-6,1.9,3,.4-2.2,8.2c1.9,0,5.7-10.1,5.2-10.5h0ZM277.4,721.9c3,.6,4-1.3,5.1-3.6l-1.7-3.9c-2.3,3.2,1.3,4.8-3.4,7.5ZM1206.1,728.6c1.3-4.4-.3-9.4-3.5-3.4l3.5,3.4ZM1243.6,727.9c-.3-.3-2.9,0-3.7,0,3.4,9.4,4.9,6.2,3.7,0ZM277.4,746.6l-2.2-8.2c.8,4.3-1.9,3.4-3,6l5.2,2.2ZM271.1,754.2l-.5,3.3,4.5-.8-4-2.5ZM267,787c-.6-.5,0-2.8-1.6-2.9l-.7,7.5.7-3c8.5-1.1,2.5-.8,1.6-1.6ZM268.4,802.9l-5.2,1.2c-3,20.5,11-.2.8,1.4l4.5-2.6h0ZM263.1,824.6c-1.2-1-5.4,4.5-5.3,4.9,5,.6-.3,7.9,5.5,7.9,4.3-.9-1.1-4.4-1.1-4.9,0-.8,2.7-6.3.8-7.9h.1ZM1248.1,851.6c-7.7-2.2-1,3.8-3.7,9l3.7-9ZM264.4,881c-9.3-7.8-2.3,13-2,1.4.8-.6,9.1,4.8,2-1.4ZM272.1,958.8c6-1.9,1.8-8.8-.8-11.2l-1.5,6,2.2-1.5c.4,1.8-.5,5.2,0,6.7-3.9,3.1,4.8,0,0,6.7,2.9,1.1,5.9-1.1,7.5,1.5,1.2-4.6-2.5-2.4-2.9-3.1.2-4.8-1.8-3.3-4.5-5.2h0ZM279.1,972.9c0-1.4,1-2.9.5-4.4l-3.7,4.1,4.1,2.6c1.7-1.8-.9-2.2-.9-2.4h0ZM338.8,1012c-2.7-.7,3,12.9,3.5,13.5,6.2,8.4.2-7.8-2-9.4l3-1.8c-3.5.8-4.2-2.2-4.5-2.3ZM302.1,1022.5c-5.2,1.1.4,3.9,0,6.7-7.6-3.6.4,1.3.6,1.7.6,1,2.1,10.8,5.3,5.7s-7.4-9.4-5.9-14.2h0ZM357.6,1039c-6.3,1.8-3.7-11.9-11.2-7.9,4,4.8,9.9,10.1,11.2,15.8,9-.9-5.4-5.1,3-4.9-2.7-3.2-.9-2.5,0-5.2-4.1-1.1-2.8,2.2-3,2.3h0ZM311.8,1041.2c-10.2,2.3-1.2,5.8,0,4.5s-.2-3.6,0-4.5ZM364.5,1051.5c-.9-1.6.2-3.2-2.9-4.3l-3.3,3.4,1.9,1.1,1.1-1.5c-4.3,5.7,11.3,4.8,3.3,1.2h-.1ZM369.6,1060.7c-5.4,1.2,5.3,10.6,7.5,9-2.1-3.1-5.2-3.4-2.2-7.5l-5.2,1.5v-3h0ZM348.2,1066c-2.7,3.3.9,10,1.8,1.9l-1.9-1.9h0ZM340.3,1080.2c.5-8.6-8.5-3-5.4-.9s4,.3,5.4.9ZM344.8,1084.7c-1.6-1.7-5.9,1.6-7.5,3,3.7-1.5,7.3,3.9,8.2,3,2.6-2.4-4.5-2.5-.7-6ZM356.8,1101.2l-5.2,1.1,2.3,4.1h2.2l.8-5.2h0ZM366.4,1116.8c2-1.1,1.8-5.4-.9-5s-4.7,8,.9,5ZM384.6,1129.7c.2-.3-.1-2.9,0-3.7l-5.2,2.7v4.8l4.5-1.5c.6-3-2.1.3-2.6-1.5-.7-2.5,3.2-.6,3.4-.8h0ZM458.6,1129.9c-1-1.5-5.7-1.8-6.5-1-.4,2.9,10.9,9.2,6.6,1h-.1ZM390.4,1132.1l-5.1-.2,4.5,1.5c-3.7,9.8,4.8.6.6-1.3ZM415.9,1148.6c-8.9,2.1-1.4,1.9-1,2.1,1,.8,1.7,4.8,4.2,4.5l-3.1-6.6h-.1ZM425,1153c-2.8-.4-1.7,8.4,2.2,5.2l-2.3-5.2h0ZM434,1158.2l-6-.8c-3.1,8.9,8.3,3.4,6,.8ZM449.6,1168.1c-1.6-.3-2.7.5-4.3.5,2.1,2.1,3.8,1.3,3.8,5.1l8.2-1.4c-2.4.3-6.6-4.1-7.7-4.3h0ZM462.2,1173.5c-1.4-.6-2.8-1.7-4.5-.4-4,3.1,5.2.4,1.8,3.8,1.4-1.2,10.8,0,2.7-3.4ZM674.7,1220.4c1.3,1.9,8.2-.9,6-3s-7.3,1.1-6,3Z"/><path d="M304.3,877.8c-6.3-2,3.4-5.4-4.4-9.8,2.6.9,7.7-3.9,8.2.7l-2.2-.4c-.3,2.1,1.6,11-1.5,9.4,3.2,5.5.2,9.6,4.9,10.5-1.1,14.3-5.9,3.8-8-1.8-.2-2.7,2.1,1.4,3,.4,1.2-1.2-5.8-11.1,0-9Z"/><path d="M682.8,316.4c-.8,6.1,8.7-.9,5.2,5.9-2.9,3.9-4.4-5.4-6.6,1.6h2.6v1.5c-9.7,3.3-4.6,0-5.9-1.5-2.2-2.5-7.9-1,.3-6v4.5h2.3v-6h2.2,0Z"/><path d="M307.5,899.4c.3.3,1.5-.7,2.1.5l-1.5.7c3.9,1.3-3.2,4.8,4.5,3.4-.1,5.7,2.5,10.9-5.2,5.6-.4-1.9,3.4-.9,1.5-4.1-7.7,4.7-2-3.9-2.3-4.8-6.1-1.8-.5-7.5,1-1.4h-.1Z"/><path d="M328.1,967.9l-2,5.1,3.4-.8c-1.4,2.2,2.2,8.7,1.9,9-4.7,4.3-11-21.1-6.7-13.5l.4-3.7,3.2,3.9h-.2Z"/><path d="M751.1,301.3c-3.4.6-11.3-1.4-12,3-1.2.4-.1-2.5-2.2-1.5s-1.1,8.5-7.5-1.1c9.6,2.7,2-6,10.2-.4.7-2.6,2-.5,5.1-.7,1.8-.1,2.9-5,6.5.7h-.1Z"/><path d="M437.5,1103c6.1,4.5,16.6,15,24.2,17.7-3.3-1.6-13.2,2-9.8-3.8-2.5.6-3.1-2.9-3.9-4.3-1.1-1-8.8-3.8-9.4-4.2s-1.4-4.1-1.7-4.3c-4.9,6.2-8.7-2.1.6-1.3v.2Z"/><path d="M706.9,311.1l-5.2,4.5,4.5,3c-5.1-1.7-4.6-.6-6,3.7-6.1-8.5-.4-4,0-4.5,1-1.2-1.7-6.1,6.7-6.7Z"/><path d="M802.1,306.6v3.7l2.2-3,.8,3.7-10.5.7c-.5-5.8,3.7-2.6,7.5-5.2h0Z"/><path d="M1260.9,790.1c-2.2,2.3,1.1,5.8.4,7.1-3.2,6.6-8.8-7.2-.4-7.1Z"/><path d="M1261.6,749.7c3.3,2.7-3.4,7.7,0,7.8l-2.6,1.1-1.9-7.8,4.5-1.1Z"/><path d="M304.3,851.6c-3.9,2,4.2,4-3,4.5-1,1.6,1.4,1.5,1.4,1.8-.6,8.6-8.8-8.6,1.6-6.3Z"/><path d="M318,943c3-1.2,4.1,8.1,4.3,9.1-3.9,3-3.1-12.9-8.2-12.4l3.7-1.9c.3,1.5-.4,3.8.1,5.2h0Z"/><path d="M1222.5,591.6c1.6,1.7,1.9,8-2.8,2.8l-.7,2.2c-6.1-3.9-1.9-7.6,3.6-5.1h-.1Z"/><path d="M710.9,306.3l6.5,1.4c0,3.8-13,6-9,3s3.4-.2,3.8-1.5-3.5-1.7-2.2-4.1l1,1.2h0Z"/><path d="M399.5,1072c-1.3,6.8,6.5,1.7,3,8.2-3.7,4.3-1.7-7.3-6.7-3-.8-4,1.7-1,2.2-1.5s-2.6-5.8,1.5-3.7Z"/><path d="M725,312.5c0,.3,1.8-.4,1.4.8-3.1-2.6-5.9,3.6-7.5,2.3-3.1-2.7,6.7-4.6,5.3-7.5,2.6,1,.8,2.8.8,4.4Z"/><path d="M1237,637.1c8.7,3-4.2,13.2.6.8-2.4,1-3.3.3-3-2.2l1.5,1.5v-3.7c1.6,0,.3,2.6.9,3.7h0Z"/><path d="M800.6,400.3c0-3.5,14.9-1.9,15-1.1l-15,1.1Z"/><path d="M464.8,488v2.2c-4.1-1.1-2.8,2.1-3,2.2-7.2,2.4-3.9-6.1,3-4.4h0Z"/><path d="M927.3,411.6v2.2l-7.5.7c-.2-4.1,4.4-3.4,7.5-3h0Z"/><polygon points="1260.9 802.8 1257.9 804 1260.1 805.1 1260.1 807.3 1255.6 806.6 1259 800.6 1260.9 802.8"/><path d="M302.1,847.8l2.2-2.2v4.5c-11.6,1.7-1.6-7.2-2.2-2.3Z"/><path d="M1261.4,744.2c0,.2-1.8,3.7-2.7,3.2-.3-2.1,1.1-4.9-1.5-5.6l3.8-.8c1.2,1,.5,2.1.4,3.2h0Z"/><path d="M1007.5,443.8c-1.2,1.7-3-2.1-3.5-2.2-1.7-.4-8.8,2.3-4-3.1-.8,3.7,10.5,1,7.5,5.3Z"/><path d="M810.4,311.8c-1.3-1.2,2-5.4,3.4-5.2,2.5.3,0,8.3-3.4,5.2Z"/><path d="M1042.6,1166.3c-.3.5-3.6.9-3.6,3.2-2.2-7.2,7.2-9.9,3.6-3.2Z"/><path d="M856.8,308.1v2.2c-9.7,2.3-10.5-2,0-2.2Z"/><polygon points="697.1 308.8 699.4 315.6 696.4 315.6 695.6 309.2 697.1 308.8"/><polygon points="726.4 307.4 721.9 302.9 726.8 302.8 726.4 307.4"/><path d="M751.1,403.3l.5-2.3c7.1-3.3,6.2,3.6-.5,2.3Z"/><path d="M1249.6,675.4l.8,7.5c-4,1.7-3.7-7.2-.8-7.5Z"/><path class="cls-1" d="M859.6,393.7c.8,3,9.6-2,9.2,2.8,2.2-2.6.9-.5,4.1,0,2.7,0,.8-2.6,2.6-1.6s-.3,2,0,2.1,6.6,0,4.4,3.1-10.3-2.2-10.9-2.3c-6.9,4.5-3.1-4.3-9,.8-1.9-.3-1.1-6.2-3.4-2.2-.6-2.5,1-3,3-2.7Z"/><path class="cls-1" d="M883.8,395.1c-2,6.7,15.2,3.9,16.4,6.1,2.2,4-6.5,3.4-9.1,2.9-5.2-1-3.2-7.1-8.8-1.5-1.5-2.3-2.5-6.7,1.5-7.5h0Z"/><path class="cls-1" d="M357.6,1039c.2,0-1.1-3.4,3-2.3-.9,2.7-2.7,2,0,5.2-8.5-.2,6,4.1-3,4.9-1.3-5.6-7.2-11-11.2-15.8,7.5-4,5,9.7,11.2,7.9h0Z"/><path class="cls-1" d="M975.5,416.5c4.7,4.9,12.6,1.7,14.7,7.9-5.3,2-6.9-6.6-6.7.7-.6.5-15.1-11.2-8-8.6h0Z"/><path class="cls-1" d="M302.1,1022.5c-1.4,4.7,8.3,10.5,5.9,14.2s-4.7-4.8-5.3-5.7-8.2-5.3-.6-1.7c.4-2.8-5.2-5.7,0-6.7h0Z"/><path class="cls-1" d="M263.1,824.6c1.8,1.6-.9,7-.8,7.9s4.5,4.2,1.1,4.9-2.7-5.4-2.9-6.1c-5.1-1.3,0-6.5,2.7-6.7h-.1Z"/><path class="cls-1" d="M338.8,1012c.3,0,1,3,4.5,2.3l-3,1.8c2.2,1.6,8.2,17.8,2,9.4s-6.2-14.2-3.5-13.5Z"/><path class="cls-1" d="M449.6,1168.1c1.1.2,5.3,4.6,7.7,4.3l-8.2,1.4c0-3.8-1.8-3.1-3.8-5.1,1.5,0,2.7-.8,4.3-.5h0Z"/><path class="cls-1" d="M272.1,958.8c-.5-1.5.4-4.9,0-6.7l-2.2,1.5,1.5-6c2.7,3.9,6.2,9.9.8,11.2,2.7,1.7,5.1.9,4.5,5.2.7,1,4.2-1.5,2.9,3.1-1.6-2.6-4.6-.4-7.5-1.5,4.8-6.7-3.9-3.6,0-6.7h0Z"/><path class="cls-1" d="M369.6,1060.7v3l5.2-1.5c-2.9,4.1.2,4.4,2.2,7.5-2.2,1.6-13-8-7.4-9Z"/><path class="cls-1" d="M364.5,1051.5c7.8,3.7-8.1,4.9-3.3-1.2l-1.1,1.5-1.9-1.1,3.3-3.4c3.1,1,2,2.6,2.9,4.3h.1Z"/><path class="cls-1" d="M390.6,509c-.3,6-9,1.6-6.9,9.7-2.7,4.2-10.5-4.4-.7-1.4-4.3-6.1,2.5-3.7,5.2-5.3s.4-6.3,2.3-2.9h.1Z"/><path class="cls-1" d="M268.4,802.9l-4.5,2.6c8.1,7.6-4,11.9-.8-1.4.1,0,5.2-1.2,5.3-1.2Z"/><path class="cls-1" d="M446,446.8c.7,2.7-2.7,1-3,1.5,1.5,4-3.2,6-5.9,3.4,6.2-3.8-1.4-4.4,9-4.9h-.1Z"/><path class="cls-1" d="M962.4,410.2c.5,8.1,8.6-5.5,3.2,6.6-1,.7-4.7-4.9-3.7-6l-2.2,2.2-1.5-4.5c1.3.8,3,.8,4.3,1.7h0Z"/><path class="cls-1" d="M344.8,1084.7c-3.8,3.4,3.3,3.6.7,6s-4.6-4.5-8.2-3c1.5-1.4,5.9-4.7,7.5-3Z"/><path class="cls-1" d="M309.6,643.2c.5.4-3.3,10.4-5.2,10.5l2.2-8.2-3-.4,6-1.9h0Z"/><path class="cls-1" d="M458.6,1129.9c3.2,8.7-6,1.2-6.6-1,.8-.8,5.6-.5,6.5,1h.1Z"/><path class="cls-1" d="M327,601.8c1,.2,4.7-.8,1.4,4.1s-3.2-1.1-3.8,3.5c-2.1-2.5.7-6.5,2.2-9,0,.4,0,1.5.2,1.4Z"/><path class="cls-1" d="M264.4,881c7.2,6.2-1.8,1-2.1,1.3-.2,11.7-7.2-9.2,2.1-1.3Z"/><path class="cls-1" d="M368.8,535.2c-5.8.4,2.2,9.4-3.8,6-.4,1.2,3.1-.4-1.5,3.7l.3-8.2c.1,0,4.9-1.6,5-1.5Z"/><path class="cls-1" d="M406.6,483.9l1.9,2.6c-3.5-1.1-4,8.2-7.5,3.7-3.4-6.4,3.7,3.6,4.5-7.5l1,1.2h.1Z"/><path class="cls-1" d="M539,362.8l-5.2,8.2c-.9-2.8,2-7.9,5.2-8.2Z"/><path class="cls-1" d="M482,408.6c5.9,3.2-4.8,2.7-5.2,3s1.2,3.7-1.5,3v-4.4c1.7,0,5.6-2.1,6.7-1.5h0Z"/><path class="cls-1" d="M434,1158.2c2.3,2.7-9.1,8.2-6-.8l6,.8Z"/><path class="cls-1" d="M340.3,1080.2c-1.4-.6-4.3,0-5.4-.9-3.1-2.1,5.9-7.7,5.4.9Z"/><path class="cls-1" d="M462.2,1173.5c8.1,3.5-1.2,2.2-2.7,3.4,3.4-3.4-5.8-.7-1.8-3.8s3.1-.2,4.5.4Z"/><path class="cls-1" d="M384.6,1129.7c-.2.2-4.1-1.8-3.4.8s3.2-1.5,2.6,1.5l-4.5,1.5v-4.8l5.2-2.7c-.1.9.2,3.4,0,3.7h0Z"/><path class="cls-1" d="M1248.1,851.6l-3.7,9c2.8-5.2-3.9-11.2,3.7-9Z"/><path class="cls-1" d="M391.5,502.1c-3.1-4.2,2-3.1,2.8-1.3.9-1,2.9-7.4,1.5,1.9-.5.4-3.9-.3-4.3-.6Z"/><path class="cls-1" d="M366.4,1116.8c-5.5,3-3-4.7-.9-5s2.9,3.9.9,5Z"/><path class="cls-1" d="M494.8,401.1c1,1.1-5.1,5.6-6,2.6s4.2-4.5,6-2.6Z"/><path class="cls-1" d="M415.9,1148.6l3.1,6.6c-2.5.3-3.2-3.7-4.2-4.5-1.2-.8-7.6-.1,1.1-2.1Z"/><path class="cls-1" d="M277.4,721.9c4.6-2.7,1.1-4.3,3.4-7.5l1.7,3.9c-1.1,2.3-2.1,4.2-5.1,3.6Z"/><polygon class="cls-1" points="356.8 1101.2 356.1 1106.5 353.9 1106.4 351.6 1102.3 356.8 1101.2"/><path class="cls-1" d="M390.4,1132.1c4.2,1.9-4.3,11.1-.6,1.3l-4.5-1.5,5.1.2Z"/><polygon class="cls-1" points="1208.4 569.7 1208.4 573.9 1203.2 574.2 1203.2 572 1208.4 569.7"/><path class="cls-1" d="M1206.1,728.6l-3.5-3.4c3.2-6.1,4.8-1.1,3.5,3.4Z"/><path class="cls-1" d="M413.6,480.4c-.2.6-4.4,3.5-5.8,2.4,2.6-4.7,6-1.3,4.5-9,.8.5,1.4,6.3,1.3,6.6Z"/><polygon class="cls-1" points="271.1 754.2 275.1 756.7 270.6 757.5 271.1 754.2"/><path class="cls-1" d="M311.8,1041.2c-.2.9.3,4.2,0,4.5-1.2,1.3-10.2-2.2,0-4.5Z"/><path class="cls-1" d="M277.4,746.6l-5.2-2.2c1.1-2.6,3.8-1.7,3-6l2.2,8.2Z"/><path class="cls-1" d="M1243.6,727.9c1.2,6.3-.3,9.4-3.7,0,.9.2,3.4-.3,3.7,0Z"/><path class="cls-1" d="M279.1,972.9c0,0,2.6.6.9,2.4l-4.1-2.6,3.7-4.1c.5,1.5-.6,3-.5,4.4h0Z"/><path class="cls-1" d="M339.6,584.7c4.2,3.6-8.4,4.3-5.2.8s5-.9,5.2-.8Z"/><path class="cls-1" d="M267,787c.9.8,6.9.5-1.6,1.6l-.7,3,.7-7.5c1.7,0,1,2.4,1.6,2.9Z"/><path class="cls-1" d="M348.2,1066l1.9,1.9c-.8,8.2-4.6,1.3-1.8-1.9h0Z"/><path class="cls-1" d="M425,1153l2.3,5.2c-3.9,3.2-5-5.6-2.2-5.2h0Z"/><path class="cls-1" d="M674.7,1220.4c-1.3-1.9,5.7-3.2,6-3,2.2,2.1-4.7,4.9-6,3Z"/><polygon class="cls-1" points="942.3 1008.3 877.4 1008.3 576.5 577.2 641.3 577.2 942.3 1008.3"/></g><g id="Inner-Shape"><path d="M984.3,545l-179,208.8,194.7,284.5h-142.8l-131.9-191.1-164.9,191.1h-41.6l187.4-219.3-187.4-274h142.8l125.2,181.4,155.9-181.4h41.6,0ZM942.3,1008.3l-301-431h-64.8l301,431h64.8Z"/></g></svg>