<?xml version="1.0" encoding="UTF-8"?><svg id="Layer_1" xmlns="http://www.w3.org/2000/svg" viewBox="0 0 148.1 140.3"><path id="pieceCircle" d="M109.7,123.4c35.1-13.2,35.1-68.5,11.2-91.7-22.8-15.3-35.1-12.6-60.2-12.4-5.4-8.6,12.4-11.1,18-11.3,87.3-3.5,97.3,124.8.8,131.9C23.3,144-17.9,108.5,7.8,51,35.1-10.4,53-.3,91.5,2c.8.3,0,1.8.5,2.1,1.9,1.7,7-1.2,8.1,2.4C48.8-2.3,8.2,41.9,10.2,90.1c2.6-1.3,1.4,4.7,2,7.1,8.8,34.2,70.5,42,96.8,26.2.4,1.5.7,0,.7,0h0Z" fill="#595b5c"/><g id="pieceIcon"><path d="M46.8,94.6c.8-3.6,5.7-4,7.9-5.6,4.5-3.3,8.6-17.6,7.1-22.7s-3.7-2-4.3-4.1.3-5.1,0-6.5-3.5-.9-4.9-4.2-2.6-11.9-1.8-13.4,8.2-1.2,9.6-.5c2.3,1.2.9,7.1,4.1,7.2s2.1-5.7,3.9-6.8c19.1-3.8,9.7,5.3,15.6,6.9,4.7,0-1.1-8.9,10.5-7.6,13.8.7-1,21.8-2.5,18.1-.6,5.9.9,6.9-4.7,11-1.4,4.8,2.2,18.8,6.1,22.2s8.9,2.6,8.9,6.8v13.1h-55.4c.6-4-.8-10.2,0-13.9h0ZM58.7,40.3c-.2-.2-5-.2-5.2,0-.5.5.5,11.3,4.8,12s32,.4,33.6-.2,3.6-9,3.5-10.8-5.8-1.4-6-1.1c-.4.4,1,7.7-5.6,7.6s-5.1-7-5.7-7.5-7.9-.3-8.2,0c-.5.5.7,7.7-5.6,7.5-6.3-.2-5.1-7-5.7-7.5h0ZM88.7,55.2h-28.5c0,2.1-.7,6.7,1.7,7.7,2.4,1,25,1,26.1-.8s1-6.6.7-7h0ZM58.7,89.7h31.5c-5.1-6.8-6.2-14.9-6.4-23.2h-19c1.1,9.2-2.9,17.5-6,23.3h0,0ZM49.8,95.3c-.7,2.5.5,8,0,10.9h49.5c-.6-4.8,2.3-12.1-4.3-13.3-4.3-.5-46.1-3.1-45.2,2.4h0Z" fill="#595b5c"/></g></svg>