<?xml version="1.0" encoding="UTF-8"?><svg id="Layer_1" xmlns="http://www.w3.org/2000/svg" viewBox="0 0 337.4 225.3"><defs><style>.cls-1{fill:#fff;}</style></defs><path d="M243.1.9c83.4-18.9,143.8,251.5,37.3,221.4-57.7-24.2-64.1-71.2-142.9-51.3-23.5,6.4-37.5,26.2-57.5,39.2C25.2,245.8-2.3,214.6.2,156.8,2.1,112.8,17.2,35.3,57.7,10.6c38.5-23.4,75.8,6.4,114.6,4.4,23.5-1.2,47.3-12.4,70.7-14h.1ZM87.1,13.7C14,7.5-34.1,277,76.2,198.2c18-12.2,30.3-28.8,51.1-36.6,26.2-9.8,66.8-9.3,91.4,4.7,22.7,12.9,83.9,80.7,101.8,27.2,12.1-36.1-6.2-120.4-27.5-152.3-38.1-57-89.2-6.4-140.1-15.1-21.5-3.7-43.5-13.6-65.9-12.4h0Z"/><path class="cls-1" d="M87.1,13.7c22.4-1.2,44.3,8.7,65.9,12.4,50.9,8.7,102-41.9,140.1,15.1,21.3,31.8,39.6,116.2,27.5,152.3-17.9,53.5-79.1-14.3-101.8-27.2-24.5-14-65.2-14.4-91.4-4.7-20.8,7.8-33.2,24.4-51.1,36.6C-34.2,276.9,14,7.4,87.1,13.7ZM258.6,57.5c-.1-26-39.7-26-39.8,0,.1,26,39.7,26,39.8,0ZM73.1,59.5c-.7,3.4.5,8.7,0,12.4h-11.6c-3.2,0-8.8,6-9.6,9.1-1.5,5.7-1.5,23.1,2.8,27.6,5.5,5.8,16.8,2.6,18.1,4.4-2.2,23.5,15,23.5,30.5,20.9,11.6-3.8,10.5-11.9,10.3-21.6,11.3.1,17.8,1.7,21.7-11.7,1.4-17.6.3-31.4-21.7-28.7.8-8.7-.2-19.2-10.5-21.4-15.8-2.3-24.2-2.1-30,9h0ZM223.7,92c-.1-26-39.7-26-39.8,0,.1,26,39.7,26,39.8,0ZM293.1,92c-.2-26.1-39.9-26.2-40,0,.1,26.2,39.9,26.2,40,0ZM258.6,126.7c-.4-26.2-39.6-26.2-40,0,.4,26.2,39.6,26.2,40,0Z"/><path d="M73.1,59.5c4.3-11.8,19.8-10,30-9,10.2,2.2,11.3,12.7,10.5,21.4,22-3,24.4,13.2,21.7,28.7-3.4,13.5-10.8,11.8-21.7,11.7.2,10.2,1.3,17.1-10.3,21.6-18.4,1-32.2,2.8-30.5-20.9-1.3-1.8-12.6,1.4-18.1-4.4-4.3-4.5-4.3-21.9-2.8-27.6,3.1-11.4,13.2-8.9,21.2-9.1.5-3.7-.7-8.9,0-12.4h0ZM101.5,79.7c-1.5-18.9,6.7-18.1-16.5-17.6v15.3c0,1.8-3.1,6.4-4.9,6.4h-16.9v16.5h16.1c2.3,0,5.6,4.4,5.6,6.4v15.3h16.5v-16.8c0-1,3.9-4.9,4.9-4.9h16.9c-.6-5.2,1.4-12-1.1-16.5h-15.8c-1,0-4.6-3-4.9-4.1h.1Z"/><path d="M293.1,92c-.2,26.1-39.9,26.2-40,0,.1-26.2,39.9-26.2,40,0ZM281,92c.1-10.1-15.7-10.1-15.6,0-.1,10.1,15.7,10.1,15.6,0Z"/><path d="M258.6,126.7c-.4,26.2-39.6,26.2-40,0,.4-26.2,39.6-26.2,40,0ZM246.4,126.7c.2-10.2-16-10.3-15.8,0-.2,10.3,16,10.3,15.8,0Z"/><path d="M223.7,92c-.1,26-39.7,26-39.8,0,.1-26,39.7-26,39.8,0ZM212,91.9c.1-10.3-15.9-10.3-15.8,0-.1,10.3,15.9,10.3,15.8,0Z"/><path d="M258.6,57.5c-.1,26-39.7,26-39.8,0,.1-26,39.7-26,39.8,0ZM246.6,57.5c.1-10.4-16.1-10.4-16,0-.1,10.4,16.1,10.4,16,0Z"/><path class="cls-1" d="M101.5,79.7c.3,1.1,3.8,4.1,4.9,4.1h15.8c2.5,4.5.5,11.3,1.1,16.5h-16.9c-1,0-4.9,3.9-4.9,4.9v16.8h-16.5v-15.3c0-2-3.3-6.4-5.6-6.4h-16.1v-16.5h16.9c1.8,0,4.9-4.6,4.9-6.4v-15.3c23.2-.5,14.9-1.2,16.5,17.6h-.1Z"/><path class="cls-1" d="M273.1,84.2c10.1-.1,10.1,15.7,0,15.6-10.1.1-10.1-15.7,0-15.6Z"/><path class="cls-1" d="M238.5,118.8c10.2-.1,10.3,16,0,15.8-10.2.1-10.2-16,0-15.8Z"/><path class="cls-1" d="M204.1,84c10.2-.1,10.3,16,0,15.8-10.2.1-10.2-16,0-15.8Z"/><path class="cls-1" d="M238.6,49.5c10.4-.2,10.4,16.2,0,16-10.4.2-10.4-16.2,0-16Z"/></svg>