<?xml version="1.0" encoding="UTF-8"?><svg id="Layer_1" xmlns="http://www.w3.org/2000/svg" viewBox="0 0 1518 1518"><defs><style>.cls-1{fill:#fff;}</style></defs><path class="cls-1" d="M1518,0v1518H0V0h1518ZM841.3,439.1c-27.3-186.6-15.7-128.4-239-137.8-61.5,6.3-47.2,80.5-57.4,124-5.3,26.9-.5,2.9-1.1,4.2,0,0-58.1,37.2-58.1,37.2-32-10-63.4-28.3-95.1-39-26.4-9.3-46.1.4-60.1,23.1-31.3,50.6-57.7,106.6-87.8,158.1-6.3,19-.8,40.7,13.4,54.5,0,0,76.5,60.7,76.5,60.7l1.1,2.6v66.6l-81,64.6c-17.5,18.6-17.5,37.6-6.1,59.4,26.9,51.2,60.1,100.6,87.5,151.6,9.7,16.1,31,24.1,49.1,20l100.9-41.6c20.6,9.1,39.8,21.3,60,31.4,9.5,31.8,9.9,68.6,17,101.4,6.3,31.4,20,35.3,41.4,37.4h180.7c20.8-2,38.6-15.6,45.9-35.1l17.4-103.8s56.8-31.9,56.8-31.9c34.4,9.3,67.8,30.3,102.1,41.5,18,5.2,39.4-1.9,50.1-17.4,103.6-198.9,153.2-164.6-2-277.4l.3-69.2c147.5-112.7,99.5-79.6-3.1-276.5-10.8-15.7-32.7-22.6-50.7-17.1,0,0-98.3,40.3-98.3,40.3-.3-.3-60.2-31.4-60.4-31.8Z"/><path d="M841.3,439.1l60.2,31.6s98.3-40.3,98.3-40.3c18-5.4,40,1.5,50.7,17.1,102.7,197.1,150.7,163.7,3.1,276.5l-.3,69.2c155.2,112.8,105.4,78.7,2,277.4-39.2,48.8-102.8-13.7-148.1-23.3-32.6-10.9-2.6-1.2-4.1-.8,0,0-56.8,31.9-56.8,31.9s-17.4,103.8-17.4,103.8c-7.2,19.5-25.1,33.1-45.9,35.1,0,0-180.7,0-180.7,0-60.3-7.1-41.8-91.9-56.8-134.4-7.1-31-.4-3.2-1.6-4.4-20.1-10.2-39.3-22.3-60-31.4l-100.9,41.6c-18,4.1-39.4-3.9-49.1-20-27.4-51-60.6-100.4-87.5-151.6-11.4-21.8-11.4-40.8,6.1-59.4l81-64.6s0-66.6,0-66.6l-1.1-2.6s-76.5-60.7-76.5-60.7c-14.1-13.8-19.7-35.6-13.4-54.5,30.1-51.5,56.5-107.5,87.8-158.1,14-22.7,33.7-32.4,60.1-23.1,31.7,10.7,63.1,29,95.1,39,0,0,58.1-37.2,58.1-37.2,6.8-28.1,6.2-59.5,11.8-88,4-21.2,25.3-38.8,46.7-40.2h182.2c17.9,1.7,33.2,13.9,38.8,30.9,0,0,18,106.9,18,106.9l.2.2ZM778.1,349.3h-174.6l-14.5,107.3c-3.8,13.2-21,19.6-32,26.5-16.4,10.4-34,23.2-50.8,32.4s-14.4,5.5-24.4,2.2l-108-44.7c-.1,1.2-86.8,153-85.9,154.3.1,0,89.2,70.9,89.2,70.9,13.3,9.8,9.3,24.6,9.7,39s2.2,40.3.8,60-1.9,13.6-6,18.7l-93.6,75.7,86.1,151.1,111.8-48.2c13.7-2.9,19.9,4.2,30.8,10.1,20.5,11,41.1,21.8,61.5,33,6.7,6.2,9.5,10.3,11.5,19.2,8.3,35.9,8.4,77.3,18.7,111.9,0,0,173.4-.4,173.4-.4,13-30.2,7.3-110.4,29-129.2,119.3-66,59.2-51.7,207.9,2.9l83.9-149.6s-1.8-2.5-1.8-2.5l-94.8-71.6c-4.7-4.7-7-10.7-7.5-17.2-2.2-28.2,1.4-59.7.4-88.1-2.1-11.3,91.7-78.2,98.6-86l-86.2-150.6-110.2,47.3c-12.9,3.4-16.3-1.1-26.5-6.5-23.1-12.1-45.9-24.6-69-36.7-13.1-5.6-23.7-119.1-27.4-131.1h0Z"/><path class="cls-1" d="M778.1,349.3c3.8,12.6,14.1,125,27.4,131.1,23.1,12.1,46,24.5,69,36.7,10.2,5.4,13.5,9.9,26.5,6.5l110.2-47.3,86.2,150.6c-7.4,8-100.3,74.5-98.6,86,1,28.4-2.6,59.9-.4,88.1.5,6.6,2.8,12.6,7.5,17.2l94.8,71.6,1.8,2.5-83.9,149.6c-148.8-54.6-88.5-68.9-207.9-2.9-20.6,17.4-17.1,96.1-27.7,126-8.2,33.5-.4,2.3-1.3,3.2,0,0-173.4.4-173.4.4-10.3-34.5-10.4-76.1-18.7-111.9-2-8.9-4.8-13-11.5-19.2-20.4-11.2-41-21.9-61.5-33-10.9-5.9-17.1-13-30.8-10.1l-111.8,48.2-86.1-151.1,93.6-75.7c12.6-21.7,4.1-54.3,5.2-78.7-.5-19.6,3.6-29.2-9.7-39,0,0-89.1-70.9-89.1-70.9v-1c-.1,0,85.8-153.3,85.8-153.3l108,44.7c10,3.2,15.3,2.8,24.4-2.2,16.8-9.2,34.4-22,50.8-32.4,11-6.9,28.2-13.4,32-26.5l14.5-107.3h174.7ZM914.2,759.2c-4.9-287.8-433.2-287.9-438,0,1.2,286.4,436.8,286.4,438,0Z"/><path d="M914.2,759.2c-4.9,287.8-433.2,287.9-438,0,1.2-286.4,436.8-286.4,438,0ZM866,759.3c-3.9-224.5-337.8-224.5-341.6,0,3.9,224.5,337.8,224.5,341.6,0Z"/><path class="cls-1" d="M695.2,588.5c224.5,3.8,224.5,337.8,0,341.6-224.5-3.8-224.5-337.8,0-341.6Z"/></svg>