<?xml version="1.0" encoding="UTF-8"?><svg id="Layer_1" xmlns="http://www.w3.org/2000/svg" viewBox="0 0 160.7 159.4"><path id="aiCircle" d="M103.7.7l-.8,4.1c1.5-.9,7.8.8,5.8,2.5s-19.5-1.1-23.1-.9c-14.7.3-41,9.8-45.7,22.8l-1.7-1.7c-117.9,143.4,171.1,162.9,101,14.5-20.1-31.3-29.1-20.1-41-21.2s-31.1,1.3-32.4.4c-6.5-13.1,22-11.3,29-11.4,83.1,5.8,88.2,120.4,11.3,139.9-76.9,19.5-44.5,4.7-65.7-2.4C-43,119.7,15.4-13.6,100,1.1c84.6,14.7,2.5-.8,3.7-.6h0Z" fill="#595b5c"/><g id="aiIcon"><path d="M43.2,72.1c10.5.3,1.1-12.5,21.9-11.8,1.1-1.7-4.6-15.5,2.6-11.8v11.8l7.2-.8c1.5-2.1-1.6-12,2.5-11.8,4.1,6.8-5,14.3,8,12.6v-11.8c9.4,0-3.5,15,9.3,11.7v-11.8c6.1-1.6,2.2,10.6,3.4,11.8s8.5-1.3,13.3,5.6,1.8,7.1,4.7,6.2.7-17.4.4-18.8c-.4-2.4-3-2.6-2.6-5.8.7-5.2,9.5-3.7,7.6,3.1-1.9,6.8-2.4.7-2.6,2.7s.6,18.3.8,19.4c8.8,6.5,6.1,29.2-5.5,29-.7,7.8-1.7,19.7-12.6,20.2-7.8.9-40.8.8-46.4-1.6-10.5-4.4-7-18.6-7.8-19.5-1.5-1.3-9.3,1.2-10.9-8.9-1.6-10.1,2.5-12.9,3.4-20.1s.4-16.6,0-19.4-2.8-2.7-2.6-5c.3-4.4,8.1-5,8.5,0s-2.6,3.8-2.6,4.1c0,2.9-.7,19.8,0,20.6h0ZM64.1,63.1c-11.2,1.1-12.4,4.4-13.3,15.2-4.4,51.3,7.9,40.3,49.2,39.9,3.9-.4,7.2-1.5,9-5.3,2.1-4.5,2.2-32.7,1.5-38.8-.8-6.1-1.6-6.5-3-8-4.5-4.7-36-3.9-43.4-3.1h.1ZM47.5,74.7c-10.4,0-11.2,24,0,22.6v-22.6ZM113.8,98.2c10.3,0,11-24,0-22.6v22.6Z" fill="#595b5c"/><path d="M75.3,86.2c.2,11.1-17.5,11.2-17.3,0-.2-11.2,17.5-11.2,17.3,0ZM70.8,82.4c-3.9-4-12.4.9-8.3,7s13.3-1.9,8.3-7Z" fill="#595b5c"/><path d="M103,86.2c.1,11.1-17.2,11.1-17,0-.1-11.1,17.2-11.1,17,0ZM99.7,86.2c0-6.7-10.3-6.7-10.3,0s10.3,6.7,10.3,0Z" fill="#595b5c"/><path d="M65.1,105.7c-.6-.6.3-3.4,1.2-3.4h29.4l1.2,1.2-1.2,2.1h-30.6Z" fill="#595b5c"/></g></svg>