<?xml version="1.0" encoding="UTF-8"?><svg id="Layer_1" xmlns="http://www.w3.org/2000/svg" viewBox="0 0 770.2 202.2"><path d="M134.5,6.2c3.2-.4,12.3,1.9,12.7,1.5s-.2-2.1,0-2.2c.4-.3,2.1.9,2.6.8.8-.2.5-2.2,2.3-2.3s11.1,6,13.9,3.8-2.9-3.1,3.3-2.7c5.6.3,3.5,3,3.9,3.5,4.3,5.5,5.3-2,7.1-.8s.3,2,1.1,2.2c5.6-4.2,6.5-1.5,12,0,2-.1,2.6-1.9,4.4-1.5s.4,3.6,2.3,3.1,3.1-5.7,3.4-6,1.7.8,1.9.7c.7-3,7-.5,8.2-.7,3.6-4.8,12.7-2.5,16-.5,1,.5,1.5,3.2,2.8,3.6,1.9.5.6-2.4,2.3-2.9,5-.6,2.8,4.3,6.8.9,1.7-.3,7.4,1.1.3-1.7,2.4-4.6,2.7-4.3,8.5-3.7s11.8,2.3,16.6,2.3,20.5-3.6,22.1-2.3-1.6,2.8-.4,3c9.3-9.9,53.3,1.1,68.2-3,7.4,4.8,20.7.1,28.4,1.5,4.2-.1,0-1.6,1.5-1.6,12.2-.9,36.7,2.3,45.9,0,3.1.2.6,2.1,2.2,1.6s.2-1.5.8-1.6c2.7-.2,10.3,2.3,14.3,2.1s11.2-3.9,15.1-1.1,0,2,.1,2.1c6.9-2,3.9.3,10.8,1.2,6,.2,13.1-4.3,17.4,1.1,2.4,0-.6-4.3.4-5.2s27,1,31.1,0c2.7,1.6,7.2,4.4,10.5,3.6s1.1-2.7,2.9-2.8,1.9,1.8,2.6,2.1c5.4,1.9,4.9-1,6.6-1.3,9.5,4.4,10.2-4.8,20.1-.1,1.4-.2,0-2.2,4.5-1.5,6.9,1.2,4.3,4.4,7.8-.1,1-.2,3,.9,4.4.8,6.5-.5,6.3.7,10.5,1.3,7.8.2,9.3-4.3,17.1-.5,6.9.9,19.8-4,27.8,0,1.1,0,.4-1.6.8-1.6,2.8,0,5.8,2.8,7.5,3,8.5,1.1,19-.6,27.7.1,9,1.4,28,2.2,25.9,6.6,5.1-.2,2.2-1.8,7.4,2,2.9.9,6.9-1.2,6,2.6,3.1.3-.2-2.9,3.2-2.1s8.8,5.6,8,7.3c-1.9,0-3.3-.3-3.8,1.9-.8,3.3,2.5,1.3,3,1.9s.8,7.4.8,7.8c-.3,1.8-2.3,2-2.2,4.4.6,4,3.4.3,1.3,4.3.2.2,8.8-.4,4.6,4.8-3.7,4.6-1.3-3.1-1.6-3.3-1.3-1.2-4.1,2.4-4.9,2.2s-4.3-3.5-5.3-3.8,0,1.5-.7,1.5-6.5-3-9-2.3,5.5,4.2,6,4.5c1.2.7,1.6,2.9,2.3,3.1s6.2-2.1,7-.8-2,2.6.4,2.2c1.5-5,3.6-1.9,7.5-2.4s.3-1.3.4-1.3c2.5-.5,1,1.4,1.9,2.2s4.5,1.2,2.6,3c-2.8,2.4-8-6.4-6.7,0-.4.4-2.5-1.3-3.8.3-4.4,5.3,5,.9,5.3,1.2.4.5-.8,2.6-.7,2.9.3.6,4.4.9,3.7,3.1-2.7,1.6-8.1-1.4-9.7.8s2.1,2.2,2.3,2.6c2.3,4.8-8.6.9-1.5,7,.6,1.2-.3,2.9,0,3.2,6.3-.2,6.5-5.6,6.7,5.2-1.7,1.7-4-3.2-5-3.6-3.5-1.4-2.2,1.7-2.6,2-.6.5-3.1-.5-4.1.8s.8,2.6.4,3c-1.2,1.4-2.5-3.7-3.7-2.2s.3,1.6-.2,2c-3.5,3.3-13,1.7-16.5,1.7-.8-.2-1.5-3.4-2.8-2.3s-.9,4.3-.8,4.5,1.8-.3,2.4,0c3.1,1.7,4.6.8,8.3,1.7s4.7,2.8,6.1,2.8,3.6-4.2,8-3.4,10.9,5.5,9,7.9c3,.8-.3-4.1,2.5-3.6,8.2,1.3,9.8,11.5,17.7,11.1l-3.7,3c6.5-.8,6.5,1,3.7,6,12.9-.2,7.7,3.7,9.7,10.1s3.9.7,2.9,3.7-6.8-.7-7.4-.3-.2,2.3-.9,2.9c-1.4,1-5.4,1.3-7.3.9l4.2,3c2.4.3,9.9-5.8,6.6,1.5-2.8,2.8-4.7,2-4.1,6.8-.4.4-4.4-1.4-2.9,2.5,2.2,5.4,9.3-3.4,12.6-1.4s-.2,2.5-2.3,1.9c-.8,2.7,3.4.2,2.3,3.4s-3.2,1.1-2.3,2.6,7.2,1.3,8.2,7.1-3.7.6-3.7,2.2,3.2.9,3,1.5c-.3,1-2.4.9-2.8,1.3-.6.9-.4,2.6-1.3,3.6s-6.4,3.6-6.8,3.7c-2.6,1,1.1-3.6-1.5-3-2.1,5.2-5.3,1.9-7.4,2.2s-.6,1.8-1.7,2.2c-5.5,2-3.3-2.1-3.6-2.1-3.9-.7-1.6,5.2.8,5.9s3.7-1.4,4,.5-3.3,2-4.5,1.9l2.2,2.2c-11.6.6,1.2,2.3,2.3,3.4,4.5,4.6-7,4-9,3.4.4,3.7,4.2,2.8,6.7,2.2-1.2,6-13.5-1.4-3,9.4.6,1.5-1.8.7-1.5,2.2s4.7,4.8,3,6.4c-141.6-6.5-341.6,1.7-461.3-5.8-4.7,3.8-27.6-2.2-19.4,2.1-7.1-5-29.9,1.7-30.7-2.3-1.1,0-.5,1.6-.8,1.6-5.7-5.5-151.1-3.6-105.6-1.5-6.1-2.7-10.6.6-16.9-1.6,1.2,4.1-4.5-.8-8.2.8l2.2-3.7c-6.6-3.7-2.3,2.2-5.7,3.6-6.6,2.1-16.7.9-21.6-1.3-.5,0-3.5,1.3-4.2.7-2-8.1,4.5,0,7.5-.7.9-.8-1.3-2.6-1.4-3.5,0-2.2,2-6.6-2.1-7.5s-2.3,3.3-2.5,3.5-5.1,1-5.2.8c-.9-1.1,1.8-4.7-.4-4.5-.8,4.1-4.5.3-4.9.7.8,5.6-7.1.5-8.5.7-1.6.1-2.5,4.4-4.2,3.8-1-2.1,3.5-3.7,3-4.9-2.5-3.5-17.3-13.8-6-16.9-7,.2-1.5-3.8-1.1-3.8,1.5.2,3.7,2.6,7.5,2.3s3.4-1.8,3.4-1.9c-1.5-4.2-14.5,1-15,.4s-.7-4.9-.7-5.7c5.9-2.5-8.2-2.6,1.4-5.5-8.2-1.8-1.8-2.8-1.6-3,.5-.6-.2-2.6,0-3,.4-.5,4.9,2.5,6,1.5s-.8-2.9-.6-4c.6-3.8,6.1-3.3,8.8-4.7s1.4-2.9,2.8-3.3c6.5,3.2,9.7-1.4,16.7-.1-4.1-2-.3-4.1-2.2-7s-19.4-1.1-23.6-2-2.9-2.7-3.8-2.8-2.3,1.6-3.7,1.4-.9-2.3-2-2.7-3.8,1-4.5.4,1.1-3.3-5.3-2.6-9.5,3.5-6.7-1.1,5.3-.7,4.5-3c-7.2-2.8-4.2.8-7.1,3.1s-5.6-3-4.9-5.3c-2.6,0-.8,4.6-4.9,1.6s.4-3.2.4-3.4c.4-1.7-1.5-.9-1.5-1.6,2-7.6-1.3-7.5-5.5-12.3C2.7,94.1-.4,78,.1,73.3s1.5-.2,1.5-.9-1.5,0-1.5-.9c-.2-2.9-.5-12.9,1.8-14.6s22.8-5,25.5-5.2.5,1.6.9,1.5c4.5-.2,9-.1,13.2-.3,11-2.3,7.2-4,18.5-1.3-2.3-4.8-19-44-3-34.5.3-4.6.4-3.3,4.5-4.1,5.9-3.3,4-1,7.1-1.9s2.7-2.6,8.7-2.2c0,3.4,4.5,1,3,0s-2.2,0-3,0c0-.7-.3-1.3.4-1.5s7.4,0,8.2,0c3,.2,9.1,2.6,12.1,2.2s.4-1.5,1.2-1.6c10.8-1.6,18.5-3.8,26.4,1.8,1-.2,1.3-5.2,7.5-4.6s1,.6,1.1,1.6c-.6,0-2.1-.1-2.2,0-.9.8,2.8,4.8,2.2,0l.3-.6h0ZM284.7,1.7v.7l.4-.4-.4-.4h0ZM582.2,2.4v.7l.4-.4-.4-.4h0ZM565.7,3.9v.7l.4-.4-.4-.4h0ZM712.9,15.2h-2.2c-2.4,1.9,4.6,1.9,2.2,0ZM322.9,33.2c6.8-.6,14.4.4,21.4,0l-6.7-1.5,2.2-.7c-5.4-3.5-13.6-1.1-19.7-1.5s-.3-2.2-1.6-1.5-1,2.2-1.2,2.2c-28.8-4.4-61.1,33.5-69.8,58.6-19.7,58.1,20.5,89.7,75.5,87.5,107.4-4.2,95.4-147.9.7-140.2s-15.5,2.6-17.5,5.8-.5,5.5,1.2,6.2c45-7.8,86.1,13.2,82,64.2-3,78.5-145.2,68.3-135.6,1.6-2.8-32.5,32.7-77.8,69.4-80.5l-.3-.2h0ZM723,57.9v.7l.4-.4-.4-.4h0ZM299.9,69.3c-21.7,1.1-30.6,51.3-18.6,59.4s22-9.9,31.5-12.8c23.2-6.9,24.4,9.8,40.1,13.8,23,5.8,13.6-36.6,8-47.7-11-21.5-22.5-9.3-38.7-9.2s-15.4-4-22.3-3.6h0ZM755.3,120.1v.7l.4-.4-.4-.4h0ZM53.9,144.8v.7l.4-.4-.4-.4h0ZM51.3,147.8c.5-.8-.4-2.1-.7-1.5-.5.8.4,2.1.7,1.5ZM298.2,164.3v.7l.4-.4-.4-.4h0ZM50.9,175.5v.7l.4-.4-.4-.4h0ZM64.4,177v.7l.4-.4-.4-.4h0ZM55.8,180.8c.8-.7-1.4-3.4-2.2-1.1s1.9,1.4,2.2,1.1ZM59.5,179.3c-3.1-.5-3,1.3-.4.7s.4-.1.4-.7ZM64.8,179.3c-.4-.3-2.3,0-3,.4-3.4,1.7,5.8,1.5,3-.4ZM71.9,181.5v.7l.4-.4-.4-.4h0Z" style="fill:#cce2ec;"/><path d="M726.4,75.1c1.3,3.3.4,6.5-3,3.7s1.7-4.3,3-3.7Z" style="fill:#cce2ec;"/><path d="M242.4,1c.6.4-.7,1.3-1.5.7s.7-1.3,1.5-.7Z" style="fill:#cce2ec;"/><path d="M322.9,33.2c-36.7,2.6-72.3,48.3-69.4,80.5-9.5,66.7,132.6,76.9,135.6-1.6,3.7-51.5-36.3-71.6-82-64.2-8-8.5,10.9-11.4,16.3-12,94.7-7.7,106.8,136-.7,140.2-111.4,9.3-97.8-129.9-8.1-147.4,28.8-1.7,2,1.5,2.4,1.3s.2-1.7,1.2-2.2,1,1.5,1.6,1.5c6.2.4,14.4-2,19.7,1.5l-2.2.7,6.7,1.5c-6.9.4-14.5-.6-21.4,0l.3.2h0Z" style="fill:#595b5c;"/><path d="M299.9,69.3c6.8-.3,14.9,3.7,22.3,3.6,16.2-.1,27.7-12.3,38.7,9.2,5.7,11.1,15.1,53.5-8,47.7s-16.9-20.7-40.1-13.8c-9.5,2.8-20.1,20.5-31.5,12.8s-3.1-58.3,18.6-59.4h0ZM299.1,73.1c-15.7,1.7-21.2,34-19.1,46.4,3.2,18.9,22.5-2.8,29-5.8,18.8-8.8,25.4,1.6,38.4,9.6,24.7,15,16.4-24.6,11.6-36.3-9.3-22.9-19.9-10.6-36.1-10.3-8.3.2-15.7-4.5-23.8-3.6h0Z" style="fill:#595b5c;"/><path d="M64.8,179.3c2.8,1.9-6.4,2-3,.4s2.6-.6,3-.4Z" style="fill:#fefefe;"/><path d="M55.8,180.8c-.3.3-2.8.5-2.2-1.1.8-2.3,3,.4,2.2,1.1Z" style="fill:#fefefe;"/><path d="M712.9,15.2c2.4,1.9-4.6,1.9-2.2,0s2.2,0,2.2,0Z" style="fill:#fefefe;"/><path d="M59.5,179.3c0,.6.2.6-.4.7-2.6.6-2.7-1.3.4-.7Z" style="fill:#fefefe;"/><path d="M51.3,147.8c-.4.6-1.3-.7-.7-1.5s1.3.7.7,1.5Z" style="fill:#fefefe;"/><polygon points="284.7 1.7 285.1 2.1 284.7 2.4 284.7 1.7" style="fill:#fefefe;"/><polygon points="582.2 2.4 582.5 2.8 582.2 3.2 582.2 2.4" style="fill:#fefefe;"/><polygon points="565.7 3.9 566.1 4.3 565.7 4.7 565.7 3.9" style="fill:#fefefe;"/><polygon points="723 57.9 723.4 58.3 723 58.6 723 57.9" style="fill:#fefefe;"/><polygon points="755.3 120.1 755.6 120.5 755.3 120.8 755.3 120.1" style="fill:#fefefe;"/><polygon points="53.9 144.8 54.3 145.2 53.9 145.6 53.9 144.8" style="fill:#fefefe;"/><polygon points="298.2 164.3 298.6 164.7 298.2 165 298.2 164.3" style="fill:#595b5c;"/><polygon points="50.9 175.5 51.3 175.9 50.9 176.3 50.9 175.5" style="fill:#fefefe;"/><polygon points="64.4 177 64.8 177.4 64.4 177.8 64.4 177" style="fill:#fefefe;"/><polygon points="71.9 181.5 72.3 181.9 71.9 182.3 71.9 181.5" style="fill:#fefefe;"/><path d="M299.1,73.1c8.1-.9,15.5,3.8,23.8,3.6,16.2-.4,26.8-12.7,36.1,10.3s13.1,51.3-11.6,36.3c-41.4-38.4-62,27.3-67.4-3.8-3.2-19,3.4-44.7,19.1-46.4ZM346.5,84.8c.2-7.1-11.2-7.2-11,0-.2,7.2,11.2,7.2,11,0ZM306.8,88.6c-.7-.7,2.3-7.4-7.1-6-5,.7-3.5,5.4-4.1,6s-3.7-.7-4.8,1.6-.7,6.9,0,8.2c1.2,2.2,4.1,1.1,4.8,1.6s0,4.1,2.5,5.4c9.2,4.6,8.4-5,8.9-5.4s4.1.4,5.3-1.3,1.1-7,.3-8.5c-1.4-2.5-5.3-1-5.8-1.6h0ZM337,94c0-7.1-11.1-7.1-11,0,0,7.1,11.1,7.1,11,0ZM355.8,94c.2-7.1-11.2-7.2-11,0-.2,7.2,11.2,7.2,11,0ZM346.5,103.5c.2-7.1-11.2-7.2-11,0-.2,7.2,11.2,7.2,11,0Z" style="fill:#cce2ec;"/><path d="M306.8,88.6c7.1-1.3,7.2,5.1,5.3,10-.9,1.4-5,1-5.3,1.3-.5.5.3,10-8.9,5.4-2.6-1.3-2-5-2.5-5.4-6.4.8-6.2-5.7-4.8-9.8,1.2-2.3,4.3-1.1,4.8-1.6s-.8-5.3,4.1-6c9.8-1.4,6.1,5.6,7.3,6.1ZM303.8,91.6c-.8-.8,1.9-5.9-2.6-6-5.8,0,3,8.3-7.9,6-.7,7.8,1.5,3.8,5.6,6,1.7,5-2.4,5.2,4.8,4.6.3-.3-.3-5,0-5.3s4.6.8,5.7-.7c2.6-6.9-2.2-3.8-5.7-4.5h.1Z" style="fill:#595b5c;"/><path d="M337,94c0,7.1-11.1,7.1-11,0,0-7.1,11.1-7.1,11,0ZM333.7,94.2c0-2.8-4.4-2.8-4.4,0s4.4,2.8,4.4,0Z" style="fill:#595b5c;"/><path d="M355.8,94c.2,7.1-11.2,7.2-11,0-.2-7.2,11.2-7.2,11,0ZM352.4,94.2c0-2.8-4.2-2.7-4.2,0s4.2,2.7,4.2,0Z" style="fill:#595b5c;"/><path d="M346.5,103.5c.2,7.1-11.2,7.2-11,0-.2-7.2,11.2-7.2,11,0ZM343.1,103.6c0-2.8-4.4-2.8-4.4,0s4.4,2.8,4.4,0Z" style="fill:#595b5c;"/><path d="M346.5,84.8c.2,7.1-11.2,7.2-11,0-.2-7.2,11.2-7.2,11,0ZM343.3,84.8c0-2.8-4.4-2.8-4.4,0s4.4,2.8,4.4,0Z" style="fill:#595b5c;"/><path d="M303.8,91.6c4.2.7,7.6-2.5,5.7,4.5-1.1,1.4-5.3.3-5.7.7s.3,5,0,5.3c-7,.6-3.4.3-4.8-4.6-.8-1.1-4.3,0-5.3-1.4s-.5-4.4-.3-4.6c11.5,1.2,2.1-5.6,7.9-6,4.1.1,1.8,5.2,2.6,6h-.1Z" style="fill:#cce2ec;"/><path d="M331.5,92c2.9,0,2.9,4.4,0,4.4s-2.9-4.4,0-4.4Z" style="fill:#cce2ec;"/><path d="M350.3,92.1c2.7,0,2.7,4.2,0,4.2s-2.7-4.2,0-4.2Z" style="fill:#cce2ec;"/><path d="M340.9,101.4c2.9,0,2.9,4.4,0,4.4s-2.9-4.4,0-4.4Z" style="fill:#cce2ec;"/><path d="M341,82.6c2.9,0,2.9,4.4,0,4.4s-2.9-4.4,0-4.4Z" style="fill:#cce2ec;"/><g style="isolation:isolate;"><g style="isolation:isolate;"><text transform="translate(419.4 133) scale(1.3 1)" style="font-family:ArialMT, Arial; font-size:60px; isolation:isolate; letter-spacing:0em;"><tspan class="typeText" x="0" y="0">T</tspan></text></g><g style="isolation:isolate;"><text transform="translate(462.7 133) scale(1.3 1)" style="font-family:ArialMT, Arial; font-size:60px; isolation:isolate;"><tspan class="typeText" x="0" y="0">ype</tspan></text></g></g></svg>