<?xml version="1.0" encoding="UTF-8"?><svg id="ThemeBtn" xmlns="http://www.w3.org/2000/svg" viewBox="0 0 742 193.5">


<path id="ThemeCircle" d="M311.7,26.1c-.6,4.3,3.7,1.1,4.5,3.6-31.1-2.5-55.8,9.8-72.1,36.2-43.5,60.7,17,106.4,75.1,89.7l-2.2-.7v-.7l14.2-3-.3-1.4c31.5-11.5,36.5-53.4,20.9-82.3-6.4-12.4-26.8-22.9-40.3-24.1-4.7-.4-29,1.5-30.3.7-5.8-8.4,11.3-11.4,16.7-11.8,89.3-4.3,101.2,123.1,7.4,134.7-127.4,18.2-98.8-152.6,6.4-140.6v-.3Z" style="fill:#595b5c;"/><g id="ThemeIcon"><path d="M293.6,59.1c16.5-1.9,43.5,3.5,42.9,24.9-.5,20-22.2,1.7-31.5,12.7-5.4,6.4-2.7,13.8,4,17.8s20,3.5,5.4,15.6c-58.9,37.2-84.7-61.4-20.8-71ZM317.2,72.3c.2-10.8-16.8-10.8-16.6,0-.2,10.8,16.8,10.8,16.6,0ZM294.5,74.8c.2-10.8-16.8-10.8-16.6,0-.2,10.8,16.8,10.8,16.6,0ZM278.6,90.3c.1-11-16.9-10.8-16.8,0-.1,10.9,16.9,10.9,16.8,0ZM279.6,112.7c.2-10.8-16.8-10.8-16.6,0-.2,10.8,16.8,10.8,16.6,0ZM297.6,124.9c.2-10.8-17-11-16.8,0-.2,10.9,17,10.9,16.8,0Z" style="fill:#cce2ec;"/><path id="ThemeIconBorder" d="M291.4,56.1c21.5-4.3,57.3,8.5,46.3,35.9-6.4,12.2-24.1-3.1-30.7,8.2s30.2,11.2,13.4,29.2c-60.2,49.3-101.1-58.7-29-73.2h0ZM293.6,59.1c-64.3,9.8-37.9,108.2,20.7,71,14.6-12.1,2.3-11-5.4-15.6s-9.4-11.4-4-17.8c9.3-11,31,7.3,31.5-12.7.6-21.3-26.4-26.8-42.9-24.9h0Z" style="fill:#0d0f10;"/><g id="ThemeIconDots"><g id="ThemeIconInnerDots"><path d="M270.2,85.2c6.7,0,6.7,10.5,0,10.4-6.7,0-6.7-10.5,0-10.4Z" style="fill:#cce2ec;"/><path d="M289.2,119.7c6.7,0,6.7,10.5,0,10.4-6.7,0-6.7-10.5,0-10.4Z" style="fill:#cce2ec;"/><path d="M271.2,107.5c6.7,0,6.7,10.5,0,10.4-6.7,0-6.7-10.5,0-10.4Z" style="fill:#cce2ec;"/><path d="M286.2,69.6c6.7,0,6.7,10.5,0,10.4-6.7,0-6.7-10.5,0-10.4Z" style="fill:#cce2ec;"/><path d="M309,67c6.9,0,6.9,10.7,0,10.6-6.9,0-6.9-10.7,0-10.6Z" style="fill:#cce2ec;"/></g><g id="ThemeIconOuterDots"><path d="M278.6,90.3c.1,11-16.9,10.8-16.8,0-.1-10.9,16.9-10.9,16.8,0ZM275.5,90.4c.1-6.8-10.5-6.8-10.4,0-.1,6.8,10.5,6.8,10.4,0Z" style="fill:#0d0f10;"/><path d="M297.6,124.9c.2,10.8-17,11-16.8,0-.2-10.9,17-10.9,16.8,0ZM294.4,124.9c.1-6.8-10.5-6.8-10.4,0-.1,6.8,10.5,6.8,10.4,0Z" style="fill:#0d0f10;"/><path d="M279.6,112.7c.2,10.8-16.8,10.8-16.6,0-.2-10.8,16.8-10.8,16.6,0ZM276.4,112.7c.1-6.8-10.5-6.8-10.4,0-.1,6.8,10.5,6.8,10.4,0Z" style="fill:#0d0f10;"/><path d="M294.5,74.8c.2,10.8-16.8,10.8-16.6,0-.2-10.8,16.8-10.8,16.6,0ZM291.4,74.8c.1-6.8-10.5-6.8-10.4,0-.1,6.8,10.5,6.8,10.4,0Z" style="fill:#0d0f10;"/><path d="M317.2,72.3c.2,10.8-16.8,10.8-16.6,0-.2-10.8,16.8-10.8,16.6,0ZM314.3,72.3c0-6.9-10.7-6.9-10.6,0,0,6.9,10.7,6.9,10.6,0Z" style="fill:#0d0f10;"/></g></g></g>

<path id="ThemeBackground" d="M692.4,76.1c-.2-1.4-.8-2.1-1.9-3,0,3-1.8,1.8-2.4,2.4,0,5.7-10-1.9-14.4,2.1-.6-.5-.6-4.6-2.3-3s-.7,3.1-.6,3.3c.6,2.5,9.5,2.2,11.3,2.7s4.7,3.4,5,3c-1.4-4.1,10.7-7.2,6.8,0,5.3-4.6,3.9-.7,4.5,0,1,.9,5.5-1.7,4.5,2.3,1.9.9,1.3-1.5,1.9-1.6,9.1.6,9.6,10.5,18.2,10.5,2.2,2.2-4.2.8-3.7,2.2,1.3,0,2.8.9,4,.8s1.3-2.8,2.7-1.5-1.8,2.1-2.2,2.8c-3.4,6.6,4.6,3.5,7,5.3,3.5,3-3.4,2.5,4.1,3.9,2.3,3.5-2.8,1.2-2.9,1.4-2.9,3.6,8.8,7.1.4,10.5,1.5-2.2-1.8-3.4-3.7-2.9s-.8,1.8-1.8,2.2-8.9.6-3.9,2.6,9.8-5.7,7.2,2.4c-3.3,1.8-3.6,5.8-7.2,7.6,3.3-1.4,4.6,1.5,4.9,1.5,2.6.2,5.5-3.5,8.6-1.5.9,2.7-4.9.6-3,3s5-1.4,5.2,1.1c-13.5,4.4-1.4,3.1,0,4.2s-1.6,3.3,3.1,1.4c.8,2-1.5,1.3-1.5,1.9s1.3,2.8.8,3.3-2.2,0-3,1.2,2.6.7,1.5,2.6c-5.7-.9,2.3,5.1-8,5.5-1.3.6-.5,2.7-3.5,2s-.3-1.3-.9-1.5c-3.7,1.6-3.2-1.4-6.3-1.5,1,5.2-6,6.8-4.9,2.3l-2.6,1.9,3.5,3.4c.8.2,8.5-.4,3.4,2.1s-3.4-1.2-1.7,2.4h-3.8c-1.1,5,6.9,0,6.6,5.4s-7.3-.3-8.8,1.3c-2.2,2.3,3.2,2.1,3.7,3.4,1.5,3.5-3.2.6-3.7,1.1-1.6,1.7,2.7,5.6,2.8,6.5-2,5.5,2,4.2,2.4,8.5-144.8-4.2-300.6-1.5-438.8-3.9-1.7.2-2.9-1.8-3.6,1l-.4-2.3c-5.3-.2-3.1,3.5-9.4-.1-1.2,0,0,1.6-1.5,1.6-2.8,0-10.5-3.9-9.4.7-2.1-2.3-5.5-3-8.5-2.3s-.2,1.5-.9,1.5c-.9-4.1-13.9.2-17.2-.7-4-.3-2.6-1.5-3.7-1.6s0,1.8-1.5,1.6c-4.1-1.3-9-3.1-13.6-1.5-10.3-.4-20.4-.3-30.6-.8-2.7,4.3-1.3,1-2.5.7-5.7-1.4-20-.5-26.8-.8s-3.8,1.1-4.9,2.3-2.2-1.5-3.4-1.5,0,2-1.4,1.5-1.1-1.5-2.3-1.5-.3,1.5-.8,1.6c-.9.1-4.9.7-5.2.7s-.3-1.5-.8-1.6c-1.4-.2-6.3,1.4-8.3,1.3s-2-1.5-3.6-1.3-.4,1.5-.8,1.6c-1.5.1-2.3-1.3-3.6-1.3-2.3-.2-3,2.1-3.3,2.1-1.8.2-5.4-1.5-8,0s1.3,4-4.2.8l1.5-1.5c-2.9-.1-13.5-1.7-14.5.6-5.3-3.6-8.2-.7-14.6-2.8-5.3-1.6-5,1.6-9,.2s-6.6-6.2-6.8-6.7c-.8-3.9,4.2-1.2,3.6-4-3,1-1.9-2.1-2.7-2.3-1.4-.4-4.7,1.3-4.1-1.4,3.5,0,5.6.9,9.1,0s.5-1,1.2-1.4,2.2.1,2.4,0c1.7-1.5-2.4-5.5-5.2-3.7l1.5,3.7h-12.2c-2.6-2.9.4-1.2.2-3.7-7.7-.4-3.9-1.3-4.5-3.3s-4-2.1-5.2-6.1,3.7-1.2,4.5-1.8c-.4-2.2-3.1-.2-3.6-2s.8-4.8.5-5.9-3.4-2-2.9-5.9,2.4-1.8,2.2-3.2l6,1.2c-3.8-11.4,7.4-6.2,12-7s5.6-1.9,5.9-2.1c-.4-5.5,8.3,3,15.8-6.5l-4.4.7c-2.3-2.2,1.9-4,.7-5.2s-10.1.8-12.4.7c-3.4-.4-9.3,0-10.5-3-1.7-.3-.8,1.4-1.6,1.6-7.3.6-9.8-4.7-18.3-3.2,1.1-3.5-4.6-2.5-6.5-2.7-1,0-5,2.4-3.5-.2s5.4-2.2,3.3-3.4c-4.6-2.6-7.2,1.2-7.7,1-7.1-3.2,0-2.3-.5-3.6-2.2-2.6-7.2-2-7.5-2.3-2.8-2.3,5.2-1.6,5.8-1.7,1-.2,3.8-5-1.1-3.3s-.5,2.6-1.7,1.3.6-1.2.4-1.5C1.8,92.5.9,68.6,0,55.8c1.1-4.6,3.5-1.9,5.4-2.2,16.4-5.1,35.2-6.5,52.2-5.1-3-6.9-11-23.9-9.7-31.1s5.7-1.7,6-1.9c.9-3.8,1.3-3.6,5.2-4.2,5.3-2.8,2.7-1.1,7.1-2.1s4-2.2,6.9-2.1,1.6,2.7,4.1,1.6l-1.5-2.2c5.6-1.6,11.6,1.5,16.8,1.4,5.2,0,3.2-2,4.5-2.2,2.6-.5,14.6-1.1,17.3-.8s6.4,3.9,7.1,3.1-1.3-5.2,6.7-3.7l-.7,3c2.5.7,1.1-1.9,1.5-2.2,1.1-.9,3.5,1.2,4.3,1.3,4.2.5,7.6-.3,11.4,3.2,1.9-3-.4-6.4,2.7-6s.9,1.3,1.6,1.5c3.4-.6,6,2,9,2.8,6.5-4.4,6.9-2.5,14-1.6,2.8-.1,2.7-1.8,3.3-1.9,1.4-.3,6.9,0,8,.7,2,2.7-2.1,2.7,4.4,1.7,2.3,0,5.3,4.7,3.5-.2,5,1.1,2.1-2.7,3-3.7,1.3-1.6,2.3,3,2.6,3,5.1-2,3.9-2.1,9.7-1.4,1.2-.3,0-1.8.5-2.2,6.9-3.3,14.9,5.3,11.9-1.6,3.5,1.2,7.2-.3,10.1,0s.6,1.7,3,1.7,1.5-1.4,2.9-1.6c4.8-.9,5.8,1.5,6.2,1.6,1.7.2,6.4-1.4,8.8-1.3,8.4,4.1,15.8-.8,23.2-.3,3.1.8.2,1.7.9,1.5s1.5-1.9,1.9-1.5c.8.8,0,6.6,4.2,0,19.5,1.8,61.5-3.4,76.4,2.3,24.6-6.9,54.6.1,80.2-2.3,11-.9,12.3,1.9,17.4,2.9,8.4,1.6,14-3.3,20.4,0,.3-.3,0-2.1.7-2.7,3.9-.3,29.7-2.2,34.1,1.9,2.8.2,6.9-3.3,11.9-2.2s.2,1.5.9,1.5,0-1.4.7-1.5c2.1-.6,1.8,1.5,2.3,1.5,4.9.3,13-2.4,18-1.6s1,1.6,1.4,1.6c1.8,0,4-2.3,8.3-1.6s.7,1.9,3,1.6.7-1.4,2.2-1.6,10.7-.2,12,0c2.6.3,5.9,2.2,7.7,2.2s1.9-1.8,4.3-2.1,4.7.8,6.8.8c13.1-.3,21-1.5,33.9,1.4,12.9,2.9,19.3.2,28.3.9,9,.7,16.2,3,24.3,3.8l-.7,2.2c5.9-2.2,4.8,3.5,13,2.2,1.3.3.2,1.9.4,2.3,1.2,1.7,1.7-2.4,3.3-2.2s4.2,3.5,5.3,4.5,4.8.7,1.5,2.2-2.8-.4-2.7,2.6,4.9,3.7,3,11c-1.9,7.3-2,.3-1.3,2.3s10.4,7.3,3.6,8.8c.3,2.9,2.3,0,5.4,1.7s2,2.1,1.3,2.8c-1.6.7-4.3-3.9-5.6,0-2.2-.4-5.2-2.5-4.1,1.4-2,1.8-2.2-4.3,0-2.3,1.2-4.1-2-3.8,3-3.7-.3-2.3.8-4.2-3.2-3s-.2,1.7-.9,1.5-3.7-2.9-5.3-3,0,1.6-.7,1.5c-2.2-.5-5.9-3.3-9.4-2.2,2.4,2.4,6.5,5.1,9.7,5.2l-.8,1.5c9-1.7,8.5,1.1.4,3-3.9.9,2.3,2.8,4.1,2.2l-1.5,3.7c3.5,1.7,5.5,6.8,9.7,4.6,1.2,4.1-5.7,1.8-7.2,3.7-1.5,1.9,1.2,2.3,2.2,3.1,3.8,6.5,7.2-2.8,6.3,8.1-6.8-.7-3.4,1.5-4.5,3s-3.5,1-3.6.9l-1.1-4.5c-2.1,2.5.2,2.6-2.6,3.7v1.5c-3.5-.5-1.7-.8,0-1.5l.2-.4h0ZM195.3,6.5v.7l.4-.4-.4-.4h0ZM686.4,14h-2.2v1.5h2.2v-1.5ZM311.7,26.1c-105.3-12-133.8,158.8-6.4,140.6,93.8-11.7,82-139.1-7.4-134.7-5.5.3-23,4.1-16.7,11.8,1.3.8,25.5-1.1,30.3-.7,13.6,1.2,33.9,11.7,40.3,24.1,15.6,28.9,10.6,70.9-20.9,82.3l.3,1.4-14.2,3v.7l2.2.7c-129,26.8-106.7-130.6-3-125.9-1-2.7-4.8.8-4.5-3.6v.3h0ZM291.4,56.1c-72,14.4-31.2,122.6,29,73.2,16.7-18-22.7-13.4-13.4-29.2s23.7,5.2,30.7-8.2c11.6-27.9-25.1-40-46.3-35.9h0ZM668.8,78.4v.7l.4-.4-.4-.4h0ZM50.3,166.1h-1.5v.7h1.5v-.7ZM66,180.3c0-.1.2-3.6-.4-3.7-3-.5-2.1,6.2.4,3.7.6,3.3-4.2.2-3,5.3l4.2-3.8c1.1.7,7.5,2.6,7.8,2.3,1.3-1.3-2.6-7.7-9-3.7h0Z" style="fill:#cce2ec;"/>

<g id="ThemeText" style="isolation:isolate;"><text transform="translate(382.7 130.1)" style="font-family:ArialMT, Arial; font-size:60px; isolation:isolate;"><tspan class="themeText" x="0" y="0">THEME</tspan></text></g></svg>