<?xml version="1.0" encoding="UTF-8"?><svg id="Layer_1" xmlns="http://www.w3.org/2000/svg" viewBox="0 0 149.7 142.6"><path id="themeCircle" d="M90.9.3c-.6,4.3,3.7,1.1,4.5,3.6C-13-.4-23.8,159.1,98.4,129.8l-2.2-.7v-.7l14.2-3-.3-1.4c31.5-11.5,36.5-53.4,20.9-82.3-6.4-12.4-26.8-22.9-40.3-24.1-4.7-.4-29,1.5-30.3.7-5.8-8.4,11.3-11.4,16.7-11.8,89.3-4.3,101.2,123.1,7.4,134.7C-42.9,159.4-14.3-11.4,90.9.6v-.3h0Z" fill="#595b5c"/><g id="themeIcon"><path id="ThemeIconBorder" d="M70.6,30.3c21.5-4.3,57.3,8.5,46.3,35.9-6.4,12.2-24.1-3.1-30.7,8.2s30.2,11.2,13.4,29.2C39.4,152.9-1.5,44.9,70.6,30.4h0ZM72.8,33.3c-64.3,9.8-37.9,108.2,20.7,71,14.6-12.1,2.3-11-5.4-15.6s-9.4-11.4-4-17.8c9.3-11,31,7.3,31.5-12.7.6-21.3-26.4-26.8-42.9-24.9h.1Z" fill="#595b5c"/><g id="ThemeIconDots"><g id="ThemeIconOuterDots"><path d="M57.8,64.5c0,11-16.9,10.8-16.8,0,0-10.9,16.9-10.9,16.8,0ZM54.7,64.6c0-6.8-10.5-6.8-10.4,0,0,6.8,10.5,6.8,10.4,0Z" fill="#595b5c"/><path d="M76.8,99.1c.2,10.8-17,11-16.8,0-.2-10.9,17-10.9,16.8,0ZM73.6,99.1c0-6.8-10.5-6.8-10.4,0,0,6.8,10.5,6.8,10.4,0Z" fill="#595b5c"/><path d="M58.8,86.9c.2,10.8-16.8,10.8-16.6,0-.2-10.8,16.8-10.8,16.6,0ZM55.6,86.9c0-6.8-10.5-6.8-10.4,0,0,6.8,10.5,6.8,10.4,0Z" fill="#595b5c"/><path d="M73.7,49c.2,10.8-16.8,10.8-16.6,0-.2-10.8,16.8-10.8,16.6,0ZM70.6,49c0-6.8-10.5-6.8-10.4,0,0,6.8,10.5,6.8,10.4,0Z" fill="#595b5c"/><path d="M96.4,46.5c.2,10.8-16.8,10.8-16.6,0-.2-10.8,16.8-10.8,16.6,0ZM93.5,46.5c0-6.9-10.7-6.9-10.6,0,0,6.9,10.7,6.9,10.6,0Z" fill="#595b5c"/></g></g></g></svg>