<?xml version="1.0" encoding="UTF-8"?><svg id="Layer_1" xmlns="http://www.w3.org/2000/svg" viewBox="0 0 155.7 148.8"><path id="typeCircle" d="M79.7,5.5C43,8.1,7.4,53.8,10.3,86c-9.5,66.7,132.6,76.9,135.6-1.6,3.7-51.5-36.3-71.6-82-64.2-8-8.5,10.9-11.4,16.3-12,94.7-7.7,106.8,136-.7,140.2C-31.9,157.7-18.3,18.5,71.4,1c28.8-1.7,2,1.5,2.4,1.3s.2-1.7,1.2-2.2,1,1.5,1.6,1.5c6.2.4,14.4-2,19.7,1.5l-2.2.7,6.7,1.5c-6.9.4-14.5-.6-21.4,0l.3.2h0Z" fill="#595b5c"/><g id="typeIcon"><path d="M63.6,60.9c7.1-1.3,7.2,5.1,5.3,10-.9,1.4-5,1-5.3,1.3-.5.5.3,10-8.9,5.4-2.6-1.3-2-5-2.5-5.4-6.4.8-6.2-5.7-4.8-9.8,1.2-2.3,4.3-1.1,4.8-1.6s-.8-5.3,4.1-6c9.8-1.4,6.1,5.6,7.3,6.1ZM60.6,63.9c-.8-.8,1.9-5.9-2.6-6-5.8,0,3,8.3-7.9,6-.7,7.8,1.5,3.8,5.6,6,1.7,5-2.4,5.2,4.8,4.6.3-.3-.3-5,0-5.3s4.6.8,5.7-.7c2.6-6.9-2.2-3.8-5.7-4.5h.1Z" fill="#595b5c"/><path d="M93.8,66.3c0,7.1-11.1,7.1-11,0,0-7.1,11.1-7.1,11,0ZM90.5,66.5c0-2.8-4.4-2.8-4.4,0s4.4,2.8,4.4,0Z" fill="#595b5c"/><path d="M112.6,66.3c.2,7.1-11.2,7.2-11,0-.2-7.2,11.2-7.2,11,0ZM109.2,66.5c0-2.8-4.2-2.7-4.2,0s4.2,2.7,4.2,0Z" fill="#595b5c"/><path d="M103.3,75.8c.2,7.1-11.2,7.2-11,0-.2-7.2,11.2-7.2,11,0ZM99.9,75.9c0-2.8-4.4-2.8-4.4,0s4.4,2.8,4.4,0Z" fill="#595b5c"/><path d="M103.3,57.1c.2,7.1-11.2,7.2-11,0-.2-7.2,11.2-7.2,11,0ZM100.1,57.1c0-2.8-4.4-2.8-4.4,0s4.4,2.8,4.4,0Z" fill="#595b5c"/><path d="M56.7,41.6c6.8-.3,14.9,3.7,22.3,3.6,16.2,0,27.7-12.3,38.7,9.2,5.7,11.1,15.1,53.5-8,47.7s-16.9-20.7-40.1-13.8c-9.5,2.8-20.1,20.5-31.5,12.8s-3.1-58.3,18.6-59.4h0ZM55.9,45.4c-15.7,1.7-21.2,34-19.1,46.4,3.2,18.9,22.5-2.8,29-5.8,18.8-8.8,25.4,1.6,38.4,9.6,24.7,15,16.4-24.6,11.6-36.3-9.3-22.9-19.9-10.6-36.1-10.3-8.3.2-15.7-4.5-23.8-3.6h0Z" fill="#595b5c"/></g></svg>