<?xml version="1.0" encoding="UTF-8"?><svg id="Layer_1" xmlns="http://www.w3.org/2000/svg" viewBox="0 0 313.4 282.3"><defs><style>.cls-1{fill:#eceaea;}.cls-2{fill:#7e7172;}.cls-3{fill:#9c9292;}.cls-4{fill:#a3999a;}.cls-5{fill:#c3bdbd;}.cls-6{fill:#b1a9aa;}.cls-7{fill:#bbb3b4;}.cls-8{fill:#e7e5e5;}.cls-9{fill:#aaa1a2;}.cls-10{fill:#dddada;}.cls-11{fill:#cac4c5;}.cls-12{fill:#c0baba;}.cls-13{fill:#978c8d;}.cls-14{fill:#7d7071;}.cls-15{fill:#887c7d;}.cls-16{fill:#857979;}.cls-17{fill:#a89f9f;}.cls-18{fill:#b6aeaf;}.cls-19{fill:#8d8182;}.cls-20{fill:#bdb6b6;}.cls-21{fill:#e1dede;}.cls-22{fill:#938788;}.cls-23{fill:#837778;}.cls-24{fill:#807374;}.cls-25{fill:#7c6e6f;}.cls-26{fill:#a09697;}.cls-27{fill:#bfb8b9;}.cls-28{fill:#e5e2e2;}.cls-29{fill:#968b8b;}</style></defs><path class="cls-28" d="M191.1,7.5c11.3,1.5,21.7,6.2,31.9,5.9,5.1,0,10.1,5.2,14.4,8.2s10.3,6.1,16,8.7,4.7,1.9,6.4,3.3c10,10.3,19.8,26.5,28.8,37.3,13.5,27.5,7.5,68.6,2.7,96.1-.9,2.6-.1,2.5-2,2.1,3.2-30.9-9.3-61.3-20.2-89.5-7.5-19.9-20.2-38.9-38.3-50.5s-7.8-5.1-12-6.7c.6-2.9-5.5-2.9-7.5-3.8-1.7-.4-1.6.2-2.2,0,.4-2-.9-1.5-2.1-2-2-.9-19.5-6.7-15.9-8.5v-.7h0Z"/><path class="cls-1" d="M294.6,88.4c39.6,47.5,11.5,126.1-37.3,155.7-.3-2,2.3-2.2,3-3.5l-.7-2.5,2.7-.7c-.5-4.7,4.7-5.1,4.1-10.6,6.6-7.4,10.7-15.5,12.9-24.9,5.1-8.7,9.1-22.8,10.3-32.8,1.9.4,1.6-.8,2-2.1,5.2-26.3,6.9-50.1,3.3-78.7h-.3Z"/><path class="cls-8" d="M15.6,217.1c9.9-.5,4.5.5,11.7,3.6-.9,4.5,1.6,8.4,3.7,12,1.6,2,4.9-.8,6.3,0,2.8,2,0,9.7,5,9.7,4.3.2,2.5-5.9,6.8-4.4,1.9,2.7,2.3,4.8,5.7,5,2.5,1.6,2.6,3.2,6.6,4.5,1.3,5,6.9,3.9,10,5.4s2.1,1.7,6.7,3,4.6,4,7.3,1.3c6.6,3.7,12.9,9.6,21.4,6.7,2.3,0,6.7,1.5,8.5-1.5,2.6.8,4.3,2.2,6.8,3,1.8,3.3,6.4,4,9.9,5.4,11.5,4.6,17.5,5.5,29.5,5.8s1.8,1.4,2.9,1.4c4.5.1,8.6-.2,13-1.3s5,.9,4.7-3.2c4.8,4.1,4.9-.6,6.1-1.5s1.6.6,2.4.5c2.3-.9,5.7-1.5,5.8-4.3,4-1,8.3-.6,12.2-.8,3.5-.5,9.8-2.7,14.1-3.6.4,1.8-1,1.5-2.1,2-31.5,16-36.1,20.3-72.6,13-15.9-1-35.5-1.6-50.9-6.1-7.4-2.1-17.6-8.2-24.2-9.5-17.2-4-36.3-11.9-45.3-27.9,3.4-2,.9-2.7-.5-4s-1.4-3.8-3.2-.5c-3.4-5-5.8-8.5-8.2-14.2v.4Z"/><path class="cls-28" d="M62.8,34.5c-.4.4-.8,2.8-2.2,3.4-.3,1.3,1.4,1.7,1.5,1.8-.7,2.7-4.6,3.3-6,5.9-2.7.2-5.6-.9-5.3,3-6.3-2-12.7,9.3-18.7,10.8-1.5,2.4.2,2.7-2.8,2.8-2.1,3.6-5.3,9.2-8.2,12.4-2.6,4-1.6,3.5,0,6.2-1.2.2-2.4-.4-3.4.7-1.2,2-4.7,12.2-4.1,14.9-4.7,17-9,31.3-9,49.4-5.3-6-5.5-29.3-2.6-37.4,3.7-10.6,2.9-4,3.2-5,3.5-10.1,6.2-20.6,11.8-30.2,4.8-7.3,4.1-5.7,6.1-7s4.2-5.5,4.7-6.2,4.8-4.8,5.3-5.2c1.2-.9,3.9-.9,4.3-1.3s0-1.7.9-2.5c6.6-2,5.2-6.2,11-10,4.4-2.9,6-3.2,9.5-4.7s1.1-3.1,4.2-2.1v.3Z"/><path class="cls-28" d="M6.6,173.7c4.7,1.3,4.7,9.6,7,13.6,1.5,3.5,4.6,8.1,5.7,12.4s-1.4,2.4-1.4,4.3c0,6.7,4.5,7.8,4.6.4l6.7,2.2c2.9,8.4,8.1,16.1,12.7,23,3.1,5.3,1.1,3.8,3.3,4.8s2.6.5,2.7.6c.4.5-.2,2.5,0,2.9-3.5.4-1.5,4.5-5.6,4.6-5,0-2.2-7.7-5-9.7s-4.6,1.9-6.3-.1c-2.9-3.9-2.6-5.2-4-8.8-.2-1.1.9-2.5.3-3.2-6.8-3-2.9-4.2-11.7-3.6-6.4-15.1-6.8-27.5-9-43.4h0Z"/><path class="cls-10" d="M266.1,226.9c.3,6-4.5,5.6-4.1,10.6l-2.7.7.7,2.5c-.3,1-2,1.2-2.6,2-2.8,6.6-9.4,10.3-14.7,14.6-4.9,2.4-3.9-.7-6.3,3.3-4.2-1.7-8.4,2.8-13.8,3.9-6.7,1.8-16.2,4.7-22.5,3.7-.8-4.7,1.6-2,4.2-3.7l4.1-5.3c19.5-2.5,45.1-18.1,57.8-32.2h-.1Z"/><path class="cls-21" d="M4.4,151.3c3.1-.3,2.3,5.8,5.1,5.4.7,2-.5,7.6,3.8,7.5.4.5.9,4.5.9,5.1s-1.1,1.3-.7,3.3c.7,4.2,3.4,6.9,5.8,8.1.7,1-1,3.4,1.6,2.9,1.7,6.1,6.2,16.6,8.2,23.2l-6.7-2.2c0,7.4-4.7,6.3-4.6-.4s1.8-2.7,1.4-4.3c-1.1-4.3-4.1-8.6-5.7-12.4-1.6-3.1-3.7-14.7-7-13.6-1.1-8-2.3-14.1-2.2-22.5h0Z"/><path class="cls-11" d="M12.6,103.4c0,1,0,2.1,0,3-2.5,1.4-.7,3.4-.9,4.9-2.3,16.7,1.4,33.2,4.1,50,2.5,11,2,3.7,2.1,5.8s-.7,1-.7,1.8c0,1.3.9,2.7.7,4.2-2.2-.6-.6-3.4-3.8-3.8-1-8.1-.4-3.3-3.7-6.5-1.3-2.7.4-6.5-2.7-7-1.3-1.5-.6-4.6-3.4-4.5-.2-17.5,2.1-32.4,7.5-48.6.4,0,.7.4.8.7Z"/><path class="cls-10" d="M188.1,6.8c-5.2,0-10.4.4-15.8,0s-1,0-1.5,0c-7.6-2.6-21.8-3.5-29.6-.7-2.6,1.7-1,1-3.4,2.2-1.9-3.1-7.6.2-8.2-1.5v-3c1.8-.4,3.9-2.3,4.5,1.5h.7c.3-5.7,9.6-4.2,13.9-4.5,13.1-1.4,26-.9,38.6,1.1.9.7.6,3.6.7,4.9h0Z"/><path class="cls-5" d="M129.6,6.8c2.4,1.5,5.7-1.6,8.2,1.5-5,2.5-3,1.3-7.8,1.5s-11.6,6-14.5,8.8-2.1,1.1-1.7,3.2c-3,1.5-9.8.4-10.4,4.4-2.2.2-1.9-.8-5.2.7-1.5-1.1-5.5-.4-7.5,0-.7-2.6,8-3.9,8.3-8.2h3.1v-1.5c4-1.5,4.6-4.2,7.8-6l8.7-3.7c.7.1,1.8-.2,2.2,0s.5,1.8,2.6,1.5.5-1.8,1.6-2.2,3.4,0,4.8,0h-.2Z"/><path class="cls-28" d="M118.4,7.5l-8.7,3.7c-3.3,1.8-3.9,4.6-7.8,6s-2.7-1-2.2,1.5c-2-.1-23,3.5-16.6,4.9-3.4.8-6.8,1.2-7.7,5.5-1.4.9-7.2-.4-7.4,3.9-.8.3-1.3-.7-1.5-.7,5.2-13.5,40.8-26.4,51.8-24.7h.1Z"/><path class="cls-11" d="M98.8,18.8c-.5,3-4.1,4.4-6.4,6s-2.3.5-1.9,2.2c-3.2,0-7.5,3.3-9.8,5.3-6.7.2-12.4,5.7-18.8,7.5,0,0-1.8-.5-1.5-1.8,1.4-.6,1.9-3,2.2-3.4.6-.7,2.8-2.4,3.8-2.2s.7,1.1,1.5.7c.2-4.3,6-3,7.4-3.9s1.1-2.5,1.9-3.4c2-2,4.6-1.3,5.8-2.1s.4-1.6,1.3-1.9c5.7-1.6,8.4-2.3,14.5-3Z"/><path class="cls-18" d="M188.1,6.8h.8v1.4c.7.3,1.9-.1,2.2,0,1.8,5,11.3,6.2,15.9,8.5,4.3,1.7,2.5,0,2.1,2-3.8-1.2-13.4-2.8-15-3.7.7-3.3-11.9-2.9-14.4-3.1l-7.3-5.1c5.3.4,10.5,0,15.8,0h-.1Z"/><path class="cls-28" d="M129.6,3.8v3c-1.4,0-3.6-.3-4.8,0s-1,2.1-1.6,2.2c-2.1.2-2.3-1.4-2.6-1.5v-1.5c3.2-.3,5.8-1.6,9-2.3h0Z"/><path class="cls-28" d="M23.8,231.3c1.9-3.3,2.2-.6,3.2.5s3.9,2,.5,4c-1.2-1.5-2.3-2.4-3.8-4.5h0Z"/><path class="cls-10" d="M191.1,7.5v.7c-.3-.2-1.6.3-2.2,0v-1.4c1.2,0,2,.7,2.2.7Z"/><path class="cls-27" d="M289.4,169.2c-.7,7.4-4.6,20.7-7.5,27.7l-.8-1.5c5.3-13.5,6.3-31.7,4.4-45.9-.7-3.6-3-4.3-2.1-7.3l-3,.7c-.5-2.6,1.7-.5,2.5-2.4,3.1-7.1-6-28.4-7.9-36.4l-2.4-.8-4.2,5.4-3-.3c-3.9-17.3-4.1-26-14.3-42.3-9.9-15.5-.6-2.2-2.2-1.8-.6-2-3.2-6.6-5.2-6.7-1.4-3.5-1.9-8.5-3.2-12.2-1-3-1.3-1.2-1.3-1.3-1.3-3.5-3.2-7.5-5.3-10.8s-3.5-1.4-2.9-4.2c18.1,11.6,30.8,30.6,38.3,50.5,10.9,28.2,23.4,58.6,20.2,89.5h-.1Z"/><path class="cls-26" d="M209.1,18.8c.6.2,1.6,0,2.2,0,0,2.5,3.8,2.9,6,3.7.1,3.4,3.4,3.5,6,5.6,4.4,3.6,7.9,8.6,11.5,12.8s2.6,3.2,4.2,3.3c2.8,2,2.8,8,3.7,11.3-3.3-1.4-5.5-5.7-7.9-8.2s-12.6-12.8-15.4-13.5c-4.3-6.3-26.7-9.2-23.3-18,4.5.9,8.4,2,13,3Z"/><path class="cls-9" d="M218.8,22.5c4.2,1.7,8.2,4.3,12,6.7-.6,2.7,2,2.7,2.9,4.2,2.2,3.3,4,7.3,5.3,10.8-6.5-3.2-9.6-11.8-15.7-16.1-4.4-3.6-5.9-2.2-6-5.6.4,0,1.1,0,1.5,0h0Z"/><path class="cls-18" d="M211.4,18.8c1.5.7,9.1,1.4,7.5,3.8-2.5,0-7.6-1.1-7.5-3.8Z"/><path class="cls-20" d="M281.8,196.9c-5.4,10.1-7,21.5-15.7,30-12.6,14.1-38.3,29.6-57.8,32.2-4.5-1.6-5.3.7-8.6,2.2-3.1-.5-6.2-4.8-9.2-1.7-9.4,2.2-20.3,2.2-29.5,3.1,1.8-3.1-3.3-6.9-2.2-12,4.5,1.1,9,.9,13.5.8,0,2.2-1.9,4.4.4,6,2.9-1.7,5.5-1.3,8.6-1.9l2.2-4.9c12.5-1.5,33-5.1,44.4-9.9,6.1-2.2,5.4-3.3,7.6-2.7s1.7,2.5,3.5,2.1l-.6-3.3c7.2-5.3,22.5-11.5,26.3-18.3.7-.5,3.9-.2,5.1-.9-2.3-5.4,4.2-10.2,7.2-15,1.6-2.4.2-1.9.4-2.2.3-.6,2.9-3.4,3.8-5.2l.8,1.5h-.2Z"/><path class="cls-12" d="M104.8,247.1c6.1-1.2,11.7,3.8,16.8,6.9,8,5.1,31.5,8.2,37.2,8.8,10.4-.6,21.3-.9,31.7-3.1,5.2-1,1.7-1.1,2.5-1.2,1.7-.2,4.8,2.9,6.7,2.9,3.8-1.2,3.5-4.1,8.6-2.2l-4.1,5.3c-2.5,1.7-5-1-4.2,3.7-18.3,1.8-35.9,2.6-54.4,2.9-6.9-1.3-16.3-2.9-23.7-5.2s-4.2-2.2-6.8-3c-5.6-1.7-11.8-3-17.2-4.5-1.2-6.8-4.2-5.6-9.2-3.6s-2.2-5.9-3.1-7.7c-3.5-5.2-8-3.1-12.8-2.2-1.7-1.5-4.6-1.2-6.1-2.2-3.4-2.4,2.7-3.5,3.3-5.8s-.8-3.1-.7-4.7c11.1,6.6,22.3,13.6,35.5,14.9Z"/><path class="cls-5" d="M26.1,197.7l4.2,5.9,7.8,1.5c3.9,5.9,13.1,16.1,19.2,19.4,3.6,2.1,14.1,7.1,12.3,7.6,0,1.6,1.1,3.1.7,4.7-.6,2.3-6.7,3.4-3.3,5.8s4.4.7,6.1,2.2c5.6-1.2,9.1-2.5,12.8,2.2.9,1.8-2,9.8,3.1,7.7s8-3.2,9.2,3.6c-1.1-.3-2.9.8-4.1.8-2.3,0-4.7-1.3-7.1-.8-4.1-1.8-9.2-7.3-14-8-4-.6-2.1.7-3.5.5s-5.9-2.3-8-2.9c-4.4-1-5.9-5.8-9.3-5.2-1-.1-2.8-5.8-4.2-4.5,0-3.3,1.1-2.8-2.7-3.5-2.2-1-2.3-3.2-3.3-4.8-6.9-9.4-12.8-21.4-15.9-32.2Z"/><path class="cls-11" d="M196.4,268.8c.5,2.6-4.8,3.9-5.8,4.3-.8,0-2-.8-2.4-.5-1.2.8-1.3,5.6-6.1,1.5.2,4-2.2,2.5-4.7,3.2-4.4,1.1-8.4,1.4-13,1.3s-1.8-1.4-2.9-1.4c-12-.3-18-1.2-29.5-5.8s-8.1-2.1-9.9-5.4c7.3,2.3,16.3,3.8,23.7,5.2,17.8.3,33-1.9,50.6-2.2v-.2Z"/><path class="cls-11" d="M98.1,258.3c5.4,1.5,11.6,2.8,17.2,4.5-1.9,3.1-6.2,1.5-8.5,1.5-8.2,2.3-13.8-1.8-19.9-6,2.4-.5,4.8.9,7.1.8,2.3-.1,3.1-1.1,4.1-.8Z"/><path class="cls-11" d="M61.4,247.8c15.2,6.4,7.8-2.5,24,9.7-2.7,2.7-5.5-.8-7.3-1.3-4.7-1.3-3.3-1.3-6.7-3s-8.7-.4-10-5.4Z"/><path class="cls-22" d="M103.4,26.3c2.3-.2,5.4-.4,7.5-.7s.5,0,.8,0c.2,2.4-3.1,2.1-3,4.5-1.8,1.3-4.5.6-4.5,3.7-1.1.5-1.8.5-2.2.7-2.4-2.1-6.4,0-6.8,3-6,2.7-12.3,6-18,7.4-.8-1.6-2.5-.4-3.5,0-1.9.5-11.1,3.4-11.4,5.1l.6,3.3c-1.4.4-1.8-1.1-2.8-1.4-2.6-.7-4.7,3.5-4,5.9-4-1.4-7.4,4.1-6.9,6.6-.4.7-5.3,4.5-5.8,4.7-5.3,11.7-15.1,21.7-16.5,35.2h-1.1c-.3.2-.3.5-.4.7-3.8-.2-1.4-3.8-1.4-5.9h2.1c.2-1.1-.5-2-.5-2.8,2.4-5.4,11.7-23.6,17.8-27.2,2.3-7.2,5.9-11.3,9-18s1.1-1.1.8-2.2c.3,0,.6-.7.8-.7,5.7.4-1.8-1.6,6.7-5.9,1.9,2.1,5.7-1.4,7.1-1.5,4.8,0,2.1-.2,3.9-.8,6.4-1.9,6.5-1.2,12.3-5.5s2.3-1,2.2-2.7c8.1,1.6,10-6.5,17.2-5.2v-.2Z"/><path class="cls-26" d="M43.4,56.9c3.8,2.7-1.7,8.9-3.2,11-1,.9-3.3.7-4,1.7,0,6.7-5.1,11.6-9.4,16.2-3,3.8-6.4,10.6-10.5,15.3-1.4-.7.7-2.7-.3-3.7l-2.7-.7c0-.7,0-1.6,0-2.2,2.8.3,7.1-11.6,7.5-13.5,1.2,1.6,9.8-11.6,10.5-11.9,2.4-1.3,9.8-9.4,12.1-12.2Z"/><path class="cls-5" d="M54.6,45.7l-.8,2.2c-.2,0-.4.6-.8.7-2.1,1.1-1.7,1.6-3.5,1.8-1.3,1.9-1.9,1.5-4,3.4-1.6,1.5-2,2.7-2.2,3-2.4,2.6-9.6,10.8-12,12-4.2,1.5-8.8,7.2-11.2,10.5-2.7-2.1,3.8-8,5-9.9,1.2-1.5,3.5-6.7,4.1-7.2,3.2-.6,1.3,0,2.8-2.8,6.2-1.8,12.5-12.8,18.7-10.8,0-3.2,1.1-3,3.8-3h0Z"/><path class="cls-4" d="M86.1,31.5c.2,1.7-1.1,1.9-2.2,2.7-5.8,4.4-5.9,3.7-12.3,5.5s.9.7-3.9.8-5.2,3.5-7.1,1.5c.2-.2,1.5-2.1,1.5-2.2,9-3.7,13.7-7.7,24-8.2h0Z"/><path class="cls-6" d="M31.4,68.9l-9.2,11.8c-.4.4-.9,0-1.3,0-.4,2-4.6,13.8-7.5,13.5.4-2,3.2-11.6,4.1-12.7s2.2-.6,3.4-.7c0-.4-.6-1-.8-1.5,3.3-4,6.3-8.8,11.3-10.5Z"/><path class="cls-6" d="M16.4,101.1v1.5l-3.8.7c0-.4-.3-.7-.8-.7.5-1.4,1.3-4.5,1.5-6l2.7.7c.9.9-1.1,3.8.3,3.7h0Z"/><path class="cls-26" d="M56.1,45.7c0,2.2.5,2.8-2.2,2.2l.8-2.2h1.5-.1Z"/><path class="cls-27" d="M24.6,181.2c6,7,8.7,16.1,13.5,24l-7.8-1.5c-4-4.4-8.2-15.2-9.4-20.1-.2-2.1.5-2.4,0-4.5,1.1,0,3,1.4,3.8,2.2h0Z"/><path class="cls-10" d="M14.1,169.2c2.6.4,1.9,1.7,2.7,3,3.1,2.2,5,7.8,4.1,11.3-2.6.5-.9-1.8-1.6-2.9s-2.9-1.4-3.9-3.2c-1.7-3.2-2.6-6.4-1.2-8.2h0Z"/><path class="cls-9" d="M13.4,110.1c.2,2.1.9,2.2,3,2.3.3.2-1.1,1.3-1.3,2-1.1,3.6,1.2,3.1,1.3,3.7,9.2,27.9,10.4,57.7,28.5,81.9-3.5.9-3.5-1.7-4.7-2.8s-2.5-.6-3.5-1.4c-1.7-1.2-3.6-5.2-6-5.6-.8-1.6-4.9-7.7-6-9-.6-3.6-2.5-8.7-4.1-12s-.8-2.3-2.6-2.2c-4.7-12.3-4.7-26.1-6.8-38.6-1.7-10.6,0-11.7.6-17.2s-1.6-3.4.9-4.9c.2,1,.6,2.1.8,3.7h-.1Z"/><path class="cls-6" d="M24.6,181.2c-.7-.8-2.6-2.2-3.8-2.2-.5-2-1.8-4.5-3-6,.4-1.6-1.6-5,0-6,3.9.6,5.8,10.8,6.7,14.2h.1Z"/><path class="cls-26" d="M16.4,102.6c1.5,1-1.1,8-3,7.5-.5-2.9-1.1-4.1-.8-6.7l3.8-.7h0Z"/><path class="cls-4" d="M172.4,6.8l7.3,5.1c4.6.2,7.8-.2,12.2,1.3s2.7-.2,2.2,1.8c-20-1.1-21.7-5.2-41.2,2.2-3.1-2.5-8.1,1.8-11.7,2.2-2.7.7-3-.8-2.5,1.6h-3.7v-1.5h-2.5c0,0-.5.7-.5.7-2.5,0-5.3-.5-7.5.7-.7,0-1.5,0-2.2,0-.4-2.1,1-1.5,2.4-1.7,8.3-1.5,11.5-1.7,19.4-5.4s2.7.2,2.2-1.9c8-1.7,12.2.1,19.6-2.9,6.3-2.5,5.4,1.3,5.2-2.2h1.5-.2Z"/><path class="cls-18" d="M170.8,6.8c.1,3.6-3.8,1.6-5.2,2.2-2.1-2.2-5.4-1.1-7.8-1.5s-3.2-1.9-5.2-1.5l-2.7,5.3c-6.9.9-20.2,2.8-27.7,5.7-6.6,2-3.3,1.5-3.9,4.7-1.4-.1-3.3,0-4.5,0-.9-3.6,13.2-12,16.2-12,3.9-.2,2.8.9,7.8-1.5s1.6-.9,3.4-2.2c6.3-2.5,22.7-2,29.6.7h0Z"/><path class="cls-18" d="M98.1,27c-1.6.8-6.8,4.4-7.2,4.5-1.4.3-3.2-.2-4.8,0s-3.4,1.2-5.2.7l5.3-4.1c3.4-1,8.4-2.7,12-1.2h-.1Z"/><path class="cls-9" d="M111.6,22.5l-.8,3c-2.1.3-5.2.5-7.5.7.2-3.2,5.8-3.3,8.3-3.7Z"/><path class="cls-4" d="M113.8,21.8h1.5v2.2c-1.3.3-3.5,1.9-4.6,1.5l.8-3c.6,0,1.4-.7,2.3-.7Z"/><path class="cls-11" d="M101.8,17.3v1.5h-2.2c-.5-2.5,1.1-1.1,2.2-1.5Z"/><path class="cls-13" d="M194.1,15c.9.2,1.6.6,2.2.7-1.7,10.4,18.3,10.8,23.3,18-8.5-2.1-21.5-5.2-27-12.3-1.6-.8-2.5-.2-3-.4-1.2-.5-2.5-2-3.8-2.2.1-2.4-3.1-1.7-2.2-4.5,3.1.3,7,.2,10.5.7Z"/><path class="cls-17" d="M248.8,64.4c1.6-.4,1.6.9,2.2,1.8,9.9,15.5,8.9,20.7,13.5,37.1l-.7.4.7,1.1c3,21-1.3,52.1-12.8,68.9-5.6,0-6-3.2-7.4-7.7l5.1-6.9.7-14.9-2.4-1.2-.5-1.5c1.9-.1,2.7-2,4.2-2.9s4-.6,4-2.7-4-5.1-5.1-2.1,0,4.5-3.2,2.5c1-3.1.9-6.3-.7-8.8,3-4.7.4-12.1.7-17.1,5.8-14.3,5.4-31.2,1.4-46.1h.3Z"/><path class="cls-7" d="M265.4,108.6l3,.3,4.2-5.4,2.4.8c1.8,7.9,10.9,29.3,7.9,36.4s-3-.2-2.5,2.4l3-.7c-.9,3,1.6,5,2.1,7.3.8,3.6,1.1,13.2.9,17.1-.4,8-2.5,30.7-9.1,34-1.2-.5-1.1-2.2-1.7-2.8-1.1-1.1-5-.3-4.4-3.5.2-2.3,6.3-3.7,8.3-3.4.9-3.3-1.8-1.8-3.1-3.5s-3.2-7.9-1.4-9.1c4,.5,3-.6,4.4-2,2.5-2.4,5.4-2.4,3-7.3s-2.7-3.8-3.4-5c-1.3-2.1-4.1-2.5-1.5-5.3s5.1-2.3,4.1-5.5-6.6-3.2-8.2-2.7c-.4-1.5,1.5-1.9,1.4-3.2-.4-4.8-7.9-2.8-2.1,2.5-4.3-1.3-7.3,3.8-11.2,1.5,2.9-11.5,4-31.1,3.9-42.9ZM279.6,196.2c.3-4-3.4-4-3,0h3Z"/><path class="cls-29" d="M219.6,33.7c2.8.6,12.9,10.8,15.4,13.5s4.6,6.8,7.9,8.2c1.5,3.4,1.6,15.2,1.4,18.1-.9,3.7-.6,4-.6,8s-1.2,3.2,0,5.2h-1.5c0-.5-.8-1.9-.3-3l-2.7-.7c-6-8.4-5.3-14.9-12.8-22.5-6.4-7.2-3.6-3.4-5.2-5.2-4.9-5-4.5-4.8-4.7-10.7-.5-1.9-3.1-3.5-3.4-4.8-.7-2.3.1-5.8-1.6-8.5,3.3,1.2,5,1.5,8.2,2.2v.2Z"/><path class="cls-26" d="M243.6,57.7c10.7,7.3,8.3,33.3,6.7,44.9l-3.7-6.4c-1.1-5,3.5-12.3-3-14.6,0-4-.4-4.4.6-8s-.3-13.4-.6-15.9Z"/><path class="cls-7" d="M264.6,104.8l-.7-1.1.7-.4c.6,2,0,1.1,0,1.5Z"/><path class="cls-18" d="M261.6,151.3c3.9,2.3,6.9-2.8,11.2-1.5-5.7-5.3,1.7-7.3,2.1-2.5s-1.8,1.8-1.4,3.2c7,0,12.5,3.4,4.1,8.2-2.6,2.9.1,3.2,1.5,5.3,4.3,6,6.6,8.6.4,12.3-2.5,2.4-.3,2.5-4.4,2-1.8,1.2.2,7.6,1.4,9.1s3.9.2,3.1,3.5c-2-.3-8.1,1.1-8.3,3.4-.6,3.2,3.3,2.4,4.4,3.5s.5,2.4,1.7,2.8c.1,3.7-7.2,9.8-8,12.7-.7,2,.6,2.9.4,4.5-1.2.7-4.4.4-5.1.9-5.9,8.1-18.1,12.5-26.3,18.3l.6,3.3c-1.8.4-2.2-1.8-3.5-2.1-2.2-.6-5.5,1.9-7.6,2.7-12,5-32.8,8.8-45.9,9.9.7-1.7.7-6.2,2.2-7.1s7.5-.8,8.2-3.1c1.2-3.6-4.3-5.8-2.9-10,23.2-.6,35.1-19.3,47.5-35.7,10.9-11.9,20.5-29.4,24.6-43.7h0Z"/><path class="cls-6" d="M186.6,230.6h3c-1.3,4.3,4.1,6.4,2.9,10s-7,2.4-8.2,3.1-1.5,5.4-2.2,7.1c-15.1,1.9-31.8,0-45.8-5-5.6-2.6-2.6-2.5-3.8-3.4-2.4-1.8-6.1-3.7-6.8-6.7,8.1-2.4,18.2-1.9,26.5-3.9,4-1,8.2-3.3,12.2-3.6,6-.4,14.6,2.3,22.1,2.3h.1Z"/><path class="cls-7" d="M104.8,247.1c-.9-7.6,11.6-5.5,13.2-2.2.9,1.4-.4,4.6,1.5,5.2s2.8-1.1,3.8-1.3,4.4,1.1,6.5.6l2.7-6.8c5.9,6.8,17.8,6.8,26.3,8.3-.9,5.4,4,8.9,2.2,12h-2.2c-1-2-4.3-3.4-5.2-.7-9.6-1.1-23.6-3.6-32-8.1-11-5.9-8.9-7.6-16.8-6.9h0Z"/><path class="cls-7" d="M182.1,250.8h1.5l-2.2,4.9c-3.1.5-5.7.1-8.6,1.9-2.3-1.6-.4-3.8-.4-6,3.3,0,6.5-.5,9.8-.7h-.1Z"/><path class="cls-18" d="M30.6,190.2c4.2,1.6,4.3,6.1,9.5,7,.8.8,1.2,3.7,4.7,2.8,9.7,9.8,16.6,19,29.9,24.3,15.1,6.6,34.4,13.5,51,11.6.7,3.1,4.3,4.9,6.8,6.7l-2.7,6.8c-2.2.5-5.3-.8-6.5-.6s-1.7,1.9-3.8,1.3-.7-3.9-1.5-5.2c-3.7-4.2-13.5-4.8-13.2,2.2-13.2-1.8-24.2-8.3-35.2-15s-.8-1.1-1.7-1.7c-16.8-7.4-31.4-23.3-37.3-40.3h0Z"/><path class="cls-20" d="M158.8,262.8c-2.4,0-3.7-.6-5.2-.7.9-2.7,4.3-1.3,5.2.7Z"/><path class="cls-23" d="M158.1,15.8c-.3,2.5.9,1.3,2.3,1.1,7.1-.8,18.4.6,25.5,1.9s2.6,1.7,3.8,2.2c2.7,5,8.6,9.1,11.1,14s3.2,7.6,3.9,10.7,0,.5,0,.7c-4.6-1.2-10-8.6-13.8-9.7-.8-1-5.7-9.2-6-9.7-1.3-2.6.4-6.3-4.5-6-7.9,1.1-1.2,7.1-12,1.5-7.4-1.3-13.7,3-21.1,3.6s-12.6-1.2-17,1.7-2.1,11.9-12.1,12.6-4.1-.8-6-.8h-6.7c-2.2,0-4.9,1.2-7.4.8-2,.6-2.9,4-4.2,4.7-16.7.5-14.2,1.2-27.8,10.1,1.7-7.1,12.6-11.7,18-12.7,2.6,2.2,11.6-4.9,14.6-4.4,0,0,21,0,21,0,1.8,0,3.3-7,4.2-8.5,3-5.1,14.9-6,20.4-6.4,1.3-.5-.4-1.4,1.3-2.2h3.7v-1.5c3.1-2.1,5.3-2.7,9-3.7h-.2Z"/><path class="cls-3" d="M50.8,50.2l1.5.7c-3.1,6.7-6.7,10.8-9,18-6.2,3.9-15.1,21.2-17.8,27.2,0,1.7.8,1.8.5,2.8h-2.1c0,2.2-2.4,5.8,1.4,6,.6,2.1-2,1.5-2.9,2.3-1.7,5.5-.6,14.4.6,20.1-1.4.7-2.1,2.3-3.8,2.2-1.2-4-2.1-7.5-3-11.5s-2.5-.1-1.3-3.7,1.6-1.8,1.3-2c-2.1,0-2.8-.1-3-2.3,1.7.6,4.7-6.6,3-7.5v-1.5c4.2-4.7,6.6-10.4,10.5-15.3,4.6-5,10.2-10.8,9.4-16.2.7-.9,3-.8,4-1.7,2.1-2.9,6.6-7.9,3.2-11,.2-.3,1.2-1.9,2.2-3,1.7.2,3.1-.3,3-2.2.6-.9,1.3-1.5,2.3-1.5h0Z"/><path class="cls-15" d="M77.1,45c-4.8,2.3-9.6,5.1-11.2,10.5l-1.5,1.5c-8,2.6-10.9,9-15.8,14.6s-3.5,2.6-4.9,4.1c-6.3,6.9-11,14.8-13.7,23.8-2.7,9-.8,7.4-3.2,9.9-1.2-15.4,10.4-27.5,16.5-40.4.6-.2,5.6-4.3,5.8-4.7.5-3.6,2.5-7.6,6.9-6.6-.7-2.4,1.4-6.6,4-5.9s1.4,1.8,2.8,1.4l-.6-3.3c.3-1.6,9.5-4.6,11.4-5.1,1.9-.5,2.9-1.5,3.5.2Z"/><path class="cls-15" d="M138.6,21c2.2,0,2.1.6,5.2,0l.8.7c-.1.4.4,1.4-.5,1.5-5.5.5-17.4,1.4-20.4,6.4s-2.5,8.5-4.2,8.5h-21c-2.2-.7-13.9,7.3-14.6,4.4,5.2-2.5,13.2-6.1,18-8.2,2.5-1.3,4.9-.4,5.2-3.7,7.7-4,18.7-7.4,27.4-8.2,8-.8,3,.9,2.6-1.5h1.5Z"/><path class="cls-19" d="M131.8,20.3c.5.3,4.3,1,5.2.7.4,2.4-1.2,1.3-2.6,1.5-8,.8-18.8,3.8-25.9,7.5,0-2.4,3.2-2.1,3-4.5,1.1-.2,2.6-1.2,3.8-1.5,1.8-.5,6.4-.5,6-3,1.1.2,3.2-.6,3.5.7,0,0,.9,0,.9,0v-1.4c2,0,4.1-.2,6.1,0Z"/><path class="cls-19" d="M101.8,34.5c-2.1,1-4.4,2-6.8,3,.4-3.1,4.3-5.1,6.8-3Z"/><path class="cls-19" d="M107.1,30.7c0,2.5-1.6,2.3-3,3,0-2.4,1.5-2.3,3-3Z"/><path class="cls-26" d="M53.1,48.7c.4,1.1-.5,1.6-.8,2.2l-1.5-.7c.6-.2.9-1,2.3-1.5Z"/><path class="cls-26" d="M48.6,51.7c0,1.9-1.3,2.5-3,2.2,1.6-1.5,1.9-1.4,3-2.2Z"/><path class="cls-13" d="M35.8,164c3.2,2.8,5.1,6.8,7.6,10,2,2.4,9.8,9.2,13.4,10.9.1.3-.7,4.8-.8,5.2,4.6.2,5-1.4,6.8,3.3,5.6,3.1,8.2,1.9,8.8,9.2,0,1.2-2.3,3.4-1.3,5.5,3.3-1.7,3.8.4,6,1.1,4.7,1.7,8.3,1.9,9.9-2.5,1.7-1.2,5.8,1,7.8,1.3,5,.7,10.3,1,15.3,1.5s1,0,1.5,0c.6,4.6,7.2,5.9,8.2,10.5-8.3,2.1-25.5,2.8-33.2,0-3.2-2.1-.4-1.6-.9-1.5-5.9,2.3-21.3-6.9-27.3-9.4-2.3-1.2-4.3-4.4-7.5-4.1-14.8-13.7-18.3-29.2-23.2-47.9,5.6-1.2,2.2,5.8,9,6.8h0Z"/><path class="cls-22" d="M25.4,132.5c3.1,9.7,4.9,19,9.8,28,2.9,6.5.6,3.3.7,3.4,1.3-.1,1.4.1,1.5,1.5-.6-.6-.6-.5-1.5-1.5s-3.1-1.1-4.1-2.3c-1.6-2-.5-5.3-4.9-4.5-2.4-9-4.8-19-7.5-27.7,1.7,0,2.4-1.6,3.8-2.2.3,1.6,1.9,3.9,2.2,5.3Z"/><path class="cls-19" d="M183.6,14.3c-.9,2.8,2.4,2.1,2.2,4.5-7.1-1.3-18.4-2.6-25.5-1.9s-2.6,1.3-2.3-1.1c7.7-4,17.3-3.2,25.5-1.4h.1Z"/><path class="cls-9" d="M146.1,12c.5,2.1-1.1,1.3-2.2,1.9-7.9,3.7-11.1,3.8-19.4,5.4-1.4.3-2.8-.3-2.4,1.7-1.2,0-2.7,0-3.8-.7.8-4.8,23.8-8.1,27.8-8.2h0Z"/><path class="cls-6" d="M165.6,9c-6.2,2.5-9,1.8-15.8,2.2l2.7-5.3c2-.3,3.4,1.2,5.2,1.5,2.5.4,5.8-.7,7.9,1.6Z"/><path class="cls-29" d="M152.8,17.3c-.9.4-2.3,1.7-3.8,2.2s-1.9-.8-1.5,1.5c-1.7.1-1.7-.2-3.7,0-3.2.6-3,.1-5.2,0-.4-2.4,1.2-1.2,2.5-1.6,2.9-.3,10.2-5.1,11.7-2.1Z"/><path class="cls-29" d="M131.8,20.3l.5-.6h2.5c0,0,0,1.4,0,1.4-1.4,0-2.7-.7-3-.7h0Z"/><path class="cls-29" d="M125.8,20.3v1.4c-.8,0-1.2.1-1.5-.7l1.5-.7Z"/><path class="cls-29" d="M121.4,21c.4,2.5-4.2,2.5-6,3v-2.2c.9,0,2,0,3,0,1.7-.4,1.5-.9,3-.7h0Z"/><path class="cls-4" d="M119.8,21s-.7.7-1.5.7v-1.5l1.5.7h0Z"/><path class="cls-22" d="M211.4,31.5c3,7-1.1,6.5,5,13.3-.1,5.5.4,7.3,4.7,10.7-7.1.7-9.8-8.2-16.5-9.7-1.2-10.2-9.4-16.8-15-24.7,3.5-.8,5.2,3.2,8.5,5.4,3.3,1.9,9.5,3.7,13.3,5.1h0Z"/><path class="cls-4" d="M247.4,136.3c3.1,2,2.5-.8,3.2-2.5,1.1-3,5.1-.8,5.1,2.1s-2.7,1.8-4,2.7-2.3,2.8-4.2,2.9l.5,1.5,2.4,1.2-.7,14.9-5.1,6.9c1.4,4.5,1.7,7.8,7.4,7.7-5,9.4-7.9,13.4-14.8,21.2-13.9,18.7-26.1,36.5-50.5,35.7-.2-5.3,6.9-2.7,6.7-8.6-.4-7.6-5.6.4-9.7-12,3.1-3,8.2-4.6,9-9.4,2.9-1.4,6.4-4.9,8.3-5.6,5.9-2.1,7.1-1.9,12.7-5.6s14.8-9.6,17.1-14.1c1.6-3.1,4.8-6.1,5.8-8.4s-.2-1.7,2.2-4.5c5.8-7,7.6-17.8,8.7-26.1h-.1Z"/><path class="cls-3" d="M243.6,81.6c6.5,2.3,1.9,9.6,3,14.6l3.7,6.4c-.6,3-2.8,5.4-2.9,7.9-.3,3.8,2.4,14.5-.7,17.1,1.7,2.2,1.7,6,.7,8.8-1.2,8.3-2.9,19.2-8.7,26.1s-1,1.7-2.2,4.5c-4.5,8.6-14.1,17.6-22.9,22.5-.7-3.8,3-5.4,4.1-7.5,2.2-4.2,1.9-8.8,6-12.7,8.7-4.5,4.8-7.5,4.1-14.2,2.7-.8,1.4-.7,2.2-2.2s1.5-4.2,1.6-4.4c.2-.3,1.7-.2,2.5-.8,12-16.3,8.4-33.9,7.1-52.4-1-16.9,0-3.1,0-4.5s.8-1.8.8-3.7h1.5c-1.2-2.2,0-3.8,0-5.5Z"/><path class="cls-18" d="M279.6,196.2h-3c-.4-4,3.3-4,3,0Z"/><path class="cls-15" d="M226.4,60.7c6.4,7.2,6.5,10.1,10.2,18.7,2.8,3.1,3.8,7.1,3.4,11.3h1.5v4.5c-2.5-.4-1.9,3.8-2.5,5.4-5.3,8.3,0,6.3-6.5,14.8-.5-1.7-.8-15.1-3-14.2-.6-1.8-.4-4.4-.8-6,3.1-.2,4.7-5,4.2-7.5s-1.6-3-1.8-4.3c-.3-1.9.5-4.6-.3-7.2s-2.9-2.9-3.9-4.3c-2.3-3.2-3.4-6.8-7.2-8.9,1.7-.4,4.4-2.3,6.8-2.2h-.1Z"/><path class="cls-19" d="M221.1,55.4c1.7,1.8,3.4,3.2,5.2,5.2-3.6.6-8.7,3.2-11.7,3-4.4-1.7-3.5-13.3-10.2-15,0-.9,0-2.2,0-2.9,6.8,1.5,9.5,10.5,16.7,9.7Z"/><path class="cls-22" d="M242.1,86.9c0,1.9-.7,3.2-.8,3.7h-1.5c0-2.5.2-5.1-.8-7.5l2.7.7c-.5,1.1.3,2.5.3,3h0Z"/><path class="cls-26" d="M192.6,200.7c-.8,4.8-5.9,6.4-9,9.4,4.5,11.7,9.1,6.5,9.7,12,.2,5.9-7,3.2-6.7,8.6-34.6-4.8-18-.5-46.5,3-.1-2.1.1-5.2,2.2-5.7,1.1-1.9.2-4.9,3.5-5.4s-.6,3.9,2.7,5.3,3,.4,4.5.8,1.2,2.1,3.9-.2,2.2-1.9,1.9-3.7c-1.8.1-4,0-3.8-2.2,3.2.8,2.3-2.2,3.2-4.6,1.8-5.2,2.3-6.3,6.9-5.1,2.4,0,5.2-1.7,4.9-4.5,6.3-1.1,16.7-4.7,22.5-7.5v-.2Z"/><path class="cls-26" d="M50.1,205.1c3.2-.4,5.3,2.8,7.5,4.1,4.8,2.1,24,12.6,27.3,9.4,3.4,5.8,26.3,2.4,32.6,2.2,1.7,12.4,8.4,7.2,9.8,14.2-24.4,4.1-61.7-10.4-77.2-30h0Z"/><path class="cls-3" d="M170.1,208.1c.4,2.8-2.4,4.5-4.9,4.5s-3.7-1.4-4.9.5-1.6,3.7-2,4.6c-.9,2.4,0,5.4-3.2,4.6-.2,2.3,1.9,2.4,3.8,2.2.3,1.8-.6,2.7-1.9,3.7-2.8,2.3-2.3.6-3.9.2s-3.1-.1-4.5-.8c-3.3-1.5.5-5.8-2.7-5.3s-2.4,3.5-3.5,5.4-1.3.4-1.7,1.4c-.6,1.4-.6,2.9-.5,4.3-4.2.6-8.5,1.1-12.8,1.5-1.2-6.7-8.4-2-9.8-14.2,1.7-1.4,5.3-.5,7.5-.7v-1.5c3.3.2,9.3-.3,11.7-2.2,4.4-1,11-1.2,13.8-5.3,7.1.6,12.7-2.2,19.5-3h0Z"/><path class="cls-24" d="M204.6,46.5c-.4,2.9,1.2,4.8,2.2,7.4l-4.3-4.5c-4.5-.5-6.8-3.7-10-6.3-4.6-3.3-10-8.6-13.1-12.3-3.8-2.1-5.6.4-8,0s-.8-1.5-1.7-2.2c-7.4-5.6-14.4.2-21.7.7s-5.3-.9-8.3-.8c-8.2-.2-11,3.2-12.3,10.5,0,0-.8,0-.8,0-11.7,7.4-6.5,5.9-20.5,5.3l-1.6,3.7c-2.3,1.1-4.2.7-6,.1-7.9-3.7-14.7,7.6-21.9,7.3-5.7.9-3.4,0-5,.2-3.1.7-12.1,9.4-12.9,12.6-.9,4.6.5,5.6-2.5,8-3.5,7.7,3.2,11.8-2.4,19.7-2.5,6.9-7.1,15.6-6.8,22.9,1.6,13.9,2.1,29.7,7.5,42.3-2.4-.9-3.8-.6-6.5-2.5-3.5-2.8-13.1-7.3-13.1-11.6-.3-.4-3.3-.8-4.1-1.9s-.3-4.4-3.2-4.3c-.3-1.4-.2-2.9-.8-4.5,2.3.4,1.3-1.1,1.6-2.5.9-4.6,2.3-5.4,3.5-8.6.9-6.5,3.6-9,8.9-11.4,6.2-3.6,1.9-4.4,1.9-7.1s2.4-4.2,2.2-6.7-2.7-4-2.2-6.4c3.8.3,2.5-2.2,3.3-4.5s2.2-3.1,2.5-4.3c.5-1.7,0-3.2.7-5.2,1.2-3.1,7.4-12.9,9.6-15.9s5-3.8,5.6-6.8c6.3-4.4,10.9-9.6,19.2-11.2,7.9-1.1,8.1.6,10.1-.4,2-1,2.2-4.2,4.2-4.7,7.4-.8,12.8-1.2,20.1,0,15.8-2.5-.3-17.6,29.1-14.3,5.3-.4,13.7-4.9,21.1-3.6s3,2.7,6,2.3,2.8-3.6,6-3.8c4.9-.3,3.3,3.4,4.5,6s5.6,9.3,6,9.7c5.1,2.4,8.5,7.8,13.8,9.7h.1Z"/><path class="cls-19" d="M145.4,21c-.1.3-.7.6-.8.7l-.8-.7c1.6-.3,1.1,0,1.6,0Z"/><path class="cls-15" d="M149.1,19.5v1.5h-1.5c-.4-2.3.8-1.2,1.5-1.5Z"/><path class="cls-19" d="M26.8,104.1c.5,7.7-2.1,13.1-1.5,21.3.4,6.6,1.9,5.2,0,7.1-3.4-6.2-4.8-19.2-2.8-25.3.8-.7,3.8-.4,2.9-2.3.1-.2.2-.5.4-.7h1.1,0Z"/><path class="cls-23" d="M64.4,56.9c-.6,2.9-3.9,4.5-5.6,6.8s-8.3,12.8-9.6,15.9-.3,3.5-.7,5.2-1.9,2.7-2.5,4.3c-.8,2.4.5,4.8-3.3,4.5-.5,2.4,2.1,4.3,2.2,6.4s-2.3,5.2-2.2,6.7c0,2.7,4.4,3.5-1.9,7.1-3.1,1.8-5.3,2.4-7.5,6s-.8,3.7-1.4,5.4c-1.1,3.2-2.5,3.9-3.5,8.6s.7,2.9-1.6,2.5c-.3-1-1-2.2-1.5-3.7,1.9-1.9,0-5,0-7.1-.4-6.6.8-10.2,1.5-16.1,2.4-2.5,2.3-7,3.2-9.9,3.3-11,9.4-20.8,18.6-27.9,4.9-5.6,7.7-12,15.8-14.6h0Z"/><path class="cls-22" d="M56.8,184.9c.5.3,4.5,1.4,4.8,1.4,1.1-.2,1.4-2,2.9-2,2.4,0,3.1.3,3.6,2.1s0,2,2.2,2.2,1,0,1.5,0c4.1,4.2,14.1,6.5,17.8,8.9,1.2,0,1.8-1.5,2.8-1.3,5.1,5.1,10.3,2.1,16.9,6.4,6.1,3.4,10.3,4.5,13.8,7s1.2,2.8,3.9,3c7.2.4,6.4-6.5,11-8.4s4-.3,6-.7c3.6-1.6,11.7-2.9,11-7.3,2.2-1.8,8.1-1.4,10.7-1.7,3-1.2,2.6-3.4,5-1.4-1.2,2.9-3.6,4-6.1,5.7.6,2.7,2.2,4.8,1.6,7.8-3-.8-4.7,1.6-7.3,2.1-2.3.7-9-.9-8.4,2.4-2.8,4.1-9.4,4.3-13.8,5.3s-1.9,1.1-3.1,1.4c-2.5.5-6,1-8.6.8-6.8-1.3-1.4-8.9-15.8-9l-2-2.9-4.8.6v-4.5c-3-.9-4.2,2.4-6.5,2.9s-4.7-2.6-7.7-2.9l.7-3c-4.4,4.2-5.5-2.6-10.3,4.5-6,1.5-4.6-5.9-6.5-8.1-3.7-3.6-8.7-1.5-9.9-7-1-.9-5.7-1.3-5.7-4.4h.3Z"/><path class="cls-15" d="M27.6,140.8c4.7.6-.1,4.6,7.3,6.2.7,4.6,9.3,8.6,13.1,11.6,2.6,1.9,4.1,1.6,6.5,2.5s.5,1,2.2,1.5c3.9,12.3,16.2,18,27.8,20.9.7,2.7,4.9,2,4.5,4.5-12,3.3-8.4,1.4-18.7.7,0-1.5-.8-2.2-2.2-2.2-.4-1.8-1.2-2-3.6-2.1s-1.8,1.7-2.9,2c-10.4-1.6-18.8-13.1-24.3-20.8l-.2-1.3c-.4-.3-1.2,0-1.3-.2-1.5-7.8-7-15.3-8.2-23.3Z"/><path class="cls-29" d="M56.8,185.7c1.1,2.6,4.3,2.5,5.7,3.7s.7,2.5,1.6,3.1c1.8,1.3,7,2.3,8.3,3.9s.5,9.5,6.5,8.1c5-7.3,5.7-.2,10.3-4.5l-.7,3c3,.3,4.5,3.5,7.7,2.9s3.5-3.8,6.5-2.9v4.5l4.8-.6,2,2.9c-5-.5-10.4-.9-15.3-1.5s-6.1-2.5-7.8-1.3-.9,3.2-3.5,3.6-4.7-.6-6.4-1.1-2.7-2.8-6-1.1c-1-2.1,1.4-4.3,1.3-5.5-.9-7.8-3.2-5.8-8.8-9.2-1.1-1-.7-2.5-1.5-3-1.1-.8-3.9-.1-5.3-.3l.8-4.5-.2-.2ZM81.8,207.4c0-1.2-1.8-1.2-1.8,0,0,1.2,1.8,1.2,1.8,0Z"/><path class="cls-29" d="M125.1,218.6v1.5c-2,0-4-.1-6,0-1.1-4.6-7.6-5.9-8.2-10.5,14.4,2.4,6.8,7.2,14.3,9h-.1Z"/><path class="cls-13" d="M230.1,152.8c-.8,1.5.5,1.5-2.2,2.2-.4,3.7,3.2,6.1.6,10.7s-3.4,2.2-4.7,3.5c-4.2,3.8-3.8,8.5-6,12.7s-4.8,3.7-4.1,7.5c-5.6,3.7-6.8,3.5-12.7,5.6s-5.4,4.2-8.3,5.6c-9.4,5-22.9,7.3-32.7,9.7-5,1.6-6.3.8-9.3.8-.3-3.4,6.1-1.7,8.4-2.4,2.3-.5,4.3-2.8,7.3-2.1.6-3-.9-5-1.6-7.8,2.4-1.7,4.9-2.8,6.1-5.7,16.1-2.9,38.1-13.5,46.8-28.5,5.2-9.7.5-2.6,1.2-3.7,3.2-2.8,4.9-5,9-6,.1-1.6.5-2.3,2.2-2.2h0Z"/><path class="cls-22" d="M241.4,95.1c1,17,4.5,29.8-3.5,46.2s-.6,4-3.6,6.2-2.3.6-2.5.8-.8,2.9-1.6,4.4c-1.8,0-2.1.7-2.2,2.2-2.1.6-4.3,1.7-6,3,5.1-10.5,10.2-27.4,9.8-38.2.2-1.6.8-2.7.8-4.5,6.3-8.3,1.2-6.6,6.5-14.8.6-1.6,0-5.8,2.5-5.4h-.2Z"/><path class="cls-24" d="M209.1,65.2c9.5-2.6,6.4,10.7,13.8,14.2,1.1.8,3.1.9,3.8,2.2,1.6,3.1-.9,7.3-.4,10.1s2,2.3,2.3,3.4.1,4.2.8,6c-.8,2.9-2.7,2.5-4.1,3.8-3,5.3-4,1.3-7.6,3.7,0,0-3.4,10.5-3.4,10.5-2.8.1-8.9-3.7-11.2-4.9-2.6-1.8-8.6-13-12.1-10.5s-.7,1.4-.8,2.3c-.6,6.9,5,11.4,7.9,16.9s-1.7,5.8-3.4,7.8c-3.5,4.2-10.3,8.7-11.2,13.9s.1,1.6,0,2.2c-3.2,1-9,3.1-9.2,6.6-4.7,2.6-12.8.6-16.3,5.1-5.1,7.4,1.3,11,6.6,15.7.3,1.5-2.4,5.2-2.8,6.8-1.1,4.7.9,6.1-5.9,6.9s-6.9.7-9.7.9-6.6-2-9.6,0,0,2.3-2.9,1.3c-5-1.7-3.8-.5-8.4-.5s-13.9-1.1-19.5,0-2.8,2.1-4.9,1.5c-2.1-2.7-3.5-3.2-6.8-3.7,1.1-2.1-12-7.1-12.8-9.3-1.5-2-2-5.4-6.3-4.9s-2.9,3.7-6.4-1.1l-4.5-7.9c2.2.3,6.2.9,8.2.7,1.6,8.6,5.8,3.8,11.5,7.6,3.2,2.4,1.2,2.1,1.6,2.2,3.4,1.1.7-3.7,3.1-4.5s3.2,1.6,5.1,1.5c6.4-2.9,8.7-3.4,12.4,2.7,0,1.4-1.7,1.8-2.1,3-1.1,3.4,3.7,8.3,5.5,4.7s-1.2-5.7-.3-8.2c2.9-1.2,6.4-.4,9.2-1,6.7-3.5,5.2-4.6,13.3-2.9.8-4.6,5.5-6.4,9.8-6-2.7-5.1,3.1-9.2,5.6-13.5.9-3.8,3.5-12.7,7.5-13.5,1.4,0,5.2,5.3,7.9,6.4s13.1,3.2,14.1,2.5l13.2-14.9c3.5-5.6-1-7.1-1.5-11.2s.5-2.5.3-3.9c-.3-3-2.5-15.1-4-17s-6.6-3.1-.5-5.1,13.7,0,20.7,3.5l3.1-5.2c15.7,6.1,2.7-8.8,11.5-10.6,1.1-1.8-6.1-14.9-8.9-14.1-.4-.2-.5-1-1.5-1.5v-.7h.2Z"/><path class="cls-16" d="M231.6,109.3c.6,3.9,1.3,6.8,0,10.5-4.9,4.3-7.1,11.7-13.2,14.8-5.4,3.3-9.3,6.6-14.5,10.2s-4.8,1.4-5.1,3.1c1.8,6.3-2.1,5.9-4.8,10.2-1.1,2.4-.6,5.4-2.8,8.4s-4,2.5-5.3,3.7-.8,3-2.2,3.8c-2.2,1.6-8.7-2.9-8.2,1.5-3.3,1.7-1.6,1.4-3,3.7-.7.4-2.9,0-4.2,1s-1.9,7.8-2.9,9.8-5.7,1.8-5.6,4.5c-8.3,2.8-15.7,2.9-24,3,.7-4.8,14.5-2.8,18.4-3.8,6.3-.6,8.5-7.1,11.3-9.6.7-1.1,0-3.5,1.2-5.5,1.8-3.4,7.6-9,10-12.5,2.5-3,2.7-8.6,4.9-7.4,3.1,5.7,6.7-5.7,8.2-7.8,0-3.2-4.9-1.2-6.8-1.1.5-1.6,1.1-3.7.8-5.2,2.1.4,1.6-1.8,2.6-3,8.1-9.3,11.7-9.6,22.8-12.3,3.6-1.6,2-2.8,3-3.7s5.6-2.4,6-1.9c-.7,7,4.8,1.8,7.7.1,2.5-2.2,1.6-6.4,2.7-9.3l2.3-.4c1-.6-2.4-5.2.8-4.5v-.3Z"/><path class="cls-23" d="M231.6,109.3c-3.2-.7.2,3.9-.8,4.5l-2.3.4c-1.1,2.9-.2,7.1-2.7,9.3-4.4,3.5-8.4,5.7-7.7-.1-.3-.5-5.1,1.2-6,1.9s-1.6,3-3,3.7c-10.9,2.6-15.8,3.5-22.8,12.3-1.5,1.7-.5,3.4-2.6,3,.6-7.2,17-14.7,14.6-21.7-2.9-5.5-8.5-9.9-7.9-16.9s0-1.7.8-2.3c3.5-2.5,9.5,8.7,12.1,10.5,3.8,2.2,8.2,4.9,11.2,4.9l3.4-10.5c2.8-1.9,6.3.9,7.6-3.7,1.4-1.2,3.3-.9,4.1-3.8,2.5.9,1.6,5.9,2.2,8.2l-.2.3ZM219.6,116.1c1.6.5,4.8-.8,4.5-2.6-.5-2.6-5.6-.3-4.5,2.6ZM221.1,119.8h-3c-1.1,6.1,4.6,1.6,3,0Z"/><path class="cls-23" d="M219.6,62.9c3.8,2.2,4.9,5.8,7.2,8.9s3.5,2.9,3.9,4.3c.8,2.5,0,5.3.3,7.2s1.5,2.8,1.8,4.3c.5,2.5-1.1,7.3-4.2,7.5-.3-1.1-2-1.7-2.3-3.4,0-4,3.4-12.2-3.4-12.3-8.2-5.3-4.2-16.4-13.8-14.2-1-3.6-.9-7.3-2.2-11.2s-1.9-3.1-2.2-5.2c9.3,3.5,3.8,18.8,15.1,14.2h-.2Z"/><path class="cls-14" d="M127.4,39c4.3-5.7,17-6.6,11.4-7.3,2.1-1.7,7.3,1.2,9.2,1.2,5-1.7,10-2.1,15.3-2.2l1.5,5.2c-4.1-.3-9.1,1.2-13.9.8s-4.6-1.2-6.8-1.5c-4.1-.4-12,2.3-15.3,4.8s-.5,3.2-.8,5.9c-2.5,6.2-4.7,10.7,4.5,10.9-3.6,8.5-17.1-2.6-23-3.6-9.3-1.6-12.5-1.7-18.1,1.8-2.3,5.9-4.8,6.9-11.2,7.2.5,9.1-11.5,6-9.7,11.4,1,3.8,3.8,2.4,2.8,5.3s-2.1,1.3-2.9,2.4-1.3,5.3-2.3,6c-1.5,1.1-5.3-.8-6.8,2.2s1.1.8,1.5.7c1.4,0,2.4,0,3.7.4,1.8,8.1-8.7,1.8-11.1,11.7-2.4,5.3,0,7.6-.2,13.3.2,8.6,0,9.5-2.2,15.8,1.4,7.3-.2,3.3-1.6,8.9,1.8,5.4,10.6,19.8,16.6,22.4,1.7.6,4.9-.4,6.7,1.1-3.1,1.7-17.9-.2-20.1-3-5.3-13.4-6-27.4-7.5-42.3-.4-7.3,4.3-16,6.8-22.9,1.7.4,1.6-.9,2.2-1.9,2.8-4,2-4,3.2-8.1s1.6-1.9,1.9-3.3c.9-11.5-2.2-14.8,8-22.6,8.8-6.6,6,.7,14.1-2.4,4.6-2.3,1.5-2.5,2.8-3.2s4-.5,5.6-1.9c1.6-1.4,1.3-2.7,2.3-3s4.4,1.1,6,1.4,10,1.1,11.8.7c4.5-2.4,3.6-.8,8-.6-1.2-4.6,3.8-3.4,4.9-5.2s.4-5,1.8-6.8h.8v.3ZM71.1,65.9h-3.7c-.5,4.1,4.2,4.1,3.7,0Z"/><path class="cls-2" d="M127.4,39c1.6-12.9,11.4-10.6,20.6-9.7,7.3-.5,14.3-6.3,21.7-.7s1.2,2.1,1.7,2.2c2.5.4,4.3-2,8,0s2.4,3.1,3.8,4.4c6.4,4.8,11.3,12,19.3,14.2l4.3,4.5c1.2,4.3,1.5,8,2.2,11.9-5.1-.6-3.8-2.5-2.2-5.7.9-4.2-1-3-1.5-3.3s-2.4-2.3-3-3c-2.7-2.9-1.6-1.6-5.2-3.4s-4.9-3.6-7.3-4.7c-4.8-2.2-4.9-1.9-9.3-4.9s-9-3.3-13.5-4.2-1.9-.7-2.2-.7l-1.5-5.2c-4.4.1-11.9.5-15.3,2.2-1.9,0-7.1-2.9-9.2-1.2s0,1.1-.7,1.3c-4.8,1.2-7,2.5-10.7,6ZM168.6,35.2c5.5,2.4,3.6-3.5,1.1-3s-1.4,2-1.1,3Z"/><path class="cls-2" d="M126.6,39c-1.5,1.8-1.2,5.6-1.8,6.8-1.1,1.8-6.2.6-4.9,5.2-3.6.1-4.7-2-8,.6-4.3.7-13.8-1.2-17.8-2.1-1.1.3-1.4,2.2-2.3,3-1.6,1.3-4.1,1-5.6,1.9s-1.3,2.5-2.8,3.2c-10.2,3.1-5.8-7.3-20.1,8.4-4.2,6.4.8,15.4-3.9,19.9-1.2,4-.4,4.1-3.2,8.1s-.5,2.3-2.2,1.9c5.3-9.8-1.1-11,2.4-19.7,2.9-6.5,1.7-1.6,2-2.5.5-1.6,0-3.5.5-5.5.9-3.1,9.8-11.9,12.9-12.6,8,0,12.6-2.4,18.6-6.9,4.4-3,8.9,1.9,14.3-.7l1.6-3.7c13.7.7,9.1,2,20.5-5.3h-.2Z"/><path class="cls-15" d="M231.6,119.8c-.3,13.4-4.2,26.2-9.8,38.2-8.5,8.5-24.1,9.9-33.7,17.7-4.1,2.9-2.3,2.5-7.6,4.4s-3.4,3-5.3,4.5c-2.8,2.1-7.8,2.4-6.7,7.9-1.9,2.7-5.8,2.3-9,2.3,0-2.7,4.5-2.2,5.6-4.5s1.2-8.4,2.9-9.8c3.1-1.9,4.6.8,5.1-3.4.4-.6,1.4-.7,2.1-1.3s.5-1.8,1.2-1.9c5,0,7.5,3,9.2-3.4,5.9-2.7,6.5-5.6,8.1-12.1,2-3.6,7.4-5.8,4.8-10.2.3-1.7,3.7-2.2,5.1-3.1,7.2-6.4,20.5-11.1,23.2-20.2,0,0,4.5-4.8,4.5-4.8,0,0,.3-.3.3-.3Z"/><path class="cls-19" d="M89.1,187.9c2,0,6.7,2.5,8.8,3.6s1.8,2.3,4.7,2.4,1,0,1.5,0c1.5,1.7,3.3,5.6,5.7,5.8,6.6-.4,13.2-1.8,19.8-2.1,11.2-.2,15.1.3,25.5-1.5,1,4.4-8.9,6-11,7.3-2.1.4-3.9-.2-6,.7-4.6,1.9-3.8,8.8-11,8.4-2.8-.2-2.7-2.1-3.9-3-3.5-2.6-9.7-4.8-13.8-7-4.8-4-16.7-2.1-16.9-6.4-.8-.2-1.7,1.4-2.8,1.3s-4.6-2.3-6.1-2.9c-4.3-1.7-8.1-2.4-11.7-6,9.6,2,8.2,1.4,17.2-.7h0Z"/><path class="cls-19" d="M218.8,161c-3.9,15.8-37.9,34-50.2,31.5-1.1-5.5,3.9-5.8,6.7-7.9s1.6-3.1,5.3-4.5c5.2-1.9,3.5-1.5,7.6-4.4,9-6.4,21.1-9.7,30.7-14.7h-.1Z"/><path class="cls-19" d="M70.4,188.7c-2.1-.2-1.8-.5-2.2-2.2,1.4,0,2.4.7,2.2,2.2Z"/><path class="cls-23" d="M64.4,164l4.5,7.9c3.5,4.8,3.9,1.4,6.4,1.1,4.4-.5,4.7,2.7,6.3,4.9s8.1,5.2,10.9,7.1,2.3.5,1.9,2.2c-4.6.8-3.6-1.8-9.7-3.8-9.5-2.5-19.4-6.4-25.1-15s-1.8-4.3-2.7-5.9c2.1.7,5.3,1.2,7.5,1.5Z"/><path class="cls-16" d="M84.6,183.4c4,1.1,6.1,3.7,6.5,3.8,3.9-.2,7.6.3,10,3.7,2.1,2.6,1.4,1.8,1.5,3-2.9,0-2.7-1.4-4.7-2.4s-6.7-3.5-8.8-3.6c.4-2.4-3.8-1.8-4.5-4.5Z"/><path class="cls-22" d="M80.9,206.5c1.2,0,1.2,1.8,0,1.8-1.2,0-1.2-1.8,0-1.8Z"/><path class="cls-2" d="M210.6,67.4c3.4.3,9.9,11.8,8.9,14.1-9.1,2.7,4.4,16-11.5,10.6l-3.1,5.2c-7-3.6-12.7-6.1-20.7-3.5s-.9,3.1.5,5.1c1.7,3.6,4.8,16.7,3.7,20.9.6,4.1,5.1,5.6,1.5,11.2l-13.2,14.9c-1.1.8-12.2-1.7-14.1-2.5s-6.2-6.4-7.9-6.4c-4.6,1.6-6.6,9.7-7.5,13.5-2.3,4-8.4,8.4-5.6,13.5-4.3-.5-9,1.4-9.8,6-7.1-1.7-7.7-.7-13.3,2.9-2.2.5-6.2-.3-9.2,1-.9,2.5,1.4,6.2.3,8.2-1.8,3.5-6.6-1.3-5.5-4.7s2.1-1.6,2.1-3c-5.2-6.5-5.5-5.5-12.4-2.7-2.3.2-2.9-2.1-5.1-1.5s.3,5.6-3.1,4.5-.7-1.5-1.6-2.2c-5.4-3.9-10.3,1-11.5-7.6,2.5-.5,2.4-.9,4.4-.7.7,0,.3.6,1,.6,2.7,0,2.5-3.5,3.6-5.3,6.4-7.1,13.2,7.8,14.9-8.7.4-1.5,0-1,0-1.5s1.3-1.7.8-3c3.2.8-.4,7.6.8,10.5,2.8-.6,5.9,1.4,8.5.6s1.9-2,3.3-2.7c2.4-1.3,7.5-1.5,9.2-2.8s1.8-3.4,3.4-4.9,9.9-5.9,9.4-9.3-1.3-.6-1.9-1.2c-5-5.9-2.5-1.2-5.7.4s-7.8-4.4-9.5-4.7-7.4,2-9.7,2-4.9-1.2-7.3-.8c-1.9-.2-1.4-5.2-3.1-4.4-4.3,2.2-.2,7.9.7,10.5s1.1,3.9,1.9,6l-5-3.2c-2.4-2.7-1.4-7.9-.8-11.2.5-2.6,2.7-5.9,2.8-9.2s-1.6-2.2-1.5-4l9,5.6c.9.8.2,2.4,2.2,1.8l.7-3.4,3,.4-2.3-10c3.6-3.2,3.5,1.3,5.3,2.2s2.6.2,3.7.7c2.8,1.3,1.4,1.6,6.2,2.8s2.1,3,3.9,5.1,4.8,3.4,5.5,3.6c3.3,1,3.9-3.1,6.6-3.6s9.6.7,10.1,4.9c.8,6.8-2.4,3.6-5,5.8s-2.3,3.9-.4,5c3.6,1.3,3.3-.6,5.2-1.3s5.4-.4,7.4-2.4l-.4-9.7c2-.4,1.3.4,1.9,1.5,2.6,4.7,5.4,12.3,12,11.3s2.7-11.8,4.2-15.7h2.2c.1,4,1.6,7.3,0,11.2l2.2-1.1,6-9-4.5-10.5c3-2.8,7.5,1.3,8.1-4.7s-2.6-7.8-4.1-8.3c-6.6-2-13,8.1-18.2,10s-4.4.5-5.1,1.3-.4,2.1-1,3.1c-4.1,5.7-8,1-10-2.6-2.2-5.7-2.9-15.1.4-20.6l-.4-1.1c-3.9-1.7-2-2.4-1.9-5.2s0-.5,0-.7c3.2.6.6-3.4.8-3.7,1.9-.6,3.3-2.1,5.5-1.6s.7,1.4,1.3,1.9c3.8,1.5,3.3,2.4,5.2,5.3,1.7,1.1,3.7-.6,5.3,0,3,2,11.6,8,15.3,8,.7-2.5,2.3-1.3,4.5-1.6s1.1-.7,1.1-.7c5.7-.3,9.9-.1,15.5,1.4,5.2,1.3,4.8-4.5,7.4-5s3.6,2.5,5.5,1.4c-.5-2.5,2.5-6.2,1.2-8.2s-4.3,1.7-6.4.8l.7-2.6,3.7-.4,1.6-5.9-3,.7c.2-2.2,1.1-3.8,0-6l.2-.7ZM125.2,166.1c4.9,3.4,10.6-4.8,13.7-7.4,2.6-3.4,1.9-4.9,3.3-8s4.7-3.8,3.8-7.9c-1.4-7.2-7.5-1.4-7.2,1.5-.4,1.9.2,4-.3,5.7s-9.8,5.7-11.8,6.2-6.3,1.4-8.7,1.8-5.3-.7-7.5,2.3-.8,2.8-1.3,3.5-3.6,1.1-2.8,3.9l9,1.2c1.6-1.1-.3-7.1,2.6-8.7l3.1,2.9,3.3-.3.8,3.3h0Z"/><path class="cls-23" d="M183.6,146.8c-.9,2.5-1.7,10.1-2.3,12-3,.2-3,5.2-4.9,7.4-2.4,3.5-8.2,9.1-10,12.5-2.5,6.8.9,3.7-4.6,9.6-5.5,8.7-16.1,4.2-24.3,7.2-5,1.9-2.3.5-2,2.1h-6l-6.4-4.5c-11.3-1.3-9.1,6.9-17.5.1-1.7-.5-1.6.6-1.7.7h-1.5c0-1.2-.8-2.1-1.5-3,2.1.7,3.4-1.2,4.9-1.5,5.6-1,13.8,0,19.5,0s3.4-1.2,8.4.5,2.2-.8,2.9-1.3c3-1.9,6.5.2,9.6,0,21-1.8,11.2,0,18.4-14.6-5.3-4.6-11.6-8.3-6.6-15.7s6.8-2.7,10.7-3.5c11-1.8,1-3.9,14.8-8.2v.2Z"/><path class="cls-14" d="M205.4,56.9c.5.4,2.4-.9,1.5,3.3s-3.2,3.5,0,5.3,1.9.2,2.2.4c1,.5,1.3,1.4,1.5,1.5,1.1,2.2.2,3.8,0,6l3-.7-1.6,5.9-3.7.4-.7,2.6c2.1.9,5-2.9,6.4-.8s-1.7,5.7-1.2,8.2c-1.9,1.1-4.8-1.6-5.5-1.4-2.7.5-2.6,6.2-7.4,5s-8.7-1.7-14-1.4c-.1-3.1,5-2,7-2.4,7.9-2.1,4.4-6.3,3.7-10.5.7-2.8,6.9-8,6.6-9.8-6.3-5.1,4.5-6.1,2.3-11.7h-.1ZM203.1,76.4c-1.8-.3-2.7.6-3.7,1.9-.3,1.6,3.3,1.7,2.3,4.1h2.2l-.8-6Z"/><path class="cls-15" d="M181.4,158.7c.3-.4,1.2-7.5,1.5-9,1.8-.1,6.7-2.1,6.8,1.1-1.9,2.3-5.2,13.5-8.2,7.8h-.1Z"/><path class="cls-16" d="M219.6,116.1c-1.1-2.9,4-5.2,4.5-2.6s-2.9,3.1-4.5,2.6Z"/><path class="cls-16" d="M221.1,119.8c1.6,1.6-4.1,6.1-3,0h3Z"/><path class="cls-25" d="M164.8,36c.3,0,1.5.6,2.2.7-.4,2.3,1.1,1.3,2.4,1.7,7.8,1.1,7.7,4,13.3,7.8,8,.3,8.2,2.1,13.6,6.7,1.6.8,4.1-.5,6,1.1,10,7.4-6.6,8.7.7,14.7.4,1.8-5.9,7-6.6,9.8s2.7,4.4,1,7.7c-2.7,6-10.4,0-11.7,5.2h-1.5c-1.8-1.7-4.5,0-6.7-1.1s-2.5-2.4-2.9-3.1c-2.3-4,.2-2.7,1.3-4.4s.6-2.9,1.2-4c1.6-3,9.9-2.8,13.1-3,1-2.4-1.9-4.5-2.1-5.7s1.1-4.4-.2-5.5-1.2.5-1.5,1.1c-.4.8-3,4.8-3.3,4.9-2.6.8-1.6-1.4-2.2-3-1.8-4.6-7.5-1.4-7.2,1.9s3.8,2.9,3,5.6c-1.3,1.3-10.4-4.4-9-7.5h-1.1c-3.7,4.6-5-3.4-9.2,2-7.7,2.6-5-4.7-12.5,3.9-2.3,2.6,0,2.9.3,4.9.3,2.3,0,5,0,6.3-7.9,2.1-2.3,3.3-6,3-2.9-1.9-5.5-3.4-8.3-.4-4.7,5.1,6.8,13.4,6,19.1,2.8.5,4.1-2.6,6.7-2.3l.4,5.3-5.3,9.7c-1.2.3-2.9-2.7-4.6-2.9-3.9.6-4,3.9-7.7.2-1-.4-5.8,0-4.2-2.6s4.2-1.6,3.4-4.5c-3.1,1.3-4.1-1.3-7.8-.7s-4,2.6-6.4,3c.4-1.1-1.3-6-1.9-6-1.7.5-3.3,1.5-5.2,1.6-3.1.2-4.7-1.6-7.8.8-.3.5,2,5.2,2.6,5.9,1.3,1.6,4.6,2.1,3,4.5-12.7,0-9.4-27.4-18-7.5-2.3,7,5.9,7.2,7,11s-1,4.4-1.3,6.6-1.1,9.4,0,12,2.9,3.5,2.3,6.6c-2.3,1.4-2.9,4.1-6,4.2l.7,3.7c-1.5.7-4.6.4-5.6,1.5-1.2,1.6-1.8,8.8-6.3,7.5-1.8-1.6-4.4-.2-6.7-1.1-6.9-3.7-14.3-15.8-16.6-22.4-.2-2.7,1.9-3,2.2-4.6-1.3-5.6.4-5.9,1.6-11.2,0-2.1-.1-5.8,0-8.9.3-5.7-2.3-8,.2-13.3,3.3-10.8,12.3-2.9,11.1-11.7-1.3-.3-2.3-.5-3.7-.4s-2.3.9-1.5-.7c1.5-3,5.3-1.2,6.8-2.2s1.3-4.5,2.3-6,2.5-1.5,2.9-2.4c1-2.9-2.4-3.7-2.8-5.3-1.6-5.4,9.7-2.2,9.7-11.4,14.8-.4,5.6-8.1,17.7-9.7,14.4-2.7,22.4,9.8,32.8,6.6,7.3-3,2.1-.8,1.8-2.3-9.3-.2-6.9-5-4.5-10.9.2-2.2-2.1-3.6.8-5.9,6.1-4.5,15.2-5.9,22.1-3.3,4.8.4,9.8-1.1,13.9-.8h-.2Z"/><path class="cls-25" d="M71.1,65.9c.5,4.1-4.2,4.1-3.7,0h3.7Z"/><path class="cls-14" d="M202.4,54c-1.9-1.6-4.5-.4-6-1.1-5-4.3-5.9-6.6-13.6-6.7-2.2-.7-4.2-4.4-6.4-5.6s-4.9-1.5-6.9-2.2-2.9.6-2.4-1.7c9,.8,14.7,5.4,22.8,9.1,4.7,2.2,4.7,3.4,7.3,4.7s2.5.5,5.2,3.4h0Z"/><path class="cls-24" d="M168.6,35.2c-.2-.9.2-2.8,1.1-3,2.4-.5,4.4,5.4-1.1,3Z"/><path class="cls-16" d="M104.1,193.9s.5-1,1.7-.7c8.8,6.9,6.4-1.4,17.5-.1l6.4,4.5c-6.6.3-13.2,1.7-19.8,2.1-2.5-.2-4.2-4.1-5.7-5.8h0Z"/><path class="cls-14" d="M145.4,84.6c0,2.8-2,3.5,1.9,5.2l.4,1.1c-3.3,5.6-2.6,14.8-.4,20.6,3,5.3,6.7,7.3,10,2.6,1.3-4.9,1.8-3.2,6.1-4.4,5.3-1.8,11.6-11.9,18.2-10s4.3,6.8,4.1,8.3c-.6,6-5.1,1.9-8.1,4.7l4.5,10.5-6,9-2.2,1.1c1.6-3.9.1-7.3,0-11.2h-2.2c-1.5,4,1.1,14.9-4.2,15.7s-9.4-6.6-12-11.3.1-1.9-1.9-1.5l.4,9.7c-1.9,2-5.2,1.6-7.4,2.4s-1.6,2.7-5.2,1.3c-1.9-1.1-.9-3.9.4-5,2.6-2.2,5.8,1.1,5-5.8s-6.4-5.5-10.1-4.9c-5.1,1.4-3.7,7.9-12.1,0-1.7-2.1-.3-4.3-3.9-5.1-4-.8-6.5-3.9-9.9-3.5-1.8-.9-1.7-5.3-5.3-2.2l2.3,10-3-.4-.7,3.4c-2,.6-1.3-1-2.2-1.8l-9-5.6c3.1,5.3,0,8.3-1.3,13.2-.8,5.2-1.6,7.7.8,11.2l5,3.2c.4,1.4-.2,3-.8,3.7l-3.8-.4-1.5,3.1c2,4.8,2.7-1.2,5.3-1.2-.4,1.5-2.1,7.4-3,7.9-2.6,1.6-8.8-4.2-11.9.8s-.9,5.3-3.6,5.3-.9-.6-1-.6c5.3-4.6,0-8.3,9.7-9l-.7-3.7c3.1-.1,3.8-2.8,6-4.2.6-3.1-1.4-4.3-2.3-6.6s-.3-8.9,0-12,2.1-4.2,1.3-6.6c-1.2-3.8-9.3-4.1-7-11s3.2-6.1,3.4-6.3c.6-.8,1.2-1.6,2.3-.8,3,4.3,5,15.1,12.3,14.6,1.6-2.4-1.7-2.9-3-4.5-5.5-7.8-1-7.4,5.2-6.7,3.1-.2,3.5-1.1,5.2-1.6.6,0,2.4,4.9,1.9,6,2.4-.4,3.8-2.6,6.4-3,3.7-.5,4.7,2,7.8.7.8,2.9-2.4,2.9-3.4,4.5-1.6,2.5,2.9,2.1,4.2,2.6,4.3,3.5,3.6.7,7.7-.2,1.6.1,3.4,3.1,4.6,2.9l5.3-9.7-.4-5.3c-2.7-.3-4,2.7-6.7,2.3.8-5.7-10.7-14-6-19.1s5.4-1.5,8.3.4c-.9.3-3.6,1.3-3.7,1.9l2,3.3c1.9.4,5.1-3.1,3.3-5.1-.7-1.9,3-2.2,4.5-3h.1Z"/><path class="cls-14" d="M145.4,83.9c0-1.1.2-4.5,0-5.6-.4-2-2.6-2.2-.3-4.9,7.7-8.5,4.9-1.4,12.5-3.9,3.9-1.9,1.8-1.8,2.6-2,1.7-.5,4.3,3.5,6.6,0h1.1c-1.4,3.1,7.7,8.8,9,7.5.7-2.7-2.8-3.5-3-5.6-.3-3.3,5.4-6.5,7.2-1.9s-.4,3.9,2.2,3,2.9-4.1,3.3-4.9,0-2.3,1.5-1.1,0,4.6.2,5.5,3.1,3.3,2.1,5.7c-6.2.4-14-.6-14.3,7-1.1,1.7-3.6.4-1.3,4.4s2.3,2.8,2.9,3.1c2.2,1,4.9-.5,6.7,1.1-1.6,1.9-5.1-.9-5.6,2.3-.6,0-5.9-1.8-6.7-2.3-2.4-1.2-6.7-5.2-8.6-5.7s-3.6,1.2-5.3,0c-2.9-3.3-.1-3.1-5.2-5.3-1-.7-.6-1.7-1.3-1.9-2.2-.5-3.6,1-5.5,1.6-.2.3,2.4,4.2-.8,3.7v.2Z"/><path class="cls-24" d="M97.4,145.3c-.3-4.3-7.8-13.8-2.6-16.5,4.4-2.2,1.2,4.2,3.1,4.4,2.4-.4,5.2.9,7.3.8s8.1-2.4,9.7-2,5.6,6.8,9.5,4.7.7-6.3,5.7-.4,1.8.7,1.9,1.2c-.4,5.1-10,7.4-12.8,14.2-4,2-9.1,1.3-12.5,5.5-2.6.8-5.7-1.2-8.5-.6-1.2-2.7,2.4-10.2-.8-10.5,0-.2,0-.6,0-.8Z"/><path class="cls-14" d="M125.2,166.1l-.8-3.3-3.3.3-3.1-2.9c-2.9,1.6-1,7.5-2.6,8.7l-9-1.2c-.8-2.8,2-2.9,2.8-3.9s.5-2.3,1.3-3.5c2.1-3,4.8-1.8,7.5-2.3s6-1.2,8.7-1.8,11.3-4.5,11.8-6.2-.1-3.8.3-5.7c1-5.3,5.6-6.1,7.2-1.5.9,4.1-2.6,5.1-3.8,7.9-.9,6.6-10.2,18.9-17,15.4h0Z"/><path class="cls-25" d="M96.6,149c-.1.5.1,1.1,0,1.5-2.6,0-3.3,6-5.3,1.2l1.5-3.1,3.8.4h0Z"/><path class="cls-2" d="M203.1,76.4l.8,6h-2.2c1-2.4-2.6-2.5-2.3-4.1,1-1.3,2-2.2,3.7-1.9Z"/><path class="cls-2" d="M140.8,87.6c1.8,2.1-1.4,5.5-3.3,5.1l-2-3.3c.6-.9,4.1-2.3,5.2-1.9h.1Z"/></svg>