<?xml version="1.0" encoding="UTF-8"?><svg id="aiOrFriend" xmlns="http://www.w3.org/2000/svg" viewBox="0 0 701.3 185.4"><path d="M121.1,5.3c3.6,1,8.2-.2,12,1.5-.7-3.5,1.4-1.7,2.4-2.3s.7-1.5,1-1.5c1.4-.1,3.7,1.9,6,2,5.8.3,13.8-6.5,15.6,4l10.5-2.3c3.4,2.7,8.2.2,10.4.8s1.1,2.6,2,2.3-.2-1,.5-1.5,2.1-.4,2.4-.8c.9-1.4-1.6-3.5,4.3-3.6s4.1.9,6,.9.8-1.9,2.2-1.6,2.1,1.5,3,1.5,2.1-1.7,3.7-1.5.3,1.3.9,1.5c6.9-.6,4.1,3.4,8.5,4.5l-.7-4.5,9.7,1.5-.7-3.7c.9-.9,6,3,6.7,2.2.3-6.9,10.7-2,13.7-1.7,5.4.4,13.8-3,18.9-2.8s1,1.3.8,3.8c1.2-.2,2.8-3,3.1-3,9.2-1.7,19.6.6,29.2.5,4.3.6,36.6-4.2,33.1.9,16.4,1.5,37.2-3.4,53.8-2.1,8.9.5,4.7,1.6,6.6,1.5,6.6-3.2,15.6,1.1,22.6.7,4.7-.3,6-2.4,8.9-2.1,8.1,2.7,1.6,3.4,12,3,.6,0,1.7-3.7,3.4-2.3s-.5,2.7,1.8,3,2.5-2.9,3.1-3c.9-.3,6,0,7.3,0s-.9,1.1,4,.8c9.4-.5,21.9-2.4,32.1.8,10-3,20.5-.2,30.8-1.6,1.7-.5,1.4,3,2.2,3.1s1.1-4.6,8.1-3,.2,1.4,1.6,1.5c2.3.2,1.5-1.4,3-1.6,5.9-.9,15.2,2,19.6,1.6s.8-1.4,2.2-1.6c7.4-1.1,30.9-.3,37,1.5,16.7,2.5,29.3,1.1,46.3,4.6,16.3,2.8,7.9-1.5,5.6,2.3,3-1,9.5,2.4,8.4,5.1,4.2-.5,3.2,3.5,7.6,3.1,3-.5,0-2.4,2-1.5l-.7,5.2c9.1-.7,2.7,7.6,3.9,12.2,1.3,4.8,7.5,2.1,5.1,8-3.4,0,.7-4.6-4.7-3s-.2,1.7-.9,1.5-2.8-2.3-5.3-2.9c-5.1-1.2-13.6-1.5-5,2.1,4,2.5,4.8,4.6,10,3.2.4.4-.6,2.6-1.3,3-2.1,1.4-4.6-1.2-4.7,1.1.6,1.3,16.3,2.7,12.7,6.4s-7.4-4.9-9.7-3c-.3,2.5,5.9,5.3,6,5.7,1.3,4.7-1.6,2.7-3.4,3.3s1.4,3,1.7,3.5c1.1,2.1,0,4.3.2,5,.3,1.2,5.8,5.7-.8,5,2.8-4.8-.8-3.4-4.5-4.5l1.5,3.7c-3.9-2.9-4.9,1.7-8,2.1s-5.3-1.1-7.5-1.1-9.4.9-7,3.4,9,.4,10.7,1,4,3,5.4,2.8.7-1.8,1.6-2.2c3.7-1.9,7.1-3,4.8,2.2,2.1.6,2.1-3.6,3.7-2.2s0,1.5.7,1.9c3.2,1.8,8.6,1,12,3.1s5.3,9.2,11.3,7.8l-3.7,3c7.2,1,3-2.4,6-1.5l-2.2,6.7,8.1,1.6c1.2,1.9-.2,7.8,0,8.1s4-.3,2.9,3.3-4.6,0-6.2.5c-2.9,1.5.7,3.2-3.8,1.4-.7,0-1.5,2.2-4.2,1.5,6.3,4.5,6.3,0,10.4,0,2.2,2.4-6.5,9.7-8.1,10.8,2.4,6.5,9-2.4,12.6,0s-.2,2.4-2.3,1.9l2.2,1.9c.5,1.7-3.7,1.8-2.2,3.4s5.2,1,6.4,3.3c2.5,4.8.8,4.1-3.4,5l3,2.2c-2.7-.3-2.5,4-3.1,4.4-1.3.9-4.5-.8-6.1-.5s-2.4,1.9-4,2.1-3.8-1.2-5.1,0,.5,3.3-3,2.3-1.9-3.6-3.5.4,3.2,1.4,3.5,3.4c5.7-3.3,2.2,3.6.9,4.4s-6.1-.8-3.6,1.6,7.5-.4,6.6,3.2-5.7-.4-8.1,1.3c7.2,6.4.2,3.7-.7,4.5s3.4,4.9,3.6,5.7-.8,2.2-.5,3.5,3.3,3.1,2.1,4.3c-127.2-4.2-266.3,1.5-389.2-4.5-.9,0-.4,1.6-.8,1.6-6.4.4-15.5-1.6-22.5-1.6-10.7-.5-11.3,1.1-19.1,1.5l.4-1.5c-1.9,1.7-4.2,0-6.1,0s-1.1,1.5-1.4,1.6c-2.1.6-1.6-1.2-2.4-1.4-6.3-1.8-19.2,1.2-25.9-.9-1,0-.4,1.6-.8,1.6-18.1-3.6-38.5-1.9-57.7-.9s-3.6-1-4.1-.6.4,2-.4,2.3c-1.2.4-5.9-2.5-7.6-2.7s-5.9-.7-4.7,2c-1.9.8-1.4-1.4-1.9-1.5-2.2-.5-1.8,1.5-2.3,1.6-2.2-.3-6.6-2-8.2.7-.5.2-.1-1.4-.8-1.5-1.4-.3-3.9,1.1-5.9.9s-.7-1.4-1.5-1.6c-1.7-.5-.5,1.4-2.2,1.6s-6.2-1.1-6.4-.8c.6,4.1-1.3,1.5-3.6,2.4-.7.6.2,2.8-1.9,2.9-3.6-.4-.9-3.1-1.1-4.5-.7-.9-3.8,3-4.8,3-3.6,0-2.5-2.8-2.7-3s-4.3.8-5.6.8c-1.9-.3-26.1-.2-22.5-3.1-1.7-.2-2.6,1.9-5,1.4s-6.9-5.5-7.2-6.4c-1-3.6,1.6-2.2,2.9-4-4.8-1.3-5.8.5-9.7,2.2-.8-1.9,2.2-3.2,2.3-3.4.6-2.9-1.2-1.2-2.3-2.4s-6.2-8.7-6.5-9.8c-.8-3.6,1-2.1,3.5-3.5l-3-2.3.7-1.5c-5.5.8-1.9-4.2-2.4-5.9s-3.6-2.5-2.9-5.9,1.4-.7,1.9-1.3,0-2.1.8-2.2,4.3,1.6,4.8,1.9c1.6,1,.9,3,3,2.6,1.6-4.9-3-3.2-3.6-5.8-.9-5.6,9.6-3.1,10.8-8.5.9-.2,3.2,2.2,3.2,2.4.2.7-1.7,2.6.5,2.2,7.4-5.1.8-4.9,11.6-4.5-2.3-1.5-1-5.9-1.6-6.7-6.4-1.6-22.7-.6-29.8-4.3-5.5-1.6-4.8,0-5.2-.4.6-5.8-10.1-1.1-9.8-1.4-2.2-2.1,6.8-2.8,2.4-5.1s-5,2.1-8.4.6c-1.1-1.8,2.8-1.4,1.5-3s-5.8-.7-5.2-3c1.7,1.5,6.8-2.2,5.2-3.7s-4.2,1-4.5.7.3-3.2-2.3-3c3.7-6.4-.4-2.1-2.3-3.3s.6-4.3,0-4.9c-1-1.1-6.5.6-3.9-7C1.4,77.8-.7,57.3.2,56.4c6,2.3,2.9-1.5,4.7-4.3s9.8-2,12.8-2.6c3-.7,26.8-5.3,23-1.4l-1.5-1.5c5.4-.9,9.9.3,15,0-3.1-4.3-15.9-35.4-4.3-31.6,10.8-10.9,26.5-5.7,39.8-7.4,9.5-1.3,9.8-3.3,19.7,0s4.6-1.2,5.4-2.1,5.7-1,6.2-.8c.8.2.4,1.5.5,1.5h-1.5v2.2h1.5c0-.7,0-2.5-.4-3.1ZM298.7,22.5c-76.4-13.9-132.6,104.2-56.4,130.9,103.1,37.8,156.9-102.8,48.5-122.7-5.4-.4-22.1,0-25.9,4.1s-1.2,5.2,0,6.1,24.4-.8,28.9-.4c10.6,1,30.8,9.9,36.6,18.9,63.5,134.4-197,110.3-90.3-10.1,8.3-12.8,0-1.9.2-2.8l1.5,1.5c7.4-13.5,26.3-19.1,40.8-20.3,10-.6,19.9,1.5,20.6.8,1.8-1.5-4-3-5.2-2.2,0,0,.7-3.7.7-3.8ZM244.7,86.2c-.6-.7,0-15.7,0-18.4s2.5-1.5,2.3-3.7c-.4-4.5-7.2-3.9-7.6,0s1.9,2.6,2.3,4.5.4,14.4,0,17.3c-.7,6.4-4.4,8.7-3,17.9s8.4,6.8,9.7,7.9-2.4,13.5,7,17.4c5,2.1,34.9,2.1,41.4,1.4,9.2,0,11.5-12.9,11.2-18,.7-.9,3.4-.9,4.9-1.9,6.6-4.1,5.8-21.1,0-24-.2-1.5-.8-16.4-.7-17.3.2-1.8,2-1.5,2.3-2.4,1.8-6.1-6.1-7.4-6.8-2.8s1.8,3.1,2.3,5.2c.3,5,1.8,27.4-4.6,11.3-4.3-6.2-11.4-4.5-11.9-5-1-1,2.4-11.8-3-10.5v10.5c-9.1,1.8-3.5-4.5-5.4-9.2s-1.5-1.4-2.9-1.2v10.5c-11.6,1.5-3.4-5.1-7.1-11.2-3.6-.2-.8,8.6-2.2,10.5l-6.4.7v-10.5c0-.1-2.9-.1-3,0-1.1,1,1.1,10.1.7,10.5-.6.6-8.6-1.6-13.1,4.6s-1.8,4.6-2.1,5-4.1,1.1-4.3.9h0ZM650.8,66h-1.5v.7h1.5v-.7ZM648,71.2c0-1.2-1.8-1.2-1.8,0,0,1.2,1.8,1.2,1.8,0ZM693,128.2c0-1.2-1.8-1.2-1.8,0,0,1.2,1.8,1.2,1.8,0ZM257.1,147.7v.7l.4-.4-.4-.4h0ZM60.4,161.2c-5.1-.8-3.1,1.2-3.9,2.1s-2.7-.8-2.1,1.6c2.7.3,5.2-1.1,6-3.7ZM52.9,163.4c-6.7-1.8-9,2.6-.9,1.3s1.3.6.9-1.3ZM70.6,171.4c2-3.9-1.4-4.7-5-4.2,2.7,3.9-4.6,1.3-4.5,5.2l10.1,3.7c.7-1.8-3.9-4.6-.7-4.7h.1Z" style="fill:#cce2ec;"/><path d="M665.8,63.7l.7,6c-4.9.2-6.9-6.5-.7-6Z" style="fill:#cce2ec;"/><path d="M696.6,123.7c-1.3,1.4-1.6-1.5-2-1.5s-7.3,1.3-4.8-1.4,8.2,1.4,6.7,3h0Z" style="fill:#cce2ec;"/><polygon points="658.7 72.7 659.1 73.1 658.7 73.5 658.7 72.7" style="fill:#cce2ec;"/><polygon points="697.7 125.2 698.1 125.6 697.7 125.9 697.7 125.2" style="fill:#cce2ec;"/><polygon points="259.3 180.6 259.7 181 259.3 181.4 259.3 180.6" style="fill:#cce2ec;"/><path d="M298.7,22.5l-.7,3.7c1.3-.8,7,.7,5.2,2.2s-17.4-1-20.6-.8c-13.1.3-36.6,8.7-40.8,20.3l-1.5-1.5c-105.2,127.9,152.6,145.3,90.1,12.9-17.9-27.9-26-17.9-36.6-18.9s-27.7,1.2-28.9.4c-5.8-11.7,19.6-10.1,25.9-10.2,74.1,5.2,78.7,107.4,10.1,124.8s-39.7,4.2-58.6-2.1c-74.5-24.6-22.4-143.5,53.1-130.4s2.2-.7,3.3-.5h0Z" style="fill:#595b5c;"/><path d="M244.7,86.2c5.5-.2,4-1.3,6.4-5.9,4.4-6.2,12.4-4,13.1-4.6,1-1.5-4.1-13.8,2.3-10.5,0,0,0,10.5,0,10.5l6.4-.7c1.3-1.9-1.4-10.7,2.2-10.5,3.7,6.1-4.5,12.8,7.1,11.2v-10.5c8.4,0-3.1,13.4,8.3,10.4v-10.5c5.4-1.4,2,9.5,3,10.5s7.6-1.2,11.9,5,1.6,6.3,4.2,5.5.6-15.5.4-16.8c-.4-2.1-2.7-2.3-2.3-5.2.6-4.6,8.5-3.3,6.8,2.8s-2.1.6-2.3,2.4.5,16.3.7,17.3c6,4.7,6.6,19.2,0,24-5.4,3.4-4.4,1.2-4.9,1.9-.6,7-1.5,17.6-11.2,18-7,.8-36.4.7-41.4-1.4-9.4-3.9-6.2-16.6-7-17.4-1.3-1.2-8.3,1.1-9.7-7.9s2.2-11.5,3-17.9.4-14.8,0-17.3-2.5-2.4-2.3-4.5c.3-3.9,7.2-4.5,7.6,0s-2.3,3.4-2.3,3.7c0,2.6-.6,17.7,0,18.4h0ZM263.3,78.2c-10,1-11.1,3.9-11.9,13.6s-.8,27.7,1.9,31.8c2.8,7.5,34.7,3.8,42,3.8,3.5-.4,6.4-1.3,8-4.7,1.9-4,2-29.2,1.3-34.6s-1.4-5.8-2.7-7.1c-4-4.2-32.1-3.5-38.7-2.8h.1ZM248.5,88.5c-9.3-.1-10,21.4,0,20.2v-20.2ZM307.7,109.5c9.2-.1,9.8-21.4,0-20.2v20.2Z" style="fill:#161717;"/><path d="M70.6,171.4c-3.1.3,1.3,3,.7,4.7l-10.1-3.7c0-4,7.2-1.4,4.5-5.2,3.6-.4,6.9.3,5,4.2h-.1Z" style="fill:#fefefe;"/><path d="M60.4,161.2c-.8,2.6-3.3,4-6,3.7-.6-2.4,1.5-1,2.1-1.6.8-.9-1.2-2.9,3.9-2.1Z" style="fill:#fefefe;"/><path d="M52.9,163.4c.4,1.9.3,1.1-.9,1.3-8.1,1.3-5.8-3.1.9-1.3Z" style="fill:#fefefe;"/><path d="M647.1,70.3c1.2,0,1.2,1.8,0,1.8-1.2,0-1.2-1.8,0-1.8Z" style="fill:#fefefe;"/><path d="M692.1,127.3c1.2,0,1.2,1.8,0,1.8-1.2,0-1.2-1.8,0-1.8Z" style="fill:#fefefe;"/><rect x="649.4" y="66" width="1.5" height=".7" style="fill:#fefefe;"/><polygon points="257.1 147.7 257.5 148.1 257.1 148.4 257.1 147.7" style="fill:#595b5c;"/><path d="M263.3,78.2c9.1.1,43.8-4.7,41.4,9.9.6,5.4.6,30.6-1.3,34.6-1.6,3.4-4.5,4.4-8,4.7-9.5-.2-35.5,4-42-3.8-2.7-4.1-2.4-26-1.9-31.8.7-9.7,1.9-12.6,11.9-13.6h-.1ZM273.3,98.8c.2-9.9-15.6-10-15.4,0-.2,10,15.6,10,15.4,0ZM298,98.8c.1-9.9-15.3-9.9-15.2,0-.1,9.9,15.3,9.9,15.2,0ZM264.2,116.2h27.3l1.1-1.9-1.1-1.1h-26.2c-.8,0-1.6,2.5-1.1,3h0Z" style="fill:#fefefe;"/><path d="M248.5,88.5v20.2c-10,1.2-9.3-20.3,0-20.2Z" style="fill:#fefefe;"/><path d="M307.7,109.5v-20.2c9.8-1.2,9.2,20.1,0,20.2Z" style="fill:#fefefe;"/><path d="M273.3,98.8c.2,9.9-15.6,10-15.4,0-.2-10,15.6-10,15.4,0ZM269.3,95.4c-3.5-3.6-11.1.8-7.4,6.2s11.9-1.7,7.4-6.2Z" style="fill:#161717;"/><path d="M298,98.8c.1,9.9-15.3,9.9-15.2,0-.1-9.9,15.3-9.9,15.2,0ZM295.1,98.8c0-6-9.2-6-9.2,0,0,6,9.2,6,9.2,0Z" style="fill:#161717;"/><path d="M264.2,116.2c-.5-.5.3-3,1.1-3h26.2l1.1,1.1-1.1,1.9h-27.3Z" style="fill:#161717;"/><path d="M269.3,95.4c4.5,4.5-3.8,11.6-7.4,6.2s3.8-9.8,7.4-6.2Z" style="fill:#fefefe;"/><path d="M290.5,94.2c6,0,6,9.3,0,9.2-6,0-6-9.3,0-9.2Z" style="fill:#fefefe;"/>

<text transform="translate(369.7 113.2)" style="fill:#595b5c; font-family:MyriadPro-Regular, &apos;Myriad Pro&apos;; font-size:60px;"><tspan class="AiOrFriendText" x="0" y="0" style="letter-spacing:0em;">A</tspan><tspan class="AiOrFriendText" x="36.5" y="0" style="letter-spacing:0em;">i</tspan></text></svg>