<?xml version="1.0" encoding="UTF-8"?><svg id="Layer_1" xmlns="http://www.w3.org/2000/svg" viewBox="0 0 315.9 271"><path d="M299.5,0l.7,79.7c.8,11.2,1.7,22.4,2.3,33.6,1.7,32.2,3.7,64.5,6.7,96.6,1.8,19.4,4.5,38.7,6.7,58l-3.7.8c-1.8-15.7-.8-31.4-10.2-44.8-14.3-20.4-43.1-23.3-62-7.5-16.8,14-18.2,34.1-19.9,54.6l-3-.3-.7-1.5c2.5-18.9,7.7-35.2.8-53.9-11.4-30.9-49.2-45.7-76-23.5-9.6,7.9-14,20.1-20.6,30.3-4.6-1.6-2.4-3.9-.9-6.9,6.9-13.6,15.8-21.7,17.2-38.1,3.3-37.6-26.3-71.8-65.2-65.9s-21.8,10.1-34,15.4-3.6.6-4.8-2.9l29.9-16.2c34.2-29.9,21.9-88.6-22-101.4-1.6-.5-8-2.2-9-2.2H0V.2h299.4v-.2ZM156.6,59.9l31.2-14.1c10.3-7.5,13.1-20.5,6.5-31.5-10.6-17.8-34.3-9.5-51.2-10.5l9,6.3c13.2,13.1,15.2,34.5,4.5,49.8ZM224.3,3h-36.3c8.7,6.9,14,15.7,12.6,27.2l-3.3,10.9c9.4-4.5,20.1-8,29.3-12.6s9.3-8.5,7.2-16.5-5.9-8.5-9.6-9.1h.1ZM268.5,3h-37.8c6.6,6,8.3,13.2,5.2,21.7l33.9-14.2c1.9-1.4.6-7-1.4-7.6h0ZM286.8,3h-15l1.5,6,13.5-6ZM84.3,3.7c-11.1-1.4-24.9,1-36.3,0l13,7.6c23.4,17.3,31.9,49.1,21.1,76.2l-7.5,13.5,29.8-15.1c30.8-22.1,17.8-77.4-20.1-82.2ZM133.7,3.7h-37.1l15.7,11.6c11.9,13.4,15.9,31.9,11,49.2l-7.6,15.6,33.7-17.2c20.1-16.8,9.7-55.2-15.7-59.1h0ZM287.6,7.5l-12.7,4.5c1.1,1.7,3,3,3,5.2,0,0,9.7-9.7,9.7-9.7ZM286.8,22.5l4.5-12.7-10.5,10.1,6,2.6ZM295.8,24.7v-13.5c-3.1,3.1-4.1,8.4-6,12.3l6,1.1h0ZM244.6,32.4c.6.6,3,3.7,3.4,4.5,1.4,2.9.7,5.7,2.5,8,3.1-4.3,24.6-22.7,25.1-25.9s-2.4-5.8-4.7-5.5l-33.5,14.1c1.8,2.1,5.2,2.9,7.2,4.7h0ZM271.8,59.1l12.6-32c.8-3-3.8-6.6-6.3-4.7l-25.8,25.9c5.7.3,11.7.6,15.7,5.2,1.6,1.8,1.9,4.3,3.7,5.6h0ZM296.5,63.6l-.8-34c-.7-3.6-6-4.4-8.1-1.4l-12.1,31.7c7.5-3,15.1-1.7,20.9,3.7h.1ZM221,76.3l25.3-27.5c3.9-10.2-5.4-19.9-15.8-18-6.4,1.2-23,10.2-30,13.4s-1.8.6-2.8.6l10,3.9c9.3,4.7,15.7,17.4,13.2,27.6h0ZM193.3,108.5l22.8-26.2c9.1-17.9-7.6-38-26.9-32.9l-31,14.3,13.6,3.9c15.8,7.3,24,23.8,21.5,41h0ZM257.6,97.3l11.9-33.3c-1.2-10.5-12.6-17.2-21.6-10.5s-16.2,18.5-23.9,25.8c10.4-3.5,21.6.3,28.4,8.6l5.2,9.3h0ZM298,102.5c-.7-8.5-.2-17.3-.7-25.8s-.5-10.5-5.7-13.7-14.9-2.7-19.1,3.8l-11.8,32c2.7-.8,4.4-2.6,7.1-3.8,11.3-4.6,22.3-1.3,30.3,7.5h0ZM166.3,143c12.2-16,29.5-28.9,22.7-51.5-2.9-9.6-12-18.9-21.5-21.9-20.1-6.4-33,7.8-50.5,14.3l11.2,1.8c17.4,3.6,33,19,37,36.3,1.7,7.2,1.4,13.7,1.1,21ZM244.9,137.7c1.1-12.5,12.4-28.6,9-40.8-4.3-15.2-25.1-21.2-36.7-10.4-5.5,5.1-15.1,17.3-19.8,23.6s-1.5.9-1.1,2.2c15.1-6.5,32.7-1,42.2,12l6.4,13.4ZM75.7,106.3h11.6c23.6,0,53.5,32.6,53.5,55.8v16.5c0,.1-1.6,4.7.4,1.9,16.3-23.1,34.2-47.7,12-74.9-22.4-27.3-50.4-17-75.8-.9s-1.7.7-1.7,1.6h0ZM300.3,142.2l-1.6-31c-3.9-14.9-22.6-19.9-34.7-10.9s-11.8,27.9-16.1,38.9c15-14.9,39.6-14.3,52.4,3h0ZM232.9,179.6l9-34.1c-.5-20.3-17.3-35.3-37.6-32.3s-25.7,22.4-35.7,34.2c22.2-10.9,48.3-2.8,59.8,19.2l4.6,13h-.1ZM303.3,182.6l-2.6-32.2c-10.5-26.7-47.5-24.2-56.9,2.2-3.1,8.8-5.1,19.3-7.1,28.4,11.6-13.1,26.1-19.2,43.6-14.8,10.1,2.6,16.5,8.5,23,16.2v.2ZM223.9,223.8c.6-13.3,7.2-26.6,6-40-2.8-31.6-40.2-49.5-65.5-28.8-5.6,4.6-12.4,15.4-16.4,21.8s-4.6,7-4.2,7.4c3.1-.7,5.6-2.7,8.6-3.8,26.4-9.8,55.3,4.2,66.4,29.5,1.8,4.1,2.5,8.3,4,12.5s0,1.7,1.1,1.5h0ZM307.8,225.3c-2.4-13.7,0-29-7.9-41.1-11.7-18-37.4-20.8-53.8-7.5-15.3,12.3-15.5,31.1-19.1,49l6-7.5c16.5-18.6,47-21.1,65.5-4.1,3.7,3.4,6,7.6,9.3,11.2Z"/></svg>