<?xml version="1.0" encoding="UTF-8"?><svg id="Layer_1" xmlns="http://www.w3.org/2000/svg" viewBox="0 0 188.4 260"><path d="M142.9,174.3c5.4,1,12.9-4.7,17.8-2,2,4,42.3,35.4,22.1,29.2l-24.5-23.3-13.7.9c.2,7.6,0,15.1-2.3,22.3.4,1.5,14.2,5.1,16.6,8.5l13.2,36.9-1,2.7c-2-.5-3.7-1.3-4.5-3.2l-12-33.1c-3.1-.8-11.7-6.1-14.4-5.4s-8.9,13.2-12.4,14.5c3.3,3.8,9.3,7.1,11.2,12.1,1.3,4.1,4.6,29.6-3.4,24.9-3.7-1.8-.9-15.2-1.2-19.1-.6-7-6.2-9.4-10.5-13.9-16.3,9.5-35.1,12.1-52.7,4.4-7.8-3.4-8.7-8.1-16.1.6-5.1,5.9-3.6,10.4-3.6,17.9s1.9,10.4-3,10.1c-4.1-3-1.8-7.7-1.8-11.4-2.2-12.5.6-18.9,10.1-26.9-3-1.5-9.3-13.2-11.6-13.4s-12.1,4.1-13.4,5.7c-5.3,9.8-6.7,24.8-11.9,34.1-4.1,7-2.1,2.6-3.9,2.5-2.3-1.1-1.8-3.9-1.4-5.9.9-4.7,4.6-13.7,6.5-18.7,4.9-13.3,4.8-18.9,18.5-22.2,2.4-.8,3.7-.2,4-1.4-2-7-3.3-14.6-1.8-21.8l-14.3-2.1-23.5,23c-1,.9-3.3,1-3.8-.4-1.2-4.8,1.9-5.4,4.4-8,6.9-6.9,13.6-13.8,20.7-20.6,3.7-3.1,14.6,3.4,17.3,1.8s4.5-10.1,5.7-12.2c2.8-4.6,6.5-8.5,10.4-12.3,0-1-13.6-12.8-15.4-13.3-9.1,1.7-23,20.3-32.1,26.2-9.3,7.3-3.9,3.3-5.5,1.7-4-4.1,5-8.7,7.3-10.6,23.4-19.9,24.1-34.3,50.7-7.9,8.4-4.2,16.2-7.7,25.7-8.7,1.4-43.4-1.5-87.1,1-130.4.7-6.8,5.2-9.3,5.9-1.3l.2,131.7c4.9,1,9.7,1.8,14.4,3.5s9.6,5.5,11.2,5.3c8.5-3.2,17.5-21.7,28.2-12.4,0,0,31.3,26.6,31.3,26.6l-.4,3.5-4.4-.4c-9.7-7.7-19-16.1-28.2-24.2-5-4.4-7.1-1.7-11.6,2-3.1,2.6-7,6.5-9.5,9.5,6.8,6.9,12.9,14.7,15.6,24.2h0ZM86.6,143.4c-84.2,21.1-14.5,128.7,43.1,68.1,18.9-24.4-6-72.3-43.1-68.2h0Z"/><path d="M82.9,198.3c5.4,1.4,6.7,5.6,13.3,3.8,6.6-1.8,7.3-5.8,9.6-3s-6.2,9.3-9.4,9.7c-5.7.9-16-2.2-14.8-9.4l1.4-1.1h0Z"/><path d="M73.8,178.5c8.8-.1,8.8,13.7,0,13.6-8.8.1-8.8-13.7,0-13.6Z"/><path d="M113.7,178.6c8.7-.1,8.7,13.5,0,13.4-8.7.1-8.7-13.5,0-13.4Z"/></svg>