<?xml version="1.0" encoding="UTF-8"?><svg id="Layer_1" xmlns="http://www.w3.org/2000/svg" viewBox="0 0 284.4 268.5"><path d="M103.9,93.4C55.4-42.4,73.9-7.8,169.2,57.2c78.3-23.8,147.1-82.4,68.4,44.2-10.1,19.4-5.9,11.6-8.4,17.6,3.1,17.4,95.3,131.8,34.6,106.8-23.5-8.2-45.8-22-69.2-30.5-17.1,21.9-30.6,46.4-45.8,69.6-8.2,7.6-12.3,1.8-14.9-6.4-25.9-123.9-4.8-79.4-116.3-114.4-31.2-10.2-10.8-2.6-12.8-6.3-13.4-17.5,85.7-35.5,99.1-44.6ZM256.2,39.3c-123.1,48.6-62.1,52.2-166.5-23.4,6.3,24.5,17.1,48.3,24.6,72.2,3,11.9-.2,12.4-10.5,17.1-22.5,11.3-52,15.4-72.6,28.7,24,7,48.2,13.5,71.9,21.4,4.3,1.4,15.4,4.3,18.3,7,12.2,25.3,14.2,55,23.4,81.6,12.7-13.8,20.8-33.7,32.6-48.9,10.7-14.6,9.8-15.8,18.2-14.1l74.4,34.2c-12.6-29.3-32.3-55-47-83.2-6-11.6-6.6-11.2-1.6-23.5,4.7-13.1,33-57.4,34.8-69.2Z"/></svg>