<?xml version="1.0" encoding="UTF-8"?><svg xmlns="http://www.w3.org/2000/svg" viewBox="0 0 1518 1518"><defs><style>.cls-1{fill:#fff;}</style></defs><g id="Layer_1"><path class="cls-1" d="M1518,0v1518H0V0h1518ZM795.4,251.9c-4.3-.3-7.2-.7-7.5,4.5l7.5-4.5ZM746.6,254.9c-3.4-.4-2.1,8.6-10.8,2.4-4.2.4-3.5,3.7-5.4,3.5s-1.4-2.2-2.1-2.2c-1.4,0-12.2,2.6-10.1,4.5s5.6-.4,3,3-6.1-3.7-8.2-3c9.7,6.9,2.7,6.7,1.4,9.5-3.6,7.8,7.1-1.1,9,.3-2.5-2.6,3-19.7,1.5-7.5,4.7-8.4,2.8-1.7,3.9-.1s1.8,0,2.8,1.3-2.7,3.8,2.5,2.5,2.5-3.4,4.3-3c-1.4-1-6.1-2.1-3-4.5s1.2,2.7,2.2,2.2-.6-2,.9-2.5c3.3-1.2,8.3-1.2,11.9-1.2l-3.8-5.2h0ZM838.1,263.1c-1.1-.6-3.8,1.3-5,1.3s-8.1-2.6-4.7.2,9,1.9,9.7,1.5,0-2.9,0-3ZM269.1,926.5c-6.1-1.5-1.5,2.2-3,3.8-3,3-9.1-10.1-4.5-5.3.3-1.1,0-7,0-7.4s-1.9-.5-2.2-1.2,4.1-2.8-3-3.4c8-3.4-4.9-5,3-5.2-5.8-4.5.8-3.8,0-6.4l-5.3-41.2c9.6-8.1-4,18.1,8.5,15.4,3.7-.8.4-3.2.4-3.4,0-.6,1.5-.2,1.5-.9,0-5.7-1.4-2.1-2.7-3.5-4.2-4.7,1-1.8,2.6-4.4,2.9-4.7-8.2-2.2-5.1-5.8s2,1.3,3,1.1c9-1.3,1.7-2.4.7-3.4s3.7-2.8-.4-2.2,0,2.1-1.8,2.2c-1.5-4.5,3.3-6.8,3.7-7.5s-2.7-3.7-1.5-8.5,2.8.3,2.3-1.6-7.6-8.5-9-8.3c4.6,2.2,3.9-10,5.2.4,8.1-4-6-6.2,0-12s2,3.2,3,1.5c2.2-3.8-6.8-2.4,1.5-7.5-6.8.8-3.4-3-3.7-3.8s-2.8.8-2.2-1.1,3.2,0,4.3-.5c2.1-1.2,3-7.1-2.1-5.1-.7-3,2.5,0,3-.7,3.2-4.9-4.2-6.4-4.4-6.8-1.9-3.6,3.9-1.9,4.4-3.3s-2.1-3-2.2-3.2c-1-5.3,2.7-5.7,3.7-.9.2-2.7-.9-6.8-3.7-7.5,6.4-.7-1-12.6,8.2-12.7.6-2.8-3.7-1.1-5.2-1.5,3.5-3.6-.9-6.2-.8-6.7,3.9-.5,2.9-5.7,4.1-8.2.7-1.7,2.7-.8,3.4-1.9s-1.7-.8-1.6-2.2c.4-8.4,3.2-4.9,3.8-5.7s-2.3-4.9-2.3-5.6,1.5-.2,1.6-1.5c.2-4.1-1.9-9.8,4.5-8.6-5.7-4.8.2-4.4,1.3-8.8s-2.7-7.2,4.7-8.4l-1.5-.7c3.6-3.4-.2-7.8,3-12s2.7,1.5,4.1-1.5-.9-10.4,4.2-9c.6-2.8-2.4-1-3-1.5s1.3-2.1,1.2-2.6c-1.5-3.6-2.5-3.8,1.7-3.4,1.1-1.6,1.7-14.5,2.3-14.9s3,.3,3.7,0c1.3-.5-2.7-2.3-1.5-3.7s2.4,0,2.7-.7c1.4-16.9,5.1-7.7,5.9-16.6.6-1.1,4.1.4,2.6-4.4s-5.4-1-.3-3.8,1.6,3.2,2.6,1.5c1.7-1.3,2-22.4,7.4-18,0-4.3-.4-5.4,3.6-7.7,1.8-3.4,3.4-10,5.1-13.2s10.8-11,5.6-12.8c6,1.2,1.8-2.2,4.2-3s2.7,1.2,3.3.7-2.8-4.4.8-7.5c.7,7.7,7.9-1.8,6.7-3s-5.3,3.4-6.7-.7c4.2.6,2.4-3.5,3.1-4.4,1.9-2.1,6.6,0,5.1-5.4,2.4-.9,1.2,6.5,3.4,2.3s-.9-3.3-.3-4.8,4.8-4.8,3.7-7.2c5.2,1,.8-7.3,9-6.8.6-2.4-4.7-1.5-3.7-4.5s4.2,0,5.1-.9,1-4.3,1.8-5.6,2.6,0,3.2-.9c1.3-2-1.7-5.8.3-7.2s5.4,1,6,.4c1.3-1.1-3.4-3.4-3-4.5s4.2-5.8,4.5-6c6.9,5.9-.8-8,12.8-12-1.2-5.3-1.8-3,2.9-4.9,1.4-2.5,2.1-7.5,5.9-6.5.4-.4.5-3,.9-3.6s2.3,2.9,4.5,1.5c-9.2-3.4,6.2-3.8-2.2-7.5,5.5,1.7,4.9-4.2,5.3-4.5,2-1.4,7.4,0,7.4-5.5l3-1.3-3-2.2c5.2.8,4.2-4.3,4.5-4.5.5-.3,6.6-1.2,6.7-1.5.5-1.2-1-4-.7-4.5,3.9-.7,4-.3,4.6-4.4,3.1-1.9,5.5,3.6,6.8-4.2s-1.8-.9-1.6-1.5c.6-1.4,3.7-1.5,4.9-2.6s1.9-5.8,7.1-6c-.3-1.1-3.3-.9-.8-2.6s1.3,2.3,3.4,1.9c4.6-.9-.2-5.3.4-6.7s1.8.2,2-.1c4.1-6.4,2.7-2.1,5.6-4.5s3.1-4.4,3.6-4.8c2.9-2.4,7.3-4.3,11.1-8s-.2-2.9.5-3.7c1.3-1.3,10.4-5.6,12.4-7.5-4.2-4.3,2.8-3.1,6.4-5.6s2.4-4.7,2.6-4.9,3.8-.7,5-1.7,0-2.4.6-2.8c2.1-1.7,5.9-2.2,6.2-2.4,2.4-1.9,9.6-13.2,12.1-7.3-2.8-8.4,8.4-9.1,12.6-12.1s0-2.7,1.2-3.7,2.8.8,3.8-.6,0-3.1.5-3.7c1.5-1.5,7.7-2.2,10.2-4s-.2-2.5.2-2.8c.5-.5,2.3.7,4.3-2.1s-3.5,2-2.9-1.7,9.5,3.3,6.7-6.8c7.6,9.1,2.2-.3,9.6,1.3.6-.5,1.2-4.5,3.1-5.5,4-1,13-1.9,12.9-8.5,4.5-.1,9,.8,8.1-6.1.4-.7,3,3.3,5.6,2.3s5.6-7.5,8.1-5.4c2-5.3,13.9-3.2,12.6-8.8,1.9-.7,6.2,1.2,4.3-2.4,5.9,2.9,8.7-5.2,10.1-6.8,3.5-1,.2,2.7,2.3,3,3,.5,13.1-9.1,16.3-6.1,7.3-11,4.8-2.2,6.9-2.9s1.1-2.5,2.3-2.9,6.3-1.6,6.7-1.6c.9-.1,3.3,2.6,5.6.7l-3-1.5c2.5.9,11-4.3,11.7-5.2s0-4.1.3-4.5,5.5.4,7.1,0-.7-3.2,2.7-2.3l-2.2,6.7c2.3-2.6,5-2.4,6,.7-2.8-7.9,12.3-4.9,15.5-7s.6-5.4-1.3-3.9,2.2,6.2-5.2,0c2.1-3.9,18.8-2.8,1.1-8.6,2.7,8.2-1.8,5-2.6,6-2.3,2.7,8.5,6.8-6,6.7,3.3-4.6,6.3-2.7,3.7-9-2.9-.5.8,4.6-3.4,4.5s-8-5.5-8.6-4.5c-1.2,1.8,4,3.3-1.5,5.2,6.3-1.4,1.3,6-1.7,3.8s-.8-6-5.3-3.8,0,10-4.1,4.7c-1.6-2.1,3-6.4,4.9-6.9s5.1,2.1,6-.2c2.4-6.2-4.1-.3-4.7-.6-.9-.6,0-2.7-.4-3-1.6-1.3-5.2,3.5-6.7.8,2.7,4.7-4.2,3-4.9,2.4s-1.4-5.8-3.3-4.6-.5,4.7-.9,5.1c-1.1,1.4-12.3,1.8-15,2.4s-2.8,3.9-4.3,2.2,1.2-3.8-1.8-4.5c-2.9-.4-11,1.5-10.2,3.7-.9.3-.8-2.7-3-1.5s.3,1.9,0,2.1c-3.4,1.4-10.4.5-8.1,6.2-5.3-4.4-7.1,0-7.5,0-1.4.2-2.9-2.9-3.7-1.5-3,4.9,6.3,1.2,6.7,2.6-1.9.3-11.1,4.9-11.7,4.8-2.5-.5.6-3.3-2.5-2.9-.5,4.3-1.6,3.4-3.7.8-.4,8.5-5.5-.9-6-.8s.2,1.9,0,2.1c-1.9.7-6.1,0-5.9,2.4,2.3,1.5,9.1-2,9,1.5-4.8-2-8.3,6.7-10.5.8,1.1,5.4-7.4,3.8-1.5-.7-8-.6-.2,4.4-7.1,6.7s-1.1-1.6-1.5-1.5c-2.1.6-6.8,1.3-7.1,1.5s.2,2.8,0,3-3.5-1.2-4.7-.8-7.1,6-8,6.4c-1.9.9-11.4,2.6-12.7,3.4s0,2.8,0,2.9c-.3.3-6.7-1.6-8.2-.7l1.5,2.2c-5.4-1.9-5.7,2.7-6.1,2.9-2.9,1.3-10.4,2-13.4,3.5s-.8,2.9-2.3,3.8-3.2-.3-3.4-.2c-3.1,2-3.9,5.4-4.2,5.6-2.8,1.9-5.6.8-5.8.9s.3,1.8-.1,2.1c-7.6-.1.1,7.3-9.7,5.4l3.7,3c-8.6,1.5-11.7,2.5-17.1,9.2s1,2.5.6,2.8-10.7,3-11.7,4.5,1.5,2.4,1.2,3c-.5.9-5.8.9-6,1.1-1.7,1.3-3.3,12.4-5.3,4.2-1.1,4-4.1,1.5-7.5.7,3.4,2.1,1.5,6.9-.8,9.7s-1.1-2.9-2.9-1.5-1.7,3.4-3.3,5-2.1,0-3.1,1-.2,3.6-1,4.1c-1.2.8-3.4,0-4.4.5-2.3,1.3-.7,4.9-.9,5.1s-4.2-.4-6,.8c10.2,3.6-10.1,3.7-5.3,9.8-.3.3-3.3-.3-3.7,0s1.9,10.7-3.7,2.2c1.1,4.6-3.4,3.6-4.4,4.6s.1,2.1-.4,2.6c-5.1,3.4-7.8,4.3-5.8,9.2-.5.5-3.1-1-3.7-.7s1.1,3.4-3,2.3c7.7,2.8-.7,2.4-4.1,6s-1,4.3-1.2,4.5c-.5.5-2.8-.9-3-.8.6,3.7,2,3-2.3,3,1,5.7-3.4,4.9-6.7,5.2,3,3.9-5.7,6.3-5.3,9.8l-2.2-2.2c2.3,5.7-3.5,4.2-2.3,9-4.6-3.8-2.8,2-4.6,4.3s-3.2.7-4.3,2.1-1.3,3.9-2.3,5.1c-1.4,1.8-6.3,1.9-4.5,7.2-3-4.9-8.1,5.8-.7,1.5,2.5,1.9-7.6,4.1-9.3,6-2.6,2.2-2.2,10.1-5.7,8.2-.7,1,2.3.6,1.5,1.5-7.7,2.3-.8,5-9.6,7.6-.8,4.2.4,5.1-4.6,3.6-.7.5,2.3,3.1,1.4,5.2s-3,.8-4.7,3.2c-2.5,3.7-6.8,13.8-9,16.1s-11.5,3.5-1.3,4c-.2,2.1-8.7,3.9-5.6,6s1.1-2.4,1.9-1.5c3.5,4-6.8,3.3-7.5,7.9s3.2,1.2,1.5,5.1-7.1.7-7.5,2,2.2,1,2.2,1.9c-.7,4.9-6.5,3.8-3,9.4-.4.4-3.8-1.3-4.5-.7s-.1,5.7-1.1,6.8c-4.7,2.2-4.4-2.2-4.8,5.9.4.4,4.5-.6,4.5.4,0,2.8-7-2.6-3.7,4.9-2.3,1.1-1-3.1-2.2-2.2s-.9,5.1-1.1,5.3c-.4.6-2.4.5-2.6.8-1.4,2.9-2.7,11.4-3.1,11.9-1.1,1.1-3.4-3.1-4.9,4.9s1.4,3.2,1.2,3.4c-7.8-.8-3-2.2-5.9,8.7-1.1,2.9-4.6,6.6-6,8.7s.9,2.4.6,3.1c-1,2.1-3.7.8-4.5,1.2s2.8,7.5-2.2,9.7l3.7,1.5c-3.3-1.1-4.8,5.4-5.2,5.7-.7.5-3.2-.9-3.8-.4s2.5,9.3,2.2,9.7-2.2,0-2.6.8c-1,2.1-1.6,6.5-1.9,6.7s-3.4-.3-3.7,0-.2,5.1-.7,7.5,1.9-.6,1.5,1.1-1.8.8-2,1.3c-.6,2.2-.9,8.5-4.7,7.4,3.5,3.7-.8,10.1-2.4,14.5-.8,2.4-.6,12.4-2.9,1.2-2.1,6.6,1.6,18.5-5.5,23.4,3,5-6.6,21.7-6.3,22.8.5,2.4,2.6,1.2,2.9,2.1s-2.5,2.4-2.8,3.1c-.3,2,.4,5.8-3.2,4.8,4.9,7.9,4.9,3.7-.8,11.6-.3,1.2,1.6,2.5,1.4,3.5-.9,4.4-6,5.9-.6,8-2.4-.4-7.9,2.5-8.2,4.9-.5,4.1,2.9,0,4.2,2.2,2.4,4.3-3.1,19.3-2,20.6s5.7-.3,3,3-1.8-1.6-1.9-1.5c-2.1,1.3-2.7,5.8-7.1,5.6,6.8.7,1.1,4,3,8.6l-3-1.5c2.9,1.7-4.2,9.3-1.1,8.2s2.5-4.3,2.7-4.4,4.5,0,4.4,1.1-3.6,1.7-3.7,1.9c-.8,1.4,1.7,5.8,1.5,5.9s-3.7-1.4-4.5,2.6,2.2-.5,2.6-.4c2.2.9-.2,12.9-.2,14.7s1.8,2.7,1.7,4.4c-3.5,6.7-1.1,8.1.2,14.2-.3,3.5-13.2,8.7-1.4,6.4-3.2,3.5.1,5.9,0,7.8-1,9.2-3.9,8.6,1.4,16.2-.6,1-2.4,0-3,1.2s3,4.9,3,5.2c-2.2,1.6-3.7,1.4,0,2.6-4.2,7.5-.5,7.5,0,15.3-.3,2.4-3.8,1.7-3,4.9l1.5-1.5c-1.3,6.2,1.4,4.2,1.5,4.5,0,1.2-1.2,5,1.5,4.5.7,2.2-2.4,1.3-1.5,2.2s4.2.3,1.9,6.1c-.4,1-3.4-.2-2.7,2.2,5.1-.4,3.8,4.2,5.2,7.8s2.2.4,2.3.5c1.6,2.6-5.1,1.2-4.5,3s1.9-.2,2.7,3.7-1.3,3.6-1.2,3.8c.3.3,6.3-2.2,4.4,3.3s-9.9-.2-5.9,2.7,6.4-3.6,7.9,5.6-3.8,3.1-2.6,7.3,4.3,2.6,4.4,3.2c.2.9-1.7,2.1-1.5,2.9s7.9,5.8,3.8,9.1-7.8-1.2-4.5,3.3,4.3-3.5,5.2-2.2c1.9,2.5-.5,11.3,0,12s1.5-1.8,2.6-1.5c3.2.9,3.5,11.2,5,13.4s1.8-3.2,3.7-1.4c-1,1.8.4,12.2,1.5,12.7s.2-2.2,1.9-1.5c4.6,1.9-.2,2.1-.3,2.3-1.8,5.6,7.9,5.7,3.7,11.2.3.4,3.2.3,3.7.8,1.6,1.3-2.4,1.2-1.5,3s4-2.5,0,3c2.6-3.3,6.5,6.8,5.7,8.3s-4.2.6-2.7,5.9c7.2-12.1,4.9.9,5.2,1.5s3.4.5,3.7.9,3,9.7,3.9,11.1l1.1-1.5c.2,1.2,3.4,3.1,3.4,3.4,0,.9-3.1-.6-2.2,1.9,4.6-2.1,14.1,27.6,17.3,20.2.3.5-1.3,3.3-.7,4.4.9,1.6,9.6-2.5,1.5,5.3,6.9-.3,7.9,5.7,10.7,9.5s7.7,3.1,2.4,4.7-5.6-10.6-8.6-5.3,7.1,5.7,7.5,6c-.8,11.1,11.5-1.7,9,9.8.2.2,2.5-1.2,3-.7,3.1,3.1-2.8,2.8-3,3-1.2,1.2,5.2,7.3,6.7,0,2.7,5.2-2.1,14.3,5.3,6.7-.9,4.9,9.3,8.7,11.1,10.6s-.3,2.7.2,3.6,2.1,0,2.2,0c.7,1.2-3.6,2.6-.8,5.6s3.8-2.6,4.2-2.6c.8,0,.9,2.4,1.7,3,3.9,2.5,5.7,1.9,5.5,6.7.8.7,2.3-1.6,3.3-1.4,2.8.5,3.2,5.7,3.5,5.9.5.3,2.9-3.2,3.7-2.2.3,5.7,1,5.4,6,5.3.3.3-.5,3.3.3,4.6s6.8-1.3,5.7,4.4c2.9-4.1,1.9.7,2.9,1.2,4.7.9,4.5-.8,7.2,3.4.7.2,2.7-2.3,3.4-1.5s-.8,3.3-.4,3.8c6.3,2.4,4.2-2.2,7.2,6.7.2.2,7.2-.2,7.5,0s-1.1,2-.7,2.2c1,.5,7.5-1.5,5.3,2.1,1,.5,2.9,0,4.3.6s6.7,7,7.6,6.2-1.2-3.7,1.5-3c-.6,3.7,10.5,9.3,11.3,5.3.3.4,1.9,5.1,2.3,5.2.5.2,9.8.7,11.2.8-3.4,1.5-1.9.9-1.5,4.5,4.2-4.8,2.6,1.5,6.7-1.5-1.2,4.7,3.6,2.1,3,6,1.8-4.6,1.4-.5,2.4-.2,12.5.1,1.1,4.1,15.5,2.4.4.4.4,7.2,7.5,3-4.8,3.3,8,3.1,9.7,4.5s-1.6,2.2-.9,4.1,6.6,7,5.4,2.2-4.3-1.8-4.5-3.4c8.8-2.6,4.8,5.7,10.2,5.9s-1.1-3.2,2.3-4.3,11.5,2.9,13.1,4.7,4.3,7.9.7,6.5l18,2.3c-1.7-4.5-9.2.7-7.1-6.7,2.3,3,11.7,4.2,16.1,3.8-16.5,6.1,16.6,11,6.8,2.2,11.8-1.3,5.6,1.6,7.5,3.7s4.2-1,4.5-.7c.8.7-1.8,2.4-1.4,4,.6,2.4,8.7,3.5,8.9,1.3s-5.8-1.4-6.7-2.3c-4.8-5.3,3.7-.7,4-.6.6,0,.3-1.5.4-1.5,1.5,0,.2,1.5,1.1,1.5,7.7-4.4,17.9,2.2,1.8,4.5,7.2-.5,14.3,3.5,15.7-5.2-.2,4.3,3.8,3.2,4.5,3.8s-1.2,3.6,1.5,3c-2.5-8.9,8.3-6.6,1.5-2.3l3,2.3-3,.7c3.3,1.8,7.3,3.9,3.7-1.5l4.5.7-2.6-3c7.3-1.1,5.3,3.7,6,3.8,2,0,3.7-5.7,8.6-1.9s-6.6.3-3,4.9,15-10.3,10.5-2.2l-.7-1.5-2.3,3c3.8-.4,9.3,6.7,8.2-2.2l-3,2.2c-2.9-5.3,6.1-3.6,6.7-3,.9.9-2.7,3.3-.7,4.9s15,2.9,12-.4c-2.2-2.3-7.2,1.1-7.5.7-4-5.4,5.3-5,9.2-3.7s-.7,4.1,6.1,1.5c1.1-.4,0-2.4.8-2.3,1.5.3,1.1,3.9.3,4.4s-8.6-.9-5.9,1.6,7,1,7.8.8,0-2.2.9-2.3c4.5-.8,15.3-3.1,10.8,3.8,6.1-5.3,6.3-.4,6.8,0,5.6,2.8,1.9-8.2,13-2.8s.2,3.5,2.7,2.9c-.3-7.4,3.1-2.4,3.5-2.3,3.7.3,10.7-2.4,10,3.8,2.4-2.6,6.6.6,8.4-.7s.7-4.6,2.4-3.7,1,3.6,1.1,3.7c.5.4,11.6-7.4,9,.7,7-2.6,24.7,3,30.3.7s1.5-5.7,5.7-4.4c-4.1,1-3.5,6.6.3,5.2s1.6-5.1,4.6-4.4c5.3,1.3-3.5,2.2-1.1,3.4s5-2.1,7.5-1.1l-1.5,1.5c5.1-1.9,6,2.2,9.7,4.5,1.5-2.2-2.6-8.7-2.2-9,1.1-1.1,2.9,3,4.3,3.6,2.8,1.1,14.9,1.4,14.4-2.8,2.5-.7,1.2,2.1,1.5,2.2,1.8,1,1.7-2.8,3.4-2.3s0,3.5,1.9,2.3-.5-1.9.4-2.3,2.5.9,3,.8,1.2-5.3,2.6-3.7-1.8,7.5,7.6,5.6c1.3-.3,16.5-10.9,15.6-3.7s-5.3-2.8-6,0c-1.1,5.6,8.4,5.4,8.4-.9,5.9-4,8,0,9.5-.2s0-2.2,0-2.3c.5,0,3.8.7,5.5,0s.3-2.9,2.4-3,10.1,6.4-1.1,5.3c2.7,3.7,7.9-.6,12.7.7-1.1-2.9-3.8,0-5.3-1.1-4-2.8,9.5-5.7,10.1-5.6,3.7.2-1.7,5.3.4,5.6,4.4.7,10.1-.6,6-5.6l5.2,3.7c-3.2-5.6,7.8-8.1,6.7-1.5-7.4-3.9-6.8,4.2.2,1.5s.6-14.9,4.6-4.5c.8-2.4,4.1-.9,6.3-1.6s-.8-2.9,1.5-2.1c.4,4.7.7,5.2,5.5,4.4,7.4-1.2,1.7-4.8,2-5.1s7.4-.2,7.9-.3c2.9-.8,7.7-5,8.2-4.9.7,0,.3,2.2,1.1,2.7,3,1.8,2.1-1.6,2.4-1.8,4.9-2.5,12-3.8,5.9,2.8,4.9,2.2,4.3-8.3,6.4,0,2.9-1.6-1.2-4.6-.4-5.2,2.6-2,3,1.9,3.2,2,8.7,4.6,1.9-2.3,2-2.8,6.4-5.9,4-1.3,9.5-1,2.4-.6,4.2-5,6.3-4.2.5,1.5-3.2,5.2-.4,5.2,5.8,0,3.2-4.1,3.4-4.4s1.8.9,2.1.6,6.5-6.2,6.8-4-8,4.9-5.2,7.1,5.1-.6,5.2-.8c.3-5.7-1.2-3.2,3.7-3,.5-.5-2.9-1.9-1.9-3.8,1.4-2.6,6-.6,6.4-.7s.6-2.8.8-3c2-1.8.6,2.3,2.6,2.3s7.2-3.2,7.5-3c5.6,4-13.7,4.4-7.5,6s4.6-2,4.9-2.1c1.2-.5,3.5.4,4.4-.2s-.3-6.1,0-6.7,1.6.8,2.3.4c9.1-5.5,2.6,3,3,3.4s9.3.3,9-3.4-2.5-.4-2.2-2.2c1.7-4.2,7.1-6.2,5.3-.3.7.9,2.5-1.7,3-1.5s-.4,4.2,3,2.2-2.3-2.8-1.5-4.5,1.5.3,2.1-.2,0-1.9.2-2c1.7-.6,4.3.4,6.1-.3s13.4-6.3,14.8-4.3-3.9,5.9-1.1,4.5.9-2,1.2-2.2c.5-.3,2,.9,2.1.7.4-.3,3.4-6.4,3-7.5,0,5.9,10.3,4.4,9,0-2.8,5.5-5.6-1.2-5.2-1.5,2.3-1.9,7.2.2,7.5,0,.5-.3,1.7-6.4,8.7-6.7,4.7-.2-4.3,3.1-3.4,4.5,2.1,1.5,4.4-1.7,4.5-1.5.4.7-.8,3.1.7,3-1.2-13.8,4.9-4.8,7.8-6,4.4-2.1,3.3-9,7.8-7.6.7-.4.3-2.6,1.3-2.9,1.9-.5,2.8,3.1-.4,3,4.2,1.1,1.1,3.1,1.5,3.7,2.2,3.3,1.6-2.1,1.8-2.3,1.1-1.1,3.3-.6,3.4-.7.2-.3-1.6-3,.4-3.7s.6,2,1.5,2.3c4.7,1.3,3.4-3.2-4.4-3.8s-1.6,3-2.7,1.5c-2.9-3.8,6.6-1.5,7-1.6,1.5-.5,2.3-3.5,3.1-3.7,2.4-.5,0,3.8,2.2,3s-1.1-3.8-1.1-4.1c0-4.6,5.7.7,6,.4.6-.6-4.8-5.8,4.3-4.8,1,0,.7,2.3,1.7,1.8s-.2-1.9,0-2.1c1.9-.9,7,0,2.9-3.1,5.5,0,5.2-4.9,9.7-.8-2.9-6.8,2.9-4.8,4.3-6.2,3.2-5.3,3.6-5.9,9.2-5,.2-.2-2.1-4.2.4-5.2s-.8,3.1,2.2,2.3c3.8-.9-1.6-2.8,4.9-2.2.4-.4-1.5-6.9,7.1-5.2l-.4-1.5c2.3,2.5,9,.5,6.7-2.3s-4,2.4-4.5,1.5.4-2.1,0-3-2.9.9-2.2-1.5c5.5,1.5,7.1-4.3,7.5-4.5s1.7,1.8,2.2,1.5-.2-2.2,1.1-3,1.4,1.8,1.9,1.5.4-3.8,2.1-4.5c4.2-1.7,3.3,4.3,5.4,3.4s-1.5-6.7-3.7-5.6c1.9-1.8,6.5.3,6.7,0s-.7-7.3,2.6-6.7,0,3.8.4,4.5,4.4-2,4.5-2.3c.6-2-6.4-1.3-3.1-6.2s4.9,3.3,5.3,3.2c6-5.2-2.2-2.6,0-5.9,1.9-2.2,3.6.8,5.2,1.5.5-3.8,1-5.7,5.3-6-2.8-1.8-1.5-7.3,2.3-6l-.8,1.9c2.2,1.7,13.9-12.9,14.2-13.9.6-1.5-2.8-2.2-1.5-3,5.3-1.4.7,6.1,8.2-3.8.7-1.6-3.9.5-3-2.2,1.9.8,6.8-2.5,8.1-3.8s-.3-3.1.2-3.6c8.4-.4,12.2-20.7,18.3-19.6,1.6-1.2,3.7-11.6,6.4-9,.2-.3-.8-3.5-.7-3.7.2-.3,4.9-3.2,5.2-3.8.7-1.1-2.1-.4-1.5-1.5s1.7-.2,2.3-1.1c1.9-3.1,5.9-8.6,7.1-10.9,4-7.5,6.3-16.9,10.8-23.3s-1.6-2.6,3.9-4l-3-1.5c14.1-2.1.6-4.2,3.2-9.7s2-.9,2.9-1.7.6-2.4.7-2.5c1.5-.8,3.2,4.9,4.4,1s-2-3-2.2-3.7c-.8-2.4,2.4-1.8,2.3-3.7s-2.8-1.5-2.3-2.6,3.2-.2,3.4-4.5-2-2.2-1.9-3,3.5-3.3,3.7-3-1.6,4.3,3,3.7c-4.8-3.2-.8-4.6-.7-4.9,0-.5-2.5-.2-1.5-2.2s2.1-.7,2.9-2.4-1-2.8-.6-3.2c.6-.7,4.7,4,2.9-1.4s-2,.4-2.1-.4c-.5-3.9,4.9-5.5,5.2-6.1s-.2-4.7.4-7,2.5-2.1,2.6-2.3c.8-1.6-2.9-1.4-1.4-4.7,2.4-5.1,1.3,6,5.1,2.5s-1.5-3.4.7-6c-8.2,4.6-2.8-8.9-1.6-3.8,1.4-2.7-2.1-7.2,3.9-2.9l-1.5-3.7c11.6,4.2-1.8-2.7.7-5.2s8.1,1.1,6-3-4.7.7-.8-2.2c-9.1,1.7-2.5-6.4-1.9-6,2.4,1.5,0,4.7.4,5.2,2.9,4,1-7.7,4.5-6.7-4.7.6-5.5-7.1-1.9-6.8s0,2,.5,2.2c3.1,1,4.9-2.7,3.7-5.4s-3.9-.7-2-6.4,2.7,1.9,3.4.8,4.4-10.7,3.8-11.2c-4.9-4.1-2.7,13.1-6,8.5-4.4-5.7,7.4-11.3,1.4-14.9.3-1,3.2-2,3.7-3,1.1-2.2-4.9-2.5-2.2-4.1s8,3,8-6.5-4,5.7-4.6,5.8c-3.3.3.2-6.1.2-7.8s-2.4-2.1-2.1-2.7c10.3-2.3,7.9-2.3,9-12-1-1.5-5.6,1.5-6.7-.4,6.4-1.2,3.6-5.1,4.5-6.4s4,2.9,5.1-.5c1.6-5-4.8-3.2-4.4-7.3.4-5.1,3.1,3.7,5.3,1.1,2.5-4.1-10.6-4.5-2.4-11,.5-1.3-2.7-3.8,1.6-4.8.3,2,0,5,0,5.7.7,3.8,6.1-7.2,0-5.7-.3-1.7.3-3.7,0-5.5s-2.6-.8-2.3-2.4,5.9-.5-.7-6.4c5,4.3,1.5-7.2,4.9-4.5s-.5,5-.4,5.2c2.5,2.9,4.3-19,0-6-2.5-2.6-5,.2-5.2,0s.2-2.6-.4-3.8c-.9-1.7-2.8,3.9-1.9-3,10.2,9,5.8.5,5.9-4.1s3.3-4.5,1.6-6.4-5.7.2-6,.4c-1.1.7,3.6,7.3-1.3,7.9s-.3-2.3-.3-2.6c.3-2-3.4-5-3-6s2.7-.8,3-1.5c.9-2.5-3.4-2.2-2.2-4.1s4.9-2,3-3.8-5.9,8-9,3.4c9.3-3.3-1.9-3-.8-9.4,14.2,12-1.3-12.3,4.5-14.2-.7-.7-2.9,2.4-3.7,1.5-1.9-2.2,2.2-6,2.3-6.4.2-1.4-2.8-1.4-1.5-4.3s4.4,0,1.3-5.6-6.5.2.9-4.7c-8.6,3.4-2.4-6.3-2.4-7.9,0-3.4-2.4-4.4-2.7-6.9s2.2-4.2,1.4-5.4-2,1.1-2.2.7c-.5-.8,1.9-17.5.8-18.7s-3.7.5-4.4-2,1.5-3,1.4-5-2.2-1.1-2.2-1.2c-.2-2.3,1.7-1,1.5-2.5-.9-6.1-5-13.3-3-18.8-4.7-.5-2.6-13.8-8.3-12.4-.5-3,2,0,3-1.1s-1.5-10-3.4-11.6l-3.8-23.9c-4.8,0-5.8-8.6-2.9-7.6s10.7,18.3,2.8,1c-.3-.6.9-2.9.6-3.3-.6-.6-4.2,1.3-5.3.4-1.9-1.5.3-6.2,0-6.4-8.1,1.1,1.6-4.5,0-6.7-1.5-.8-3.8.4-4.5,0s.5-3.5,1.1-3.6c6.9-1.5,4.7,4.3,4.9,4.7.9,1.5,4.5.6,3,4.5s-2,.2-2.1.5c-3,6.1,4.4,4.6,2.8-1.6,1.9-.8,6,7.5,6.7,3.4,0-6.8-5.5.7-6.7-15.4-.8-.9-1.7,1.9-4.5,0,2.5,1.3,1.2-7.6-.4-7.5s-2.2,5.7.4,7.5c-3.2-.6,1,2.9-2.8,2.9s-2.4-2.3-5.5-.7c-.5-3,1.7,0,3-1.8,4.5-6.3.5-4.3-1.6-6.8s.3-2.3,0-2.7c-.4-.5-6.1,3.9-6.7,3-1.1-1.7,2.7-3.6,2.9-4.2,1-4.9-3.9-7.8.5-9.4s3.2,1,3.4.8c.3-.3,2-6.8-.5-6.8s-8.4,5.9-10,1.9c-1-2.5,5.7.6,6-3s-5.8-1.6-6-1.9.6-4.4.8-4.5,3.1,3.2,4.5.4-2.6-1.5-2.9-2c-2.8-4.4,3.1-5.9,1.8-8.2-2.1-3.6-1.4,5.4-5.2,1.5s1.7-4.6-6.5-4.5c6.8-3.4-1.6-3.7,0-8.2s11.7,1.2.7-4.5c.9,9.3-1.2,1.1-1.5.7-1.6-1.8-2.6,7.9-5.2,6s4.3-6.3,4.5-6.8c.8-1.8-4.6.7-3.7-2.2l7.5,1.1c-2.9-.6-2.1-5.1-4.1-5.6s-.6,4.5-3.3,3.7c.3-2.6-18.1-28.1-16.4-20.4-.6-.6-.7-4.2-.9-4.3-.9-.8-2.7,2.2-3.7,1.5-1.9-1.2,2.9-2.8,2.2-4.8-1-3.1-9.6-10-11.2-16.2.5.4,2,.2,2.9.9s2,7.4,3.1,2.5c.9-3.9-7.6-4.4-6-8.6-1.7.5-.3,4.1,0,5.2-9.5-2.1-4.5-10.6-10.4-9.1-.3-.4,0-2.3-1.1-3.8-2.2-2.7-6.9-.3-.5-6.7-8.4,5.1-16-13.1-7-6.5,1.8,1.3.8,8.4,4,5s-3.3-8.4-3.7-8.7c-.9-.6-6.8,1.7-9-.3,8.4-8.8-4.7-5.5-5.2-6s1-4.2.7-4.5c-.7-.6-4.4,1.4-3.7-1.5l5.2-1.5c-4.8,1.6-8.5-10.4-12.7-6.8.9-5.3-2.5-1.9-3-2.2s-.8-5.2-1.5-6-3.1,3-3.7,2.2.7-3,.5-3.4-3.9-6.8-4.3-7.1c-.9-.5-3.5,1.7-3.7,1.5-1.3-1.2,2.2-2.2,2.2-2.6s-3.5-3.3-3.8-3.4c-2.8-.7-.5,4.8-3,3s.3-4.2,0-4.8c-2.5-6.6-6.6-1.5-6.8-1.9-1.1-2.2,1.9-4.3-5.3-3l3-3c-10.5,2-2.7-5.1-8.3-5.2l.4,1.5c-6.2,0-2.3-5-2.6-5.3s-2.7,1-4,.7c-8.3-1.9-9.2-8.8-9.9-9-1-.3-3.3,1.2-4.1.7s0-2.4-1.1-3.1-6.9-2.8-8.6-3.8c-5.3-5.8-3-5.1-10.6-6.6-1.5-1.3,2.9-1.6,1.5-3s-4.8,1.9-5.9.7c-2.3-7.9,1.6-4.1-8-6.6-3.7-3.4-1.7-2.2-6.3-2.3-.5-.3.3-2.8,0-3-.9-.5-7.7-1.6-8.2-1.9-1.6-4.1-8-7.4-11.5-5-5.2-1.3-6-4.9-11.5-6.5s-1.9,1.5-4.2.6-.3-2.1-.6-2.2c-6.2-3.8-36.4-9.1-37.1-14.4-.5-.1-10.2,8.3-2.6-.7-2.1-.8-17.7-1-13.5-4.5-2.1-.6-7,0-8.1-.1s-1.6-3.9-3.1-2.1,1.5,6-1.5,5.2c1-8.4-1.1-4.9-7.3-7.2s-.8-2.5-.9-2.5c-1.1-.5-3.4,2.3-3.7,2.2.6-2.2-13.6-4.2-16.2-5.2-5.2-1-1.1,1.6-1.5,1.6-2.4-.5-2.7-2.2-3.1-2.3-1.4-.3-5.1.6-8,0s0-2.2-.9-2.3c-14.1-1.3-32.4-4.7-45.1-8.2-5.3-.7-3.9,1.7-5.1,1.6s-.4-1.5-.9-1.6c-2.7-.4-4.8,3.8-3.3-3-2,3.9-11.7,5.7-12,0-4.5,5.9-6.1,0-8.2-1.1s-3.3,1.2-4.1-2.6c-4,8.6-4.6-1-9.5.8s-.2,6.2-2.5,5.2-.7-4.6-1.2-5.2-9.1-.6-10.1-.5-2,2.3-2.6,1.9.2-2.2,0-2.3c-.9-.4-2.5.8-2.6.7-.8-.2,0-2.1-.4-2.2-2.1-.8-1.4,1.5-1.5,1.5-1.4-.2.3-1.3-2.6-1.5s-.3,1.6-2.2,1.6-2.2-3.1-5.6-1.5l3.7,3c-5.3,1-3.3-3.9-7.5-3l1.5,2.2c-6.9-4-1.4-.5-4.2,0s-6.4.6-7.1-2.3c1.4,4.3-8.5,1.5-9.3,1.6-1.7.3-3,4.8-4.2,1.4l1.5-.7c-2.5-.3-20.1.1-20.9.8s-.7,2.9-.8,3.7c-3,.6-.2-2.5-.7-3-2.2-1.9-3.9,1.5-4.1,1.5-2.2,0-15.4-4.3-14.6,2.2-9.6-.6-5.2-5.8-12.8,3.4.1.7,4-.3,1.5,2.2s-5.4-3.3-5.8-3.4-7.4.5-7.7.8c-.6.5,2.4,5.2-3.4,5.3,5.3-12-6.2,3.2-7.9-3.8-2.9.9,3.5,5.3,1.5,6.4s-6.1,2-6.4,1.8c-2.8-1.2,3.7-3.2,1.9-4.5-2.9-2.1-6.5,2.2-8,2.8s-11.5,2.8-4.3,3.1,5.1-3.3,7.1-2.2c-1.5,5.2-8,1.5-9.4,6,4.1-4.9-7.9-2.9-8.9-2.3-1.8,1.2.9,5.3-3.5,2.3l.7,3c-7.4-5.2-3.7.9-6.3,3.1s-3.6-.5-4.2,0,1.4,1.7,0,2.6-2.5-.9-4.5.7-1.5,5.1-5.3,4.9c.9,2.4,3.1.7,4.5.4-.8,3.8-5.4,5.4-5.2,9.8s2.1.3,3.7,1-1.5,2.6-1.6,3.4c-.3,3.2,4.2,4.8-2.2,4.9,6,6.1.9,4.9.8,5.2-1.5,2.8,2.1,2.1,2.2,2.3.4,1.1-.5,6.7,1.2,6.7s.7-7.6,4-2.9-2.8,3.4-2.9,3.7c-1.2,2.1,3.6,7.2,4.5.7-.9,2.9,5.4,7.6,6,6.7s-2.9-4.1,4.5-2.3c-5.3-4.8,1.3-5.2,2.6,1.5,2.1-8.1,4.1.5,7.2.4,6.7-.2,3-5.6,5.6-6.4s2,2.5,2.6,3,1.9-2.9,5.6-3,2,2.7,4.9,3c-.4-9.5,7.8-3.3,8.2-3.7s.3-4.2.8-4.5,9.4-.3,9.7,0c.5.5,2.7,15.2,3.8-1.5l45.3-4.5,1.1,2.3c1.7-5.3,6.3-2.8,3.8,2.3l2.3-3.7c4.3,3,12.5-1.5,15.6.2s1.7,4.5,4.3,5.1c4.7,1-.8-2.2-.9-2.4-2.7-7.9,4.6-2.8,7.7-2.7s9.7-1.8,10.1-1.6-1.2,4.4,7.7,3c1.3-.2-.3-3.4,6.4-1.3s-1.5,3.2,3,1.1-1.4-2.9,4.2-1.9,1.1,2.1,1.2,2.1c1.3,0,.4-1.5,1.2-1.5,11.1.6,4,1.5,5.5,3s6.2-1.6,8.3,0-1.7,3.8,1.9,3,1-7.3,1.5-7.5c2.1-.7,2.6,4.2,2.8,4.4,3.4,0,1.7,1,2.1,3.1,1.1.9,7.2-.8,8.7-.6s7.8,3.1,8.2,2.9c.9-.5,0-2.3.8-2.3s.7,2,1.7,2.3c7.1,1.9,17.4.7,23.7,3s0,3.8,2.7,2.3-.5-2.1.4-2.3c2.2-.4,1.4,5.1,3.4,0-.4,4.8,8.8,2.8,11.5,3.3,4.8.9,8.7,4.6,15.5,2.7l-3,2.2c2.8,0,13.5,5.7,10.5,0,6.1,4.7,1.9-3.8-.4-3.7s0,2.1-.4,2.2c-8.2,1.1-5-1.9-7.2-2.8-6.1-2.6-6.3,1.4-8.7.7s-3.9-8.9-6.5-2.3c-7.6-10.5,4.2-2.2,4.9-2.3,2.3-.3.6-2,1.1-2.2,2.9-1.4,2,2.1,2.6,2.3,1.1.3,8.2-1.2,8.6-.8s-.5,2.6.4,3.1,9.7,3.2,10.3,3.3c4.3,1,15-1.1,11.8,4,2.3.6,2.1-2.9,2.3-3,2.5-1.7,2.1,1.8,2.4,2,.6.5,1.8.2,2.8,1.3s-1.8,1.5-1.5,1.9c.7.8,6,0,6.3,0,1.4.7,3.6,8.2,7.2,1.4-1.2,7.2,5.4,3.8,8.8,5.4s.4,2.4,1.4,2.9c6.5-.4,12.6,9.8,19,7.4,4-2.5-4.8-2.2-5.1-2.4-.4-.3-5-5.4-5.5-5.7s-7.8,3.1-1-4.6c2.9,6.9,5.3,3.5,5.6,3.7-1.1,4.5,9.2,2.9,6.8,6.6,3.5,2,4.5,0,4.8,0,3.6,1.9,4,6.8.8,6s.9-3.7-1.9-3c-2.8,4.8,11.1,11.7,8.3,4.1s-3.1,1-3.8.4c-1-.9,4.4-10.5,6-2.2,2.7-6.3,2.5,2.6,4.7,3.6,8.1,3.6,1.7-7,2.8-8.1s5,.6,5.2.8c.5.5-.3,3.1,0,3.7s5.8-3.3,6,1.1-7.9-1.4-8.3-1.1,2.3,6.7,2.6,6.7c1.1.2-.9-2.8,1.5-3s4.5,6.3,8.6,3.8c0-2.2-2.8-2.3-3-4.9-.4-4.3,1.3.7,1.4.8,1.2.6,3.7.5,4.5,1.2,1.7,1.6-3.3,4.2-.7,5.6,3.8,1.9,4-3.1,6-.8-.8,3.3-2,2.9-4.5,4.1,5-1.2,3.4,2,3.7,2.3,1.9,1.5,1.2-2.1,1.9-2.3,5.3-1.6,3.7,4,4.1,4.5s2.8-.3,3,0c0,5.6-1.1,3.3,4,3.1,1.6.8,1.7,2.5,2.6,2.9,11.5-.2,10.8,11.8,20.4,9-8.8-2.6.8-14.2,3.1-.3,0,.4-3.5,4.3-2.3,6.4,7.2-10.7,6.8,7.1,11.1,4.4s.6-4.8,3.7-2.7c4.3,3.5-7.8,2.5,2,9.6,1.2.3-.1-4.9,2.6-4.5s3,2.4,3,2.6c0,.7-3.2.7-2.2,2.6s4.6,5.1,5.2,5.6,3.2,0,4.2,1.1.9,8.8,7.8,3.1c-3.6,5.7,5.5,8.3,7.6,10.3s3.5,6.6,3.7,6.9,3.1-.3,5.7,2.5,0,2.9.6,3.6c.9,1,2.8.4,3.2.9,2,2.2,4.9,5.4,6.8,7.5s0,2.8.5,3.6c13.1,9.9,12.8,15.4,20.2,29.2,2.8,4.4,2.7.7,3.4,1.9s-2.1,0-1.5,1.1,1.9.3,2.7,1.5-.4,2.4,0,3,2.7.7,3.1,1.4c.7,1.4,1.6,9.3,1.9,9.7s4.3.7,4.4.8c1.2,1.5-2.3,1.8-2.2,3s3.3,2.5,3.7,3.6c1.1,2.9,4.1,14,6.7,15.6s2.4-1,3.8,0,0,2.2.4,2.7c5,6.8.4,2.4.3,3.7,1,3.7,1.7,3.9,0,7.5.2.3,3.6-.8,5.3,2.6,2.3,4.7-2.2,1.5-2.3,3.4s1.3-.2,1.5.6c2.2,9.1,1.4,12.9,9.3,18.1.8,1.8.3,14.9,3.1,9.8s-.3-8.3,1.7-2.5-9.5,11.5,2.4,9.2c-6.8,7.4-.3,4.8,0,5.2s-.4,2.2,0,2.9,4.8.7,2.1,4.6-1.8-3-3.7-2.2c-1.3,5.7,10.7,3.2,1.5,7.5,5.5-1.2,4,8.1,5.2,11.5s2.5.3,2.9,1.7c.6,2.2.3,6.8.9,9.5s1.4.6,1.5,1.1c.3,2.2-.5,15.5,0,17s3.7,1.2,3.8,2.4-2.9,1-2.2,1.9c1.1,1.3,5.9-.9,0,3.7.8,0,3.3.4,3.6.9.5.7,1,14.4,1.7,17.3s2.8,2.6,2.8,4.7c0,3.6-4.4,1.9-2.9,5.2s2,0,2.3.9c1.4,3.8-.7,4.5-.6,5.7.5,4.2,4.3,7.3-1.7,11.7,8.2-.8,2.9,5.2,3,10s1.6.5,1.6,1c0,1.7,0,6.8-1.5,6.6.5,1.3,4.6,1.6,4.5,2.3,0,1.2-3.3-1.7-3.8,1.5-1.2,3.1,4.3,14.7-.7,13.5,0,3.7,1,7.3.7,13.4s1.9,2.5,1.5,3.8-2.2,0-2.3.4c0,.4,1.6,2.1,1.5,3.4-.3,5,.7,7.3.6,9.6s-2.1,2.2-2.1,4.6,1.6-.3,1.5.8c0,3.6-2.7,26.1-1.5,26.6s7.4-2.3,5.2,2.2-3.6-2.8-5.2-1.4,1.1,11.1-.4,15-2.5.6-2.7.7c-.4.3,2.5,1.5,2,4s-2.3,1.9-2.7,3.8c-1.1,5.2.3,4.4.8,6.7s-4.2,3.1,1.5,2.7c-4.7,1.4.2,2.4,1.5,6-10.7-2.1-3,3.1-3.7,4.5s-2-.5-2.3.4c-.5,1.9,2.6,6.5,2.3,7.1s-1.5-1-2-.6c-5,3.9-1.3,7.4,1.3,2.1.8,8.1-3.5,3.3-4.9,5.2-7.4,21.7,4.6,8.5,2.7,15.3-1.9,5.7-8.4-6.2-5.5,6-4.6,3.6-3.2,8.9-4,14.1-.8,3.2-5,11-4.7,11.6s7.4,2.9,1.8,3.4-.8-4.2-2.3-1.5c-3.8,7,.9,4.2,1.1,4.5,1.8,2.9-2,4.4-2.2,4.9s4.1,3-1.5,1.1l-6.9,24.2c-5.6,1.4-1.1,2.5-2.1,5.2s-6.7,7.8-8.3,12.2,2.2-.4,1.5,1.9-2.1-.2-2.2,0c-1.2,1.9,2,1,1.5,2.6-1,3.4-5.1,4.6-5.2,4.9-.5.8,2.3,3,1.4,5.5s-3.7-.5-5.5,2.8c-3.8,6.9-6.1,12.4-10.6,19.5s.4,3.2,0,3.7c-2.7,2.1-4.6-.4-4.3,4.3-.4.5-4.2,2.5-5,4.4s-1.8,7.9,0,9.2c-5.6-4.2-5.8,2.6-8.6,6s-3.2.6-3.4.7c-.9,1.5,4.5,4.3-.7,3.7-.5,2.9,1.7,2,1.5,2.6-.5,1.7-2.9.3-3,.4-1.3,1.1-4.7,7.9-9,7.5,6.7,3.5-.3,2.2-2.1,3.9s-2.6,3.4-2.8,3.6c-1,1.7.7,10.3-2.9,3-.2,4.1-6.1,3.4-6.4,3.7s1.7,3.7.7,5.2-4.1.4-5.3,1.9.5,3,0,3.4c-.3.3-12,4.7-8.3,8.1-1.4,1.7-6.4.5-7.4,4.6l3,.7c-6.5-1.3-3.2,3.5-3.7,4.5s-3.6-2.9-5.9-1.4-.2,2.3-1.2,2.9c-3,2-7.9,2.3-6.5,6.6l-14.8,8c-3.1,1.6-4.7,8.1-6.9,7s.4-2.3-.4-2.2-2.1,3.3-3.3,4.1-9.5,2.1-10.1,2.6c-1,.7,0,2.8-.4,3.1-1,.7-12.7,2.7-12.3,6.8-6.3,0-5,4.4-5.7,5.2s-2.2-2.3-4-1.5-1.1,2.9-1.2,3c-1.1.6-.5-2.2-1.5-1.5-1.8,3.3,1.1,2.9-3.7,3.1-.8.4-2.7,6.3-6.1,0l-1.5,7.5c-2.1-1.4,2.6-6.2-2.2-5.2,4.3.2-4.2,5.8-5.3,6.3-4.1,1.8-9.6,3.8-14.4,5.9s-6.6,1.4-9.8,2.8-.7,2.7-1.8,3.1c-1.1,1-16.6.8-13.1,5.2-.7.3-6.2,1.2-6.7,0l1.5,3.7c-5.9-7.1-5.5.3-8.1.8s-4.6-1.2-5.7-.8-.2,2.6-1.6,3c-2.4.7-8.6-.2-9.5,0-2.7.7-8.4,5-10.7,5.1s-.6-2.4-1.8-2.1-2.4,3.4-3.6,3.7c-.5.5-11.9-1.5-7.6,2.2-1.4.3-10.3-.6-12.7,0s.3,2.1-.5,2.3c-2.6.1-9.6,3.9-10.4.7-.8.2-1,2.2-1.1,2.2-.6,0-1.7-1.9-3.3-1.6s-.7,2.1-1.7,2.3c-1.6.3-9.8,0-10.4.3-1.5.4-2.2,4.1-3,4.3-1.5.3-2.3-1.5-3.7-1.6s.6,2.1-.8,2.3,0-1.6-.7-1.5c-11.4,3.2-21.5,3.8-32.9,6.1-9.4,1.5-1.8-3.3-4,.8-2.3-.5-46.3,1.2-31.7,3.7-2.3.2-1-1.7-2.6-1.6-6.4-.1-18.2,4.5-21.8.1-.2,0-2.7,1.3-5.3,1.6s-.6-1.8-1.8-1.6,0,1.6-1.3,2.1-2.4-.2-3.2.2.4,2.2-.4,2.2,0-2.2-.4-2.3c-3.3-.9-19.2,0-24.4,0h-12.8c-1.4,0-.8,1.6-2.2,1.6-7.3-4.5-16.8-.5-24.8-.8-5.8,0-1.9-2.6-5.9-1.6s.6,2.6-1.5,2.3c-3-.5,3.9-6.6-4.5-2.2-1.6.2.6-1.6-1.9-1.5s.4,2-.4,2.2-3.1-3.8-5.2-3-.8,3-1.6,3,.2-1.9-.7-2.3c-2.4-1.1-2.7,2.2-4.5,1.5s-.4-2.6-3-2.3-1.5,2.7-2.6,2.3-.3-3.6-4.9-2.3.6,3.1-1.9,2.3v-3c-3.1,1.2-20.4-1.3-21.4-.8s.2,4.6-.8,4.5-.8-2.9-1.3-3.6-2,0-2.1,0c0-.2,3.7-3.7-1.3-2.1s-.6,1.9-1.3,1.9c-11.1-3.7-21.8.8-31.4-5.1-2,0-1.7,3.3-3.4,2.3s.5-2.1-.4-2.3c-6.4-1.3-16.7-2.9-23-1.6-2.9-.4-6.3-4.4-9.2-5.1s-.6,2.7-2.9,1.4-.2-2.7-.5-2.9c-.5-.4-10.4-.2-12,.7l3-3.7c-8.9,2.7-2.6,1.6-7.1-2.1-2.9-.9-.1,5.8-3,5.1s-1.7-2.9-1.9-3-2.5,3-3.7,1.5,2.5-3.7-2.1-5.8-4.5,1.7-6.5,2.1c-6.1,1.4-6-2.9-6.4-3.1-2.2-.1-8,4.1-7.5-1.5-.7-.8-.9,3.2-2.2,1.5s-.5-3.6-.8-3.7c-.4-.3-3.3,3-4.5,2.2s2-6-3.4-.7l1.1-6c-3.1-.8,0,3.8-3,3s-2.5-2.7-3.6-3c-2.1-.6-4.3.8-7.6-.9s0-2.1-.1-2.1c-.4-.2-1.7.8-2.3.4s-1.9-6.5-7.4-.4c1-6.7-3.9-3.6-5.2-4.1-3.7-1.3-2.5-7.4-6.8-4.1,0-6.7-3.7-1.4-3.7,3,2.3-7.8-6.8-1-4.5-8.2l-5.2,3c3.2-5,.3-1.9-1.5-3.3s-.6-2.8-2-3.4-6.1,1.9-6.3,2.2c-.5,1.1,5,7.4-.6,4s1-4.3,2.1-7c-1.5.8-4.3-1.7-4.5-1.5-.4.6.9,3.8-.7,3.7.2-.9-2.7-5.8-3-6-5.2-4-6.7,1.9-7.5.7-1.9-2.6,2.7-7.2,5.2-6.4,4.8,1.6,2,5.3,2.3,5.6.6.7,2.2-1.6,3.9-1.4,3.4.5,11.6,9.9,8.1,2.1.2-.3,4.7,1,3-1.5s-12.2-6-13.5-6.4-2.4,1.9-3,1.1.5-2.9-.2-3.6c-3.3-3.9-8-2.9-8.4-3.2-1.3-.8-.9-2.5-1.3-2.8-2-1.2-8.5-2.4-8.9-2.7-1-.7-.3-3-1.1-3.5-1.3-.8-3.9-.3-4.7-.8-1.9-1.3-5.9-5.2-9-7.5s.1-2.5-.2-2.7c-.6-1.2-13.6-3.8-11.2-6.7-2-.5-4,.7-2.8-2.4-.5-.3-2,2.3-3,1.5s.3-2.1-.2-2.8c-3.2-3.6-5.8-3.3-7.9-4.9s.1-3-1.6-4-3.3,1.8-5.2.3-2.4-6.6-3.3-7.2c-3.4-2.4-12.4,1.8-6.6-6.2-6.1,1.9-3.4-4.2-5.6-4.5-3.9-.5-1,4.2-1.1,4.5s-3.7-1.8-1.5,3.8c5.7-5.7.8-.7,6.2,2.8s7.8-.9,5.8,5.4-5.6-4.4-7.4-2.3c0-4.1-3.3-2.8-4.5-6-1.5,1.5-3.9,5.1-5.2,3s2.5-3.6,0-6c10.4.4,2.4-17.2-3-13.1-.6-.5-6.5-10.8-7.1-10.9-3.9-.8-1.2,8.8-4.2,4.2s1.5-4,1.6-4.6c.2-1.2-2.7-6.9-3-1.9-.8-11.5-5.5,2.6-7.5,1.5s-4.1-6.5-3.8-6.7c.7-.6,13.3,6.9,1-9.7s-3.7-1.4-3.9-1.7-3.7-5.9-4-6.3c-.6-1,.2-4.7-.7-5.5-1.4-1.3-2.5,3.7-3.7,2.2s1.2-2.9.7-3.7-2.8.8-3.6,0-.2-3.6-.9-4.6-2.7-.6-3.4-2,.6-7.1-.5-8.9-2.7-.5-4-2.4.6-2.8.4-3-2.6.5-3.7-1.2-2.9-7.1-3.7-9,.9-2.3.7-2.6-2.7.6-4.8-2.3-.3-10.3-4.7-8,3.2,8.6,3.6,9.2-3.5,3.4-3,4.9c6.5-.7,3.5,2.4,3.7,6.7,2.8.6,1-2.5,1.5-3,2.2-1.9,4.6,2,1.7,3.8-6.5,4.2-4-3.6-5.6-6s-2.7,0-2.9,0c-.3-.4-.3-9.4-.7-9.7-7.7,2.3-6.5-13.8-7.8-15-1.9-2.8-2.8,1.6-4.1.7-3.7-2.4,1.3-3.8,2.2-5.6l-4.5-.8c3.3,3.1,1.1-5.7.7-6.4s-2,1.6-2.9-.5c-1.7-4,2.2-3,2.8-4.4,1.4-3.7-6.2-5.7-.7-7.1-4,1.3-2-5.1-2.2-5.2-.4-.3-4.6,2.8-5.9-.5s9.1-6.2-1.6-6.3c2.6-2.9,1.4-3.9,5.2-6-8,1.1-4-3.6-4.5-4.5s-1.9.8-2.3.4c-2.3-2.6.7-5.7.5-6.4-1.2-2.9-4.7-.5-4.9-.8-3.8-4.4,4.9-3.1,7.5-3-1.2-3.9-12.9-2.8-5.5-7.4s4.1,3.5,4.9,4.2,5.2,3.1,5.8,2c-2.9-5.3,1.8-10.1-4.5-11.6,3.3,3,3.1-7.4,2.7-9.3-.5-3-2.5-1.4-2.8-2.4-.4-1.8-2.1-8.8-2.1-9.8,0-2.5,3-3.2,2.1-5.7s-2.7-.7-3-1.7c-1.1-3.6,1.8-8.3-3-7,2-8.2,9.4-19.1-5.2-12,4.3,1.5,3.1,12.8,3.7,18.3s-1.8,0-1.3,3,1.9,1.1,2,1.4c.1,1.1-.2,8.4,3.1,5.8,1.2,1.9-3.6,2.8-3.7,3-1.8,3.2,3.5,2.7,3.7,3,1.4,1.6-2.8,4-2.3,5.6s1.7.6,2.2,1.6-.2,3.4.1,4,3.6-.9,3.7-.8c.2.2-.2,2.8,0,3h.5ZM812.6,265.4c-2.1,1.6-10.1-1.1-10.5-.7s1.2,2.2.7,3-8.3-3.4-5.2,3.3c.8,1.7,11.6.3,11.9-.3.2-.6-1.8-2.3,3.1-5.3ZM824.6,266.9c-1.4-1.8-9.1-1.8-10.4.8s3.4,5.1,5.2,3.6-1.6-4.3.4-4.5,1.6,3.4,1.9,3.7c2.2,1.9,4.2-2,2.9-3.7h0ZM845.6,265.4c-3.6-1.4-2.9,2.9-1.3,4.2,7.2,5.6,8.2-4,4.3-2s.5,2.1-.4,2.2c-1.3.2-2.4-4.4-2.6-4.5h0ZM749,269.8c-.5-.3.4-3-.5-2.9s-4.4,5.8-4.1,6c2.3,1.7,4.6-2.3,4.9-2.3,1.9,0,4.4,3.8,7.1,2.3,0-2.9-5.9-2.1-7.4-3.1ZM795.4,267.6c-1.5-1.4-5.7,1.4-5.3,3.3s7.1-1.6,5.3-3.3ZM865.7,267.8c-.8-.3-8.5-.4-8.8-.2-1.1.9,3.2,2.6,0,3.7,1.2,0,16.1-.7,8.8-3.6h0ZM764.6,272.1c-.2-.2-5-.9-5.2-.8-3.5,3.1,10.2,5.6,5.2.8ZM741.4,272.1c-3.3-3.2-5.1,6.9,5.2,3.7-7.6-.4-4.4-2.9-5.2-3.7ZM550.2,306.6c1.3-2-.2-7.8-2.3-2.3-1.1,0-.7-3-2.2-1.5-3.4,3.2,3.8,4.2,4.5,3.7h0ZM820.8,365.8l-18.7.4c1.4,2,20.5,2.7,18.7-.4ZM832.7,365.2c-1.4,0-5.9,2-7.4,2.8,1.5-1.1,14.2.9,10.5-2.2s-2.4.8-2.7.7c-.4-.1-.3-1.3-.4-1.3h0ZM756.4,367.3c-.4-.3-9.4,0-6.4,3.8s8-2.3,6.4-3.8ZM728.6,368.1c-10.6,8.7,2.4,2.8,7.5,4.5-.8-2.8-7.1-4.3-7.5-1.5v-3ZM716.6,371.1c-.5-.4-12.2,1.3-12.7,3,4-2.9,6.9,1.8,7.5,1.5s0-1.8,1.2-2.2,8.6,1.5,4-2.3ZM952,383.1c-1.3-2-7,.4-6,1.8,2.2,3,7-.3,6-1.8ZM961,389.1c1.2-2.9-8.3-4.9-9-3.7s.5,4.9,3,3.7-.5-1.8.4-2.3,1.7,3.6,1.9,3.8,3.7-1.3,3.7-1.5h0ZM1022.5,412.3c-.3-.1-2.1-6.3-3.8-1.9s7.3,2.4,7.9,2.6.2,2.1.5,2.2c6.8,1.2,2.6-6.6-4.6-2.9h0ZM1039.9,418.2c-.4-.3-.5-4.2-3.1-3.6l3.4,7.5c1.8-3.1-1.1-2.4,3.4-3.7-1.1-.2-3,.5-3.7-.2ZM1052.5,426.6c-4.6-.2,1.7,7.7,5.3,6l-5.3-6ZM458,440c-.8-1.2-8,4.6-6.7,6s7.7-4.5,6.7-6ZM438.5,465.5c2.5-2.4-7.4-2.3-8.4-1.5s-1.6,4.9-1.3,5.3c.7.7,9.6-3.3,9.7-3.8ZM421.3,478.3c-2.1-2.1-7.2,4.9-6,8.2,3.4.7,1.2-5,1.5-5.2s7.4,0,4.5-3ZM409.3,491.7c3.5,2.3,9.5-8.3,2-4.5s.2,4.6-2.7.8c0,.7.5,3.5.8,3.7h0ZM401.8,508.2c.2-.2,1-5.6,0-6s-6.8,8.9-6.8,10.5c4.1,1.1,2.6-4.1,3-4.5.5-.4,3.4.3,3.8,0ZM869.6,885.3c.7.7-3.6,18.6-4.1,19.5-72.9,31.5-30.7,121.3-35,179,1.1,2.9,5.4,4.2,9,3.4,57.2-26.8,137.1-88.5,90.4-159.3,233.8-469.4,48.7-578.1-56.5-59.1-1.7,2.3-29.7,11.4-34.3,12.5-173.5-.6-48.7,173.5-201,156.8-340.6-122.5-54.6-620.7,264.5-411.3,5,1.1,10.6-4,7.7-10-203.5-143.5-492.3,31.2-428.4,283,18.9,82.9,104,166.2,194.1,152.6,90.4-13.7,48.3-130.3,109.7-148.9,17.7-5.4,39.3-4.8,58.2-9.3,4.2-1,25.1-9.8,26.1-8.8h-.4ZM1264.4,576.6c-1.4-1.4-7.2-1.6-8-.2-1.5,2.6,3.1,2,0,4.5,6.2-2.4,2.6,2.1,6,4.5-1.4-3.6,7.4-3.9,2-8.8ZM772,609.6c-60.4,2.2-74.2,92.5-9.7,103.7,88.3,15.3,87.3-106.5,9.7-103.7ZM1275.7,609.6c-4.1-2.9-2.3,6-1,6.6,3.6,1.6,2.6-5.5,1-6.6ZM1280.3,618.6c0-.2-3-2.4-3.6-.5,3.6,5-2.5,3.7,1.5,9.4s2.1-1,2.2-.8c.3.5-2.5,15.8,2.8,5.6s-2.7-6.5-2.8-6.9c-.4-1.5,0-6.6,0-6.9h0ZM603,726.1c53.9,55.5,135.9-49.9,66.5-87.1-55.2-29.6-109.4,42.9-66.5,87.1ZM1287.8,646.9c-4.8-3.6-2.8,8.5,1.5,4.5s-1.3-4.3-1.5-4.5ZM1293.8,665.7c-1.1-.9-6.7.3-4.5,2.2s2.8-.3,3,0c.3.4-2,12.5,3,8.2s-1.5-1.6-1.5-2.7.7-7.2,0-7.8h0ZM1299.9,688.2c-3.4-3.2-5.4,7.4,0,6.7,1.2,2.4-3,3.6-3,4.1,0,.9,2.5,0,2.9.5,1.5,1.9-.6,5.9-.3,5.9,1.5.2,3.5-1.5,3.4-3.4s-6.2-3.4,0-3c-3.2-1.5-2.6-10.4-3-10.9h0ZM1305.9,717.4c-8.1-1.2-1.8,9.3-2.2,9.7s-3.5-.2-3.7,1.1,6.9-.3,1.5,7.1c10.2,1.1,2-15.5,2.2-16.5s3,.9,2.2-1.5h0ZM1305.8,746.6c.7-.6,3.1-8.9-2.6-7.5s-.3,10,2.6,7.5ZM1305.9,754.9c0,0,1.9-.2,2.1-1.3,1.3-7.4-5.5-5.7-5.9-3.6s1.7,1.9,1.5,3-1.4.3-1.5.7c-.4,3,3.5,6.5-4.6,5.7-.7,2.5,1.9.9,2.3,1.9,1.3,3-4.7,3.3-2.3,4.9,3.9,2.5,2.2-9.2,6-5.2s-2.1,3.7-1.5,4.5c.8,1.2,8.1.5,5-4.3s-2.6-.8-2.8-1c-1.4-1.8,2.8-1.4,3-2.6s-1.8-1.3-1.5-2.6h.2ZM567.3,761.1c-55.3,5.1-66.1,86.8-14.1,106.6,81.2,30.8,99.3-114.4,14.1-106.6ZM1308.1,768.4c-1.9-2.2-8.7,9.1-2.4,5.8s3.2-4.9,2.4-5.8ZM1307.4,787.9c.3-.3,0-8.1,0-8.5-2.2-5.2-6,4.3-5.6,5.5.6,2.1,4.3,4.2,5.7,3h0ZM588.7,980.2c57.7,58.8,139.8-43,65.7-81.1-59.7-30.7-108.9,37.1-65.7,81.1ZM274.4,940.8c-2.3.5-2.7,13.7,1.9,12.8s-2.5-4.5-1.9-6.8,3.6,1.7,0-6ZM278.9,954.3c-.1-.3-5.2,1.4-5.2,1.9,2.1.4,6.2,8.4,6,9-.4,1.1-3.6-.9-3,1.9,3.1-.9,2.1,2.2,2.3,2.2,8.5,3.3-.5-9.5-.8-10.3-.5-1.4,1.1-4,.8-4.7h0ZM283.4,975.3c-.7-1.4-6.4,3.6-5.2,4.5,2.6,2,6.6-1.9,5.2-4.5ZM287.3,986.4c-.5-.5-.5-4-.9-5.1l-1.5,5.2c-1.5.4-.1-3-1.5-2.2s3,19,8.6,18-3.6-9.2-1.1-11.2c-.2-.3-6,3.7-3.8-1.1s5.1-.3,5.3-.4c2.6-2.5-4.5-2.5-5.1-3.2ZM486.5,1175.4l-6-.8c-.2,3.3,2.9,1.3,3,1.5.6,1.1-1,5-.7,5.2.9.8,10.5,2.9,12,0-7-.3-4.5-6.4-9-4.5l.8-1.5h0ZM1015,1227.1c-1.8,0-7.7.4-8.2,3,2.5-1.4,8,.7,8.2-3ZM792.4,1277.4c-2.7-2.2-14.9,6.3-1.8,1.8.2,0,7.1,2.5,1.8-1.8Z"/><path d="M1305.9,825.3c-4.3,1-1.1,3.5-1.6,4.8-8.6,7.4,6.2,5.8,2.4,11-3,3.7-4.9-6.2-5.3-1.1-.3,4.1,6.1,2.3,4.4,7.3s-4.8,0-5.1.5c-.9,1.3,1.9,5.2-4.5,6.4,1.1,1.9,5.7-1.1,6.7.4s-.9,8.6-1.1,9c-.6,1.9-7.5,2.1-7.9,3s2.1,1.8,2.1,2.7c0,1.6-3.5,8-.2,7.8s4.6-17.3,4.6-5.8-6.4,5.6-8,6.5c-3.3,2.5,7.9,1.6-1.5,7.1,5.4,3.3-4.2,11-1.4,14.9,3.3,4.7,1.1-12.5,6-8.5s-3.1,10.1-3.8,11.2-2.5-3.3-3.4-.8c-1.9,5.7,1.8,6.1,2,6.4,1.2,2.8-.6,6.5-3.7,5.4s.3-2.1-.5-2.2c-3.6-.4-2.8,7.3,1.9,6.8-3.4-1-1.6,10.7-4.5,6.7s2-3.7-.4-5.2-7.2,7.7,1.9,6c-3.9,3,.6,2,.8,2.2,2.1,4.1-5.7,2.7-6,3-2.5,2.5,10.9,9.4-.7,5.2l1.5,3.7c-5.9-4.3-2.5.2-3.9,2.9s-1.8-.4-2.2.5c-1.7,4-.2,5.2,3.8,3.3-2.2,2.6-.5,5.8-.7,6-3.8,3.6-2.7-7.6-5.1-2.5s2.2,3.1,1.4,4.7-2.1,0-2.6,2.3-.3,6.7-.4,7c-.3.6-5.7,2.2-5.2,6.1s2,0,2.1.4c1.8,5.4-2.3.7-2.9,1.4s1,2.4.6,3.2c-.8,1.7-2.7,1.8-2.9,2.4-.9,2.1,1.6,1.7,1.5,2.2s-4.1,1.7.7,4.9c-4.6.6-2.8-3.5-3-3.7-6.3,4.4-2.8,2.2-1.8,6-.2,4.3-3.3,4.2-3.4,4.5-.5,1.1,2.2.6,2.3,2.6s-3.1,1.3-2.3,3.7,3.2.6,2.2,3.7-2.9-1.8-4.4-1-.2,2.1-.7,2.5c-11.1,4.1,10.1,9.7-6.1,11.4l3,1.5c-5.4,1.4-2.8,2.6-3.9,4-5.5,8.7-11.2,27.4-17.9,34.2-1.9,3.1-2.2,1-2.3,1.1-.7,1.1,2.1.4,1.5,1.5s-5.1,3.5-5.2,3.8.9,3.4.7,3.7-1.8-.2-2,.2c-2.7,4.4-2.9,9.2-8.2,11-2.2,2.3-12,22.2-14.5,17.4-.4.4.4,3-.2,3.6-1.3,1.3-6.2,4.7-8.1,3.8-.9,2.8,3.7.6,3,2.2-7.1,10-3.4,2.1-8.2,3.8-2.4,1.4,2.1,1.5,1.5,3s-12.1,15.6-14.2,13.9l.8-1.9c-3.8-1.3-5,4.2-2.3,6-4.2.3-4.7,2.2-5.3,6-1.6-.7-3.2-3.9-5.2-1.5-2.7,3.2,6.6,1.3,0,5.9-.4,0-2.4-7.5-5.3-3.2s3.6,4.2,3.1,6.2-4,3-4.5,2.3,1.7-4.1-.4-4.5c-3.3-.6-2.4,6.4-2.6,6.7s-4.8-1.8-6.7,0c2.2-1.1,5,5.1,3.7,5.6-2.1.9-1.2-5-5.4-3.4s-1.9,4.4-2.1,4.5c-.5.3-1.7-1.6-1.9-1.5-1.3.8-1,2.9-1.1,3-.5.3-1.6-1.8-2.2-1.5s-2,6-7.5,4.5c-.7,2.4,1.9,1.1,2.2,1.5.5.8-.2,2.5,0,3,.5.9,3.2-3.1,4.5-1.5,2.2,2.7-4.4,4.7-6.7,2.3l.4,1.5c-8.6-1.6-6.7,4.9-7.1,5.2s-2.5-.4-3.3,0-1.3,2.1-1.6,2.1c-3,.9-1.4-2.6-2.2-2.3-2.5,1.1-.2,5-.4,5.2-5.1-1.2-7,.4-9.2,5-1.5,1.4-7.2-.7-4.3,6.2-4.5-4.1-4.3.8-9.7.8,5.9,4.1-6.8,1.2-3,5.2-1,.5-.7-1.7-1.7-1.8-9.1-1-3.8,4.2-4.3,4.8s-6.1-5-6-.4,4.2,3.1,1.1,4.1,0-3.5-2.2-3-1.6,3.2-3.1,3.7-9.9-2.2-7,1.6,2.6-1.5,2.7-1.5c7.8.6,9.1,5.1,4.4,3.8s.4-3-1.5-2.3,0,3.5-.4,3.7-2.3-.3-3.4.7.4,5.6-1.8,2.3,2.7-2.6-1.5-3.7c5.5-.9-1.1-6.4-.9,0-.7.5-2.2-.2-2.7.2-.9.7-4.6,7.2-5.1,7.4-2.9,1.2-9-7.8-7.8,6-1.6,0-.4-2.3-.7-3s-2.4,2.9-4.5,1.5c-.9-1.3,8.1-4.7,3.4-4.5-7,.3-8.2,6.4-8.7,6.7-13.6-4.1-6.9,9.2-2.3,1.5,1.3,4.4-8.9,5.9-9,0,.4,1.1-2.7,7.2-3,7.5s-1.7-1-2.1-.7-.4,1.8-1.2,2.2c-2.7,1.4,1.6-3.8,1.1-4.5-1.4-2-12.4,3.5-14.8,4.3-2.4,1.1-8.4-1.5-6.3,2.3-.6.5-2,0-2.1.2-.8,1.7,2.9,3.7,1.5,4.5-3.4,2-2.8-2.2-3-2.2-.5-.2-2.3,2.4-3,1.5s.3-2.8,0-3.4c-.9-1.5-5.2,3.4-5.3,3.7-.2,1.8,2.2,1.5,2.2,2.2.3,3.7-8.6,3.8-9,3.4s6.2-8.9-3-3.4-2.1-.6-2.3-.4c-.4.6.9,6.1,0,6.7s-3.2-.4-4.4.2,1.1,3.7-4.9,2.1,13.1-2,7.5-6-6.4,3-7.5,3c-2,0-.6-4-2.6-2.3s-.6,2.9-.8,3c-.3.2-5-1.9-6.4.7-1,1.9,2.5,3.3,1.9,3.8-4.7-.6-3.7-2.3-3.7,3-.3.4-5,.9-5.2.8-2.8-2.2,5.7-4.3,5.2-7.1s-6.4,3.8-6.8,4-1.9-1-2.1-.6,2.4,4.3-3.4,4.4c-2.7,0,.9-3.7.4-5.2-2.1-.8-5.6,4.1-6.3,4.2-5.5-.4-3.7-4.9-9.5,1-.2.4,6.7,7.4-2,2.8s-.6-4-3.2-2,3.3,3.7.4,5.2c-2.1-8.3-1.4,2.2-6.4,0,6.1-6.6-1-5.3-5.9-2.8s.6,3.6-2.4,1.8-.3-2.6-1.1-2.7c-6.2,3.9-7.8,6-16.1,5.2-.3.3,5.4,3.9-2,5.1s-5.1.4-5.5-4.4c-2.3-.8-1.2,2-1.5,2.1-2.2.7-5.5-.8-6.3,1.6-4.1-10.4-3,3.9-4.6,4.5-7,2.7-7.7-5.4-.2-1.5,1.1-6.6-10-4.1-6.7,1.5l-5.2-3.7c4.1,5-1.6,6.4-6,5.6s3.4-5.5-.4-5.6-14.2,2.8-10.1,5.6c1.5,1,4.2-1.8,5.3,1.1-4.9-1.4-10,3-12.7-.7,11.3,1.1,2.6-5.4,1.1-5.3s-1.7,2.8-2.4,3c-3.1,1.1-6.7-1.9-5.5,2.3-1.5.3-3.6-3.8-9.5.2-.5.4-.9,3.4-1.9,4.1-2.1,1.4-7.6,1.2-6.5-3.2s5.5,4,6,0c-.7-10.3-22.7,15.2-23.2-1.9-1-1.1-2.2,3.6-2.6,3.7s-2.4-1-3-.8,0,2.1-.4,2.3c-2,1.3-1.2-2-1.9-2.3-1.7-.6-1.5,3.3-3.4,2.3s1-3-1.5-2.2c.5,4.2-11.7,3.9-14.4,2.8s-3.2-4.7-4.3-3.6,3.7,6.8,2.2,9c-3.7-2.3-4.6-6.4-9.7-4.5l1.5-1.5c-2.5-1-5.4,2.1-7.5,1.1s6.4-2,1.1-3.4-2.7,3.7-4.6,4.4c-3.7,1.4-4.4-4.1-.3-5.2-4.2-1.3-4,3.7-5.7,4.4-5.6,2.3-23.3-3.3-30.3-.7,2.6-8.2-8.5-.3-9-.7s.4-3-1.1-3.7-1.1,2.8-2.4,3.7c-1.9,1.3-6-1.9-8.4.7.7-6.3-6.4-3.6-10-3.8s-3.8-5.1-3.5,2.3c-2.4.6-1-2.1-2.7-2.9-11.1-5.4-7.4,5.6-13,2.8s-.8-5.2-6.8,0c4.5-6.8-6.3-4.6-10.8-3.8s0,2.1-.9,2.3-7.5-.5-7.8-.8c-2.7-2.5,5.5-1.4,5.9-1.6.8-.5,1.2-4.1-.3-4.4s.3,1.9-.8,2.3c-6.9,2.6-4.7-1.1-6.1-1.5-3.8-1.3-13.2-1.7-9.2,3.7s5.3-3.1,7.5-.7c3,3.2-10.9,1.3-12,.4-1.9-1.6,1.6-3.9.7-4.9s-9.7-2.3-6.7,3l3-2.2c1.1,8.9-4.4,1.8-8.2,2.2l2.3-3,.7,1.5c4.5-8.1-10,2.9-10.5,2.2-3.6-4.5,5.4-3,3-4.9-4.9-3.8-6.6,2-8.6,1.9s1.3-4.8-6-3.8l2.6,3-4.5-.7c3.6,5.4-.4,3.3-3.7,1.5l3-.7-3-2.3c6.8-4.3-4-6.7-1.5,2.3-2.7.6-.9-2.5-1.5-3s-4.7.5-4.5-3.8c-1.4,8.7-8.5,4.8-15.7,5.2,9.1-1.4,13-5.2,1.9-6.1s-2.6,1.7-3.7,1.6.3-1.5-1.1-1.5.2,1.6-.4,1.5-8.8-4.6-4,.6c14.9,2,1.2,6-2.2,1-.6-2.4,2.2-3.3,1.4-4s-4,1.3-4.5.7c-1.9-2.1,4.3-5.1-7.5-3.7,9.9,8.8-23.3,3.9-6.8-2.2-4.5.4-13.8-.8-16.1-3.8-2.1,7.5,5.4,2.2,7.1,6.7l-18-2.3c3.6,1.4-.4-6.1-.7-6.5-1.6-1.8-11.7-5.2-13.1-4.7-3.4,1.2,1.7,4.5-2.3,4.3s-1.4-8.6-10.2-5.9c.2,1.5,4.4,2.8,4.5,3.4,1.2,4.8-5.1-1.3-5.4-2.2-.7-2,1.5-3.7.9-4.1-1.7-1.4-14.5-1.2-9.7-4.5-7.1,4.2-7.1-2.7-7.5-3-1-.1-9.6,1.7-9.8-2-1.1-.3-3.7,0-5.7-.4s-.6-4.4-2.4.2c.6-3.9-4.3-1.3-3-6-4.1,3-2.5-3.3-6.7,1.5-.4-3.6-1.9-3,1.5-4.5-1.5,0-10.7-.6-11.2-.8s-2.1-5-2.3-5.2c-3,3.1-11.1-1.2-11.3-5.3-2.7-.7-1,2.6-1.5,3-.9.8-5.9-5.3-7.6-6.2-2.1-1.1-6.1.7-4.4-2.6-2.4-1-7.2,1.9-4.5-2.3-10.7-.3-5.4,2.2-9.9-5.8-1.2-.8-3.7.5-4.8-.9s.9-3.2.4-3.8-2.5,1.7-3.4,1.5c-3.3-4.6-2-2.3-7.2-3.4-1.6-.8,0-5.2-2.9-1.2,1.2-5.7-4.8-3.1-5.7-4.4s0-4.3-.3-4.6c-4.3.3-6.4-.2-6-5.3-.8-1-3.3,2.6-3.7,2.2s-.7-5.4-3.5-5.9-2.5,2.2-3.3,1.4c-.9-5.8-.3-3.5-5.5-6.7-1.4-1.1-.9-3.1-1.7-3s-.9,6-4.2,2.6,1.5-4.4.8-5.6-2,.2-2.2,0c-.5-.9.4-3-.2-3.6-1.8-1.9-12-5.7-11.1-10.6-7.4,7.5-2.6-1.6-5.3-6.7-1.6,7.4-8,1.2-6.7,0s6.1,0,3-3-2.8.9-3,.7c1.6-6.8-2.3-5.4-7.3-4.8-2.3-.5-1.6-4.8-1.7-5-.4-.4-8.6-4-7.5-6,3-5.3,5,6.4,8.6,5.3,5.3-1.6-2.2-4.4-2.4-4.7-2.8-3.8-3.8-9.8-10.7-9.5,8.1-7.8-.6-3.7-1.5-5.3s1-3.9.7-4.4-3.3-.5-3.7-.9c-3.6-4.5-7.3-12.7-11-18.6s-1.8-.7-2.6-.7c-.9-2.4,2.3-1,2.2-1.9s-3.2-2.1-3.4-3.4l-1.1,1.5c-.8-1.5-3.5-10.7-3.9-11.1s-3.5-.6-3.7-.9c-.4-.6,2-13.6-5.2-1.5-1.5-5.4,2.3-5.3,2.7-5.9.8-1.5-3-11.6-5.7-8.3,4-5.5.5-2,0-3-.9-1.8,3.1-1.7,1.5-3s-3.6-.6-3.7-.8c3.1-7.2-5.1-4.5-3.7-11.2,1.2-5,4.9-.4.3-2.3s-.6,2.1-1.9,1.5-2.5-10.9-1.5-12.7c-1.8-1.8-2.2,3.6-3.7,1.4s-1.7-12.5-5-13.4-2.3,1.9-2.6,1.5c-.5-.7,1.9-9.4,0-12s-4.2,3.7-5.2,2.2c-3.3-4.5,4-2.8,4.5-3.3,4.1-3.3-3.5-8.4-3.8-9.1s1.7-2,1.5-2.9-4-1.8-4.4-3.2c-1.2-4.2,3.4-2.2,2.6-7.3-1.5-9.2-7-4.9-7.9-5.6-4-2.9,5.3-.9,5.9-2.7,2-5.6-4.1-3.1-4.4-3.3s1.5-1.9,1.2-3.8c-.7-4-2.6-3.5-2.7-3.7-.6-1.7,6.1-.4,4.5-3s-1.9.4-2.3-.5c-1.4-3.6-.1-8.1-5.2-7.8-.7-2.4,2.3-1.2,2.7-2.2,2.2-5.7-1-5.1-1.9-6.1s2.1,0,1.5-2.2-1.4,0-1.7-.9.5-2.8.2-3.6-2.8,1.7-1.5-4.5l-1.5,1.5c-.4-1.6.2-2.1,1-2.6,4.6-1.3-.2-11-.2-12,0-1.3,2.2-5,2.2-5.6s-2.2-.4-2.2-1.1,2.3-.9,2.2-1.5c-1.3-2.5-5.8-5.9,0-6.4.7-1-2.7-3.2-3.1-5.6s1.6-7.2,1.7-10.6-3.3-4.3,0-7.8c-11.7,2.3,1.1-2.9,1.4-6.4-1.1-7.8-4.1-6.3-.2-14.2,0-1.4-1.8-3-1.7-4.4s2.4-13.9.2-14.7-3.1,2.9-2.6.4c.7-4.1,4.2-2.5,4.5-2.6s-2.2-4.5-1.5-5.9,3.6-.8,3.7-1.9-4.2-1.2-4.4-1.1-.6,3.7-2.7,4.4c-3.1,1.1,4.1-6.6,1.1-8.2l3,1.5c-1.9-4.6,3.9-7.9-3-8.6,4.8,1.1,7.2-10.2,9-4.1,2.7-3.3-2.8-2.8-3-3-1.1-1.3,4.4-16.3,2-20.6s-4.7,1.9-4.2-2.2,5.9-5.3,8.2-4.9c-5.4-2.1-.4-3.6.6-8s-1.7-2.3-1.4-3.5,4.4-5.7,4.5-6c.2-1-4.2-4.9-3.7-5.6s2.3,0,2.7-.7c.6-1.3,0-3.1.5-4.1s3.1-2.4,2.8-3.1c-8.8-.8,7.5-18.1,3.4-24.9,7.1-5,3.4-16.9,5.5-23.4,2.3,11.2,2.2.8,2.9-1.2,1.5-3.8,6-11,2.4-14.5,6.5-.4,2-7.9,6.7-8.7.4-1.7-1.5-1-1.5-1.1.5-2.4.4-7.2.7-7.5s3.4.3,3.7,0c.5-.2,1.3-10,4.5-7.5.2-.4-2.8-9.2-2.2-9.7s3.1.9,3.8.4,1.9-6.7,5.2-5.7l-3.7-1.5c5.1-2.2,1.8-9.4,2.2-9.7.7-.4,3.5.8,4.5-1.2s-1-2.5-.6-3.1c1.4-2.1,4.8-5.7,6-8.7s1-9.1,1.4-9.4,3.9,1.3,4.5.7-1.4-2.3-1.2-3.4c1.5-7.9,3.9-3.8,4.9-4.9s1.8-9,3.1-11.9,2.2-.2,2.6-.8,0-4.5,1.1-5.3,0,3.3,2.2,2.2c-3.3-7.4,3.8-2.1,3.7-4.9s-4.1,0-4.5-.4c-.5-11.6,5.9,1.9,5.9-12.7.7-.6,4.1,1.1,4.5.7s-1.6-2.5-1.1-3.8,4.3-3.2,4.1-5.6-2.6-.8-2.2-1.9,6.6,0,7.5-2c1.7-3.9-1.6-4.8-1.5-5.1.7-4.5,11-3.9,7.5-7.9s-.5,2.4-1.9,1.5c-3-2.1,5.4-3.9,5.6-6-10.2-.5,0-2.6,1.3-4,2.2-2.3,6.4-12.4,9-16.1,4.7-6.4,6.6.5,3.3-8.4.7-.5,2.5,1.5,3.8.4s.3-3.6.8-4c8.1-2.2,2.8-6.2,9.6-7.6.8-.9-2.2-.5-1.5-1.5s1.9.3,2.1-.1c.7-1.2,2.7-7.2,3.6-8.1,1.7-1.9,11.9-4.1,9.3-6s-2.6,1.1-3.4.8c-2-.8,2.4-6.1,4.1-2.3-1.8-5.3,3.1-5.5,4.5-7.2,2.3-4.5,1.5-5.9,6.6-7.2,1.9-2.3,0-8.1,4.6-4.3-1.3-4.8,4.6-3.3,2.3-9l2.2,2.2c-.6-3.2,8.9-6.6,5.3-9.8,3.6-.5,7.7.3,6.7-5.2,4.7-.4,2.6,1.2,2.3-3,5.5,1.8,1.6.4,4.2-3.7,3.4-3.7,11.8-3.2,4.1-6,4.1,1.2,2.8-2.2,3-2.3.6-.3,3.2,1.3,3.7.7-3-9.7,8.5-6.9,6.2-11.8,1-1,5.5,0,4.4-4.6,5.7,8.4,3.3-1.9,3.7-2.2,5.9,0,2.7.9,4.1-3.8,2.3-2.2,13-3.3,4.9-6,1.7-1.2,5.7-.6,6-.8s-1.3-3.8.9-5.1,3.2.3,4.4-.5,0-3.3,1-4.1c4.6-1,4.9-3.6,6.4-6,1.8-1.4,2.4,2.1,2.9,1.5,2.3-2.8,4.2-7.6.8-9.7,3.4.7,6.4,3.2,7.5-.7,2,8.2,3.5-2.8,5.3-4.2s5.5-.2,6-1.1-2.2-1.4-1.2-3,11.2-4,11.7-4.5-1.1-2.3-.6-2.8c5.4-6.7,8.5-7.7,17.1-9.2l-3.7-3c9.6,2,2.4-6,9.7-5.4.7-.5,0-2,0-2.1.3-.2,3,1,5.8-.9,2.8-1.9,1.1-3.6,4.2-5.6,4.4-2.8,1.3,4.5,5.7-3.6,3-1.5,10.5-2.2,13.4-3.5s.7-4.7,6.1-2.9l-1.5-2.2c1.6-.9,7.9,1,8.2.7s-.3-2.7,0-2.9c1.3-.8,10.8-2.6,12.7-3.4s7.5-6.2,8-6.4c3.8-.3,5.3,3.1,4.7-2.2.2-.2,5-.9,7.1-1.5s0,2,1.5,1.5c6.9-2.3-.9-7.4,7.1-6.7-5.9,4.5,2.7,6.1,1.5.7,2.2,5.9,5.7-2.7,10.5-.8,0-3.5-6.7,0-9-1.5-.8-3.2,9.4-.7,6-4.5.5-.2,5.6,9.3,6,.8,2.2,2.7,3.2,3.5,3.7-.8,3.1-.5,0,2.4,2.5,2.9s9.9-4.4,11.7-4.8c-.5-1.4-9.7,2.3-6.7-2.6s2.3,1.7,3.7,1.5,2.2-4.4,7.5,0c-2.3-5.6,4.8-4.8,8.1-6.2s0-2,0-2.1c2.2-1.2,2.1,1.8,3,1.5s0-1.5.9-1.7,8.8-2.1,9.3-2c3,.7,1.3,4,1.8,4.5,1.6,1.6,4-2.1,4.3-2.2,2.7-.6,13.9-1,15-2.4s.3-4.7.9-5.1c1.9-1.2,2.4,3.8,3.3,4.6s7.6,2.3,4.9-2.4c1.5,2.7,5.1-2,6.7-.8s-.5,2.5.4,3,7-5.6,4.7.6-5.5,0-6,.2c-1.9.5-6.5,4.8-4.9,6.9,4,5.3,2.8-4.1,4.1-4.7,4.5-2.2,4.1,2.9,5.3,3.8,3,2.3,8-5.2,1.7-3.8,5.5-1.9.3-3.4,1.5-5.2s7.9,4.5,8.6,4.5c4.2,0,.4-5.1,3.4-4.5,2.6,6.3-.4,4.4-3.7,9,14.5,0,3.7-4,6-6.7s5.4,2.2,2.6-6c17.7,5.8,1,4.7-1.1,8.6,7.4,6.1,2.7,1.9,5.2,0s4.6,1.8,1.3,3.9-18.3-.9-15.5,7c-1-3.2-3.7-3.4-6-.7l2.2-6.7c-3.4-1-1.6,2-2.7,2.3-1.6.4-6.8-.3-7.1,0-.3.5.5,3.4-.3,4.5s-9.2,6.1-11.7,5.2l3,1.5c-2.3,1.9-4.8-.9-5.6-.7s-6.3,1.5-6.7,1.6c-1.2.4-1.5,2.6-2.3,2.9-2,.7.5-8.1-6.9,2.9-3.2-3-13.3,6.6-16.3,6.1s1.2-4-2.3-3-2.6,5.5-5.9,7.3-4-.6-4.2-.5c.6,4.1-1.9,1.4-4.3,2.4-1.1.6,0,2.5-1.6,3.3-2.9,1.5-8.8,1.3-11,5.5-2.6-2.1-7.7,5.2-8.1,5.4-2.6,1-5.3-2.9-5.6-2.3.7,7.1-3.3,5.6-8.1,6.1-3.7,12-13.9,3.2-16,14-.6.5-2.7-.2-3.7.5-2,1.5,0,5.1-5.9-1.8,2.8,10.1-6.2,3.4-6.7,6.8s5.6-2.1,2.9,1.7-3.8,1.6-4.3,2.1.3,2.4-.2,2.8c-2.5,1.8-8.7,2.6-10.2,4s.2,2.8-.5,3.7c-3.3,2.1-3.6-2.6-5,4.3-4.2,3.1-15.4,3.7-12.6,12.1-2.5-5.9-9.7,5.4-12.1,7.3-2.5,2-8.6,1.2-6.8,5.2-1.3,1-4.8,1.6-5,1.7s.1,3-2.6,4.9-10.6,1.3-6.4,5.6c-2,1.9-11.1,6.1-12.4,7.5s0,3.1-.5,3.7c-3.8,3.7-8.2,5.6-11.1,8s-.9,2.6-3.6,4.8-1.4-1.9-5.6,4.5-2,0-2,.1c-.6,1.5,4.3,5.8-.4,6.7s0-4.1-3.4-1.9.4,1.5.8,2.6c-5.2.2-5.6,4.5-7.1,6s-4.2,1.2-4.9,2.6,1.8,0,1.6,1.5c-1.2,7.8-3.6,2.4-6.8,4.2s-.2,2.7-1,3.5-3.5.8-3.6.9c-.3.4,1.3,3.3.7,4.5s-6.2,1.2-6.7,1.5.7,5.3-4.5,4.5l3,2.2-3,1.3c0,5.4-5.4,4-7.4,5.5s.2,6.1-5.3,4.5c8.4,3.7-6.9,4.1,2.2,7.5-2.2,1.5-4.3-1.7-4.5-1.5-1.2,8.5-2.9-1.3-6.8,10.1-4,3.1-4.6-1.7-2.9,4.9-13.5,3.7-6.1,17.9-12.8,12-.4.2-4.3,5.7-4.5,6-.4,1.1,4.3,3.3,3,4.5s-4.4-1.6-6-.4c-1.9,2.2,3,9.1-3.5,8.1-2.6,6-.3,6.3-6.9,6.5-.9,2.9,4.3,2.1,3.7,4.5-8.2-.6-3.8,7.8-9,6.8,1.1,2.4-3.4,6.4-3.7,7.2-.5,1.5,1.2,3.2.3,4.8-2.2,4.3-1-3.2-3.4-2.3,1.5,5.5-3.2,3.3-5.1,5.4s1.1,5-3.1,4.4c1.5,4.1,5.2-.8,6.7.7s-6,10.7-6.7,3c-5.3,5,3.8,9.4-4.1,6.8-2.3.7,1.9,4.1-4.2,3,5.3,1.8-4.2,10.3-5.6,12.8s-3.3,9.8-5.1,13.2-2.4.9-3.4,3,.2,4.1-.2,4.7-2.9-.2-3.3.7c-1.3,2.7-3.7,16.5-4.1,17.3-1,1.7-2.5-1.6-2.6-1.5-5.2,2.8.2,3.5.3,3.8,1.5,4.7-2.1,3.5-2.6,4.4-.8,8.9-4.8.6-5.9,16.6-.8,2.6-2.5.6-2.7.7-1.2,1.4,2.8,3.2,1.5,3.7s-3.3-.3-3.7,0c-.6.5-1.2,13.3-2.3,14.9s-2.7,0-2.9,0c-.6.6,1.2,2.5,1.2,3.4s-2,1.9-1.2,2.6,3.6-1.3,3,1.5c-5.1-1.5-2.6,5.7-4.2,9s-3.9,1.3-4.1,1.5c-3.2,4.2.6,8.6-3,12l1.5.7c-7.4,1.3-3.3,2.8-4.7,8.4s-7,4-1.3,8.8c-6.4-1.2-4.2,4.5-4.5,8.6s-1.6,1.1-1.6,1.5c0,.7,2.7,5.1,2.3,5.6-.6.8-3.4-2.8-3.8,5.7s2.4.9,1.6,2.2-3,1.1-3.4,1.9c-1.1,1.8-.6,9.3-4.1,8.2-.2.5,4.2,3.2.8,6.7,1.6.4,5.8-1.3,5.2,1.5-9.2.2-1.8,12-8.2,12.7,2.8.7,4,4.8,3.7,7.5-1-4.8-4.7-4.4-3.7.9s2.5,2.2,2.2,3.2-6.3-.3-4.4,3.3,7.6,2,4.4,6.8-3.7-2.2-3,.7c5.1-2,4.2,3.9,2.1,5.1s-3.9-1.3-4.3.5,2.1.8,2.2,1.1c.3.7-3,4.5,3.7,3.8-8.3,5.1.6,3.7-1.5,7.5s-1.7-2.7-3-1.5c-6,5.8,8.1,8,0,12-1.3-10.4-.6,1.8-5.2-.4,1.4-.2,8.8,7.6,9,8.3.6,1.9-2,.5-2.3,1.6-1.2,4.8,1.8,8.1,1.5,8.5-.4.7-5.2,3-3.7,7.5,1.8-.2-.6-1.9,1.8-2.2,4.1-.6.3,2.1.4,2.2.9,1,8.2,2.1-.7,3.4-1,0-2.4-1.8-3-1.1-3.2,3.6,7.9,1.1,5.1,5.8s-6.8-.2-2.6,4.4,2.7-2.2,2.7,3.5-1.5.2-1.5.9,3.2,2.6-.4,3.4c-12.6,2.7,1.1-23.5-8.5-15.4l5.3,41.2c.8,2.5-5.9,1.9,0,6.4-7.9.2,5,1.8-3,5.2,7.1.6,2.7,2.6,3,3.4s2.1,1,2.2,1.2c.1.4.4,6.3,0,7.4-4.6-4.8,1.6,8.2,4.5,5.3s-3.2-5.2,3-3.8c.2-4.8-.1-2.6-3.7-2.2-.2-2.7,1-4.2-2.3-5.6-.5-1.6,3.7-4,2.3-5.6s-5.5.2-3.7-3,4.9-1.1,3.7-3-2.3,0-2.6-.7c-1.5-4,1.3-4.8-2.5-6.5-.5-3.1,1.4-2.5,1.3-3-.5-5.4.6-16.7-3.7-18.3,14.6-7.1,7.3,3.8,5.2,12,4.8-1.3,1.9,3.4,3,7s2.5.3,3,1.7c.9,2.5-2.2,3.2-2.1,5.7s1.7,8,2.1,9.8,2.2-.5,2.8,2.4.6,12.3-2.7,9.3c6.3,1.5,1.6,6.3,4.5,11.6-.6,1-5.6-1.8-5.8-2-.8-.7-.7-6.8-4.9-4.2-7.4,4.6,4.2,3.5,5.5,7.4-2.6,0-11.3-1.4-7.5,3s3.8-2.1,4.9.8-2.8,3.8-.5,6.4,2.1-.7,2.3-.4c.5.9-3.5,5.6,4.5,4.5-3.9,2.1-2.6,3.1-5.2,6,10.7,0-.1,2,1.6,6.3s5.5.2,5.9.5-1.7,6.5,2.2,5.2c-5.5,1.4,2.1,3.3.7,7.1s-4.5.4-2.8,4.4,2.8.4,2.9.5c.4.7,2.6,9.4-.7,6.4l4.5.8c-1,1.8-5.9,3.2-2.2,5.6s2.3-3.5,4.1-.7.7,10.9,4.2,14.9,3.2-.2,3.6,0,.4,9.4.7,9.7,2.6-.3,2.9,0c1.6,2.4-.9,10.1,5.6,6s.5-5.7-1.7-3.8,1.3,3.6-1.5,3c-.2-4.3,2.7-7.4-3.7-6.7-.5-1.5,3.5-4,3-4.9s-8.6-6.6-3.6-9.2c6.7-3,.7,11.3,9.5,10.3,0,.2-1.1,1.8-.7,2.6,1.8,3.6,2.9,11.5,7.4,10.2-2.3,3.4,2.1,5,3.6,5.4,1.1,1.8-.2,7.5.5,8.9s2.8,1,3.4,2,.3,3.8.9,4.6,3.5,0,3.6,0c.4.8-1.1,3.3-.7,3.7,1.2,1.5,2.3-3.6,3.7-2.2s.1,4.5.7,5.5,3.7,6,4,6.3,3.1.6,3.9,1.7c12.2,16.6-.3,9-1,9.7s3.4,6.6,3.8,6.7c2,1.1,6.7-13,7.5-1.5.4-5,3.2.7,3,1.9s-4,.8-1.6,4.6.2-5,4.2-4.2,6.5,10.4,7.1,10.9c6.9-2.2,12.6,13.2,3,13.1,2.5,2.4-.5,5.2,0,6,1.4,2.1,3.8-1.5,5.2-3,1.3,3.2,4.6,1.8,4.5,6,1.9-2.2,7.3,2.8,7.4,2.3,2-6.3-5.4-5.1-5.8-5.4-5.4-3.5-.5-8.6-6.2-2.8-2.2-5.6,1.4-3.4,1.5-3.8s-2.8-5,1.1-4.5-.4,6.5,5.6,4.5c-5.8,7.9,3.2,3.8,6.6,6.2,6.3,5.7-.6,9.2,8.5,6.9,1.8,1.1,1.3,3.8,1.6,4,2.1,1.5,4.7,1.2,7.9,4.9s0,2.6.2,2.8c1,.8,2.5-1.8,3-1.5s-.3,2,0,2.2c.7.4,2.1-.3,2.8.2s-.2,1.6.6,2.1c2.1,1.3,9.4,3.7,10.6,4.6s-.3,2.4.2,2.7c3.1,2.3,7.1,6.2,9,7.5s3.4,0,4.7.8.2,2.8,1.1,3.5,6.8,1.5,8.9,2.7,0,2,1.3,2.8,5.1-.7,8.4,3.2-.2,3.2.2,3.6c.6.8,2-1.4,3-1.1,1.3.7,21.8,8.5,10.5,7.9,3.3,7.7-4.7-1.5-8.1-2.1-2.4-.4-3.3,2.1-3.9,1.4s2.5-4-2.3-5.6-7,3.7-5.2,6.4,2.3-4.7,7.5-.7,3.2,5.1,3,6c1.6,0,.3-3.1.7-3.7s3,2.3,4.5,1.5c-1.1,2.7-7.7,3.6-2.1,7s0-2.9.6-4,5.5-2.5,6.3-2.2c1.4.5,1,2.6,2,3.4,1.8,1.5,4.7-1.6,1.5,3.3l5.2-3c-2.3,7.2,6.8.4,4.5,8.2,0-4.4,3.8-9.7,3.7-3,4.3-3.3,3.1,2.8,6.8,4.1s6.3-2.6,5.2,4.1c5.6-6,6.8,0,7.4.4s1.9-.6,2.3-.4-.3,1.9.1,2.1c5.2,2.1,8.3-1,11.2,3.9,3,.8,0-3.8,3-3l-1.1,6c5.3-5.2,3.1.6,3.4.7,1.2.8,4.1-2.5,4.5-2.2s.6,3.5.8,3.7c1.3,1.7,1.5-2.3,2.2-1.5.3,5.7,4.7,1.2,7.5,1.5,1.2.5.2,4.5,6.4,3.1s.5-4.9,6.5-2.1,1.5,5.1,2.1,5.8c1.2,1.5,3.6-1.6,3.7-1.5s.6,2.6,1.9,3c2.9.8,0-5.9,3-5.1,5.4,2.5-2.7,5.3,7.1,2.1l-3,3.7c1.6-.9,11.5-1.1,12-.7s-1.6,1.8.5,2.9,2.7-1.4,2.9-1.4c3,.6,6.8,4.8,9.2,5.1,1.8-.9,30.4,0,23.4,3.9,1.7,1.1,1.4-2.2,3.4-2.3s5.7,3.1,9.9,3.5,10.7-.4,14.7-.3c3.9,0,8.3,4.5,8.1,0,5-1.7,1.2,1.8,1.3,2.1s1.9-.3,2.1,0c.4.7,0,3.5,1.3,3.6s-.3-3.9.8-4.5,18.3,2,21.3.8v3c2.5.8.9-2,1.9-2.3,4.6-1.3,4.6,2.2,4.9,2.3,1.1.4.5-2.1,2.6-2.3s2.3,2.1,3,2.3c1.8.7,2.1-2.6,4.5-1.5s0,2.3.7,2.3,0-2.3,1.6-3c2.7-1,5.9,6.7,5.6.8,2.4,0,1.4,1.6,1.9,1.5,1.6-.2,3.3-2.3,4.1-1.5s-.2,3.7.4,3.7c2.1.3.4-2,1.5-2.3,4-1,5.2,1.6,5.9,1.6,5.8,0,13.5-1.6,19.5-1.5s3.2,2.3,5.3,2.3.8-1.7,2.2-1.6h12.8c2,.6,30.6-2.7,24.8,2.3.8.1,0-2,.4-2.2,2.5-.4,3.6.7,4.5-2.3,1.3-.2.2,1.7,1.8,1.6,2.6-.3,5-1.6,5.3-1.6s1.1,2.1,5.1,1.9,11.2-1.6,16.7-2,.2,1.7,2.6,1.6,0-2,1.3-2.1c10.1-.8,20.3-2.1,30.4-1.6,2.2-4.1,2.3-.5,4-.8,8.4-2.1,26.8-3.2,32.9-6.1,1.9-.3,0,1.6.7,1.5,1.4-.2,0-2.3.8-2.3,1.4,0,2.1,1.9,3.7,1.6s1.6-3.9,3-4.3,8.9,0,10.4-.3,1-2.1,1.7-2.3c1.6-.3,2.7,1.7,3.3,1.6s.3-2.1,1.1-2.2,1.1,1.5,2.1,1.3c2.1-.4,6-1.4,8.3-2s.3-2.3.5-2.3c2.5-.6,11.3.3,12.7,0s-.2-2,0-2.1c6.8-.8,7.4,1.6,11.2-3.8,1.2-.3.8,2.1,1.8,2.1,9.8-3.5,7.7-6.2,20.2-5.1,2.4-.6.8-2.7,1.6-3s3.9,1.2,5.7.8,2.2-7.8,8.1-.8l-1.5-3.7c.5,1.1,5.9.3,6.7,0s0-2.3,1.3-2.9c3.8-1.4,9.5-1.5,11.8-2.3s.6-2.6,1.8-3.1c3.6-.7,37.6-11.6,29.5-15,4.8-1,.2,3.8,2.2,5.2l1.5-7.5c3.3,6.4,5.7.4,6.1,0,3.4-.1,3.1,0,3.7-3.1,1-.7.4,2.1,1.5,1.5s-.3-2.3,1.2-3,3.8,1.7,4,1.5c.7-.8-.6-5.3,5.7-5.2-.4-4.1,11.3-6.1,12.3-6.8s-.5-2.4.4-3.1,9.4-2.1,10.1-2.6c2.2-1,3.7-7.6,3.7-1.9,2.2,1,3.7-5.4,6.9-7l14.8-8c-2.9-5.5,10.2-5.3,7.7-9.5,2.3-1.6,5.2,2.6,5.9,1.4s-2.8-5.8,3.7-4.5l-3-.7c1.7-5.6,9.6-1.5,7.7-8,2.5-2.6,7.7-4.3,8-4.7s-1-2.2,0-3.4c5.6-3,6.9-.2,4.6-7.1.3-.3,6.2.3,6.4-3.7,3.7,7.3,2-1.3,2.9-3s2.6-3.4,2.8-3.6c1.8-1.6,8.8-.4,2.1-3.9,4.3.4,7.7-6.4,9-7.5s2.5,1.3,3-.4-2,.3-1.5-2.6,2.2,1,2.2-.4-2.2-2.6-1.5-3.3c7,1,4.5-12.1,12-6.7-1.7-1.3-.5-7.6,0-9.2s4.8-4.1,5-4.4c-.1-4.7,1.3-2.1,4.3-4.3.7-1-.9-2.4,0-3.7,4.5-7.1,6.8-12.6,10.6-19.5s4.9-1.1,5.5-2.8c.9-2.5-1.9-4.7-1.4-5.5s4.2-1.5,5.2-4.9-2.7-.8-1.5-2.6,2.2,0,2.2,0c.7-2.2-1.7-1.2-1.5-1.9,1.6-4.4,7.8-10.7,8.3-12.2,1-2.7-3.5-3.8,2.1-5.2l6.9-24.2c5.7,1.9,1.4-.8,1.5-1.1.2-.5,4-1.9,2.2-4.9s-4.9,2.4-1.1-4.5.4,1.7,2.3,1.5c5.5-.5-1.8-3.1-1.8-3.4-.2-.6,4.2-9.5,4.7-11.6,1.1-5.3-.9-10.7,4-14.1.5-1.5-1-3.3-.6-5,.7-3,5,1.8,6.1-1,1.7-4.7-4.5,0-5.1-3.6s2-11.2,2.4-11.7c1.4-1.9,5.7,2.9,4.9-5.2-2.6,5.3-6.3,1.8-1.3-2.1.6-.4,1.9.9,2,.6.3-.6-5.5-9.9,0-7.5.7-1.4-6.9-6.6,3.7-4.5-1.3-3.6-6.2-4.5-1.5-6-5.7.4-1.2-1.1-1.5-2.7-.4-2.3-1.9-1.5-.8-6.7s2.3-1.5,2.7-3.8-2.4-3.7-2-4,2.4,0,2.7-.7c1.5-3.8-.2-14.5.4-15,1.6-1.4,4.6,2.7,5.2,1.4,2.2-4.5-4.9-2.1-5.2-2.2-1.2-.5,1.4-23,1.5-26.6s-1.6,1.5-1.5-.8c3.5-7.8,1.2-4.5,1.5-14.2.3-5.1-1.6-3-1.5-3.4s2,.5,2.3-.4c.4-1.3-1.6-2.8-1.5-3.8.3-6.1-.8-9.7-.7-13.4s2.1-.5,2.1-1.5c0-2.8-1.5-11.2-1.4-12,.5-3.2,3.6-.3,3.8-1.5s-4-1-4.5-2.3c1.4.2,1.5-5,1.5-6.6s-1.6-.5-1.6-1c0-4.8,5.2-10.8-3-10,6-4.5,2.1-7.5,1.7-11.7s2-2,.6-5.7-2-.2-2.3-.9c-1.5-3.3,3-1.7,2.9-5.2s-2.8-4.3-2.8-4.7c-.6-2.9-1.2-16.6-1.7-17.3s-2.8-.7-3.6-.9c5.9-4.6,1.1-2.4,0-3.7s2.3-1.2,2.2-1.9c0-1.1-3.5-1.5-3.8-2.4-.5-1.5.4-14.8,0-17s-1.3-.5-1.5-1.1c-.5-2.7-.3-7.3-.9-9.5s-2.6-.7-2.9-1.7c-1.2-3.4.3-12.7-5.2-11.5,9.2-4.3-2.8-1.8-1.5-7.5,1.9-.8,1.9,4.9,3.7,2.2,2.6-3.8-2-4.3-2.1-4.6-.5-.8.2-2.6,0-2.9s-6.7,2.1,0-5.2c-11.9,2.2-.5-3.9-2.4-9.2s-1.6,2.2-1.7,2.5c-2.8,5.1-2.8-9.3-3.1-9.8-.9-1.9-4-2.2-5.6-4.7-1.6-.4-3.5-18.7-5.2-14,0-2,4.6,1.3,2.3-3.4-1.7-3.4-5.1-2.3-5.3-2.6,1.9-4.9.8-2.6,0-7.5.2-1.8,4.7,3.1-.3-3.7s.5-2.1-.4-2.7c-1.5-.9-3.1.5-3.8,0-4.2-2.5-5.2-18.2-10.4-19.2,0-1.2,3.4-1.5,2.2-3s-4.1-.4-4.4-.8-1.2-8.3-1.9-9.7-2.7-.8-3.1-1.4c.4-3.2.2-3.4-2.7-4.5-.6-1.1,1.9-.5,1.5-1.1-.7-1.2-2.9-1-3.4-1.9-6.5-12.2-8.6-21.6-20.2-29.2-1.4-1.6,0-3-.5-3.6-1.8-2.1-4.8-5.3-6.8-7.5s-2.4,0-3.2-.9,0-2.9-.6-3.6c-2.6-2.8-5.5-2.3-5.7-2.5s-1.6-4.8-3.7-6.9-11.2-4.6-7.6-10.3c-6.9,5.7-6.7-1.8-7.8-3.1s-3.4-.3-4.2-1.1-5.1-5.3-5.2-5.6c-.9-1.9,2.3-1.9,2.2-2.6-5.8-6.7-4.1,1.2-5.6,1.9-1.2-.3-4.1-4.7-4-5,.3-1.7,5.4-2.4,2-4.6s-3.3,2.5-3.7,2.7c-4.3,2.7-4-15.1-11.1-4.4-1.2-2.1,2.3-5.9,2.3-6.4-4.9-14.7-10.2-.8-3.1.3-9.4,3-9.9-10.2-20.4-9-1.6-.7-1-2.2-2.6-2.9s-3.7,1-4,.7c-.5-3.5,1.8-4.2-3-3.8-.4-.5,1.2-6.2-4.1-4.5s0,3.8-1.9,2.3,1.2-3.5-3.7-2.3c2.5-1.2,3.7-.8,4.5-4.1-2-2.4-2.2,2.7-6,.8s2.4-4,.7-5.6-3.3-.6-4.5-1.2-1.8-5.1-1.4-.8,3,2.7,3,4.9c-4.1,2.5-7.2-3.8-8.6-3.8-2.4.2-.4,3.2-1.5,3s-2.9-6.5-2.6-6.7,8.5,5.1,8.3,1.1-5.8-.7-6-1.1c-.3-.6.4-3.2,0-3.7s-5-1-5.2-.8c-1.1,1.1,5.3,11.7-2.8,8.1s-2-9.8-4.7-3.6c-1.6-8.2-7,1.4-6,2.2s3.4-1.4,3.8-.4c2.8,7.5-11,.6-8.3-4.1,2.8-.7.8,2.7,1.9,3,3.3.8,2.8-4.1-.8-6s-1.2,1.8-4.8-.1,0-1.7-.2-1.9c-1.5-.9-4.3-1.2-6.4-2.7s0-2-.2-2c-.4-.2-2.7,3.2-5.6-3.7-6.8,7.7.2,4.2,1,4.6s5.1,5.5,5.5,5.7,7.8.7,5.1,2.4c-3.9,2.5-11.5-5.1-14.5-6.5s-3.1-.1-4.5-.9-.8-2.6-1.4-2.9c-3.5-1.7-10,1.7-8.8-5.4-3.6,6.8-5.8-.8-7.2-1.4s-5.6.7-6.3,0c-.3-2.2,4.3-1.4-1.3-3.2-.6-.5,0-3.7-2.4-2s0,3.6-2.3,3c3.2-5.2-7.5-3-11.8-4s-9.8-3.1-10.3-3.3c-1-.5-.2-2.9-.4-3.1-.4-.4-7.5,1.1-8.6.8s.3-3.7-2.6-2.3,1.1,1.9-1.1,2.2-12.5-8.2-4.9,2.3c2.6-6.6,5.4,2,6.5,2.3,2.4.8,2.6-3.2,8.7-.7s-.9,3.8,7.2,2.8-.4-2.1.4-2.2c2.2,0,6.5,8.4.4,3.7,3,5.7-7.7,0-10.5,0l3-2.2c-6.8,1.9-10.7-1.8-15.5-2.7s-11.8,1.5-11.5-3.3c-1.9,5.1-1.1-.4-3.4,0s0,2.1-.4,2.3c-2.7,1.5-2-2-2.7-2.3-5.9-3.2-22,.7-25.4-5.3-.9,0,.2,1.8-.8,2.3s-6.2-2.7-8.2-2.9-7.5,1.5-8.7.6.4-2.4,0-2.9-1.7.2-2-.2-.7-5.1-2.8-4.4-1.1,7.4-1.5,7.5c-6.3.5,4.4-5.7-10.2-3-1.5-1.5,5.6-2.4-5.5-3s0,1.5-1.2,1.5,0-1.9-1.2-2.1c-5.6-1-3.7,1.6-4.2,1.9-4.4,2.2-2.2-.8-3-1.1-6.7-2.1-5.1,1.1-6.4,1.3-8.9,1.3-7.3-2.9-7.7-3s-8.4,1.6-10.1,1.6c-3.1,0-10.4-5.2-7.7,2.7,0,.3,5.6,3.4.9,2.4s-4-4.9-4.3-5.1c-3.1-1.7-11.3,2.8-15.6-.2l-2.3,3.7c2.5-5-2-7.5-3.8-2.3l-1.1-2.3-45.3,4.5c-1.1,16.7-3.2,2-3.8,1.5s-9.3-.2-9.7,0-.6,4.3-.8,4.5c-.4.4-8.6-5.7-8.2,3.7-2.8-.3-.3-3.1-4.9-3s-5.4,3.2-5.6,3c-.6-.5,0-3.9-2.6-3s1.2,6.2-5.6,6.4-5.1-8.5-7.2-.4c-1.3-6.7-7.9-6.3-2.6-1.5-7.4-1.8-4.1,1.7-4.5,2.3-.6.8-6.9-3.8-6-6.7-.9,6.5-5.7,1.4-4.5-.7s5.2-.6,2.9-3.7c-3.4-4.7-3.7,2.9-4,2.9-1.7,0-.8-5.6-1.2-6.7s-3.7.5-2.2-2.3,5.2.8-.8-5.2c6.3,0,1.8-1.7,2.2-4.9s3-2.7,1.6-3.4-3.4,3-3.7-1,4.3-6,5.2-9.8c-1.4.4-3.6,2.1-4.5-.4,6-.4,2.4-6.9,9.8-5.6,1.4-1-.3-2.5,0-2.6.6-.4,2.6,1.5,4.2,0,2.6-2.2-1.1-8.3,6.3-3.1l-.7-3c4.4,3,1.7-1.1,3.5-2.3s12.9-2.6,8.9,2.3c1.4-4.5,7.8-.7,9.4-6-2-1.1-6.7,2.2-7.1,2.2-7.2-.4,4-3,4.3-3.1,1.6-.7,5.2-5,8-2.8s-4.7,3.3-1.9,4.5,6.1-1.7,6.4-1.8c2-1.1-4.4-5.5-1.5-6.4s2,1.9,3.4,1.6c4-.9,8.1-6.8,4.5,2.2,5.8,0,2.8-4.7,3.4-5.3s7.3-.9,7.7-.8,3.4,5.7,5.8,3.4-1.4-1.5-1.5-2.2c7.3-9.7,4-3.3,12.8-3.4,2.6-.7.3-3,2.6-3.6s10.6,1.3,12,1.4,1.9-3.3,4.1-1.5-2.3,3.6.7,3c0-.8.4-3.4.8-3.7.8-.6,18.4-1.1,20.9-.8l-1.5.7c1.3,3.4,2.5-1.1,4.2-1.4s10.6,2.6,9.3-1.6c.6,2.9,4.4,2.8,7.1,2.3s-2.7-4,4.2,0l-1.5-2.2c4.2-1,2.2,4,7.5,3l-3.7-3c3.4-1.5,5.3,1.5,5.6,1.5,1.9,0,.7-1.7,2.2-1.6,3,.3,1.2,1.3,2.6,1.5s-.6-2.2,1.5-1.5-.4,2,.4,2.2c2.4-.7,3.5-1.7,2.6,1.6.6.3,1.5-1.8,2.6-1.9s9.8,0,10.1.5c.5.6-.7,4.4,1.2,5.2s-.9-3.9,2.5-5.2,5.5,7.8,9.5-.8c.9,3.8,1.8,1.3,4.1,2.6s3.7,7,8.2,1.1c.3,5.7,10,3.9,12,0-1.5,6.8.6,2.6,3.3,3s.5,1.5.9,1.6c1.2.1,3.3-1.8,5.1-1.6,5.3.7,17.3,4.4,22.1,5.3,2.4,1.1,33.8,2.3,23.9,5.2,2.9.6,6.6-.3,8,0s.8,1.9,3.1,2.3.2-1.8,1.5-1.6c1.5.8,24,4.7,16.2,5.2.3,0,2.6-2.8,3.7-2.2s-.5,2,.9,2.5c6.3,2.4,8.3-1.2,7.3,7.2,3,.8.8-4.4,1.5-5.2,1.4-1.7,2.9,2.1,3.1,2.1,1.1.2,6.1-.5,8.1.1s-.4,2,.5,2.3c3.1.9,9.6,1.7,13,2.2-7.6,9,2,.7,2.6.7,1.1,4.4,53.9,17.7,37.7,16.6,2.3.9,3.6-.8,4.2-.6,5.6,1.6,6.3,5.2,11.5,6.5s2.7-2.1,7.2.3c8.5,7-.8,3.4,12.5,6.6.9.5-.2,2.8,0,3,.4.3,3.1-.4,4,0,1.8,3.3,7.1,3.2,9.4,3.8.5.5.4,4.5.9,5.1,1.2,1.3,4.1-2.5,5.9-.7s-3,1.7-1.5,3,5.3.9,6.5,1.7c5.5,8.9,13.9,5.9,13.8,11.8.8.4,3-1,4.1-.7s1.5,7.1,9.9,9,3.6-1.1,4-.7-3.6,5.2,2.6,5.3l-.4-1.5c5.6.1-2.2,7.3,8.3,5.2l-3,3c7.1-1.3,4.1.8,5.3,3s4.3-4.7,6.8,1.9-2.2,3.2,0,4.8,0-3.7,3-3,3.8,3.1,3.8,3.4-3.5,1.4-2.2,2.6,2.9-2,3.7-1.5,4.1,6.7,4.3,7.1c-1.6,5.9.7,2.7,3.2,1.2.7.8,1.3,5.8,1.5,6,.5.4,3.9-3.1,3,2.2,4.2-3.6,7.9,8.3,12.7,6.8l-5.2,1.5c-.6,2.9,3.1.9,3.7,1.5s-1.3,3.9-.7,4.5,13.7-2.8,5.2,6c9.6,3.5,8-5.9,12.7,9-3.2,3.4-2.2-3.7-4-5-9-6.6-1.4,11.6,7,6.5-6.4,6.4-1.7,4,.5,6.7s.8,3.3,1.1,3.8,2.4-.3,2.8.2c2.1,5.7,1.3,6.5,7.6,8.9-.3-1.1-1.7-4.7,0-5.2-1.6,4.2,6.9,4.7,6,8.6-1.1,4.9-2.9-2.3-3.1-2.5-.9-.6-2.4-.5-2.9-.9,1.6,6.2,10.2,13,11.2,16.2s-4.1,3.6-2.2,4.8,2.8-2.3,3.7-1.5.3,3.7.9,4.3c7.3,1.8,12.9,13.8,16.4,20.4,2.8.8,1-4.4,3.3-3.7s1.2,5,4.1,5.6l-7.5-1.1c-.9,3,4.5.5,3.7,2.2s-7.7,4.4-4.5,6.8,3.6-7.8,5.2-6,2.4,8.6,1.5-.7c10.9,5.7-.5,3.9-.7,4.5-1.6,4.5,6.8,4.8,0,8.2,8.2,0,4.7,2.7,6.5,4.5,3.7,3.9,3.1-5.2,5.2-1.5s-4.6,3.7-1.8,8.2,4.2-.8,2.9,2c-2.8,4.3-5.1-5.4-5.3,4.1.3.3,6.3-2.1,6,1.9s-7,.5-6,3c1.6,4.1,9.2-1.8,10-1.9,2.4,0,.7,6.5.5,6.8s-2.4-1.2-3.4-.8c-4.4,1.6.5,4.5-.5,9.4s-4,2.5-2.9,4.2,6.4-3.5,6.7-3-.9,1.7,0,2.7c2.1,2.4,6.1.5,1.6,6.8s-3.5-1.2-3,1.8c3.1-1.6,4.9.7,5.5.7,3.8,0-.5-3.5,2.8-2.9-2.6-1.8-2.4-7.3-.4-7.5s2.9,8.8.4,7.5c2.8,1.9,3.7-.9,4.5,0s1.5,8.5,2,9.5c1.3,2.6,5.3,2.2,4.7,5.9s-4.8-4.2-6.7-3.4c1.6,6.2-5.8,7.8-2.8,1.6s1.8.2,2.1-.5c1.5-3.9-2.1-3.1-3-4.5s1.9-6.2-4.9-4.7-1.3,3.5-1.1,3.6c.7.4,3.8-.4,4.5,0,1.6,1.9-8.2,8.4,0,6.7.3.3-2,4.9,0,6.4s4.6-1.1,5.3-.4-.8,2.7-.6,3.3c7.9,17.3-1.9-.7-2.8-1-2.9-.9-1.9,7.5,2.9,7.6l3.8,23.9c1.9,1.6,4.7,10.4,3.4,11.6s-3.5-2-3,1.1c5.7-1.5,3.5,11.9,8.3,12.4-2,5.6,2.1,12.7,3,18.8s-1.8.2-1.5,2.5,2.1.3,2.2,1.2c.2,2-1.8,3.4-1.4,5,.7,2.6,4.2,1.9,4.4,2,1.1,1.3-1.3,17.9-.8,18.7s2.1-1,2.2-.7c.9,1.2-1.5,3.9-1.4,5.4.2,2.5,2.6,3.5,2.7,6.9s-6.2,11.3,2.4,7.9c-7.4,4.9-1.8,3.1-.9,4.7,3.1,5.6-.4,3.4-1.3,5.6s1.7,3,1.5,4.3-4.2,4.2-2.3,6.4,3.6-1.7,3.7-1.5c.7.7-1.5,2.4-1.5,3.4,0,4.2,9.2,21.3-3,10.8-1.2,6.4,10,6.1.8,9.4,3.1,4.6,6.6-5.6,9-3.4s-2.9,3.6-3,3.8c-1.1,1.9,3.2,1.6,2.2,4.1s-2.4.2-3,1.5,3.3,4,3,6-6.3,3.5.3,2.6,0-7.2,1.3-7.9c8.3-2.2,7.3,1.5,4.4,6,0,4.7,4.2,13.2-5.9,4.1-1,6.9,1,1.3,1.9,3s.2,3.5.4,3.8,2.7-2.6,5.2,0c4.3-13,2.5,8.9,0,6s1.9-4.1.4-5.2c-3.3-2.7.2,8.8-4.9,4.5,6.6,5.9.8,5.9.7,6.4-.3,1.6,2.1,1.4,2.3,2.4.3,1.7-.3,3.8,0,5.5,6.1-1.5.8,9.5,0,5.7s.2-3.7,0-5.7h-.4ZM645.3,273c-1.6-1.1-5.5-.1-2.9,2.6s5.2-1,2.9-2.6ZM629.7,278.1c-2.6-1.9-7.5,1.4-4.5,3.7s6.8-2,4.5-3.7ZM518.7,326.8c-1.2-1.9-6,7.1-5.2,9,2,0,5.7-8.3,5.2-9ZM878.3,362.4c-18.2-1.6,10.6,7.6,13,4.9s-5-2-5.2-2.2.3-2.5,0-3c-.5-.6-7.7,5.7-5.2,0-2.3-.5-1.4,1.5-1.5,1.5-1.4-.3-.6-1.3-1.1-1.2ZM895.1,362.1c-3.5,1-4.7,7.8.3,6.7s.6-2.2,1.9-2.2,1.4,3.5,1.6,3.6c2.7,1.5,5.3.4,6.3.5,1.6.1,6.6,2.2,7.9,1.2,6.4-5.3-23.2-2.5-18-9.8ZM470.8,370.3c1.7-2.8-7.6-4.4-6,1.1s5.8-.8,6-1.1ZM456.5,377.1c-2.8-.9-10,2.6-6.7,6.7,0-8.5,11.9.3,6.7-6.8h0ZM998.7,388.1c-.4-.5-1.3-4.7-3.2-2.1s8,8.3,5.3,2.6-1.7-.1-2.1-.6h0ZM1020.2,394.3c-1.1-.7-7.6.9-6.7,2.6,1.4,2.8,6.7,0,6.7-2.6ZM1062.2,416c-1.8-1.8-5.8,3.2-4.5,4.5s6.8-2.1,4.5-4.5ZM1066.9,423.4c-1.1-2.1-.7-3.4-3.9-5.1-2.2,3,4.1,10.5,6,6.4,2-4.3-2.1-.5-2.1-1.3ZM410.1,424.3c2.8,2.4,6.6-3.2,2.6-5.2s-2.9,5-2.6,5.2ZM363.6,474.5c-3.5,5.1-4.5.6-5.6,1.5-3.2,2.6,7.4,6.2,5.6-1.5ZM231.6,739.9c-.4-.4-5.4,2.7-3.7,3.7s.8-4,5.2,2.2c.2-.9-1.3-5.8-1.5-6h0ZM1300.9,810.9c-.8-5.6,1.2-4.6-3.3-2.8,5.7,2.9-1.8,2.8,1.5,8.2,3.5-.5,1.8-5.1,1.8-5.5h0ZM218.1,831.4c-3.1-2.8-4.1,5.4-3.7,5.9,2.2,2.3,6.2-3.7,3.7-5.9ZM217.5,841.7c-.5-.7,0-4.1-2-3.6-3,.7-.3,7.6,3.3,5.9,3.6-1.7-1.2-2.1-1.3-2.3ZM256.5,852.1c-.3,0,.3-1.6-.9-1.3-3.3,10.8,11,.6.9,1.3ZM219.4,892.3c-6.3-5.3-5.6,4.7-3.2,5s.3-3.8,1.5-3.7,2.2,2.7,2.6,2.2-.6-3.2-1-3.5h0ZM228,967.6c0-5.4-2.6,1.2-2.4,3.1l2.2-1.5c-1.3,13.1,4.5,7.3,2.3-1.1s-1.7,0-2.2-.6h0ZM232.4,979c-1.5-1.9-3.9,4.9-3.7,5.2s7.5-.6,7.5,1.5c1.1-3.7-3.4-2.7-3.7-3-.4-.5.3-3.3,0-3.7h-.1ZM304.3,1043.5c-3.2-2.5,1,11.3,3.8,7.5s-2.9-4.7-3.1-4.9c-.5-.5-.5-2.4-.7-2.5h0ZM260.9,1046.5c-5.3,2.4-1.3,2.6-.3,5.2s-2.4,1.9-1.2,3.8,2-.3,2.1,0c1.3,2.7.5,7.6,3.3,7.3,6.5-.5-2.6-5.7.5-7.3-.3-.5-6.8-2.9-4.5-9h.1ZM271.4,1067.5c-.9-1-6.9,2.5-3.6,4.4s4.6-3.2,3.6-4.4ZM330.6,1079.5s-1.6,0-1.8-.8-1.7-7.5-4.1-5.3,1.7,1.8,1.6,3.4-2.1,3.6-1.6,4.1,6.9.3,6-1.5h-.1ZM350.7,1088.6c-3-1.7-10.4-.2-5.7,2.7s3.9-.8,4.7-.6c1.4.4,1,2.7,1.2,2.9,2.2,2.1,1.6-4.1-.2-5.1h0ZM353.8,1100.5c-2.6.7-4,7.1-3.7,9,1.5-3.1,1.5-5.9,6-3.7,0-.1-2.4-5.2-2.3-5.3ZM378.3,1120.5c1.8-3.9-5.1-5.3-3.5-.6-7.2-6.1-4.9,1.3.8,2.9s.3-1.7.7-2.2,1.9.2,2-.2h0ZM385.3,1121.5c-4.7-2.8-12.6,4.6-9.7,10.5.8-7.9,1.9-3.8,4-5.4s2.4-3.4,3.9-2.9c8,7.7-10.8.3-3.9,8.1,5.7,5.9,10.6.5,10.9,0,2-1.4-8.5-8.6-5.2-10.4h0ZM414.5,1146.9c1.8,0,3.5.5,5.2.7-5-9.6-22.3-5.9-14.6-8.1,5.6-1.6,3.9.8,4,.7.6-.5-2-3.3-1.5-4.5-8.9,7.3-3.8-1.5-5.7-3s-7.9-3.6-8.6-3.3c-3.9,1.8,3.9,6.3.8,9s-9.1-1.7-5.5,1.9,2.6-.9,3.7-.9c2.6,0,1.2,1.6,3.7,1.6s.9-2.3,1.5-2.3c4.7-.2,10.5,8.4,11.2,8.3s-.7-6.1,4.4-3.8.8,3.1,1.3,3.8c-8.1-.5-.5,3.5-.7,4.1s-2.1,0-2.3.4c-1.4,3.3,2.2,1.8,2.9,2.4s0,2.3,1.6,3.3,6.5,2.1,6.8,1.8c.6-.6-2.3-2.3-2.3-3.3,0-2.8,7.5-5.2,1.1-6.2-6.3-1-2.8,4-7-2.6ZM320.1,1132.7c-.5-.4-4.1.2-5.2,0,3.9,11.3,5.8.4,5.2,0ZM398.8,1141.7c-2.1-.8-2.1,4.3-1.9,4.5,1.3,1.8,5.1-.6,7.2,1.5-.4-8.5-6.4,2.3-5.2-6h-.1ZM331.9,1147.5c.6-7.9-6.7,1.5-5,2.4s5-1.7,5-2.4ZM434.6,1156.9c-1.6-4.6-6.4-3.6-10.3-3.9,2.4,4.6,7.2,2.4,9,6.7,2,.6,1.9-1,1.3-2.8h0ZM425.6,1207.9c-6.1-1.3-3.2,6,4,2-1.4,0-3.8-1.9-4-2ZM506.8,1251.1c7.5,3.8,0-10.9-2.3-.7,4.2-2.9,1.4.3,2.3.7Z"/><path d="M746.6,254.9l3.8,5.2c-2.2,0-16.4-.3-12.8,3.7-1,.4-1.4-2.9-2.2-2.2-3.1,2.4,1.6,3.4,3,4.5-1.8-.4-3.8,2.9-4.3,3-5.2,1.3-2.1-2.1-2.5-2.5-1-1.3-2.6-1-2.8-1.3-1-1.6.8-8.3-3.9.1,1.5-12.2-4,4.9-1.5,7.5-1.9-1.4-12.6,7.5-9-.3s8.3-2.5-1.4-9.5c2.1-.7,8,3.3,8.2,3,2.6-3.4-2.8-2.8-3-3-2.1-1.9,8.7-4.4,10.1-4.5s.2,2,2.1,2.2,1.2-3.2,5.4-3.5,3.9,2.4,5.8,2c3.1-.6,3.1-5.5,5-4.4h0Z"/><path d="M287.3,986.4c.6.6,7.6.7,5.1,3.2s-4.5-1.3-5.3.4c-2.2,4.8,3.5.7,3.8,1.1-2.5,2.1,3.3,10.8,1.1,11.2-5.6,1-10.2-17-8.6-18s0,2.6,1.5,2.2l1.5-5.2c.4,1.1.4,4.6.9,5.1Z"/><path d="M1305.9,754.9c-.4,1.3,1.5,2.4,1.5,2.6-.2,1.2-4.4.8-3,2.6s2.3.2,2.8,1c3.1,4.7-4.2,5.5-5,4.3s2.4-3.5,1.5-4.5c-3.8-3.9-2.1,7.7-6,5.2s3.5-1.9,2.3-4.9-3,.6-2.3-1.9c8.1.8,4.2-2.7,4.6-5.7s1.4,0,1.5-.7c0-1-1.7-2-1.5-3,.4-2.1,7.2-3.7,5.9,3.6s-2.1,1.1-2.1,1.3h-.2Z"/><path d="M812.6,265.4c-5,3.2-2.7,4.8-3,5.2s-11.1,2-11.9.3c-3.1-6.7,4.9-2.9,5.2-3.3.4-.7-.9-2.8-.7-3,.4-.4,8.4,2.4,10.5.7h0Z"/><path d="M1305.9,717.4c.8,2.4-2.2,1.3-2.2,1.5-.3,1,8,17.6-2.2,16.5,5.4-7.4-1.6-6.6-1.5-7.1.2-1.3,3.6-1,3.7-1.1.4-.5-5.9-11,2.2-9.7h0Z"/><path d="M1264.4,576.6c5.1,5.2-3.5,5.2-2.1,8.8-3.3-2.4.2-6.9-6-4.5,3.1-2.5-1.5-1.8,0-4.5,1.6-2.8,6.7-1.1,8.1.2Z"/><path d="M486.5,1175.4l-.8,1.5c4.5-1.9,2,4.2,9,4.5-1.5,2.9-11.1.8-12,0s1.4-4.2.7-5.2-3.2,1.8-3-1.5l6,.8h0Z"/><path d="M1280.3,618.6c0,.3-.4,5.4,0,6.9s5,2.6,2.8,6.9c-5.3,10.2-2.5-5.2-2.8-5.6s-2,1.1-2.2.8c-4.1-5.7,2.1-4.4-1.5-9.4.6-1.9,3.6.3,3.6.5h0Z"/><path d="M278.9,954.3c.3.6-1.3,3.3-.8,4.7s9.3,13.6.8,10.3.8-3.2-2.3-2.2c-.7-2.8,2.6-.7,3-1.9s-3.9-8.6-6-9c0-.4,5.1-2.1,5.2-1.9h0Z"/><path d="M1299.9,688.2c.4.4-.2,9.4,3,10.9-6.1-.4,0,1.9,0,3,0,1.8-1.9,3.6-3.4,3.4s1.7-4,.3-5.9-2.8.4-2.9-.5,4.1-1.7,3-4.1-3.7.4-3.3-3.8,1.3-5.1,3.3-2.9h0Z"/><path d="M1307.4,787.9c-1.4,1.2-5-.8-5.7-3s3.4-10.7,5.6-5.5.4,8.2,0,8.5h0Z"/><path d="M824.6,266.9c1.3,1.6-.7,5.6-2.9,3.7s.4-4-1.9-3.7,0,4.2-.4,4.5c-1.7,1.5-6.5-.8-5.2-3.6s8.9-2.6,10.4-.8h0Z"/><path d="M438.5,465.5c-3.2,1.5-14.3,8.3-8.4-1.6,1.1-.7,11-1,8.4,1.6Z"/><path d="M274.4,940.8c3.6,7.7.1,5.6,0,6-.6,2.3,6.9,5.7,1.9,6.8s-4.2-12.3-1.9-12.8Z"/><path d="M820.8,365.8c1.7,3.1-17.4,2.4-18.7.4l18.7-.4Z"/><path d="M865.7,267.8c7.3,2.9-7.6,3.5-8.8,3.6,3.2-1.1-1.1-2.9,0-3.7s8-.1,8.8.2h0Z"/><path d="M1022.5,412.3c9.2-3.1,10.2,4.3,4.6,2.9-3.6-1.4.3-2-.5-2.2s-9.5,1.7-7.9-2.6c1.6-4.3,3.5,1.7,3.8,1.9Z"/><path d="M728.6,368.1v3c.4-2.8,6.7-1.3,7.5,1.5-5.1-1.7-18.1,4.2-7.5-4.5Z"/><path d="M1293.8,665.7c1.1,2.6-1.3,8,1.5,10.5-5,4.3-2.6-7.8-3-8.2-7,.6-2-3.7,1.5-2.2h0Z"/><path d="M961,389.1c0,.2-3.6,1.6-3.7,1.5s-1-4.2-1.9-3.8,0,2.1-.4,2.3c-2.5,1.1-3.2-3.5-3-3.7.7-1.2,10.1.9,9,3.7h0Z"/><path d="M1305.8,746.6c-2.9,2.5-3.6-7.2-2.6-7.5,5.7-1.4,3.3,6.9,2.6,7.5Z"/><path d="M401.8,508.2c-.4.3-3.4-.3-3.7,0s1.1,5.6-3,4.5c0-1.6,6.2-10.7,6.8-10.5,1,.3.3,6,0,6Z"/><path d="M845.6,265.4c.2,0,1.4,4.7,2.6,4.5s0-2.1.4-2.2c4-2,3,7.6-4.3,2-1.7-1.3-2.3-5.6,1.3-4.2h0Z"/><path d="M716.6,371.1c4.6,3.8-3.7,2.2-4,2.3-1.1.3-1.1,2.1-1.2,2.2-.6.3-3.5-4.4-7.5-1.5.5-1.7,12.2-3.4,12.7-3Z"/><path d="M749,269.8c1.5,1,7.3.1,7.4,3.1-2.7,1.6-5.2-2.3-7.1-2.3s-2.6,4-4.9,2.3,3.8-6,4.1-6c.9,0,0,2.6.5,2.9Z"/><path d="M756.4,367.3c1.6,1.4-4.6,6-6.4,3.8-3-3.7,6-4.1,6.4-3.8Z"/><path d="M1275.7,609.6c1.6,1.1,2.6,8.1-1,6.6s-3.2-9.5,1-6.6Z"/><path d="M409.3,491.7c-.3-.2-.8-3-.8-3.7,2.9,3.8,1.6-.2,2.7-.8,7.5-3.8,1.5,6.7-2,4.5h0Z"/><path d="M1308.1,768.4c.8.9-1.7,5.4-2.4,5.8-6.2,3.3.5-8,2.4-5.8Z"/><path d="M838.1,263.1c0,0,0,2.9,0,3-.8.4-9.3-1.1-9.7-1.5-3.4-2.8,4.5-.2,4.7-.2,1.2,0,3.9-1.9,5-1.3Z"/><path d="M550.2,306.6c-.6.4-7.9-.5-4.5-3.7s1.1,1.6,2.2,1.5,0-2.5,1.9-2.2.6,4.4.4,4.5h0Z"/><path d="M952,383.1c1.1,1.6-3.8,4.9-6,1.8s4.6-3.9,6-1.8Z"/><path d="M792.4,1277.4c5.2,4.3-1.6,1.7-1.8,1.8-13.1,4.6-.8-4,1.8-1.8Z"/><path d="M1052.5,426.6l5.3,6c-3.5,1.7-9.9-6.1-5.3-6Z"/><path d="M795.4,251.9l-7.5,4.5c.3-5.2,3.1-4.8,7.5-4.5Z"/><path d="M421.3,478.3c2.9,2.9-4.3,2.8-4.5,3s1.9,5.9-1.5,5.2c-1.3-3.3,3.8-10.4,6-8.2Z"/><path d="M283.4,975.3c1.4,2.6-2.7,6.5-5.2,4.5s4.5-5.8,5.2-4.5Z"/><path d="M458,440c1,1.5-6.4,6.3-6.7,6-1.3-1.4,6-7.2,6.7-6Z"/><path d="M832.7,365.2c0,2.7,1.8.1,3.1.6,3.8,3.2-8.9,1.1-10.5,2.2,1.5-.8,6-2.8,7.4-2.8h0Z"/><path d="M1287.8,646.9c.2,0,1.7,4.3,1.5,4.5-4.3,4.1-6.3-8-1.5-4.5Z"/><path d="M795.4,267.6c1.9,1.8-4.7,5.8-5.3,3.3s3.7-4.8,5.3-3.3Z"/><path d="M764.6,272.1c5,4.8-8.7,2.4-5.2-.8s5,.6,5.2.8Z"/><path d="M741.4,272.1c.9.9-2.4,3.3,5.2,3.7-10.4,3.2-8.6-7-5.2-3.7Z"/><path d="M1039.9,418.2c.7.5,2.6,0,3.6.1-4.5,1.3-1.5.6-3.4,3.7l-3.4-7.5c2.7-.6,2.6,3.4,3.2,3.7Z"/><path d="M1015,1227.1c-.2,3.7-5.8,1.6-8.2,3,.5-2.6,6.4-3.1,8.2-3Z"/><path class="cls-1" d="M414.5,1146.9c-.4-.6.1-3.1-1.3-3.8-5.1-2.3-3.8,3.6-4.4,3.8s-6.5-8.4-11.2-8.3-1,2.3-1.5,2.3c-2.5,0-1.1-1.5-3.7-1.6s-1.6,3-3.7.9c-3.5-3.6,4.9-1.3,5.5-1.9,3.1-2.7-4.7-7.2-.8-9s8,2.9,8.6,3.3c1.9,1.5-3.2,10.4,5.7,3-.5,1.2,2.1,4,1.5,4.5s-2.3-1.2-4-.7c-6.9,2.7,9-1.7,14.6,8.1-1.8-.2-3.4-.6-5.2-.7,4.4,6.5,2,1.6,7,2.5,6.5,1.4-6,4.9,1.2,9.5-.6.6-6.5-1.7-6.8-1.8-1.6-1-1.1-2.8-1.6-3.3s-4.3.9-2.9-2.4,1.9.5,2.3-.4-7.4-4.6.7-4.1h0Z"/><path class="cls-1" d="M385.3,1121.5c-3.1,4.6,17.3,14.2-5.7,10.3-5.7-5.9,5.6-3.1,5.8-4.7-1.2-5.5-3.4-3.3-5.8-.5-2.1,1.6-3.2-2.5-4,5.4-2.8-5.9,5-13.3,9.7-10.5h0Z"/><path class="cls-1" d="M895.1,362.1c-5.1,7.1,24.4,4.5,18,9.7s-6.3-1.1-7.9-1.2-3.5,1-6.3-.5-1.3-3.6-1.6-3.6c-1.3,0-.7,1.9-1.9,2.2-5,1.1-3.8-5.7-.3-6.7h0Z"/><path class="cls-1" d="M878.3,362.4c.3,0-.3.9,1,1.2s-.8-2,1.5-1.5,0,2.2,0,2.3c3.7.1,5.8-5.8,5.2.7.3.2,7.5-.2,5.2,2.2-2.4,2.4-31.2-6.5-12.9-4.9Z"/><path class="cls-1" d="M260.9,1046.5c-2.3,6.2,4.2,8.5,4.5,9-1.9,3.3,5.6,6.3-.5,7.3-4.8.6-2-4.6-3.3-7.3s-2.1,0-2.1,0c-1.2-1.9,2.4-.6,1.2-3.8s-5-2.8.3-5.2h-.1Z"/><path class="cls-1" d="M434.6,1156.9c.6,1.7.7,3.3-1.3,2.8-1.8-4.3-6.6-2.1-9-6.7,3.9.4,8.7-.7,10.3,3.9h0Z"/><path class="cls-1" d="M228,967.6c7.1.1-1.4,20-.1,1.7l-2.2,1.5c-.2-1.1,1.1-5.7,2.2-5.2s-.3,1.7.2,2.1h0Z"/><path class="cls-1" d="M378.3,1120.5c-.2.3-2,0-2,.2-.4.5,2.1,3-.7,2.2-5.7-1.7-8-9-.8-2.9-1.6-4.7,5.4-3.3,3.5.6h0Z"/><path class="cls-1" d="M350.7,1088.6c1.8,1,2.4,7.2.2,5.1s.2-2.5-1.2-2.9-3.4,1.4-4.7.6c-4.7-2.9,2.7-4.5,5.7-2.7h0Z"/><path class="cls-1" d="M1066.9,423.4c.2.4,2.9-.5,2.1,1.2-1.8,4.2-8.2-3.4-6-6.4,3.2,1.7,2.9,3,3.9,5.2Z"/><path class="cls-1" d="M330.6,1079.5c1,1.8-5.7,1.7-6,1.5.7-3.5,3.1-3.4,0-7.5,2.4-2.3,3.9,4.7,4.1,5.3s1.8.7,1.8.8h.1Z"/><path class="cls-1" d="M218.1,831.4c2.5,2.3-1.5,8.2-3.7,5.9s.6-8.8,3.7-5.9Z"/><path class="cls-1" d="M219.4,892.3c1.5,3.8,1.6,4.7-1.6,1.3-1.2,0-.2,3.9-1.5,3.7-2.5-.3-3.1-10.3,3.2-5h0Z"/><path class="cls-1" d="M398.8,1141.7c-1.2,8.3,4.9-2.5,5.2,6-2.1-2-5.8.3-7.2-1.5-1.4-1.9,0-5.3,2-4.5Z"/><path class="cls-1" d="M232.4,979c.3.4-.4,3.2,0,3.7s4.8-.7,3.7,3c0-2.1-7.3-1.1-7.5-1.5s2.3-7.2,3.7-5.2h.1Z"/><path class="cls-1" d="M470.8,370.3c-.2.3-5.5,2.9-6,1.1-1.6-5.5,7.6-3.9,6-1.1Z"/><path class="cls-1" d="M518.7,326.8c.4.7-3.3,8.9-5.2,9-.7-1.9,4-10.9,5.2-9Z"/><path class="cls-1" d="M304.3,1043.5c-.3,3.8,5.5,3.9,3.8,7.4-2.7,3.8-7-10-3.8-7.5h0Z"/><path class="cls-1" d="M353.8,1100.5l2.3,5.2c-4.5-2.1-4.4.6-6,3.7-.3-1.9,1.1-8.3,3.7-9h0Z"/><path class="cls-1" d="M217.5,841.7c.1.2,4.9.6,1.3,2.3s-6.3-5.2-3.3-5.9c3-.7,1.5,2.9,2,3.6Z"/><path class="cls-1" d="M1300.9,810.9c0,.4,1.8,4.9-1.8,5.5-3.3-5.5,4.2-5.3-1.5-8.2,4.7-2.1,2.4-2.3,3.3,2.8h0Z"/><path class="cls-1" d="M456.5,377.1c3.5,7.5-6.1-2.1-6.7,6.8-3.3-4.1,3.9-7.6,6.7-6.7h0Z"/><path class="cls-1" d="M506.8,1251.1c-.9-.4,1.9-3.6-2.3-.7,2.3-10.1,9.8,4.6,2.3.7Z"/><path class="cls-1" d="M1020.2,394.3c0,2.6-5.3,5.4-6.7,2.6s5.6-3.3,6.7-2.6Z"/><path class="cls-1" d="M410.1,424.3c-.3-.2.7-6.2,2.6-5.2,4,2.1.2,7.6-2.6,5.2Z"/><path class="cls-1" d="M331.9,1147.5c0,.7-4.7,2.6-5,2.4-1.7-.9,5.7-10.3,5-2.4Z"/><path class="cls-1" d="M363.6,474.5c1.8,7.7-8.8,4-5.6,1.5s2.1,3.6,5.6-1.5Z"/><path class="cls-1" d="M320.1,1132.7c.5.4-1.4,11.3-5.2,0,1.1.2,4.7-.4,5.2,0Z"/><path class="cls-1" d="M271.4,1067.5c1,1.2.3,6.6-3.6,4.4s2.8-5.4,3.6-4.4Z"/><path class="cls-1" d="M629.7,278.1c2.3,1.7-3.2,4.8-4.5,3.7-3-2.4,1.9-5.7,4.5-3.7Z"/><path class="cls-1" d="M231.6,739.9c.2.2,1.7,5.1,1.5,6-4.4-6.3-3.3-1-5.2-2.2s3.3-4.2,3.7-3.7h0Z"/><path class="cls-1" d="M998.7,388.1c.4.4,1.7,0,2.1.6,2.7,5.6-6.9-.5-5.3-2.6s2.8,1.6,3.2,2.1h0Z"/><path class="cls-1" d="M425.6,1207.9c.2,0,2.6,2.1,4,2-7.2,4-10.1-3.3-4-2Z"/><path class="cls-1" d="M256.5,852.1c10-.6-4.1,9.3-.9-1.3,1.2-.4.5,1.2.9,1.3Z"/><path class="cls-1" d="M1062.2,416c2.3,2.3-4,4.9-4.5,4.5-1.3-1.3,2.7-6.3,4.5-4.5Z"/><path class="cls-1" d="M645.3,273c2.2,1.6.5,6.2-2.9,2.6s1.4-3.7,2.9-2.6Z"/><path class="cls-1" d="M935.5,876.3c1.5,1.7-16.1,37-16.5,42.7-59.7-14.4-37.4.1-31.5-55.4l48,12.8h0Z"/><path class="cls-1" d="M769,623.9c59.1-6.4,65.8,83.2.6,76.9-51.5-5-44.4-72.2-.6-76.9Z"/><path class="cls-1" d="M617.5,905.8c53.7-6.9,71.7,59.3,25.6,75.1-57.1,19.6-78.8-68.2-25.6-75.1Z"/><path class="cls-1" d="M570.3,774.6c58.8-3.7,49.4,99.3-10.2,80.9-41.2-12.6-33.3-78.2,10.2-80.9Z"/><path class="cls-1" d="M638.5,646.4c49.4-5.5,58.7,59.1,14.9,77.9-54.7,23.4-74.2-71.3-14.9-77.9Z"/></g><g id="Inner-Shape"><path d="M772,609.6c77.6-2.8,78.6,118.9-9.7,103.7-64.6-11.2-50.8-101.5,9.7-103.7ZM769,623.9c-43.8,4.8-50.9,71.9.6,76.9,65.2,6.3,58.4-83.3-.6-76.9Z"/><path d="M588.7,980.2c-43.2-44,6-111.7,65.7-81.1,74.1,38.1-8,139.9-65.7,81.1ZM617.5,905.8c-53.2,6.8-31.5,94.7,25.6,75.1,46.1-15.8,28.1-82-25.6-75.1Z"/><path d="M567.3,761.1c85.2-7.8,67.2,137.4-14.1,106.6-52-19.7-41.2-101.5,14.1-106.6ZM570.3,774.6c-43.5,2.7-51.4,68.3-10.2,80.9,59.6,18.3,69-84.6,10.2-80.9Z"/><path d="M603,726.1c-43-44.2,11.2-116.6,66.5-87.1,69.4,37.2-12.5,142.5-66.5,87.1ZM638.5,646.4c-59.3,6.6-39.8,101.3,14.9,77.9,43.8-18.8,34.5-83.4-14.9-77.9Z"/><path d="M869.6,885.3c-.9-1-21.8,7.8-26.1,8.8-18.9,4.5-40.4,3.9-58.2,9.3-61.4,18.6-19.3,135.2-109.7,148.9-90.1,13.7-175.2-69.7-194.1-152.6-63.9-251.7,224.9-426.7,428.4-283,4.9,10.5-1,11.5-7.7,10-320.9-209.4-604.1,290.1-264.5,411.3,144.8,21.8,39.2-170.1,201-156.8,4.7-1.1,32.5-10,34.3-12.5,105.3-519.1,290.2-410,56.5,59.1,30,46.5,6.3,96.5-35.2,125.3-9.3,4.5-58.5,45.7-64.2,30.6,4-57.8-37.5-147.5,35-179,.8-1.2,4.8-18.7,4.1-19.5h.4ZM1028.2,543c-11-13.5-27.9,15.1-33.3,22.8-52.8,76.7-93,189.8-104.4,281.7,1.5,7,49.3,18.3,54,15.8,40.4-81.1,91.9-227.1,83.7-320.3ZM935.5,876.3l-48-12.8c-6,55.3-28.3,41.4,31.5,55.4.4-5.7,18-41,16.5-42.7h0ZM844.1,1068.2c48-21,117.7-81.8,70.3-135.8-2.3-1.3-45.5-12.6-48-12.4-53.8,28.1-20.9,102-22.2,148.2h0Z"/><path class="cls-1" d="M844.1,1068.2c1.4-46.1-31.7-120.1,22.2-148.2,2.6-.2,45.7,11.1,48,12.4,51.2,53.9-32.3,121.7-70.3,135.8h0Z"/></g></svg>