<?xml version="1.0" encoding="UTF-8"?><svg id="Layer_1" xmlns="http://www.w3.org/2000/svg" viewBox="0 0 1518 1518"><defs><style>.cls-1{fill:#fff;}</style></defs><path class="cls-1" d="M1518,0v1518H0V0h1518ZM748.1,318.6c-5.5,6.3-5.1,2.6-12.7,3l.8,1.5c-1.6.4-15.3-1.1-12.7,3s4.3-.9,2.1,4.8-6.3,1.8-6.6,2c-.2,8.5,5,.3,8.9,1.4-2.1-1.5.7-6.7.8-10.5,3.1.8-1,3.1,0,3.7,3.8.7,7.6-1.7,5.3,3.7,1.7,1.5,11.8-4.9,2.3-4.5,2.7-4.1,3.9.3,4.5,0,0-6.7,16.8.1,7.3-8.1ZM724.1,331.3c1.6-5.2-1.5-5.4-6-5.2l6,5.2ZM833.1,327.3c-4.6-4.1,2.7,10.3,5.7,4.4,2.1-3.8-3.2.1-3.7-.4-1.5-1.4,1.6-2.1-2-4ZM325.3,861.3c3.3-5.3,3.6-5.3-2.2-9.7,10.8-3-.5-4.3-.7-4.9-1-2.9,2.6-.6,3-.7,8.6-1.9-1.4-1.6.7-4.9-4.7,2.7-.8-5.1-2.3-7.5,1,1.6.6,6.3,3.7,3,2.9-2.9-6.6-6.2.8-8.6-5.3-3.4-2.6-4.7-8.3-7.9,3.1.3,3.3.1,3-3,3.4,7.5,7.1-.3.6-2.7-1.1-5.1,3.4-3.4,3.8-4.5.7-2-5,.5.8-5.6-2.2,2.8-5.3-2.8-5.2-3.4s12.1-2.4,2.2-4.9c-.1-3.1,3,.4,2.3-4.1s-4.6-3.2-3.1-4.9,2.7.3,3,0c1.2-1.8-5.7-9.5,1.5-6.7.9-.8-3-3.5-3-3.8,6.9-1.4-2.7-10.1,7.5-11.3-1-4.7-6.7,2.7-3.7-5.5-3.5-1.5,1.1-6.5,1.7-9.3,3.8-1.9,2.8-1,1.3-5,2.3-2.2,5-6.8,1.5-7.5,2.8-2.9.4-4.8,1.5-8.8.9-2.8,3.9-.3,2.3-5l1.5.8c2.8-4.5-1.1-13,5.3-11.3-4.6-3.5,4.5-1.9-.8-6.4,1.1-5,5.3-4.3,6-6.2s-.8-7.9,3.1-8.4c-4.7-6.6,6.1-25,11.3-34.3,7.3-9.3-3.1-6,2.6-10.6,4.9-3,0,2.6,1.9,1.5.9-4.1,2.4-11.5,4.1-15s2.4-.6,2.5-.8c.5-5.7,6.9-11.7,7.3-17.9.8-1.5,11.5-10.3,5.6-11.2,5,.5,1.4-.8,3-2.7s2,.7,2.2.4.6-4.9,1.5-6c2.7-.6,1,2.4,1.5,3s6.1-4,4.5-6-9.3,4-2.2-4.9,5,.3,3.8-4.1c6.2,5.5,2.2-1.4,2.3-1.8,9.2-10.2,2.7-7.2,6.3-14,2.9-.8.5,6.1,4.9,1.5s-4.6-2-3-4.5c5.7-1.7,4.2,2.1,6.2-5.8,5.2-.3,1.7-1.8,2.5-6.1,3.8-2.6,7.3,1.7,3.4-4.5.9-1.3,4.6-6.9,6-3.7.4-4,6.6-16.2,11.8-15.9,1.8-2,4.1-11.9,9.1-7.3-6.4-2.7,4.1-3.9-1.5-6.7,5.5-.3,8.2-8.1,13.5-9.8l-3-2.2c5.7.7,3.6-6.7,9.7-4.5,0-2.9-.7-4.8,3-5.6.8-4.2,2.7-2.2,5.8-2.8.4-7.8,2.3-7.7,9-12.1.9-.8-2-4.9,3.9-1.4-2.1-8.2,5.6-8.6,9-11.3s-1-2-.7-2.2c3.1-2.6,6.1-2.6,11.1-7.7s-.1-3.3.2-3.6c5.2,1.1,4.3-4.6,8.8-4.1,2.9-2.6.5-3.7,1-4.2-.2-.4,13.2-3.8,9-6.8,3.5,1,5.4-2.7,6.9-5.8,5.1,1.9,10.1-11.6,14-6.1-3-8.5,13.6-8.7,12-13.9.8-.6,3.5-.1,3.8-.3-2-5.9,8.3-5.4,12.9-10.8,2.9-3.3-.4-3-.1-3.4,1.1-1.7,2.7,1.9,3,1.5,2.4-3.5-2.4-5.9,6-3-2-2.9,1.8-.7,2.9-1.6,1.4-6.2,5.7-4.9,11.7-8.1,3.2-6.9,10.4-1.8,9.5-9.7,2.7,2.2,5,3.4,8.9-1,3.3-1.9,0-2,.1-2,.5-.3,2.6,1.1,3.3.7,1-5.6,11.2-2.5,11.1-8.1,12.6-1.1,9.7-8.4,14.1-7.6,4.2,1.7-1.2,2.4,1,2.2,3.8-.5,7.4-4.8,9.9-5.9s7.9,2.4,7.1-4.5c3.6,4.3,8.7-2.7,15,0l-2.2-2.2c7.4,2.6,6.1-6.5,10.5-3.8.5-.6-.4-3.8,0-4.5,5-1.4,10.6-3.8,6,3.7,4-2.4,2.9-1.6,6,.8-1.7-6.4,8.3-4.2,12.6-5.8,6.2-2.4-.3-3.7-.5-4-1-1.5,3.4-5.3,4.5-2.2,1.8-1.8-7.8-4.8-8.2-4.5s4.5,10.2-5.3,3c2.8,8.8-8.5-.8-9,0-.9,1.6,2.8,3.4-1.5,4.5,6-1.3,1.3,4.3-1.1,3.8s-2-5.9-4.8-3.7,1,8-3.8,4c3-.7-6.2-3.7,5.1-5.8,3.2-5.2-7.7-4.3-5.9.1-2.3-2-3.2,0-3.4,0-2.5-1.1-1-5.7-3.7-4.4-.8,8.7-9.7,2.8-15.7,7.5-1.9-4.1-15.7-2.7-12.4,0-1.3.3,0-2.3-2.2-1.5s0,1.6-1.2,2.1c-4.9,2.1-5.6-.4-8.2,6.1-1.4-5.3-4.5-.8-8.6-2.2,1.2,5.8,5.7.7,6.4.8,3.8.2-9.9,5.6-10.5,5.3-1.6-1,.4-6-4.2-4.5,5.6.7-.2,10-.4,2.2-.4,6.2-3.4,2-6,.7-.8.1-2.1,3.5-4.9,2.3,1.3,2.7,4.2.4,6.4.7,4.4.6-16.9,9.6-9.4,1.5-6.8.3-2,3-2.2,3.7-.8,2.5-12.6.8-11.3,4.4-1.3,1.5-25.8,7-22.4,11.3-2.7-1.8-3.6-1-6.8-.7l1.5,1.5c-5.4-1.3-13.4,8-18,5.3.8,3.5-4,4.3-5.1,3.8-2,1.3-3.4,6.7-5.4,2.9,1,5.3-2.6,1.9-3,2.2-1.7,1.5-3.5,8.4-6.8,6.8,6.8,6.2-5,2.1-9.3,6-3.2,10.2-17.3,9-12.5,13.5-1.4,1.8-8.4,0-7.5,7.5-3.2,1-2.1-2.2-2.3-2.2-1.9,4.1-9.4-3.1-5.2,4.1-.9,4.4-13.2,7.9-11.2,12.4-9-2-.1,4.9-9.7,5.2.9,1.8,3-.6,2.3,3-7.3-2.8-10,16-13.5,7.5,1.5,3.9-14.1,10-9,14.2-7.2-2.4.9,2.3-6,1.6,6.7,3.6-1.5,2.7-3.5,4.7-2.7,3.9.5,5.5-4,3.5,0,1.9,1.9,3.6-1.4,3.1.7,3.7-3.8,4.2-6.1,4.5-1.5,1.5-3.3,10.5-6.9,6.6,3.7,4.9-20.7,20.3-15.7,24-3.2-2.1-6.3,2.7-.7,1.5-6.1,4.7-10.8,8.7-15.9,18.6-4.2,3.1-4.3.7-5,5.1-4.7-.3-2.5-.4-1.5,3.7-.1,2.6-9.9,4.2-4.5,7.1-4.4-.3-5.6,7.9-7.7,10.3-.9.8-12,4.5-1.3,3.2.6,2.5-3.1,1.5-3.6,3.3,3.1,5.3-3.4,3.4-6.2,7.1-.2,1.9,6.5,6.2-5.3,6.7,5.2,3.2-5,6.7-.7,9.7-.4.4-3.1-1.2-3.7-.7-.2,2.3.4,9.4-4.5,6.7-.4.3-1.4,6.8,3,4.9-3.1,2.6-4.8-2.2-3,4.1-3-3.6-3.6,6.2-7.5,8.1.1,8.3-.8,2.2-4.9,10.3-1.9,6.3,1.2,2,1.2,2.2-.5,2.3-5.3-2-3.7,3.4l-2.2-2.2c5.5,7.6-8.1,14-4,17.2-.8,1.6-3.4,1.3-3.4,1.5,1.4,11.5-5.6,5,1.5,9.7-3.8-1.4-3.3,3.2-5,4.5-2.5,2.1-3.4-4.2-2.6,7,2.6,1.3-5.5,4.5-3,11-5-9.7-1.8,3.3-2.2,5.2-5,.5-.2,7.3-6,6.7,4.2,4.8-3.5,10.5-2.3,17.2-3.7.9-1.7-2.5-2.3-3-2.2-2.1,0,9.4-.1,10-3,7.1-5.6,12.7-5.3,20.3-3.1,4-2.5.6-2.5,5.6-2.3,2.9-4.5,5.9-.4,6.5-.5,2-1.9.8-2,1.3-3.1,9.5-1.5,1.8-3.2,3.6s2.9,3.4,2.8,6.3c-3.9,7.3-2.7,2.9-2.8,11.2-1.5,3.9-5.9,1.3,0,4.2l-3.7.8c4.6,8.7-5.3,20.5,1.5,25.4-2.1,2.3-1.7-1-2.3-.5-1.4,1.4-1.3,5.3-5.2,4.2,7.7.8-3.8,14.2-1.1,13.5,8.9-8.7,7.8,1.9,2.7-.7-.7,1.2,1.7,5.1,1.4,5.2s-3.3-1.6-3.8,1.9,1.7-.4,1.9-.4c2,.9-.4,13.4-.4,16.1s2.2,0,2.3.8c-4.9,4.2,1.8,10.7-1.7,15.9-3.4,3.5-4.8.2-4.3,2.1s5.5,1.3,3,5.6l1.5-.8c.9,4.6-4.4,13.6,1.5,15.4-5.9,5.3,4.4,19.6-3,25.8,3.2-2,.4,1.9.7,3,4.1-1.1,3.2,9.5,3.6,11.9-.3.9-2.9-.8-2.1,1.5,6.6-.7,3.9,15.1,4.5,15.8s4.2-1.6,3.5,2.6-5,0-5.8,2.6c13.7-1.9.7,13.1,8.2,13.7-2.6,4.6,5.8,6.3,3.1,11.1-2.7,2.8-6.5-.5-4.5,3s3.9-2.9,5.2-1.5-1.1,9.4-.7,9.7c5.5-3.1,6.3,7.5,6,11.3,7-4.7,2.2,5.3,5.3,9.7l2.2-1.5c-2.8,5.7,1.7,5.5,2.6,7.5.5,10.1,10.6,11.6,4.1,21.7,2.8.2.3-5.9,4.9-2.2s-.5,3.2-.4,3.4c6.4,1.4,4,12.2,11.3,12.4-5-1.7,14.4,28.8,12.7,19.5-4.6,10.6,8.9-.3.7,9,6.4-1.5,7.7,10.1,11.7,9,.7,1-.7,2.5-.5,3s6.2-.6.8,6c5.1,1,2.8-10.9,6.8,2.4,4.9,3.8-1.8,1.3,0,5.8,6.6-.4,6.5-5.3,6,6,4.7-6.2,5.5,1.3,8.4,4.3s1.5-1.4,5.2,5.3,2,0,2.1,0c.3.5-4.9,9.1,3.7,3,3.3,10.1,10.7,4.3,11.2,12.1,3-2.5,2.8-1.4,4.5,1.9,5.7,1.1,4.1-.4,3.8,4.9.6,1.1,7.1-1,5.3,3.7,3-4,1.5.6,3.5,1.4s8.2,1.3,8.5,1.6c-.4,3.1,1.4,3.7,3.7,3,.9,6.3,7.7,6,12.8,7.6,2.4,1.3-.1,1.8.2,2,3.4,0,8.1,4.5,10,6.2.6-6.3,2.2-.4,5,1.7,5.6,2.1,5.9-1.4,7.5,3.2,1.6.8,11.8,3.1,9.6,6.4,2,1.3,1.4-2.2,1.5-2.2,1.2-.4,2.2,4.1,3.7.8-.5,5,0,12.1,2.6,3,1.2,5.1.9,0,1.5,0,2.5,1.9,11.7,5.7,14.6,4.5,3.3,1-1.9,2.3,1.5,3,4.8.7,6.2-2.7,4.5,1.5,14.4,1.3,5.2.7,10.1,6.7,3,0-1.2-1.5-1.1-1.9,3.3-5.1,5,5.1,7.8.3,7.7-.1,14.5,3.3,17.2,9.5,1.9.9,13.5,3.9,13.2,1-15.8-5.8,2.2-1.3,7.5-.8-11.6,5.5,9.1,6.3,9,4.9-6-9.1,5.7.3,8.3-.4-5.2,5.4,8.4,8,5.2,2.2-.7,2.4-7.1-.4-4.5-2.2s.6,1.6,1.2,1.5c8.1-1.5,21.1,0,5.5,4.4,7-1.7,11.9,3.6,13.5-5.2-1,4.8,3.1,3.2,3.7,3.8s-1.2,3.6,1.5,3c-4.1-8,8.8-7.5,1.5-2.3,3-.6,2.7,1.8,0,3,7.7,4-.6-3.6,6.7-1.5-7.2-3.8,6.3-3.6,3,.8,1.1.8,5.1-4.3,8.2-1.5-1.7.6-5.8,2.4-2.5,3.8s12.8-8.1,9.2-1.5-4.3-1.4-3.7,1.5c4-1.1,8.5,6.1,7.5-1.5l-2.2,1.5c-2.3-3.3,4.3-3.9,5.2-3-2.4,7.2,4.7,5.1,9.8,6,.2-4.3-5.9-.5-6.7-2.6s7.6-3,8.9-1.8-.9,6.8,8.4,5.1-1.1-1.9.5-2.2c2.5-.4,15.7-2.1,8.5,2.1,6.4-1.9,5.8,1.3,6.4,1.6,7.8-.2,1.3-8.3,12.7-2.2,1.3,0,2.8-1.6,3-1.6.8,3,4.3.5,6.5,1.1,6.6,6.2,12.3,3.2,12.3-.4,1.6,2.8,2.8,5.4,4.9,1.1,7.6-1.9,4.3,3,4.5,3.3,5.7-3.9,27.7,5.4,28-3,2.6,10.1,5.7-2.5,8.6,0,2.8,2.4-8.2,4.8,4.5,2.2l-.8,1.5c5.2-2.2,4.5,2.5,8.2,3-3.7-8.6,13.6.4,14.3-6.7,5.4,6.1,11.9-6.7,11.3,1.4,5.7,4.2,15-5,15.6-4.4-4.2,8.4,9.8,5.8,6.9,1.7,3.5,1.3,1.1-.4,3.3-2.4,2.8,1.2,11.3,2.3,10-2.3,8.2,3.9,12.5-1.7,11.6,2.2.6,0,4.1-4.4,5.6-3s-8.1,5.4,6,3.7c-4-7.6-.6-2.7,3-.7-3.7-5.5,6.8-5.4,6-2.6s-3.7-.3-4.5.4c-2.1,1.8,2.7,3.1,4.7,2.3s-1.7-6.3,1.7-6.8.5,2.2,1.5,2.2c4.2,0,6.8-3.2,7.1-3,0,6,12.3,6.2,6.7-.8.5-1.4,15.2-.4,13.5-3.7,6,4.5,2.3.9,7.2-1.5,7.4-.8.8,3.6,1.7,4.5,1.4,1.3,5.3-5.2,7.1-5.2s0,1.9.4,2.2c8.3,5.1,2.1-1.4,2.3-1.9,1.8-5,8.2-3.1,8.6,1.9,1-2.2-.8-7,3.7-7.5,2.7-.2.2,4.3.4,4.5s4.3.2,4.5,0c-2.5-3.7,4.7-5.8,6.7-6.7,1,3.5-7.1,4.1-4.5,6,5.4,4,3.2-6.5,7.5-3-6.8-6.7,16.6-3.5,13.1-6.8,3.4.4-.5,3.6,2.6,3-2.9-4.9,5-9.9,6.7-5.6s-7.3,4.5-2.6,4.9.4-1.6,1.3-1.8c2.9-.9,13.3-1.6,11.1-6.5.7-1.3,2.1,2.7,3.7,1.5-2.8-4.3-.4-5.3,3.9-5.4,4.3-1.6,18.7-8.5,13.7.1,3.4-2,5.1-4,5.6-8.2-.3,3.1,4.1,4.6,5.2,3s-7.1-8.6,8.2-3c-13-5,17.8-13,9.7-7.5,4.4.9,6.1-6.5,12-8.2-.3,1.5.2,3.6,0,5.2,9-3.5-1.1-7,8.2-3.8-1.1-4.2-6-2.2-8.2-1.5,1.2-5.8,3.1-1.6,6.3-2.3s1.5-6,3.9,0c2.6-1.7-.9-3-.4-4.8,2.2-1.8,3.7.8,5.2-3,3.3-1,5,2,5.3,1.8s-.5-3.4,3.8-3l-1.5-1.5c5.2,1,5-2.8,5.2-3,2.9,1.2,1.7.3,3.1-2,6.7.2,3.9-7.5,12.6-5.4-4.6-6.7,1.5-2.8,1.8-3,3.2-1.6,6.4-9.6,10.2-6,.8-4.8.7.4,4.5-.3,3.9-3.1-1-4.7-2.2-1.9-.7-.3-2.5-4.3-2.3-4.5,5.1,1.5,5.1-3.9,8.3-2.3-.4-3.1,1.1-2.2,3-1.5.8-.6-.5-8.4,6.8-.8-.3-3.8-.7-3.3-3.7-4.5,2-2.2,5.8.3,6,0-1.4-2.1,4.2-11.5,2.3-2.3.4.7,4.5-2.3,4.5-2.6s-7.7-2.3-2.3-5.3,2.8,3.4,3.4,3.4c2.9,0-.2-4.6,1.1-5.6,3.2-2.5,1.1,2.5,3.8,1.9,1.3-7.7,5-1.3,4.5-10.5,1.9,2,9.9-.7,6.9-3.6,3.3-4,9.2-5.7,5.8-10,6.9,3.6,1.6-1.8,6.7-3,.8-1.3-3.3.1-2.2-2.2,15.5-5.8,19.9-28.2,33-37.6-2.8-1.9-1.7-2.9,1.1-2.9,9.6-8.8,8.1-27.1,18.4-32.3.5-3-1.9-.3-2.2-.7-2.6-3.4,4.4-.6,5.1-3.5-2.8-4.6-5.2-4.5,1.2-10,1.6-.5.7,4.1,2.6,2.2,3.3-4.9-5.2-3.4.8-8.6-.3-2-2.6-.8-2.2-1.9,5.2-1.2-.5-14.8,6.7-5.3l-1.5-6.4c6.4-2.3-1.8-6.4,4.5-4.1,1-3.2-2.2-2.1-2.2-2.3,1.7-1.7,1.9-1,1.1-3.8,6.9.3,1.6-8.6,6.4-9.7.6-1.8-3.1-1.6-1.1-4.5,2.3-3.4,2.4,9.5,4.9-2.2-5.7,3-2-6-.7-8.3s1.6,2.7,3,1.5c-3.2-5.3,0-1.8,3.7-2.2-1.9-2.1-4.7,0-3.8-4.5l-1.5,3c-2.6-5.6,4.9-3,6-4.5-.5-1.4-1.5-11.9,1.5-10.1-4.2-1.9-5.1-9.9,1.5-4.1.1-6.3,1-.4,1.5-3.4-6.1-6.4,0-1.8-2.2-6.8,10.3-2.1,3.7-21,2.9-1.9-5.7-1.8,3.1-10.9,0-13.8.1-.8,2-.9,2.2-1.7.5-3-1.6-2.4-1.5-2.9,2.9-2.9,3.7-8.4,1.6-11.6,8.4,1.6,10.6-12.9,1.5-10.2,5-1.1,3.1-4.7,3.7-5.6,12.5,2.8-1.8-6,.7-8.3,2.6-3.2,4.3,5.4,5.2,1.1.5-2.2-9.5-4.2-6.4-6.4s.9,2.2,1.9,1.5c2.5-1.9,1.2-6.3,1.5-7.5s3.1,1.4,2.1-4.8-2.7-.7-2.2-2.3,5.6.3-.7-5.6c6,3.5-.7-7.8,6-1.5-1.3-2.2,2.3-5.5-.4-6.7-4.4-1,.7,7-3.9,2.3-6.2,4.5.9-4.3-4.8-1.6,3-6.4,3.1,3.9,6.3-.7,1.1-3.2-2.8-6,.5-7.8,3.8-22.3-10.7-8.4-.7-3.4-10.4-1.1.6,4.8-5,6.6-6.7,1.6,3.5-3.1-4.7-7,3-2.5,5.6.5,2.3-4.8.5-2.1,4.1-1.4,3-3.8-7.3,0-.5,8.8-8.2,3.4,0-2.5,4.7.3,3-3.4s-3,.9-2.2-1.5c8.9-.4,1.6-6.6,1.5-7.1-.4-2.5,1.5-1.7,1.5-1.9-2.6-1-.9-5.6-.8-6.7-.3-.2-4.6,2.9-2.9-2.5s2.1-1.1,2.1-1.2c-1.2-3-3.2-4.4.7-6.3.7-3.7-4.6-3.5-3-5.7s2.9,1,2.2-1.5c-3.7,2.5-4.5-1.6-3.4-4.5s4.6.3,3.4-2.2c-2-2.6-6.7-6.9-2.9-9.4-5-1.8.6-11.2-1.3-15.3-9-5.5,3.3-8.4-4.8-9.2,3.1-2-1.6-9-1.5-9.3.6-2.4,6.4,2.3,6,0-.8-4.6-3.6,0-4.9-1.9-2.3-1.9-2.7-19.9-7.9-18,7.7-5.7-3.3-9-.7-20.2l-2.2,1.5c4.1-11-2.9-12-4.5-19.1.9-5.2,5.1,8.9,6.7,6.4s-2.5-5.7-2.8-6.5.9-2.3.6-2.5c-3.5.8-8.4-1.2-5.3-5.9-.2-1.1-2.9.9-2.2-1.5s4.5-2.5,3-3.8c-11.2,4.3-4.3-5.1.8-2.6,4,2.7-.5,3,0,4,6,2.3.5,4.8-.1,6.8,3.4,2.9,3.8-4.4,4.1-4.5,9.1,4.6-2.7,5.2,3,10.5,6.1,1.1,1.6-11.4-1.5-12-.5-1.3-1.6-8.7-1.9-9-1.4-1.4-8.1,3.4-11.2,2.2l3.8-6c1.8,1,3.5,6.6,4.2,0,.5-4.6-2.7-.7-3.1-.7-7.3.3-2.9-7.2-1.2-1.6-1-3,2.6-2.1,3-3.4.9-2.8-5.6-7.6-8.2-4.1s3.6.8,0,3.7c8.8-2.3-2,5.4-3,4.5s5.2-9.9,0-10.5c2.3-.7,6.7-1.8,6.8-4.1,0-5.5-10.7,4.2-10.5-.7s5-.9,5.2-1.1c1.3-8.9-4.1-6.9-3.7-12.8,0-.3,3.2,1.2,2.2-2.6s-2.3,1.8-2.6,1.8c-2.5.3-1.6-7-7.1-4.5,5.2-4.3.3-3.6.2-3.9-2.7-6.3.9-1,1.3-4.3-1.8-.3-6.2-3.2-3-3.7h-3.7,6.7c-3.7-8.1-5.7-1.1-6.7-2.2-3.6-13.4-17.4-17.6-19.5-32.2l-1.5,3.7c.8-6.1-26.1-25.7-15-27-4.7,4-11.8-5.6-10.5-6.8s8.1,3.3,4.1-1.5-6.9.5-7.9-.7c6.3-5.2-1.9-6-4.5-5.2-.3-.3.8-4.1-3-5.2l4.5-1.5c-3.4,1.8-6.6-7.7-10.5-5.2-.2-.2.3-2.8,0-3-7.3,1.3.9-7.2-7.5-2.9-1-1.5,2.3-.5-2.9-5.3s2-4.4-3.9-2.2c1.8-1.3,0-4.6-.8-5.2-2.2-2-.7,4.7-3,3s-.7-3.8,0-5.2c-8.2,3-3.2-5.7-10.5-3.8l3-2.2c-4.9-1.4-5.8,2.1-5.2-4.5-3.5,2.6-6.4-.2-3.7-3.7-14,3.4-10.8-11.6-15.7-6,.6-6.3,1-4.8-4.8-3.9-3.5-2.3-7.2-8.8-11.8-7.7-1.4-5.7-1.7-2.9-5.2-2.6-1.8-8.9-19-7.2-24.8-16.8-9,1.8-12.9-7.9-17.9-4.5-2.5-3.1-.9-2.2-4.8-2-2-4.1-11.8-4-13.2-4.4.2-4.6-6.2-3-9-4.2-6-3.1-7.5-5.7-11.3-.4-.5-3.6,0-3.5,2.2-4.5-7.8,0-11.2-3.5-18.8-4.2s-2.2-5.5-3.7,2.7c4.2-6.4-14-5.3-7.5-8.3-1.2-.5-3.4,2.3-3.7,2.2-1.6-4.2-12.8-1-14.6-5.2-13.9,2-34.1-8.5-50.1-9.7-2.3-.4-10.9,3.1-7.9-2.4-2.5-.6-.9,2.2-2.7,2.9-3.6.7-8.5.6-7.7-2.9-6.4,5.3-4.4-1.5-10.5-1.5l2.2-1.5c-4.5-1.9-4,5.4-8.2,2.2s1-2.1.8-2.2c-1.3-.1-4.7.8-4.9-1.5-4.8,2.6-13.5,4.6-16.4,0-1.6,4.5-6.7-1.6-10.5-.1-4.1,1.1-.8,2.3-1,2.4-1.8.9-2.1-2.2-2.3-2.2-1.7,3.7-8,.9-10.9.9-2,3.5-4.3-1.9-7.5,2.9,3.7-5.2-20.6-1.7-19.1,2.3-1.2-6-3-1.3-4.1-1.5-.9-1.1-15.9-1.4-12.3,2.3-2.1.5-13.9-3.8-9.7,4.5-17.8-7.6-7.3,1.7-15.4,2.3,7.1-5.1-6-3.5-6.4-3-1.9,2.3,6.9,6.7-5.3,6.7l3-3.7c-1.8-.9-13.4,4-12,5.2s9.8-3.2,6.7,0-8.1-.4-6.7,3c-5.5-6.7-8.7,2.6-12,.8-.3.3.9,1.8.7,2.2-.4.9-3.2-3.1-4.5-1.5-.1,3.3-1.3,5.5-4.5,4.5,1.5,4.3-6.6-.7-4.7,5-4.9,6,0,1.5-1.4,5s-4.2,2.2-3.5,5.5,3,.5,3.6.9-1.5,2.4-1.5,3.4c3.7,7.6-4.8-.1.8,8.5-6.3,1.9,2.8,2.1,0,7.5,1.9.7,2.5-7.3,4.5-1.8s-2.7,2.2-3,2.6,2,6.5,4.5,1.5c-1.4,2.6,5.1,5.6,5.3,5.2.4-.8-3.2-3.9,3.7-1.5-5-4.4,2-5.7,1.5.7,3.4.3-1.6-3.6,3.4-2.3s1.3,2.7,3.6,2.9c4.2.4,2.9-5.2,5.4-5.8s1.4,2.2,2.2,2.2,5.5-4.4,4.9.8c1.8-4,1.3-2.2,3.7,0-1.4-4.7,6.7-7.6,7.5-3.7-3.1-3.5,8.5-4.1,9-3.7s-.2,4.1,1.9,5.2c3,1.5,1-5.6,1.1-5.9.7-1.3,2.4,1.7,3.7,1.5,4.7-4.9,19.3-.9,26.2-3-1.2-4.3,11.4-3.4,11.2-.8-.5-4.2,6.1-3.1,3,1.5l1.5-3c5.6,3.3,14.6-3.3,16.5,3,1.4-.9-.3-4,1.2-4.4,3.5,1.7,10.9,1,14.2.2,1.5,3.4,4,4.7,2.9-.9,3.8,8.4,4.8,1.6,5.2,1.5,2.4-.5,11.4,5.3,7.8,0,.5-.2,10.1-.4,10.5,0,2.3,2.5-2.8,3.5-3,3.8,3,6.1,1.7,1.5,6.7,1.4l-3.7-.7c1.8-5.2,6.1-.2,8.2,1.5,1.8-15.2,3.5,4.8,13.8-.7,1.8.3.9,2.1,1.6,2.2s-.2-2.1,3-1.6c6.8,4.7,24.4,1.3,25.9,6.8,2.2-4.2,5.7-.7,9.2.9,3.2.7,13.3,0,13.3,4.3,1.8-1.9,2.1-2.8,5.2-2.2l-2.2,2.2c3,.6,14.1,4.4,11.8-1.3-3.1-6.2-7.2,4.6-12.2-4-2.9-.5-3.6,5.4-6.4-2.2-2.9,1-3.1-1.6-4.5,2.2-4.5-8.7,2.1-1.5,4.5-4.5,0,.7-.2,1.7,0,2.2,2.4-2.8,1.6-2.1,3.5.1,3.2.4,9.5-3.5,7,2.2,2.5,3.1,21.8.3,20.2,6,.9.7,2.4-3,3.7-2.3-.3.3,5.7,4.9,1.5,4.5,2.5,1.5,7-2,6,2.3.3,0,5.6-4.5,1.5,1.5l3.7-2.2c-.8,5.8,4.1,3,6.5,4.3,3.9,2,15.8,12.5,19,7.7-5.6,1.1-8-8.9-12.7-5.3-.6-.6,2.4-4.4,2.6-4.5,1.7-.3,2.7,5,3.4,5.2,1.2.4.3-2.6,2.2-1.5,0,2.5,3,3.6,6.2,5.8,10-.2,6,8.7,2.8,2.5-1.9,4.2,8.5,11.8,6.8,3-10.3,5.3,2.1-10.3,2.3-.8l2.2-2.2c-1.9,4.5,6.7,5.9,4.5,7.5-3.1,2.3-5.9-2.2-6.3-2.2-6.5,3.7,3.3,3.8,5.1,2.9,1,.3.5,3,1.6,3,3.9.3-1.3-11.7-1.1-12.3,2.6-1.2,6.2-1.3,5.2,2.6.3.5,5.8-2.7,5.2,1.1s-7.2-.7-7.5-.4,2.3,3.8,1.5,5.2c3.1-5.7,4.6,2.3,6.3,1.5,3.1-8.5,12.2.2,4.9-.4,0,5.9,5,0,5.3.4s-1,6.2-.7,6.7c2.3-1.5,7.5-3.5,5.2,2.2,3.6-1.4,3,0,3,3,6-3,4.8,5.8,9,.8,2.7,4,8.6,9.2,14.9,9.8.3-3.2-2.9.5-3.5-3.5-1.2-8.3,8.9,2.1,3.5,8,1.3-.2,4.2-4.4,4.5-4.5,3.5-.4-.9,4.2-.7,4.9,1.2,4.4.9-1,1.1-1.1,3-1.3,2.2,4.1,2.6,4.5s8.4-5,6.7-.4-5.7-1.5,0,6.4c2.8.5,1-2.5,1.5-3.7,7.6.8,1.1,3.2,2.2,4.5,3.2.9,4.1,2.9,4.6,5.1,7.1-.6-.2,6.3,9.6,4.6-1.3,3.6,6.2,6.6,7.3,7.8,4,4.6,1.6,8.2,6.9,5.8.7,5.1,7.9,10.1,11.2,12.7-.7,4.5,5.8,7.6,8.8,11.1,4.4,3.8,13.1,30.2,15.4,25.2.5,1.6,1.1,10.6,5,9.4,1.3,2.5,2.5,10.9,4.3,14.1,2.4,2.9,14.8,12.6,7,9.1-1.7,1.9,1,3.1,1.3,4.2-1.1,4-.6,4,3.2,5.2,4.1,4.2-.7,2.9-1.5,3.4,1.5,3,3.2,8.7,4.4,13.1,1.6,2.2,5.1,3.1,5.3,3.4.3.7,0,17.9,2.3,5.9,4.8,4.3-4.9,6.9,3.7,10.1-4.3,3.8-1.9,5,1.8,6.4,3,6.7-3.7.8-3.2,3.3s9.5,1.3,1.4,4.9c8.5,7.1,8,23.4,9.8,35.5,1.4,6.4,2.1,1.1,2.1,1.2.6,2.3-2.7,1-1.5,3s2.1-.2,2.2,0c1.1,1.6-3,2.2-2.2,3,5.5-.4,3.3,11.7,4.5,15.9,3.8,4.1.2,5-.1,8.8,4.4,1.3,1.5,2.4,1.5,6.3.2,1.6,2.2.2,2.3.4-2.4,2.5-3,9.3-3.8,8.6,8.5.1,1.6,11.8,1.6,4.9-.5.5,5.7,11.1.7,11.2,7-3.1-1.6,67.5,0,68.6,6.9-1.2,5.6,6.1.8,1.1-1.9.2,1.1,16.8-3,14.3,4.4,4.4-4.7,8.2,2.3,20.2-1,.9-5.7-4-5.1,3.9,3.3,6.9,1,4.4-1.7,9.2,1.2,3.5,3.9-3.8,3.7,0-3.2,7-6.2-1-6.5,13,.3,4.1,5.7-.1,4.3,3.6-8.7.8-9.5,16.5-9,25.9l-3-2.2c-2.2,8.2,2.2.6,1.5,6.7-6-4.1-1,4.6-1.5,5.5-8.4,4-5.9,16-9.1,23.3-2.3,6.5-4.1-.7-2.1,5.7l-1.5-1.5c1.3,4-2.9,4.6-3.1,4.9-.8,5.5-1.9,12.8-6.7,14.5-.2.6,4.5,8.7-1.5,3.7-2.6,10.4-20.9,31.2-19.5,39.7-3.9-5.1-10.5,6.8-9,8.6-5.4,1,.4,2-.8,3.4s-9.1,5.7-10.5,6c7.5,3-7.4,3.5-4.5,11.2-3.3-4.8-1.9,2.9-8.2,1.5,4.8,4.4-1.7,4.3-3,5.6.7,6.5-19.5,14.9-11.2,15.4-6.7-.8-3.3,2.9-3.7,3.8-9.9-4-.9.9-10.8,3.8-1.9,4.3-1.2,3.6-5.5,4.6.5,6.7-11.6,2.9-12.8,11.9l-2.2-3c-.8,9-27.3,10.9-27,20.2-5.1-2.6-6.3,0-9.9,4.3-1.8,1.2-4.2-1.3-6.2,4,1.9-4.6-22.6,9-27.6,9-1,4.7-6,2.7-10.8,4.3-3.8,1.4-2,5.1-3.5,1.7-1,3.3-4.9,1.1-7.4,1.4-3.2,7-5.7.5-10.1,5.8-4.8,1.5-12.7-1-14.1,4.1-3.7-.7-5.4-.5-7.3,2.2-9.7-.8-21.6,6.3-32.4,6.7-9.1,2.5-10.1-2.1-12.2,3.4-11.6-2-26.8,7.5-35.6,4.1-.9,0-.6,2.1-1.6,2.2-6.7-.8-25.7,1.9-28.5,1.5-6.1-1.9-16.1,4-20.1,0-.8,3-4.6.6-7,1.3-2,.4-3.9,5.4-3.9.2l-36,2.3c.1-6.6-15.1.2-19.1-.7-3.1.4-10.1-5.6-9.8-1.6-2.3-.8-5.6-3.1-3.8,0-1.2-.2-4.4-5.4-4.9.7-1.3-6.2-6.4,3.6-6.4-3-2.5-.7-2.3,2.3-3,2.3s-.3-2.7-4.7-2.1-.9,2.5-1.6,2,.3-1.8,0-2.1c-4.5-.4-18.1-3.9-20.1,2.9-.5-7.1-18-4.7-24.1-5.4-8.4-.8-7.3-5.3-10-.6-1.4-4.6-18.2-2.1-19.9-3.7-.6-.7,2-5.6-1.5-2.5s.5,2.2-.4,2.5c-3.9-1.2-5.9-6-10.5-3-1.7-4.1-5.7-2.6-10.1-2.3,4-4.5-2-1.3-2.2-1.5s.2-2.3-1.1-3c-3.2-1.8-.2,3.9-2.2,4.5s-2.7-2.9-3-3-1.6,3.2-2.6,1.5c.5-8.1-7.3-7.1-9.5-3.2-2.6-.2-3.1-2.3-4.5-2.7-.4.5-9.4,1.9-5.5-1.6-.6-.3-1.9,4.9-3-2.2-1.4,3.6-4.5,3.4-3.7-.8-7.3,5.6-.7.2-2.6-3-.8,5.9-8.9-2.9-12.8.7-3-2.7,1.6,0,1.1-2.9-2-1.8-8.7-.4-9-.8,2.2-5.1-2.7-3.4-4.5-2.3-.9-1.3-2.9-7.2-6-4.5.3-5.1-3.2.2-6.3-.8-3.1-1.1,2.9-7-5-.7,3-4.7.5-2-.9-3.2-4.7-4,5.6.5,2.4-5.1-3.5,3.5-9,3.6-12.7,0-.4,8-2.6-7.2-10.5-1.6-2.3-4,9.6-8.7,7.5-.7,2.1-1.3,15.1,3.6,12.7,0-5.8-5.5-14.8-3.2-17.4-10.1-4.2-4.5-15.1-3.3-14-8.7-10.4-2.5-10.8-9.5-22.5-13.5-.7,3.7-3.7-.7-3.7,3l4.5-.7c-4.3,8.1,4.8-1.1,5.2,3.4s-3.9-.9-4.5,2.6h8.2c-.3,3.7-5-1.1-3.8,4.5-2.7-6.1-19.2-6.9-12.7-7.5,2.1-2.6-9.7-10.4,6.7-5.2.9-4.3-4.9-2.8-5.2-3,.6-3.6-9.5-6.5-7.5-9.8-8,2.9-6.7-11-15.1-6.8.4-1.9-.2-6-2.8-5.3-.6-.8-2-8.5-2.4.9l-1.5-.8c0,1.1.3,2.8.7,3.8,2.8-6.4,3,1.4,4.7,3,1.7.7,2.7-1.4,4.4-.3,6.2,8.5-8.4,2.1-9-2.5-3.5,2.9-6.9,5.2-4.5-2.6s5.3-1.1,4.4-5.9-7.7-5.5-8-5.9c-1.6-1.7-5.8-15-8.3-6.3-.1.4,2.5,0,1.5,1.9-6.8-2.1,2.6-6.3-3.3-9.8-5.3-3.5-5,11.1-8.6-.7,15.6-.6-10.7-13.2-7.5-21-6.3,3.7-2.4-.8-3-1.5-3.1.7-3.3-1.5-3.7-4-4.8-1-2.1-5.4-3.5-8.8-3.9-5.3-12-11.1-9.3-16.5-5.1,1.8-4.8-12-8.1-9.7-4.7,2.8,2.7,8.1,2.9,8.6-2.3,5.2-4,3,1.5,5.2.8,1.6-2.3,2.5-.7,4.1s8-5.5,3.6,1.4-5.1-3.4-5.6-4.3c-4.2-.4-2.5-7.4-3.3-9.9-8.5,2-3.9-18.2-10.5-12l-3.8-26.2c-12.7,2.1,2.8-7.7-6.7-6l4.5-5.2c-6.6,1-3.4-3.3-3.7-3.8-4.6,2.4-1.1-3.5-1.8-5.3-.7-1.3-10.8-2.5,1.9-3.7,0-3.3-11.2-2.2-4.8-6,7.9-3.9,2.4,6.2,9.6,6.1,1.9-3.9-5-4.7,2.6-6-7.2.9.4-4.2-6-4.5,2.5,3.3,2.1-8.1,1.9-9.1-2.3-2.7-5.2-12.6-1.9-15.7-.9-1-5.5,1.7-2.3-6.7-7.1,1.4,5.6-16.1-3.9-12ZM805.9,328.3c-2.7,1.3-6.2-1.3-8.2-.7s1.4,2.6-1.9,2.2c-8.2-3-1.6,11.1,10.1-1.5ZM813.3,327.6c-1.2-1.2-8.8,3.1-5.1,5.1s2.8-2.2,2.9-2.5c.5-.8,3.4-1.5,2.2-2.7h0ZM750.4,329.9c-1.6-.5-2.7,3.8-4.5,4.5,4.7-3.6,9.3,1.9,9.7,1.5,5.5-5.4-6.7-2.3-5.2-5.9h0ZM852.2,329.9c-.7-.3-7-.8-7.4,1-.6,3.3,11.6.9,7.4-1ZM791.6,416.8l21.7-.4c-4.2-.8-26.1-2.6-21.7.4ZM755.5,420.4c3.8-2.4-1.9-5.6-4.3-2.8s2.3,4.1,4.3,2.8ZM732.4,417.5c-.7-.4-9.4,6.2,6.7,3.7-3.3-6-7.4,1.8-6.8-3.7h.1ZM743.6,417.5c-8.6-2.2,1.1,7.1,4.4,2.9,3.5-5.8-7,3.1-4.4-2.9h0ZM722.6,422.8c2.1-1.8-9.1-4.9-6.7.7,1.7-2,6.5-.5,6.7-.7ZM927.3,432.5c-.2,0,1.2-3.6-2.6-3-7.8,1.1,6.8,4.5,3.4,6.8,4-5.6,4.3,4.8,6.6-1.3s-6.6-2.2-7.4-2.5ZM479,500.8c-.3-.3-6.4-.2-7.3,1-6.5,8.3,9.4,1.2,7.3-1ZM696.4,598.2h-12.7v125.9h-125.9v12.7l125.9,1.1v127.8h-125.9v12.7h125.9v124.4h12.7v-124.4h128.2v124.4h12.7v-124.4h123.3c4.7,1.4,1.9-10.9,2.6-12.7h-125.9v-127.8l125.9-1.1v-12l-125.9-.7v-125.9h-12.7v125.6l-128.2.4s0-126,0-126ZM1216.6,643.2c-1.7-2.8-3.9,4.9-3,6,2.9,3.5,3.2-5.6,3-6ZM1226.4,677.7c-.2-.2-2.9,0-3.7,0,3.3,11.6,4.4,11.5,3.7,0ZM1230.9,697.2c-4.6-5.4,2.1,11.3-2.2,9.7,6.1,3.1,3.5-8.3,2.2-9.7ZM1236.1,722.7c-5.3-4.3.2,11.7-4.5,9.7,5.5.4,1.7,3.3.8,6,10.7,2-1.2-17.1,3.7-15.8h0ZM1233.9,747.4c1.4,4.3,8.2-9.6-.7-4.9,3.2.6.5,4.2.7,4.9ZM1234.6,760.1c8.7-7-1-16.7,0-7.1-.5,2.2-1.5,0-1.5.4,0,2.2,4.4,6.3-3.8,6-.5,3.1,3.6.5,5.3.7-.2.5-1.6,4.3-1.5,4.5,1.5,2.5,10.3-3.3,1.5-4.5ZM335.8,918.3c-1.5-1.2-1.6,8.8-1.4,9.3,5.3,4.2,5.1-1.3,1.5-3.3,0-.1,2.3-4.4,0-6ZM339.6,929.5c-7.6,1.1-2.6,2.8.2,8.5,1.2,3-1.2,6.1,2.5,4.8,4-3.2-6.5-10-2.7-13.3ZM347.3,957.1c-.9-.9-.8-3.1-.9-4.3-6.2,2.3,1.2,21.7,5.3,18s-3.1-6.9-1.9-9c-8.2.5,1.4-1.5,1.9-3.7-1.3,0-3.5,0-4.4-1ZM523.2,1125.9c.4-3.3-4.9-3.9-7.5-2.6,7,.6-1.4,5.7,7.5,2.6-6,5.4,1.3,3.1,5.2,2.2-.6-1.4-3.9-2-5.2-2.2ZM787.9,1211.4c-1.8-.7-8.5,1.2-6,3.7s8.9-2.6,6-3.7Z"/><path class="cls-1" d="M331.3,905.6c-6.1-.3,0,3.8-6,3-1.1-3.2,2.3-1.8,2.2-2.6-8.1-1.5-3.8-6.1-2.3-3.8.2-1.4-3.8-7.1-.8-7.8l-4.5-.8c5.7.2-7.5-53.8,1.3-46.8.5,1.6-3.6,20.2,2.4,11.7l1.5,3c-.5,0-3.1,2.1-4.5,1.5,4.7,2.6,3.8,2.7,0,5.2,2.3-2,7.6,16,2.3,11.3-1.4,3.8,9.5,11.2,1.5,11.2-1.4,2.6,2.6,2.7,3,3.4,1.3,1.7-4.4,5.4,0,5.3-.8,9.1,3.8-.8,4,6.2Z"/><path d="M1025.5,1144.7c-5.9,1.7-7.6,9.1-12,8.2,6.5-4.3-23,3-9.7,7.5-15.4-5.6-7.8,2.4-8.2,3-1.1,1.6-5.6,0-5.2-3-.6,4.2-2.3,6.2-5.6,8.2,6.1-9.7-17.7.7-19.1,2.3-.9,2.8,3.1,1.7,1.5,3-4.3-.6-3.1-3.7-4.4,1.9-2.1,2.4-11.8,1.6-11.7,4.9-4.7-.4,2.8-4.5,2.6-4.9-1.8-4.3-9.6.7-6.7,5.6-3.1.6.8-2.6-2.6-3s-.2,1.3-.7,1.4c-3.9.6-17.2,0-12.4,5.4-4.3-3.5-2,7-7.5,3s5.5-2.5,4.5-6c-2.3-3-9.2,4.2-6.7,6.7-.3.5-4.3.1-4.5,0s2.3-4.7-.4-4.5c-6.2,1.5-1.9,5.3-3.7,7.5-.4-4.9-6.8-6.8-8.6-1.9s6.1,7-2.3,1.9,2.1-2.3-.4-2.2-5.7,6.6-7.1,5.2,5.7-5.3-1.7-4.5-3.3,3.5-3.5,3.7c-1.7,1.2-1.4-2.8-3.7-2.2-.9,2.8-11.7,2.9-13.5,3.7-.9.7,5.7,4.8-2.6,5.1-4.9.2-2.7-3.6-4.1-4.3-.8-.8-9.7,7.2-8.6.8-3.4.5,1,5.6-1.7,6.8-8.8.9-4.9-3.5-.2-2.7.6-2-9.7-2.9-6,2.6-3.6-2-7-6.9-3,.7-14.1,1.7-4.3-2.2-6-3.7-3.2-1.8-5.4,5.7-6.5,1.5-3.8,3.4-14-3.9-10.7,1.4-1,.3-5,1.5-5.6,1.7-2.5-.9-6.1-2.6-5.6,1.5-2.8-2.3-2.7,2.3-5.6,3-6.8,1-2.9-4.7-3.4-5.3s-9.9,8.6-15.6,4.4c.6-8.1-6,4.7-11.3-1.4-.7,7.1-17.9-1.9-14.3,6.7-3.7-.5-3-5.2-8.2-3l.8-1.5-6.7,1.5c-1.1-1.6,3.7-2.5,2.2-3.7-2.9-2.5-6,10.1-8.6,0-1.3,8.8-25.1-1.5-28,3-.5-.6,3-5.2-4.5-3.3-2,4.4-3.7,1.6-4.9-1.1-.9,0,.4,5.9-8.5,3.7s-.4-2.6-3.8-3.3c-3.5-.9-6.5,2.3-6.5-1.1-1.9,3.3-8.5-.5-10.4-.8-3.9,10.1-4.7,1-11.7,3,9-4.3-13-3.7-9,0-9.3,1.7-6.8-3.6-8.4-5.1s-10-1.1-8.9,1.8,6.9-1.7,6.7,2.6c-5-.9-12.3,1.1-9.8-6-1-.9-7.5-.4-5.2,3l2.2-1.5c1.1,7.6-3.5.4-7.5,1.5-.6-2.9,3.6-1.3,3.7-1.5,3.6-6.5-8.6,1.8-9.2,1.5-3.4-1.4.8-3.2,2.5-3.8-3.2-2.8-7.2,2.2-8.2,1.5,2.7-4.7-10.1-4.5-3-.8-7.3-2.1.9,5.5-6.7,1.5,2.7-1.1,2.9-3.7,0-3,5.9-6.3-5.4-4.4-1.5,2.3-2.7.7-.9-2.4-1.5-3s-4.7,1-3.7-3.8c-1.6,8.8-6.5,3.5-13.5,5.2,16.5-4.5.4-7.9-5.5-4.4-2.4.2-.3-2.2-1.2-1.5-2.6,1.8,3.8,4.7,4.5,2.2,3.1,5.7-10.4,3.1-5.2-2.2-2.7,1.3-7.2-5.6-10.5-3s2.2,3.2,2.2,3.4c0,1.4-20.6.6-9-4.9-5.3-.5-23.3-5.1-7.5.8.3,2.9-12.6-.7-13.2-1-1.9-6.1-15.2-12.9-19-7.9-1.1-.5-4.9-6.1-6-1.9s4.1,1.8,1.1,1.9c-3.8-.5-.6-4.6-1.1-5.2-1.8-1.9-11.7.6-8.3-3.7-.6-.4-3.7,1-5.2.7-3.4-.7,1.8-2-1.5-3-5.2,0-11.8-2-14.6-4.5-.6,0-.3,5.1-1.5,0-2.6,9.1-3.1,2-2.6-3-1.6,3.4-2.6-1.2-3.7-.8-1.3,5.3-1.7.9-3.3-1.2-3.1-2.4-10.4-1.8-8.7-5.6-1.9,1.8-11.1-2.7-10.9-5.3-.5,6-2.6.7-5-1.2-6-2.6-9.5-5.5-16.3-6.8-3.3-8.5-7.1-1.5-6.1-7.8-11,0-9.2-7-12-3,1.8-4.8-4.9-3-5.3-3.7.8-4.8,1.3-4.3-3.8-4.9-2-3.5-1.6-4.2-4.5-1.9-1.2-8.1-7.4-1.6-11.2-12.1-8.6,6.1-3.4-2.5-3.7-3-4.2-.5-4.2-5.1-7.3-5.4-2.9-3-3.7-10.5-8.4-4.3.6-12,.2-6.3-6-6-2.3-4.2,5.4-3,0-5.8-4.1-13.8-2.6-1.8-6.8-2.4,5.4-6.6-.5-5.5-.8-6,1.6-2.3-7.1-12.9-11.2-12,8.2-9.6-5.3,1.8-.7-9-7.6-1-8.8-11.6-12.9-17.1-3.4-6-4.4,1.1.2-2.4-6.9.5-5.5-12.7-11.3-12.4-.8-1.3,2.4-1.7.4-3.4-4.6-3.7-2,2.4-4.9,2.2,7.1-8.3-5.5-15.4-4.1-21.7-.7-1.5-5.5-1.8-2.6-7.5l-2.2,1.5c-3-4.5,1.7-14.5-5.3-9.7.7-3.4-1.8-16.3-6-11.3-.9-4.4,5.3-13.5-4.5-8.2-.3-5.9,11.6-.5,1.1-10.5.6-3.7.4-3.3-2.5-5.8-.8-1.8,5.6-13.9-5.4-11.5.8-2.7,5.2.6,5.8-2.6s-3.3-2.4-3.5-2.6c-.6-.7,2.1-16.4-4.5-15.8-.8-2.3,2-1.2,2.1-1.5-.4-1.4.4-14.7-3.6-11.9-.3-1.1,2.4-5-.7-3,7.4-6-3.1-22.8,3-25.8-5.8-3.1-.7-10.1-1.5-15.4l-1.5.8c2.7-6.9-8.8-5.3,1.3-7.7,3.5-4.3-3.4-12.7,1.7-15.9,0-.8-2.3,0-2.3-.8,0-2.7,2.4-15.2.4-16.1s-2.2,3-1.9.4,3.5-1.7,3.8-1.9c-1.8-3.5-2.1-5.7,2.3-7.1.2-4.4-6,2.5-6.4,2.6-2.7.7,8.9-12.7,1.1-13.5,4.7,2.1,4.2-7.8,7.5-3.7,2.1-2.3-2.9-2.3-3-2.6-.6-1.3,5.4-20.3,1.5-22.8l3.7-.8c-5.9-2.9-.1-3.8,0-4.2-1.5-13.3,6.2-6,0-17.5,1.7-1.8.1,6,3.2-3.6s1.9-.7,2-1.3c-3.7-3.3-2.5-1.8.4-6.5,2.4-7.6,3.4-17.1,7.8-25.9.5-3.2-2-12.1,0-10s-1.5,3.9,2.3,3c-1.4-6.2,6.7-12.7,2.3-17.2,5.2.9,1.9-9.4,6-6.7.5-2-2.7-14.9,2.2-5.2-2.5-6.5,5.7-9.7,3-11-.8-11.1,0-4.8,2.6-7s1.2-5.9,5-4.5c-7.9-5,.4,1.3-1.5-9.7,1.7.3,4.8-2.2,3.1-4.3,2.3-4.6,8-7,4.3-14.4l2.2,2.2c-1.5-5.3,3.3-1,3.7-3.4-2.6-5.1,2-6.5,3.1-6.8,0-4.1,1.9-8.6,4.9-11,1.7-2.8-1-5.6,3.2-2.8-1.8-6.3-.1-1.5,3-4.1-4.4,1.9-3.3-4.6-3-4.9,5.1,1.8,4.7-4.4,4.5-6.7.6-.5,3.3,1.2,3.7.7-3.3-4.1,5.5-6.1.7-9.7,11.7-.6,5.1-4.9,5.3-6.7,2-3.9,10.1-2,6.2-7.1.4-1.8,4.2-.9,3.6-3.3-10.7,1.3.4-2.2,1.3-3.2,2.1-2.3,3.6-11.1,7.7-10.3-5.2-2.3,4.2-5.7,4.5-7.1-1.1-4.3-3.1-4,1.5-3.7.8-3.6,2.1-3.8,5-5.1,3.7-8.7,10.9-15,15.9-18.6-1.9-2.1-3.9,1.3-3-1.1s3.6-.2,3.7-.4c.8-10.9,17-15.1,15.7-24,3.5,3.9,5.3-5.1,6.9-6.6,3.1-1.5,6.6,0,6.1-4.5,3.3-.3,1.5-.7,1.4-3.1,4.1,1.7,2.4,0,4-3.5,2-2,10.2-1.1,3.5-4.7,6.7.6-.7-3.6,6-1.6-3.6-5.6,9.9-9.6,9-14.2,3.5,8.5,6.1-10.3,13.5-7.5.8-3.6-1.4-1.2-2.3-3,6.7.6,4.8-5,5.2-5.2,3.9-.1,5,.7,4.5-3.7,3.6-.4,10.2-6.2,11.2-8.7-3.8-7.6,3.5.3,5.2-4.1,1.2.1-1,3.3,2.3,2.2-.9-7.6,6.1-5.7,7.5-7.5-3.8-5.7,10.4-2.9,12.5-13.5,5.3-4.7,16,0,9.3-6,3.3,1.6,5-5.2,6.8-6.8s4,3,3-2.2c2.7,4.1,4.4-5.1,10-3.7,2.4-1.3.2-2.8.5-3,7.1,1.2,11.3-6.1,18-5.3l-1.5-1.5c3.3-.2,4.1-1.1,6.7.7-3.4-4.3,21.2-9.8,22.4-11.3-1.3-3.6,10.5-1.9,11.3-4.4s-4.6-3.4,2.2-3.7c-7.5,8,13.8-.9,9.4-1.5s-5.1,2-6.4-.7c2.7,1.2,4.6-2.2,4.9-2.3,1.9,1.4,7.6,5.2,6-.7.4,7.8,5.8-1.6.4-2.2,4.6-1.5,2.6,3.6,4.2,4.5s14.2-5.1,10.5-5.3-5.1,5-6.4-.8c4.1,1.5,7.2-3,8.6,2.2-.1-6.5,13.6-5.6,9.4-8.2,2.2-.9.9,1.8,2.2,1.5,2.6-4,9.1-3.3,12.4,0,4.8-4.5,16.7.9,15.7-7.5,2-1,1.3,3.3,3.7,4.4s1.1-2,3.4,0c-1.8-4.5,9-5.3,5.9-.1s-5.7,1.6-5.8,3.2c-.2,2.9,4.4.8.7,2.6,4.9,4,2.5-3,3.8-4,2.8-2.2,4.1,3.5,4.8,3.7,2.4.5,7-5.1,1.1-3.8,4.3-1.1.6-2.9,1.5-4.5s11.8,8.8,9,0c9.7,7.2,4.8-2.6,5.3-3s10.1,2.7,8.2,4.5c-1-3.1-5.4.7-4.5,2.2s6.8,1.5.5,4-14.2-.6-12.6,5.8c-3.1-2.4-1.9-3.2-6-.8,4.7-7.8-1.2-4.6-6-3.7-.2,3,1.1,5.2-3,4.9-2.2,2.2-1.1,4.5-7.5,3.4l2.2,2.2c-6.3-2.7-11.4,4.3-15,0,.9,6.9-6.4,4.2-7.1,4.5-1.3.9-13.8,10.3-10.9,3.7-4.1-1.1-1.8,6.7-14.1,7.6-1.3,4.6-5.7,3.5-9.7,5.3-1.9,3.2-1.5,3.5-4.7,2.1-1.2,6.2-6.8,5.5-9,3,1,4.2-3.4,5.5-6.8,5.6-1.9,5.2-8.7,6.4-12,7.5-3.3,8.2-7,2.8-5.3,6.3-8.4-2.9-3.6-.5-6,3s-1.9-3.2-3-1.5,1.3,2.1,0,3.4c-4.4,5.3-15,4.9-12.9,10.8-2.3-.5-4.7.5-5.3,3.3-4.1,3.1-12,3.5-10.5,10.9-3-6.9-11,10.9-14,6.1-2.6,3.7-3.3,6.8-6.9,5.8,2.4,4.2-8.9,6.1-9,6.8-.3.4,1.9,1.6-1,4.2-5,3-1.8-2.8-5,3.7-4.6,1.3-3.4-.5-4,4-3.8,5.1-15.8,7.6-10.4,9.9-3.4,2.7-11.1,3.1-9,11.3-5.8-3.6-2.8.4-3.9,1.4-6.6,4.4-8.8,4.6-9,12.1-3.2,1-5.8-1.4-5.8,2.8-4,1.2-2.9,2.5-3,5.6-6.9-1.5-4.7,5.4-9.7,4.5l3,2.2c-5.3,1.6-8,9.5-13.5,9.8,5.6,2.8-5,4,1.5,6.7-4.9-4.6-7.5,5.5-9.1,7.3-5.7.5-11.2,11.5-11.8,15.9-2.5-2-5.2,3.3-6,3.7,4.3,6.7-.6,1.9-3.4,4.5-1,3.7,2.7,7.3-2.5,6.1-1.2,4.2-2,7.5-6.2,5.8-1.6,2.4,4.3,3.1,3,4.5-4.3,4.6-2.2-2.2-4.9-1.5-3.2,8.2,2.7,2.9-6.3,14-.6,2.1,3.9,7.2-2.3,1.8,1.2,4.4-2.7,2.8-3.8,4.1-7,8.9,1.9,4.4,2.2,4.9,1.6,2-4.2,6.3-4.5,6-.5-.6,1.2-3.6-1.5-3-1.9,2.9.2,7.1-3.7,5.6-1.6,1.9,2,3.1-3,2.7,5.9.9-5.3,10.5-5.6,11.2-1.5,3.1-2.4,12.3-6.8,13.5-.7,2.8.4,5.3-3,5.2-2.3,2.1-2.8,18.9-6,13.5-5,3,.2,3.5.3,3.8-1.6,6.8-9.1,16-11.7,22.8-2.1,3.2-.7,16-4.7,12.3-.2.4.7,6.6,2.2,6-6.4,4.1,2,3.7-9.1,14.6-1.1,5,2.3.8,1.5,3s-4.5.8-.7,3.4c-6.4-1.8-2.5,6.7-5.3,11.3l-1.5-.8c.4,7-4.3,3.8-2.3,12.2-4,4,1.4.8,0,5.9-3.6,4-3.6,3.4-1.4,6.9-3.2.8-8.1,9.5-4.6,10.6-2.2,8.4,2.4.7,3.7,5.5-10.2.7-.5,10.1-7.5,11.3,0,1.6,3.9,3,3,3.8-9.1-1.3,4.6,9.1-4.5,6.7-.4,5,7,3.2.8,9,9.9,2.4-2.2,4.3-2.2,4.9s3.1,6.1,5.2,3.4c-5.7,6.1,0,3.7-.8,5.6s-4.9-.5-3.8,4.5,3.3,2,3.7,2.8c1.2,2.2-3.2,5.4-4.3,0,.3,3.1.1,3.3-3,3,5.8,3.4,3.5,5.1,8.3,7.9-4.5.2-2.2,7.7-.8,8.6-3.2,3.3-2.7-1.4-3.7-3,.7,1.3-.2,7.5,0,7.9.4,1,1.9-.8,2.3-.4-1.4,3.6,7.7,2.8-.7,4.9-7.1,1.5-4-2.2-3,.7s11.5,1.9.7,4.9c5.8,4.5,5.5,4.4,2.2,9.7l-1.5-3c-6,8.6-1.7-9.6-2.4-11.7-8.7-6.9,4.4,47-1.3,46.8l4.5.8c-4.2,1,4.5,10-1.4,8.2-1.8,3.5,4.3,2,4.5,3.4s-3.4-.6-2.2,2.6c5.9.8,0-3.3,6-3s-1.2,5.4,6,4.5c-7.6,1.3-.7,2.1-2.6,6s-3.8-1.7-4.7-2.4-1.2-5.9-4.9-3.7c-6.4,3.9,4.7,2.7,4.8,6-12.7,1.3-2.5,2.4-1.9,3.7.7,2-2.6,8.6,1.8,5.3.4.5-2.8,4.7,3.7,3.8l-4.5,5.2c9.5-1.7-5.9,8.1,6.7,6l3.8,26.2c6.9-5.7,1.9,13.4,10.5,12,.7,2.9-.8,9.3,3.3,9.9.7,1.3,2.4,9.2,5.6,4.3s-3.4-1.1-3.6-1.4c-1.6-1.6.8-3.9.7-4.1-.8-1.6-3.3-.8-3.7-1.1,6.5-5.8-6.1-6.9-.7-12.7,4.7-2.9,2.9,5.5,3.7,6.9,1.6,2.9,4.3,2.5,4.4,2.8-1.7,6.1,5.8,13.4,9.3,16.5,1.2,2.9-1,9.3,3.5,8.8.4,2.2.9,5.3,3.7,4,.6.7-3.3,5.2,3,1.5-2.8,7.7,22.2,21.2,7.5,21-.5.5,1.4,6.1,3.8,4.2s.6-6,4.8-3.5c6,3.5-3.4,7.8,3.3,9.8-2.8-12,5.6.9,6.8,4.4,1.6,1.7,6.9,0,8,5.9s-4.2,5.3-4.4,5.9c-2.4,7.8,1.1,5.5,4.5,2.6,1.6,4,6.4,6.9,10.5,6.7.3-3.7-3.1-5.2-5.9-3.9-1.6-.7-.6-6.6-3.9-5.2s.5,1.2-.8,2.2c-.5-1-.7-2.6-.7-3.8l1.5.8c.3-9.3,1.8-1.7,2.4-.9,2.8,0,3.7,3.5,2.8,5.3,4.9-2.3,9.3,2.7,10.3,6.8,1.8,1,4.4-.4,4.8,0-.9,3.9,7.8,6,7.5,9.8.2.2,6.1-1.3,5.2,3-16.5-5.2-4.7,2.6-6.7,5.2s-3.2-.8-3,.7c7.6.8,10.2.9,15.7,6.8-1.3-5.6,3.4-.8,3.8-4.5h-8.2c.6-3.5,4.7-.6,4.5-2.6-.4-4.5-9.6,4.7-5.2-3.4l-4.5.7c0-3.7,3,.7,3.7-3,10,3.1,7.8,5.2,13.8,9.5,3.2,2.7,11.2,2.6,8.7,7,3.9.4,16.4,4.9,17.2,10.1,8.7,2.4,26.5,8.7,1.5,5.6,2.1-7.9-9.8-3.3-7.5.7s3.3-2,5.4-1.4,5.7,10.5,5.1,3c3.7,3.6,9.3,3.5,12.7,0,3.2,5.6-7.2,1.1-2.4,5.1s3.9-1.6.9,3.2c7.9-6.3,1.9-.4,5,.7,2.9,1,8.9-4.3,6.3.8,3.4-2.5,4.9,3.1,6,4.5,1.8-1.7,7.8-1.7,4.5,2.3.5.5,7-1.1,9,.8.5,3-4.1.3-1.1,2.9,3.9-3.6,11.9,5.2,12.8-.7,1.9,3.2-4.6,8.6,2.6,3-.8,4.2,2.4,4.4,3.7.8,1.1,7.1,2.4,1.9,3,2.2-.5,4.2,4.8,2.1,5.5,1.6,5.7,6.8,13.8-7.1,14,5.9,4.9-.8.2-2.9,5.6,1.5,2.1-.6-1-6.3,2.2-4.5s1,2.9,1.1,3c.3.2,6.2-3,2.2,1.5,2.8-.3,11.9-1.7,10.1,2.3,5.3-2,6.6,1,10.5,3,.8-5.1,3.3-3.7,1.9,0,1.1,1.7,20.2-1,19.9,3.7.8,0,.2-2.1,2.2-2.2,6.8,5.7,29.4-.8,31.9,8.2,1.1-6.2,11.7-3.3,16.8-3s-.6-3,3.3,0,0,2,0,2.1c2.3-3.6,6.1-1.5,6.3.1.3-2.3,5.4-3.6,4.2-.1,2.4.2,3.6-4.1,5.2.8.5-6.2,3.7-.9,4.9-.7s.3-1.5.4-1.5c1-.2,6.6,4,4.2,0,7.2,6.9,26.3-3.6,28.1,3.8l36-2.3c0,5.2,1.4.4,3.9-.2,2.2-1,7.7,1.9,7-1.3,5.1,4.3,13.9-1.9,20.1,0,4.2.8,20-2.4,28.5-1.5,5.5-.6.9-2.1,1.6-2.2s1.9,1.8,4.3,1.4c8.7-6.1,29.9-1.7,33.3-8.2,13.2,1.1,34.2-8,42.6-7.4,2.5-4.7,8,0,9.9-5.2,2.8-.9,13.2.7,14.2-3.7,2.7,1,7.4.5,7.4-3.2,2.4-.2,6.6,1.8,7.4-1.4.9,3.6,1.3-.7,3.5-1.7,11.6-2.2,20.1-8.7,32-11.5,5.7-2.4,4.6-7.4,6.4-1.8,2-5.3,4.4-2.8,6.2-4,3.4-3.1,6.7-8.1,9.9-4.3-2.4-7.9,32-14.6,27-20.2l2.2,3c.6-6.8,9.9-7.1,12.3-8.9,2.3-4.4-.8-3,4.7-4,0-3.6,4-5.2,6.8-6,.4-6.6,2.5-.8,5.3-1.4.6-1.2-3-4.5,3.7-3.8-8.7-1,13.8-9.9,11.2-15.4,1.1-1,7.8-1.2,3-5.6,6.3,1.4,5-6.3,8.2-1.5-2.9-7.8,12-8.3,4.5-11.2,1.4-.3,10.1-5.6,10.5-6,1.2-1.4-4.7-2.4.8-3.4-.7-2,5.8-14.1,9-8.6-1.4-8.4,17-29.4,19.5-39.7,6,5,1.3-3.1,1.5-3.7,4.6-1.1,6.3-9.9,6.7-14.5,1.3-3.1,4.3-1,3.1-4.9l1.5,1.5c.5-2.8,7.6-34.5,11.2-29,.6-1.2-4.5-9.5,1.5-5.5.7-6.1-3.7,1.5-1.5-6.7l3,2.2c-.4-8.5,0-25.8,9-25.9-6.7-3.1-4.1-8.2-2.6-13.2.8-1.3,4.6,1.3,4.8-3.4.2-3.7-2.5,3.6-3.7,0s3.7-2.5,3.7-3.7c-2.6-5.4-3.4-12.2,3.1-9.4-6.9-13.8,2-16-2.3-20.2,4-.5,1.7-13.3,3-14.3,6.1,3.8,4.7-2.2-.8-1.1-1.6-1.3,7-71.5,0-68.6,5,0-1.2-10.8-.7-11.2,7.1,1.5,0-5.9-1.6-4.9-.2-.4,2.1-.8,2.2-7.4s1.6,0,1.6-1.2c-4.4-.4-.7-2.7-1.6-6.7-.7-2.4-2.1,0-2.2,0-1-2.1,2.3-2.3,2.1-5.4-2.9-4.8-2.8-13.7-3.6-18.1-.5-1.5-2.7-1-2.9-1.2-.8-.7,3.3-1.4,2.2-3s-2.1.2-2.2,0c-1.2-2,2.1-.7,1.5-3-6.6-3.2,0-26.1-7.4-26.8-1.1-3.1-.2-10.4-4.5-9.9,8.1-3.6-.8-1.6-1.4-4.9s6.3,3.5,3.2-3.3-4-2.5-4.1-2.7c-.9-3,2.2-3,2.3-3.7.4-2.5-3.3-.7-3.7-2.3-.7-2.6,3.6-6.1,0-7.8-2.2,12-2-5.2-2.3-5.9-4.1-1.3-7.6-6.5-6.9-10.7-7.6-12,4.1-1.3-1.3-9.2-4.1-4.3-3.6-1-3.7-1.2,1.6-3.9-1.8-4.8-.8-8.2,1.7-1.9,3.6,3.6,2.3-.4s-7.1-4.7-9.3-8.7c-3.3-5.3-1.7-15.3-7.5-15.8-4.9-11.4-14.5-33.7-25.7-40.5.8-6.3-11.6-9.5-11.5-16.2-5.4,2.2-3.2-1.3-6.9-5.8-2.6-3-9.2-4.1-7.3-7.8-1.7.9-8.8-.7-6-4.5-4.7,2.1-4-5.6-8.2-5.2-1.5-1.6,2.4-1.1,1.5-3s-3.7-1.7-3.7-1.5c-.5,1.2,1.3,4.3-1.5,3.7-5.7-7.8-.9-3.9,0-6.4,1.7-4.6-6.4.7-6.7.4s.4-5.8-2.6-4.5,0,5.5-1.1,1.1,4.2-5.2.7-4.9-3.2,4.3-4.5,4.5c5.4-5.9-4.7-16.3-3.5-8,.6,3.9,3.8.2,3.5,3.5-6.1,1.5-9.8-8.2-14-7-.6-.5-.7-2.6-.9-2.8-1.8,1.9-4.1,3-4.7-1.1-4.6-.4-4.5,1.1-4.3-3.4-6.8,2.8,1.3-7.6-8.2-1.5-.3-.6.9-6.5.7-6.7s-5.2,5.5-5.3-.4,3-1.2,1.5-2.6c-4-3.7-4.9,2.3-6.4,3s-3.3-7.1-6.3-1.5c.8-1.5-1.7-5-1.5-5.2.3-.3,7,3.4,7.5.4s-5.1-.8-5.2-1.1c1.1-3.9-2.7-3.8-5.2-2.6,0,.9,5,12.6,1.1,12.3s-.8-2.8-1.6-3c-1.8,1.6-12.4-.3-5.1-2.9,1.2.1,3.2,4.5,6.3,2.2s-6.4-3-4.5-7.5l-2.2,2.2c-1.2-10.5-11.7,7.9-2.3.8,1.7,8.9-9.1,1.1-6.8-3,3,6.4,7-3.2-2.8-2.5-1-1.1-10.8-5.4-6.2-5.8-2-1.1-1,1.8-2.2,1.5-2.1-4.8-4.7-7.6-6-.7,5.4-2.9,6.8,6.1,12.7,5.3-3.2,4.8-15.1-5.7-19-7.7s-7.3,1.5-6.5-4.3l-3.7,2.2c4.1-6-1.2-1.4-1.5-1.5.8-4.3-3.4-.8-6-2.3-1.4-1,.8-1.7.7-1.8-3.7-5-2.9-1.5-5.9-.4,1.6-7.2-25-.6-19.5-9-1.8-.5-8.9,2.6-9.3-1.5-.9.8-2.3,3.9-1.9,0-2.4,3-9-4.2-4.5,4.5,1.4-3.8,1.6-1.2,4.5-2.2,2.8,8.7,7.1-2.7,11.1,6,15.4-2,4.8,6.7-4.3,1.5l2.2-2.2c-3.2-.6-3.4.3-5.2,2.2,0-4.2-10.1-3.6-13.3-4.3-5.8-1.8-6.5-5-9.2-.9-4.9-5.6-20.1-2.4-25.9-6.8-3.2-.5-2.5,1.7-3,1.6-1.1-4.4-5.6-.4-8.9-1.5-2.2-.8-5.6-13.7-6.5,0-2.2-1.7-6.4-6.7-8.2-1.5l3.7.7c-5.2.2-3.5,4.6-6.7-1.4.2,0,5.3-1.3,3-3.8-3.2-2.2-12.5-1.3-10.5,2.2-2.6,1-4.6-3.1-7.8-2.2s-1.5,6.9-5.2-1.5c1.1,5.6-1.4,4.3-2.9.9-1.5-.4-6.6,1.3-8.3,1.3-3.7-1.7-8.1-2.5-7.1,2.9-3.9-5.9-9.8.1-16.5-3l-1.5,3c3.1-4.6-3.5-5.7-3-1.5.6-3.1-15.1-2.9-11.2.8-6.9.9-17.6.6-24.8,1.1-1.6.1-1.3,1.9-1.4,1.9-8.2-6.2-.2,5.4-4.8,4.4-2.9-1.5-1.7-5-1.9-5.2-.5-.4-12.1.2-9,3.7-.8-3.9-8.9-.9-7.5,3.7-2.5-2.2-2-4-3.7,0,.6-5.1-4.6-.7-4.9-.8-.9,0-.5-2.7-2.2-2.2-2.5.6-1.3,6.2-5.4,5.8s-1.5-2.4-3.6-2.9c-5-1.2,0,2.6-3.4,2.3.5-6.5-6.6-5.2-1.5-.7-6.9-2.4-3.4.7-3.7,1.5s-6.6-2.7-5.3-5.2c-2.5,5-4.8-1.2-4.5-1.5s4.5,1.2,3-2.6c-2.1-5.5-2.7,2.5-4.5,1.8,2.6-5.7-6.8-7.2,0-7.5-1.1-3.8-4.2-4.3.7-5.6-2.3-2.2-.7-4.5,0-6.3-6.3,2.3-2.6-5-.1-6.4,1.3-3.5-3.5,1,1.4-5s0-2.3.3-2.6c3.1-2,5.1,1.8,4.4-2.4,2.4,1.5,5.7-2.2,4.5-4.5,2-1.7,6.1,4.6,3.8-.7,3.5,1.2,6.8-7.5,12-.8-1.3-3.4,4.7-.9,6.7-3,3.1-3.2-6.4.3-6.7,0-1.4-1.2,10.2-6.2,12-5.2l-3,3.7c12.2,0,3.4-4.5,5.3-6.7s13.4-2.1,6.4,3c8.6-.6-2.7-9.8,15.4-2.3-4.1-8.3,7.6-4,9.7-4.5,1-4.2,8.4-3.3,12.3-2.3,3.7.6,2.9-4.5,4.1,1.5,1.2-8.6,30.1-1.3,26.6-5.2,2.7,0,9.5,2.8,10.9-.9,2.2,3.7,2,2.7,3.3-.2,4.6-1.5,9,4.6,10.5.1,3.8,4.6,7.9,1.9,14.8,1.5,3.2,0-.2-1.6,1.6-1.5,1.7,2.2,2.1,1.3,4.9,1.5-1.4,7.8,4.2-1.7,7.4,0l-2.2,1.5c6.9.1,3.1,6.6,10.5,1.5.4,4.4,5.3,3.1,7.7,2.9,1.9-.7.2-3.5,2.7-2.9,11.1,6.3,40.3,7.5,57.3,13.6,16.5,3.3.3-1.6.7-1.5,2.1,4.1,15.2,1.4,14.6,5.2.4,0,2.6-2.7,3.7-2.2.6,5.8,9.8.8,7.5,8.3,0-9,15,3.1,22.5,1.5-1.9,1.6-3,.6-2.2,4.5,3.7-5.5,6.4-2.6,11.3.4,1.7.9,11.8.2,9,4.2.3.2,13.6.8,13.2,4.4,3.4-.4,3-.9,4.8,2,6.7-1.9,11,7.3,17.9,4.5,6.8,9.9,22.9,7.9,24.8,16.8,3.6-.5,4.2-2.8,5.2,2.6,4.7-1,8.1,5.3,11.8,7.7,6.3-.8,5.6-1.9,4.8,3.9,7.5-4.5.5,9,15.7,6-2.6,3.5.2,6.4,3.7,3.7-.6,6.6.4,3.1,5.2,4.5l-3,2.2c7.3-1.9,2.3,6.7,10.5,3.8-.7,1.4-1.3,4.3,0,5.2,2.3,1.7.8-5,3-3s2.6,4,.8,5.2c5.9-2.2,2.8,1.2,3.9,2.2,5.1,4.8,1.8,3.8,2.9,5.3,8.4-4.3.3,4.5,7.5,2.9.2.2-.2,2.8,0,3,3.8-2.6,7.2,7,10.5,5.2l-4.5,1.5c3.8,1.2,2.7,4.8,3,5.2,8-3.2,8.4,8,4.5,5.2,1,1.3,7.1-.2,7.9.7,3.9,4.8-3.7,1.1-4.1,1.5-1.4,1.2,5.8,10.7,10.5,6.8-10.5,2.7,15.6,20.2,15,27l1.5-3.7c-2.2,8.8,25.7,31.2,19.5,32.2,1,1.1,3-5.9,6.7,2.2h-6.7,3.7c-3.2.6,1.2,3.4,3,3.7-.4,3.3-4-2-1.3,4.3s5-.4-.2,3.9c5.5-2.5,4.6,4.8,7.1,4.5s1.8-5.1,2.6-1.8c-.2,4.4-6.3,3.5.8,7.6.9,7.6,2.3,6.7-4.5,8.9-.2,5,10.6-4.8,10.5.7s-4.5,3.5-6.8,4.1c5.2.6-.5,10,0,10.5,1,1,11.8-6.8,3-4.5,3.6-2.9-1.8-1.3,0-3.7,2.6-3.5,9.1,1.3,8.2,4.1s-4,.4-3,3.4c-1.7-5.6-6.2,1.9,1.2,1.6s3.5-3.9,3.1.7c-.7,6.6-2.4,1-4.2,0l-3.8,6c10-1.3,12.5-5.6,13.1,6.8,4,1.3,5.3,11.8,1.5,12-5.6-5.4,6-5.9-3-10.5-.3,0-.7,7.4-4.1,4.5s3.1-3.5,3-4.1c-.3-2.3-2.7-2.3-2.9-2.7-.6-1.1,1.4-3,0-4-4-2.7-7.1,3.6-6.8,4.1.5,1,4.2-3,6-1.5,2,2.2-7.5,5.5-.8,5.3-1.9,5.6,1.6,6.5,5.3,5.9-1.3,2.1,1.6,7.1,2.2,9-1.6,2.5-5.8-11.5-6.7-6.4,2,8,8.5,8.4,4.5,19.1l2.2-1.5c-2.1,13.7,7.9,13.1.7,20.2,5.3.4,6.3,15.8,7.9,18,1.3,1.7,4.1-2.7,4.9,1.9s-5.4-2.4-6,0,2.2,3.7,2.8,6.9-1.5,2-1.3,2.4c7.8,2-4.2,3.1,4.8,9.2,1.7,3.1-3.9,15.5,1.3,15.3-3.4,3,1.7,8.6,2.9,9.4,1.3,2.6-2.6,0-3.4,2.2s-.3,7,3.4,4.5c.7,2.5-2,1.1-2.2,1.5-1.6,2.3,3.7,2,3,5.7s-2.1,1.5-2.2,2.3c0,3.5,4,4.5-.6,5.2-1.7,5.4,2.6,2.3,2.9,2.5-2.5,9.2,2.6,3.2-.7,8.6,8.7,9.4-7.2,6.4.7,8.6,1.7,3.7-3,.9-3,3.4,7.8,5.4.9-3.4,8.2-3.4,1.2,2.4-2.9,3.5-3,3.8,2.5,3.5,1.2,5.1-2.3,4.8,7.6,3.8-1.2,8.1,4.7,7,4.9-1.5-5.3-7.7,5-6.6-10.7-7.2,6.6-16.9.7,3.4-3,2.4.5,4.2-.5,7.8-3.2,4.7-3.2-5.7-6.3.7,4.1-2.2,1.4,1.8,2.3,3,1.8.5,2.1-3.1,4.5,0,1.6-8.3,2.7-1.6,2.3,3-6.7-6.2,0,5-6,1.5,8.9,8.1-4.8,3.1,2.9,7.9,1,6.2-2.1,4.5-2.1,4.8.5,1.7-.7,12-3.4,6-3.2,2.2,6.8,4.2,6.4,6.4-1,4.3-3.9-2.7-5.2-1.1-2.6,3.2,6.2,4,3.7,8.9s-4.1-1.2-4.4-.6c-.7,1,1.2,4.5-3.7,5.6,10.4-2.6,5.5,13-1.5,10.2,1.6,3.5,1.6,9.5-1.6,11.6-.4,2,2.1,0,1.5,2.9s-2,.8-2.2,1.7c2.6,3.7-5.6,11.6,0,13.8.5-19.1,7.4-.2-2.9,1.9-1.2,1.7.9,1.7.7,2.2-3.9,1.4.6,2.7,1.5,4.6.4,1.8-1.4.2-1.5.4.8,6.2-2.3.8-4.5,1.5-1.8,3.2,2.9,5.2,3,5.6-2.7,1.2-3.4,8.8-1.5,10.1-1,1.5-8.6-1.1-6,4.5l1.5-3c-.9,4.4,1.9,2.4,3.8,4.5-3.8.4-6.9-3-3.7,2.2-1.4,1.2-2-3.2-3-1.5s-5,11.3.7,8.3c-2.5,11.7-2.5-1.2-4.9,2.2-2,2.9,1.7,2.7,1.1,4.5-5.3,2.8.7,9.2-6.4,9.7,0,3.1,1.3,1.9-1.1,3.8.1,1.3,3.3-1,2.2,2.3-6.3-2.3,1.8,1.8-4.5,4.1l1.5,6.4c-7.3-11.8-2.1,10.2-6.7,5.3,2.4,2,2.9,3.4-.1,4.9-.3,2.2,4.7,2.5,1.5,5.6s-.7-2.8-2.6-2.2c-6.7,5-3.9,5.8-1.2,10-.7,3-7.7.1-5.1,3.5s2.7-2.3,2.2.7c-7.2,0-6.8,12.5-9.2,17.1-2,2-9.3,19.7-11.8,15.9-1.4,1.6,2.1,1.3,1.5,2.2s-3.6,2.3-4.2,3.2c-7.3,9.1-19.1,32.9-28.8,34.4-1.1,2.4,3,.9,2.2,2.2-5.8,2.5.4,6.2-6.7,3,3.6,4.2-2.7,7.2-5.8,10,0,4.9-6.5,5.2-6.9,3.6.5,8.9-3.2,2.9-4.5,10.5-2.6.6-.6-4.4-3.8-1.9s1.8,5.7-1.1,5.6,0-5.3-3.4-3.4c-6.9,4.3,8.8,5.2-2.2,7.9,1.7-9.2-3.6.1-2.3,2.3-.4.5-3.9-2.1-6,0,3,1.2,3.4.7,3.7,4.5-7.2-7.6-5.9.2-6.8.8-2.2,0-4-2-3,1.5-3.3-1.8-3.1,3.6-8.3,2.3-.3.3,2,4.4,2.3,4.5,1.5-3.5,6.4,0,2.2,1.9-2.1.8-3.8-1.9-4.1-1.9-.8,0,0,2.2-.4,2.2-5.2-2.4-6.5,3.9-10.2,6-2.4,1.3-6.4-3.7-1.8,3-8.6-2.3-6.1,6-12.6,5.4-2.2,2.6.4,3.2-3.1,2-.4.2,0,4.1-5.2,3l1.5,1.5c-4.3-.4-3.5,2.9-3.8,3,0-1.4-8.8-3.5-6.9.7-8.1-1.6,0,3-3.2,5.3-2.4-6.1-1.7-.6-3.9,0-3.1.7-5-3.5-6.3,2.3,2.3-.7,7.1-2.7,8.2,1.5-9.3-3.3.7.6-8.2,3.8.2-1.9-.4-4.1.1-5.8ZM710.6,333.6c-1.3-.5-4.7,3-6,3.7,3.5.6,10.8,1.2,6-3.7ZM549.5,381.6c-2.5-.7-5.9,6.8-5.2,7.5,1.7,1.7,4.3-5.6,5.2-7.5ZM863.3,412.6c-.7,0-3-2.3-4.6-.3-3.2,3.9,14.9,5.3,15.4,4.5,1.5-2.4-3.8-2.1-4-2.2-1.6-4.5-1,1.7-6.8-2ZM877.8,412.3c-3,.3-4,5-1,5.8,4.3,1.2.8-3.7,1-5.8ZM893.6,418.3c-.6-.6-18-4.1-12.3.7s15.6,2.7,12.3-.7ZM506.7,417.6c-2-2.8-6.3,1.8-4.5,3.7s5.4-2.5,4.5-3.7ZM495.5,428c3-3.2-9.8-3.6-6.7,3,1.4-5.1,6.5-2.7,6.7-3ZM1025.6,463c-.4-.2.3-1.5-.9-1.2l.7,3.7.7-1.5c-.2,3.8-.2,4,3.7,3.7-1.6-2.2-2.5-3.7-4.3-4.8h.1ZM413.8,510.5c-3.9,3.7-3.6.6-4.9.8-4.1.4,5.1,7.7,4.9-.8ZM286.3,822.3c-2.3-2.1-3.5,4.7-3,5.2,1.8,1.9,5.5-2.9,3-5.2ZM287.6,875c-6.6-6-3.3,10.8-2,2.1.5,0,7.5,3.2,2-2.1ZM295.6,941.3c-.4-4.4-1.1,0-1.7,1.2,0,0,3,6.5,3,6.5.4-5.1,1.6-4.1-1.3-7.7ZM299.1,951.3c-2.2-2.3-4.9,5.4,3,5.3-2.6-1.7-2.8-5-3-5.3ZM362.1,1007.5c-3.3-1.4.3,7.4,3,6,.5-1.4-2.7-5.9-3-6ZM327.5,1017.3c-3.7,1-3.3-6.6-4.1-7.6-3.6,0,.7,5.4.4,6.7-7.2-5.2,1.8,5.9,3.7,2.9s.1-2,0-2.1h0ZM402.4,1046.6c-10.2-4.3-4.8,7.7-1,2.2,2.9,5.3,3-.1,1-2.2ZM422,1072.1c-6.1-2.5-1.4,4.3,2.7,4.4s5-6.1-.8-4.5,0,3.6-1.9,2.3c-1.9-1.4.3-1.9,0-2.2ZM432.5,1075c-2.7-2.2-11.2,4.6-8.2,9,.9-7.3,2.2-3.1,3.3-3.9s2.1-3.6,3.4-2.9c3.3,5.6,1.4,3.2-3.3,4.5-4.9,4.1,8.2,3.7,9.1,2.9,3.7-3.4-6.6-3.7-4.3-9.6ZM375.6,1084.7c-1.7-1.7-5.9,1.7-3,5.2s3.4-4.8,3-5.2ZM458.8,1100.4c-4.3-9.9-6.2,2.4-.8,3.7,3.1-1.2,4.9.4.7,2.3,10.5,4.4,4.7,1.5,5.2-1.9,5.3-7-1.5-3.8-5.1-4.1ZM474,1105.4c-.3-4.2-4.3-2-7-2.7,1,2.6,13,9.8,7,2.7ZM962.5,1174.7c.2-.2-1.2-4-1.9-4.5-1.3,3.9-3.2,2.8-3.3,3-2.1,3.1,5,1.8,5.2,1.5ZM542,1185.9c-.3-.3-6.9-2.1-5.3,1.7,1.2,2.7,7.3.6,5.3-1.7Z"/><path d="M325.3,861.3c9.7-.6-3.9,13.3,3.7,12.8-3.2,8.5,1.7,6.1,2.3,6.7-3.1,4.2-.5,12.4,1.9,15.7.2,1.2.6,12.4-1.9,9.1s.2-2.7,0-3c-7.8,3.5-.6-3.2-5.2-4.1-.3-2,2.8-2.6,1.6-4.4-7.6-3.9-.2-3.5,0-5.6-1.4-2.2-8.1-12.2-2.3-8.3.4-.4-1.9-13.9-4.5-12,3.8-2.5,4.7-2.6,0-5.2,1.4.6,4-1.5,4.5-1.5v-.2Z"/><path d="M696.4,598.2v125.9l128.2-.4v-125.6h12.7v125.9l125.9.7v12l-125.9,1.1v127.8h125.9c16.7,25.8-120.1,7.5-125.9,12.7v124.4h-12.7v-124.4h-128.2v124.4h-12.7v-124.4h-125.9v-12.7h125.9v-127.8l-125.9-1.1v-12.7h125.9v-125.9h12.7,0ZM824.6,736.8h-128.2v129h128.2v-129Z"/><path d="M748.1,318.6c10,9.1-10,1.4-7.5,8.2-.6.3-1.8-4.1-4.5,0,12.5,0-8.3,9.8-1.6.8-11,.3-2.9.1-6-3.7,0,3.8-2.9,9-.8,10.5-3-1.1-11.9,7-8.9-1.4.3-.2,5.4,1.3,6.6-2,2.1-5.7-2-4.5-2.1-4.8-2.5-4.1,11.2-2.6,12.7-3l-.8-1.5c7.4-.5,8.1,3.3,12.9-3.1Z"/><path d="M347.3,957.1c.9.9,3.1.9,4.3.9-.5,2.2-10,4.3-1.9,3.7,6.4,23.2-12.2-2.5-3.4-9,.1,1.3,0,3.5,1,4.4Z"/><path d="M805.9,328.3c-2.2,5.9-19.7,7.5-11.6,0,2.5-1.1,1.2,1.5,1.5,1.5,3.3.4,1.4-2.1,1.9-2.2,2-.6,5.5,2.1,8.2.7Z"/><path d="M1234.6,760.1c-1.7-.2-5.8,2.4-5.3-.7,10.4.3.1-6.8,5.3-6.4-2.8-9.5,10.7-1,0,7.1,8.8,1.2,0,7-1.5,4.5s1.3-4,1.5-4.5Z"/><path d="M1236.1,722.7c-3.2,3.9,6.2,16.3-3.7,15.8,1-2.7,4.7-5.6-.8-6,4.7,2-.8-14,4.5-9.7h0Z"/><path d="M791.6,416.8c2.6-3.8,16.4-.7,21.7-.4l-21.7.4Z"/><path d="M339.6,929.5c-3.9,3.4,6.2,10.5,2.6,13.3-3.2,1.1-1.8-3.3-2.5-4.8-2.9-6-7.7-7.3-.1-8.5Z"/><path d="M479,500.8c2.2,2.2-13.7,9.3-7.3,1,.9-1.2,7-1.2,7.3-1Z"/><path d="M335.8,918.3c2.3,1.9,0,5.6,0,6s4.2,3.5,2.9,4.5c-6.3,3.7-5.2-10.6-2.9-10.5Z"/><path d="M732.4,417.5c-.7,5.5,4-2.2,6.8,3.7-16.1,2.5-7.4-4.2-6.7-3.7h-.1Z"/><path d="M750.4,329.9c-.6,3.7,10.4.6,5.2,5.9-4.2,4-5-5.1-9.7-1.5,1.7-.6,3.1-5.2,4.5-4.4Z"/><path d="M927.3,432.5c.7.3,8.4-.4,7.4,2.5-2.3,6.1-2.6-4.4-6.6,1.3,3.4-2.3-11.1-5.7-3.4-6.8,3.8-.6,2.4,2.9,2.6,3Z"/><path d="M1226.4,677.7c1.1,11.5-.7,11.8-3.7,0,.8,0,3.5-.2,3.7,0Z"/><path d="M1230.9,697.2c1.2,1.5,3.9,12.8-2.2,9.7,4.3,1.6-2.3-15.2,2.2-9.7Z"/><path d="M852.2,329.9c4.2,2-8,4.4-7.4,1s6.7-1.4,7.4-1Z"/><path d="M1233.9,747.4c-.2-.6,2.5-4.2-.7-4.9,8.9-4.8,2.2,9.2.7,4.9Z"/><path d="M813.3,327.6c1.3,1.2-1.7,1.9-2.2,2.7,0,9.4-9.7-3.8,2.2-2.6h0Z"/><path d="M755.5,420.4c-2,1.3-6.4-.3-4.3-2.8s8.1.4,4.3,2.8Z"/><path d="M743.6,417.5c-2.1,5.8,7.5-2.5,4.4,2.9-3.2,4-13-5.1-4.4-2.9h0Z"/><path d="M833.1,327.3c3.5,1.9.5,2.6,2,4s5.9-3.5,3.7.4c-3,5.9-10.3-8.5-5.7-4.4Z"/><path d="M523.2,1125.9c-9.2,2.5-.3-1.9-7.5-2.6,2.6-1.3,7.9-.6,7.5,2.6,1.4.3,4.6.9,5.2,2.2-4.5,2-11.7,1.1-5.2-2.2Z"/><path d="M724.1,331.3l-6-5.2c4.5-.2,7.6,0,6,5.2Z"/><path d="M1216.6,643.2c.2.4,0,9.5-3,6s1.3-8.8,3-6Z"/><path d="M722.6,422.8c-.3.2-5-1.2-6.7.7-2.3-5.6,8.8-2.6,6.7-.7Z"/><path d="M787.9,1211.4c2.9,1.2-5.7,4-6,3.7-2.5-2.6,4.2-4.5,6-3.7Z"/><path class="cls-1" d="M432.5,1075c-1.9,6.1,7.9,5.7,4.3,9.5-3.5,3.1-14,1.3-9.1-2.9s4.6.2,4.8,0c-.6-4-2.2-6.4-4.9-1.6-1,.8-2.4-3.4-3.3,3.9-3.1-4.4,5.8-11.4,8.2-8.9Z"/><path class="cls-1" d="M458.8,1100.4c3.1-1,11.4-1,5.1,4.1-.4,3.4,5.3,6.3-5.2,1.9,4.5-2.2,2.4-3.5-.7-2.3-3.2-3.4-3.2-13.1.8-3.7Z"/><path class="cls-1" d="M863.3,412.6c1.1.1,2.9,1.9,4.4,1.3,3.3-3.3.8-.2,2.3.7s5.5-.2,4,2.2-18.6-.6-15.4-4.5c3.3-4,3.8.4,4.7.3Z"/><path class="cls-1" d="M893.6,418.3c3.2,3.4-10.3,2.4-12.3.7-5.7-4.8,11.8-1.3,12.3-.7Z"/><path class="cls-1" d="M474,1105.4c6,7.1-6-.2-7-2.7,3.3,1.1,6.5-1.6,7,2.7Z"/><path class="cls-1" d="M327.5,1017.3c1.7,8.5-12.1-6.5-3.7-.8.3-1.4-3.9-6.9-.4-6.7,4.7.6-1.6,9,4.1,7.6h0Z"/><path class="cls-1" d="M422,1072.1c0,3.9,1.5,1.9,1.9-.2,5.8-1.6,1.6,4.5.8,4.5-4.3,0-8.7-7.1-2.7-4.3Z"/><path class="cls-1" d="M402.4,1046.6c3.3,3.2-.2,7.2-1,2.1-7.5,3.1-6.1-5.9,1-2.1Z"/><path class="cls-1" d="M295.6,941.3c2.9,3.6,1.6,2.6,1.3,7.7l-3-6.5c.6-1.2,1.3-5.6,1.7-1.2Z"/><path class="cls-1" d="M710.6,333.6c4.1,5.3-2.2,4.1-6,3.7,1.3-.8,4.6-4.2,6-3.7Z"/><path class="cls-1" d="M287.6,875c5.6,5.2-1.7,1.9-2,2-1.4,9-4.4-8.3,2-2Z"/><path class="cls-1" d="M877.8,412.3c-.2,2.1,3.3,7.1-1,5.8s-2-5.6,1-5.8Z"/><path class="cls-1" d="M549.5,381.6c-.9,1.9-3.5,9.2-5.2,7.5s2.7-8.2,5.2-7.5Z"/><path class="cls-1" d="M542,1185.9c2.1,2.3-4.1,4.4-5.3,1.7-1.7-3.8,5-2,5.3-1.7Z"/><path class="cls-1" d="M286.3,822.3c2.6,2.3-1.1,7.2-3,5.2s.7-7.3,3-5.2Z"/><path class="cls-1" d="M962.5,1174.7c-6.7,1.4-7.2.2-1.9-4.5.7.5,2.1,4.3,1.9,4.5Z"/><path class="cls-1" d="M1025.6,463c1.8,1.1,2.8,2.5,4.3,4.8-3.9.3-3.9,0-3.7-3.7l-.7,1.5-.7-3.7c1.2-.3.5,1,.9,1.2h-.1Z"/><path class="cls-1" d="M413.8,510.5c.2,8.5-9,1.2-4.9.8s1,2.9,4.9-.8Z"/><path class="cls-1" d="M299.1,951.3c.2.2.4,3.6,3,5.3-7.9.2-5.2-7.6-3-5.3Z"/><path class="cls-1" d="M506.7,417.6c.9,1.2-3.5,4.8-4.5,3.7-1.8-2,2.4-6.6,4.5-3.7Z"/><path class="cls-1" d="M375.6,1084.7c.4.4-1,7.7-3,5.2-2.9-3.6,1.3-6.9,3-5.2Z"/><path class="cls-1" d="M362.1,1007.5c.3,0,3.6,4.6,3,6-2.7,1.5-6.3-7.3-3-6Z"/><path class="cls-1" d="M495.5,428c-.3.3-5.4-2.1-6.7,3-3.1-6.6,9.7-6.2,6.7-3Z"/><rect class="cls-1" x="696.4" y="736.8" width="128.2" height="129"/></svg>