<?xml version="1.0" encoding="UTF-8"?><svg xmlns="http://www.w3.org/2000/svg" viewBox="0 0 1518 1518"><defs><style>.cls-1{fill:#fff;}</style></defs><g id="Layer_1"><path class="cls-1" d="M1518,0v1518H0V0h1518ZM795.4,322.3c-2.8-2-9.2,2.4-7.5,4.5s7.5-3.6,7.5-4.5ZM746.6,325.3c-1.8-1.1-1.5,3.9-4.9,4.5s-2.8-1.5-3-1.5c-.9,0,.5,1.6-1.5,1.5s-.9-2.1-1.5-2.2c-2-.2-4,3.7-5.4,3.6s-1.4-2.1-2.2-2.2-11.9,3-10.1,4.5,2.8-.2,3,0c1.5,1.8-3.5,13.4-1.5,1.9l-6-.4c12.3,6-3.1,7.6.7,11.2s5.1-5.4,9-3c-2.6-.8,2.7-18.6,1.5-7.5h8.2l-2.2,4.5,7.5-4.1-5.2-1.1c3.6-5.8,3.3-.2,4.5-.7s-.4-2,.5-2.3c1.3-.5,9.5-1.9,10-1.4l.7,4.5c-1.4-2,1.6-5.3,1.5-5.6-1.1-2.3-5.1-1-3.8-4.1h.2ZM838.1,333.6c-4.2,2.6-9.1,0-13.1,0s1.4,3,1.6,3c1.1.1,8.6-1.7,11.5,0v-3ZM262.4,946.8c.2-.2-.3-1.4.1-2.2s1.9.3,2.2-.5c2-6.2-2.4-8.1-4.2-1.1l-1.1-1.1,5.2-9.4-3,.7,1.5-2.2c-10-2.2-.6-1.1,1.1-1.5,5.1-1.1-.6-2.9-.9-3.3s0-1.9-.2-2c-2.7-1.2-6.4,3.6-7.4,2.9s-.9-4.1.5-4.6,4.5,1.1,4.7.8c.8-.9-1.2-6.5,0-8.2l.7,4.5c6.3-1.8.4-1.2.7-6.4s3-4.2,3-4.5c-.1-1-4.6-.8-.7-3.4-1.1.7-9.8-5.9-9-6.8.8-.9,4.7,4.5,3.7-1.5h2.2v4.5c.9-3.7,2.9-2.8,3-3,1.2-2.7-8.5-4.2-3-10.5s1.5,3,3,1.5-6.1-3,.7-6.4c.3-2.4-1.6.4-3-.7-2-1.6,2.1-3.9-3-4.2,5.8-.9,9.6-4.4,2.3-7.1,10-2-3.7-7-.8-9.4s5.5,2,3.7-3.7-2.1,0-2.2,0c-.8-2.4,3.1-6.7,4.5-1.5-4.8-11.4-2.4-4.7-.8-8.7s-1.8-6.7-1.4-7,2.1.9,2.2.8c.3-.4,1-4.8,2.2-6l-3,1.5c2.8-3.8-.7-7.4-.7-7.9s1.9-.9,2.1-1.3c.4-1.4,1.5-7.7,1.7-8.1s3.3.3,3.7-1.2-2-1.9-2.2-4.4c-.4-4.2,3.5-3.2,3.7-3.4,1.1-1.3-1.4-4.7-1.3-5,.5-6.6,3.3-11,3.6-16.7l1.4.6c2.7-3.8,3.1-7.4,1.6-11.9l5.2-1.1c-5-1,0-.9.7-3.1s-2.1-2-2.1-2.9,5.4-8.3,3.7-10.9h2.2l.7,4.5c-.4-6.3,0-6.3,3.7-10.5.8-1.2-3.5.2-2.2-2.6,0,0,3-.4,3-.4-7.4-5.2-.3-4.1,0-4.5.5-.6,1.7-13.7,2.2-14.2s2.4.5,3.7-1.1-2.2-.6-1.5-2.6,1.7,0,2.1-1.3c.8-2.5,1.3-7.9,2.2-9.8s8.5-9.2,6.9-10.7-5.5.6-1.5-3.7,2.9,3.3,3.7,1.5-1-2.3-.7-3.3c.8-2.9,3.8-12.4,4.8-14.7s2.7-.8,3.1-1.5c.7-1.5-.4-3,0-3.8.8-1.6,3.6-2.6,3.9-3.1,2.4-4.6,4.9-10,7-13.9s8.1-11.9,3.7-11.1c3.2-.8,2.6-2.5,3.7-3.8s2.1.7,2.3.4c.4-.6-.5-5.4,2.6-6.7-1,7,9.1-1.7,5.1-3.7l-4,1.4c-1-9.3,5.8-4.7,6.8-12,5.4,8.1,2.6-1.4,2.9-2.5.9-2.4,9.2-9.3,7.5-11s-3.7,2.5-3-1.1c3.9-7,5.1,1.6,8.3-1.1s-4.6-1.9-3.7-4.5c5.5.4,4.8-4,6.9-7.4s2.3.3,2.9-.6c1.3-1.8-.7-4.5.2-6.3s4.2-1.7,4.9-2.3-2.4-.5-1.5-2.6,3.9-4.5,4.6-5.5,1.9.9,2.1.6c.6-.8,2-7.1,3.3-8.8s8-4.6,6-7.7c5.7-.4,4.1-4.5,6.4-6.9s2.6-.8,3.6-1.5.4-2.7,1.3-2.8-1.4,3.6,4.1.7c-4.3-.8-3.8-2.7,0-4.5l-2.2-2.2c5.9-.4,9.9-10.9,15.7-11.3-3.6-2.7-2.4-3.9,1.9-6.7s4-2.4,4.1-2.2c2.5,2.6,1.2,8.6,1.5,9,2.5,2.6,5.7-2.4,6-2.6.7-.6,2.7-.2,3.4-1.1,2.6-3.3-6.5-.2-4.9-4.5-2.5,8.7-6.8-2-4.4-5.2s2.4.3,3.4-.8.9-3.5,1.2-3.7c1.1-.7,5.3,1,6.7-2l-3.7-1.1c7,.7,1.9-2.1,2.6-3,1.1-1.3,3.5-.4,4-.9,1.2-5.8,2-5.3,6.9-6.6.2-.3-6.2-4.7,2.2-3.7,8.4,1-.9,2.6,1.1,2.2,6.6-1.2.6-2.8.5-3-1.4-4.7,1.8-3.5,2-3.8.6-.8-.2-2.4.9-3.3s4.5-1.1,6.3-2.5,0-2.5.9-3.2,6.5-2,7.5-2.8c1.5-1.3,4.6-8.4,5.6-9.4s10.3-5.1,11.1-6.6-1.1-2.9-.6-3.6,8.1-2.2,10.3-3.9,0-2.3.3-2.6c1.3-1.1,3.2-1.3,4.3-2.1s.4-2.8,1.5-3.7,5-1.3,5.2-1.5c2.3-1.9,9.5-12.5,12-8.7.5-1,1.3-6.5,1.5-6.8s3.1.4,4-.2c2.1-1.3,7-3.8,7.9-4.5s0-2.6.8-3.3,4.3,0,4.6-.3-.4-2.7,0-3.2c3.3-3.8,6.2-2.1,10.3-5.2s0-2.7,0-2.9c.5-.5,5,1.4,4.5-3,0,0-3,.4-3,.4,3.1-4,8.1-.5,6.7-6.4,6.9,5.2,3.4,0,9.7,0-3.1-5,8.4-5.6,12.7-8.7s2.2-4.3,3.8-5.2c1.4-1.3,12.1-.2,9.8-4,1-.5,2.7.2,3.2,0s.6-1.3,3.7-3,.3-2.1.5-2.2c1.4-.8,3.5-1.2,6.5-2.9,2.7-2.1,14-2.1,9.8-6.2.5-.4,3.5.4,4.1,0,.9-.5.2-2.2.4-2.3.7-.3,4,1.4,6.9-.8s1.1-6.6,5.1-5.2-1.3,2.3,1,2.1,8.8-4.2,11.4-5.1-.6-1.4-.4-1.5c1.8-.6,9.2,3.2,8.3-5.3,0,0,2.2,0,2.2,0,.2,7.7,2.7.4,3.4,0s2.2.9,3.5.6,1.6-2,3.2-2.2,10.6,3.3,2.7-.7c6.8.7,5.6-1.9,8.2-4.2s3.5-.1,3.8-.3c.4-.4-.4-4.7,0-5.2s7.7,1.4,9.7-2.2l-2.2,7.5c.6-2.3,2.9-3.2,5.2-2.2s-2.2,2.8.7,2.2l1.2-5.2,15.1-1.7.6-2.5-1.6-1.8-1.9,3.7-4.5-3.4,9.7-4.9c-14.4-5.7-6.6,0-7.5,1.1-1.4,1.7-3.4.7-3.8,1.5-1,2.4,2.5,5.5,2.3,5.6-.5.2-9.2,2.7-8.2-.7,4.4.3,5.4-4,3.8-7.5l-2.6,4.6-9.3-4.5,1.5,4.5-3,.7c7-1.2.2,6.3-2.2,4.5s-.5-4.1-.9-4.4c-6.1-4.4-2.9,6.5-5.6,6.6-5.4.3-2.3-8.2,3.4-8.6s2.4,2.3,3,1.9-.3-1.7.2-2.1,1.9.1,2.1-.5c2.3-6.2-4.1.9-5.3-.4s.2-2.8,0-3c-1.5-1.3-5.3,3.4-6.7.8,3,5.1-5.6,2.5-5.9,2.1-1.3-1.9,1.9-3.3-1.8-3.5s-.5,3.1-1.3,4.3-12.7,1.8-15.1,2.3-.8,2.1-2.4,2.2c-3.5.4-1-3.9-3.9-4.4s-11.5,4.5-13,2.2c1.4,4.9-12.4,1.7-8.3,8.2-.3.6-3.9-2.4-5.8-2.1s-1.2,3-6.2.6c-.4,5.9,7.2,1.2,7.5,1.5,3.2,2.9-7,2.9-7.8,3.1s-2.8,3.7-4.6,2.9.9-3.6-1.9-3l-.8,3.7-2.3-3c0,4.3-6.4,4.7-5.2,0l-7.5,2.3,1.1,1.6h6.8c4-.6-5.7,4.2-6.1,4.4-2.9,1-2.3-2-3.2-1.5s-.5,4.9-3.8,2.2,3.3-3.5,3.7-4.1c1.4-1.9-5.7.9-6,1.2-1.6,1.4,2.5,2.4,1.5,3.7-2.6,3.4-5.9.8-6.2.9-2,.7-4.4,1.5-6.4,2.3s0,2,0,2.1c-1,.4-2.8-1.1-4.5-.4s-7.1,4.7-8.8,6.3c-1.6.8-11.8,2.7-12.2,3.1s.2,2.9,0,3.7c-2.8-1.9-4.9-1.1-8.2-1.5l1.5,2.2c-5.3-1.9-5.8,2.7-6.1,2.9-1.9.9-12.1,2.9-12.8,3.3-1.7,1-1.2,3.1-2.7,4s-3.3,0-4.3.6c-1.5.9-3.2,4.6-3.8,5-1.3.9-8,3-9,3.9s-.2,3.8-1,4.3-3.9-.7-5.5.8c-4,3.9,6.1-1,4.1,2.2s-5.7-1-6-.7,0,2.3-.7,2.7-5,.6-6.3,1.7-1.9,4-3.8,6.1.5,2.1.3,2.3c-.8.6-10.5,2.9-11.9,4.6s1.9,2.1,1.3,2.9c-1.4,1.8-5.5.8-6,1.1-1.3.8-4.3,13.2-5.3,4.2-1.2,4.3-3.7.7-7.5,1.5-.5,3,2,.4,2.2.7,2.8,5.4-16.3,11.9-12.7,17.2-9.7-1.3-5.3,4.5-6,5.3s-5.4-.3-6.7.8c-.5,3,1.9.1,3,1.1,4.3,3.6-2.7,2.2-3.1,2.3-6.1,3.1-4,5.8-4.5,6.3-.8,1.1-5.4-1-3.8,5.3-6.9-3.1-1.7-1.7-4.5.4s-3.2.8-3.7,1.2.1,2.1-.4,2.6c-2,2-4.7,2.9-6.1,5.5s.5,3.5.4,3.7c-.3.3-4.4-.5-6,1.5,6.3,2.9-2.5,3.8-5,6.2s-.6,3.6-1.7,4.7-2.1-.5-2.2-.4c-.5.6-2.6,5.9-3,6.3-.6.6-4.6.8-5.9,2s-4.3,7.6-5.4,8.8l-2.2-2.2c1.5,6.3-3.5,4-2.3,9.7l-3.7-2.2c3.9,3.6-3.8,5.9-5.6,8.3s-4.3,5.8-6,8.3-.2,3.5-.4,3.7-5.8-2.7-4.1,2.3c9.3.2-4.3,3.2-6.2,5.4s-2.4,9.3-5.4,8.1c3,4.3-.3,1.1-2.1,3.2s-.5,2.6-2.1,4.2-4.6,1.4-4.8,1.6,1.3,1.8,0,4.1-2.9,1.1-3,1.2c3,5.4-3.9,5.3-6,9,0,0,2.2,2.2,2.2,2.2-4.8-1.3-7.3,10-9.5,12.1s-11.8,2.2-1.7,4.8c-.7,1.8-7.6,2.7-5.2,4.9s5.3-1.7,2.2,2.3-2.5-1-4.6.8c-4.8,3.8.2,6.6-1.4,8.9s-4.4.3-5.6,1.6.2,5.1-2.2,6l-1.9-6c-1.6,4.4,3.2,7.5-2.3,8.2,2.8,0,3.3,1.1,3,3.8-5.8-3.8-2.6,0-3.3,1.6-2.4,5-5.7,4.6-7.2,9.3l4.5,1.5-4.5.4.7,3.7c-2.6-4-2.6,2.7-3.1,3.6s-7.4,1.6.1,3.9c-7.2-.7-4,4.8-5.6,7.5s-3.4.8-4.7,5,1.1,4.1.6,4.7-3.2-1.2-3.7-.8c-1,.8,2.4,4.5-3,1.5,3.5,6-.9,11.2-4.1,16.5s.6,2.4-.3,3.4c-1.3,1.4-3.7.9-3.9,1.1-.2.3.2,6.2,0,7s-2.1,1.1-2.2,1.2c-1.7,2.7,4.8,0,3.7,3-3-2.1-4.9,5-5.3,5.2-2.6,1.5-4.2-5.6-3,7.8s1.8,0,1.5,1.2c-5.5,1.2-4.1,6.4-5.6,11.3-.7-3,.3-3.4-3.4-3,2.3,4.2-.6,11.1-2.4,15.5s-2.7.7-2.8,1c-.4,1,1.2,3.7.7,5.5-.9,3.1-1.2,5.1-1.9,7.9s-2.4,2.8-2.6,3.4,3.2,1.8,1.5,3.4c-3.3,3-3.5-8.2-5.2-2.5s2.2,4.5,2.2,5.8-2.2.8-2.3,1.5,1.7,6.3.7,8.6l-1.5-1.5c2,4.1-3.2,7.7-3.3,8.2-.9,3.8.8,8.2-.6,11.5s-2.8,1.1-2.9,1.3c1.7,8.4-3.1,6.8-2.3,10.1.8,2,2,.1,2.2.5,1.6,3.5-2.3,3-2.6,3.6-.7,1.6.5,2.7-.3,4.2-1.1,2.2-3.7-1.9.7,6.6-5.6,2.9-2.5,8.8-3.7,12.7s-2.1.2-2.3.9c-1.5,4.5,3.3.9,3,4.1-3.2,1.6-5-.9-5.2-.7-.4.2-4.3,6-3,7.5s3.2-1.1,3.7-.7.9,9.2.7,10.5l-1.5-.8c.7,3.5-.9,6.8-1.5,10.1s1.5,1.8,1.2,3.4c-.6,2.9-6.5,8.3-3.5,14.2-7.3-4.9-2,.2-2.2,1.8s-3.6,2.9-3.7,3.8c-.4,3.6,7.4-7.3,9-2.3-6.2,1.1-3,5.7-6.8,10.5l.8,1.1,2.3-3-.8,25.2c2.8,2.4.3,1.3.2,3.6-.2,5.3,3.8,8.8-4.6,12.1,4.3,1.7,5.1,1.7,3,6.4,5.7-2.5-.6,9.5.3,13s3.5,3.3,3.5,3.5c-.1,1.6-2.5,1.1-3,1.9s2.3,5.1,2.3,6-1.6.6-1.6.8c0,2,2.4,3.6,0,7.5l1.5-.4c-1.9,5.8,3.2,10.2-3,14.2,4.4-2,1.1,1.7,1.5,2.6s3.7,5.4,3.8,5.7c.6,2.5-1.7.7-1.5,2.2s2,.2,2.1,1.1c.2,7.5-3.6,5.6-3.6,6.1,0,1.1,3.8,1.3,4.3,2.1,1.8,2.5-1.2,8.9,3.9,7.3-4.5,3.1-1.6,7.9-4.5,12.7l4.1-3c5.6,7-5,4-4.8,5.6.2,2.4,5.1-.8,6.4,1.1s2.1,8.8,1.9,9.4-3.8-.6-2.1,3.6,3.4,1.9,3.5,2.1c.6,1-1,3.2-.3,4.4s4.3,2,4.2,5.6c-.1,7.1-5.6-.5-6,5.3,6.5,1.9,3.5-5.2,5.9,2.8s1.5.5,1.5.9c0,1-2.6,4.4-2.3,6,.5,2.5,3-1.1,3.7-.4s-.4,2.4.1,2.9,3.2.2,3.5,2.8-3,3.9.8,7l-1.5.7c9.9-3.1,1.6-.9,5.9,9.5,1.7,5,2.2.2,2.3.3.4,1.1-1.4,3.5-.3,5.8s3.3,1.1,4.4,3.2-.5,3.3-.3,3.6c1.1,2.1,6,5.5,1.4,7.6,3.1-3.8,7.2,7.1,6.7,8.2s-4.7.6-3.7,4.9,1.4-6.5,5.6-2.6,0,4.2.7,5.3,2.3.5,2.8,1.2c1.2,2,2.7,7.3,4.6,9.8s4.2,2.3,4.4,2.8-3.2-.5-2.2,1.9c1.6,0,6.3,6.3,7.5,8.3s-2.2.4-1.5,1.5c2.7,4.1,11.1,9.7,10.6,14.9h4.4c0,0-3,5.3-3,5.3,7.4-1.7,11.6,16.5,13.5,9.7.4.5-.5,3.3,0,4.4s6.1,0-.1,6.1c10.6-2.5,5.9,1.8,7.5,4.5s2.8-1.5,3,.4-5.6,2.4-1.7,4.9,2.6-2.9,5.4-3l.8,9.7,4.1-3c-1.2,3.8,8,5.2,3.4,9,2.3-1.4,6.2.5,7.9,2.2s-2.8,3.9,2.6,3c-3.5,3.3-2.2,5.9,3,6-.3-6,1.1-1,3.3,1.2s2.6.6,3.6,1.5.5,3.9.7,4c4.8-2.4,6,.8,6.8,4.5.6.2,2.3-2.3,2.6-2.2,1.6.3.6,3.7,1.6,4.6,1.7,1.6,6.1-.3,6.3,0s-2.1,3.8,0,5.7,6.3-1.6,5.3,4c2.9-4.1,1.9.7,2.9,1.2,1.6.7,3.6,0,4.8.5s1.6,2.5,2.4,2.9,2.3-1.9,2.6-1.5-.4,2.9.3,3.8,3.3.3,4,.9c2,2,3,5.6,3.2,5.8s7.2-.2,7.5,0-1.1,2-.7,2.2c.9.5,7.4-1.4,5.4,2,1.2.6,3.2.2,4.5,1s6.4,6.8,7.3,5.9-1.2-3.7,1.5-3c.9,8.4,10.7,4.7,11.2,5.2s.3,4.2,2.4,5.1,9.7,1.1,11.1.9c-3.8,1.4-1.4,1.7-1.5,5.2,2.8.6,1-2.5,1.5-3s2.3,1.6,3.3,1.5,2.2-4.4,3.4-3-2.2,3-2.2,3.4c-.4,2.2,5.1,2.1,3.7,4.9.8-3.8,2.4,0,6.4,1.2s1.2-1.4,1.8-1.2-.4,2,.5,2.3c2.9.9,6.8-.2,8.6.3s.8,4,5.5,4.2.8-2.5,2.7-1.5c-4.8,3.3,8.2,3.1,9.7,4.5s-3.9,4.7,1.1,6l1.1-.4-2.2-2.6c8.4-1.3,5.2,2,7.2,4.3,5.9,6.6,3.7-1.7,4.1-2,1.7-1.6,12.2,1.9,14.3,4.1s-1,5,2.9,4.2l-2.2,2.2c3.5-2.1,18.8,4.3,20.2,3.7,5.4-2.2-1.6-1.4-1.8-1.5-1.7-.8-7.9-4.2-8.4-4.4-.8-.2-2.7,1-3.7.7-1.5-.5,1.6-3.7-2.6-.8-1.3-7.3,8.2,0,8.8,0,3.9.9,10.3,1.7,14.4,1.5-13.6,6.8,4.8,6.1,9,7.5-5.3-6.6,2.9-6.3,4.5-4.9s.6,3.3.7,3.4c.7.6,4.3-1.1,5.5-.8s.9,2.1,1.8,2.2c1.9,0,19.6-3.1,13.7,3.9s-6.9-2.5-8.2.7c7.2-.5,14.3,3.5,15.7-5.2,0,5.8,3.4,2.9,4.5,3.7s-1.2,3.7,1.5,3c-2.1-2.8.9-8.2,3.7-6s-2.9,4,.8,6c-6.2-1.8,1,6,2.3.4s-1.9,0-1.6-1.2,2.1.2,2.3,0c1.3-1.5-3.8-1.3,4.8-2.2,1.2,8.3,2.2,1.1,4.7.9s3.5,1.4,5.4,1.4c-3.3,1.8-4.4-.9-3.7,4.5l10.8-5.2c3.9,4.2-3.5,1.2-3.3,4.5,5-.8,2.4,2.9,8.2,2.3,0,0,0-4.5,0-4.5l-3,2.2c0-3.5-1.1-3.4,1.8-3.7,6.8-.7,2.6,4.2,4.1,5.6s11.5,2.2,12,1.9c2.4-1.9-3.5-2.9-4.9-2.9s-2.3,1.7-2.6,1.4c-3.4-4.5,6-4.9,9.5-3.6s-1,3.9,5.7,1.3c1.1-.4,0-2.4.8-2.3,1.6.3,1.1,3.6,0,4.5-2.9,2.5-5.2-3.1-5.6,1.5,3.7,3.5,26-9.2,19.5,2.3,4.9-1.1,4.5-4.5,4.9-4.5,2.2,0,.8,7.5,5.6,4.1s.2-3.7,2.6-4.2,21.2,2.9,22.2,3.4.6,2.6.7,2.7c.4.2,8.5-.6,8.8-.9,1-.8.3-4.4,2-3.6s.2,5.7,4,3.6.3-2.3.8-2.5c1.6-.6,8.4-.5,5.3,3.4,11.9-3,25.7,5.7,33.7-3-.3,3.2-2,3.9,1.9,4.5l5.2-4.4c4.2,3.2-4.2,1.8-1.1,3.4s4.9-1.8,7.5-1.1l-.8,1.5c4.4-1,5.9,1.9,8.6,4.5,0,0-.4-8.3-.4-8.3,4,7.3,24.8,1.2,17.2,0,2-1.3,1.4,2.2,1.5,2.2,1.8,1.1,1.8-1.3,3.4-1.5s0,2.6,1.9,1.5,0-2.2,0-2.2c2.3-.7,2.9,2.3,6-3-3,6,8.2,6.2,11.1,5.1s.3-2.3.9-2.5c13.5-5.9.3,1.9,7.7,3.2,5.7,1.1,5.4-4.1,5.8-4.3.7-.4,2.7.9,3,.7s0-2.6,1.5-3.4,4.5,2,5.2,1.9,6.8-4.3,7.2-4.3c2.9-.5,5.7,3,6,2.8.8-.3,1.3-2.7,2.4-2.9,2.4-.4,7.1,1.6,10-1.6l-.7,5.6,8.2-.4-2.2-5.2,6,3.7c-5.3-6.8,7.9-5.8,6.7-2.6-8.5,0-5.6,4.3-.5,2.6s-.6-5.7,2.1-7.5c5.2,5.4,1.9.8,3.3.7s3.7,1.5,4.6,1.3c1.6-.4,0-3.5,2.6-2.8-1.5,6,7.3,6.2,9,3.3s-1.9-3.6-1.5-4,7.4-.2,7.9-.3c3.3-.9,7.7-5,8.2-4.9,1.1.2.7,4.6,3.4,3s-.2-2,0-2.2c1.3-.6,8.6-3.1,8.9-.5l-3,3,2.6,1.1c3.6-5.7,1.5-4,4.9-.7,0,0-1.5-4.1-1.5-4.1,5.7-3.6,2.7.9,3,1.1.6.4,3.2-.6,4.5,2.3,1.7-2.6-2.4-5-2.2-5.2,6.3-5.2,7.1-3.7,10.1,3,2.1-1.9-1.9-2.6.6-5.8s4.8-2.7,5-2.5c1,1.1-2.7,5.1-.4,5.2.9,0,12-10,12.4-7.8.7,4.4-4.6,3.6-5.2,4.2-2.7,3.1,4.9,3.2,5.1,2.9,1.2-1.7-2.8-6.2,3.8-3.8-6.8-7.7,5.9-2.1,5.3-7.5,2.5-.7.9,2.1,1.9,2.3s6.8-3.2,9.4-2.3l.7,3c.2-5.7-.3-6.5,5.6-8.3,3.7,1.7-4.7,9.8,7,4.8s-.7-4.5-.6-5.1c.3-2,4.5,1.6,3-4.1h2.2v3.8c7.2-3.5.6,1.6,4.9.7s-.2-2-.4-2.2c-2.4-3.6,14.8-6.7,18.2-7.5s.9-2,1.7-2.1c5-1.1,2.3,4.1,2.6,4.4,3,2.6,5.9-5.4,6-8.2-.4,4.8,7,4.2,9,3,3-1.9-3.5-.7-3.7-.8s-1.6-2-1.6-2.2c.8-4.2,7.3-1.2,8.2-1.5s-.5-3.1,1-4.3,13.5-2.7,14.4-6.2l1.1,1.9-1.5.7c5.5,3.8,3-1.6,3.8-2.5s2.7-.2,3.6-1-.4-5.9,6-2c.7.4-1.1,3.6,1.6,2.9-.2-2.8,1.2-3.2,3.8-3l-1.5-3,2.2-.4c6,5,4.1-1.1-2.7-1.9s-2.2,3-3.3,1.5c-2.9-3.8,11.1-.3,9-5.2l3.7,3c-5.2-13.9,5.5,2.3,3.8-8.6l10.5-1.1-1.5-2.2c4,1.9,4.4-1.2,6.8-2.6s2.1.5,2.2.4-.4-2.5.7-3.4c1.8-1.5,4.8-.8,5.3-1.1s1.9-8.1,9-5.2c-3.9-9.2,1.4-2.8,1.9-3,.7-.3,1.6-3.9,5.6-2.3-6.8-7.4,17.3-3.3,12.7-9s-3.6,1.6-3.7,1.5-2.5-4.3-2.3-4.5c4.6-1.6,4.9,1,6.7-4.5,1.2-1.1,2.1,3.1,3,1.5s-.2-2.8,0-3,2.5,1.1,3,.7-.2-3.4,1.2-3.8c6.2-1.5,2.5,2.9,6.3,3.8,0-4-1-4.7-4.5-6,11.4,0,4-.2,9.4-6.7l.4,4.5c9.4-3.5,3.2-2.1,1.4-4.2-3.9-4.7,4.8-4.7,5.2-4.9s1.3-2.7,2.8-2.9.7,2,1.1,2.2c3.8,1.9,1-7.7,7.5-6-7-8.8,2.3-3.6,3.6-4s7.6-10.5,9-12.5,3-1.3,3.2-1.5c1.3-1.5-3.1-1.7-1.5-3,3.3-2.5.3,5.7,5.2-2.6s1.6-1.1,2.3-1.1l-2.2-2.2c5,1.1,6.2-5,7.9-6.7,9.6-10,19.7-20.4,24.4-32.9l5.2-3.8c-4.8,0,3-5.3,4.3-7.6s-.2-3.4,0-3.9c.5-.8,1.9,0,2.4-.9,1.4-2.5.6-8.7,5.2-7.8.2-.5-.9-2-.4-3,2.9-6,3.9-16,10.9-17.2.6-3.1-2.4-.2-3-.7-3.7-3.3,8.7,0,5.7-5.3s-2.3-.2-2.9-1.6c-1.1-2.4,2.8-7.7,4.4-8.1s.6,4.2,3.3,2.2-2.1-4.5-2.2-4.8c-.3-1.4,5.6-4.7,0-6.4,5.7-1.7,1.4-7.4,4.5-11.3l3.7,4.5c-4.2-5,0-4.2,0-4.5,0-1.3-2.2,0-1.5-2.5s5.5-1.6,1.5-5.7l3,.7s-2.2-2.3-2.2-2.3c-.8-2.4,2.2-1.3,2.3-1.5-2.2-5,.1-4.2,3.7-4.5.3-.3-.6-5.7.2-8.4s2.7-1.8,2.8-2.4-3.1-.2-1.9-3.4c2.5-6.4,2.8,10.4,5.6-3-8.5,4.5,0-10.6.7-10.9s5.5,2.9,6,0-8.2-.8-6-5.1c11.3-1.6,4.9-2.4,5.3-5s2.9-7.5,3.7-8.2c-2.3-.2-4.4-3.4-3.6-5.5,1.4-4.2,2,.8,2.2.9,7.1,2.4.2-10.5,2.2-12.6s2.6,1,3,.8c.7-.5,4.7-9,3.8-11.2-7.4,7.2-3.4.8-2.2-4.2s-2.3-.8-1.5-2.2,2.6-.8,3-1.6c1.3-2.6-2.7-3.1-2.3-4.4s2.5,0,2.9-1.6c.9-3.2-1-10.4-.6-10.8s7.1-1,7.6-2c0,0,.6-9.2.6-9.2-.8-1.4-9.6,1.8-5.9-1.6s2.8.3,3.9-1.1-.6-3.7,0-4.2,8.4,3.1,5.3-4c-.4-.8-5.5-1.2-3.8-5.7,3.6,5.5,7.5,1.7,5.2-.8s-5.8-1-7-2.3l-.5-2.6c2.1-2,1.2,2.9,2.2,1.9s.4-2.8,1.5-3.4c1.6-.9,3.7,1.7,5.1-1.6s-1.8-3.2-2.5-5.4.6-2.7.4-4.1-2.1-1.1-2.2-1.2c-.6-1.8,6.2-3.9-.7-6.4-.5-2.3,2.4.3,3-.4s0-6,0-6.3c-1.2-2.7-4.1.7-4.4.3s.4-3.7,0-4.5-6.1,1.6,0-3c-1.3.4,1.9,4.6,2.6,4.5,4-.4-.4-5.1,6.4-4.1l-4.5-.4.7-14.2h3c.6-3-2.6-.2-3-.7s.3-4.9,0-5.2c-2.6-2.6-5.6,4.5-5.3,6.4s3.2,3.5,2.3,4.1-2.5-.6-3,.4c-.8,1.5,6.6,7-3.7,7.1-.8-2.3,2-1.2,2.1-1.6,1.6-4.1-3.2-4-2.2-7.1s2.1,0,2.2-.4c1.2-3.3-1.8-2.4-1.4-4.4s2-.6,2.6-1.8c3.8-6.9-5.9-.7-4.2,3.3-13-4.4,5.3-1.1-3.7-7.5,13-.5-3.6-10,3-10.6-.3-1.4-1.5-.2-1.6-1.8s1-5.5.8-5.7c-.3-.3-5.9,4-2.8-4.4s2,0,2.1,0c1-2-1.7-1.9-1.6-4.1s5.9-7.8-1.4-7.1l3-4.5-3.7,1.5.8-8.2c6.1,4.8-.4-3.7-1.3-7.3s.8-3.2.6-4.2-2.1-.8-2.2-1.6c-.3-3.6,2.1-11.1,1.1-15.4s-3.1-.3-4-4.3,2.7-4.9,2-5.5-3.6-.6-3.7-.8c-1.5-1.4,2.1-1.5,2.1-3.2,0-3.6-3.5-6.9-3.6-7.3s1.6-1.9.7-5.6-2.1-1.6-2.2-2.3,2.2.3,1.5-2.8-4.8-8.9-4.9-12.5l-4.1-23.3c-4.8,2.1-.5-2-.7-4.9s-1.7-7.6-1.9-7.9c-1.5-3.2-3.5-1.5-4.2-2.7s-1-6.9-.7-7c1.2-.6,2.3,1.9,4.1,1.5,6.4-1.7-4.5-2.4-4.9-2.6-1.8-1.1,1.1-6.1.8-6.4s-2.5.2-3.4-.7c-5.1-5-1-10.5,3.6-8.9s.9,5.9,4.3,7.7l-1.9,1.1-1.9-1.5,1.5,4.1-1.5,1.1c5.7.6,4.6,0,4.5-5.2,13.6,13.6-.5-6-1.1-12-2,2.2-7.4-1.3-4.9,2.9-2.3.6-5.1-1.3-8.2,1.5l.8-3-2.3-.7c5.4,1,5.8,1.2,6.8-4.5h2.2l1.1,3c6.6-10.2-2.3-2.5-5.2-4.6s-.3-2.5-.4-3.7c3.1.2,0,2.6,3,2.3-1.2-3.6,6.6-3.2,1.3-8.8s-6.8-1.1-8,.5c-.5-1.9-1.2-1-1.4-2.5l1.2-2.1,3.2,1.5.8-9c-3.2,3.7-6,6.7-11.2,3.4l6.7-2.3c-2.2-1.7-1.1-8.1-1.5-8.6s-5,1.2-3.1-4.1,4.3-1.5,3.1-4.2c-2-4.2-2.4,6-5.8,1.3-1.4-1.9,2.4-4.5-4.7-3.6-1-2.7,3.7-.7,3-2.2s-2.8,0-4-2.3c-4.3-8.2,9.2,1.9,1.4-10.4s-2.2-.5-2.5-.8c-.4-.5.4-6.3-3.1-3.6s1.2,3.6-1.5,3c-1.4-4.7-5.3-7.5-8.1-11s.3-3.1-.3-3.9-7.5-5-8.2-5.9c-2.6-3.4-6.4-11.7-5.9-16l-2.2,3.7c.7-5.3-3.4-5.5-5-7.4s-.8-2.9-1.8-4.2-3.3-1-4.2-2.1-3.9-7.1-5.8-9.6-6.1-2.5-4.2-5.2,4.5.3,3.7-2.3c-7.3,1.5-9.2-.2-12-6.4l1.1-1.1,7.1,6.8c-.6-1-2.6-8.7-3-9-.5-.5-7.7,1.6-9-.8s2-.9,2.1-1.9c.7-7.6-6.8-3-7.4-3.3-1-.6.2-5.1,0-5.2-.7-.6-4.4,1.4-3.7-1.5l5.2.7c.8-4.2-1.9-.9-3-1.8s-6-8.2-6.8-8.7c-2.1-1.3-1.2,2.5-1.9,2.2-1.5-.7-1-3.6-1.1-3.7-.4-.3-2.5,1.1-3,.7s-1.2-5.4-.8-6c-6.6,5.8-3.5,0-4-1-1.8-3.4-4.7-8.3-8-5.7l2.2-3c-3.7.7-2.5-.7-4.1-3l-1.9,3.4c-4.6-4.2,2.3-3.6-.7-5.3s-4.6,1.3-5.3-.7,3.9.3,3-2.6l-9.7-1.5,3-3c-8.3,1.6-4.5-3.6-5.2-4.5-1.2-1.6-2.5,1.5-2.6,1.5-5.5-1.1-1.6-5.5-1.9-6-.9-1.6-2.5,1.6-3.3,1.5-3.4-.5-9.2-4.2-10.9-7.1s1.7-1.3,1.5-1.9c-.7-1.6-7.4,2.6-6.7-2.9s2.6-.8,2.2-1.6c-2.4-4.1-2.7,1.4-3,1.5-2.9.9-4.6-4-7.5-3.8,0,0,1.5-2.9,1.5-2.9-2.1.6-9.7-2.1-11.1-3.1s.3-3.9-2.7-4.4-1.3,2.9-2.6,1.5-.6-5-.8-5.2c-3.1-.5-7.7.9-9.8-3.6-.6-.3-3.4.2-4.3-.3s.3-2.7,0-2.9c-1.1-.6-5.6-.9-7.4-2s-4.1-4.5-6-5.1c-4.6-1.6-6,.9-11.5-1.9s-.4-2.6-1.8-2.9c-9.7.4-17.6-10-27.5-8.4-1.8-.7-.2-2.1-.9-2.4-5.7-2-13.9-1.1-17.9-6.7,0,0-4.9,3.7-4.9,3.7l1.5-4.5c-6.7.9-11.6-3.4-17.1-5.1s-2.7.7-3.8.5-1-3.7-3.1-1.8l-.7,4.9c1.4-7.6-2.7-4.8-7.8-6.8s-2.3-5.3-4.2-2.1,3.4,2.9.4,3c-1.4-5.2-9.9-3.8-14.1-4.7s-2.1-1.8-3.3-2-.6,1.7-2.1,1.4-2-2.1-2.5-2.2c-16.5-3.5-37-8.3-53.3-10.5-2.1-.3-7.3,1.6-10,.8l.7-3.7c-2.7-.3-.4,2-3.4,3-8.3,2.8-9.1-2.9-9.7-3s-.8,3.5-3.6,2.9-3.8-5.8-7.2-4.4l2.2-2.2c-7.3-.3-1.7,5.8-8.8,2.8s.2-1.7-.6-2.1-2.9.5-4,0-.3-4.4-2.3-2.2,3.9,4.6,1.5,7.5-2.1-4.9-2.4-5.1c-2.7-2.5-12.1,1.7-12.6,1.4s.2-2.2,0-2.3c-1.5-.5-3,2.8-3.4-1.5l-3,3c3.2-5.5-4.3-.6-8.2-3.1-1.6,5.6.3-1.7-4.2,0l1.1,3c-5.8-5.8-2-.8-4.5,0s-6.3-.7-6.3-2.9c0,5.1-11.9-.7-12,5.2-1.8,0,.3-2.8,0-3-.8-.7-20.1.2-20.9.8s-.7,3-.8,3.7l-1.9-3c-4.8,1.2-9.7.1-14.8.9s-2.2,2.4-3.2,2.6c-3.2.8-16.5-2.1-10.1,6.2-3.7,2-5.2-3.6-6.4-3.8-13-1.3-3,6-11.6,6l2.2-4.5-9.7,2.2,2.2,5.2-7.5,1.5c6.9-9-7.3-2.7-6-.8l3,2.3c-3.1,1.1-8.1.6-9.4,3.7,3.2-4.2-7.7-3-8.9-2.3-1.8,1.2.9,5.3-3.5,2.3l.7,3c-6.8-4.3-4.2,1.6-5.7,3.1s-8.9,3-9.3,3.3-1.3,5.8-5.2,5.6c9.1,1.3-3,5.4-.8,11.2,7.7-1.8,2.2,1.5,2.2,2.6,0,4.6,4.7,3.7-2.2,6,6.8,3.5.9,3.8.7,4.1-1.4,2.9,2.1,2.1,2.2,2.3.4,1.2-.5,6.6,1.2,6.7s.8-6.1,4.1-3-2.9,3.5-3,3.8c-1.2,2.1,3.6,6.9,4.1,1.5-.2,2.3,5.9,6.8,6.4,6s-2.7-4.7,4.5-1.5l-2.2-2.6,1.9-1.8c4.2,9.5,2.6,2.7,5.2,2.3s3.1,7.3,8.3,2.3,1.3-5.3,3-5.3,1.7,2.9,1.9,3c1.8,1,1.3-2,3.3-2.3s6.8.9,7.1.8,1.2-5.5,6.2-3.8l.6-1.5,1.5,3c-2.6-3.8,10-4.9,10.5-4.5s-.2,6.7,2.6,6,0-6.5.4-6.7c1.7-1.7,3.2,1.5,3.4,1.5,1.6-.2,2.2-2.1,3.1-2.1,4.5-.2,7.1,1,12.1.4s14.1-3.8,16.8-4.1c5.1-.6,10.2.3,15.2-1.1l1.5,4.6c2.4-6.5.8-2,4.5-2.2s.4-2.7,1.9-1.5-1.2,3.1,2.2,2.2l-1.5-4.5c2.4,3,7.4,1.5,9.3,2.2s1.7,4.2,3.1,3.8,0-3.3.7-4.5c1.4-2,6.1,1.2,8.6,1.2s8.6-2,9-1.9,1,5.6,3.8,3-3.5-3.6-.4-3.7c3.5,9,3.8,2.1,6.7,1.5,4.8-1.1,2.3,4.2,7.8,2.1s-.2-1.9.5-2.1,11.2.3,11.6.8c1,1.3-3.7,5.9-.7,8.2l5.2-3-4.5-2.2c8.1-2.4,5.9,1.5,10.5,5.2-2-4-.2-5.5.4-9.7,3,.8,4.5,7.2,4.9,7.5,1.1.9,7.2-.8,8.7-.6s7.1,2.8,7.5,2.9c2,.3,0-1.9,2.6-1.5s4.9,2.5,7.2,2.9c5.1.8,15.6-.5,18.3,3.8l6-1.5c-.2,4.2,8.5,2.5,12.6,3.5s5.5,1.6,6.9,2.1.6,1.9.7,1.9c.9.3.6-2.7,3-1.5s0,2.2,0,2.2c.7.2,2-.6,3-.3s2.4,2,3.7,2.2c3.7.6,3.5-2.3,5.3-1.9s1.9,3.7,2.6,3.7c3.9.4-4.8-8.4-4.1-9,1.2-1.1,4.3,2.8,4.6,2.8,3.6.7,14-2.9,12.6,3.2,5.5-4.9,1.2-2.2,6.7.4l-1.5,1.9c3.2,1.2,7.8-1.6,7.5,3l3-2.2v3.7l3-3c-1.3,7.2,5.7,3.9,8.9,5.4s.4,2.4,1.4,2.9c1.6.9,14.5,7.6,15.4,7.7,10.8,1.8-1-2.5-1.4-2.8-2.6-1.7-5.1-7.4-9.2-5,3.1-11.1,4.3-1.1,6.8.7s.4-2.1,1.5-1.5.8,2.2,2.6,3.1,4.7-.3,4.9-.1c-.4,7,3.8,1.1,7.3,5.4.2,2.8.7,2-1.7,3.6,0,0-1.8-3-1.8-3-2.2,7.7,3.7,3.4,6,8.2,5-7.8-2.3-1-2.3-4.9.2-7,7.9-4.2,6.8.4l2.2-3.7c-1.9,4.2,5.2,9.1,6.4,4.6s-5.8-12,4.1-5.3c9.9,6.7-.2,2.5,0,2.9s5.5-3.3,5.2,2.2l-8.2-2.2,2.3,6.7c1.3-6.4,7.8,4.3,11.2.7s-5.3-4.6-2.3-6c1.4,5.8,7.8-1,3.8,9l6-1.5c-3.8,12.2,2.9,2.9,5.3,5.2s-.3,4.1,0,4.5,2.6-1.2,3-.8-.6,4,1.1,4.5,1.3-1.9,2.9-1.4,1.5,2.9,3.9,3.7,1.5-2,2.6-1.5c1.7.9,6.8,7.3,7.3,7.5,2.6,1.7,6.3,3.3,9.2,2.2-5-1.1-3.5-9.3,0-6.6s.4,7.1,6.1,5.9c-3.8,1.3-5.1,2.4-5.2,6.7,3.3-3.2,4.6-3.7,7.5-4.5-1.7.8.4,8.7.8,9,.6.5,11.6-6.1,7.9,0s-2.7.5-3.2,1.8c-1.3,3.3,4.6,1.8,3.9,4.9.8-2.7,3-6.2,5.3-2.3s-2.4,1.8-1.9,3,4.8,5.3,5.4,5.9,3-.4,4,.9,0,3.2.4,3.7c1.8,1.8,6.4.6,6.6.9s-.5,3,.2,3.6c3.3,3.3,8.2,5.8,12.2,9.9s.3,2.9.4,3c.6.5,3-1,3.6-.7,1.4.7,2.2,6.4,2.4,6.6s2.3-.2,2.7.2c1.1,1.3,1.7,3.7,2.9,5,9.1,10.5,17.3,19.7,24.9,32.5s-.2,2.6.3,3.5,2.2.2,2.6.8-.6,1.7-.3,2.1,2,.6,2.5,1.6-.6,2,0,3.1,2.8.8,3.1,1.5c.6,1.2.6,13.5,3.3,6.8-1.4,4.6,5.2,1.9.8,6,3.4,3,7.8,18.2,9.8,19.5s2.7-1,4,0,4.8,7.2,2,6.1-1.6-4.2-2.3-1.1c-.9,4.5,4.6,2.1,1.5,8.6.2.4,6.2,1.2,6,4.9-1.3,1.3-3.3,2.2-3,3.3s2,.9,2.8,3.6-.3,5.9,2.1,9,5.3,2.8,5.6,3.7c.4,1.5-.5,8.9.7,11.5l2.1-1.3v-4c4.3,1.1.5,10.1-2.1,10.1l6.7,1.5c-9,4.1,6.5,7.6,1.5,12.4s-4.3-4.7-3.7-1.2,10.7,2,2.2,5.7c6.6,1.4,1.8,11.9,8.1,14.8.9,4.4,1.4,24.5,2.3,26.8s2.3.4,3.1,1.6-1.7.3-1.5,2.6,3.2.6,2.2,2.3-2.3-.5-2.3.4,3.5,1.7,3.7,2c.4.7.3,13.8.9,16.6s2.9,1.2,2.8,4.7-2.7,2.9-3,3.7c-1.5,4.4,2.8,1.6,3,1.9,1.4,1.6-.3,6.9-3.7,6.7,7,0,5.4,7.3,1.5,12,4.5-1.6,5.2,3.3,3.7,6s-1.6-1.2-2.2-.4,3.3,8.9,3,11.2l-2.3,1.1h3l-1.5.8.8,15.3-1.5.9c2.7,8.8.3,18,.2,26.3,0,8.2.6,18,.6,26.2s-1.3,6.1-1.6,9l5.1.5v2.9c-8.8-7.4-.2,14.5-8.1,14.3,6.4,2.8-.3,5.8-.6,7.3-1.1,4.9.9,11.8,3.6,16-8.8-4.5-5.8,7.2-3,12l-5.2.8s0,2.6,0,2.6c5,3.2.9-1.4,4.5-1.8,1.5,6.9-4.8,4-5.2,4.5s-.2,10.5-2.2,12.3c12.1,6.5.9,3.2.3,3.5-2,1-.7,4.9-1.5,6.8-3.6,8.9-2.4,12.1-4.9,19.7-.3.9-2,.3-2.1.6-3.9,10,2.4.2,1.3,8.1l-3-2.2-.8,6,1.5-.8c1.4,3.5-4.9,8.8-5.8,11.1-2.5,6.3-2.5,13.5-4.7,20s-2.2.4-2.3.5c2.9,6-10.2,11.6-6,18,0,0-3,0-3,0,5.5,4.9-6.6,6.2-2.3,13.5-5-3.9-7.3,9.5-9.7,13.7s-5.2,9.9-6.4,11.8c-6.9,6.6-11.4,6.8-8.7,17.9-.7.8-2.4-2.2-4.5-1.2s-3.7,6.5-4.7,7.8-2.7,0-2.8.2c-.3.4,1.1,2.8.8,3.7s-4.3-1.7-.8,3.7c-4.1-.9-7.1,6.7-12,6.8,8.6,3.5-.7,2.6-2.2,3.9s.3,2.2-.2,2.7c-1.3,1.5-4.2.2-2.1,6.1-6.7-6.7,1,1.7-9.7,1.6,6.1,8.5-7.7,3.4-4.5,10.5,0-2.7-6.6,3.2-8.1,4.6s.3,2.9-.3,3.5-5.8,2.9-7.3,3.9l3,1.5c-6-2.2-2.8,3-3.7,4.5s-4.2-3-6-1.5.3,2.5,0,2.8c-3.5,2.2-7.4,2-7.8,6.9-.7.6-3.2.4-4.1,1.1s-.4,2.8-.9,3.2c-3.4,2.6-14.3,3.6-14.1,10.7l-3-3.7c1.6,6.5-8.7,6.2-12.3,8.1s0,2.8-.4,3.1-4.8,0-6.7,1.2-5.4,5.4-6.3,6c-1.2.6-7.7.7-5.7,4-.6.3-3.4-1.3-4.5-.7s0,2.1,0,2.2c-.4.3-2-.9-2.2-.8s0,2-.4,2.3c-1.4.9-2.6.5-3.3.9s0,1.7-.6,2.1c-1.5,1.1-4.3-.4-4.8,0s-.9,5.6-2.6,5.2,2.4-5.3-3.2-2.5-.3,2.4-3.2,3.6-8.7,1.6-12.9,3.4-.2,2-1,2.3c-3.2,1.3-7.5,1.5-10.9,3s-.4,2.3-1.8,2.9c-1.1.9-15.7.6-13,5.3-1.2.6-.3-2-1.5-1.5-2,.9-2.6,5.8-5.3,0,.7,3.8-1.9,1.5-3.6,2.5s-1.9,2.9-3,3.4c-1.7.7-3.8-.9-5-.6s-1,2.4-3.1,2.9c-3.3.7-6.8.6-10.1,0,2,4.4-.9.6-2.6,1s-3.2,3.1-4,3.4c-3.1,1-4.3-.7-4.5-.6-5.4,4.9-2.6,1.9-9.5,2.9-2.7.7-1.7,2.2-2.4,2.3s-9.7-.6-11.8,0-.2,2.7-1.7,3c-4.1.9-9.7,1.2-14,.8-1.3,3.8-9.7,1.9-12.2,2.6s-1.8,3.6-3.1,4.2c-2.4,1.2-2.6-2.1-3.2-1.5s.2,2,0,2.3c-1.4,1.3-1.6-1.6-1.9-1.5-11.5,1.2-21.8,4.3-32.9,6s-2.2-1.5-2.3-1.5c-.6,0-.8,2.2-1.7,2.3-2,.3-7-.9-8.9-.7-5.7.6-13.9,1.6-20.9,2.1s-1.8,2.2-1.9,2.2c-1.2,0-.4-1.6-1.2-1.5-3.9.3-8-.3-11.9,0s-3.5,1.8-6.6,2-4.4-1.9-4.6-1.9c-.7,0-.5,2-1.4,2.1-4.9,0-4.4-2.7-10.1.3-.5,4.8-.6,0-.8,0-9.4-1.3-30.3.4-40.1,1.6-3.6,0-5.8-2.5-10.6-2.3s-1.6,2.3-2.3,2.3-3.5-2-5-2c-3.8,0-4.5,2-4.7,2-2.2,0-5.6-6-8.9,0,0-7-2-2.2-3-2.2-2.5,0-1.7-2.4-3.4-1.6s.5,2-.4,2.2-3.1-3.8-5.2-3-.8,3-1.6,3,.2-1.9-.7-2.3c-2.4-1.1-2.7,2.2-4.5,1.5s-.4-2.6-3-2.3-1.9,3-2.6,2.3.9-4-4.8-2.3,0,3.7-1.9,2.3.5-2-.4-2.3-3.1.7-3.8.6-1-1.9-1.1-2c-1.2-.2-11.1,1.2-13.1,1.3s-2.1-3.3-3.3-.9.8,8.2-3.7,0,3.8-3.4-1.3-1.7-.6,1.9-1.3,1.9c-2.3.2-5.7-1.8-6.8-1.9-8.1-.4-15.2,0-23.2-1.3s-.7-1.9-1.4-2c-2-.2-1.1,2.6-3,2.3s-.8-2.1-1.7-2.3c-6.9-1-16.1-.8-22.1-1.6s-8.3-5.8-8.8-5.8c-1.6,0,0,2-1.2,2.3-5.5,1.4-2.4-2.8-2.6-3-.4-.5-10.3,0-12,.7l3-3.7c-6.5,5.8-7.6-9.3-9,3-2.2-3.9-6.3-1-6.7-1.5s1-9.4-6.3-6.7.5,2.9-4.1,3.2-4.9-2.5-5.2-2.6c-2.4-.6-7.2,2.8-6.9-2.3-3,4.4-2.3-1.8-3-2.3s-3.3,3-4.5,2.2,1.6-3.5-1.5-3l-1.9,2.2,1.1-6c-6.4,6.6,1.3-1-11.5.7-4.4-1.7-6.5-10.1-12.5-3.7.2-8.3-4.2-3-4.9-3s-4.1-6-5.2-6.7.4,2.1-1.9,1.5.1-2.1,0-2.2c-2-.8-10.7,4.3-8.2-3-3.2,0-.8,4.3-5.2,3,3.1-4.9.5-1.9-1.5-3.4s-1.8-3.1-2.8-3.3-5.4,2-5.5,2.2c-.6,1.3,2.5,4.2,2.2,4.5-2.1,1.7-6.3-4.6-5.3-5.2s4.9,1,4.5-2.2c-5.4-2.2-5.6,2.5-8.2-3.8-1.8,0-1.6-2.2-4.1-1.6s-2.7,3.3-3.4,2.3c-2.5-3.6,5.4-9.2,7.5-4.7s-.3,3.1,0,3.9c1.3,0,2.2-1.6,3.9-1.4,4.9.8,5.6,4.7,6,5,2.3,1.5,5-3,4-4.4s-10.5-5.7-12.4-6.4-1.9,1.4-2.6,1.1c-2.1-.6-.1-3.4-.4-3.8s-4.8-3.6-5-3.8c-.8-.5-2.8,1.1-4,.5s-.5-2.3-.9-2.5c-2.2-1.3-8.5-2.5-8.9-2.7-.9-.6-.5-3-.8-3.3-1.2-.8-4-.5-4.6-.9-2.3-1.6-6.2-5.3-9.4-7.6s.2-2.5-.2-2.8c-1.2-.9-8.5-3.3-10.6-4.6s-.4-2-.6-2.1c-.8-.5-2.2.2-2.8-.2s0-2.1,0-2.2c-.5-.3-1.8,2.2-3,1.5s-3.2-5.8-4-6.5-3-.5-4.7-1.8-.2-3.1-1.5-3.7-3,2.1-4.8.6-1.7-5.7-3.8-7c-4.1-2.5-11.4,1.2-6-6.4,0,0-5.2,0-5.2,0-.9-2,1.7-1.3,1.5-1.9-2.1-7.3-6.3,3.3-4.5,5.6,2.7-9.2,3.6,3.1,5.3,3.7s6-4.1,6.7,3.4-4-1.4-4.9-1.8-2.3.9-2.6.7c-.3-.2-.1-4.2-5-5.1s-3.1,4.3-4.7,2.1c-3.3-4.7,2.8-6.1,3.1-6.5,3-3.8,1.8-9.1-1.6-11.9s-4-.2-4.9-1.1-4.7-6.2-6-7.6-.1-6-3.3-1.6.9,3.8.6,3.9c-4.9,3.1-.1-9.3-2.3-9.7l-1.5,1.5c-1-9.7-5.5,2.1-6.4,2.2l-4.1-6c1.2-1,11.6,5,.7-10.1s-4.2-1.8-4.3-2c-.5-.7.3-2.6-.3-3.4-2-2.8-5.8-2.8-4.3-8.5,0,0-3.7,2.2-3.7,2.2,2.5-6.9-4.6-.3-3.8-9-1.7,2.6-1.5,6.8-6,6,2.5-1.8,1.5-2.1,0-4.5,9,1.8,2.2-1.4,1.5-5.6s1.6-.5,1.6-.8c-1.1-8.9-3.2-3.8-5.3-7.6s.9-3,.8-3.2-2.5.6-3.7-1.2-3.5-6.3-4.6-8.3,1.1-2.7.8-3.2c-5.8-.7-5.4-7.4-6-10.4-4.1-3.9-5.8,10.3,0,8.2l1.5,12.7s3.7-3,3.7-3c-3,13.3-6.2-1.8-6.9-2.1-1.7-.8-3.6,2.2-4.4,1.4s2.1-2,2.3-3.4-.5-7.6-.8-7.8-4.4.3-6.6-3.9-1.4-11.2-1.7-11.8c-.6-1.3-3.9,3.8-5.1-.5s5.5-1.9,2.9-7c-3,6.4-2.7-3.3-3-3.8s-5.4.7-3.1-3.3,4.2,0,2.4-5.2-2.1,0-2.3-1c-.4-1.6,0-7-.7-7.8-1.3-1.4-1.3,1.8-2.5,1.5-3.3-.8-5.4-6.2-.5-6,0,0,0-2.2,0-2.2-8,.7-1-3.2.8-6.7-6.9,2.3-3.4-3.4-3.7-3.7s-2.8.2-3,0c-1.5-1.9,4-8.9-3.7-7.5,0,0,0-2.2,0-2.2h7.5c-1.2-3.7-13.3-3.5-6-7.2,7.3-3.7,3.8,2.4,4.4,3.1s4.8,2.2,6.1,4.1c2.2-2.6-1.9-4.9-1.5-5.6,1.6-2.7,4.9,1.4,4.5-1.9-7.2.7.7-3.6-6.7-5.3,4.8,4.3,1.5-3.1,1.5-3.4.2-4.7,3.5-7.2-3.8-9.4l2.2-2.2c-4,1.3-2.9-2.6-3.8-3,.4.3,2.4,1.6,3,1.5-3.2-4.3.6-8.3.6-10,0-3.7-3.5-1.8-3.6-2-1-1.7,1-7.2.7-7.5s-2.3.2-2.6,0,.8-7.2,1.1-7.5,3.4.6,3.7-.4-2.9-2.5-3-2.6c-.8-2.5,6.1-2-3-4.5l.9.2ZM806.6,340.3c.7-2.4-.8-5.3-3.4-5.2s.6,2.1-.4,3-5.6-3.6-5.3,1.9,11.7,1.7,12.1,1.1-1.2-2.6-.7-3,2.7.3,3.4,0c3.1-1.4-4.7-1.8-4.9-1.5-.4.7.9,3.9-.8,3.7ZM821.8,337.2c-1-.8-2.3-2.6-4.9-.6-5.2,4-1,7.2,2.5,4.9s-.6-4.4,1.1-4.1,1.6,6.7,4.1,3.7c2.5-3-2.6-3.7-2.8-3.9ZM845.6,335.8c-7.7,0,6.4,11.5,5.3,2.3h-2.2l-.4,2.2c0,0-2.5-4.7-2.7-4.5ZM748.9,338.1c-1.3-1.1-2.6,5.1-4.5,5.2,3.3,0,7.6-3.4,10.1.8,6-4.5-2.3-2.7-5.1-3.7s-.4-2.2-.5-2.3ZM795.4,338.1c-4.8-2.2-6.2,5.5-3.4,5.2s0-4.4,3.4-2.2v-3ZM867.3,341.1c-.5-4.1-8.2-3.9-10.5-1.8l.7,2.6c.1,0,9.7-.8,9.8-.8ZM759.4,341.8c0,3.3,3.5,5.3,6,2.6l-6-2.6ZM741.4,342.6c-3.3-3.2-5.1,6.9,5.2,3.7-7.6-.4-4.4-2.9-5.2-3.7ZM547.2,373.3h-1.5l-.8,3,5.2.7c-3.5-2.3.7-.6.8-3.7-3.1-1.3-3.6,3.5-3.7,0ZM796.9,437.8c1.2.7,24.8,1.1,24.7-.4,0-2.4-19.5-.4-22.1-.4-2.8,0-7.5-2.3-2.6.8ZM832.7,435.7l-8.1,2.8h11.2c.6-4.2-1.6-1.2-2.6-1.5s-.5-1.4-.6-1.4h0ZM749.6,438.5c-1.5,4.9,5.9,4.8,6.6,1.7l-1.1-2.4c0,0-6.1.5-5.5.7ZM728.6,438.5l-3.7,4.5h11.2c-1.3-2.2-7-4.6-7.5-1.5v-3ZM716.7,442.3l-13.5,2.2c7.2-2.1,6.4,1.3,6.7,1.5.7.4,3.8-3.4,6.7-1.5,0,0-.1-2.4,0-2.2ZM950.9,456.1c2.5-1.9,1.7-3.2-1.6-3.4-4.8-.3-2.7,6.6,1.6,3.4ZM956.1,456.2c-.2,0-2.1-2.2-3.2-.3s0,2.5,0,3.6l2.3-2.2c2.5,6.7,11.4,1.3,1-1.1ZM1022.5,482.8c-.3-.1-1.2-5.5-3.7-2.1-3.6,4.9,7.2,2.7,7.7,2.8s2.8,6.4,4,1.1-6.1-1-8-1.8ZM1039.8,488.6c-.5-.3,0-3.8-3.1-2.9l3,6.4c3.1,1.6-1.2-3.9,3.8-1.9.6-2.8-2.5-.8-3.7-1.6ZM1052.8,498.1c-.8-.6,0-2.2-1.8,0,2.7,7.3,11.5,7.4,1.8,0ZM457.3,510.5c-1.6.2-6.9,4.5-6,6s8-4.4,6-6ZM847.1,814.8c201.9-119.5-25.9-390.3-177.5-210.9-52.2,72.2-26,170.6,51.6,210.9-107.7,28.5-163.1,138.9-176.8,241.9-13.7,103-6.2,48.3-3.8,63.5s23.7,16.3,28.5,2.5c1.7-137.9,67.8-300.2,232.7-286.1,142.1,10.7,197,163.5,197.7,286.6,5.4,13.3,25.7,11.5,28.3-2.9,2.6-122.1-52.5-269.5-180.7-305.5ZM422,551c5.5-.3-4.2-4-6.7,0s1,5.1,0,6.7c3-.7,1.2-5.8,1.5-6,1.4-.3,5.3,1.2,3.7-2.2,2-.9,1.4,1.5,1.5,1.5ZM1212.9,558.5l-6-3,2.7,5.3,1.8.3,1.5-2.6ZM414.5,557.7c-1.7-1.6-5.1,2.8-5.2,4.5,1.7,1,6.8-3,5.2-4.5ZM1276.4,680.9c-4.4-5.5-2.4,9.9,1,5.8s0-4.8-1-5.8ZM1273.6,688.9l-5.2-2.3,3,6.7h2.2c-2.6-2.4.5-3.7,0-4.5h0ZM1280.3,689c-4.5-6.9-1.4,2.9-1.4,3.3,0,1-2.2.2-2.3,2.3s5.2,4.4,0,5.6c4.4-1.1,2.5,2.2,4.1,3.8,3.3,3.2,2.9-5.7,2.6-6.7s-2,.4-2.3-.5c-.5-2.2-.8-7.4-.7-7.8ZM1288.9,720.9c-.3-.6-1.3-5.7-3.3-3.5-2.9,3.3,6.3,10,3.3,3.5ZM1294.6,736.9h-4.5c-.6,2.6,1.7.6,2.5,2.4,1.4,3.6-3.5,6.5,1.6,8.1,1-1.1.8-10.1.4-10.5ZM1299.9,759.4c-8.1,1.2,4.4,7.6-2.2,10.1l5.2,1.1-3-11.2h0ZM1295.4,770.6c-3.9-1.2-3.9,2.8-2.3,4.2,4,3.3,3.3-3.9,2.3-4.2ZM1306.6,789.4c-7.5-5.2-2.5,8.4-3,9s-3.7-1.2-3,1.5c7.7-.7.3,6.3.8,6.7,7.4-.5,5.7-6,4.9-12.1s-2.7-2.2-2-4.8c0,.1,2.5-.6,2.3-.3ZM1303.9,809.3c-1.2-.7-4-4.1-5.5.3,7.8-1.6,4.9,7,5.3,7.5,1.5,1.9,7.6-3.4.2-7.8ZM1304.4,829.9c.2-.2,2.2.4,2.8-1.2s1.8-8.7-.3-9.2l-4.8,1.8,2.2,1.1c-4.3,4.2-.7,2.4-.7,3.5,0,7.4-4.4,3.3-5.3,4-4.2,3.3,12.3,0,3.8,5.6.9,3.4,6.6-.3,6.7-.7.9-3.3-6.5-3.2-4.4-4.9ZM1308.8,839.6c-.9-1.6-6.8,4-5.2,6s5.8-5,5.2-6ZM1310.3,872.6c-5,.9.2,7.2-2.2,10.5,3.2-.6,1.6-8.2,2.2-10.5ZM274.7,1015.5c-4.1-7.9-1.1,0-1.1,1.5s-1.4,6.3-.7,7.1c.7.8,5.1-1.2,3.7,1.9-1.4,3.1-5.9-.5-3.7,1.9s5.8,3.4,6.7,8.6c0,0-3-.4-3-.4v2.2c9.5,5.3,5-1,2.8-7.4s-2,0-2-.2c-.6-1.5,2.8-9.9-3.1-9.7,1.2-1.1,1-3.8.4-5.5ZM284.7,1045.9h-3.5l-3.8,5.1c3.5.4,4.7-.5,6.7-3-.3,7.1,3.6-.9.6-2.1ZM286.4,1052.5c-2.8-.6-1,3.7-1.5,5.2l-2.2-2.2c-.3,2.9,4.9,22,9.7,17.2s-2.3-4-2.3-4.3c-.2-1,1.5-6.2,0-7s-7.8,2.9-2.1-1,4.1.5,3.6-2c-4.6.2-5.5-2.1-5.2-5.9ZM290.1,1192.7c-.2-.9,1.5-3.5-.8-4.9-7.8.3-1.6,2.1-.1,3.6s-1.1,5.3,3.1,1.7c0-.8-2.6-.1-2.2-.4ZM486.5,1246.6c-3.6-2.2-10.8,2.2-3,.7-3.2,6.5,6.6,8.7,11.2,5.2-4.8.3-5.7-4.2-6-4.5-.6-.5-2.8.9-3,.7-.3-.2,1-2.1.7-2.2h0ZM515.7,1260.1c-2.7-2.4-5.2,3.5-.2,4.4l2.5-1.7c-4.2,1.2-1.3-2-2.3-2.7ZM1015,1298.4l-8.2,1.9c1.6,1.5,8.6,1,8.2-1.9ZM547.3,1331.2c-.3-.2-1.7-5.9-1.9,2.5,9.9,1.4,11.8,2,1.9-2.5ZM792.4,1348.6c-.3-.2-5.7.4-6.2.7-7.1,4,10.5,2.8,6.2-.7Z"/><path class="cls-1" d="M269.1,997.8c-6.6-1.5.4,4.1-6.7,3.7v-2.6c6.5-2-4.5-.3-3-3.7s3.5,1.4,3-2.2l-5.3-2.7,3.7-.7c-3-4,3.2-4.8-4.5-5.2l3-1.5v-2.2l-3-1.2,3-.4c.6-2.9-3,0-2.3-3.4s2.6-1.1,2.3-3-1.9-.5-2.1-1.6c-2.2-10.4-.9-17.6-1.1-27.6s-3.2-13.8-.2-14.6l1.4,1.4-.3,16.6c.3.3,4.2-.3,5.3,0-2.1,2.2-2,1.1-5.2,3,7.2.9,2.9,5.7,2.9,6.4.1,2.3,1.8,11.8,1.5,12.4s-2.3-2.1-2.2.3,2.5,3.1,2.9,3.9-.5,3.9.1,4.7,2.7-.3,2.9,0-.2,2.1,0,2.2c-1.8-.9-4.8,2.6-3.8,3.7s2.9-.6,3.7,1.2-2.2,3.6-2.2,4.4c0,1.4,1.4,1,2,2.6s-.7,3.6-.5,3.8c.9.8,4.3-.9,4.5-.7.3.2-.4,3.2.2,3Z"/><path class="cls-1" d="M1256.4,647.7c1,4.1-1.6,6,3.4,3,2.1,1.2.3,2.4.4,3-5.3-.3-3.4,3.6-6,5.2-.8-1.4,1.6-10.4,2.2-11.2Z"/><path d="M1260.1,653.7c-3.6,10.2,13.9-4.5,5.6,8.3,0,0-1.1-3-1.1-3h-2.2c-.9,5.7-1.4,5.6-6.8,4.5l2.3.7-.8,3c3.1-2.8,5.9-.9,8.2-1.5s0-2.2,0-2.2c1.4-.3,3,.9,4.9-.7.6,6,14.7,25.6,1.1,12,0,5.1,1.2,5.8-4.5,5.2l1.5-1.1-1.5-4.1c2.4,1.8,1.3,1.8,3.8.4-3.4-1.8-1.7-6.8-4.3-7.7-4.7-1.6-8.8,3.9-3.6,8.9s3.3.5,3.4.7c.3.3-2.6,5.3-.8,6.4s11.3.9,4.9,2.6-2.8-2-4.1-1.5.5,6.7.7,7c.7,1.2,2.7-.5,4.2,2.7s1.9,7.5,1.9,7.9c.2,2.8-4.1,6.9.7,4.9l4.1,23.3c0,3.6,4.3,9.9,4.9,12.5s-1.6,2.3-1.5,2.8,1.8.3,2.2,2.3c.8,3.7-.8,5.3-.7,5.6,0,.4,3.6,3.7,3.6,7.3s-3.6,1.8-2.1,3.2,3.3.4,3.7.8c.7.6-2.6,2.8-2,5.5.9,4,2.9,0,4,4.3s-1.4,11.8-1.1,15.4,2.1.9,2.2,1.6-1.1,2.5-.6,4.2c1,3.7,7.5,12.1,1.3,7.3l-.8,8.2s3.7-1.5,3.7-1.5l-3,4.5c7.3-.7,1.5,6.3,1.4,7.1-.2,2.2,2.6,2.1,1.6,4.1s-2-.2-2.1,0c-3.1,8.4,2.5,4.1,2.8,4.4s-.9,4.1-.8,5.7,1.3.5,1.6,1.8-2-.6-1.5,1.9,8.9,8.4-1.5,8.7c9,6.4-9.3,3.1,3.7,7.5-1.8-4,8-10.2,4.2-3.3s-2.6,1.7-2.6,1.8c-.4,2,2.6,1.2,1.4,4.4s-1.9-.4-2.2.4c-1.1,3,3.8,2.9,2.2,7.1s-2.9-.8-2.1,1.6c10.3,0,2.9-5.6,3.7-7.1s2.4,0,3-.4c.9-.6-2-2.2-2.3-4.1s2.7-9,5.3-6.4-.4,4.7,0,5.2,3.6-2.3,3,.7h-3l-.7,14.2,4.5.4c-6.8-.9-2.3,3.7-6.4,4.1s-3.9-4.1-2.6-4.5c-6.1,4.6,0,2.7,0,3,.4.8-.4,4,0,4.5s3.2-3,4.4-.3.3,6.1,0,6.3c-.6.7-3.5-2-3,.4,7,2.5,0,4.6.7,6.4s2,0,2.2,1.2-.7,2.9-.4,4.1c.7,2.2,4.4.7,2.5,5.4s-3.5.7-5.1,1.6-1.2,3.2-1.5,3.4c-1,1.1,0-3.9-2.2-1.9l.5,2.6c1.2,1.3,6.7,2,7,2.3,2.3,2.4-1.7,6.3-5.2.8-1.7,4.5,3.4,4.9,3.8,5.7,3.1,7.1-4.9,3.7-5.3,4s.9,3.1,0,4.2-3.7.9-3.9,1.1c-3.7,3.3,5.1.2,5.9,1.6l-.6,9.2c-.4,1-7.3,1.6-7.6,2-.3.4,1.5,7.6.6,10.8s-2.6.8-2.9,1.6c-.4,1.3,3.6,1.9,2.3,4.4s-2.4.4-3,1.6,1.8.8,1.5,2.2c-1.2,5-5.1,11.4,2.2,4.2,1,2.3-3,10.8-3.8,11.2s-2.6-1.1-3-.8c-2,2.2,4.9,15.1-2.2,12.6s-.8-5.1-2.2-.9,1.3,5.3,3.6,5.5c-.8.7-3.6,7.8-3.7,8.2-.4,2.6,6,3.3-5.3,5-2.2,4.3,6.2,4.3,6,5.1-.5,2.8-5-.5-6,0s-9.3,15.5-.7,10.9c-2.9,13.4-3.1-3.4-5.6,3-2.5,6.4,2,2.7,1.9,3.4s-2.4,1.1-2.8,2.4c-.8,2.8,0,8.1-.2,8.4s-4,0-4.4.8c-.7,1.1.8,3.2.7,3.7s-3-.9-2.3,1.5l2.2,2.3-3-.7c4,4.1-1,4.2-1.5,5.7-.7,2.4,1.5,1.2,1.5,2.5s-4.2-.5,0,4.5l-3.7-4.5c-3.1,3.8,1.2,9.6-4.5,11.3,5.6,1.6-.4,5,0,6.4s5.8,2.1,2.2,4.8-1.5-2.6-3.3-2.2c-3.1,1-7.7,9.8-1.5,9.7,3,5.2-9.4,2-5.7,5.3s3.6-2.3,3,.7c-7.1,1.2-8,11.2-10.9,17.2s.7,2.5.4,3-2.5-.2-3.4,1.5-1,4.8-1.8,6.3-1.9,0-2.4.9.5,2.8,0,3.9c-1.4,2.3-9.2,7.7-4.3,7.6l-5.2,3.8c-4.7,12.5-14.8,23-24.4,32.9s-2.8,7.9-7.9,6.7c3.4,3.6,2.2,1-.1,3.3-4.9,8.4-1.9.1-5.2,2.6s2.7,1.5,1.5,3-2.7.7-3.2,1.5c-1.4,2.1-7.4,12.1-9,12.5s-10.5-4.8-3.6,4c-6.5-1.7-3.7,7.9-7.5,6s1-2.4-1.1-2.2-2.6,2.8-2.8,2.9c-.4.2-9,.2-5.2,4.9s8,.7-1.4,4.2l-.4-4.5c-5.4,6.5,2,6.7-9.4,6.7,3.5,1.2,4.4,1.9,4.5,6-3.8-.8,0-5.3-6.3-3.8s-1.1,3.6-1.2,3.8c-.4.4-2.7-1.1-3-.7s.3,2.5,0,3c-.9,1.6-1.7-2.6-3-1.5s-.9,3-1.7,3.5c-5.5,1-7,0-2.7,5.5.2.2,2.5-3,3.7-1.5,4.6,5.7-19.5,1.6-12.7,9-4-1.6-4.9,2-5.6,2.3s-5.8-6.2-1.9,3c-7.2-2.9-8.5,4.9-9,5.2-2.2.2-7.7,0-6,4.5-4-2.4-3.9,5.1-9,2.2l1.5,2.2-10.5,1.1c1.7,10.9-9-5.2-3.8,8.6l-3.7-3c2.1,4.9-11.9,1.4-9,5.2s2.4-1.6,3.3-1.5c6.9.8,8.7,6.9,2.7,1.9l-2.2.4,1.5,3c-2.6-.2-3.9.2-3.8,3-2.7.7-.9-2.5-1.6-2.9-6.4-3.9-5.7,1.7-6,2-.9.7-3.2.5-3.6,1-.8.9,1.7,6.4-3.8,2.5l1.5-.7-1.1-1.9c-.9,3.5-13,5-14.4,6.2s-.8,4.2-1,4.3c-.9.3-7.4-2.7-8.2,1.5s1.4,2.1,1.6,2.2,6.7-1.1,3.7.8-9.4,1.8-9-3c0,2.8-3,10.9-6,8.2s2.5-5.4-2.6-4.4-.8,1.9-1.7,2.1c-3.4.8-20.5,3.9-18.2,7.5s6.1,1.1.4,2.2,2.3-4.2-4.9-.7v-3.8h-2.2c1.5,5.7-2.7,2.1-3,4.1s4.4,3.5.6,5.1c-11.6,5-3.3-3.2-7-4.8-5.9,1.8-5.4,2.6-5.6,8.3l-.7-3c-2.6-1-8.1,2.5-9.4,2.3s.6-3-1.9-2.3c.7,5.4-12-.2-5.3,7.5-6.5-2.4-2.5,2-3.8,3.8s-7.8.2-5.1-2.9,5.9.2,5.2-4.2-11.5,7.9-12.4,7.8c-2.3,0,1.4-4.1.4-5.2s-4.8,2.2-5,2.5c-2.5,3.2,1.5,3.8-.6,5.8-1.2-2-2.3-7.2-5.8-6s-4.2,2.8-4.3,3,3.9,2.6,2.2,5.2c-1.3-2.9-3.9-1.9-4.5-2.3s2.7-4.7-3-1.1l1.5,4.1c-3.4-3.3-1.3-5-4.9.7l-2.6-1.1,3-3c-.3-2.7-7.7-.2-8.9.5s0,2.1,0,2.2c-2.6,1.6-2.3-2.7-3.4-3s-4.9,4-8.2,4.9-7.6,0-7.9.3c7.3,5.9-9.4,8.7-7.5.7-3.7-.6,1.2,5.5-7.2,1.5-1.5,0,1.9,4.7-3.3-.7-2.7,1.8,1.2,6.4-2.1,7.5-5.1,1.7-8-2.5.5-2.6,1.1-3.2-12-4.2-6.7,2.6l-6-3.7,2.2,5.2-8.2.4.7-5.6c-2.9,3.2-7.6,1.2-10,1.6s-1.5,2.6-2.4,2.9-3.1-3.3-6-2.8-6.8,4.3-7.2,4.3c-3.5-1.3-6.1-4.2-6.7,1.5-.2.2-2.2-1.2-3-.7s0,5.3-5.8,4.3c-7.4-1.4,5.8-9.2-7.7-3.2s-.5,2.4-.9,2.5c-3,1.1-14.1.9-11.1-5.1-3.1,5.3-3.7,2.3-6,3s0,2.2,0,2.2c-1.8,1.1-1.3-1.6-1.9-1.5-1.5.2-1.6,2.6-3.4,1.5s.5-3.5-1.5-2.2.3,1.9,0,2.1c-4.1,2-14.5,2.6-17.1-2.1l.4,8.3c-2.7-2.6-4.2-5.5-8.6-4.5,0,0,.8-1.5.8-1.5-2.6-.7-4.9,2.4-7.5,1.1s5.3-.2,1.1-3.4l-5.2,4.4c-4-.6-2.2-1.3-1.9-4.5-8,8.7-21.9,0-33.7,3,3.1-3.9-3.7-4-5.3-3.4s-.5,2.4-.8,2.5c-3.8,2.1-2.4-2.8-4-3.6s-1,2.8-2,3.6-8.4,1.1-8.8.9,0-2.3-.7-2.7c-1-.5-21.1-3.6-22.2-3.4-2.3.5-1.1,3.2-2.6,4.2-4.8,3.4-3.5-4.3-5.6-4.1s0,3.4-4.9,4.5c6.4-11.5-15.8,1.2-19.5-2.3.5-4.6,2.7,1,5.6-1.5s1.6-4.2,0-4.5.3,1.9-.8,2.3c-6.8,2.5-5-1.1-5.7-1.3-3.6-1.4-12.9-.9-9.5,3.6s1.5-1.5,2.6-1.4,7.4,1.1,4.9,2.9-11.6-1.5-12-1.9c-1.6-1.4,2.7-6.3-4.1-5.6-3,.3-1.7.2-1.8,3.7l3-2.2v4.5c-5.8.6-3.2-3-8.2-2.3,0-3.3,7.2-.3,3.3-4.5l-10.8,5.2c-.6-5.4.4-2.7,3.7-4.5-2,0-3.5-1.5-5.4-1.4s-3.4,7.4-4.7-.9c-8.6.9-3.6.7-4.8,2.2s-2.2,0-2.3,0c-.4,1.2,1.7.4,1.6,1.2-1.3,5.6-8.6-2.3-2.3-.4-3.7-2,.4-5.1-.8-6-2.8-2.2-5.9,3.2-3.7,6-2.7.7-1-2.7-1.5-3-1.1-.8-4.5,2-4.5-3.7-1.4,8.7-8.5,4.8-15.7,5.2,1.3-3.2,8-.4,8.2-.7,5.9-6.9-11.9-3.7-13.7-3.9s-1-2-1.8-2.2c-1.2-.3-4.7,1.4-5.5.8s.4-2.4-.7-3.4c-1.6-1.4-9.9-1.6-4.5,4.9-4.2-1.4-22.5-.7-9-7.5-4.2.2-10.6-.6-14.4-1.5s-10.1-7.3-8.8,0c4.2-2.9,1.1.3,2.6.8s2.9-.9,3.7-.7,6.7,3.6,8.4,4.4,7.1-.7,1.8,1.5-16.7-5.9-20.2-3.7l2.2-2.2c-3.9.9-1.9-3.2-2.9-4.2-2.1-2.1-12.7-5.6-14.3-4.1s1.8,8.6-4.1,2,1.3-5.6-7.2-4.3l2.2,2.6-1.1.4c-5-1.3-.9-5.7-1.1-6-1.6-1.4-14.6-1.2-9.7-4.5-1.9-1-2.4,1.5-2.7,1.5-4.7-.2-3.9-3.8-5.5-4.2s-5.7.6-8.6-.3-.4-2.3-.5-2.3c-.6-.2-1.3,1.4-1.8,1.2-4-1.2-5.6-5-6.4-1.2,1.3-2.8-4.1-2.7-3.7-4.9s3.7-1.7,2.2-3.4-2.2,2.8-3.4,3-2.6-2.2-3.3-1.5,1.3,3.6-1.5,3c0-3.6-2.3-3.9,1.5-5.2-1.4,0-10.6-.7-11.1-.9-2-.8-2.2-4.9-2.4-5.1-.5-.5-10.4,3.1-11.2-5.2-2.7-.7-1,2.6-1.5,3-1,.8-6.1-5.2-7.3-5.9s-3.3-.4-4.5-1,0-1.8-.2-1.9c-1.3-.6-4.4.3-5.2,0s1-2.1.7-2.2-7.2.2-7.5,0-1.2-3.8-3.2-5.8-3,.2-4-.9,0-3.4-.3-3.8-1.8,1.9-2.6,1.5-1.1-2.3-2.4-2.9-3.2.3-4.8-.5,0-5.2-2.9-1.2c1-5.7-4.5-3.3-5.3-4-2-1.9.2-5.5,0-5.7s-4.6,1.6-6.3,0,0-4.3-1.6-4.6-2,2.5-2.6,2.2-1.4-4.4-2.3-4.9c-2-1.2-4.3.5-4.5.4s0-3.3-.7-4-2.6-.5-3.6-1.5c-2.2-2.2-3.5-7.2-3.3-1.2-5.2,0-6.5-2.7-3-6-5.3.8-1.5-1.9-2.6-3-1.7-1.7-5.6-3.6-7.9-2.2,4.6-3.8-4.6-5.2-3.4-9l-4.1,3-.8-9.7c-2.9,0-.7,6-5.4,3s1.8-3.3,1.7-4.9-2.9-.3-3-.4c-1.6-2.7,3.1-7.1-7.5-4.5,6.2-6,.6-5.3.1-6.1s.2-3.9-.1-4.4-2.5.4-2.9,0c-2.7-3.7-4.8-10.1-10.6-9.6l3-5.2h-4.4c.5-5.3-7.9-10.9-10.6-15s2.1-.4,1.5-1.5c-1.2-1.9-5.9-8.3-7.5-8.3-1-2.3,2.5-1.1,2.2-1.9s-4.2-2.6-4.4-2.8c-1.9-2.6-3.4-7.8-4.6-9.8s-2.4-.6-2.8-1.2c-.6-1,1.2-3.5-.7-5.3-4.2-3.9-4.5,7.5-5.6,2.6s3.5-4.6,3.7-4.9c.5-1.1-3.5-12-6.7-8.2,4.6-2.1-.3-5.5-1.4-7.6s1.2-2,.3-3.6-3.8-1.9-4.4-3.2c-1.1-2.3.7-4.8.3-5.8s-1.9.9-2.3-.3c-1.7-4.9-1.6-5.7-.7-11l-5.2,1.5s1.5-.7,1.5-.7c-5.6-5,3.6-7.7-4.3-9.8-.6-.5.1-2.7,0-2.9-.7-.8-3.3,2.8-3.7.4s2.3-5,2.3-6-1.3-.3-1.5-.9c-2.4-8,.5-.9-5.9-2.8.4-5.8,5.9,1.8,6-5.3s-3.5-4.3-4.2-5.6,1-3.4.3-4.4-2.7.2-3.5-2.1c-1.6-4.2,1.9-2.8,2.1-3.6s-1.6-9-1.9-9.4c-1.3-1.8-6.2,1.3-6.4-1.1s10.5,1.3,4.8-5.6c0,0-4.1,3-4.1,3,2.9-4.9,0-9.7,4.5-12.7-5.2,1.5-2.1-4.9-3.9-7.3s-4.3-1-4.3-2.1,3.8,1.5,3.6-6.1-2-1-2.1-1.1c-.2-1.5,2,.3,1.5-2.2s-3.6-5.3-3.8-5.7c-.3-.9,3-4.6-1.5-2.6,6.2-4.1,1.1-8.4,3-14.2l-1.5.4c2.4-3.9,0-5.4,0-7.5s1.6-.4,1.6-.8c0-.9-2.5-5.6-2.3-6,.5-.8,2.9-.3,3-1.9s-2.8-.9-3.5-3.5,5.4-15.5-.3-13c2.1-4.7,1.3-4.7-3-6.4,8.5-3.3,4.4-6.8,4.6-12.1s2.5-1.1-.2-3.6l.8-25.2-2.3,3-.8-1.1c3.8-4.8.6-9.4,6.8-10.5-1.5-5-9.4,5.8-9,2.3s3.7-3.5,3.7-3.8c.3-1.6-5.1-6.8,2.2-1.8-3-5.9,2.9-11.3,3.5-14.2s-1.4-2.5-1.2-3.4c.6-3.3,2.2-6.6,1.5-10.1l1.5.8c.1-1.3-.3-10.2-.7-10.5s-3.3,1.2-3.7.7c-1.3-1.5,2.6-7.3,3-7.5s2,2.3,5.2.7c.2-3.3-4.5.4-3-4.1s2,0,2.3-.9c1.2-3.9-1.8-9.8,3.7-12.7-4.4-8.5-1.8-4.4-.7-6.6s-.5-2.6.3-4.2,4.2,0,2.6-3.6-1.8.3-2.2-.5c-.8-2,1.9-3.2,2.3-4.5.7-2.4-.2-5.1,0-5.6s2.1.4,2.9-1.3c1.4-3.3-.3-7.7.6-11.5s5.3-4.1,3.3-8.2l1.5,1.5c1-2.3-.7-8.2-.7-8.6,0-.7,2.3-.8,2.3-1.5,0-1.3-2.8-3.7-2.2-5.8,1.6-5.7,1.8,5.5,5.2,2.5s-1.5-3.2-1.5-3.4c.1-.6,2.3-2.3,2.6-3.4.7-2.8,1-4.8,1.9-7.9s-1.1-4.5-.7-5.5,2.5-.3,2.8-1c1.9-4.5,4.7-11.3,2.4-15.5,3.7-.4,2.7,0,3.4,3,1.5-4.8.1-10.1,5.6-11.3.3-1.2-1.4-.4-1.5-1.2-1.2-13.4.4-6.2,3-7.8,2.6-1.6,2.3-7.3,5.3-5.2,1.1-2.9-5.4-.2-3.7-3s1.9-.2,2.2-1.2-.2-6.8,0-7,2.6.4,3.9-1.1-.2-2.6.3-3.4c3.2-5.3,7.5-10.5,4.1-16.5,5.4,3,2-.7,3-1.5s3.4,1.1,3.7.8c.5-.6-.9-3.5-.6-4.7,1.3-4.3,4.3-4.3,4.7-5,1.6-2.8-1.6-8.3,5.6-7.5-7.5-2.2-.5-3.1-.1-3.9s.5-7.7,3.1-3.6l-.7-3.7,4.5-.4-4.5-1.5c1.5-4.7,4.8-4.3,7.2-9.3s-2.5-5.4,3.3-1.6c.3-2.7-.2-3.9-3-3.8,5.5-.7.6-3.9,2.3-8.2l1.9,6c2.4-.9,1.9-5.7,2.2-6,1.2-1.2,5.3-1.1,5.6-1.6,1.7-2.3-3.3-5.1,1.4-8.9s4.5-.6,4.6-.8c3.1-4-2-2.1-2.2-2.3-2.3-2.2,4.5-3.1,5.2-4.9-10-2.6-.4-2.7,1.7-4.8s4.7-13.4,9.5-12.1c0,0-2.2-2.2-2.2-2.2.8-1.8,6.2-4.9,6.4-5.2,1.1-1.5-.6-3.6-.4-3.8,3.7,0,4.2-3.3,3-5.3,5.2-1.1,4.6-.7,6.9-5.8,1.8-2,5,1.1,2.1-3.2,3.1,1.2,4.3-6.8,5.4-8.1,1.9-2.2,15.5-5.2,6.2-5.4-1.7-4.9,3.9-2,4.1-2.3s-.4-2.6.4-3.7c1.7-2.4,4.5-6.4,6-8.3s9.5-4.7,5.6-8.3l3.7,2.2c-1.2-5.7,3.8-3.4,2.3-9.7l2.2,2.2c1.1-1.2,5-8.4,5.4-8.8,1.3-1.3,5.3-1.5,5.9-2s2.5-5.8,3-6.3,1.8.9,2.2.4c1.1-1.2.6-3.7,1.7-4.7,2.5-2.4,11.4-3.3,5-6.2,1.6-2.1,5.7-1.2,6-1.5-2.4-4.8,2.7-6.4,5.7-9.2,2-2,0-2.3.4-2.6,9.5-1.8,0-5.5,8.2-1.6-1.6-6.3,3-4.2,3.8-5.3s-1.7-3.2,4.5-6.3,7.3,1.2,3.1-2.3-3.5,2-3-1.1c1.3-1.1,6.5-.5,6.7-.8.8-.8-3.7-6.6,6-5.3-3.6-5.3,15.6-11.8,12.7-17.2s-2.8,2.3-2.2-.7c3.8-.8,6.3,2.8,7.5-1.5,1,9,3.9-3.3,5.3-4.2s4.6.7,6-1.1-2.9-.8-1.3-2.9,11-4,11.9-4.6-.8-1.7-.3-2.3c1.9-2.1,3.5-5.8,3.8-6.1,1.3-1.1,5.3-1.3,6.3-1.7s.6-2.5.7-2.7c.2-.2,3.8,4.4,6,.7s-8.1,1.7-4.1-2.2,4.5-.2,5.5-.8.6-3.9,1-4.3c1-.9,7.7-3,9-3.9s2.3-4.1,3.8-5c1.5-.9,3.1.1,4.3-.6s1-3,2.7-4,10.9-2.4,12.8-3.3.8-4.7,6.1-2.9l-1.5-2.2c3.4.4,5.4-.5,8.2,1.5.2-.8-.2-3.5,0-3.7.4-.4,10.6-2.3,12.2-3.1,1.7-1.6,7.1-5.5,8.8-6.3s3.5.8,4.5.4-.2-1.9,0-2.1c2-.8,4.3-1.6,6.4-2.3s3.7,2.5,6.2-.9-3.1-2.3-1.5-3.7,7.3-3.1,6-1.2-5.7,2.5-3.7,4.1c3.3,2.7,3.5-2.1,3.8-2.2.9-.5.3,2.5,3.2,1.5s10.1-5,6.1-4.5h-6.8c0,.1-1.1-1.5-1.1-1.5l7.5-2.3c-1.2,4.7,5.1,4.3,5.2,0l2.3,3,.8-3.7c2.8-.6.7,2.5,1.9,3,1.8.8,4.1-2.7,4.6-2.9.8-.2,10.9-.2,7.8-3.1s-7.9,4.4-7.5-1.5c4.9,2.4,4.4-.3,6.2-.6s5.7,2.4,5.8,2.1c.3-.6-1.3-2.1,0-3.4,1.7-2,9.4-1.1,8.4-4.8,1.5,2.3,11.9-2.4,13-2.2,2.9.6.4,4.8,3.9,4.4s1.6-2.1,2.4-2.2c2.4-.5,14.4-1.3,15.1-2.3s-2.3-4.5,1.3-4.3.5,1.6,1.8,3.5,8.9,3,5.9-2.1c1.4,2.7,5.3-2,6.7-.8s-.3,2.7,0,3c1.2,1.2,7.6-5.8,5.3.4s-1.7.1-2.1.5,0,2-.2,2.1c-.7.3-1.5-2.1-3-1.9-5.7.4-8.8,8.9-3.4,8.6s-.5-11,5.6-6.6.6,4.2.9,4.4c2.4,1.8,9.2-5.7,2.2-4.5l3-.7-1.5-4.5,9.3,4.5,2.6-4.6c1.6,3.5.6,7.8-3.8,7.5-1,3.4,7.8,1,8.2.7s-3.3-3.2-2.3-5.6,2.4.1,3.8-1.5-6.9-6.8,7.5-1.1l-9.7,4.9,4.5,3.4,1.9-3.7,1.6,1.8-.6,2.5-15.1,1.7-1.2,5.2c-2.9.6-.3-2-.7-2.2-2.4-1-4.6,0-5.2,2.2l2.2-7.5c-2,3.6-9.4,1.8-9.7,2.2s.4,4.9,0,5.2-2.9-.4-3.8.3c-2.6,2.3-1.4,4.8-8.2,4.2,7.9,4-2.2.7-2.7.7-1.6.2-2,1.9-3.2,2.2s-3-.7-3.5-.6c-.7.3-3.3,7.6-3.4,0h-2.2c1,8.4-6.5,4.6-8.3,5.3s1.1,1.2.4,1.5c-2.7.6-14.8,8.8-12.4,3-4-1.4-2.7,3.5-5.1,5.2s-6.2.5-6.9.8.5,1.8-.4,2.3-3.6-.4-4.1,0,.3,2.7,0,2.9c-2.3,1.3-7.1,1.8-9.8,3.3s-5.1,2.2-6.5,2.9.2,1.8-.5,2.2c-3.1,1.7-3.5,2.8-3.7,3-.5.3-2.3-.5-3.2,0s.4,1.7-.6,2.2c-2,1-8.7,1.5-9.2,1.8-1.6.9-2.3,4.1-3.8,5.2-4.3,3.1-15.8,3.7-12.7,8.7-6.3,0-2.8,5.2-9.7,0,1.4,5.9-3.6,2.4-6.7,6.4l3-.4c.5,4.3-4,2.5-4.5,3s.4,2.5,0,2.9c-4.2,3.1-7,1.4-10.3,5.2s.3,2.9,0,3.2-3.4-.5-4.6.3-.4,3-.8,3.3c-.9.7-5.8,3.1-7.9,4.5s-3.7,0-4,.2-1,5.8-1.5,6.8c-2.5-3.8-9.7,6.7-12,8.7s-4.1.6-5.2,1.5-.4,2.8-1.5,3.7-3,1-4.3,2.1,0,2.3-.3,2.6c-2.3,1.7-10,3.5-10.3,3.9-.5.7,1,2.7.6,3.6-.7,1.5-10.1,5.6-11.1,6.6s-4,8.1-5.6,9.4-7.1,2.5-7.5,2.8c-.9.7,0,2.4-.9,3.2-1.8,1.4-5.7,2-6.3,2.5-1.1.9-.3,2.5-.9,3.3s-3.4-.9-2,3.8,6.1,1.8-.5,3-.8-2.2-1.1-2.2c-8.4-.9-2,3.4-2.2,3.7s-4.1.9-5.2,1.9-.9,4.1-1.7,4.7-3-.4-4,.9,4.3,3.7-2.6,3l3.7,1.1c-1.4,3-5.6,1.3-6.7,2s-.3,2.7-1.2,3.7-3.2.5-3.4.8c-2.3,3.2,1.9,13.9,4.4,5.2-1.6,4.4,7.5,1.3,4.9,4.5s-2.7.5-3.4,1.1-3.5,5.2-6,2.6,1-6.4-1.5-9-3.7,1.9-4.1,2.2c-4.3,2.9-5.5,4.1-1.9,6.7-5.8.4-9.8,10.9-15.7,11.3l2.2,2.2c-3.8,1.8-4.3,3.7,0,4.5-5.5,2.9-3.3-.8-4.1-.7s-.9,2.5-1.3,2.8c-1,.7-2.4.2-3.6,1.5-2.2,2.4-.6,6.5-6.4,6.9,2,3.1-4.8,6.2-6,7.7s-2.7,8-3.3,8.8-1.9-.9-2.1-.6c-.8,1-4.5,5.2-4.6,5.5-.9,2.1,2.4,1.9,1.5,2.6s-4,.4-4.9,2.3,1.1,4.5-.2,6.3-2.6,0-2.9.6c-2.1,3.4-1.4,7.8-6.9,7.4-.8,2.6,6.4,2.2,3.7,4.5s-4.3-5.9-8.3,1.1c-.7,3.6,2.8.9,3,1.1,1.7,1.7-6.6,8.6-7.5,11s2.5,10.6-2.9,2.5c-1,7.3-7.7,2.7-6.8,12l4-1.4c4,2-6.1,10.7-5.1,3.7-3.1,1.4-2.3,6.2-2.6,6.7s-1.9-.8-2.3-.4c-1.1,1.3-.5,3-3.7,3.8,4.3-.8-2.6,8.9-3.7,11.1-2.1,3.9-4.6,9.2-7,13.9s-3.1,1.6-3.9,3.1.7,2.3,0,3.8-2.7.7-3.1,1.5c-1.1,2.3-4.1,11.8-4.8,14.7s1,2.7.7,3.3c-.8,1.8-2.8-2.5-3.7-1.5-4,4.4,1.2,3.5,1.5,3.7,1.5,1.5-6,8.6-6.9,10.7-1.2,1.4-1.2,13-4.3,11.1-.8,2,2.5,1.3,1.5,2.6s-3.6,1-3.7,1.1c-.5.5-1.8,13.7-2.2,14.2s-7.4-.7,0,4.5l-3,.4c-1.2,2.8,3,1.4,2.2,2.6-3.9,4.8-4.1,4.4-3.7,10.5l-.7-4.5h-2.2c1.6,2.6-3.8,10.3-3.7,10.9,0,.8,3,.5,2.1,2.9s-5.6,2.1-.7,3.1l-5.2,1.1c1.4,4.5,1.1,8.1-1.6,11.9l-1.4-.6c-.3,5.7-3.1,10.2-3.6,16.7s2.4,3.7,1.3,5-4.1-.8-3.7,3.4,2.5,3.4,2.2,4.4c-.5,1.4-3.6,1-3.7,1.2-.3.3-1.3,6.7-1.7,8.1s-2.1.8-2.1,1.3,3.5,4,.7,7.9l3-1.5c-1.2,1.2-2,5.6-2.2,6s-1.9-1-2.2-.8,2.5,4.1,1.4,7-4-2.6.8,8.7c-1.4-5.2-5.3-.9-4.5,1.5s2.1-.2,2.2,0c1.8,5.7-2.8,3-3.7,3.7-2.9,2.3,10.8,7.4.8,9.4,7.4,2.7,3.6,6.2-2.3,7.1,5.1.3,1,2.5,3,4.2s3.3-1.7,3,.7c-6.9,3.4,1,4.6-.7,6.4s-2.5-2-3-1.5c-5.5,6.3,4.2,7.7,3,10.5s-2.1-.7-3,3v-4.5h-2.3c1,6-3.5,1.3-3.7,1.5-.8.9,7.8,7.5,9,6.8-3.9,2.5.6,2.4.7,3.4s-2.8.9-3,4.5c-.3,5.2,5.6,4.6-.7,6.4l-.7-4.5c-1.2,1.8.7,7.4,0,8.2s-3.5-1.2-4.7-.8-.9,4.3-.5,4.6c1,.7,4.7-4.2,7.4-2.9s-.1,1.6.2,2,6,2.1.9,3.3-11.1-.7-1.1,1.5l-1.5,2.2,3-.7-5.2,9.4,1.1,1.1c1.8-7,6.2-5.1,4.2,1.1s-2,.2-2.2.5c-.4.8,0,2-.1,2.2-1.1-.3-4.9.3-5.3,0l.3-16.6-1.4-1.4c-3,.8.2,12,.2,14.6.1,10-1.2,17.2,1.1,27.6,2.3,10.4,2,.9,2.1,1.6.3,1.8-1.8.7-2.3,3-.8,3.4,2.9.5,2.3,3.4l-3,.4,3,1.2v2.2l-2.9,1.5c7.7.5,1.5,1.2,4.5,5.2l-3.7.7,5.3,2.7c.5,3.5-2.7,1.4-3,2.2-1.5,3.4,9.5,1.7,3,3.7v2.6c7.2.3.2-5.2,6.8-3.7s-.5,6,6.7,5.3c.4,3.3-2.9-.9-4.5,1.9s3.7,3,1.5,5.6c-1.3-1.9-5.6-3.5-6.1-4.1s.9-5.8-4.4-3.1,4.8,3.4,6,7.2h-7.5v2.3c7.7-1.4,2.2,5.6,3.7,7.5s2.8-.2,3,0c.4.4-3.2,6.1,3.7,3.7-1.8,3.6-8.7,7.5-.7,6.7v2.2c-4.9-.2-2.9,5.2.4,6s1.3-2.9,2.5-1.5.3,6.2.7,7.8,2,0,2.3,1c1.9,5.3-2,4.5-2.4,5.2-2.3,4,2.9,3,3.1,3.3.3.4,0,10.2,3,3.8,2.6,5.1-3.6,4.4-2.9,7,1.3,4.3,4.5-.8,5.1.5s.9,10.2,1.7,11.8c2.1,4.3,6.2,3.7,6.6,3.9s.8,7.4.8,7.8c-.1,1.4-2.6,3.1-2.3,3.4.8.8,2.7-2.2,4.4-1.4s3.8,15.4,6.9,2.1l-3.7,3-1.5-12.7c-5.9,2.1-4.2-12.1,0-8.2s.8,6,1.7,7.6c1.7,3.1,4.2,2.6,4.3,2.8.3.5-1.1,2.7-.8,3.2,1.1,2,3.7,6.9,4.6,8.3s3.5,1,3.7,1.2-1.3,2.2-.8,3.2c2.1,3.9,4.2-1.2,5.3,7.6,0,.4-1.6.5-1.6.8.8,4.2,7.6,7.4-1.5,5.6,1.5,2.4,2.5,2.7,0,4.5,4.4.8,4.3-3.4,6-6-.9,8.7,6.3,2.1,3.8,9l3.7-2.2c-1.5,5.7,2.3,5.7,4.3,8.5s-.2,2.7.3,3.4,3.4.7,4.3,2c10.9,15.1.5,9.1-.7,10.1,0,0,4.1,6,4.1,6,.9,0,5.4-12,6.4-2.2,0,0,1.5-1.5,1.5-1.5,2.1.5-2.6,12.8,2.3,9.7.3-.2-2.2-1.8-.6-3.9,3.2-4.3,2.7.9,3.3,1.6,1.2,1.5,5.6,7.3,6,7.6.8.8,2.9-.5,4.9,1.1,3.4,2.7,4.6,8.1,1.6,11.9s-6.4,1.8-3.1,6.5,2.8-2.4,4.7-2.1c4.9.9,4.7,4.9,5,5.1s1.9-1.1,2.6-.7c.9.5,5.1,4,4.9,1.8-.6-7.4-6.2-3.2-6.7-3.4-1.7-.6-2.6-12.9-5.3-3.7-1.8-2.3,2.4-12.9,4.5-5.6s-2.4,0-1.5,1.9h5.2c-7.3,10.1,8.8-.3,9.8,13.4,1.8,1.5,4.5-.8,4.8-.6,1.4.6,1,3.3,1.5,3.7,1.7,1.2,3.8,1,4.7,1.8s3.6,6.3,4,6.5c1.2.7,2.5-1.8,3-1.5s-.3,2,0,2.2c.7.4,2.1-.3,2.8.2s-.2,1.6.6,2.1c2.1,1.3,9.4,3.7,10.6,4.6s-.3,2.4.2,2.8c3.2,2.3,7.1,6,9.4,7.6s3.4,0,4.6.9,0,2.7.8,3.3,6.7,1.5,8.9,2.7.3,2.2.9,2.5c1.2.6,3.2-.9,4-.5s4.8,3.5,5,3.8-1.7,3.1.4,3.8,1.7-1.5,2.6-1.1c1.9.6,11.5,5.1,12.4,6.4s-1.7,5.9-4,4.4-1-4.2-6-5-2.6,1.4-3.9,1.4c-.3-.8.4-3,0-3.9-2.1-4.5-10,1.1-7.5,4.7s2.1-2,3.4-2.3c2.5-.6,2.2,1.5,4.1,1.6,2.6,6.2,2.8,1.6,8.2,3.8.4,3.2-3.8,1.8-4.5,2.2-1,.7,3.2,6.9,5.3,5.2,2.9-2.7-8.7-4.2,3.3-6.7,1,.3,1.6,2.4,2.8,3.3,2,1.5,4.6-1.5,1.5,3.4,4.5,1.3,2.1-2.9,5.2-3-2.4,7.3,6.2,2.2,8.2,3s0,2.2,0,2.2c2.3.6,1.2-1.9,1.9-1.5,1.1.7,4.7,6.7,5.2,6.7s5.1-5.3,4.9,3c6-6.4,8.1,2,12.5,3.7s7.7-1.6,8.5,2.3c0,0,3-3,3-3l-1.1,6,1.9-2.2c3-.5,1.3,2.9,1.5,3,1.2.8,4.1-2.5,4.5-2.2.7.4,0,6.7,3,2.3-.3,5.1,4.5,1.7,6.9,2.3s2.9,2.8,5.2,2.6c4.6-.4,2.4-2.6,4.1-3.2,7.3-2.8,5.9,6.2,6.3,6.7s4.5-2.4,6.7,1.5c1.4-12.3,2.5,2.8,9-3l-3,3.7c1.7-.7,11.6-1.2,12-.7s-2.9,4.4,2.6,3c1.1-.3-.4-2.4,1.2-2.3s6.2,5.5,8.8,5.8c.8.8,32.6.4,23.8,3.9,1.9.3,1-2.4,3-2.3s.5,1.8,1.4,2c8,1.4,15.1.9,23.2,1.3s4.5,2.1,6.8,1.9,1-1.8,1.3-1.9c5.1-1.7,1.2,1.5,1.3,1.7,4.5,8.2,2.9,1.7,3.7,0,1.3-2.3,3.1,1,3.3.9,1.9,0,11.8-1.5,13.1-1.3s.3,1.8,1.1,2c1.8,0,5.2-2.4,4.2,1.7,2,1.4,1.1-2.1,1.9-2.3,5.7-1.7,4.6,2.1,4.8,2.3.8.7.8-2.1,2.6-2.3s2.3,2.1,3,2.3c1.8.7,2.1-2.6,4.5-1.5s0,2.3.7,2.3,0-2.3,1.6-3,4.5,3.2,5.2,3,0-2.1.4-2.2c1.7-.9.9,1.5,3.4,1.6s3-4.8,3,2.2c3.4-6,6.8,0,8.9,0s.9-2,4.7-2,4.1,2,5,2,.3-2.2,2.3-2.3c4.7-.2,9.4,2.3,10.6,2.3,11.1-1.2,29-2.8,40.1-1.6,3.4.8.3,4.9.8,0,5.7-3,5.2,0,10.1-.3s.8-2.1,1.4-2.1c2.8,3.8,9.1,1,11.2-.1,3.9-.2,8,.3,11.9,0s0,1.6,1.2,1.5,0-2.1,1.9-2.2c9.4-.4,22.4-3.3,29.8-1.4,2-.2,1-2.2,1.7-2.3s1.4,1.6,2.3,1.5c11.1-1.7,21.5-4.8,32.9-6,.3,0,.5,2.8,1.9,1.5s-.2-2,0-2.3c.6-.6.8,2.7,3.2,1.5s1.6-3.8,3.1-4.2c2.5-.7,10.9,1.2,12.2-2.6,4.3.4,9.9.2,14-.8s.7-2.7,1.7-3c2.1-.5,11,.3,11.8,0s.6-1.9,2.4-2.3c2.7-.7,5,.2,5.9,0s3.4-2.9,3.6-2.9,1.5,1.6,4.5.6,2.5-3,4-3.4,4.7,3.4,2.6-1c3.3.5,6.8.7,10.1,0s1.9-2.5,3.1-2.9,3.3,1.3,5,.6,2.2-2.9,3-3.4c1.7-1,4.3,1.3,3.6-2.5,2.6,5.8,3.3.9,5.3,0s.3,2.1,1.5,1.5,0-2.5,1.3-3c3-1.3,10.1-1.6,11.7-2.3s.8-2.5,1.8-2.9c3.5-1.4,7.7-1.6,10.9-3s.2-1.9,1-2.3c4.2-1.8,9.5-2,12.9-3.4,3.4-1.4,1.9-2.9,3.2-3.6,5.6-2.7,2.2,2.3,3.2,2.5,1.7.4,2.4-5.1,2.6-5.2.5-.3,3.3,1.2,4.8,0s.3-1.9.6-2.1c.7-.5,1.9,0,3.3-.9s.3-2.2.4-2.3c.2-.2,1.8,1,2.2.8s-.2-2.1,0-2.2c1.1-.6,3.9,1,4.5.7s0-2.2.7-2.6c2-1.1,4.1-.8,5-1.4s4.4-4.9,6.3-6,6.3-1,6.7-1.2-.5-2.6.4-3.1c3.6-1.9,13.9-1.7,12.3-8.1l3,3.7c-.2-7.1,10.6-8,14.1-10.7s0-2.4.9-3.2,3.4-.5,4.1-1.1,0-2.4,1.6-3.7c1.7-1.7,9.2-2.7,6.3-6,1.8-1.5,5.4,2.5,6,1.5.9-1.5-2.3-6.7,3.7-4.5l-3-1.5c1.5-1,6.6-3.1,7.3-3.9s-.3-3,.3-3.5c1.5-1.4,8.1-7.3,8.1-4.6-3.2-7,10.8-2.2,4.5-10.5.2-.3,3.6-.2,5.2-1.2,2.6-1.6-.7-5.7,4.5-.4-2.1-5.9.8-4.6,2.1-6.1s-.2-2.4.2-2.7c1.4-1.2,10.8-.3,2.2-3.9,4.9,0,7.9-7.7,12-6.8-3.5-5.4.6-3.3.8-3.7.4-1-1.1-3.3-.8-3.7s2.5.3,2.8-.2c.9-1.3,3.6-7.3,4.7-7.8,2.2-1,3.8,2,4.5,1.2s-2.2-3.9-.3-8.9,8.2-7.7,9-9c1.2-1.9,4.7-8.9,6.4-11.8,2.4-4.2,4.7-17.6,9.7-13.7-4.4-7.3,7.8-8.6,2.3-13.5,0,0,3,0,3,0-4.6-6.1,10.1-13.4,6-18,.2-.5,2,.4,2.3-.5,2.2-6.4,2.2-13.6,4.7-20,.9-2.2,7.2-7.6,5.8-11.1l-1.5.8.8-6,3,2.2c1.1-7.9-5.2,1.9-1.3-8.1,0-.3,1.8.3,2.1-.6,2.5-7.5,1.3-10.8,4.9-19.7s-.5-5.8,1.5-6.8,11.8,3-.3-3.5c2-1.7,1.7-11.8,2.2-12.3s6.7,2.4,5.2-4.5c-3.6.4.6,5-4.5,1.8v-2.6l5.3-.8c-2.8-4.8-5.8-16.5,3-12-2.7-4.2-4.8-11-3.6-16s7-4.4.6-7.3c7.9.2-.7-21.6,8.2-14.3v-2.9c0,0-5.3-.5-5.3-.5,3.1-11.2.5-23.9,1-35.2,0-8.3,2.5-17.4-.2-26.3,0,0,1.5-.9,1.5-.9l-.8-15.3s1.5-.7,1.5-.7h-3l2.3-1.1c.3-2.3-3.4-10.8-3-11.2.6-.8,2,.8,2.2.4,1.5-2.7.8-7.6-3.7-6,3.9-4.7,5.5-12.1-1.5-12,3.4.2,5.1-5.1,3.7-6.7s-4.5,2.5-3-1.9,2.9.8,3-3.7-2.6-3.9-2.8-4.7c-.6-2.9-.5-15.9-.9-16.6s-3.6-1-3.7-2,2.1,0,2.3-.4c.9-1.7-2.2-2.1-2.2-2.3-.3-2.3,2.4-1.2,1.5-2.6s-2.7-.8-3.1-1.6c-.9-2.3-1.4-22.4-2.3-26.8-6.3-2.9-1.6-13.4-8.1-14.8,8.5-3.7-1.5-1.5-2.2-5.7s2.9,1.9,3.7,1.2c5-4.7-10.5-8.3-1.5-12.4l-6.7-1.5c2.6,0,6.4-9.1,2.3-10.1v4c0,0-2.3,1.3-2.3,1.3-1.2-2.6-.3-10-.7-11.5s-4.4-2.2-5.6-3.7c-2.4-3-1.5-7-2.1-9-2.3-5-5.1-2.7.2-6.9.2-3.7-5.8-4.5-6-4.9s1.2-2.5.8-4.1-2.6-2.7-2.3-4.5c.6-3.1,2.1,1,2.3,1.1,2.9,1.2-1.6-5.8-2-6.1-1.3-1-3.7.3-4,0-1.9-1.3-6.4-16.5-9.8-19.5,4.4-4.1-2.2-1.4-.8-6-2.7,6.7-2.7-5.6-3.3-6.8s-2.8-.7-3.1-1.5c-.6-1.1.4-2.5,0-3.1-.5-1-2.3-1.2-2.5-1.6s.6-1.6.3-2.1-2.4-.5-2.6-.8c-.4-9.3-19.1-28.3-25.2-36-9.1-10.5-1.7-3.7-2.9-5s-2.5,0-2.7-.2-1-5.9-2.4-6.6-3.1,1.2-3.6.7.2-2.4-.4-3c-4-4.1-8.9-6.6-12.2-9.9s0-3.2-.2-3.6-4.8,1-6.6-.9.2-2.9-.4-3.7c-1-1.2-3.4-.2-4-.9s-5.2-5.5-5.4-5.9c-.5-1.2,3.2-.8,1.9-3-2.2-3.9-4.4-.4-5.3,2.3.6-3.2-5.3-1.7-3.9-4.9s2.8-1,3.2-1.8c3.6-6.2-7.3.5-7.9,0s-2.4-8.2-.8-9c-2.9.8-4.2,1.3-7.5,4.5,0-4.3,1.5-5.4,5.2-6.7-5.7,1.2-5.2-5.2-6.1-5.9-3.4-2.7-4.8,5.6,0,6.6-3,1.1-6.6-.5-9.2-2.2s-5.5-6.7-7.3-7.5-.2,2.3-2.6,1.5-2.3-3.3-3.9-3.7-2.7,1.5-2.9,1.4c-1.7-.5-.9-4.2-1.1-4.5-.4-.5-2.9.9-3,.8-.3-.4.3-4.2,0-4.5-2.4-2.4-9.1,6.9-5.3-5.2l-6,1.5c4.1-10-2.4-3.2-3.8-9-3,1.4,2.6,5.7,2.3,6-3.5,3.5-9.9-7.1-11.2-.7l-2.3-6.7,8.2,2.2c.2-5.5-5-1.9-5.2-2.2s.4-2.7,0-2.9c-9.9-6.7-3.9,4.5-4.1,5.3-1.1,4.5-8.3-.3-6.4-4.6l-2.2,3.7c.9-2.3-2-5.3-4.1-4.5s-2.7,3.8-2.7,4.1c0,3.8,7.3-3,2.3,4.9-2.3-4.8-8.2-.6-6-8.2l1.8,3c2.3-1.6,1.9-.7,1.7-3.6-2.1-3.1-5.1-.6-6.6-2s-.6-3.3-.7-3.4-2.5,1.3-4.9.1-2.4-3-2.6-3.1c-1-.6-.5,2.2-1.5,1.5-2.5-1.9-3.7-11.8-6.8-.7,4.1-2.4,6.6,3.3,9.2,5s12.2,4.6,1.4,2.8-13.7-6.9-15.4-7.7-.9-2.7-1.4-2.9c-3.1-1.5-10.2,1.8-8.9-5.4,0,0-3,3-3,3,0,0,0-3.7,0-3.7s-3,2.2-3,2.2c.3-4.6-4.3-1.8-7.5-3,0,0,1.5-1.9,1.5-1.9-5.5-2.5-1.2-5.3-6.7-.4,1.3-6.1-9-2.4-12.6-3.2s-3.4-3.9-4.6-2.8,8,9.4,4.1,9-2.4-3.7-2.6-3.7c-1.8-.5-1.6,2.5-5.3,1.9s-2.6-1.8-3.7-2.2c-2.6-.4-3.8,1.9-3-1.9-2.4-1.2-2,1.8-3,1.5s-.2-1.7-.7-1.9c-1.5-.5-5.6-1.8-6.9-2.1-4.1-1-12.9.7-12.6-3.5l-6,1.5c-4.2-5.8-20.5-1.3-25.5-6.7-2.5-.4-.6,1.8-2.6,1.5s-5.6-2.7-7.5-2.9-7.5,1.5-8.7.6-1.9-6.7-4.9-7.5c-.5,4.2-2.4,5.7-.4,9.7-4.6-3.7-2.3-7.7-10.5-5.2l4.5,2.2-5.2,3c-3-2.3,1.7-7,.7-8.2s-11.1-.9-11.6-.8,0,2-.5,2.1c-5.4,2.1-2.9-3.2-7.8-2.1s-3.3,7.5-6.7-1.5c-3.1.1,1.3,2.9.4,3.7-2.7,2.6-3.5-2.9-3.8-3-.4-.2-7.4,1.8-9,1.9-2.5,0-7.2-3.1-8.6-1.2s.2,4.2-.7,4.5c-1.4.5-2.8-3.7-3.1-3.8-1.8-.7-6.9.8-9.3-2.2l1.5,4.5c-3.4.9-1.8-1.9-2.2-2.2-1.5-1.2-1.6,1.5-1.9,1.5-3.7.2-2.1-4.3-4.5,2.2l-1.5-4.6c-5,1.3-10.1.4-15.2,1.1s-14.2,3.8-16.8,4.1c-5,.6-7.6-.6-12.1-.4s-1.5,1.9-3.1,2.1-1.7-3.2-3.4-1.5,3.4,5.8-.4,6.7-2.4-5.8-2.6-6c-.5-.4-13.1.7-10.5,4.5l-1.5-3-.6,1.5c-5-1.7-5.9,3.6-6.2,3.8s-5-1-7.1-.8-1.5,3.3-3.3,2.3-.9-3-1.9-3c-1.7,0-2.8,5.1-3,5.3-5.2,5-5.3-2.8-8.3-2.3s-.9,7.2-5.2-2.3l-1.9,1.8,2.2,2.6c-7.2-3.2-4.2,1.1-4.5,1.5-.5.8-6.5-3.7-6.4-6-.5,5.4-5.3.6-4.1-1.5s5.7-1.2,3-3.8-3.8,3-4.1,3c-1.7-.1-.8-5.5-1.2-6.7s-3.6.6-2.2-2.3,6-.6-.7-4.1c6.8-2.3,2.1-1.5,2.2-6s5.5-4.4-2.2-2.6c-2.2-5.8,9.8-10,.8-11.2,3.9.1,4.9-5.4,5.2-5.6s8.2-2.3,9.3-3.3c1.6-1.5-1.1-7.4,5.7-3.1l-.7-3c4.4,3,1.7-1.1,3.5-2.3s12-1.9,8.9,2.3c1.3-3.1,6.2-2.7,9.4-3.7l-3-2.3c-1.3-1.9,12.9-8.3,6,.8l7.5-1.5-2.2-5.2,9.7-2.2-2.2,4.5c8.6,0-1.3-7.3,11.6-6s2.6,5.8,6.4,3.8c-6.4-8.3,6.8-5.4,10.1-6.2s.9-2.3,3.2-2.6c5.1-.8,10,.3,14.8-.9l1.9,3c0-.7.5-3.5.8-3.7.9-.6,20.1-1.4,20.9-.8s-1.8,3,0,3c.2-5.9,12.1-.1,12-5.2,0,2.2,4.8,3.3,6.3,2.9,2.6-.7-1.2-5.7,4.5,0l-1.1-3c4.5-1.7,2.5,5.6,4.2,0,3.9,2.5,11.4-2.4,8.2,3.1l3-3c.4,4.3,1.8,1,3.4,1.5s-.2,2.1,0,2.3c.5.4,9.9-3.8,12.6-1.4s.4,7.5,2.4,5.1-2.3-6.6-1.5-7.5c2-2.2,2.1,2.1,2.3,2.2,1.1.5,3.3-.3,4,0s.2,1.9.6,2.1c7.1,3,1.6-3.1,8.8-2.8l-2.2,2.2c3.4-1.4,6.1,4.2,7.2,4.4,2.8.5,3-3,3.6-2.9s1.4,5.8,9.7,3,.7-3.3,3.4-3l-.7,3.7c2.6.8,7.9-1,10-.8,16.2,2.2,36.7,7,53.3,10.5.5.1.7,1.8,2.5,2.2s.6-1.7,2.1-1.4,2.1,1.8,3.3,2c4.2.9,12.7-.6,14.1,4.7,3,0-.7-2.5-.4-3,1.9-3.2,3.5,1.9,4.2,2.1,5.1,2,9.1-.8,7.8,6.8l.7-4.9c2.1-1.9,2.9,1.8,3.1,1.8,1.1.2,2.4-1,3.8-.5,5.4,1.7,10.4,6,17.1,5.1l-1.5,4.5,4.9-3.7c4,5.6,12.2,4.6,17.9,6.7s0,2,.9,2.4c13.1,0,16.7,8.3,27.5,8.4,1.4.3,1,2.5,1.8,2.9,5.5,2.7,6.8.3,11.5,1.9s4.8,4.5,6,5.1c1.8,1,6.3,1.4,7.4,2s-.2,2.8,0,2.9c.9.5,3.7,0,4.3.3,2.3,4.7,6.9,3.1,9.8,3.6.2,1.6,0,9.1,3.4,3.7,3,.5,2.5,4.2,2.7,4.4,1.5,1,9,3.8,11.1,3.1l-1.5,2.9c2.8-.2,4.6,4.7,7.5,3.8s.7-5.6,3-1.5-2.2,1.4-2.2,1.6c-.7,5.6,5.9,1.3,6.7,2.9s-1.6,1.7-1.5,1.9c1.8,2.9,7.5,6.6,10.9,7.1s2.4-3.1,3.3-1.5-3.6,4.9,1.9,6,1.4-3.1,2.6-1.5-3,6.1,5.2,4.5l-3,3,9.7,1.5c.9,2.9-3.8.3-3,2.6s3.6-.2,5.3.7c3,1.7-3.9,1.1.7,5.3l1.9-3.4c1.6,2.3.5,3.7,4.1,3l-2.2,3c3.3-2.5,6.2,2.4,8,5.7s-2.6,6.8,4,1c-.4.6.5,5.8.8,6,.5.3,2.6-1.1,3-.7s-.3,3.1,1.1,3.7-.2-3.5,1.9-2.2,6,8,6.8,8.7c1.1,1,3.8-2.3,3,1.8l-5.2-.7c-.7,2.9,3.1.9,3.7,1.5s-1,4.6,0,5.2,8.1-4.2,7.4,3.3c0,1-2.7.9-2.1,1.9,1.3,2.4,8.5.2,9,.8s2.4,8,3,9l-7.1-6.8-1.1,1.1c2.8,6.2,4.7,7.9,12,6.4.7,2.6-3.5,1.9-3.7,2.3-1.9,2.6,3.5,4.3,4.2,5.2,1.9,2.4,4.5,8,5.8,9.6s3.7,1.5,4.2,2.1c1,1.3.8,2.9,1.8,4.2,1.6,1.9,5.7,2.1,5,7.4l2.2-3.7c-.5,4.3,3.3,12.6,5.9,16s7.8,5.4,8.2,5.9c.6.7-.3,3.2.3,3.9,2.8,3.5,6.7,6.3,8.1,11,2.7.7,1-2.6,1.5-3,3.5-2.6,2.8,3.2,3.1,3.6s2,0,2.5.8c7.8,12.4-5.7,2.2-1.4,10.4s3.9,2.1,4,2.3c.8,1.6-3.9-.5-3,2.2,7.1-.9,3.3,1.7,4.7,3.6,3.4,4.7,3.8-5.5,5.8-1.3s-3,3.9-3.1,4.2c-2,5.3,2.8,3.8,3.1,4.1.4.5-.7,6.9,1.5,8.6l-6.7,2.3c5.2,3.4,8,.3,11.2-3.4l-.8,9-3.2-1.5-1.2,2.1c.2,1.4,1,.5,1.4,2.5-.7.9-3.1,9.9-2.2,11.2,2.6-1.7.6-5.6,6-5.2l-.9-.3ZM645.3,343.5c-1.6-1.1-5.5-.1-2.9,2.6s5.2-1,2.9-2.6ZM629.7,348.6c-2.2-1.7-6.7,1.3-4.5,3.7s6.9-1.9,4.5-3.7ZM518.7,397.3c-1.5.2-7.8,8.5-4.9,9l4.9-9ZM878.4,432.7c-2.5-1.2-6.1-1.7-5.1,2.3s28.9,3.6,12.8.5v-3c-1.5,2.6-5.8,4.1-5.3,0-3.5,4.6-1.7.5-2.4.2ZM895.1,433.3c-2.3-.5-3.5,4.4-2.9,5.2,2,3,4.5-.7,4.8-.7s4.1,4.1,6.1,4.5,9.6.3,10,0c6.4-5.1-22-2.6-18-9ZM470,440.8l-.7-1.9-3.3-.3-1.2,4.4c0,0,5.4-2.5,5.2-2.2ZM921.3,444.5c-.9-1-2.1-3.3-4.1-3.4-5.7-.2-.7,4.8-.4,4.9,1.1.4.7-1.8,1.9-2.2s2.2.8,2.6.7c.5.5,1,3.6,2,3.8s7.7-2.2,9.1-1.4,1,4.1,2,4.3c3.2.6,8-2.1,4.8-4.3s-3.3.5-4.5-.4-.5-3.3-.7-3.4c-.3-.2-6.1.9-7.1.8-2.1-.1-1.3-2.9-3-2.3-1.6.5-1.2,2.8-2.6,2.9ZM456.5,447.5c-8.5-.9-7.6,8.4-6,6.7s-1.3-5.4,6.8-3.8l-.8-3h0ZM998.5,456.5l-2.9.8v2.1l5.2,2.3c0,0-2.1-5.4-2.3-5.2ZM1009,460.3c-1.5-.9-3.3,3.4-3,3.7.6.5,8.3,1.4,5.2-2.2s-1.9,1-2.2.8.2-2.1,0-2.3ZM1016.5,465.5l-.7-3c-2.5,8.2,0,8,5.2,2.3l-4.5.7ZM1062.2,486.5c-1.9-2.3-5.1,4-4.5,4.5s7-1.4,4.5-4.5ZM413.7,494.6c.4-.7.2-3.7-.2-4.4h-3.4c1.3-.6-.7,11,3.6,4.4ZM1064.8,490.7l-1-1.2v4.5l1.5-1.5c-.2,7.9,7.5,3.8-.5-1.8ZM363.6,545.7c-3.4-.9-1.9,2-2.2,2.2-1.6,1-1.4-1.4-2-1.5-5.3-.8-.9,5.2,2.2,3.6l2-4.4h0ZM346.5,565.8c-.4-.2.3-1.6-.9-1.3l-2.2,2.6.7,1.9,5.2-1.9c.4-2-1.5-.6-2.8-1.3ZM1238.2,606c-.9-.6-1.6-1.2-2.8-1v6l5.2-2.3c-1.9,0-2.3-2.6-2.5-2.7h.1ZM287.4,658.6c-.5-.3.1-1.5-1-1.2l-1.9,7.5,4.1-2.3c-4.4-2.8,5.2-.7-1.2-4ZM266.1,704.7l-3.8,1.5c4.5-1,2.1,2,4.5,3.7l-.7-5.2ZM233.1,816.3l-2.2-8.2c.8,4.3-1.9,3.4-3,6l5.2,2.2ZM217.3,902.7c-3-2.6-4.6,5.1-2.4,5.8,4,1.4,3.7-4.7,2.4-5.8ZM217.7,912c-.4-.8-1.5-4.3-3-1.9-2.8,4.3,6.2,8.2,3,1.9ZM219.6,966.3c0-3.2-3.9-6.2-6-2.6l1.5,4.9,1.5-3.7c0,0,3.2,1.7,3,1.4ZM1281.1,997c2.6,2,4-4.7,3-6s-6.2,3.4-3,6ZM228.2,1038.7c-.6-.9-.3-2.5-1.8-2.7l-.7,6,1.5-1.5,1.9,7.5c1.8-4.2,1.2-6.2-.9-9.3ZM232.5,1053.9c-1.5-2.1.9-5.4-6.1-5.2,4.2,2.5,3.7,2.7,1.5,6.7h7.5c.6-2.7-2.4-.9-2.9-1.6h0ZM307.2,1117.8c-.1-.2-4.1-3.3-4.3-3.1-.5.5,2.4,10.2,5.2,7.5,2.9-2.8-.9-4-.9-4.4ZM265.3,1126.7c0,0-2.4,0-3-1.1s-2.1-8-2.6-7.9c-3.9.4.7,5.1,1.1,6.5s-2.1.4-1.4,2.4,3.4,2.9,3.7,3.6-.8,2.6-.7,2.9c.6,1.5,4.3.5,4.4.3.2-.3-1.4-6.4-1.5-6.7ZM314.7,1128.3c-.2-.3-6.3-3.1-5.9-.9,5.4,0,3.3,7.7,8.2,9-.8-1.2-2.3-8-2.3-8.1ZM270.6,1143.1c1.9-1.5-.6-7.3-3.3-2.9s2,3.9,3.3,2.9ZM327.4,1145.6c-3.9-5.6-.3,4.5-2.8,5.8l6,.8c-2.2-1.6-2.7-6.3-3.2-6.6ZM345.6,1158.9c-5.6,5.6,4.4,3,4.9,3.7,1.3,1.8-2.1,5.6.7,6,2.7-3.8-.6-13.9-5.2-7.5l-.4-2.3h0ZM300.4,1179l-.2-3.5-4.1,2.3,1.2,2.1,3-.9h.1ZM378.6,1188.9c-1.7-2.1-4.4.2-5.2,2.2,1.2-3.2-4.6-3.5-3.8-.4s6.5,3.6,6.8,3.4c.2-.2,2.6-5.2,2.2-5.2ZM385.3,1192.7c-4.1-2.7-12.4,4.4-10.5,9.7,2.9.7.5-5.3,2.6-5.2s.3,4.2,2.4,5.9,10.3.4,10.6,0c2.1-3.4-8.3-5.1-5.1-10.4ZM397.1,1201.1c-9.7-2.5-1,5.8-2.8,8h-6c-.5,4.9,2.7,1.5,4.1,1.5s1.9,1.5,3,1.5,1-2.3,1.6-2.3c6,0,9.9,7.5,10.8,7.5,3.2.3-.8-4.4,5.2-3-.2-3.6-6.8-1.8-9-2.3.9-2.3,3.6-1.6,5.2-.7l-1.5-4.5c-8.7,7.6-3.8-1.4-5.7-3s-4.7-2.7-5-2.7h0ZM320.1,1203.9c-9.6-2.5-3,7.5-.7,5.2l.7-5.2ZM398.8,1212.9l-1.7,1-.2,3.6,7.1,1.5c-.7-8.5-6.3,2.3-5.3-6h.1ZM414.5,1218.1c-7.6.2-1.4,2,0,6-10-4.3,6.8,8,8.2,6.8s-2.4-3.1-2.3-4.1c.4-2.5,6.9-5.2,1.1-6.2s-4.9,3.9-7-2.5c1.5,0,2.8.3,4.2.7l1.1-1.4-6-3c0,1.3.3,2.5.7,3.7ZM332.1,1216.7c-2.9-3.1-6.4,3.4-6,3.7,1.6,1,8-1.6,6-3.7ZM434.8,1230.9c-1.6-7.6-4.7-6.5-11.2-6.7,4.3,3.9,8.6,4.4,11.2,6.7ZM425.6,1279.1c-4.4-.9-3.1,3.3-2.8,3.5.8.4,5.5-1.3,6.7-1.9-2.2.7-3.8-1.6-4-1.6h0Z"/><path d="M262.4,946.8c9.1,2.4,2.2,2,3,4.5s3.3,1.6,3,2.6-3.4,0-3.7.4-1.4,7.2-1.1,7.5,2.4-.2,2.6,0-1.8,5.8-.7,7.5,3.5-1.6,3.6,2-3.8,5.7-.6,10c-.6,0-2.6-1.2-3-1.5s.3-1.9,0-2.2-2.7.3-2.9,0c-.6-.8,0-4.4-.1-4.7-.4-.9-2.8-1.6-2.9-3.9s1.9.2,2.2-.3-1.4-10.1-1.5-12.4,4.3-5.5-2.9-6.4c3.3-1.9,3.1-.8,5.2-3h-.2Z"/><path d="M265.4,979.8c.8.4-.2,4.3,3.8,3l-2.2,2.2c7.3,2.1,4,4.7,3.8,9.4s3.3,7.7-1.5,3.4.2-2.8,0-3-3.6,1.5-4.5.7,1-2.5.5-3.8-2-1.2-2-2.6,2.9-2.8,2.2-4.4-3.5-1-3.7-1.2c-1.1-1.2,1.9-4.7,3.8-3.7h-.2Z"/><path d="M1256.4,647.7c1.3-1.7,6.3-2.4,8-.5,5.3,5.6-2.5,5.2-1.3,8.8-2.9.4,0-2.1-3-2.3,0-.6,1.7-1.8-.4-3-4.9,3.1-2.6.8-3.3-3Z"/><path d="M746.6,325.3c-.9,3.3,2.6,1.7,3.8,4.1.8,1.6-2.9,3.6-1.5,5.6l-.7-4.5c-.5-.5-8.7,1-10,1.4s-.4,2.2-.5,2.3c-1.2.5-.9-5-4.5.7l5.2,1.1-7.5,4.1,2.2-4.5h-8.2c1.2-11.1-4.1,6.7-1.5,7.5-3.9-2.4-6.3,5.5-9,3-3.9-3.6,11.6-5.3-.7-11.2l6,.4c-2,11.5,3-.1,1.5-1.9s-2.7.2-3,0c-1.8-1.5,9.5-4.6,10.1-4.5s.2,2.1,2.2,2.2,3.4-3.8,5.4-3.6.8,2.2,1.5,2.2c2,0,.6-1.5,1.5-1.5s1.3,1.8,3,1.5c3.4-.6,3.1-5.7,4.9-4.5h-.2Z"/><path d="M286.4,1052.5c0,4.4.6,6,5.3,6,.5,2.5-2.3,1.2-3.6,2-5.7,3.9,1.8.8,2.1,1,1.5.8-.2,5.9,0,7s4,2.6,2.3,4.3c-4.8,4.7-10.1-14.3-9.7-17.2l2.2,2.2c.5-1.6-1.3-5.8,1.5-5.2h0Z"/><path d="M1304.4,829.9c-.8.8.2,1.2,1.5,1.7,8,2.6-2,9.7-3.7,3.9,8.5-5.7-8-2.3-3.8-5.6s5.2,3.3,5.3-4-3.6.7.7-3.5l-2.2-1.1,4.8-1.8c2.1.5.7,8.1.3,9.2-.7,1.6-2.6,1-2.9,1.2Z"/><path d="M274.7,1015.5c1,1.9.8,4.4-.3,5.5,7.6-.2-.3,12.6,5.1,9.9,2.2,6.4,6.7,12.7-2.8,7.4v-2.2l3,.4c-.9-5.3-4.8-6.6-6.7-8.6s2.9,0,3.7-1.9c1.4-3.1-3.4-1.4-3.7-1.9-.6-.7.8-5.5.7-7.1-.3-1.8-2.8-9.1,1-1.5Z"/><path d="M806.6,340.3c1.6,0,.3-3.1.7-3.7s7.9.1,4.9,1.5-3-.3-3.4,0,.8,2.9.7,3c-.4.6-11.8,3.3-12.1-1.1s5-1.6,5.3-1.9c.9-.9-2.1-2.9.4-3,2.7-.1,3.9,3.1,3.5,5.2Z"/><path d="M1306.6,789.4l-2.3.4c-.7,2.6,1.7,2.5,2,4.8.8,6.1,2.4,11.6-4.9,12.1-.5-.5,7-7.4-.8-6.7-.7-2.7,2.6-1,3-1.5.3-.8-4.4-14,3-9.1Z"/><path d="M1280.3,689c.5-.1-.6,11.4,3.1,8.2.3,1.1.6,10-2.6,6.7s.2-4.8-4.1-3.8c5.1-1.2,0-5.2,0-5.6,0-2,2.2-1.3,2.3-2.3,0-1.1-2.7-10.2,1.3-3.2Z"/><path d="M486.5,1246.6c.2.2-1.1,2-.7,2.2s2.4-1.2,3-.7,1.2,4.8,6,4.5c-4.7,3.4-14.4,1.3-11.2-5.2-7.8,1.5-.6-3,3-.7h0Z"/><path d="M796.9,437.8c-5-3.1,2.4-.7,2.7-.7,2.5,0,21.9-2,22.1.4.2,2.4-23.7,1.2-24.8.3Z"/><path d="M821.8,337.2c.3.2,5.7.6,2.8,3.9s-3.4-3.6-4.1-3.7c-1.6-.2-.3,3.6-1.1,4.1-3.5,2.2-7.7-1-2.5-4.9,5.2-3.9,3.9-.2,4.9.6Z"/><path d="M1022.5,482.8c1.9.8,9.5-4.8,8,1.8s-3.7-1-4-1.1c-.5-.2-11.3,2.1-7.7-2.8s3.4,2,3.7,2.1Z"/><path d="M1303.9,809.3c7.3,4.7,1.2,9.5-.3,7.8s2.5-9.1-5.3-7.5c1.6-4.4,4.4-.8,5.6-.3Z"/><path d="M867.3,341.1l-9.7.8-.7-2.6c2.2-2.2,10.4-2.1,10.4,1.8Z"/><path d="M1299.9,759.4l3,11.2-5.2-1.1c6.7-2.6-5.9-8.9,2.2-10.1Z"/><path d="M728.6,438.5v3c.5-3.1,6.2-.7,7.5,1.5h-11.2l3.7-4.5Z"/><path d="M1294.6,736.9c.4.4.6,9.4-.4,10.5-5.1-1.6-.2-4.5-1.6-8.1s-3,.2-2.5-2.4h4.5Z"/><path d="M748.9,338.1c0,.1-.4,2,.5,2.3,2.8,1,11.1-.8,5.1,3.7-2.5-4.2-6.8-.7-10.1-.8,1.9-.1,3.2-6.3,4.5-5.2Z"/><path d="M956.1,456.2c10.4,2.4,1.5,7.8-1,1.1l-2.3,2.2c-.4-3.5.2-5.8,3.3-3.3Z"/><path d="M284.7,1045.9c2.9,1.2-1,9.2-.6,2.1-2,2.4-3.3,3.4-6.7,3l3.8-5.1s3.5,0,3.5,0Z"/><path d="M838.1,333.6v3c-2.9-1.7-10.4.2-11.5,0s-4.6-3-1.6-3,8.9,2.6,13.1,0Z"/><path d="M547.3,1331.2c9.9,4.5,7.9,3.9-1.9,2.5.2-8.4,1.6-2.6,1.9-2.5Z"/><path d="M749.6,438.5l5.6-.6,1.1,2.4c-1,3.2-7.9,3.1-6.7-1.8Z"/><path d="M716.7,442.3v2.2c-3-1.9-6,1.9-6.7,1.5s.5-3.6-6.7-1.5l13.5-2.2h0Z"/><path d="M845.6,335.8l2.6,4.5.4-2.2s2.2,0,2.2,0c1,9.3-13-2.2-5.2-2.3Z"/><path d="M422,551c-.1,0,.5-2.4-1.5-1.5s.2,2,0,2.1c-.8.5-3.3-.2-3.7,0s1.5,5.3-1.5,6c1-1.6-.4-5.9,0-6.7,2.5-4.1,12.2-.3,6.7,0Z"/><path d="M290.1,1192.7c0,.3,2.1-.5,2.3.4-4.2,3.6-2.4-1-3.1-1.7-1.4-1.4-7.7-3.3.1-3.6,2.2,1.5.7,4.2.7,4.9Z"/><path d="M1276.4,680.9c.8,1,1.4,5.2,1,5.8-3.4,4.1-5.3-11.3-1-5.8Z"/><path d="M792.4,1348.6c4.3,3.6-13.3,4.8-6.2.7s5.9-1,6.2-.7Z"/><path d="M1308.8,839.6c.6,1-3.3,8.5-5.2,6s4.4-7.6,5.2-6Z"/><path d="M950.9,456.1c-4.2,3.3-6.3-3.6-1.6-3.4s4,1.4,1.6,3.4Z"/><path d="M1310.3,872.6c-.6,2.3,1,9.8-2.2,10.5,2.5-3.2-2.8-9.6,2.2-10.5Z"/><path d="M1288.9,720.9c3,6.5-6.2-.2-3.3-3.5s3,2.9,3.3,3.5Z"/><path d="M795.4,322.3c0,.9-7.2,4.8-7.5,4.5-1.7-2.1,4.7-6.5,7.5-4.5Z"/><path d="M1052.8,498.1c9.7,7.4.9,7.3-1.8,0,1.9-2.2,1-.7,1.8,0Z"/><path d="M832.7,435.7c.3,4,3.9-2.5,3.2,2.9,0,0-11.2,0-11.2,0,0,0,8.5-2.7,8-2.9Z"/><path d="M759.4,341.8l6,2.6c-2.4,2.7-6.1.7-6-2.6Z"/><polygon points="1212.9 558.5 1211.4 561.1 1209.6 560.8 1206.9 555.5 1212.9 558.5"/><path d="M547.2,373.3c0,3.5.6-1.3,3.7,0,0,3.1-4.2,1.4-.8,3.7l-5.2-.7.8-3h1.5Z"/><path d="M1039.8,488.6c1.2.8,4.2-1.2,3.6,1.6-5-2-.6,3.5-3.8,1.9l-3-6.4c3.3-.9,2.5,2.7,3.2,2.9Z"/><path d="M795.4,338.1v3c-3.3-2.1-2.6,2.2-3.4,2.2-2.9.3-1.5-7.4,3.4-5.2Z"/><path d="M414.5,557.7c1.6,1.4-3.5,5.5-5.2,4.5.2-1.7,3.5-6.1,5.2-4.5Z"/><path d="M457.3,510.5c2,1.6-5.6,6.6-6,6-.9-1.5,4.3-5.8,6-6Z"/><path d="M1273.6,688.9c.5.8-2.5,2.1,0,4.5h-2.2l-3-6.7,5.2,2.3h0Z"/><path d="M1295.4,770.6c1,.3,1.8,7.5-2.3,4.2-1.6-1.4-1.6-5.4,2.3-4.2Z"/><path d="M741.4,342.6c.9.9-2.4,3.3,5.2,3.7-10.4,3.2-8.6-7-5.2-3.7Z"/><path d="M515.7,1260.1c.8.7-1.8,3.8,2.2,2.6l-2.5,1.7c-5.1-.8-2.4-7,.3-4.3Z"/><path d="M1015,1298.4c.3,2.8-6.6,3.3-8.2,1.9l8.2-1.9Z"/><path class="cls-1" d="M397.1,1201.1c.3,0,4.8,2.6,5,2.7,1.8,1.6-3,10.6,5.7,3l1.5,4.5c-1.6-.8-4.3-1.6-5.2.7,2.2.4,8.8-1.4,9,2.3-6-1.4-2,3.3-5.2,3s-4.8-7.5-10.8-7.5-1,2.3-1.6,2.3c-1.1,0-1.8-1.5-3-1.5s-4.6,3.3-4.1-1.5h6c1.9-2.2-6.9-10.5,2.8-8h0Z"/><path class="cls-1" d="M385.3,1192.7c.2,0-1.1,2.1.1,3.9s6.7,4.3,5,6.4-10.1.5-10.6,0c-2.1-1.7-.8-5.8-2.4-5.9s.3,6-2.6,5.2c-2-5.4,6.6-12.7,10.5-9.6ZM383.8,1194.9c-1.9-1.2-5.1,4-4.5,4.5l4-.8,1.2,1.6c0-.1-.7-5.2-.7-5.3Z"/><path class="cls-1" d="M414.5,1218.1c-.4-1.2-.8-2.5-.7-3.7l6,3-1.1,1.4c-1.4-.4-2.7-.7-4.2-.7,2.1,6.4,3.2,1.8,7,2.5,5.8.9-.7,3.7-1.1,6.2s3.6,3,2.3,4.1-18.3-11-8.2-6.8c-1.4-4-7.6-5.8,0-6Z"/><path class="cls-1" d="M921.3,444.5c-.4.1-1.9-.9-2.6-.7-1.2.3-.8,2.5-1.9,2.2s-5.3-5.2.4-4.9,3.2,2.5,4.1,3.4c1.5-.6,1.8-2.7,2.6-3,1.7-.6.9,2.2,3,2.3s6.9-1.1,7.1-.8-.4,2.7.7,3.4,3.9,0,4.5.4c3.2,2.2-1.6,5-4.8,4.3s-1.2-3.9-2-4.3c-1.4-.7-8.6,1.6-9.1,1.4-1.1,0-1.6-3.7-2-3.7Z"/><path class="cls-1" d="M895.1,433.3c-4,6.4,24.4,3.9,18,9s-9.4.1-10,0c-2-.4-5.8-4.4-6.1-4.5s-2.8,3.7-4.8.7.6-5.7,2.9-5.2h0Z"/><path class="cls-1" d="M878.4,432.7c.7.3-1.1,4.4,2.4-.2-.6,4.1,3.7,2.6,5.2,0v3c16.1,3.1-12,2.6-12.8-.5-.8-3.2,2.7-3.3,5.2-2.3Z"/><path class="cls-1" d="M265.3,1126.7c.2.3,1.7,6.4,1.5,6.7s-3.8,1.2-4.4-.3,1.1-2.2.7-2.9-3.7-3.3-3.7-3.6c-.8-2.1,1.7-.9,1.4-2.4s-5-6.1-1.1-6.5,1.9,6.6,2.6,7.9c.7,1.3,3,1,3,1.1Z"/><path class="cls-1" d="M434.8,1230.9c-2.6-2.3-6.9-2.8-11.2-6.7,6.5.2,9.7-.9,11.2,6.7Z"/><path class="cls-1" d="M345.6,1158.9l.4,2.3c4.6-6.4,8,3.7,5.2,7.5-2.8-.4.6-4.2-.7-6-1.5-1.8-10.4,1.9-4.9-3.8Z"/><path class="cls-1" d="M378.6,1188.9c.2.2-2,5-2.3,5.2s-6.7-3-6.8-3.4c-.8-3.1,5-2.8,3.8.4,1-2.1,3.5-4.3,5.3-2.2Z"/><path class="cls-1" d="M228.2,1038.7c2,3.1,2.7,5,.8,9.2l-1.9-7.5-1.5,1.5.7-6c1.5.3,1.1,1.9,1.9,2.8Z"/><path class="cls-1" d="M232.5,1053.9c.5.7,3.5-1.1,2.9,1.6h-7.5c2.2-4,2.7-4.2-1.5-6.7,7-.2,4.6,3,6.1,5.2h0Z"/><path class="cls-1" d="M314.7,1128.3c.3.3,1.5,6.9,2.4,8.1-4.9-1.3-2.9-9-8.2-9-.5-2.2,6.1.7,5.8.9Z"/><path class="cls-1" d="M398.8,1212.9c-1.1,8.3,4.6-2.5,5.3,6l-7.1-1.5.2-3.6,1.7-1h-.1Z"/><path class="cls-1" d="M363.6,545.7l-2,4.4c-3.1,1.6-7.5-4.4-2.2-3.6s.4,2.5,2,1.5c1.7-1.2-1.3-2.9,2.2-2.3Z"/><path class="cls-1" d="M217.3,902.7c1.3,1.1,1.5,7.3-2.4,5.8s-.6-8.5,2.4-5.8Z"/><path class="cls-1" d="M456.5,447.5l.8,3c-8-1.6-5.8,2.7-6.8,3.8-1.8,1.5-2.2-7.5,6-6.8Z"/><path class="cls-1" d="M320.1,1203.9l-.7,5.2c-2.3,2.2-8.8-7.8.7-5.2Z"/><path class="cls-1" d="M518.7,397.3l-4.9,9c-2.9-.4,3.4-8.8,4.9-9Z"/><path class="cls-1" d="M219.6,966.3l-3-1.5-1.5,3.7-1.5-4.9c2.1-3.6,6-.5,6,2.7Z"/><path class="cls-1" d="M217.7,912c3.2,6.3-5.8,2.3-3-1.9s2.6,1.1,3,1.9Z"/><path class="cls-1" d="M327.4,1145.6c.4.5,1,5,3.1,6.6l-6-.8c2.6-1.5-1.2-11.3,2.9-5.8Z"/><path class="cls-1" d="M332.1,1216.7c2,2.1-4.3,4.7-6,3.7s3-6.8,6-3.7Z"/><path class="cls-1" d="M1064.8,490.7c8,5.6.3,9.7.5,1.8l-1.5,1.5v-4.5l1,1.2Z"/><path class="cls-1" d="M1016.5,465.5l4.5-.7c-5.3,5.8-7.8,5.9-5.2-2.3l.7,3Z"/><path class="cls-1" d="M307.2,1117.8c.1.2,1.1,4.2.9,4.3-2.8,2.7-5.7-7-5.2-7.5.5-.5,4.3,2.9,4.3,3.2Z"/><path class="cls-1" d="M413.7,494.6c-4.3,6.6-2.3-5-3.6-4.4h3.4c.5.7.7,3.7.2,4.4Z"/><polygon class="cls-1" points="470 440.8 464.8 443 466 438.6 469.3 438.9 470 440.8"/><path class="cls-1" d="M1281.1,997c-3.2-2.6,2.4-6.7,3-6,1,1.3-.4,8-3,6Z"/><path class="cls-1" d="M287.4,658.6c6.4,3.4-3.1,1.2,1.2,4l-4.1,2.3,1.9-7.5c1.1-.3.5.9,1,1.2Z"/><path class="cls-1" d="M425.6,1279.1c.2,0,1.8,2.3,4,1.6-1.2.6-5.9,2.3-6.7,1.9s-1.6-4.3,2.8-3.5h0Z"/><path class="cls-1" d="M233.1,816.3l-5.2-2.2c1.1-2.6,3.8-1.7,3-6l2.2,8.2Z"/><path class="cls-1" d="M270.6,1143.1c-1.3,1-5.4.4-3.3-2.9s5.2,1.4,3.3,2.9Z"/><path class="cls-1" d="M629.7,348.6c2.4,1.9-3.5,4.8-4.5,3.7-2.2-2.4,2.3-5.4,4.5-3.7Z"/><path class="cls-1" d="M1238.2,606c.2,0,.5,2.7,2.5,2.7l-5.2,2.3v-6c1.2-.2,1.9.4,2.8,1h-.1Z"/><polygon class="cls-1" points="998.5 456.5 1000.8 461.8 995.6 459.5 995.6 457.3 998.5 456.5"/><polygon class="cls-1" points="300.4 1179 297.4 1179.8 296.1 1177.7 300.2 1175.4 300.4 1179"/><path class="cls-1" d="M266.1,704.7l.7,5.2c-2.4-1.8,0-4.7-4.5-3.7l3.8-1.5Z"/><path class="cls-1" d="M346.5,565.8c1.3.7,3.2-.7,2.8,1.3l-5.2,1.9-.7-1.9,2.2-2.6c1.2-.3.5,1.1.9,1.3Z"/><path class="cls-1" d="M645.3,343.5c2.2,1.6.5,6.2-2.9,2.6s1.4-3.7,2.9-2.6Z"/><path class="cls-1" d="M1009,460.3c.2.1-.2,2.1,0,2.3.3.2,1.9-1.1,2.2-.8,3.1,3.7-4.7,2.8-5.2,2.2s1.5-4.7,3-3.7Z"/><path class="cls-1" d="M1062.2,486.5c2.6,3.1-3.7,5.2-4.5,4.5s2.6-6.8,4.5-4.5Z"/><path d="M383.8,1194.9l.7,5.2-1.2-1.6-4,.8c-.7-.4,2.8-6,4.5-4.4Z"/></g><g id="Inner-Shape"><path d="M847.1,814.8c128.4,35.8,183.2,183.5,180.7,305.4-2.7,14.4-22.9,16.2-28.3,2.9-.7-123.1-55.6-275.9-197.7-286.6-164.8-14-231,148.2-232.7,286.1-4.8,13.9-26.2,11.9-28.5-2.5s1.7-47.4,3.8-63.5c13.7-103,69.1-213.4,176.8-241.9-77.6-40.3-103.8-138.7-51.6-210.9,151.6-179.2,379.3,90.9,177.5,211ZM896,687.4c-3.8-147.5-219.8-147.4-223.6,0,3.8,147.4,219.8,147.4,223.6,0Z"/><path class="cls-1" d="M784.2,575.6c147.5,3.7,147.4,219.9,0,223.6-147.5-3.7-147.4-219.9,0-223.6Z"/></g></svg>